<svg xmlns="http://www.w3.org/2000/svg" viewBox="0 0 242 195"><defs><style>.cls-1{fill:#ae857b}.cls-2{fill:#9acd9d}.cls-3{fill:#ffe9a1}.cls-4{fill:#f3e727}.cls-6{fill:#587f35}.cls-7{fill:#d33835}.cls-8{fill:#a88f1f}.cls-9{fill:#759c78}.cls-10{fill:#bbac77}.cls-11{fill:#57423d}.cls-12{fill:#d9706f}.cls-13{fill:#fff}.cls-14{fill:#309cd0}.cls-15{fill:#cbccc7}.cls-16{fill:#221714}</style></defs><g id="Layer_2" data-name="Layer 2"><g id="圖"><path class="cls-1" d="M48 57S29 44 19 69c0 0-13 31 11 47l6-1s-9-11-1-28 18-11 18-11l5 6s9 13 21 16 5 3 5 3 14-12 8-27-18-32-44-17M156 46s-15-2-14 34c0 0-3 20-7 33l11 8s2-7 4-8 5-10 5-10-8 1-9-5 4-9 5-8 5 8 9 8-5-9-4-19c0 0 16-17 17-22 0 0 29 1 33 17 0 0 6 9 14-4l-11-8s-8-20-20-21-6-10-33 5"/><path class="cls-2" d="M68 128s-13 0-15 5-2 17 10 24c0 0 6 5 12 0 0 0 6 3 7-7l-14 1zM89 119l2 9 9 2 1-9-12-2zM105 157l7 13s0 3-4 5-14 0-14 0l-12-25 8-2s4 10 15 9"/><path class="cls-3" d="M53 76s-11-4-16 6-6 23-1 33 19 16 19 16 10-3 16-2 20-1 20-1l-4-18s7 0 9-9-5-6-5-6l-7 6-13-6c-5-2-18-19-18-19"/><path class="cls-3" d="M68 151l22-3s8 14 15 9 15-12 10-21c0 0 6-8-5-7l-10 1-29-1s-7 9-3 22"/><path class="cls-3" d="M119 124l-3 1h-3l-3-15 6-4 1-6s6-1 5 7c0 0 8 6 2 18l-5 11-5-7zM156 110s-10 1-8 14 8 28 15 19 5-20 5-20 10-15 4-21-10 3-10 3-7-4-6 5M193 113s9 5 8 9l3-6s-3-7 2-9 4 2 4 2 0-6 4-7 11 2 9 10-7 14-11 18c0 0-6 15-10 15s-8 0-10-10z"/><path class="cls-3" d="M151 90l-4 2v7l3 3h4l2 2 5 1 5-6s5-4 6 3a68 68 0 0 1 1 10s14 4 20 1 16-16 15-26 1-9-1-13-7-11-12-14-11-2-15-2-5-1-7 1l-6 8-7 7a16 16 0 0 0-4 5s2 16 4 18-1 1-1 1a18 18 0 0 1-8-8"/><path class="cls-4" d="M169 126s4 3 4 7l-4 29s-2 6-7 4-20-5-24-11l-3-5a25 25 0 0 0 8-8l6-12 3 9s3 8 7 7 9-1 8-9 3-9 2-11M185 114a45 45 0 0 1-5 15s-3 26 2 32 19-1 19-1 0-9-3-14-5-1-5-12a166 166 0 0 1 0-21zM82 152s12 19 11 25-32 0-32 0 5-14 2-20a13 13 0 0 0 9 2c3 0 9-3 10-7M105 157s6 15 8 15 12-7 12-11c-10-4-12-8-14-8s-6 4-6 4"/><path d="M142 160s19 10 23 5 8-32 8-32l-4-7 3-8 1-6 12 2-1 7-3 6s-3 7-2 18 0 18 7 18l7-1 3 11-5 2 3 10-11 6-47-9 5-3 1-7-8-4z" fill="#73a536"/><path class="cls-2" d="M113 172s2 7 4 8-30 10-30 10l-13-2 2-7 17-4s21-1 20-5"/><path class="cls-6" d="M143 176l4 2 6 3a47 47 0 0 0 13 3c8 1 18 0 26-3 4-2 1-7-3-6l-12 2a59 59 0 0 1-12 0 107 107 0 0 1-13-2c-2-1-6-2-9 0a1 1 0 0 0 0 1M142 164a36 36 0 0 0 11 5l11 2c7-1 8-10 6-15h-2l-1 7c-2 3-5 2-7 2l-16-4a2 2 0 0 0-2 3M173 114c-1 1 1 3 2 5a9 9 0 0 0 6 2 4 4 0 1 0 0-8h-4a23 23 0 0 0-3-1 1 1 0 0 0-1 2"/><path class="cls-6" d="M176 115c-4-1-7 4-8 7a12 12 0 0 0 3 10c3 3 8 1 9-2a11 11 0 0 0 1-6v2l1-4-8-2c-2 6-1 13-2 20s-3 14-1 21c2 8 12 10 18 9 6 0 6-9 0-8-3 0-6 0-9-2v-1h-1c-1-1 0 0 0 0v-3l1-17a55 55 0 0 1 0-8 24 24 0 0 1 0-5l2-4c2-5-5-8-8-3l-1 2q-1 1 0 0a21 21 0 0 0-3 4h10v-5c0-3-1-5-4-6"/><path class="cls-7" d="M81 154c-2 4 2 7 3 9l4 13 3 2-3-12-3 1c1 2 2 5 1 8 0 3-5 2-8 2a51 51 0 0 1-15-3l-1 4c5-1 10 0 14 1a48 48 0 0 0 14-2c2-1 1-4-1-4a44 44 0 0 1-14 2c-4-1-8-2-13-1a2 2 0 0 0 0 4c7 2 15 3 23 2s5-9 4-14a2 2 0 0 0-4 1l2 12a2 2 0 0 0 2 1c5-2 3-8 2-11-2-6-5-10-8-15a1 1 0 0 0-2 0M136 152c4 5 11 8 17 11 5 2 12 3 14-4 3-9 6-19 6-28a2 2 0 0 0-4-1c-2 4-2 10-3 15s-1 12-6 15a2 2 0 0 0-1 3c2 2 5 5 7 2a1 1 0 0 0-1-2l-3-3v3c6-3 6-9 7-15l2-9 2-7-4-1c0 8-3 17-5 24l-2 5c-3 2-7 0-9-1-6-2-11-6-16-9-1-1-2 1-1 2M180 129c-2 3-2 8-3 12a34 34 0 0 0 2 12c1 4 3 7 7 9 4 1 9 0 13-1 3-1 2-6-2-5-3 0-7 2-10 0-2-2-3-6-3-9a78 78 0 0 1-1-9l-1-9a1 1 0 0 0-2 0"/><path class="cls-7" d="M185 117a45 45 0 0 1-3 7l-2 5a1 1 0 0 0 2 1c2 0 3-3 4-5a22 22 0 0 0 2-7c0-2-2-2-3-1M166 163a3 3 0 0 0 1-1 3 3 0 0 0 0-1 1 1 0 0 0-1-1 2 2 0 0 0-1 0 2 2 0 0 0 0 1v2a1 1 0 0 0 1 0M110 154c1 5 8 8 12 10 3 1 4-4 1-4a29 29 0 0 1-6-4l-6-3a1 1 0 0 0-1 1"/><path class="cls-8" d="M65 160c-1 3 4 6 7 7a2 2 0 0 0 3-1 12 12 0 0 0 0-7 2 2 0 0 0-2-2 26 26 0 0 0-6 1 2 2 0 0 0 1 4 22 22 0 0 1 5 0l-2-3a13 13 0 0 1 0 6l3-2a35 35 0 0 1-5-2l-4-2a1 1 0 0 0 0 1M106 158c0 4 3 8 5 11 1 1 3 2 4 1a13 13 0 0 0 5-5 2 2 0 0 0-1-3c-4-1-7-3-9-7l-3 2a31 31 0 0 0 12 9l-1-2a8 8 0 0 1-5 4 2 2 0 0 0 1 3 10 10 0 0 0 7-5 2 2 0 0 0-1-2 28 28 0 0 1-10-9 2 2 0 0 0-3 2c2 4 5 7 10 9v-4l-5 3 4 1-7-10c-1-1-3 0-3 2M148 136c-1 4 3 11 7 14 3 2 9 2 11-2 1-3-3-6-4-3-2 4-6 0-7-2l-5-8c-1-1-2 0-2 1M193 116c-5-3-5 12-5 14-1 7 0 15 7 18 4 1 5-4 2-6-5-1-4-7-4-11v-7-6a1 1 0 0 0 0-2"/><path class="cls-9" d="M52 136c-2 6 3 14 8 18 6 4 14 5 19 0 2-1 0-5-2-4-5 1-10 2-14-1a19 19 0 0 1-6-7l-3-7a1 1 0 0 0-2 1M102 157c-3 0-5 0-8-2-3-1-4-4-6-6-1-3-6-1-5 2a64 64 0 0 0 7 14c2 3 7 8 7 12l5-1-4-6c-1-3-6-1-5 2a25 25 0 0 1 2 6 9 9 0 0 1 0 2l-4 1H78c-4 0-4 6 0 6a54 54 0 0 0 10 0c3 0 7 0 9-2 6-2 3-11 1-15l-5 2 4 7c1 2 5 1 5-2 0-5-3-8-6-12a54 54 0 0 1-7-16l-6 2c4 7 12 16 21 11 2-1 1-5-2-5"/><path class="cls-9" d="M96 182a19 19 0 0 0 9 0c3 0 7-1 9-3 1-2 1-5-1-5-3-1-7 0-10 2a18 18 0 0 0-7 5 1 1 0 0 0 0 1M94 128a9 9 0 0 0 1-4l-2 2c1 0 1 0 0 0a6 6 0 0 1 1 0s1 0 0 0a5 5 0 0 1 1 0c-1 0-1 0 0 0h-1c1 0 1 0 0 0 0-1 0 0 0 0v-1a3 3 0 0 1 0 1v-1c0 1 0 1 0 0 0 1 1 0 0 0-2 2-1 6 2 6a4 4 0 0 0 4-4 6 6 0 0 0-5-7 7 7 0 0 0-5 1 3 3 0 0 0-1 4 7 7 0 0 0 0 3 3 3 0 0 0 5 0"/><path class="cls-10" d="M77 129c4 0 7-3 9-6l-4 1a3 3 0 0 1 2 2l2-2h-5l2 4a13 13 0 0 0 4-9c0-3-4-3-5 0a9 9 0 0 1-2 6c-2 1-1 4 1 4h5a3 3 0 0 0 3-3 8 8 0 0 0-4-7 3 3 0 0 0-3 1 26 26 0 0 1-3 4 27 27 0 0 0-3 3c-1 1 0 2 1 2M71 150a67 67 0 0 0 12-2c3 0 8-1 8-4s-5-2-7-2a85 85 0 0 1-13 2c-4 1-4 6 0 6"/><path class="cls-10" d="M93 140c-5 1-5 6-3 10a11 11 0 0 0 10 6c9 0 18-12 13-20-1-2-5-1-4 1l-1 8a9 9 0 0 1-6 6c-3 0-6-1-7-3s0-4 0-7a2 2 0 0 0-2-1M110 111c0 4 0 9 2 12 3 3 8 3 10 0s-1-6-4-4c-2 1-2-1-2-2l-3-8c-1-1-3 0-3 2"/><path class="cls-10" d="M117 132c3 0 6-5 6-8a3 3 0 0 0-5-1l-1 4a8 8 0 0 0-1 5 1 1 0 0 0 1 0M116 102a3 3 0 0 0 1 4 1 1 0 0 0 2 0h-1a1 1 0 0 0 2-2h-1l1 1a2 2 0 0 0-1-1 4 4 0 0 1 0-2 1 1 0 0 0-3 0M44 124c6 4 14 6 21 5a33 33 0 0 0 11-4c3-1 6-3 6-7a1 1 0 0 0-1-1c-2-1-4 0-6 2a39 39 0 0 1-9 4c-7 3-14 2-20-1-1-1-3 1-2 2M85 108c2 2 6 0 8-2s3-6 1-9c-1-1-4-1-4 1a21 21 0 0 1-2 5c0 2-2 2-3 4a1 1 0 0 0 0 1M56 79c-3-3-7-5-11-3s-7 6-8 10c-4 8-6 17-2 25l1-1c0-6 1-13 4-19a31 31 0 0 1 5-8c3-3 6-2 10-2a2 2 0 0 0 1-2"/><path class="cls-10" d="M55 80c-5 1 3 10 4 11 5 5 11 7 18 9 3 1 4-4 1-4a58 58 0 0 1-13-5 26 26 0 0 1-5-4c-2-1-5-4-4-6a1 1 0 0 0-1-1M159 80c5-2 9-6 12-9a36 36 0 0 0 4-6l2-3 5-1a22 22 0 0 1 14 6c4 4 6 9 10 12 2 1 4-2 3-4-5-3-7-9-11-12a26 26 0 0 0-16-6l-7 1-5 6a40 40 0 0 1-5 7l-8 6a2 2 0 0 0 2 3"/><path class="cls-10" d="M156 80l2 9c1 3 0 7 2 9a1 1 0 0 0 2 0 2 2 0 0 0 1-2c0-6-1-12-4-17-1-1-3-1-3 1M163 127c-1 4 0 10-4 14-2 2-2-2-3-4a20 20 0 0 0-4-6 1 1 0 0 0-2 0c0 6 2 19 11 16 6-3 7-15 5-21a1 1 0 0 0-3 1"/><path class="cls-10" d="M162 126c4-1 8-8 9-12 2-4 3-10-1-14a1 1 0 0 0-1 1c0 4 0 10-2 14a49 49 0 0 1-3 5c-1 2-3 3-3 5a1 1 0 0 0 1 1M218 105l-1 7a17 17 0 0 1-2 7l-8 10a26 26 0 0 0-3 5c0 1-1 5-3 6s-3-2-4-3l-4-4a1 1 0 0 0-1 0c-1 2 0 4 1 6l3 6a7 7 0 0 0 8 0l4-7c2-6 7-10 11-15 2-5 4-13 1-18a1 1 0 0 0-2 0"/><path class="cls-11" d="M55 74c-2-4-11-3-14-2a18 18 0 0 0-12 10c-3 6-3 12-3 18 0 5 1 11 5 14a2 2 0 0 0 3-2 42 42 0 0 1-2-13c0-4 0-9 2-14a15 15 0 0 1 9-8 26 26 0 0 1 7-1l5-1a1 1 0 0 0 0-1M60 69c-3 1-3 5-3 8a18 18 0 0 0 3 9 23 23 0 0 0 9 7c3 2 8 4 12 4 3 0 6-3 3-6l-6-1a43 43 0 0 1-6-2c-4-1-8-4-10-8a13 13 0 0 1-2-5l1-6a1 1 0 0 0-1 0"/><path class="cls-11" d="M69 54c4 2 8 6 10 10a57 57 0 0 1 4 11 40 40 0 0 1-1 23 1 1 0 0 0 2 2c11-4 10-19 7-28a40 40 0 0 0-3-7l-6-6c-4-3-8-7-13-6v1M144 86l-3 5a21 21 0 0 0-2 6l-1 7-1 3v2q-1 2 0 0h3v3l1-1-2 2c-1-1-1 0 0 0l1 2 3 3c1 1 4 0 4-2l1-4 1-5 2 4a17 17 0 0 0 3-4c1-2-2-4-4-3a19 19 0 0 0-4 4c-1 2 1 4 3 4 5 0 8-7 2-9-7-3-8 7-9 12l5-2c-2-2-7-9-11-5-4 3 1 9 5 8 5-1 6-9 7-13v-9l-1-8a2 2 0 0 0-3-1"/><path class="cls-11" d="M159 96l-4-6a13 13 0 0 1-2-8l-5 1a27 27 0 0 1 5 11l5-1a53 53 0 0 1-3-12c0-2-3-4-4-2l-8 11 5 1v-9c0-3 0-5-2-8a1 1 0 0 0-2 0l-1 8v9c0 3 3 3 4 1l7-10-4-1a72 72 0 0 0 3 13c0 3 5 2 5-1a30 30 0 0 0-5-13 3 3 0 0 0-6 2 18 18 0 0 0 3 11c2 2 5 5 8 5a1 1 0 0 0 1-2M173 57l18 3a31 31 0 0 1 13 9l4 6c2 2 5 3 7 1 2-1 3-4 3-7-1-3-5-3-8-4l-1 5a21 21 0 0 1 9 1l1-1c-2-3-6-4-9-5a2 2 0 0 0-1 4c0 1 3 3 2 1v1l2-1-1-3a16 16 0 0 0-3-6 29 29 0 0 0-11-7c-7-3-19-5-25 1a1 1 0 0 0 0 2"/><path class="cls-10" d="M161 97l-1 2a14 14 0 0 1-3 0 4 4 0 0 0-3 5 2 2 0 0 0 2 2 8 8 0 0 0 1-1l2-1c0 1 0 0 0 0a5 5 0 0 0 2 0 5 5 0 0 0 2-1c1-2 2-5 0-7a1 1 0 0 0-2 1M172 109c0 4 8 6 12 6a15 15 0 0 0 13-5 43 43 0 0 0 8-12 59 59 0 0 0 3-6v-5c-2 0-2 2-2 3a33 33 0 0 1-3 6 39 39 0 0 1-10 10c-1 1-3 3-5 3h-7c-2 0-8-4-9 0"/><path class="cls-3" d="M30 114l-5-7a38 38 0 0 1-3-9 51 51 0 0 1 0-20c1-6 4-12 10-16a14 14 0 0 1 8-2l9 2a1 1 0 0 0 1-1c-2-3-4-6-7-7a17 17 0 0 0-11 1c-7 3-12 10-14 18a53 53 0 0 0 0 24c1 7 4 16 11 19a1 1 0 0 0 1-2"/><path class="cls-3" d="M48 60l3-1a18 18 0 0 1 6-2c5-1 9 1 13 1 1 0 2-1 1-2-2-5-9-5-14-4-3 0-11 3-10 8a1 1 0 0 0 1 0M155 55l4-5a44 44 0 0 1 8-4 24 24 0 0 1 16-1 46 46 0 0 1 14 8 55 55 0 0 1 6 6l6 6h1l-6-9a61 61 0 0 0-6-8 29 29 0 0 0-18-9c-7-1-13 1-19 5-4 2-9 7-7 11a1 1 0 0 0 1 0"/><path class="cls-3" d="M207 63a14 14 0 0 0 7 6c1 1 5 2 7 0a1 1 0 0 0 0-1l-6-1-7-5a1 1 0 0 0-1 1"/><path class="cls-12" d="M66 115a8 8 0 0 0 2 0l-2-1c2 2 3 2 5 2 2 1 4 2 6 1a3 3 0 0 0 2-4c-2-3-5-4-8-3a8 8 0 0 0-4 1 5 5 0 0 0-1 2 1 1 0 0 0 0 2M184 105a8 8 0 0 0 1-4 22 22 0 0 1 1-3v-1h-1a6 6 0 0 0 1 1 5 5 0 0 1 0 1l-1 2c0 1 0 0 0 0v-1c-2-2-4 0-4 2-1 3 1 5 4 5 2 0 5-2 6-4 1-4 1-11-4-12-3-1-5 1-7 4v10a2 2 0 0 0 4 0"/><path class="cls-13" d="M45 113c-1-1-2-2-1-4l3-3h-3l3 5 1-2a2 2 0 0 0-2 1h-3a2 2 0 0 1 0 3c0 1 0 3 2 3a7 7 0 0 0 6-3c1-2-1-3-3-3a8 8 0 0 1-3 2l2 3a6 6 0 0 0-1-7 2 2 0 0 0-3 0 3 3 0 0 0 1 4h5a2 2 0 0 0 1-2l-3-6a2 2 0 0 0-1-1c-4 0-6 3-7 6 0 3 2 7 5 7a1 1 0 0 0 1-3M58 109a8 8 0 0 0 1-4v-4h1l1 5 2-3-5 1 3 2a13 13 0 0 1 0-5l-4 1a8 8 0 0 1 1 2c1 3 6 1 5-2a11 11 0 0 0-2-4 3 3 0 0 0-5 2 19 19 0 0 0 0 7c0 2 2 2 3 2l5-1a2 2 0 0 0 2-2c0-3 0-5-2-7a6 6 0 0 0-6-3 5 5 0 0 0-4 5l1 7 3 1M177 84c-3-2-8-1-11 0l3 1 1-5c1-1 1-2 3-2l-3-4a22 22 0 0 0 1 12l4-6h-2v1c0-3-4-4-6-3a5 5 0 0 0 0 7c2 2 5 3 8 3s4-3 4-5a39 39 0 0 1-1-9c0-1-1-4-3-4l-6 1a15 15 0 0 0-5 5c-2 3-2 9 0 12a3 3 0 0 0 3 2c4-1 7-1 10-3a2 2 0 0 0 0-3M185 71l1 5 1 6a2 2 0 0 0 2 3l9-2c2-2 2-4 1-6s-1-5-3-7l-8-1 1 4c1-1 1 2 1 2l1 3 1-1c1 0 2 0 1-1a3 3 0 0 1 0-1c1 0 1 0 0 0a2 2 0 0 1 1 0 2 2 0 0 0 2-1c2-4-4-5-6-2s-2 9 2 10c5 1 4-7 3-10-2-3-6-6-9-2-1 1-1 3 1 4 2 0 6-1 7 2a15 15 0 0 1 1 2l-1 1a29 29 0 0 1-5 1l2 2c0-4 0-9-4-12a1 1 0 0 0-2 1"/><path class="cls-14" d="M31 139a9 9 0 0 0 5-3 18 18 0 0 0 3-4c1-2-2-4-3-2l-6 7a1 1 0 0 0 1 2M43 147l1-4a25 25 0 0 0 1-4c0-1-3-2-3 0a25 25 0 0 0-1 4v4a1 1 0 0 0 2 0"/><path class="cls-15" d="M187 72c2-1 6-1 8 1 2 3 0 6 1 9a1 1 0 0 0 2 0l1-7a7 7 0 0 0-3-5 10 10 0 0 0-11 0c-1 1 0 3 2 2zM167 88c0-3-2-7-1-10a5 5 0 0 1 4-3h4a1 1 0 0 0 1-2c-3-2-8-1-10 2-3 4-2 9-1 13 0 2 3 1 3 0zM45 114c-4-2-3-7 1-9 2-1 0-4-2-3a8 8 0 0 0-1 15 2 2 0 0 0 2-3zM58 107c-3-2-1-7 2-7a2 2 0 0 0 0-4c-6 0-9 10-4 13a1 1 0 0 0 2-2z"/><path class="cls-4" d="M91 89l49 5 3-34c1-6 8-14 14-13 0 0 11-7 12-6s5-18 5-18L68 13c-2 0-3 37-3 37s14 3 17 7 5 3 7 10l3 11a64 64 0 0 1-1 11z"/><path class="cls-11" d="M102 92v37h12l4-3c1-1-2-1-4-1s-1 2-2-1l-1-6v-6l1-4 3-1 1-14c1-2-14-2-14-2"/><path class="cls-16" d="M57 68c-6 4-2 15 2 20a34 34 0 0 0 9 8c3 2 7 3 10 2a1 1 0 0 0 0-1c-1-2-4-2-6-3-3-1-6-4-8-7a21 21 0 0 1-6-8c-1-4 0-6 1-10 0-1-1-2-2-1z"/><path class="cls-16" d="M47 60c3-7 12-8 18-8a26 26 0 0 1 18 9c9 10 10 29-1 38h2c-2-2-5-3-8-2v1a18 18 0 0 1 6 3 2 2 0 0 0 2 0c13-10 12-32 0-44a29 29 0 0 0-20-8c-7 0-16 2-18 10l1 1z"/><path class="cls-16" d="M76 81a25 25 0 0 1 4 9l1 10a1 1 0 0 0 1 0c3-6 0-15-5-20l-1 1zM34 112c1 5 5 11 9 14 2 2 9 8 13 6a1 1 0 0 0 0-1l-4-3a28 28 0 0 1-7-4 36 36 0 0 1-5-6l-4-6a1 1 0 0 0-2 0zM49 96l6-6 5-5c0-1 0-2-1-1-2 0-4 2-6 4l-5 7c-1 0 0 2 1 1zM57 109l-2-4v-6c2-2 6-1 7-4a1 1 0 0 0-2-1c-3 1-8 2-8 7 0 2 1 11 5 8zM62 99c0 3 1 6 4 7a1 1 0 0 0 1 0l-2-7c0-2-3-2-3 0z"/><path class="cls-16" d="M46 101a8 8 0 0 0-9 7c0 4 2 9 7 8v-1c-2-1-5-3-5-6 0-4 4-6 7-6v-2zM46 106l2 4a8 8 0 0 0 2 2 1 1 0 0 0 1 0 5 5 0 0 0-1-4 11 11 0 0 0-3-3 1 1 0 0 0-1 1zM37 98h8a1 1 0 0 0 0-1c-2-2-5-1-8-1a1 1 0 0 0 0 2zM47 58v-1 1z"/><path class="cls-16" d="M50 58c-6-6-16-7-23-2S16 70 14 79c-1 10 1 21 6 30 2 4 5 7 9 8a12 12 0 0 0 5 0l2-1-1-1h-1l-4-1c-4 0-7-4-8-8a48 48 0 0 1-5-26c1-8 4-16 11-21s14-5 21 0l1-1z"/><path class="cls-16" d="M36 112c-3-3-3-8-3-12a40 40 0 0 1 2-14l7-7a17 17 0 0 1 6-2h5a1 1 0 0 0 1-1c-2-4-9-2-12 0-4 2-8 5-9 9a41 41 0 0 0-2 20c0 1 1 11 5 8v-1zM38 44a21 21 0 0 1 6 5l3 7a1 1 0 0 0 2-1l-3-7a18 18 0 0 0-8-5v1z"/><path class="cls-16" d="M49 57c1-6 6-9 12-10v-1c-7-3-14 4-15 10 0 1 2 2 3 1zM77 67a33 33 0 0 1 6 15c1 6 0 11-1 17 7-10 3-25-4-33l-1 1zM72 89c4 1 5 6 7 9h1c0-5-3-10-8-11a1 1 0 0 0 0 2zM27 88a28 28 0 0 0 0 17c1 5 4 11 9 12l1-1c-4-4-7-7-9-12a30 30 0 0 1 1-15 1 1 0 0 0-2-1zM76 157c-8 2-15-1-20-7a15 15 0 0 1-4-8c-1-5 2-9 7-10h13l15-1 7 1 8 1a23 23 0 0 0 5-2 10 10 0 0 1 4 0 4 4 0 0 1 2 0q2 2 0 3a2 2 0 0 0-2 3c7 6-1 16-7 18a9 9 0 0 1-11-3c-2-4-2-8-1-11a1 1 0 0 0-1-1c-4 3-4 10-1 14a13 13 0 0 0 14 5c9-3 19-16 10-25l-1 3c3 0 5-2 4-5 0-4-5-5-8-5l-7 2-9-2-17 1c-8 0-20-2-25 5-4 6-2 15 3 19 5 6 14 10 22 6a1 1 0 0 0 0-1z"/><path class="cls-16" d="M69 151h11c3 0 8 1 10-1a1 1 0 0 0 0-2c-2-2-6-1-9 0l-12 2a1 1 0 0 0 0 1z"/><path class="cls-16" d="M70 129c-3 3-4 7-4 11-1 5-1 10 1 14s6 5 10 4 6-4 5-8c0-2-3-1-3 1 1 3-2 5-6 5-3-1-4-4-4-6-2-6-2-15 2-20l-1-1zM50 120c3 5 10 3 13-1 3-3 4-8 10-7 2 0 4 2 2 4h-4l-6-1a1 1 0 0 0-1 1c3 3 9 4 12 2s3-7 0-8a10 10 0 0 0-13 3l-4 7c-3 1-6 0-8-1l-1 1zM89 95c4-1 5 5 4 8s-3 4-6 5c-2 0-2 2 0 3 5 2 10-5 10-10 0-3-1-6-3-7-2-2-5-2-6 0l1 1z"/><path class="cls-16" d="M85 109c-1 5 1 12 3 16 1 2 3 0 3-1l-2-7-2-8a1 1 0 0 0-2 0zM68 129c6 0 12-3 15-8 1-2-1-3-2-2a28 28 0 0 1-13 9 1 1 0 0 0 0 1z"/><path class="cls-16" d="M88 123a5 5 0 0 1 0 3 5 5 0 0 1-1 1v2a1 1 0 0 0-1 0l-1 1a1 1 0 0 0 1 1c4 0 4-6 3-8h-1zM87 121c5 0 9 0 13 2 2 1 3-3 1-3-4-2-10-3-14-1a1 1 0 0 0 0 2zM21 92c-2 5 1 12 4 17 1 3 8 11 12 7a1 1 0 0 0 0-1l-5-2a15 15 0 0 1-6-5c-3-5-5-11-4-16h-1z"/><path class="cls-12" d="M72 105a2 2 0 0 0 1 0h2a1 1 0 0 0 0-1l-2-1a2 2 0 0 0-1 1 1 1 0 0 0 0 1zM74 103a4 4 0 0 0 3 0 1 1 0 0 0 0-2 4 4 0 0 0-3 0 1 1 0 0 0 0 2z"/><path class="cls-16" d="M67 114a11 11 0 0 1 4 0l3 1a1 1 0 0 0 1 0l-4-3a6 6 0 0 0-4 1v1zM154 54c0-4 5-8 8-10a29 29 0 0 1 10-4 28 28 0 0 1 29 12l5 10c3 4 9 5 13 9v-2c-3 3-6 9-11 5-2-1-3 1-2 2 6 6 11 0 15-5a2 2 0 0 0 0-2l-8-5a15 15 0 0 1-4-4l-3-5c-4-7-9-13-17-16a29 29 0 0 0-22 0 31 31 0 0 0-10 7c-2 2-4 5-4 8a1 1 0 0 0 1 0z"/><path class="cls-16" d="M173 59c7 0 14 0 20 3a28 28 0 0 1 12 12c1 2 4 0 3-2a29 29 0 0 0-14-13c-7-4-14-3-22-1a1 1 0 0 0 1 1z"/><path class="cls-16" d="M173 52l-3 8a50 50 0 0 1-7 8 79 79 0 0 1-7 8l-4 3h-2a1 1 0 0 0 0 2c2 3 5 0 7-2a66 66 0 0 0 8-8 53 53 0 0 0 7-10c1-3 3-6 2-9a1 1 0 0 0-1 0zM156 46c-8-1-14 7-15 14l-1 21-3 18-2 9-1 5c3-2 4-7 5-10l3-18a82 82 0 0 0 1-14c0-5-1-11 2-16s6-6 11-8a1 1 0 0 0 0-1zM185 71c3-2 8-3 11 2 2 3 0 7 1 10v1c4-4 3-12-1-15s-9-3-12 1c-1 1 0 2 1 1z"/><path class="cls-16" d="M186 75a27 27 0 0 0 0 5 16 16 0 0 0 1 4h1a13 13 0 0 0 0-10c-1-1-2 0-2 1z"/><path class="cls-12" d="M197 88h5v-1h-5v1z"/><path class="cls-16" d="M207 96zM165 88c-1-4-2-7 0-11a8 8 0 0 1 5-4h6a1 1 0 0 0 1-1c-3-5-11-1-14 2-2 4-3 12 1 15l1-1zM175 77a38 38 0 0 0 0 6l2 4a1 1 0 0 0 1-1v-4-5a1 1 0 0 0-3 0z"/><path class="cls-12" d="M202 86h3a1 1 0 0 0 0-2h-3a1 1 0 0 0 0 2z"/><path class="cls-16" d="M210 71c2 2 7 2 9 1a1 1 0 0 0-1-1 13 13 0 0 0-3-1l-4-1a1 1 0 0 0-1 2zM158 47a7 7 0 0 1 3-7l-1-1c-3 1-5 5-3 8a1 1 0 0 0 1 0zM184 65a70 70 0 0 0 7-2l6-2a1 1 0 0 0-1-1l-6 2a64 64 0 0 0-6 2v1zM167 67a19 19 0 0 0 6 0c1 0 3 0 3-2-1-2-8 0-9 0v2zM208 75c-2 5-1 10-1 14 0 6-4 12-7 16-6 9-18 10-27 6l-1 1c7 7 19 6 26-1 4-4 8-10 10-15 2-7 0-14 1-21h-1z"/><path class="cls-16" d="M181 106c0-4-3-13 3-14 6-2 6 7 5 11a1 1 0 0 0 1 1c5-6 2-15-5-15-9 0-9 12-5 17h1zM157 121a46 46 0 0 1-1-10c0-1-1-5 1-5 2-1 3 1 3 2a1 1 0 0 0 2 0c2-3-4-7-7-4-2 2-2 5-2 7a28 28 0 0 0 2 11c1 1 2 0 2-1z"/><path class="cls-16" d="M161 112l3-9 2-2h3a5 5 0 0 1 1 3 15 15 0 0 1 1 4 26 26 0 0 1-2 9l-4 8c-1 1 0 2 1 2 7-5 11-18 7-26-2-3-6-5-9-2-4 3-5 8-5 13a1 1 0 0 0 2 0zM156 122l-2 8c0 4-1 7 1 10h1l1-8 1-10h-2z"/><path class="cls-16" d="M167 124c-2 2-2 5-2 8v10a1 1 0 0 0 2 0l2-8v-10a1 1 0 0 0-2 0z"/><path class="cls-16" d="M155 110a1 1 0 0 0-2-1c-5 0-6 7-7 11a42 42 0 0 0 3 19c2 5 5 10 11 9 4 0 8-4 6-9h-1c-1 2-2 5-4 6s-5-1-6-3c-3-3-4-7-5-11a39 39 0 0 1 0-12l1-6 4-2a1 1 0 0 0 0-1zM217 86l13-6 12-7-1-1-12 6-13 7a1 1 0 0 0 1 1zM182 117c0 4-2 6-3 8-2 3-2 5-2 7a184 184 0 0 0 1 21c0 4 1 9 5 11h7l10-1a1 1 0 0 0 2-1c1-6-2-12-4-17h-1c-2 5 4 10 2 16l1-1-8 1h-7c-6-1-5-11-5-15v-9-8l4-6a11 11 0 0 0 1-6 1 1 0 0 0-3 0z"/><path class="cls-16" d="M168 124a7 7 0 0 0 1 6l2 3v5l-5 21c0 2 0 5-2 6l-5-1a35 35 0 0 1-24-14v3a44 44 0 0 0 15-23 1 1 0 0 0-2-1 39 39 0 0 1-15 21 2 2 0 0 0 0 2 37 37 0 0 0 15 13 38 38 0 0 0 10 2h9c2-2 2-7 3-9l2-13 2-12a4 4 0 0 0-1-3l-2-1a6 6 0 0 1-1-4 1 1 0 0 0-2-1zM134 112c-1 3 3 5 6 6 2 2 7 4 9 2a1 1 0 0 0 0-1l-6-2c-2-1-7-2-8-5a1 1 0 0 0-1 0zM155 79c-1 3 0 7 1 10a42 42 0 0 0 4 10l1-2a9 9 0 0 1-7-4c-2-1-2-3-3-5a1 1 0 0 0-1 0c-1 3 1 6 2 8a12 12 0 0 0 9 4 1 1 0 0 0 1-2 40 40 0 0 1-4-10l-2-9a1 1 0 0 0-1 0z"/><path class="cls-16" d="M151 90c-2-1-5 0-6 2-1 3 0 8 2 10a6 6 0 0 0 7 2c2-1 4-4 3-6a1 1 0 0 0-1 0c-2 1-3 6-7 3l-2-6 1-2 2-1a1 1 0 0 0 1-2z"/><path class="cls-12" d="M162 94l2 1a3 3 0 0 0 2 1v-1a3 3 0 0 0-2-1l-2-1v1zM165 93l2 1a3 3 0 0 0 2 1 1 1 0 0 0 1-1 3 3 0 0 0-2-1l-2-1c-1-1-2 1-1 1z"/><path class="cls-16" d="M222 91l9-4a1 1 0 0 0 0-1c-4 0-7 2-10 4-1 0 0 2 1 1zM102 92l-2 20v19l1 1c2-3 1-6 1-9l1-10 1-21a1 1 0 0 0-2 0zM115 92l-1 7v7l2-1a9 9 0 0 1-1-1h-1a9 9 0 0 1 0 1c-1 2 2 3 2 1a57 57 0 0 0 0-7v-7h-1z"/><path class="cls-16" d="M90 89c7 3 14 4 22 5h11l14 1c1 0 2-3 0-3l-12-1-11-1a130 130 0 0 1-23-3l-1 2zM65 50c2-6 2-13 3-19a188 188 0 0 0 0-19l-2 2a64 64 0 0 0 12 1l12 1 25 3c19 2 38 2 57 7l-2-3-1 9-1 7c0 2 3 2 3 1a57 57 0 0 0 2-8 59 59 0 0 1 2-8 3 3 0 0 0-1-3c-19-5-38-5-57-6l-25-2-11-1-14-2a2 2 0 0 0-2 2l-1 19c-1 7-2 12-1 18a1 1 0 0 0 2 1z"/><path class="cls-16" d="M74 34c2-5 2-10 2-14h-2l8 14a2 2 0 0 0 2 0l2-8v-6a1 1 0 0 0-2-1l-1 7-2 7h3l-8-14a1 1 0 0 0-3 1v14a1 1 0 0 0 1 0zM91 35c0-3-2-6 0-9 1-4 7-3 10-1s2 7-1 9c-2 1-6 2-9 0l-1 1c3 5 9 3 13 1s3-8 1-12a10 10 0 0 0-14-2c-4 3-3 10 0 13a1 1 0 0 0 1 0z"/><path class="cls-16" d="M90 25a32 32 0 0 0 6 6c1 1 4 4 6 4a1 1 0 0 0 0-1l-1-2a33 33 0 0 1-4-3 41 41 0 0 1-5-5c-1-1-2-1-2 1zM95 45c-2 1-2 3-2 5l-1 8-1 9v8a1 1 0 0 0 2 1l2-8 1-9 1-8-1-6a1 1 0 0 0-1 0zM77 53l3-13-3 1c3 3 3 9 5 13l2 6 3 4a1 1 0 0 0 1-1c1-2 0-3-1-5l-2-8c-2-3-3-8-6-11a2 2 0 0 0-3 0c-1 5-2 10-1 14a1 1 0 0 0 2 0z"/><path class="cls-16" d="M100 43c-3 7-4 17-4 25 0 5-1 14 7 15 7 0 9-8 10-14l2-12v-8-6a2 2 0 0 0-3 0l-1 8-1 9c-1 5 0 16-6 18s-3-12-3-15c0-7 2-13 1-20h-2zM119 46c-2 1-1 5-2 7l-2 13a97 97 0 0 0-1 10c0 2-1 6 2 7a2 2 0 0 0 2 0v-1a1 1 0 0 0 0-1 1 1 0 0 0-2-1v1l2-1h-1l1 2v-1-2l1-7 1-12a62 62 0 0 0 1-11s0-5-2-3z"/><path class="cls-16" d="M131 48l-3 7a78 78 0 0 1-5 6c-2 3-6 8-6 12l3 1 4-6 4-7c2-3 6-8 6-12a1 1 0 0 0-3-1z"/><path class="cls-16" d="M125 63v12c1 3 1 7 5 9a1 1 0 0 0 1-1c2-2 0-6-1-9 0-4-1-8-3-11a2 2 0 0 0-2 0zM138 48l-2 10-1 8-2 8-1 9c0 1 2 2 3 1l2-9 1-9 1-8c1-3 2-6 1-10a1 1 0 0 0-2 0z"/><path class="cls-16" d="M138 49a13 13 0 0 0 4 2h6a2 2 0 0 0 0-3l-5-1a40 40 0 0 1-4-1 2 2 0 0 0-1 3zM138 66h4a1 1 0 0 0 0-2l-4-1c-2 0-2 2-1 3zM133 83a12 12 0 0 0 5 2h4v-3a42 42 0 0 1-7-2c-1 0-3 2-2 3zM118 105l-8 2c-4 3-2 7-2 11 0 3 0 7 4 8 2 1 6 0 8-2a1 1 0 0 0 0-1l-3-1-2 1c-4 1-3-2-3-5-1-2-2-6 0-8s4-1 6-2a1 1 0 0 0 1-1l-1-2z"/><path class="cls-16" d="M118 108c2 1 4 2 4 5a25 25 0 0 1 1 7 16 16 0 0 1-1 7l-5 6c-1 0-2 2 0 2 2 1 4-2 6-4a18 18 0 0 0 3-11l-1-10c-2-3-4-5-7-4a1 1 0 0 0 0 2z"/><path class="cls-16" d="M116 101l4 2 1 4a1 1 0 0 0 1 1c2-2 1-5 0-7s-4-3-7-1a1 1 0 0 0 1 1zM111 153c3 5 9 10 15 8a1 1 0 0 0 1-2c-3-1-7-1-10-3l-5-4a1 1 0 0 0-1 1zM172 13a46 46 0 0 1 6 6l3 6a1 1 0 0 0 2 0c2-2-1-6-2-8l-7-6c-2-1-3 1-2 2zM178 10a23 23 0 0 1 5 5 24 24 0 0 1 3 6 1 1 0 0 0 2 1c5-6-4-12-8-15-1 0-3 2-2 3zM191 163l3 12 1-2c-11 2-22 4-32 2l-29-8v3c4-2 7-5 9-9a1 1 0 0 0-2-1l-8 7a2 2 0 0 0 0 3c10 3 20 7 31 9s21-1 32-3a2 2 0 0 0 1-2l-4-12a1 1 0 0 0-2 1z"/><path class="cls-16" d="M182 164v9c2-2 2-6 2-8l-2-1zM186 166v5a1 1 0 0 0 1 0l1-5a1 1 0 0 0-2 0zM114 16c-1 5 2 11 3 16a1 1 0 0 0 1 0 83 83 0 0 1 15 3 1 1 0 0 0 1-2 83 83 0 0 0-4-15c-1-1-3 0-3 1l5 15 2-1a87 87 0 0 0-16-3l1 1-4-15a1 1 0 0 0-2 0zM134 20l2 7 2 7 5 2 8 1a2 2 0 0 0 2-2 62 62 0 0 0-6-17c-1-1-4 0-3 2a59 59 0 0 1 6 16l2-2-7-1h-2l-3-2-4-12a1 1 0 0 0-2 1zM154 22c0 5 1 10 4 15l2 1a34 34 0 0 0 9 1 1 1 0 0 0 0-3h-6c-3 0-3-1-4-4l-4-10h-1z"/><path class="cls-16" d="M115 18l2 6 2 6a1 1 0 0 0 2 0c0-4-3-8-2-12l-1 1 4 12h2l-2-12h-1l3 12a1 1 0 0 0 2 0l-1-10h-2l3 9c0 1 0 3 2 4a1 1 0 0 0 1-1l-2-12h-2a74 74 0 0 0 6 12h1a74 74 0 0 0-5-12h-2l2 12 2-1c-2-1-2-4-2-5l-2-6a1 1 0 0 0-2 0 34 34 0 0 1 1 10h2l-4-12h-1l1 12h2c-2-5-2-9-5-13h-2l2 12 2-1-4-9c0-1 0-3-2-3v1zM135 18l6 15a1 1 0 0 0 2-1 88 88 0 0 1-3-12h-2l6 14a1 1 0 0 0 2-1l-4-13h-1l6 15h2l-2-8v-2c1 4 2 9 5 11l1-1-4-7c0-2-1-5-3-7v1c1 3 2 9 1 12h1l-6-14a1 1 0 0 0-1 0l3 14 2-1-6-13h-2a77 77 0 0 0 3 13l2-1a114 114 0 0 0-7-14h-1zM156 25a96 96 0 0 0 4 12c1 1 3 0 2-1a139 139 0 0 1-3-13h-2l6 15 2-1a13 13 0 0 0 0-6l-2-7-1-1 3 9 3 6a1 1 0 0 0 2-1l-2-7-1-3v-2h1l1 6a10 10 0 0 0 1 4h1l-2-11c0-1-1-3-3-2s0 3 0 4l2 11 2-1c-2-1-3-4-4-6l-3-7a1 1 0 0 0-1 0v4l1 10 2-1c-3-4-3-9-6-14a1 1 0 0 0-2 1l3 14 2-1a113 113 0 0 1-5-11h-1zM81 153l6 12 5 14 1-1a66 66 0 0 1-32-2l1 2a24 24 0 0 0 3-9c0-3 1-7-2-9a1 1 0 0 0-1 1v6a22 22 0 0 1-3 9 2 2 0 0 0 1 3 69 69 0 0 0 34 2 2 2 0 0 0 1-2l-5-14c-2-5-4-10-7-13-1-1-2 0-2 1z"/><path class="cls-16" d="M105 159a19 19 0 0 0 2 6c1 3 5 7 1 9-2 2-6 1-9 1l-8 1v1c4 2 9 1 13 1 2-1 5-1 7-3a5 5 0 0 0 1-6 71 71 0 0 1-6-11l-1 1z"/><path class="cls-16" d="M89 168c3 3 14 4 16-2a1 1 0 0 0-1-1l-6 3-9-1s-1 0 0 0zM124 158l-4 6-6 5c-1 1 0 3 2 3 3-1 6-3 8-6 2-2 4-6 2-8a1 1 0 0 0-2 0zM79 157l3 8c1 3 4 9 0 10l-4-1h-5l-10-1v2l15 2c3 0 6 1 8-1s0-7-1-9l-5-11-1 1z"/><path class="cls-16" d="M64 157c-2 1-1 4-1 5a14 14 0 0 0 7 6 5 5 0 0 0 6-2c1-2 2-6 0-8a1 1 0 0 0-1 0l-1 5c0 3-3 4-5 2a14 14 0 0 1-4-4l-1-4zM138 151c2 6 10 9 16 10 5 1 13-2 10-9l-1 1c0 7-8 7-13 5s-8-5-11-8a1 1 0 0 0-1 1zM183 146c-1 3 0 8 2 10 2 3 7 3 10 2 2 0 1-2 0-2-3 0-7 1-9-2s-1-5-2-8a1 1 0 0 0-1 0zM199 131c1-6 6-10 6-16l-1-2c0-2 1-5 3-4 3 0 3 3 4 5s2 4 4 3v-2c-2 0-2-4-3-6a7 7 0 0 0-4-3 5 5 0 0 0-7 4l1 6-2 6c-2 2-4 5-3 9h2z"/><path class="cls-16" d="M210 110a5 5 0 0 1 8-5c2 2 3 6 2 9-1 7-6 11-9 16a42 42 0 0 0-4 8c-1 2-2 5-5 6-4 2-7-2-8-5l-1-12c0-1-1-2-2-1 0 5-1 11 1 16 2 3 5 6 9 5 4 0 6-3 7-6l3-6a48 48 0 0 1 5-7c5-7 11-16 5-24-2-3-6-4-9-2a7 7 0 0 0-3 8 1 1 0 0 0 1 0z"/><path class="cls-16" d="M193 114a10 10 0 0 1 5 6l1 3a1 1 0 0 0 2-1c1-1-1-4-2-6a8 8 0 0 0-6-3 1 1 0 0 0 0 1z"/><path class="cls-16" d="M192 115l-1 7v6a1 1 0 0 0 2 0l1-6v-7c0-1-2-2-2 0zM157 45c-5-2-10 3-13 6-3 5-4 11-4 18s0 15-2 22a79 79 0 0 1-7 21 2 2 0 0 0 1 3l8 5c2 1 4 3 7 3a1 1 0 0 0 1-2c-1-3-4-3-6-5l-8-4v2a83 83 0 0 0 10-36c0-7-1-14 1-20a17 17 0 0 1 4-7l8-4a1 1 0 0 0 0-2z"/><path class="cls-16" d="M153 42a9 9 0 0 0 1 3 7 7 0 0 0 2 1h1l-1-3a21 21 0 0 1-1-2 1 1 0 0 0-2 1zM106 94v9h1v-9h-1zM110 94v2a10 10 0 0 0 0 2h1a10 10 0 0 0 0-2v-2a1 1 0 0 0-1 0zM105 115l-1 17h1l1-17h-1zM203 43l4-8 4-8 8-16c0-1 0-2-1-1l-10 16c-2 5-5 11-6 17h1zM199 39l4-9h-1c-2 2-3 6-4 9a1 1 0 0 0 1 0zM51 16l1-8 5-7-1-1c-7 1-9 11-6 16a1 1 0 0 0 1 0zM57 15c0-4 2-8 4-11a1 1 0 0 0 0-1c-5 2-7 7-7 12a1 1 0 0 0 3 0zM34 128a21 21 0 0 0-8 11 2 2 0 0 0 1 2 8 8 0 0 0 8-1c2-1 4-5 3-7a1 1 0 0 0-1 0l-3 4a5 5 0 0 1-5 1l1 2a23 23 0 0 1 5-10c1-1 0-3-1-2zM41 137l-2 10c0 1-1 3 1 4 3 2 6-5 5-7a1 1 0 0 0-1 0 25 25 0 0 0-2 3 12 12 0 0 1-1 2l1-2 1-9c1-2-2-3-2-1zM60 140c0 3 0 8 2 11l1-1c-1-3-2-6-1-10h-2zM111 173l3 4a24 24 0 0 0 5 4 1 1 0 0 0 1-1 15 15 0 0 0-4-5l-4-3-1 1zM75 180c-2 1-3 4-1 6a1 1 0 0 0 1-1 4 4 0 0 0 1-2 6 6 0 0 1 1-2 1 1 0 0 0-2-1zM142 172a14 14 0 0 0-3 7c-1 1 2 2 2 1l3-7c1-1-1-3-2-1zM152 174l-1 5c-1 1-2 2-1 4a1 1 0 0 0 1 0l2-3a16 16 0 0 0 1-6 1 1 0 0 0-2 0zM177 179l1 8c1 2 3 1 3-1l-1-7c0-2-3-1-3 0zM189 177a50 50 0 0 1 2 6l2 4a1 1 0 0 0 1 0v-5a18 18 0 0 0-3-6c-1-1-2 0-2 1z"/><path class="cls-16" d="M27 160c5 12 17 21 29 27 14 6 31 6 46 3a111 111 0 0 0 12-4l12-3c4 0 8 1 11 3l13 5c14 4 31 7 46 1 14-5 27-17 26-34 0-1-3-3-4-1-5 11-13 21-23 26-14 6-29 5-43 1-7-3-14-7-21-8-8-1-14 2-21 5-15 5-31 7-46 4a55 55 0 0 1-35-26l-2 1zM15 57c-4 7-7 17-6 26a1 1 0 0 0 2 0l1-13a56 56 0 0 1 5-12c0-1-1-2-2-1zM1 63c-1 7-2 15 0 22a1 1 0 0 0 2 0V63c1-1-1-2-2 0z"/></g></g></svg>