<svg xmlns="http://www.w3.org/2000/svg" viewBox="0 0 188 79"><defs><style>.cls-1{fill:#00ac5f}.cls-2{fill:#221714}.cls-3{fill:#73a536}.cls-4{fill:#fff}.cls-5{fill:#8e7de4}</style></defs><g id="Layer_2" data-name="Layer 2"><g id="圖"><path class="cls-1" d="M39 74l2-10 1-6c1-2 2-2 3-2a56 56 0 0 0 8-1c2 0 5 0 6-2l4-3a31 31 0 0 0 4-5l3-3 3-2c3-2 0-6-2-5-5 1-23 14-13 18l15 1h1v4 16l3-4H61l-12 1h-5l-1-3 2-9-6-1c2 4 3 9 3 13h7c0-4-1-9 1-13l-6 1a39 39 0 0 1 5 12c1 3 6 4 7 0 0-4-2-9 0-14l-6 2c3 3 4 6 5 10 0 3 5 3 6 0 1-5-1-8-1-13l-6 2a23 23 0 0 1 5 12l6-1-1-11-5 2 6 11c1 3 7 1 6-3-2-4-4-8-4-13l-5 2c4 3 3 9 5 14 1 4 7 2 6-2s-3-8-3-12l-5 2 3 8c0 4 6 3 6 0s-2-8-1-12l-6 1c2 3 4 9 4 13l6-1c-3-4-2-8-3-12a3 3 0 0 0-3-3c-2 0-9 1-10-1l-4 4 4 1c4 0 6-5 2-6l-4-1a3 3 0 0 0-4 4c2 7 10 5 16 5l-3-3c0 5 0 11 3 15a3 3 0 0 0 6-1c2-6-2-12-4-17-1-3-5-2-6 0v14l7-1-4-11c-2-2-6 0-6 2 0 5 1 9 3 14l6-2c-2-6-2-12-7-17-1-1-5-1-5 2-1 6 1 11 3 16l6-2c-2-5-4-9-7-12-1-2-5-1-5 1-1 5 0 9 1 14 1 4 7 2 6-2-1-5-2-11-6-15-2-2-6 0-5 2l1 11h6c-2-4-3-9-6-13-1-1-4-1-5 1-2 5 0 10-1 15h6a44 44 0 0 0-5-14 3 3 0 0 0-6 0c-2 5-2 10-2 15s6 4 7 0l-3-15a3 3 0 0 0-6-1c-4 6-6 19 2 22h35a3 3 0 0 0 4-3l-1-14c0-3 1-6-1-9s-7-2-11-2a31 31 0 0 1-7-1 14 14 0 0 0-1 0v1l1-2 11-7-3-4-3 2-2 3a31 31 0 0 1-3 3 15 15 0 0 1-1 1l-1 1a11 11 0 0 1-3 0 15 15 0 0 0-3 0l-7 2c-5 1-10 2-11 8a26 26 0 0 0-1 7l1 10c0 3 4 4 4 1z"/><path class="cls-2" d="M36 49l8-9c1-3 4-5 4-8-3 1-5 4-6 6l-7 10a1 1 0 0 0 1 1z"/><path class="cls-3" d="M3 75L2 48l22-14 49-1 2 5 7-3 49-4 3 7 7-4 45 1v32s-5 9-12 10-55-1-55-1a5 5 0 0 1-5 1c-3-1-49 1-52-1l-7 1S3 78 3 75z"/><path class="cls-4" d="M23 76V48l20-15 5-1-13 17-2 27H23z"/><path class="cls-1" d="M23 46c-6-1-12-2-18-1-2 0-1 5 2 4 5-1 9-5 13-9 4-3 11-4 17-3 2 0 2-4 0-4-6-1-12-1-17 2s-8 9-15 10l2 4h16a2 2 0 0 0 0-3z"/><path class="cls-5" d="M27 72h1a6 6 0 0 0 0-1v-3a36 36 0 0 0 0-6l-1-6a5 5 0 0 1 1-2h-1 1a15 15 0 0 0 4 1l-3-4c0 3 1 21-2 20l3 3V63a32 32 0 0 1 0-5l1-2a8 8 0 0 0 0-1v-1a2 2 0 0 0-1-2c-7-4-6 19-6 22a3 3 0 0 0 3 3c11 1 6-19 8-24a3 3 0 0 0-3-4c-3 0-8-1-10 3-1 3 0 7 1 10 0 2-1 15 4 12a1 1 0 0 0 0-2z"/><path class="cls-2" d="M3 74a169 169 0 0 1 0-20l1-6a13 13 0 0 1 3-2l16-10c1-1 2-1 0-1a26 26 0 0 1 3 0h9l12-1h26l-1-3-10 9-7 6c-2 2-1 7-1 9v22l1-1a180 180 0 0 0-26-1H16c-3 0-10 2-12-1-1-1-3 1-2 2 2 3 6 2 10 2h14a190 190 0 0 1 29 1 1 1 0 0 0 2-2 840 840 0 0 1 0-27 11 11 0 0 0 0-2h1l7-6a47 47 0 0 0 9-8 2 2 0 0 0-1-3H35l-10 1a7 7 0 0 0-4 1L5 44c-3 2-4 4-5 7a80 80 0 0 0 1 23 1 1 0 0 0 2 0z"/><path class="cls-2" d="M1 50h11a68 68 0 0 0 11 0c2 0 1-2 0-2H1a1 1 0 0 0 0 2zM23 48c7-3 13-8 18-13 0-1-1-2-2-1L23 47v1z"/><path class="cls-2" d="M23 48c-2 1-1 3-2 5v22a1 1 0 0 0 2 1 1 1 0 0 0 1-2 14 14 0 0 1 0-3v-4-7-7l-1-6z"/><path class="cls-2" d="M23 49a59 59 0 0 0 8 1l5-1a1 1 0 0 0 0-1H23a1 1 0 0 0 0 1zM3 53l9 1 9-1v-1H3v1zM1 57h20v-1c-2-2-6-1-9-1L1 56a1 1 0 0 0 0 1zM1 60a51 51 0 0 0 11 1l11-1v-1l-10-1H1v2zM1 64a102 102 0 0 0 11 1l11-1v-1H13L2 62l-1 2zM2 67c7 1 15 2 21 1v-1l-10-1a826 826 0 0 0-11 1zM2 72c6 2 14 1 21 1v-1c-7-2-14 0-21-1a1 1 0 0 0 0 1zM25 45H11l1 1 12-6 3-2a18 18 0 0 1 4 0 13 13 0 0 0 5-1l-7-1-4 1-3 3a35 35 0 0 1-3 1 482 482 0 0 1-8 5c4 1 10 2 14 0v-1z"/><path class="cls-3" d="M64 6c-2-1-5-2-7 0-3 3-6 7-11 6v4h9c3-1 4-5 8-5 2 0 2-5 0-5a9 9 0 0 0-7 3c-2 2-2 3-5 4l-5-1a2 2 0 0 0 0 4c3 1 6-1 9-2 1-1 2-3 4-3 1-2 3-1 5-2a2 2 0 0 0 0-3zM71 14c3 0 5-3 8-4l10-1-1-3-4 3-2 1-7 1 1 4a18 18 0 0 1 5-3c3 0 2-4-1-4a12 12 0 0 1-5 0v5h8a1 1 0 0 0 1-3c-3-2-6-2-9-2s-3 4-1 5a16 16 0 0 0 7-1l-1-4-6 3c-2 1-2 3 0 4a7 7 0 0 0 4 0l2-1c1-1 2 1 3 1 3 0 6-4 8-6a2 2 0 0 0-2-4L77 6c-3 1-6 4-7 7a1 1 0 0 0 1 1zM104 15c6 1 11-5 18-5l-1-4-7 5c-3 2-7 1-10 1a2 2 0 0 0 0 4h10l9-7a2 2 0 0 0-1-4 17 17 0 0 0-10 3l-9 6a1 1 0 0 0 1 1zM130 14c2-1 4-4 7-4l9-1-2-3-5 4a16 16 0 0 1-4-1h-4c-3 0-3 5 0 5l1-1a2 2 0 0 0 2-1 2 2 0 0 0 0-2 2 2 0 0 0-2-1h-1v4l9 1 6-5a2 2 0 0 0-1-3 36 36 0 0 1-7 0 9 9 0 0 0-4 1 11 11 0 0 0-5 6 1 1 0 0 0 1 1z"/><path class="cls-4" d="M158 33h7l-13 16v26l-13 2V49l19-16zM81 76l1-27 17-17h7L94 49l-2 27H81z"/><path class="cls-1" d="M77 51v3a27 27 0 0 1 0 4c0 1 2 2 3 1 3-2 3-8 0-10a2 2 0 0 0-3 2zM37 48a2 2 0 0 0-2 3 4 4 0 0 0 2 3 1 1 0 0 0 2-1 4 4 0 0 0 0-1 5 5 0 0 0 0-1s0-1 0 0a3 3 0 0 0 0-2v2a1 1 0 0 1 0-1 2 2 0 0 0-2-2zM117 51l5-5a28 28 0 0 1 6-4c2-1 6-4 5-7l-3-1-3 4-5 3a17 17 0 0 0-7 9 1 1 0 0 0 2 1z"/><path class="cls-1" d="M39 49c5 1 12 1 16-2 5-3 8-7 12-11a2 2 0 0 0-2-4l-17 2c-2 1-2 5 0 4 6 0 11-2 17-1l-2-4-9 10c-5 3-10 2-15 3a1 1 0 0 0 0 3z"/><path class="cls-1" d="M67 36c1 0 1 0 0 0h1v1a4 4 0 0 0 1 1l2-1c1-1 0-2-1-3a4 4 0 0 0-3-1 1 1 0 0 0-1 1 1 1 0 0 0 1 2zM63 49c6 0 13 3 18-1a1 1 0 0 0 0-3l-8-1a32 32 0 0 0-10 2c-2 1-2 3 0 3z"/><path class="cls-1" d="M66 47c5 0 9-4 14-6a30 30 0 0 1 7-4h9a2 2 0 0 0 0-3 33 33 0 0 0-8-1c-3 1-6 0-8 2-6 2-9 8-14 10-2 0-2 2 0 2zM106 37l9-1h9v-3c-7 7-16 15-26 12-3-1-4 3-1 4 12 3 22-5 30-13a2 2 0 0 0-1-3c-5-3-15-1-21 2l1 2zM139 46h-7l-9-1 1 4 14-9a32 32 0 0 1 7-3h9a2 2 0 0 0 1-3c-5-3-12-1-17 2l-16 9c-1 1 0 4 1 4l10 1c2 0 5 0 7-2a1 1 0 0 0-1-2zM164 37l16 1-2-3a22 22 0 0 1-11 9l-12 1c-2 0-2 3 0 4 4 1 10 0 15-2a26 26 0 0 0 11-10c1-1 0-3-1-3a68 68 0 0 0-16 0c-2 1-2 3 0 3z"/><path class="cls-5" d="M84 75c3-3 2-8 2-11V51l-2 3a54 54 0 0 1 6 0l-1-3v12c0 4 0 8-4 8l2 4c2-4 2-7 1-11 0-4-1-8 1-11 0-2-3-4-4-2-6 5 0 15-3 21a3 3 0 0 0 3 4c13 1 8-17 9-24 0-2-2-3-3-3a62 62 0 0 0-7 0 2 2 0 0 0-3 2c0 8 2 15 1 23a2 2 0 0 0 2 1z"/><path class="cls-5" d="M88 54c-3 1-3 4-3 6s0 6 2 8a1 1 0 0 0 2 0v-6l1-7a1 1 0 0 0-2-1zM144 74c1-7 1-15 3-22l-3 2h5l-3-2-1 23 3-3a7 7 0 0 1-3 0l1 2c1-7 3-13 3-20a3 3 0 0 0-2-3c-2 0-3-1-3 1 1-3-4-5-4-2-1 5 3 6 7 7l-3-3c0 7-3 13-3 20a3 3 0 0 0 1 2 14 14 0 0 0 6 2 3 3 0 0 0 3-3c-1-8 0-16 1-23a3 3 0 0 0-3-3h-5a3 3 0 0 0-3 2 49 49 0 0 0-2 12c0 4-1 8 1 12a2 2 0 0 0 4-1z"/><path class="cls-2" d="M62 74a167 167 0 0 1 0-20l1-6a14 14 0 0 1 3-2l16-10v-1a26 26 0 0 1 3 0h9l12-1h26l-1-3c-3 4-7 6-11 9a32 32 0 0 0-7 6l-1 9 1 22 1-1a180 180 0 0 0-26-1H75c-3 0-10 2-13-1-1-1-3 1-2 2 3 3 7 2 10 2l15-1a190 190 0 0 1 29 1 1 1 0 0 0 1-1 752 752 0 0 1 1-27 11 11 0 0 0 0-2s-1 1 0 0c3-1 5-4 7-6a47 47 0 0 0 10-8 2 2 0 0 0-1-3H94l-10 1a7 7 0 0 0-4 1L63 44c-2 2-4 4-4 7a80 80 0 0 0 1 23 1 1 0 0 0 2 0z"/><path class="cls-2" d="M60 50h11a68 68 0 0 0 11 0c2 0 1-2 0-2H60a1 1 0 0 0 0 2zM82 48c6-3 12-8 17-13 1-1 0-2-1-1L81 47l1 1zM95 49l7-9c2-3 5-5 5-8a1 1 0 0 0-1 0l-6 6c-2 3-5 6-6 10a1 1 0 0 0 1 1z"/><path class="cls-2" d="M94 49a32 32 0 0 0 11 1h10a1 1 0 0 0 1-2c-2-3-7-2-10-1l-12 1v1z"/><path class="cls-2" d="M94 49c-3 2-2 8-2 11l-1 15 2-2h-1v1c-2 1 2 3 2 1l1-15v-6-5a1 1 0 0 0-1 0zM81 48l-1 5a308 308 0 0 0 0 17v5a1 1 0 0 0 2 1 1 1 0 0 0 0-2 13 13 0 0 1 0-3v-4-7l1-7-1-5h-1z"/><path class="cls-2" d="M82 49a59 59 0 0 0 7 1l6-1a1 1 0 0 0 0-1H82a1 1 0 0 0 0 1zM128 50a1 1 0 0 0 0-2 1 1 0 0 0 0 2zM113 63a1 1 0 0 0 0-1 1 1 0 0 0 0 1zM61 53l9 1 9-1v-1H61v1zM60 57h20v-1l-9-1-11 1a1 1 0 0 0 0 1zM60 60a51 51 0 0 0 11 1l10-1v-1l-9-1H60v2zM60 64a103 103 0 0 0 11 1l10-1v-1H71l-11-1v2zM61 67c6 1 14 2 21 1v-1l-10-1H61a1 1 0 0 0 0 1zM60 72c7 2 14 1 21 1v-1c-6-2-13 0-20-1a1 1 0 0 0-1 1zM94 52c7 3 15 2 21 1-6-1-14-3-21-1zM94 57l11 1h11v-1c-3-2-7-2-11-2l-11 1v1z"/><path class="cls-2" d="M94 61c7 1 14 2 20 1v-1c-6-2-13-1-20-1a1 1 0 0 0 0 1zM94 65l10 1h10l1-1-10-1a47 47 0 0 0-11 0 1 1 0 0 0 0 1zM93 70h20a1 1 0 0 0 0-1l-10-1-10 1a1 1 0 0 0 0 1zM94 73l23 1v-1l-23-1v1zM83 45H70v1c4-2 9-3 12-6l4-2a18 18 0 0 1 4 0 13 13 0 0 0 5-1l-8-1-4 1c-2 1-1 2-2 3a35 35 0 0 1-4 1l-7 4v1c4 1 10 2 13 0v-1zM97 45h9l7-1c2 0 3-2 4-3s3-2 4-5a1 1 0 0 0-1-1l-18 2v1l18-1-1-1c-1 3-6 6-10 7-4 0-8-1-12 1v1zM120 74a178 178 0 0 1-1-18c1-2 0-6 2-8a9 9 0 0 1 2-2l15-9a22 22 0 0 0 2-2h46l-2-3-8 11c-2 1-5 3-5 5l-1 11 1 18 1-1a179 179 0 0 0-26-1h-19c-2 0-5 1-7-1-1-1-3 1-2 2 3 3 7 2 10 2l14-1a190 190 0 0 1 30 1 1 1 0 0 0 1-1V59v-6l1-4c0 1-1 1 0 0l2-1 3-4 8-10c1-1 0-3-1-3-13-1-25 0-37 1h-9a10 10 0 0 0-3 2l-16 10c-3 3-4 5-4 8a82 82 0 0 0 1 22 1 1 0 0 0 2 0z"/><path class="cls-2" d="M118 50h11a68 68 0 0 0 11 0c2 0 1-2 0-2h-22a1 1 0 0 0 0 2zM185 34c0 12-2 23 0 35a1 1 0 0 0 1 0c1-12 2-23 1-35 0-2-2-2-2 0zM140 48c6-3 12-8 17-13 1-1 0-2-1-1l-17 13 1 1zM153 49l7-9c2-3 5-5 5-8a1 1 0 0 0-1 0l-6 6c-2 3-5 6-6 10a1 1 0 0 0 1 1z"/><path class="cls-2" d="M152 49a32 32 0 0 0 11 1h10a1 1 0 0 0 1-2c-2-3-7-2-10-1l-12 1v1z"/><path class="cls-2" d="M152 49c-3 2-2 8-2 11l-1 15 2-2h-1v1c-2 1 2 3 2 1l1-15v-6-5a1 1 0 0 0-1 0zM139 48l-1 5a308 308 0 0 0 0 16v6a1 1 0 0 0 2 1 1 1 0 0 0 0-2 13 13 0 0 1 0-3v-4-7l1-7-1-6h-1z"/><path class="cls-2" d="M140 49a59 59 0 0 0 7 1l6-1a1 1 0 0 0 0-1h-13a1 1 0 0 0 0 1zM173 55a54 54 0 0 0 7-7c2-2 5-5 5-8l-6 7-7 7 1 1zM172 58l8-5a22 22 0 0 0 5-7l-6 6-7 5v1zM171 63a97 97 0 0 0 9-6l7-8-1-1-7 7-9 7 1 1zM171 67c6-2 12-7 15-13h-1l-6 6a55 55 0 0 1-8 6 1 1 0 0 0 0 1zM172 71l8-5 7-7h-1l-7 5-7 6v1zM172 76c5-3 10-7 13-11l-1-1-13 11 1 1z"/><path class="cls-2" d="M172 79c6-2 14-8 16-14l-1-1-7 8a36 36 0 0 1-9 6l1 1zM119 53l9 1 9-1v-1h-18v1zM118 57h20v-1l-9-1-11 1a1 1 0 0 0 0 1zM118 60a51 51 0 0 0 11 1l10-1v-1l-9-1h-12v2zM118 64a103 103 0 0 0 11 1l10-1v-1h-10l-11-1v2zM119 67c6 1 14 2 21 1v-1l-10-1a828 828 0 0 0-11 1zM118 72c7 2 14 1 21 1v-1c-6-2-13 0-20-1a1 1 0 0 0-1 1zM152 52c7 3 15 2 21 1-6-1-14-3-21-1zM152 57l11 1h10l1-1c-4-2-7-2-11-2l-11 1v1zM152 61c7 1 14 2 20 1v-1c-6-2-13-1-20-1a1 1 0 0 0 0 1zM152 65l10 1h10l1-1-10-1a47 47 0 0 0-11 0 1 1 0 0 0 0 1zM151 70h20a1 1 0 0 0 0-1l-10-1-10 1a1 1 0 0 0 0 1zM152 73l23 1v-1l-23-1v1zM141 45h-13v1c4-2 9-3 12-6l4-2a18 18 0 0 1 4 0 13 13 0 0 0 5-1l-8-1-4 1c-2 1-1 2-2 3a35 35 0 0 1-4 1l-7 4v1c4 1 10 2 13 0v-1zM155 45h14c3-1 6-5 7-8a1 1 0 0 0-1-1 144 144 0 0 0-15 1v1a116 116 0 0 1 15 0l-1-1c-3 9-12 4-19 7v1zM132 32l-1 3v5a1 1 0 0 0 1 0c2-1 2-3 2-4l-1-4a1 1 0 0 0-1 0zM114 54a4 4 0 0 0 3-1l2-1a1 1 0 0 0 0-1 3 3 0 0 0-3 0 5 5 0 0 0-2 2v1zM115 57l3-2c-2-1-3 0-4 1s0 2 1 1zM114 62l4-3c-2-1-4 1-5 2l1 1z"/><path class="cls-2" d="M114 66c2-1 4-1 5-3a1 1 0 0 0-1-1c-2 0-3 2-5 3a1 1 0 0 0 1 1zM113 70c3 0 5-1 7-3a1 1 0 0 0-1-1c-2-1-5 1-7 3-1 0 0 2 1 1zM113 75a9 9 0 0 0 5 0c0-1 2-1 2-3s-2 0-3 0a16 16 0 0 0-4 2 1 1 0 0 0 0 1z"/><path class="cls-2" d="M114 78a8 8 0 0 0 4 0 6 6 0 0 0 3-2 1 1 0 0 0 0-1c-3-1-6 1-7 2a1 1 0 0 0 0 1z"/><path class="cls-4" d="M130 3h7l-14 16v25l-12 2-1-27 20-16zM53 45V19L71 2h6L66 18l-2 27H53z"/><path class="cls-1" d="M48 20l1 4a28 28 0 0 1 0 3c0 2 1 2 2 2 3-3 4-9 0-10a2 2 0 0 0-3 1zM69 43v-8a52 52 0 0 1 1-8c2-6 11-4 16-3l-4-4 2-3a30 30 0 0 1-15 4v8c4 0 9 0 14 2v-7c-5 2-10 1-14 1-6 1-6 8 0 8a58 58 0 0 1 16 2l-1-8a19 19 0 0 1-13 2v8a28 28 0 0 1 12 1l-1-8c-4 3-9 3-13 2l-1 8 17 1-1-8a80 80 0 0 1-13 2c-5 0-5 7 0 7a54 54 0 0 1 9 1l-1-7a14 14 0 0 1-7 2c-5 0-5 7 0 7h11l-1-7-13 1v7h15l6-1 5-2-4-7-1 2c-2 1-2 5 1 6 5 3 14 4 19 0a4 4 0 0 0 1-5c-2-5-1-12 0-17a3 3 0 0 0-3-4c-8 0-16-1-23 2a3 3 0 0 0-2 4c1 5 4 9 7 14 2 3 7 1 6-2s-3-8-2-11l-5 2c4 2 6 7 7 12 0 3 7 3 6-1l-1-12-6 2a69 69 0 0 1 4 9c1 3 6 3 6-1l-1-10-6 2 2 6c1 4 8 2 6-2a47 47 0 0 0-3-8c-1-3-6-2-5 1l1 16a2 2 0 0 0 5 1c2-6 0-11 0-17l-6 2a26 26 0 0 1 2 7l6-2a25 25 0 0 0-2-7c-2-3-6-2-6 1l1 11 6-1-5-11c-1-3-6-2-6 2a105 105 0 0 0 1 11l7-1c-2-6-4-12-9-16a3 3 0 0 0-5 2c-1 5 1 9 2 14l6-2c-3-4-6-8-7-13l-2 4c6-2 14-2 21-1l-3-4c-2 6-3 14-1 21l2-5c-3 2-8 2-11 0v6l2-1c4-3 0-8-4-7a17 17 0 0 0-4 1 16 16 0 0 1-6 2 120 120 0 0 1-14 1c-4 0-4 7 0 7 5 0 10 1 15-1 4-1 3-7-1-7H72v7c4 0 7-1 11-3 3-1 2-6-1-6a65 65 0 0 0-11-1v7a73 73 0 0 0 15-1c5-1 4-8-1-8l-17-1c-5 0-6 7-1 8 6 1 13 1 19-3a4 4 0 0 0-1-7 38 38 0 0 0-15-1c-4 0-5 7-1 8 7 1 13 1 19-3 3-1 2-6-1-7a66 66 0 0 0-18-2v8c6 0 12 0 18-3 3-1 1-6-1-7-6-2-12-2-17-2-5 1-5 8 0 8a37 37 0 0 0 13-2c3-1 7-3 7-7 0-2-1-4-3-3-7 0-17-1-20 8l-2 10c0 3 0 7 2 10 2 1 4-1 3-2z"/><path class="cls-1" d="M37 43c-2-2-1-6-1-8a52 52 0 0 1 2-8c2-6 11-4 15-3l-3-4 2-3a30 30 0 0 1-16 4v8c5 0 10-1 15 2v-7c-5 2-10 1-14 1-6 1-6 8 0 8a58 58 0 0 1 16 2l-1-8a19 19 0 0 1-13 2v8a28 28 0 0 1 12 1l-1-8c-4 3-9 3-13 2l-2 8 18 1-1-8a80 80 0 0 1-13 2c-5 0-5 7 0 7a54 54 0 0 1 9 1l-1-7a14 14 0 0 1-7 2c-5 0-5 7 0 7h11l-1-7-13 1v7h15l6-1 5-2-4-7-1 2c-2 1-2 5 0 6 6 3 15 4 20 0a4 4 0 0 0 1-5c-2-5-1-12 0-17a3 3 0 0 0-3-4c-8 0-16-1-23 2a3 3 0 0 0-2 4c1 5 4 9 7 14 2 3 7 1 6-2s-3-8-2-11l-5 2c4 2 6 7 7 12 0 3 7 3 6-1l-1-12-6 2a69 69 0 0 1 4 9c1 3 6 3 6-1l-1-10-6 2 2 6c1 4 7 2 6-2a47 47 0 0 0-3-8c-1-3-6-2-6 1l2 16a2 2 0 0 0 5 1c2-6 0-11-1-17l-5 2a26 26 0 0 1 2 7l6-2a25 25 0 0 0-2-7c-2-3-7-2-6 1l1 11 6-1-5-11c-1-3-6-2-6 1a105 105 0 0 0 1 12l7-1c-2-6-4-12-10-16a3 3 0 0 0-4 2c-2 5 1 9 2 14l6-2c-3-4-6-8-7-13l-2 4c6-2 14-2 21-1l-3-4c-2 6-3 14-1 21l2-5c-3 2-8 2-11 0v6l2-1c4-3 0-8-4-7a17 17 0 0 0-4 1 16 16 0 0 1-6 2 121 121 0 0 1-14 1c-5 0-5 7 0 7s10 1 15-1c4-1 3-7-1-7H40v7c4 0 7-1 11-3 3-1 2-6-1-6a65 65 0 0 0-11-1v7a73 73 0 0 0 15-1c5-1 4-8-1-8l-17-1c-5 0-6 7-1 8 6 1 13 1 19-3a4 4 0 0 0-1-7 38 38 0 0 0-15-1c-4 0-5 7-1 8 7 1 13 1 19-3 3-1 3-6-1-7a66 66 0 0 0-18-2v8c6 0 12 0 18-2 3-2 1-7-1-8-6-2-12-2-17-2-5 1-5 8 0 8a37 37 0 0 0 13-2c3-1 7-3 7-7 0-2-1-4-3-3-7 0-17-1-20 8-2 3-2 7-2 10s0 7 2 10c1 1 4-1 3-2zM89 20l4-5a28 28 0 0 1 6-3c3-2 7-4 5-8h-2l-3 4-5 2a16 16 0 0 0-7 9 1 1 0 0 0 2 1zM126 44a62 62 0 0 1 1-22l-2 1h14l-1-6-12 4a3 3 0 0 0 1 5 54 54 0 0 1 13 2l-1-5c-4 2-9 0-13 0v6a33 33 0 0 1 14 2l-1-5c-4 2-8 3-12 1v6a18 18 0 0 1 10 1l1-5a19 19 0 0 1-11 1v5a16 16 0 0 1 10 2v-5a15 15 0 0 1-11 0v6c4-1 9-1 12 1v-5c-3 2-8 1-11-1v6c4-1 9 1 13 2l1-6h-15v6a61 61 0 0 1 11 1v-5a18 18 0 0 1-11 0v6c4-1 8 0 12 1v-6h-13v6a93 93 0 0 1 13 1v-6l-13 1c-4 0-4 6 0 6h18a3 3 0 0 0 3-4c-5-7 4-18-5-24l-1 6c4 0 7-2 10-5l7-10-3-2c-4 8-3 17-2 26 0 2 4 3 4 0a84 84 0 0 0 0-22l-4 1c2 6 2 12 1 18 0 6-4 10-10 12l2 5a14 14 0 0 0 8-9 3 3 0 0 0-2-3c-4-1-8 0-11 3l4 1c0-4 0-8 2-12l-5-1 3 12 5-1c-2-4-3-10-1-14l-4 1c2 2 3 6 3 9l5-1c-1-4-2-8-1-12l-5 1c2 3 3 6 2 9h5a49 49 0 0 1 0-9h-5v15c-1 4 5 5 5 2v-1l-1 2a4 4 0 0 0 1-1c3-2-1-6-4-4a4 4 0 0 0-1 2l5 2V21c0-4-5-4-5 0a54 54 0 0 0 0 10c1 3 5 2 6 0 0-5-1-9-3-13-1-2-5-2-5 1-1 5 0 10 1 15 0 2 5 2 5-1 0-5-1-9-4-13a3 3 0 0 0-4 1c-4 5-2 13 0 18 2 2 5 1 5-1 0-5-2-9-3-13a3 3 0 0 0-4 0c-3 4-3 9-3 15 0 2 3 3 5 1a7 7 0 0 1 6-1l-2-3a10 10 0 0 1-5 5c-3 2-1 6 2 5 6-2 12-7 13-14s1-15-2-22c0-2-4-2-4 1v21h5c-1-8-3-16 0-24a2 2 0 0 0-3-2l-7 7c-2 2-4 4-7 4-4 0-5 4-2 6 2 2 0 8 0 10 0 4 0 8 3 11l2-5h-18v6l14-1c3-1 3-5 0-6a104 104 0 0 0-14-1c-4 0-4 5 0 6h14c3-1 3-5 0-6-5-1-10-2-15-1-3 1-2 5 0 6a23 23 0 0 0 14-1c3-1 3-5 0-5a84 84 0 0 0-12-2c-4 0-3 6 0 6h15c4 0 4-5 1-5-5-2-11-4-17-3-3 1-2 5 0 6a20 20 0 0 0 16 0c2-1 2-4 0-5-5-2-11-2-16-2-3 1-3 5 0 6a21 21 0 0 0 15-1c2-1 2-4 0-5-4-3-10-3-15-2-3 0-2 5 0 5a23 23 0 0 0 15-1 3 3 0 0 0 0-5 25 25 0 0 0-15-2c-3 1-3 5 0 6 6 2 12 0 17-2 3-1 2-5-1-5a38 38 0 0 0-15-3 3 3 0 0 0 0 6c5 0 11 1 16-2 2-1 2-4-1-5l-14-2 1 6 12-4c2-1 2-5-1-5l-14 2a2 2 0 0 0-3 1c-1 9-2 17 1 25 0 2 3 1 3-1z"/><path class="cls-1" d="M35 19c6 0 13 2 18-2a1 1 0 0 0 0-2l-9-1a32 32 0 0 0-10 1c-1 1-1 4 1 4z"/><path class="cls-1" d="M38 17c5 0 9-4 13-7a30 30 0 0 1 7-3l10-1a2 2 0 0 0 0-3 33 33 0 0 0-9 0l-8 1c-5 3-8 8-14 10-1 1-1 3 1 3zM78 7l9-1c3 0 6-2 9 0l-1-3c-6 7-15 14-26 12-2-1-3 3-1 4 12 3 23-5 30-13a2 2 0 0 0 0-4c-6-3-15 0-21 2-1 1-1 3 1 3zM111 16l-8-1h-8l1 3 14-8a33 33 0 0 1 7-3h8a2 2 0 0 0 1-4c-5-2-11 0-16 2L94 15c-2 1-1 3 1 3l9 1 8-1a1 1 0 0 0-1-2zM135 7l16 1-2-4a22 22 0 0 1-11 9c-4 2-8 1-12 2-2 0-1 3 0 3 5 2 11 0 15-1a26 26 0 0 0 12-10c1-2 0-4-2-4a68 68 0 0 0-16 1 2 2 0 0 0 0 3z"/><path class="cls-5" d="M56 44c2-3 2-7 2-10V21l-3 2a55 55 0 0 1 7 1l-2-4v13c0 3 1 8-4 7l3 5 1-12V23c1-2-2-4-4-2-5 5 1 14-2 21a3 3 0 0 0 2 4c14 1 8-17 9-25l-2-2a62 62 0 0 0-8-1 2 2 0 0 0-2 3v22a2 2 0 0 0 3 1z"/><path class="cls-5" d="M60 23c-3 1-3 4-3 7s0 6 2 8a1 1 0 0 0 2 0v-7-6a1 1 0 0 0-1-2zM115 43l3-21-2 1 5 1-3-3-1 23 3-2a7 7 0 0 1-3-1l1 2c1-6 3-13 3-20a3 3 0 0 0-3-2h-2c0-3-4-4-5-1-1 4 4 6 7 6l-2-3c0 7-3 14-3 20a3 3 0 0 0 1 3 14 14 0 0 0 6 1 3 3 0 0 0 2-3c-1-7 1-15 1-23a3 3 0 0 0-2-2l-5-1a3 3 0 0 0-3 2 49 49 0 0 0-2 12v12a2 2 0 0 0 4-1z"/><path class="cls-2" d="M33 44a169 169 0 0 1 0-20c0-2 0-5 2-7a13 13 0 0 1 2-2L53 5h1a26 26 0 0 1 2 0l10-1h37l-1-3-10 8a32 32 0 0 0-7 7c-2 2-1 6-1 9v22l2-2a179 179 0 0 0-26-1H46c-3 1-10 2-12 0-1-1-3 1-2 2 2 3 7 2 10 2l14-1a190 190 0 0 1 30 1 1 1 0 0 0 1-1 840 840 0 0 1 0-27 12 12 0 0 0 0-3l1 1c2-2 4-5 7-6a47 47 0 0 0 10-9 2 2 0 0 0-2-3C91-1 78 0 65 1L55 2a7 7 0 0 0-3 1L35 13c-3 3-4 4-4 8a80 80 0 0 0 1 23 1 1 0 0 0 1 0z"/><path class="cls-2" d="M32 19l10 1a70 70 0 0 0 12 0c1-1 1-3-1-3H42l-10 1a1 1 0 0 0 0 1z"/><path class="cls-2" d="M53 18L71 5c1-1-1-2-1-2L53 17v1zM66 18l8-9c2-2 4-4 4-7a1 1 0 0 0 0-1c-3 1-4 4-6 7l-7 9a1 1 0 0 0 1 1z"/><path class="cls-2" d="M66 18a32 32 0 0 0 10 1h11a1 1 0 0 0 0-2c-2-2-6-1-9-1l-12 1v1zM65 18c-2 3-1 8-2 11v15l1-1a1 1 0 0 0-1 0c-2 2 2 4 2 1l1-14 1-6c1-2 0-4-1-6a1 1 0 0 0-1 0zM53 17l-1 6a307 307 0 0 0-1 16l1 6a1 1 0 0 0 1 0h1a1 1 0 0 0 0-1 14 14 0 0 1 0-3v-4-7-8l-1-5z"/><path class="cls-2" d="M53 19a59 59 0 0 0 8 0c1 0 4 1 5-1a1 1 0 0 0 0-1h-6l-7 1a1 1 0 0 0 0 1zM100 19a1 1 0 0 0 0-1 1 1 0 0 0 0 1zM85 33a1 1 0 0 0 0-2 1 1 0 0 0 0 2zM32 29a51 51 0 0 0 11 1l10-1v-1H32v1zM32 33a100 100 0 0 0 10 1h11v-1l-10-1H32v1zM32 37c7 1 15 2 22 0v-1H32v1zM32 41c7 3 14 2 21 1 0 0 1 0 0 0-7-2-14 0-21-2a1 1 0 0 0 0 1zM66 22c6 2 14 2 21 1-7-2-14-3-21-2v1zM65 26l11 1h11v-1l-10-1c-4 0-8-1-12 1zM33 22c6 2 14 2 20 1-6-2-14-3-20-2v1zM32 26l11 1h11v-1l-11-1c-3 0-8-1-11 1z"/><path class="cls-2" d="M66 31l20 1a1 1 0 0 0 0-1c-6-2-13-2-20-1a1 1 0 0 0 0 1zM66 35h20c-3-2-6-2-10-2a47 47 0 0 0-10 0 1 1 0 0 0 0 2zM64 40h21a1 1 0 0 0 0-2H64a1 1 0 0 0 0 2zM66 42c7 1 15 2 22 1 0 0 1 0 0 0-7-2-15-1-22-2v1zM55 15l-13-1v2l12-6 4-3a17 17 0 0 1 3 0 13 13 0 0 0 5 0V6h-7l-4 1-3 2a34 34 0 0 1-3 2l-8 4 1 1h13v-1zM69 15h8l8-1 3-3 4-5a1 1 0 0 0-1-1L74 6v2c6-1 11-2 17-1V6c-2 3-7 6-10 6-4 1-9 0-12 2v1zM91 44a178 178 0 0 1 0-19l1-7a10 10 0 0 1 2-2l16-10a20 20 0 0 0 2-1c1-1-1 0 0 0l8-1h37l-1-2-8 10-6 6v29l2-2a180 180 0 0 0-26-1h-13l-7 1c-2 0-5 1-6-1-1-1-3 1-2 2 2 3 7 2 10 2l14-1a189 189 0 0 1 29 1 1 1 0 0 0 2-1V29v-6l1-5v1l1-2 4-3 8-11-2-2h-37l-8 1a10 10 0 0 0-4 1L92 14c-3 2-3 4-4 8a83 83 0 0 0 2 22 1 1 0 0 0 1 0z"/><path class="cls-2" d="M90 19l10 1a70 70 0 0 0 12 0c1-1 1-3-1-3h-11l-10 1a1 1 0 0 0 0 1zM156 4v34a1 1 0 0 0 1 0l2-34c0-2-3-2-3 0z"/><path class="cls-2" d="M111 18l18-13c1-1-1-2-1-2l-17 14v1zM124 18l8-9c2-2 4-4 4-7a1 1 0 0 0 0-1c-3 1-4 4-6 7l-7 9a1 1 0 0 0 1 1z"/><path class="cls-2" d="M124 18a32 32 0 0 0 10 1h11a1 1 0 0 0 0-2c-2-2-6-1-9-1l-12 1v1zM123 18c-2 3-1 8-2 11v15l1-1a1 1 0 0 0-1 0c-1 2 2 4 2 1l1-14 1-6c1-2 0-4-1-6a1 1 0 0 0-1 0zM111 17l-1 6a307 307 0 0 0-1 16l1 6a1 1 0 0 0 1 0h1a1 1 0 0 0 0-1 14 14 0 0 1 0-3v-4-7-8l-1-5z"/><path class="cls-2" d="M111 19a59 59 0 0 0 8 0c1 0 4 1 5-1a1 1 0 0 0 0-1h-6l-7 1a1 1 0 0 0 0 1zM144 24a53 53 0 0 0 8-6l5-8h-1l-5 6-7 8c-1 0 0 1 0 0zM144 28l7-5a22 22 0 0 0 6-7l-1-1-6 6-6 6v1zM143 33a94 94 0 0 0 8-7c3-2 6-4 7-7v-1l-8 6a369 369 0 0 1-7 9zM143 37c6-3 12-7 14-13-3 1-5 4-7 6a54 54 0 0 1-8 6l1 1zM144 41l7-5 7-7-1-1-6 6c-3 2-6 3-8 6l1 1zM143 45c5-2 10-6 13-11l-13 11z"/><path class="cls-2" d="M143 48c6-1 15-7 16-14h-1l-6 7a36 36 0 0 1-9 6v1zM91 22l9 1h9v-1H91c-1 0 0 0 0 0zM89 27h11l9-1v-1H89a1 1 0 0 0 0 2zM90 29a51 51 0 0 0 11 1l10-1v-1H90v1zM90 33a100 100 0 0 0 10 1h11v-1l-10-1H90v1zM90 37c7 1 15 2 21 0v-1H90v1zM90 41c7 3 14 2 21 1 0 0 1 0 0 0-7-2-14 0-21-2a1 1 0 0 0 0 1zM124 22c6 2 14 2 21 1-7-2-14-3-21-2v1zM123 26l11 1h11v-1l-10-1c-4 0-8-1-12 1zM124 31l20 1a1 1 0 0 0 0-1c-6-2-14-2-20-1a1 1 0 0 0 0 1zM124 35h20c-3-2-6-2-10-2a47 47 0 0 0-10 0 1 1 0 0 0 0 2zM122 40h21a1 1 0 0 0 0-2h-21a1 1 0 0 0 0 2zM124 42c7 1 15 2 22 1 0 0 1 0 0 0-7-2-15-1-22-2v1zM113 15l-14-1 1 2 12-6 4-3a17 17 0 0 1 3 0 13 13 0 0 0 5 0V6h-7l-4 1-3 2a34 34 0 0 1-3 2l-8 4v1c5 0 10 1 14-1zM127 15h7l7-1c3 0 6-5 6-7a1 1 0 0 0 0-1 144 144 0 0 0-15 0v2a116 116 0 0 1 15-1l-1-1c-3 9-13 5-19 8v1zM104 1l-1 4v4a1 1 0 0 0 1 1l2-5-1-4a1 1 0 0 0-1 0zM86 23a4 4 0 0 0 3 0l2-2a1 1 0 0 0-1-1 3 3 0 0 0-2 1 5 5 0 0 0-2 2z"/><path class="cls-2" d="M86 27l4-2v-1l-5 2 1 1zM85 31l5-2-1-1-4 3s0 1 0 0zM85 36l6-3a1 1 0 0 0-1-1l-5 2a1 1 0 0 0 0 2zM85 40c2-1 5-2 6-4a1 1 0 0 0 0-1c-3 0-5 2-7 3-1 1 0 2 1 2zM85 45a9 9 0 0 0 4-1c1 0 3-1 2-2h-2a17 17 0 0 0-4 1 1 1 0 0 0 0 2zM86 48a8 8 0 0 0 3-1 6 6 0 0 0 3-2 1 1 0 0 0 0-1c-2 0-5 1-7 3a1 1 0 0 0 1 1zM35 49a32 32 0 0 0 11 1h10a1 1 0 0 0 1-2c-2-3-6-2-9-1l-13 1v1z"/><path class="cls-2" d="M35 49c-2 2-2 8-2 11l-1 15 2-2a1 1 0 0 0-1 0v1c-2 1 2 3 2 1l1-15v-6-5a1 1 0 0 0-1 0zM54 63a1 1 0 0 0 0-1 1 1 0 0 0 0 1z"/><path class="cls-2" d="M36 52c6 3 14 2 20 1 1 0 1 0 0 0-6-1-14-3-20-1-1 0-1 0 0 0zM35 57l11 1h11v-1c-3-2-7-2-10-2l-12 1v1zM36 61c6 1 13 2 20 1v-1c-7-2-14-1-20-1a1 1 0 0 0 0 1zM35 65l11 1h10v-1l-10-1a47 47 0 0 0-11 0 1 1 0 0 0 0 1zM34 70h20a1 1 0 0 0 0-1l-9-1-11 1a1 1 0 0 0 0 1zM35 73l23 1v-1l-23-1v1z"/><path class="cls-2" d="M56 54a4 4 0 0 0 2-1l2-1a1 1 0 0 0 0-1 3 3 0 0 0-3 0 5 5 0 0 0-2 2l1 1zM56 57l4-2h-1c-1-1-3 0-4 1 0 1 0 2 1 1zM55 62c2-1 4-1 4-3-2-1-3 1-4 2v1zM55 66c2-1 4-1 5-3a1 1 0 0 0 0-1l-6 3a1 1 0 0 0 1 1zM55 70c2 0 5-1 6-3a1 1 0 0 0 0-1c-3-1-6 1-7 3-1 0 0 2 1 1zM55 75a9 9 0 0 0 4 0c1-1 2-1 2-3s-2 0-3 0a16 16 0 0 0-4 2 1 1 0 0 0 1 1z"/><path class="cls-2" d="M55 78a8 8 0 0 0 4 0 6 6 0 0 0 3-2 1 1 0 0 0 0-1c-2-1-6 1-7 2a1 1 0 0 0 0 1z"/></g></g></svg>