<svg xmlns="http://www.w3.org/2000/svg" viewBox="0 0 187 213"><defs><style>.cls-1{fill:#8fb9d1}.cls-2{fill:#ff9d5b}.cls-3{fill:#fff}.cls-4{fill:#f54782}.cls-5{fill:#ffe9a1}.cls-6{fill:#cbccc7}.cls-7{fill:#2b6ed4}.cls-8{fill:#bbac77}.cls-9{fill:#ea4846}.cls-10{fill:#ffebdf}.cls-11{fill:#221714}.cls-12{fill:#d9706f}</style></defs><g id="Layer_2" data-name="Layer 2"><g id="圖"><path class="cls-1" d="M66 169c1 1-1 10-1 10s0 7 2 10 2 9 5 13l4 5c1 1 49 8 52-8l2-24 10-16-20-6-5 10s-15 15-30 13-19-7-19-7z"/><path class="cls-2" d="M72 80s17-8 25-3 21 12 26 20 7 18 4 24l-4 7-1 12c0 5-6 8-6 8v-15l-6 3s6-14 2-18-3 6-3 6l-6-9 1 9-12-5c-8-4-17-18-17-18s-6 24-15 27l-1-4-7 8-2-4-2 9s-3-2-5-8-1-8-2-16 3-18 8-23a24 24 0 0 1 16-8c6 0 7-2 7-2zM58 163l9 7s-1 10-2 9 3 2 3 5c0 0 7 0 3 7s0 1 0 1 3-2 2 2c0 0 5 3 5 7s4 7 5 7H73a5 5 0 0 1-5-4v-6a29 29 0 0 1-2-3l-5-4a10 10 0 0 1-1-3 26 26 0 0 0-2-6c-1-2-2-1-2-3v-3l-1-4c0-2-2-2-1-3a5 5 0 0 1 0-2 6 6 0 0 1 3-2 3 3 0 0 0 1-2zM108 170l4-3 2-3 2-3 2-2s4 4 4 7l-1 5a13 13 0 0 1 0 4v8c-1 1 2 3 1 5l-2 4-1 3-2 5a26 26 0 0 0-1 4l-2 5-1-2-2 1-1-3-4 2-2 2 3-7 1-4 2-2 1-2-2-4v-4l2-2 1-1-1-3v-4l-1-2z"/><path class="cls-3" d="M44 96l-4-1a18 18 0 0 0-3-3c-2-1-3 4-4 3l-7-3-8-62s0-11 10-15 42-5 42-5l66-3h7a14 14 0 0 1 0 8c-2 3-7 29-7 29l1 26 4 22h-5s-4-9-6-8-6 6-5 8h-6s-13-13-22-14-20-4-24 5c0 0-12-1-16 1S44 96 44 96z"/><path class="cls-4" d="M82 32l-7-2a9 9 0 0 1-4-5c-1-5 2-9 7-10 3-1 9-1 11 4 1 3 0 7-2 9-3 4-7 3-11 1a1 1 0 0 0-1 2c8 9 20-3 17-13-2-6-8-7-13-7-6 1-11 6-11 12 0 7 7 13 14 11a1 1 0 0 0 0-2z"/><path class="cls-4" d="M77 14l1 9a65 65 0 0 0 1 8c0 2 2 1 3 0a56 56 0 0 0-1-10 25 25 0 0 0-1-8c-1-1-3 0-3 1z"/><path class="cls-4" d="M79 22l5 3c1 1 3 2 5 1a1 1 0 0 0 1-2l-5-2c-1-1-3-2-5-1a1 1 0 0 0-1 1z"/><path class="cls-5" d="M25 82s-8 4-5 17 5 13 6 19l7 23c3 10 13 22 16 24s7-5 7-5 7 14 29 16 36-22 36-22l10 2s16-34 14-52c0 0 5-10 4-16s-5-11-11-11 3 15 3 15h-5s-3-8-6-8-4 2-5 6a107 107 0 0 0 0 12s8 21 0 24l-2 6s-4 15-7 16c0 0 3-13-1-15l-5 1s7-14 2-16l-4 6-5-9 1 9s-20-4-29-23c0 0-6 22-14 27s-2-4-2-4l-6 6c0 2-3-2-3-2l-2 9a25 25 0 0 1-7-14l-3-15a28 28 0 0 1 1-7s2-8 0-9-4 1-5 2-8-2-8-2z"/><path class="cls-1" d="M56 160l-7 5-6 7 9 9 9 23s6 5 8 4-2-7-1-9-2-4-2-4-7-4-6-9-5-3-4-10a13 13 0 0 1-3-7s1-5 4-5-1-4-1-4z"/><path class="cls-6" d="M19 34l4-1a14 14 0 0 1 4 1l5 1 4 1a2 2 0 0 0 3-3 32 32 0 0 1-1-14c0-1-1-2-2-1a13 13 0 0 0-1 7v9l3-2a20 20 0 0 1-3-2 12 12 0 0 0-3-1 25 25 0 0 0-6-1c-2 0-8 1-8 4a1 1 0 0 0 1 2zM27 92h7c2 0 6-2 6 1a2 2 0 0 0 4 1l11-9a16 16 0 0 1 6-3h8a1 1 0 0 0 1-2c-4-5-12-3-16 0L41 91l3 2c0-10-11-3-17-4v3zM75 80c5-8 18-8 25-4l10 7c3 3 7 9 11 8l-1-1a28 28 0 0 1 2 5 1 1 0 0 0 2-1v-9h1s-2-1 0 0a18 18 0 0 0 3 0c2 0 3 0 5 2l2 3c0 4 4 4 5 1 0-3-2-6-4-8s-5-5-8-5c-8-1-8 11-6 17l2-1-2-5v1a4 4 0 0 0 1-4l-6-6-5-5c-4-4-8-7-13-8-10-3-25 0-28 11 0 3 3 4 4 2z"/><path class="cls-6" d="M124 94c-3-5-3-10-1-15v-1a4 4 0 0 1 3 0 6 6 0 0 1 2 1l3 1 1 1 3 2c1 1 2-1 1-2l-1-4v-1a8 8 0 0 0-1-2c-1-3-4-4-7-4-5-1-9 1-11 5-2 3-2 8 0 12l5 9a2 2 0 0 0 3-2z"/><path class="cls-5" d="M86 178c0 2 1 5 3 3a2 2 0 0 0 0-2l-2-3-1 3a11 11 0 0 1 4-1l-1-3a10 10 0 0 0-3 4 1 1 0 0 0 2 2 4 4 0 0 0 2-2l1-1a2 2 0 0 0-1-3 14 14 0 0 0-5 0 2 2 0 0 0 0 3l2 3v-2h2v-1h-3z"/><path class="cls-7" d="M68 176a7 7 0 0 1 4 2l-1-2c1 7 3 15 8 21a3 3 0 0 0 5-1c1-2 2-6 5-5l8 5a3 3 0 0 0 3-1c3-5 3-12 3-18l-2 3a23 23 0 0 0 7-4c1-1 2-3 0-5a3 3 0 0 0-3 0l-6 4a3 3 0 0 0-1 2c0 5 0 11-2 16l3-1c-3-2-7-6-11-6-4-1-7 4-9 7h4c-4-5-6-11-6-17a3 3 0 0 0-3-3h-7a2 2 0 0 0 1 3zM53 162l-8 9a2 2 0 0 0 2 4c4-2 7-7 8-11 1-1 0-3-2-2zM120 162a18 18 0 0 0 2-2 7 7 0 0 0 2-3 2 2 0 0 0-1-2 2 2 0 0 0-3 0 9 9 0 0 0-1 3l-1 2c-1 2 1 3 2 2z"/><path class="cls-7" d="M120 158a138 138 0 0 0 15 3l-1-1a7 7 0 0 0 2 2 2 2 0 0 0 2-1 4 4 0 0 0-1-4c-1-2-2-1-4-1h-13a1 1 0 0 0 0 2zM68 177v6l4 7 2 6 6 9a1 1 0 0 0 2-1l-6-16-3-7c0-1 0-4-2-5a2 2 0 0 0-3 1z"/><path class="cls-8" d="M40 124c-4 1-3 6-2 8 1 4 4 7 6 10s3 7 3 11c1 3 1 9 6 10a2 2 0 0 0 2-1c1-3-1-7-2-10 0-4-1-8-3-11l-5-8a10 10 0 0 1-3-4v-4a2 2 0 0 0-2-1zM129 115l-4 9c-1 3-2 7 1 8a3 3 0 0 0 3-1 8 8 0 0 0 1-2l1-5c1-3 2-6 1-9h-3zM123 154c3 2 7 2 10-2a7 7 0 0 0 2-5l-1-6a1 1 0 0 0-2 0l-1 4-2 3c-1 3-3 4-6 3-1 0-2 2 0 3z"/><path class="cls-8" d="M119 146c0 3 4 3 6 3a8 8 0 0 0 3-3 9 9 0 0 0 2-4 2 2 0 0 0 0-2c-3-1-6 0-8 3a6 6 0 0 0-1 1v1a2 2 0 0 0-2 1z"/><path class="cls-8" d="M47 137a84 84 0 0 0 8 23 29 29 0 0 0 16 15c14 4 30 1 41-8a28 28 0 0 0 8-9c1-3 5-8 2-11a3 3 0 0 0-3 0 14 14 0 0 0-2 1l-1 2a31 31 0 0 0-3 4 36 36 0 0 1-4 7c-4 4-10 7-16 8-12 4-26 1-34-10l-10-23a2 2 0 0 0-2 1z"/><path class="cls-8" d="M74 107a57 57 0 0 0 13 16 39 39 0 0 0 9 5c3 1 7 3 10 2a3 3 0 0 0 1-4l-3-6-3 2 5 10a2 2 0 0 0 3 0l3-8-4-1c0 6-2 10-4 15-1 1 1 3 2 2l7-1-3-2 2 9c0 3 1 5 3 6a1 1 0 0 0 2 0c1-3 0-5-1-8l-1-8a2 2 0 0 0-4-2l-6 3 2 2c2-5 5-10 5-16 0-1-3-2-4-1l-2 8h3c-1-3-2-7-5-10a2 2 0 0 0-3 2l1 5 4-1c-2-2-6-2-8-3a33 33 0 0 1-9-5c-5-3-9-8-13-13a1 1 0 0 0-3 2z"/><path class="cls-8" d="M52 139l1-6-3 1a29 29 0 0 0 2 4 2 2 0 0 0 3 0l4-8-2-1 1 4 2 1a31 31 0 0 0 12-11c3-5 6-11 5-16a1 1 0 0 0-3 0l-5 14c-2 5-6 8-11 10l3 1-1-3a2 2 0 0 0-3-1l-5 8h3a34 34 0 0 1-2-3c-1-2-3-1-3 1l-1 5h3zM129 117l11 4c2 0 3-4 1-4a61 61 0 0 1-10-3 1 1 0 0 0-2 3zM32 131a35 35 0 0 1 7-3c3-1 2-6-1-5a16 16 0 0 0-8 5 2 2 0 0 0 2 3zM21 85l2 14a2 2 0 0 0 3 1l6-1c3-1 0-6-3-5l-4 2 3 1c-1-4-1-10-4-13a2 2 0 0 0-3 1zM136 96a1 1 0 0 0 0-3 1 1 0 0 0 0 3z"/><path class="cls-8" d="M135 97c3 3 10 2 10-3a30 30 0 0 0 0-6l-2-8a2 2 0 0 0-4 0c-2 5 2 10 2 15l3-3c-4 0-6 2-9 3a2 2 0 0 0 0 2z"/><path class="cls-9" d="M74 100l6 9a34 34 0 0 0 6 6l7 5a29 29 0 0 0 3 2 20 20 0 0 1 3 2 2 2 0 0 0 3-3c-2-3-3-8-1-11l-2 1h1l-2-2 7 12c1 2 3 2 4 0a11 11 0 0 1 4-7l-4-1 4 18c1 2 3 2 4 1a34 34 0 0 1 6-4l-3-3-2 11-2 9c-1 1 0 2 1 2 4-1 6-4 7-8v-13c0-1-2-3-3-2a41 41 0 0 0-7 6h3l-4-18a2 2 0 0 0-3-1 16 16 0 0 0-5 9h4l-7-12a2 2 0 0 0-2-1c-3 0-4 3-4 5l2 11 4-1c-1-3-1-5-3-7a68 68 0 0 0-7-4 80 80 0 0 1-8-6l-9-6a1 1 0 0 0-1 1z"/><path class="cls-9" d="M117 131a40 40 0 0 0 0 8 1 1 0 0 0 2 0 40 40 0 0 0 1-8 1 1 0 0 0-3 0zM49 135c1-4 1-8 4-12h-5c1 2 3 5 6 4l3-4 3-5h-4a7 7 0 0 1 3 6c0 2 2 3 4 2a47 47 0 0 0 8-12l3-8 1-6a1 1 0 0 0-2 0l-2 5a54 54 0 0 1-4 7l-8 11 4 2c1-4 0-8-3-11a3 3 0 0 0-4 1l-6 9 2-1h-1l3 1-1-4h-4a18 18 0 0 0-4 15 2 2 0 0 0 4 0zM100 111a8 8 0 0 0 0 6h2a12 12 0 0 1 0-5 1 1 0 0 0-2-1z"/><path class="cls-9" d="M97 79c7 7 15 15 20 24 2 4 4 8 3 13a31 31 0 0 1-2 6l-2 4-1 4c0 2 2 3 3 2l4-1a16 16 0 0 0 3-5 20 20 0 0 0 2-8l-1-8a34 34 0 0 0-3-8c-6-10-15-18-24-25-1-1-3 1-2 2zM118 161l-3 4a14 14 0 0 1-5 4 3 3 0 0 0-1 2 3 3 0 0 0 0 2 3 3 0 0 0 4 1 16 16 0 0 0 6-5c1-2 3-5 1-7a2 2 0 0 0-2-1zM57 167c-1 2 1 4 2 5l4 3a3 3 0 0 0 4-4l-4-3a13 13 0 0 0-4-3c-1-1-2 1-2 2zM111 178a6 6 0 0 0 7 3c2-1 5-4 5-7a2 2 0 0 0-4-1l-3 3a4 4 0 0 1-4 0 1 1 0 0 0-1 2zM111 185c0 3 2 6 5 6s6-3 5-5c0-3-3-2-4 0v1a1 1 0 0 1-1 0 3 3 0 0 1-2-2h-3zM109 197a4 4 0 0 0 2 6 5 5 0 0 0 6-1 2 2 0 0 0-1-4l-7 1a1 1 0 0 0 0 2l7 1-2-3-2 1-1-3h-2zM57 176a5 5 0 0 0 1 7 14 14 0 0 0 3 2 12 12 0 0 0 4 0l2-2c0-2-2-3-4-4l-2-1s-1 0 0 0h-2 2s-1 0 0 0h-1a12 12 0 0 1 0-2 2 2 0 0 0-3 0z"/><path class="cls-9" d="M60 186a7 7 0 0 0 3 4h7l-3-1v2a2 2 0 0 0 1 3 4 4 0 0 0 3-2 5 5 0 0 0 0-5 2 2 0 0 0-2-1c-2 0-5 1-7-1 0-1-3 0-2 1z"/><path class="cls-9" d="M68 198a5 5 0 0 0 3 0 4 4 0 0 0 2-2 2 2 0 1 0-3-2h-1s1 0 0 0a3 3 0 0 0-1 1l1-1a7 7 0 0 1-1 1 1 1 0 0 0 0 2z"/><path class="cls-9" d="M69 201c3-1 4 1 5 3 2 2 4 5 6 4a1 1 0 0 0 1-1l-2-4a37 37 0 0 0-3-4c-2-2-5-2-8 0-1 1 0 3 1 2zM129 113c2 2 6 2 9 4 4 2 7-4 3-6-3-2-9-3-12-1v3zM31 126a23 23 0 0 1 4-2 11 11 0 0 0 3-1 7 7 0 0 0 2-2 1 1 0 0 0-1-2c-3-4-10 1-11 5-1 2 1 3 3 2z"/><path class="cls-3" d="M66 151c0-3-1-9 4-9l-4-3a31 31 0 0 1 0 5c0 2-1 3-3 3a3 3 0 0 0 1 6c8 1 9-8 9-14a3 3 0 0 0-3-3c-4 0-8 2-9 6-2 3-2 7 0 10a3 3 0 0 0 5-1zM89 148a24 24 0 0 0 1-5 13 13 0 0 0 0-3v1l1-1c2 1 6 3 6 6l3-3-12-1 3 4 1-2 1-2-5 1a17 17 0 0 0 5 2 3 3 0 0 0 3-1l-1 1a2 2 0 0 0 1-1 2 2 0 0 1 0-1 3 3 0 0 0-1-3 22 22 0 0 1-2-2c-2-1-4-1-5 1a56 56 0 0 0-3 6c-1 2 1 4 3 4l12 1a4 4 0 0 0 3-4c1-6-6-13-13-12-3 0-6 2-6 6l2 8a2 2 0 0 0 3 0z"/><path class="cls-6" d="M85 139c4 0 7-2 10 0s3 6 3 9c1 2 3 2 4 0a11 11 0 0 0-5-12c-3-3-9-3-13 0l1 3zM63 151c-1-3-2-6 0-8 1-3 4-3 7-3a2 2 0 0 0 1-3c-10-4-17 8-10 16 1 1 3-1 2-2z"/><path class="cls-10" d="M49 93c-3 4-4 9-4 14-1 1 1 3 3 2a32 32 0 0 1 8-8l-4-2v3a2 2 0 0 0 1 3 4 4 0 0 0 3-1 13 13 0 0 0 2-1v-1c1 0 1 0 0 0l-2-2v4a2 2 0 0 0 3 2c4 0 8-5 9-9a1 1 0 0 0-2-1l-4 4-3 2 2 2v-4a2 2 0 0 0-2-2 4 4 0 0 0-3 0 10 10 0 0 0-1 1l-1 1s0 1 0 0l2 3 1-3a2 2 0 0 0-4-2 64 64 0 0 0-8 8l3 2a46 46 0 0 1 4-13c0-1-1-3-3-2zM80 100l6 2a2 2 0 0 0 3-1 11 11 0 0 1 1-4h-3c2 3 6 4 8 6a2 2 0 0 0 3-1c-1-4 0-7-2-11l-3 2a53 53 0 0 1 8 10 2 2 0 0 0 4-2c-1-5-5-10-8-14l-3 3c8 6 13 12 17 20a1 1 0 0 0 2 0c1-5-2-9-5-13a65 65 0 0 0-12-10c-1-2-3 1-2 3 3 4 6 7 7 12l3-1a56 56 0 0 0-8-11c-1-1-4 0-3 2l2 11 3-1a17 17 0 0 0-4-4l-3-3a2 2 0 0 0-4 0 16 16 0 0 0-1 6l3-1c-3-3-5-3-8-3a1 1 0 0 0-1 3z"/><path class="cls-11" d="M72 86c8-13 27-7 38 0a44 44 0 0 1 7 8 47 47 0 0 1 7 10 27 27 0 0 1-1 24 1 1 0 0 0 2 2c5-5 6-13 5-20s-5-14-10-19c-5-6-10-10-16-13-6-2-13-4-19-3s-13 4-15 10a1 1 0 0 0 2 1zM47 137a66 66 0 0 0 3 9 28 28 0 0 1 1 7c1 7 5 13 11 17 14 10 36 10 49 0 7-6 12-14 10-22 0-2-2-1-2 0-1 7-4 13-9 17-6 6-15 8-23 8s-16-2-23-6a20 20 0 0 1-9-16c-1-5-3-10-6-14a1 1 0 0 0-2 0z"/><path class="cls-11" d="M63 152c-3-3-4-7-2-10a8 8 0 0 1 9-4c3 1 4-2 2-3-5-2-11 0-14 5a10 10 0 0 0 4 13c1 1 2 0 1-1z"/><path class="cls-11" d="M70 141c0 2-1 6 2 7a1 1 0 0 0 1 0 6 6 0 0 0 0-3 10 10 0 0 1 0-4c0-1-2-2-3 0zM84 137c5-1 9-2 13 0s4 6 4 10l2 1c4-5 2-11-3-14s-12-3-17 1a1 1 0 0 0 1 2zM84 141a21 21 0 0 1 1 4l1 3a1 1 0 0 0 1 0c1 0 2-2 1-3a9 9 0 0 0-1-5 2 2 0 0 0-3 1zM72 161c6 0 12 0 17 2 3 1 4-4 2-5-6-2-13-2-19 0-1 1-2 3 0 3zM59 130c4 2 10 5 15 5a1 1 0 0 0 0-2l-7-2a58 58 0 0 1-7-3c-1 0-2 1-1 2zM83 133a58 58 0 0 0 11-3c2-1 6-2 6-4a1 1 0 0 0-1-1l-9 3-7 4v1zM72 82c-5-3-13-1-18 2a32 32 0 0 0-13 15 41 41 0 0 0-2 21c0 7 2 14 8 18 1 1 2 0 2-1a45 45 0 0 1 2-10h-2l2 7a1 1 0 0 0 2 0l6-10a1 1 0 0 0-2-1c-3 2-5 7-6 10h2l-2-7h-2a40 40 0 0 0-3 11l3-1c-5-4-7-11-8-17a38 38 0 0 1 3-18 29 29 0 0 1 11-14c4-3 11-5 17-3a1 1 0 0 0 0-2z"/><path class="cls-11" d="M73 101l-2 7a37 37 0 0 1-3 8 38 38 0 0 1-10 12l3 1-1-8a1 1 0 0 0-2 0l-1 8a2 2 0 0 0 3 1 33 33 0 0 0 11-13c3-4 5-11 3-16a1 1 0 0 0-1 0zM75 102c5 12 16 20 28 24a1 1 0 0 0 1-1 32 32 0 0 1-1-11l-2 1 6 11a1 1 0 0 0 2-1 62 62 0 0 1 4-7l-3-1a18 18 0 0 1-2 18s1 2 2 1c3-1 6-1 8-4 1-1 0-3-1-2a23 23 0 0 1-8 4l1 2a20 20 0 0 0 3-19 1 1 0 0 0-3-1 68 68 0 0 0-3 9l2-1-6-10a1 1 0 0 0-2 0 31 31 0 0 0 1 11l2-1c-12-4-22-12-28-22a1 1 0 0 0-1 0z"/><path class="cls-11" d="M115 133v7a71 71 0 0 1-1 8 1 1 0 0 0 3 2c6-6 10-16 7-25 0-1-3-1-3 1v11a23 23 0 0 1-6 11l2 1c1-5 2-12-1-16a1 1 0 0 0-1 0z"/><path class="cls-11" d="M125 133l3 2a6 6 0 0 1 1 3 9 9 0 0 1 0 6 8 8 0 0 1-4 5l-5 1a1 1 0 0 0 0 2c7 3 12-4 13-10a10 10 0 0 0-4-9c-1-1-4-3-6-1a1 1 0 0 0 0 2h1a1 1 0 0 0 1-1z"/><path class="cls-12" d="M103 151a9 9 0 0 0 2 1 2 2 0 0 0 2 1 1 1 0 0 0 0-1 3 3 0 0 0-1-1 8 8 0 0 1-1-2 1 1 0 0 0-2 2zM107 149c1 1 3 4 4 3a1 1 0 0 0 1-1l-2-2a10 10 0 0 1-2-1 1 1 0 0 0-1 1z"/><path class="cls-11" d="M79 164a3 3 0 0 0 2 1l1 1c2 0 2-2 1-2h-4zM71 84c2-2 0-8-3-8a1 1 0 0 0-1 2l2 2 1 3 1 1z"/><path class="cls-11" d="M72 82l4-6a1 1 0 0 0-2-1c-2 1-3 4-4 6 0 2 2 2 2 1zM56 164c-2 0-4 2-4 5a7 7 0 0 0 4 7v-2a8 8 0 0 0 2 11v-1a10 10 0 0 0 4 10c2 1 8 4 8-1h-2c-1 2-5-1-6-2a7 7 0 0 1-2-7 1 1 0 0 0 0-1 6 6 0 0 1-2-8 1 1 0 0 0-1-2 4 4 0 0 1-2-5l2-4h-1z"/><path class="cls-11" d="M65 172c-1 1 1 5-2 5v3c2 0 4 2 3 4l-1 2a1 1 0 0 0 1 1c2 0 3-2 3-4 0-3-3-5-5-6v3c3-1 5-7 2-8h-1z"/><path class="cls-11" d="M68 185l2 1a5 5 0 0 1 1 3 4 4 0 0 1-2 3l-2 1a1 1 0 0 0 0 1c1 2 3 1 4 0a6 6 0 0 0 3-5l-2-5h-5a1 1 0 0 0 1 1z"/><path class="cls-11" d="M65 194a4 4 0 0 0 7 4c2-1 4-8 0-9a1 1 0 0 0-1 2 4 4 0 0 1 0 5c-1 2-4 1-4-2a1 1 0 0 0-2 0z"/><path class="cls-11" d="M69 197c-4 0-2 7-1 9 1 3 6 7 8 2a1 1 0 0 0-1 0c-3 1-5-1-6-4a14 14 0 0 1-1-3l1-3v-1z"/><path class="cls-11" d="M73 196c3 1 3 5 4 7 2 3 3 5 5 5v-2h-8a1 1 0 0 0-1 2c3 2 7 2 10 0a1 1 0 0 0 0-2c-6-2-4-11-10-12a1 1 0 0 0 0 1zM60 168a6 6 0 0 1 0 4 7 7 0 0 1-4 3 1 1 0 0 0 1 1c4 0 7-5 5-8a1 1 0 0 0-2 0z"/><path class="cls-11" d="M59 174c-1 2 1 4 2 6a3 3 0 0 0 3 0 1 1 0 0 0 0-1v-1a2 2 0 0 1-2-1l-2-3h-1z"/><path class="cls-11" d="M61 179v3a5 5 0 0 1-3 3l2 1a5 5 0 0 0 0-1l-1-1-1 1 1 2a6 6 0 0 0 3-4v-4a1 1 0 0 0-1 0z"/><path class="cls-11" d="M61 183a5 5 0 0 0 6 4 1 1 0 1 0-1-2 4 4 0 0 1-3-2 1 1 0 0 0-2 0z"/><path class="cls-11" d="M65 186l1 4a8 8 0 0 1-1 3l2 2c2-3 2-8-1-10a1 1 0 0 0-1 1z"/><path class="cls-12" d="M58 157a5 5 0 0 0 2 2 1 1 0 0 0 1-1 1 1 0 0 0 0-1v-1a8 8 0 0 1-1 0c-1-1-2 0-2 1zM61 156a5 5 0 0 0 2 1l2 1a1 1 0 0 0 1-1l-2-1a18 18 0 0 0-1-1c-1-1-2 0-2 1z"/><path class="cls-11" d="M117 124a29 29 0 0 1-4 7l-5 5a1 1 0 0 0 0 1c6-1 10-8 10-13a1 1 0 0 0-1 0zM25 112l-3-8a32 32 0 0 1-1-8 26 26 0 0 1 1-8c0-3 2-4 4-5a1 1 0 0 0-1-2c-6-1-8 8-8 13 0 6 1 15 7 19l1-1zM33 102c-1-1 0-3 1-4 0-1 2-7 4-4 1 1 0 5-1 6v6h1c3-3 7-17-1-16-3 0-5 3-5 6-1 2-3 6 0 7a1 1 0 0 0 1-1zM23 113c0 5 2 11 4 15a130 130 0 0 0 5 14 111 111 0 0 0 7 13l4 7c2 1 3 4 6 5a1 1 0 0 0 1-1l-4-6-4-6a120 120 0 0 1-12-27l-5-14-2 1zM138 80l2-1a7 7 0 0 1 3 1c2 2 3 5 3 8a24 24 0 0 1 0 8l-3 7a1 1 0 0 0 2 1c3-2 4-6 4-10a25 25 0 0 0-1-11 8 8 0 0 0-6-6c-3-1-4 0-5 2-1 1 0 2 1 1zM128 100c0-1-4-14 1-13 2 0 4 4 4 6a25 25 0 0 1 0 7 1 1 0 0 0 2 1c4-5 1-18-6-18-9 0-6 14-3 18 1 1 2 0 2-1z"/><path class="cls-11" d="M26 92v-8-8l-2-15-4-31c-1-4-6-2-5 1l5 31 2 14 1 8 2 9a1 1 0 0 0 1-1zM34 12h19l20-1 40-2h20l9-1-1 1a8 8 0 0 0 0 2l-2 5a144 144 0 0 0-6 35 140 140 0 0 0 5 42c1 3 6 2 5-2-7-25-6-52 2-77 1-2 3-5 2-8 0-3-3-3-6-3l-20 1-42 2-22 2c-8 1-16 1-23 3a1 1 0 0 0 0 1z"/><path class="cls-11" d="M20 42c5 2 10 1 14 2h15l30-1a790 790 0 0 0 44-4c5 0 10 0 15-2v-2h-14l-15 1-30 1-29 1-15 1-15 1a1 1 0 0 0 0 2zM37 53l10-1 9-1c2 0 2-2 1-3H47l-11 3a1 1 0 0 0 1 2z"/><path class="cls-11" d="M47 50l-6 9a22 22 0 0 1-8 7c-2 0-1 3 1 3a3 3 0 0 0 1-1 1 1 0 0 0 0-1v1l2-1 2-1a26 26 0 0 0 4-5c2-2 6-7 6-10a1 1 0 0 0-2-1z"/><path class="cls-11" d="M45 56v5l1 7 1 13c1 2 3 1 3-1v-1a1 1 0 0 0-1-1l-1 1 2 2V67c-1-3-1-9-3-11a1 1 0 0 0-2 0zM49 59l5 4h7a1 1 0 0 0 0-1c-2-2-3-2-5-2l-5-3-2 2zM67 47c-1 4 0 10 1 14l1 7 2 8a1 1 0 0 0 2-1c1-4-1-9-1-13l-2-14a1 1 0 0 0-3-1z"/><path class="cls-11" d="M68 50h23l-2-2 2 24 2-2h-7v2a10 10 0 0 0 7 2 2 2 0 0 0 2-2l-2-24a2 2 0 0 0-2-2 108 108 0 0 0-12 0c-4 0-8 0-11 2a1 1 0 0 0 0 2z"/><path class="cls-11" d="M76 55a25 25 0 0 0 4 0l5-1v-3h-5a14 14 0 0 0-5 2l1 2zM76 59a17 17 0 0 0 1 9 2 2 0 0 0 1 1 2 2 0 0 0 1 0 2 2 0 0 0 1-2 25 25 0 0 0-2-8h-2z"/><path class="cls-11" d="M76 60c1 2 3 1 4 1l6-1-3-2a64 64 0 0 1 0 8h1a19 19 0 0 0-2 0 13 13 0 0 0-3 1 1 1 0 0 0 0 2c2 1 7 2 8-1l1-5a46 46 0 0 0-1-5l-3-2c-2 1-7 1-8 3a1 1 0 0 0 0 1zM107 45a17 17 0 0 0 7 1 2 2 0 0 0 0-4 17 17 0 0 0-7 1 1 1 0 0 0 0 2zM102 51h11l11-1a2 2 0 0 0-1-4 80 80 0 0 1-12 1c-3 0-7 0-10 2a1 1 0 0 0 1 2z"/><path class="cls-11" d="M108 49v5c1 1 0 3 2 4a1 1 0 0 0 1 0v-4l-2-5h-1zM117 50a13 13 0 0 1-1 3 8 8 0 0 0-1 3 1 1 0 0 0 2 1c2-1 3-5 2-7a1 1 0 0 0-2 0z"/><path class="cls-11" d="M101 60a89 89 0 0 0 13-1l13-1c2 0 2-3 0-4-4-1-9 1-13 1a99 99 0 0 0-13 3 1 1 0 0 0 0 2z"/><path class="cls-11" d="M106 60a4 4 0 0 0 0 3l1 3c0 2 3 2 3-1l-2-5a1 1 0 0 0-2 0z"/><path class="cls-11" d="M107 62h14l-3-1v7a1 1 0 0 0 3 1c2-2 2-7 1-10a2 2 0 0 0-2-1l-13 2a1 1 0 0 0 0 2z"/><path class="cls-11" d="M108 66c4 1 7 0 11-1 2 0 3-3 1-3l-6 1-6 1a1 1 0 0 0 0 2zM109 69a19 19 0 0 0 11 1c2-1 0-5-2-3a1 1 0 0 0-1 1l1 1 1-2-10 1v1zM102 69a6 6 0 0 0 0 3v3a2 2 0 0 0 3 0l-1-6a1 1 0 0 0-2 0zM106 73c1 5 8 9 13 9 2-1 6-2 7-4s-1-5-3-6a1 1 0 0 0-1 1v4l-6 1c-4-1-6-4-9-6a1 1 0 0 0-1 1z"/><path class="cls-11" d="M113 73a10 10 0 0 0 3 4 2 2 0 0 0 2 0h-1a1 1 0 0 0 2-1h-1a2 2 0 0 0 0-2 5 5 0 0 0-4-2 1 1 0 0 0-1 1zM123 71a5 5 0 0 0 1 0c-1 0 0 0 0 0v1a4 4 0 0 0 1 0 2 2 0 0 0 1 1h-1 1a2 2 0 0 0 2-1v1c2-3-3-7-5-4a1 1 0 0 0 0 2zM40 11c-3 1-5 4-6 7v12l2-1a17 17 0 0 0-20 0l3 2a21 21 0 0 1 9-15 18 18 0 0 1 8-3 44 44 0 0 1 4 0 2 2 0 0 0 2 0 2 2 0 0 0 0-2 4 4 0 0 0-2-1 1 1 0 0 0-1 0c-1 1 0 3 2 3v-1h-2a1 1 0 0 1 1 1v-2l1-1c-13-2-23 8-25 20-1 1 1 3 2 2a14 14 0 0 1 17-1 2 2 0 0 0 2-1 34 34 0 0 1 0-11l4-8a1 1 0 0 0-1-1zM25 92l3 3a33 33 0 0 0 5 2c2 0 3-3 1-4l-6-2c-1 0-3-1-3 1zM40 96l4 1c2 0 2-3 0-3l-4 1a1 1 0 0 0 0 1zM141 93c-1-2-4-3-6-2-2 0-2 2 0 3h3a5 5 0 0 0 3 0 1 1 0 0 0 0-1zM118 93h5a2 2 0 0 0 1-3 8 8 0 0 0-7 2l1 1zM31 114c4-1 7-5 8-9a1 1 0 0 0-2 0 15 15 0 0 1-3 4 47 47 0 0 1-3 4 1 1 0 0 0 0 1z"/><path class="cls-11" d="M36 109a17 17 0 0 0 1 3 8 8 0 0 0 1 2 3 3 0 0 0 1 1 1 1 0 0 0 1-1 3 3 0 0 0 0-1 10 10 0 0 0 0-2l-2-3a1 1 0 0 0-2 1zM143 104l-1 13a132 132 0 0 1-3 13 112 112 0 0 1-4 13l-4 13c-1 1 0 1 1 1l6-12a113 113 0 0 0 4-14 99 99 0 0 0 2-13v-14a1 1 0 0 0-1 0zM118 160a14 14 0 0 1 1 11l-1 2-2-3-1-5a1 1 0 0 0-2 0 14 14 0 0 0 2 9c1 3 3 3 5 1 4-4 3-12-1-17-1 0-2 1-1 2z"/><path class="cls-11" d="M107 170c0 5 5 9 10 7 2 0 1-3-1-2-3 1-7-1-8-5h-1z"/><path class="cls-11" d="M121 172c0 4 0 8-2 11l-2 1v-3-5a1 1 0 0 0-2-1c-2 3-3 14 3 12s5-10 4-15h-1z"/><path class="cls-11" d="M110 176a10 10 0 0 0 0 8c1 2 3 4 6 2 1 0 0-3-1-2-2 1-3-2-3-3a14 14 0 0 1 0-5 1 1 0 0 0-2 0z"/><path class="cls-11" d="M120 184c0 3-1 8-4 10h-1a11 11 0 0 1 0-4 44 44 0 0 1 2-5 1 1 0 0 0-2-1c-2 3-6 14 1 13 5 0 7-9 6-13 0-2-2-1-2 0z"/><path class="cls-11" d="M110 183c-3 1-2 5-2 8 1 2 3 7 6 5a1 1 0 0 0 1-1l-2-1a5 5 0 0 1-3-3c0-2-1-5 1-7l-1-1z"/><path class="cls-11" d="M109 193a5 5 0 0 0 5 6c2 0 7-3 4-5a1 1 0 0 0-1 0c-1 1-1 3-3 3a3 3 0 0 1-4-3 1 1 0 0 0-1-1z"/><path class="cls-11" d="M109 195c-5 3-6 10-6 15a1 1 0 0 0 2 0l5-5-1-1v5a1 1 0 0 0 1 1c2 0 3-2 4-3l-2-1a15 15 0 0 1-1 4 1 1 0 0 0 2 1c3-1 4-4 5-7 0-3 1-7-1-9a1 1 0 0 0-2 1c1 4 1 11-3 13l2 2a18 18 0 0 0 0-5c0-1-1-2-2-1l-2 3h1v-4a1 1 0 0 0-2-1l-6 6 3 1c-1-6 1-10 4-14l-1-1zM120 154c2 2 5 2 8 3l8 2h2l-2 2-2 4a41 41 0 0 0-4 8 1 1 0 0 0 1 0c3-2 5-6 7-9 1-1 4-4 2-6s-6-3-8-3l-11-2a1 1 0 0 0-1 1zM53 160l-12 12a1 1 0 0 0 0 2c5 2 8 7 12 8 1 1 2 0 1-1l-5-5-6-5v3c4-4 9-8 11-13a1 1 0 0 0-1-1zM81 177l6 8a1 1 0 0 0 3 0l4-8c0-2-2-3-3-1l-4 7h3c-2-2-5-6-8-7l-1 1z"/><path class="cls-11" d="M74 175c0 6 4 12 6 17a1 1 0 0 0 2 0l7-7c1-1 0-3-1-2l-8 7h2l-3-8-3-7a1 1 0 0 0-2 0z"/><path class="cls-11" d="M88 186l6 5c1 1 3 2 4 0l1-4v-5-10a1 1 0 0 0-2 0v9l-2 9 1-1-4-3a7 7 0 0 0-4-2v2zM88 194c-1 0-2-1-1-2s2 0 2 1v1l-2-1a1 1 0 0 0-1 1 2 2 0 0 0 1 2 3 3 0 0 0 3 1 4 4 0 0 0 1-6c-1-2-4-2-5 0-2 1-1 4 1 4l1-1zM129 173c-2 4-1 9-1 13v13a1 1 0 0 0 2 0l1-13v-13a1 1 0 0 0-2 0zM52 181l3 12 4 12h2a59 59 0 0 0-3-13l-4-12a1 1 0 0 0-2 1zM138 199l4-9 3-9a396 396 0 0 0 16-58 1 1 0 0 0-1 0l-11 38-6 18-3 9-3 10a1 1 0 0 0 1 1zM148 202c5-10 11-21 13-32a1 1 0 0 0-2 0l-13 31c0 1 1 2 2 1zM11 131l16 39c5 13 9 27 15 40l2-1-14-40a397 397 0 0 0-19-38zM17 173a299 299 0 0 0 16 37h2a732 732 0 0 1-18-37zM36 179l6 14 4 13a1 1 0 0 0 2-1c0-5-2-9-4-14a95 95 0 0 0-6-13l-2 1zM141 204l5-12 6-13a1 1 0 0 0-1 0 95 95 0 0 0-7 12l-5 13h2zM156 212zM1 190a229 229 0 0 1 17 23 1 1 0 0 0 1-1 134 134 0 0 0-16-23c-1-1-3 0-2 1zM154 2a29 29 0 0 1 4 15c0 5-2 10-4 15-1 1 0 2 1 1 8-9 7-23 1-32a1 1 0 0 0-2 1z"/><path class="cls-11" d="M163 6a25 25 0 0 1 1 12l-4 10c-1 1 1 2 2 1 3-3 4-8 4-11a23 23 0 0 0-2-13c0-1-2 0-1 1zM14 10A26 26 0 0 0 3 23a46 46 0 0 0-3 22h2c1-7 1-13 3-19s5-11 10-14a1 1 0 0 0-1-2z"/><path class="cls-11" d="M6 34c-1 5-2 11 1 16l1-1-1-7a27 27 0 0 1 1-8 1 1 0 0 0-2 0zM128 109l9 2 7 1a1 1 0 0 0 0-2l-7-1-9-1v1zM127 114a65 65 0 0 1 8 2l6 2a1 1 0 0 0 1-2c-4-4-10-4-15-5v3zM26 123a66 66 0 0 0 13-6l-1-2a67 67 0 0 0-13 7l1 1zM28 128c5-1 11-3 15-7 1 0 0-2-1-1l-7 3a75 75 0 0 1-7 4 1 1 0 0 0 0 1zM88 100c-1 9 3 21 12 25 1 0 2-1 1-2-3-3-6-5-9-10a26 26 0 0 1-2-13 1 1 0 0 0-1 0zM117 110a38 38 0 0 1-3 21c4-6 5-14 3-21zM54 113c-2 7-4 15-3 22h2v-11a65 65 0 0 1 2-10 1 1 0 0 0-1-1zM48 114a21 21 0 0 0-3 11c0 4 0 9 3 12a1 1 0 0 0 1-1l-2-11 2-11h-1z"/></g></g></svg>