<svg xmlns="http://www.w3.org/2000/svg" viewBox="0 0 183 184"><defs><style>.cls-1{fill:#ffe9a1}.cls-4{fill:#67a3c1}.cls-6{fill:#ff9db5}.cls-7{fill:#2389af}.cls-8{fill:#e8fbe8}.cls-9{fill:#bbac77}.cls-10{fill:#57423d}.cls-11{fill:#8fb9d1}</style></defs><g id="Layer_2" data-name="Layer 2"><g id="圖"><path class="cls-1" d="M44 92s-12-3-13 5 1 14 6 14a58 58 0 0 0 11 0s14 12 19 14 24 6 29 2 20-13 23-19 5-27 4-31l-2-21s-9-7-17-8a60 60 0 0 0-51 21c-5 6-9 23-9 23z"/><path d="M25 57s-6 13 4 15c0 0 4 17 16 18 0 0 6-15 10-21s15-13 22-15 24-6 33-3 16 8 20-2 1-13-3-17-12-9-20-11-82 36-82 36z" fill="#ae857b"/><path d="M35 11s3-5 7-7 7-2 12 1c0 0 14-5 23-2s17 0 21 10 9 9 5 16-3 10-12 12l-31 6s-1 9-8 12-11 4-17 2-12-4-14-11 0-21 4-25l10-14z" fill="#b4e7fb"/><path class="cls-1" d="M86 150s1-7 8-9a51 51 0 0 1 14 0v8s6 4 8 8 2 5-1 8-6 5-10 5-10-5-11-6l-5-5zM144 153s4-4 8-3 6-1 6 4 2 8-2 8-8 5-11 3a15 15 0 0 1-5-6z"/><path class="cls-4" d="M60 122s18 7 26 5l19-7 10-8 10 11-19 16s-13 2-16 5a14 14 0 0 0-4 6s4 4 3 6l-1 16-29-1-2-9-3-4s-6-1-7-5-2-6 0-11l9-16z"/><path d="M106 139s28-26 34-25 39 26 39 26l-21 12-6-2-8 3-3 10-7 16-45-3v-17s4 9 12 9a34 34 0 0 0 14-3s4-6 3-8l-4-6-6-2s-4-10-2-10z" fill="#d7f3fd"/><path class="cls-6" d="M76 116h6c2-1 1-3 0-3l-3 1h-3a1 1 0 0 0 0 2zM56 108a5 5 0 0 1 1 0c-1 0 0 0 0 0a2 2 0 0 0 1 1h-1 1a1 1 0 0 0 1 0 1 1 0 0 0 0-1 2 2 0 0 0 0-1 3 3 0 0 0-1-1 3 3 0 0 0-3 0 1 1 0 0 0 0 1 1 1 0 0 0 1 1zM60 107a16 16 0 0 1 2 2 1 1 0 0 0 3-2 4 4 0 0 0-4-2 1 1 0 0 0-2 1 1 1 0 0 0 1 1zM111 96h1a3 3 0 0 0 1 1 1 1 0 0 0 2 0 1 1 0 0 0 0-2 4 4 0 0 0-1-1h-1a1 1 0 0 0-2 0 1 1 0 0 0 0 2zM115 91a31 31 0 0 0 2 3l3 1a1 1 0 0 0 0-1c1-1 0-2-1-3l-3-2c-1-1-2 1-1 2z"/><path class="cls-7" d="M124 71c7-2 14-6 20-10 2-1 2-3 1-4-3-3-8-2-11 0a101 101 0 0 0-13 10c-2 1 1 4 3 3a95 95 0 0 0 9-6c2-1 6-5 8-3l1-5c-7 4-14 7-19 13a1 1 0 0 0 1 2z"/><path class="cls-8" d="M146 59c5-4 10-8 15-6 5 1 10 2 14-1 2-2-1-6-4-4-2 1-4-1-6-2a12 12 0 0 0-9 0c-5 2-8 6-11 11-1 1 0 2 1 2z"/><path class="cls-8" d="M173 55c-4-1-9-4-13 0s-7 6-12 6l2 2a2 2 0 0 1 1-4l-3-2a7 7 0 0 0 4 6c2 1 6 1 6-1a2 2 0 0 0-1-2c-1-1-4-1-4-3s-2-3-4-3a7 7 0 0 0-5 8 6 6 0 0 0 2 4h5a21 21 0 0 0 11-4 24 24 0 0 0 2-2l3-1a16 16 0 0 0 7 0c2 0 1-3 0-4z"/><path class="cls-8" d="M152 53a14 14 0 0 0 0 4 7 7 0 0 0 0 3 1 1 0 0 0 2 0 7 7 0 0 0 0-3 14 14 0 0 0 0-4 1 1 0 0 0-2 0zM144 58c-1 1 0 4 1 5s3 3 4 2a1 1 0 0 0 1-1l-4-2-1-4a1 1 0 0 0-1 0zM162 53a9 9 0 0 0 12-3c0-2-1-3-2-1a7 7 0 0 1-9 2l-1 1zM171 55a9 9 0 0 0 1 1 8 8 0 0 0 1 1 1 1 0 0 0 2-1 7 7 0 0 0-1-1 9 9 0 0 0-1-1 1 1 0 0 0-2 1z"/><path class="cls-4" d="M21 42c-3 8 6 15 12 18 9 5 17-1 23-8 2-3 5-7 6-11 1-3 2-9-2-10-3-1-6 5-7 7a40 40 0 0 1-7 10 29 29 0 0 1-5 4c-2 2-4 3-7 2-5-2-10-5-10-11 0-2-2-2-3-1z"/><path class="cls-4" d="M63 44l15-2 14-4a21 21 0 0 0 9-9c1-3 2-7 0-10s-4-1-5 2c-1 4-2 7-7 8l-13 5c-5 2-10 3-14 6a2 2 0 0 0 1 4zM37 12c2 3 6 4 9 4s8-2 8-6c1-4-3-2-5-1a11 11 0 0 1-10 1 1 1 0 0 0-2 2z"/><path class="cls-4" d="M39 17c1 3 4 5 7 5 4 0 8-3 9-7 2-3-1-6-4-3l-4 5a4 4 0 0 1-7-1l-1 1z"/><path class="cls-7" d="M60 166c3 3 6 4 10 5a40 40 0 0 0 13 2c7 0 8-10 2-12-4-2-9-2-13-2s-8 0-11 2a3 3 0 0 0-1 5z"/><path class="cls-7" d="M49 138c-4 2-4 7-3 10 1 4 4 7 8 8 4 2 9 2 14 2a43 43 0 0 1 8 1l8 2c5 2 8-5 3-8l-15-3H56c-2-1-4-1-5-3v-7a2 2 0 0 0-2-2zM72 129c0 6 8 12 14 12 7 1 15-3 15-11l-5 4 8 2c2-1 5-3 5-6 0-2-3-4-5-2s-3 1-4-1c-2-2-6-1-7 1-2 4-4 6-8 5-5 0-8-4-12-5a1 1 0 0 0-1 1z"/><path class="cls-7" d="M60 127c2 3 8 5 12 6a4 4 0 0 0 5-2 4 4 0 0 0 0-2 4 4 0 0 0-3-5c-3-1-10-2-13-1a2 2 0 0 0-1 4zM113 123a9 9 0 0 0 3-1h1l1-1a14 14 0 0 0 2-1 4 4 0 0 0-5-7l-5 7a3 3 0 0 0 3 3z"/><path class="cls-9" d="M48 93c-4 8 2 19 8 24 7 7 17 10 26 9a46 46 0 0 0 26-9 36 36 0 0 0 9-11c2-4 5-9 3-13a1 1 0 0 0-1 0 44 44 0 0 0-2 5 35 35 0 0 1-4 5 43 43 0 0 1-8 9c-6 4-14 8-22 8s-16-2-22-7a27 27 0 0 1-7-8l-3-11-3-1z"/><path class="cls-9" d="M32 100c-1 3 2 8 5 9s10 3 11-2a1 1 0 0 0-1-1l-8-1c-3 0-4-3-6-5a1 1 0 0 0-1 0z"/><path class="cls-10" d="M25 60c6 7 16 9 24 6a27 27 0 0 0 10-6 28 28 0 0 0 4-4c2-3 2-4 5-5l17-3c5-1 9-1 13-4a21 21 0 0 0 8-8c1-4 4-9 3-13a2 2 0 0 0-4-1l-4 11a15 15 0 0 1-7 8l-14 3-14 2c-4 1-6 4-8 7a23 23 0 0 1-8 7c-8 4-17 2-24-1l-1 1zM33 73c-3 1 1 7 2 9a26 26 0 0 0 9 10c2 1 4 0 4-2l-3-9c-1-2 0-6-2-8a1 1 0 0 0-2 0c-2 2-1 6-1 9 1 4 2 8 4 10l2-5a21 21 0 0 1-9-8c-1-1-3-7-4-6z"/><path class="cls-9" d="M48 89c1 2 3 2 5 1 3-1 2-5 3-8 1-7 6-14 13-17 7-4 15-6 23-7a74 74 0 0 1 12-1 44 44 0 0 1 13 2c3 1 5-3 2-5-7-4-16-4-24-3s-15 3-23 6c-6 2-13 7-17 13a26 26 0 0 0-4 9 25 25 0 0 0-1 5s1 4-1 4a1 1 0 0 0-1 1zM91 158c-2 6 6 10 11 12a14 14 0 0 0 10 0c3-1 5-4 4-7a3 3 0 0 0-3-2 15 15 0 0 0-4 1l-6-1a46 46 0 0 1-9-4 2 2 0 0 0-3 1zM141 159c3 5 12 8 18 4 3-3 1-8-4-7l-6 1-3 1a14 14 0 0 1-4-1 1 1 0 0 0-1 2z"/><path class="cls-11" d="M97 72c3-1 6-2 9 0a7 7 0 0 1 3 8 2 2 0 0 0 2 3c8-1 3-11 0-14-5-3-12-3-15 2l1 1zM66 81c6 1 9 5 7 10-1 2 3 3 4 1 3-7-3-15-11-13v2z"/><path d="M37 12c2-3 3-6 6-8 3-1 9-2 10 2s-4 8-7 9c-2 0-4 1-6-1-1-1-2-3-1-5l-1-1c-5 4-2 10 3 11 6 1 14-4 15-10S52-1 46 0c-5 1-10 6-10 12a1 1 0 0 0 1 0z"/><path d="M34 11c-6 5-10 13-13 21-2 7-4 16 1 22 3 5 9 8 15 9a22 22 0 0 0 19-6 25 25 0 0 0 7-23h-2c-1 8-4 16-10 21a18 18 0 0 1-21 3c-8-5-9-13-7-22s7-17 13-24a1 1 0 0 0-2-1z"/><path d="M57 6a96 96 0 0 1 15-1 49 49 0 0 1 15 2c8 3 17 12 13 21-3 8-12 11-19 13l-13 2c-4 1-8 3-11 6a1 1 0 0 0 1 2l12-3 12-3c7-1 14-4 19-9a18 18 0 0 0 3-20C100 8 93 4 85 2a49 49 0 0 0-15-1 44 44 0 0 0-7 1 33 33 0 0 0-7 3l1 1z"/><path d="M24 57c-1 4-3 9-1 13a7 7 0 0 0 8 4l-2-2a20 20 0 0 0 6 15c3 3 10 8 14 5 2-2 2-5 2-7a35 35 0 0 1 3-9 42 42 0 0 1 12-15c12-8 26-10 40-8a71 71 0 0 1 10 2c3 1 6 2 9 1 5-3 7-9 7-14-2-15-16-22-29-24-3-1-4 3-2 4 11 2 24 6 26 18a14 14 0 0 1 0 7 11 11 0 0 1-2 4c-2 2-4 1-6 1a92 92 0 0 0-16-4c-21-2-44 7-53 28a37 37 0 0 0-2 8c0 2 0 5-3 4a11 11 0 0 1-4-1 17 17 0 0 1-9-15 2 2 0 0 0-2-2c-3 1-5-1-5-4l1-8-2-1z"/><path d="M119 57l1 17 1 17a39 39 0 0 1-12 24 37 37 0 0 1-25 10c-10 0-19-4-27-10a32 32 0 0 1-8-10c-2-4-2-8-3-13h-2c-3 8 1 18 7 24 7 7 16 13 26 14a42 42 0 0 0 47-32c2-6 1-13 0-20l-1-11-1-11a1 1 0 0 0-3 1z"/><path d="M60 95v-8c0-4 1-7 4-9 5-3 14 0 17 6 2 6-1 13-7 15s-12-4-13-9a2 2 0 0 0-3 0c-1 7 4 12 11 14s13-3 15-9a15 15 0 0 0-4-18c-5-4-13-5-19-1-3 2-4 5-4 9-1 3-1 8 2 10a1 1 0 0 0 1 0z"/><path d="M79 86l11-3a2 2 0 0 0 1-2 12 12 0 0 1 11-15c7 0 12 5 12 12s-5 12-11 12c-7 0-11-5-13-11-1-1-2-2-3 0-1 6 5 12 11 14 6 3 13 0 17-6 9-12-3-29-17-24a15 15 0 0 0-10 19l2-3c-4 1-10 2-12 5a1 1 0 0 0 1 2zM66 87c1 2 1 5 3 6a1 1 0 0 0 1 0c1-2 0-5-1-7s-3 0-3 1z"/><path d="M98 76c-2 2-2 8 2 9a1 1 0 0 0 1-1l-1-4a8 8 0 0 1 0-3 1 1 0 0 0-2-1zM114 77a15 15 0 0 0 7 1c2 0 5 0 6-2a2 2 0 0 0-1-2l-5-1-7 2a1 1 0 0 0 0 2zM56 91l-11-1c-4 0-7-1-10 1-5 2-7 9-6 14a12 12 0 0 0 11 9c4 0 10-2 10-7a1 1 0 0 0-1-1c-3 2-6 4-9 4-4-1-7-4-7-8a9 9 0 0 1 2-5c1-3 4-3 7-3l14-1a1 1 0 0 0 0-2zM102 102c-3 5-7 8-13 8H79c-3 0-5 0-7 2-3 3 1 7 5 8s10-2 10-7a2 2 0 0 0-2-1c-2 0-3 2-4 3h-5l2-1h7a38 38 0 0 0 6 0c6-1 14-5 13-12a1 1 0 0 0-2 0zM60 122a32 32 0 0 0-13 13c-3 5-5 11-3 16 1 6 8 8 13 9 6 1 14 1 19-3v-1H60c-5-1-12-1-13-7-1-10 7-19 14-26l-1-1z"/><path d="M68 142c6 3 13 7 18 13 1 1 1 3-1 4l-6-1c-3-1-8-3-10-1a1 1 0 0 0-1 3l8 2 8 2c4 1 9-4 8-8 0-5-6-8-9-11-4-2-10-5-15-5v2z"/><path d="M87 149c4-3 7-6 11-7a19 19 0 0 1 7 0c1 0 2 0 2 2l-2 4c-1 1 0 3 1 3 4 0 9 4 10 7 1 5-5 7-9 8-8 2-12-8-20-7-1 0-2 1-1 2l7 4 7 5c5 2 11 0 16-3 4-3 6-7 3-12-3-4-8-8-13-8l1 4c3-3 5-6 4-9-1-4-5-4-8-4-7-1-14 3-17 9a1 1 0 0 0 1 2zM141 161l6-8c3-3 6-2 9 2 4 8-11 5-14 7a1 1 0 0 0 0 2c2 2 5 2 7 2a20 20 0 0 0 8-1c5-2 5-8 3-12-3-4-7-7-12-5s-8 8-9 12a1 1 0 0 0 2 1z"/><path d="M108 139l16-12 9-5c2-2 6-5 9-5l4 3 5 3 10 6c6 3 13 6 17 12l1-4-20 12c-2 2 0 4 1 4 8-3 15-7 21-11a3 3 0 0 0 1-4c-4-6-11-9-17-13l-12-7c-3-2-7-5-11-6-3-1-6 2-9 3l-10 7a74 74 0 0 0-16 16c-1 1 0 2 1 1zM90 161l-2 7c-1 2-2 5-1 7s2 3 4 3a59 59 0 0 0 8 2c12 1 24 1 35 4a3 3 0 0 0 4-3 56 56 0 0 1 2-9c2-3 4-6 4-9 1-2-2-4-4-2l-5 9a60 60 0 0 0-4 10l4-3c-9-2-19-1-29-1a52 52 0 0 1-14-1c-2-1-2-1-2-3l1-4a43 43 0 0 0 1-7 1 1 0 0 0-2 0zM122 67c4-1 7-5 10-7a29 29 0 0 1 12-5l-2-1c0 3 1 7-1 9l-8 3c-3 1-12 2-12 7a1 1 0 0 0 1 1l3-1a35 35 0 0 1 6-2 72 72 0 0 0 10-3c6-3 5-9 4-15a2 2 0 0 0-2-1c-8 1-17 6-21 14v1z"/><path d="M145 55c3-5 9-11 16-10l8 4a7 7 0 0 0 3 0c1 0 3-2 4 0 0 3-9 3-11 3l-4 1-2-2c-5-1-7 4-5 7a1 1 0 0 0 1 1h4a12 12 0 0 0 2-2 7 7 0 0 1 4-2h4a20 20 0 0 1 4-1c2 1 5 3 1 4h-5c-4-1-6 3-10 6s-10 4-14 0c-2-2-3 0-2 2 4 4 10 4 15 2a19 19 0 0 0 4-3l4-4c3-2 6 1 10-1 3-2 3-7-2-8a53 53 0 0 0-10 1 9 9 0 0 0-4 1c-2 2-2 3-5 3l1 1c0-2-1-5 3-3v1a3 3 0 0 0 3 0l12-2c2-1 4-1 5-4 0-2-1-5-3-5h-4c-2 1-4 0-6-1-3-2-5-3-9-2-7 1-10 7-13 12-1 1 0 2 1 1zM131 57c-3 4-2 12 2 14a1 1 0 0 0 2 0l-2-7a48 48 0 0 1 1-6 1 1 0 0 0-3-1zM117 113c1 4 5 8 9 10a2 2 0 0 0 2 0 2 2 0 0 0 0-1 2 2 0 0 0 0-2c-4-2-7-5-9-8-1-1-3-1-2 1zM74 129c1 6 7 9 12 8 4 0 11-5 10-10a1 1 0 0 0-2-1c-3 3-4 6-8 7-4 2-7-1-10-4h-2z"/><path d="M96 128c3 3 9 4 13 1 3-2 4-8 3-12a1 1 0 0 0-2 0c-3 2 0 6-3 9-2 3-7 1-11 1v1zM54 160a17 17 0 0 1 2 5v5c0 2 4 4 5 1 2-4 0-10-3-13-2-2-5 0-4 2z"/><path d="M10 80c-14 16-12 41-3 59 10 19 27 32 48 38a83 83 0 0 0 26 3c4 0 7 0 10-3a4 4 0 0 0-1-7l-7-1-7 1a81 81 0 0 1-14-2 73 73 0 0 1-26-10 66 66 0 0 1-28-44c-2-11-1-23 5-32 0-1-2-3-3-2zM111 46l4 4 4 4 2-2-4-5a21 21 0 0 0-5-3c-1 0-2 1-1 2zM88 64l8-4a30 30 0 0 1 10 0 1 1 0 0 0 0-2 14 14 0 0 0-10-1c-3 1-7 2-9 5l1 2zM62 68h8l8 2a1 1 0 0 0 1-2c-4-5-13-4-18-1 0 0 0 2 1 1zM135 126a132 132 0 0 0 12 8c4 2 8 5 13 6l1-2-12-7-12-7a1 1 0 0 0-2 2zM127 130l19 8v-1c-5-4-12-6-18-9-1-1-3 1-1 2zM122 138c7 3 14 7 22 9a1 1 0 0 0 0-2c-6-4-13-6-20-9-2-1-3 2-2 2zM117 149l19 6 1-1c-5-5-13-6-20-7-1 0-2 2 0 2zM122 161c4 1 7 3 11 3a1 1 0 0 0 1-1c-3-3-7-4-11-4-2-1-3 2-1 2zM43 70c-2 4-1 8 0 12 1 3 4 8 7 8a1 1 0 0 0 1-1l-1-4a21 21 0 0 1-3-5l-2-10a1 1 0 0 0-2 0z"/></g></g></svg>