<svg xmlns="http://www.w3.org/2000/svg" viewBox="0 0 201 205"><defs><style>.cls-1{fill:#fff}.cls-2{fill:#f54782}.cls-3{fill:#221714}.cls-4{fill:#7f58bd}.cls-5{fill:#cbccc7}.cls-6{fill:#ffe9a1}.cls-8{fill:#453862}.cls-9{fill:#ae857b}.cls-10{fill:#f3e727}.cls-11{fill:#bbac77}.cls-12{fill:#b6c3cb}.cls-13{fill:#57423d}.cls-15{fill:#8e8129}.cls-16{fill:#48421e}.cls-17{fill:#d0caa0}</style></defs><g id="Layer_2" data-name="Layer 2"><g id="圖"><path class="cls-1" d="M17 9s95-13 106-8c0 0 14 90 6 95s-108 8-109 8l-2-61h4l-4-1-1-18 5-1h-5V9"/><path class="cls-2" d="M59 39l11-16 3-3a6 6 0 0 1 4 1c6 2 11 7 16 13a47 47 0 0 1 4 4 23 23 0 0 1 2 22 1 1 0 0 1-1 0h-1c-11 0-16 0-25-2a13 13 0 0 1-2-1v-3c-1-6-4-9-11-15"/><path class="cls-3" d="M59 40c7 4 11 10 10 18a1 1 0 0 0 1 1c9 1 19 0 28 2a1 1 0 0 0 1 0c3-6 2-12 0-18-2-7-7-14-13-19-3-3-12-8-16-3-5 5-8 12-12 18h1l7-9 3-6c1-2 3-4 6-4 4 1 9 4 12 7 3 4 6 7 8 12a33 33 0 0 1 4 11 20 20 0 0 1 0 5 10 10 0 0 1-1 3l-2 1c-9-1-17 0-26-2l1 1c1-8-4-17-12-19v1z"/><path class="cls-2" d="M73 88l-9-14c-7 4-10 5-16 4l-2-1a11 11 0 0 0-2 2c-4 6-6 10-9 19l-1 1a1 1 0 0 0 0 1 20 20 0 0 0 7 4h13l4-1c6-1 12-4 15-8a5 5 0 0 0 2-3 6 6 0 0 0-2-4z"/><path class="cls-3" d="M76 89L65 74h-1c-6 4-12 6-18 2a1 1 0 0 0-1 1c-5 7-7 15-12 22a15 15 0 0 0 7 5 2 2 0 0 1 2 0l2-1h-2a17 17 0 0 1-4-2 8 8 0 0 1-2-1v-3l10-19c5 3 14 2 18-3a66 66 0 0 0 6 8l3 4c1 2 2 4 1 6-2 4-6 6-9 8l-7 2h5l4-2c4-2 11-7 9-12z"/><path class="cls-2" d="M14 58h19a2 2 0 0 0 2-1 2 2 0 0 0 1-2 23 23 0 0 1 10-17l-6-18a12 12 0 0 0-1-2c-1-1-1 0-2 1-9 1-18 8-19 17a40 40 0 0 0-1 8 92 92 0 0 0 1 15"/><path class="cls-3" d="M34 60c-1-6 2-13 6-17l4-3c2-2 0-6-1-8l-3-12 1-1 4 13c1 2 3 6 1 8l-4 3a21 21 0 0 0-4 5l-3 12h-1z"/><path class="cls-3" d="M16 58l18-1v2H17l-1-1zM18 33c2-7 9-12 16-14v1a22 22 0 0 0-9 5c-3 2-5 5-6 8h-1z"/><path class="cls-4" d="M84 66s0-58 57-40c0 0 7-8 18 3s18 28 16 40c-6 24-9 20-9 20l-18 14-6-3s10-16 7-25l-12-8-2-19s-8 9-8 19z"/><path class="cls-4" d="M92 66s6 8 1 27l-7-3s7-15 6-24"/><path class="cls-5" d="M101 109l-22-9-2 20 17 10 5 6 1-5 19 1 6 9 40-1-6-12 18-17-13-22-16 15s-4 10-21 12-23-4-26-7"/><path class="cls-6" d="M171 81s3-15 7-15 5 16 4 19c0 0 10 5 3 15s-8 6-8 6l-10-13-2-2s3-2 6-10M79 100s-3-8-6-8-4 8-4 8-7-2-9 1-1 5 1 6a9 9 0 0 1 3 1v6s2 7 7 6 5-1 6-3l2-17M127 65s4-19 7-18 3 20 3 20l12 9-2 14s-4 9-5 10 5 3 5 3l-3 7s-11 7-22 8-16-5-21-9-8-9-8-16 3-24 0-26 34-2 34-2"/><path d="M109 97l20 3c5 0-5 13-10 10 0 0-5 1-8-5 4-3 3-6-2-8" fill="#d9706f"/><path class="cls-8" d="M146 102c8-3 11-12 11-20-1-2-2-5-5-5a5 5 0 0 0-5 5l-3 18 2 2M91 91a58 58 0 0 0 3-22h-2a26 26 0 0 1-3 16c-1 2-2 6 1 7a1 1 0 0 0 1 0 15 15 0 0 0 2-9 1 1 0 0 0-1 0 18 18 0 0 1-3 8h2c-2-2 0-5 1-6a27 27 0 0 0 1-5 27 27 0 0 0 1-11c0-2-2-1-2 0a63 63 0 0 1-3 21c0 2 2 2 2 1"/><path class="cls-8" d="M155 44l2 14 1 11a90 90 0 0 1-1 12v5l1 3a3 3 0 0 1-1 3l3 1a45 45 0 0 1 6-11l-2-1v4a1 1 0 0 0 3 1l3-9-2-1a19 19 0 0 1-3 10l3 1 3-13 2-12a1 1 0 0 0-1 0l-4 12-3 12c0 2 2 3 3 1a22 22 0 0 0 2-11 1 1 0 0 0-2 0l-4 9h3l-1-4h-2a68 68 0 0 0-7 11 1 1 0 0 0 3 1l3-3 3-5-1 2c2-3 2-7 2-11a39 39 0 0 0-2-11l-4-10-4-12-2 1"/><path class="cls-1" d="M95 68v19c0 5-1 11 1 16s6 8 11 10a39 39 0 0 0 7 3c3 1 5 2 8 1 2 0 2-3 1-4l-7-1a41 41 0 0 1-7-3c-4-2-9-4-10-9V84l-1-16a1 1 0 0 0-3 0M78 106a30 30 0 0 0 0 11 12 12 0 0 0 5 8 18 18 0 0 0 8 3c2 0 4 1 4 3 1 3 7 2 6-1a8 8 0 0 0 2 0 13 13 0 0 1 4 0l7 1a1 1 0 0 0 0-2c-1-2-3-2-5-3l-7-1c-3 0-6 0-7 4h6c0-3-2-5-4-6a69 69 0 0 0-6-4c-3-2-3-2-3-5-1-4-1-7-4-10-2-1-5 0-6 2M90 63a24 24 0 0 0 1-5l2-7a49 49 0 0 1 6-13c1-2-2-4-4-2a54 54 0 0 0-6 13c-1 4-3 10-1 14 0 1 1 2 2 0M114 119a4 4 0 0 0 0 2l2 1h-1a1 1 0 0 0 2 0 1 1 0 0 0 0-1 2 2 0 0 0 0-1v1l-1-1a2 2 0 0 1 0-1 1 1 0 0 0-2 0M124 121c0 7 3 15 7 21 1 1 3 0 2-1-4-7-6-13-8-20a1 1 0 0 0-1 0M129 124v3a1 1 0 0 0 2 0v-3a1 1 0 0 0-2 0M133 132l-1 1a2 2 0 0 0 0 2 2 2 0 0 0 2 0 4 4 0 0 0 1-4c-1-2-3-1-2 1"/><path class="cls-2" d="M54 74c-4 1-8-3-9-7a19 19 0 0 1-3-8c0-3 0-6 2-8 2-1 5-4 8-3l6 2c5 2 7 11 6 16a11 11 0 0 1-14 7M88 14l4-2 4 2v-1a5 5 0 0 0-1 1 8 8 0 0 0-2 2 8 8 0 0 0-1 5l3-1c-1-3 4-7 0-10h-4l-2 1-1 1c0-1-2 1-1 2a2 2 0 0 0 2 1 4 4 0 0 0 1-1 5 5 0 0 1 2-1l1 1a21 21 0 0 1-1 3 8 8 0 0 0 0 4 2 2 0 0 0 3 0 6 6 0 0 1 2-4l3-2c1-2-1-4-2-5-4-3-10-2-11 3a1 1 0 0 0 1 1M93 28a2 2 0 0 0 1 0v-1s0-1 0 0l-1-1v1c0 1 0 0 0 0l1-1a1 1 0 0 1 0 1h1a1 1 0 0 0 0-2h-3a2 2 0 0 0 0 3 2 2 0 0 0 4-2 2 2 0 0 0-2-2 2 2 0 0 0-2 1 3 3 0 0 0 0 3 2 2 0 0 0 0 1 1 1 0 0 0 1-1"/><path class="cls-9" d="M53 64l3 9 2 9 5 17c1 2 4 1 3-1l-5-18-2-9c-1-2-3-6-5-7a1 1 0 0 0-1 0M67 109a34 34 0 0 0 1 5c0 2 3 1 2-1a34 34 0 0 0-1-5c-1-1-2 0-2 1"/><path class="cls-10" d="M55 70l2-1-2-1-1 2a1 1 0 0 0 2 1 7 7 0 0 0 1-2 1 1 0 0 0-1-1l-2 1 1 1M57 77a5 5 0 0 0 1 0 2 2 0 0 0 1-1 1 1 0 0 0-1-2 2 2 0 0 0-1 0 3 3 0 0 0-1 2l1 1M100 143v-12l19 1 6 10-25 1z"/><path class="cls-11" d="M134 47l-8 19s-8-1-8 1c4 12 3 32 3 32l8 1s1 8-7 10c0 0 2 3-1 6 2 0 22-1 26-12l-5-4s9-16 7-25l-12-8z"/><path class="cls-8" d="M118 66s3-20-2-25c0 0 3-18-4-18s13-5 20-2 15 11 15 11l-6-8c1 0 11-1 16 4s18 25 18 41-10 21-10 21l-2-2-7 6 1-15-20-12-3-20-8 19z"/><path class="cls-11" d="M167 91l10-25s2-2 4 3c0 0 2 11 1 16 0 0 7 3 4 11s-6 10-9 10-10-15-10-15"/><path class="cls-12" d="M123 42a4 4 0 0 1 0-4c1-1 3-2 3 0l-2 3-1 1q-2 1 0 0a12 12 0 0 1-1-3c0-1 0-3 2-3a1 1 0 0 1 2 1 2 2 0 0 1-1 2h-2c0 2 0 2 1 1a4 4 0 0 1 1 0 5 5 0 0 1 2-1l-2-2-1 1a1 1 0 0 0 0 2 3 3 0 0 0 4 0 4 4 0 0 0 2-4 2 2 0 0 0-3-2c-3 0-7 2-8 5-2 4 3 6 6 5a8 8 0 0 0 6-7 6 6 0 0 0-7-7 7 7 0 0 0-6 7c-1 3 0 8 3 9s7-2 8-5c2-2 1-6-1-8-3-2-8 1-9 4-1 2 0 7 3 6a1 1 0 0 0 1-1M105 45a6 6 0 0 1-1-3 2 2 0 0 1 2-2l1 1v1h-2c-1-2 1-5 2-3a2 2 0 0 1 1 1l-1 1-2 1h3l-3-2a4 4 0 0 0 2 3 1 1 0 0 0 2-1 9 9 0 0 1 0-2 2 2 0 0 0-2-3c-2 0-3 0-4 2a5 5 0 0 0-1 4c1 3 5 3 8 2 4-3 3-11-3-11s-9 9-3 12a5 5 0 0 0 7-2c1-2 0-7-3-8a6 6 0 0 0-7 3 6 6 0 0 0 0 4c0 2 1 2 3 3a1 1 0 0 0 1-1"/><path class="cls-1" d="M60 105a13 13 0 0 0 6 2 2 2 0 0 0 3-3 2 2 0 0 0-3-2h-5c-2 0-2 2-1 3M64 109c-1 4-1 9 3 11 3 1 8-1 7-5 0-2-3-2-3 0s-2 2-3 1l-1-6c0-1-2-2-3-1"/><path class="cls-13" d="M97 144l77-5s2 20 0 24H97z"/><path class="cls-13" d="M99 161l1 43s2-15 15-5c0 0 2-8 5-5 0 0 5-12 16-3 0 0 4-6 6-1 0 0 7-12 16-5 0 0 1-5 5 1 0 0 6-19 9-10l2-13z"/><path class="cls-9" d="M97 144l30-2-11 14H96l1-12zM99 163v25c0 3 0 7 3 9h3c2-3 2-5 2-8l-1-9-2-9-2-8h-3"/><path class="cls-9" d="M120 145a36 36 0 0 0 11 1c2 0 6 0 8-2a1 1 0 0 0 0-1h-18l-1 2"/><path d="M121 141a9 9 0 0 0 0-2 23 23 0 0 1 0-3l-2 1 2 4c0 2 3 1 2 0l-2-5a1 1 0 0 0-2 0 22 22 0 0 0 0 3 5 5 0 0 0 0 3 1 1 0 0 0 2-1" fill="#a88f1f"/><path class="cls-9" d="M25 160l32 2 18-27-1-7-14-1v5l-7 14-52-1c2 0 22 4 21 9 0 0 8 4 3 6"/><path class="cls-13" d="M60 154v28l-4 5h-5v-29l9-4zM75 135l-2 34-5 3-3-2v-25l10-10z"/><path class="cls-13" d="M21 158c2 3 6 2 9 2a514 514 0 0 0 21 1c3 0 6 0 8-2 2-1 1-5-1-5H30c-3 0-7-1-9 2a2 2 0 0 0 0 2"/><path class="cls-13" d="M55 161c3-1 5-4 7-6a92 92 0 0 0 5-8l5-8a11 11 0 0 0 2-9 1 1 0 0 0-1 0l-3 2-2 3-5 8-5 9-4 7 1 2"/><path class="cls-15" d="M1 145s0-11 13-25l43-1-5 16v9z"/><path class="cls-16" d="M52 145s-3-6 5-25l2 10z"/><path class="cls-15" d="M21 119a13 13 0 0 1 8-1 19 19 0 0 1 5 1"/><path class="cls-17" d="M21 120h5a18 18 0 0 1 6 1c3 1 4-3 1-5a14 14 0 0 0-8-1l-5 4a1 1 0 0 0 1 1"/><path class="cls-17" d="M14 122l9 1h12l11 1h5l5-1a1 1 0 0 0 0-2H46l-12-1a106 106 0 0 0-11 0c-3 0-7-1-9 1v1"/><path class="cls-17" d="M57 121l-1 4 1 5c0 2 2 2 2 0v-5c0-2 0-4-2-5a1 1 0 0 0 0 1M59 128c1 2 5 2 7 2h8a1 1 0 0 0 0-2c-2-2-5-1-8-1-2 0-5-1-7 1"/><path class="cls-16" d="M4 144h45a4 4 0 0 0 0-8H4c-5 0-5 8 0 8"/><path class="cls-13" d="M53 145s-1 5 2 8c1 1-33 1-33 1s3-5-18-8z"/><path class="cls-1" d="M18 114v-1l1 1-4-8-5-9-7-20a1 1 0 0 0-2 0 123 123 0 0 0 11 30l3 4 3 4a1 1 0 0 0 1 0 1 1 0 0 0 0-1h-1M40 115l10-4 10-5c1-1 0-2-1-2l-10 4-9 5v2M14 15a28 28 0 0 0 6 0v-1a28 28 0 0 0-6 0v1M10 17h13l-13-1v1M15 20a48 48 0 0 0 6 0 47 47 0 0 0-6-1 1 1 0 0 0 0 1M10 30h11v-1a36 36 0 0 0-11 1M14 33a29 29 0 0 0 5 0 29 29 0 0 0-5-1 1 1 0 0 0 0 1M14 39a57 57 0 0 0 5 0l1-1h-6v1M5 53a45 45 0 0 0 16-1 55 55 0 0 0-8 0 58 58 0 0 0-8 0v1M14 50a44 44 0 0 0 6-1l-1-1a47 47 0 0 0-5 1v1M16 56a17 17 0 0 0 5-1v-1l-5 1v1M114 4h13V3l-13 1M120 7h11V6h-11a1 1 0 0 0 0 1M121 11h4a11 11 0 0 0 3 0v-1a11 11 0 0 0-3 0h-4v1M14 100a46 46 0 0 0 10 0 47 47 0 0 0-10 0M12 83h15v-1a78 78 0 0 0-15 0v1M14 80a37 37 0 0 0 7 0l-1-1a36 36 0 0 0-6 0v1M28 4a72 72 0 0 0 25-2 254 254 0 0 1-25 2M3 108c3 4 7 7 11 9 1 0 2 0 1-1l-6-5-5-4-1 1M45 117a35 35 0 0 0 6-1 232 232 0 0 0 6-2c-4 0-9 0-12 2v1M104 88c-1-5-3-12 3-15a5 5 0 0 1 3 0c2 1 2 2 2 4v9l1-1h-5l-5 1 1 2V78l-1 2 1 6 4-1a11 11 0 0 1-2-4 11 11 0 0 1 0-2v-1a130 130 0 0 0 0 7l3-1a11 11 0 0 1-1-4l1-4h-1c2 1 1 6 0 8l4 1a11 11 0 0 1 0-9h-3a17 17 0 0 1 0 6c-1 3 3 4 3 1a22 22 0 0 0 0-8 2 2 0 0 0-3-1 15 15 0 0 0-1 12c0 1 3 2 3 0a15 15 0 0 0 2-9c-1-2-2-5-4-5s-4 4-4 6a15 15 0 0 0 1 8c1 2 4 1 4-1s0-14-5-11c-2 1-2 3-2 5a14 14 0 0 0 2 8 2 2 0 0 0 3-1c0-3-1-12-6-10a2 2 0 0 0-1 2v10a2 2 0 0 0 2 1h10c2 0 3-2 3-4V75a6 6 0 0 0-4-5c-4-2-8 1-10 4-4 4-2 10 0 15a1 1 0 0 0 2-1zM124 87c1-4 0-10 5-13 4-2 7 2 7 6a19 19 0 0 1 0 5c-1 3-1 3-3 2l-9-2a2 2 0 0 0-1 1 5 5 0 0 0 0 1h3c-1-4 0-8 2-11h-3a16 16 0 0 1 1 10h3a30 30 0 0 1 0-7v-2 3l-1 3v2c-1 1-2 0-3-1l2 2a11 11 0 0 1 1-5l2-3v8h-2 2v1a20 20 0 0 1 0-4l2-4-1-1v9l2-1h-1 2l-3-2 1 2a9 9 0 0 1 0-5l1-3-1-1v8h2l-1-5a34 34 0 0 1 0-6l-3 1c2 4 3 7 0 11h4a48 48 0 0 1-1-5v-6l-1 1 1 4-1 5c0 2 3 2 3 1l2-7c-1-3-2-6-4-7-6-1-3 13-3 15s3 2 3 1c4-5 3-10 0-15a2 2 0 0 0-4 1 34 34 0 0 0 0 9l2 5a3 3 0 0 0 4-1l1-6-1-6a3 3 0 0 0-5 0 13 13 0 0 0-1 11 2 2 0 0 0 1 2l2 1 2-2a24 24 0 0 0 1-6l-1-5c-3-3-5 0-6 2a21 21 0 0 0-1 6l1 5a2 2 0 0 0 2 0v-1l-1 1h3a3 3 0 0 0 1-3 35 35 0 0 0 1-6l-1-4c-2-3-5-1-7 0a14 14 0 0 0-3 10 2 2 0 0 0 2 1l1 1a5 5 0 0 0 2 0 6 6 0 0 0 2-1c3-2 3-8 2-10 0-3-3-5-5-3l-1 5a31 31 0 0 0 0 7 2 2 0 0 0 3 0 19 19 0 0 0-1-11 2 2 0 0 0-2-1c-3 4-4 9-3 14 0 1 3 1 3-1l-2 1 1 1h1l5 1h6l1-3a12 12 0 0 0 1-2v-9c-2-5-7-7-12-4s-6 9-5 15a1 1 0 0 0 2 0z"/><path class="cls-5" d="M125 88a30 30 0 0 1 2-11c2-4 7-2 9 0 2 1 4-2 3-3-4-3-11-5-14-1-2 2-2 5-3 7a15 15 0 0 0 0 8 1 1 0 0 0 3 0zM104 88c0-4-2-10 1-13a5 5 0 0 1 4-1l4 1 2-1c-1-3-4-4-6-4a9 9 0 0 0-6 2c-5 4-3 12-1 16h2z"/><path class="cls-3" d="M84 65c1-8 3-15 7-22s9-12 16-16a40 40 0 0 1 22-4 21 21 0 0 1 17 13l2-1c2-6-5-11-10-14-6-2-13-2-20-1-14 2-25 11-31 23-3 7-6 15-4 22h1zM85 66l17 1 18 1c4 0 8 0 9-5a27 27 0 0 1 6-15h-3a106 106 0 0 1 2 11c0 3 0 6 2 9h1V57a81 81 0 0 0-2-10 2 2 0 0 0-2-1 29 29 0 0 0-6 11l-2 7c-2 2-6 1-8 1l-16-1-16 1v1zM92 67c4 13-5 28 4 40 9 10 25 14 38 10 6-3 14-7 16-14h-1l-9 7a32 32 0 0 1-11 5 31 31 0 0 1-24-5c-4-2-7-5-9-9s-2-8-2-12c1-7 2-15-1-22h-1z"/><path class="cls-3" d="M90 66c-1 6 0 13-3 19-1 2-4 4-2 6a19 19 0 0 0 4 3 9 9 0 0 0 5 2 1 1 0 0 0 0-1 8 8 0 0 0-3-3l-2-2-1-2 1-3a26 26 0 0 0 2-3c1-5 2-11 0-16a1 1 0 0 0-1 0zM103 88c-3-5-4-12 1-16a7 7 0 0 1 7-2l5 4a1 1 0 0 0 1-1c1-3-2-5-5-6a10 10 0 0 0-9 2c-7 5-6 14-1 20l1-1z"/><path class="cls-3" d="M112 77a15 15 0 0 0 0 5l1 5h1v-5-5a1 1 0 0 0-2 0zM123 88c1-6-2-12 5-16a8 8 0 0 1 7 0 10 10 0 0 1 3 3 2 2 0 0 0 2 1h1a1 1 0 0 0 0-2c-3-5-10-7-15-4-6 4-5 12-4 18h1z"/><path class="cls-3" d="M135 79a39 39 0 0 1-1 7v4a1 1 0 0 0 1 1c2-1 2-3 2-5a14 14 0 0 0 0-7 1 1 0 0 0-2 0zM109 98c6 3 13 3 20 3l-1-1c1 5-3 8-7 9a9 9 0 0 1-5-1l-5-2c0 2 2 4 4 5a10 10 0 0 0 7 0c6-1 10-6 8-12a1 1 0 0 0-1-1 76 76 0 0 1-9 0l-11-2a1 1 0 0 0 0 2zM94 106a47 47 0 0 0-7-4l-7-3c-2-1-3 1-3 2a74 74 0 0 0-2 9v9c0 2 2 3 3 4 4 3 10 7 15 7a1 1 0 0 0 1-1c-3-3-7-4-11-6l-5-4v-7l1-6 1-4h2l12 6v-2z"/><path class="cls-3" d="M79 100c0-3-2-5-4-7l-3-2c-4 1-5 6-4 9l1-2c-4 0-10 0-11 4-2 4 2 6 5 7s8 0 9-4c1-2-1-6-4-6v1a3 3 0 0 1 1 5c-1 2-4 2-5 2-2 0-6-2-4-5 2-2 6-2 8-1a1 1 0 0 0 2-2 5 5 0 0 1 0-4l2-1 2 1 5 5z"/><path class="cls-3" d="M63 109c-1 4 0 9 4 11 3 2 8 1 10-2 1-2-2-3-2-2-2 3-5 3-7 2-3-2-3-6-4-9a1 1 0 0 0-1 0zM67 101c1-2-1-6-1-8l-4-13-4-13-2-4a4 4 0 0 0 0-1c-1-1 0 0 0 0-1-1-2 0-2 1v-1a3 3 0 0 0 0 1 3 3 0 0 0 0 1l2 4 4 12 6 20a1 1 0 0 0 1 1zM143 110l10-10 11-10h-2l7 9 3 6c1 1 3 3 3 5s-3 3-4 5l-4 4c-2 3-6 5-7 9a1 1 0 0 0 1 0c2 0 3-2 4-3l6-5 5-6 3-4c1-2-1-2-2-4a240 240 0 0 0-12-18 2 2 0 0 0-3 0l-11 10-9 11a1 1 0 0 0 1 1z"/><path class="cls-3" d="M165 93c5-5 7-12 9-19a45 45 0 0 1 3-5c1-3 2 1 3 2a28 28 0 0 1 0 14 1 1 0 0 0 1 2c5 1 5 8 3 11-1 4-5 6-9 8a1 1 0 0 0 0 1c6 1 11-4 12-9 2-5 1-13-5-14l1 2a29 29 0 0 0 0-16c-1-3-4-8-8-4l-2 5-3 7a71 71 0 0 1-6 14l1 1zM188 60v-3l1-3h-1a8 8 0 0 0-1 6h1zM191 63a29 29 0 0 0 2-4v-3-1a8 8 0 0 0-2 3 26 26 0 0 1-1 4c-1 1 0 2 1 1zM194 66a10 10 0 0 1 3-2l3-2a1 1 0 0 0 0-1c-1-1-3 0-4 1a13 13 0 0 0-3 4h1zM148 78l-2 11a20 20 0 0 1-6 10 1 1 0 0 0 1 2l6 4a1 1 0 0 0 2-1c-1-3-4-5-7-6v3a20 20 0 0 0 6-10 35 35 0 0 0 1-12l-1-1zM155 80v7l-1 8a1 1 0 0 0 1 0c3-4 4-11 2-16a1 1 0 0 0-2 1z"/><path class="cls-3" d="M157 75a12 12 0 0 0 0 5 1 1 0 0 0 1 0 12 12 0 0 0 0-5 1 1 0 0 0-2 0z"/><path class="cls-2" d="M135 95l1 1a6 6 0 0 0 1 2l1-1a3 3 0 0 0-2-3 1 1 0 0 0-1 1z"/><path class="cls-2" d="M138 95a4 4 0 0 1 1 1 2 2 0 0 0 1 1 1 1 0 0 0 1 0 2 2 0 0 0-1-2 5 5 0 0 0-1-1 1 1 0 1 0-1 1zM95 91l2 1a5 5 0 0 0 1 1c0 1 0 0 0 0a5 5 0 0 0-1-2l-1-1-1 1zM98 91l2 2a4 4 0 0 0 1 2l1-1a4 4 0 0 0-1-2l-1-2-2 1z"/><path class="cls-3" d="M151 40a55 55 0 0 1 4 9 68 68 0 0 1 2 10c1 7 1 14-2 20h2l-10-7-9-5c-1-1-2 1-1 1 2 3 6 5 9 7l10 6a1 1 0 0 0 2-1c2-7 2-15 1-22-1-6-2-14-7-19l-1 1z"/><path class="cls-3" d="M142 24l8 2a22 22 0 0 1 8 4 39 39 0 0 1 9 13 57 57 0 0 1 4 17 66 66 0 0 1 1 9 37 37 0 0 1-1 8c-1 1 0 2 1 1 4-5 3-13 2-18a61 61 0 0 0-5-18c-2-6-6-11-11-15-4-3-11-6-16-4a1 1 0 0 0 0 1zM159 127c-1 2 0 5 1 7s2 5 4 6a1 1 0 0 0 2-1l-3-6-3-6h-1zM121 117a38 38 0 0 0 3 14c1 4 4 9 7 11a1 1 0 0 0 1-1c0-2-2-3-3-5a47 47 0 0 1-3-6l-4-14a1 1 0 0 0-1 1zM129 124a1 1 0 0 1 0-2 2 2 0 0 1 2 1 3 3 0 0 1 1 3l-3 1a2 2 0 0 1 0-3c-2 0-1 3 0 4s3 0 4-2 0-5-3-5c-1 0-3 2-2 3h1zM133 133a2 2 0 0 1 0-3l2 2-1 3a2 2 0 0 1-2-2 1 1 0 0 0-1 0c-1 1 1 3 3 3s3-2 3-4c-1-2-3-4-5-3a3 3 0 0 0 0 5 1 1 0 0 0 1-1z"/><path class="cls-3" d="M147 17a23 23 0 0 1 2 5 26 26 0 0 0 2 4h1c1-3-1-7-4-10a1 1 0 0 0-1 1z"/><path class="cls-3" d="M152 26c1-2 4-4 7-5l-1-1c-3-1-6 2-7 6h1zM144 53v18c3-5 2-12 0-18 0 0-1 0 0 0z"/><path class="cls-3" d="M147 53a61 61 0 0 1-1 19c2-6 3-12 2-19h-1z"/><path class="cls-3" d="M148 51c5 8 5 16 2 25h1c4-8 3-18-2-25h-1zM161 74c-1 5-2 11-1 16 0 1 0 1 0 0l2-15-1-1zM165 75v14h1V75h-1zM49 70c-5-4-9-10-6-16 3-5 9-8 14-4 6 4 8 13 4 18s-12 6-15 0h-1c1 6 8 8 13 6 5-3 7-9 6-15s-5-12-11-12a12 12 0 0 0-12 7c-2 6 2 14 7 16h1zM140 123c3-1 8-3 11-2 4 2 4 7 3 11-1 1-2 4-4 4l-4-3c-3-3-4-7-6-11v1c1 4 3 9 7 12 1 1 4 3 5 2l3-5c2-4 1-9-2-11-5-3-10-1-14 1l1 1z"/><path class="cls-3" d="M140 128a60 60 0 0 1 6-3l6-1v-1l-6 1a62 62 0 0 0-7 3l1 1zM2 143a12 12 0 0 1 1-8 58 58 0 0 1 5-7l6-6h8l35-1-1-2-5 12a27 27 0 0 0 0 15l1-2H1a1 1 0 0 0 0 2c17 0 34-1 51 1a1 1 0 0 0 1-2 25 25 0 0 1 1-14l4-11a1 1 0 0 0-1-1H17c-5 1-9 6-11 9-4 5-7 9-6 15h2z"/><path class="cls-3" d="M4 136l10 1h11a632 632 0 0 1-11-2H4v1zM17 129c-1-2 1-4 3-4a11 11 0 0 1 5 0 20 20 0 0 0 6 0v-1 5c0 3-4 2-6 1h-6a19 19 0 0 0-5 0h-1l9 2h8c4-1 3-5 2-8a1 1 0 0 0-1-1c-4 1-9-1-13 1a5 5 0 0 0-2 6l1-1zM37 125v0a1 1 0 0 1 1 0 1 1 0 0 1 1 0 1 1 0 0 1-1 1h-1c-1 1 1 2 2 2a2 2 0 0 0 1-3 2 2 0 0 0-2-2 2 2 0 0 0-2 3 1 1 0 0 0 1 0v-1zM43 126a1 1 0 0 1 1-1v1a1 1 0 0 1-1 1 3 3 0 0 1-1-1h-1a2 2 0 0 0 1 1 3 3 0 0 0 1 1 2 2 0 0 0 2-3 2 2 0 0 0-2-1 2 2 0 0 0-1 2h1zM7 142v-1a6 6 0 0 0-1 1 9 9 0 0 0-1 2 17 17 0 0 0-1 5c0 4-1 9 2 11a1 1 0 0 0 1 0 26 26 0 0 1-1-11 13 13 0 0 1 1-6l2-2c1-3-6-2-2 1 0 1 0 0 0 0zM12 141c0 2 2-3 1 0a10 10 0 0 0-1 2 24 24 0 0 0-1 5 27 27 0 0 0 2 12h1a27 27 0 0 1-2-11 24 24 0 0 1 1-5 5 5 0 0 1 2-3v-1c1-2-5-3-4 1h1zM58 120c0 4 1 9-1 13l-4 11h1l2-6 3-5a12 12 0 0 0 0-5v-8h-1zM19 119a16 16 0 0 1 7-3c3 0 9 0 8 4a1 1 0 0 0 1 0 2 2 0 0 0 0-3c-1-2-3-2-5-3-4 0-9 1-11 5-1 0 0 0 0 0zM91 66a25 25 0 0 1 2-11c0-1 0-1 0 0a22 22 0 0 0-2 11zM95 64a14 14 0 0 1 7-12 13 13 0 0 0-8 12 1 1 0 0 0 1 0zM18 115a45 45 0 0 0-3-4l-3-4-1 1a31 31 0 0 0 6 8l1-1zM16 109a3 3 0 0 0 1 3 6 6 0 0 0 2 2l1-1a13 13 0 0 1-2-2 11 11 0 0 0-2-2zM39 117c5-2 11-4 16-8-6 1-12 4-17 7l1 1zM40 113c2-1 5-2 6-4v-1a26 26 0 0 0-3 2 22 22 0 0 1-4 2l1 1zM90 13c0 1-3 3-3-1l2-2a9 9 0 0 1 5-2 5 5 0 0 1 5 4l-2 4a17 17 0 0 0-2 2l-1 2-2 1a4 4 0 0 1 0-3 22 22 0 0 1 1-2 9 9 0 0 0 0-3 1 1 0 0 0 0-1 8 8 0 0 0-2 0 1 1 0 0 0 0 1 8 8 0 0 0 2 0h-1c0 3-3 6-1 9 1 1 3 2 4 0l1-3 3-3a5 5 0 0 0 0-7c-3-3-12-3-13 2-2 5 5 6 5 2h-1z"/><path class="cls-3" d="M93 28a3 3 0 0 1-1-2 2 2 0 0 1 2-1 1 1 0 0 1 1 2 2 2 0 0 1-1 1h-1c1-1 0-1-1-1a1 1 0 0 0 1 2 2 2 0 0 0 2 0 3 3 0 1 0-4-4c-1 1-1 4 1 4l1-1zM174 94a7 7 0 0 1 0-4c1-2 2-2 3-1l1 2v8a1 1 0 0 0 1 1l1-8-2-6a4 4 0 0 0-5 1c-2 2-2 4-1 7a1 1 0 0 0 2 0zM97 161v-17l-1 1 79-4-2-2a69 69 0 0 1 0 23l1-1c-25 1-51 0-76-1a1 1 0 0 0-1 1 297 297 0 0 0 2 43h3a269 269 0 0 1-2-43l-2 2c25 1 51 2 76 1a2 2 0 0 0 1-2 72 72 0 0 0 1-23 2 2 0 0 0-1-1l-79 5a1 1 0 0 0-1 1v17a1 1 0 0 0 2 0z"/><path class="cls-3" d="M173 161l-1 9a10 10 0 0 0-1 2l1 7a1 1 0 0 0 1 0c2-2 0-6 1-9a17 17 0 0 0 0-9 1 1 0 0 0-1 0zM155 164c-1 5 0 10 1 14v6a3 3 0 0 0 1 2 1 1 0 0 0 1 0v-4a1 1 0 0 0-1 0 4 4 0 0 0 0 3 1 1 0 0 0 1 0 3 3 0 0 0 0-1s1-1 0 0h-1c-1-1 0-1 0 0h2l-1-2v-6l-1-12h-2zM161 165c-2 3-2 7-1 11l2 11a1 1 0 0 0 2-1l-2-11v-10a1 1 0 0 0-1 0zM136 164a107 107 0 0 0-1 14 73 73 0 0 0 0 14c0 1 3 0 2-1v-2a1 1 0 0 0-1 0l-1 2h2v-13a73 73 0 0 0 0-14h-1zM140 164v15l1 6v7h2v-8l-1-6-1-14a1 1 0 0 0-1 0zM113 162a143 143 0 0 0 0 21 143 143 0 0 0 1 15l1 2h1v-3-5l-1-10-1-20a1 1 0 0 0-1 0zM118 164v19a85 85 0 0 0 1 11l1 2a1 1 0 0 0 2-1 1 1 0 0 0-1-1 1 1 0 0 0-1 0h1a8 8 0 0 0 0-2v-2-4l-1-7v-7l-1-9a1 1 0 0 0-1 0zM97 156l8 1h30l20-1h19v-1h-68l-9 1v1zM69 108v3a28 28 0 0 1 1 4l1-1a10 10 0 0 1-2 1 6 6 0 0 0 0-1l-1-2-1-4h-1l2 7c0 2 2 1 3 1a1 1 0 0 0 1-1 30 30 0 0 0-1-4l-1-3h-1zM64 99l-6-18-3-9-1-5a8 8 0 0 1-1-2l2-2c1 0 0-2-1-1-3 1-3 2-2 5l4 11 7 21h1z"/><path class="cls-3" d="M54 69l1-1h1a1 1 0 0 0 0-1 1 1 0 0 0 0-1c-2 0-2 1-3 2a1 1 0 0 0 1 1zM55 72a11 11 0 0 0 2-1 5 5 0 0 0 1 0 3 3 0 0 0 0-1l-1-1a4 4 0 0 0-1 0 5 5 0 0 0 0 1 18 18 0 0 0-2 2 1 1 0 0 0 1 0zM59 128l14 1-1-2-5 9-6 9-6 8a3 3 0 0 0 0 2 14 14 0 0 1 1 6 1 1 0 0 0 2 0 118 118 0 0 0 13-17c2-4 6-11 3-15h-1l1 4a13 13 0 0 1-1 4 43 43 0 0 1-5 8 130 130 0 0 1-11 15l1 1a15 15 0 0 0 0-4l-1-2 1-3 6-9 5-8 5-7a1 1 0 0 0-1-1H59a1 1 0 0 0 0 1z"/><path class="cls-3" d="M55 153l-17 1H22v1h17c6 1 11 0 16-1v-1zM24 161l17 1h16c-2-2-5-1-7-2h-9a144 144 0 0 0-17 1zM73 137l-1 7v24h1l1-7v-8-8-8a1 1 0 0 0-1 0zM68 146l-1 12v14a1 1 0 0 0 1 0l1-13v-7a30 30 0 0 0 0-6h-1z"/><path class="cls-3" d="M55 162l-1 13v12a1 1 0 0 0 2 0v-12-13a1 1 0 0 0-1 0zM50 163a127 127 0 0 0 0 13c0 4-1 8 1 12v-12-13a1 1 0 0 0-1 0zM60 158l-1 12 1 12h1a26 26 0 0 0 0-6l-1-6v-12zM66 152c-3 0-2 5-2 6a35 35 0 0 0 1 13h1l-1-10 1-9zM102 46a9 9 0 0 1 1-10c1-1 3-3 5-2a11 11 0 0 1 4 3c3 3 0 6-3 7-2 1-4 2-5 1l-3-4h-1a5 5 0 0 0 1 6c2 2 5 2 7 1 5-1 10-5 7-11a13 13 0 0 0-6-5c-2-1-4 0-6 1a10 10 0 0 0-3 14 1 1 0 0 0 1-1z"/><path class="cls-3" d="M110 41l6-1 5-2a1 1 0 0 0 0-1c-3-1-8 0-11 1v3z"/><path class="cls-3" d="M120 45c-1-4-3-9 0-12 2-4 9-3 10 1a9 9 0 0 1-3 9c-2 2-6 1-8-1a1 1 0 0 0-1 1c0 5 7 6 10 4 5-3 7-10 5-15s-10-6-14-2c-5 4-2 10 0 15a1 1 0 0 0 1 0z"/><path class="cls-3" d="M122 34l1 5 2 5a1 1 0 0 0 2-1l-2-4-2-6c-1 0-2 0-1 1zM124 33c1 3 1 6 3 7h1a15 15 0 0 0-1-4 33 33 0 0 1-1-3 1 1 0 0 0-2 0zM103 38a20 20 0 0 0 1 4 30 30 0 0 0 2 4 1 1 0 0 0 1-1 7 7 0 0 0-1-4 7 7 0 0 0-3-3c0-1 0 0 0 0zM105 37l1 1a10 10 0 0 0 1 2c1 1 2 0 2-1a9 9 0 0 0-1-1l-2-2a1 1 0 0 0-1 1zM110 115a36 36 0 0 0 3 6l3 3 4-2a25 25 0 0 0 5-4h-2a44 44 0 0 0 4 3l4 2 4-4c1-1 3-2 3-4h-1c-2 0-4 2-5 3s-2 2-4 1a41 41 0 0 1-4-3 1 1 0 0 0-1 0 24 24 0 0 1-3 3l-3 2-3-3a36 36 0 0 1-2-3h-2zM100 142l1-10h-1 19-1v11a1 1 0 0 0 1 0l1-11a1 1 0 0 0-1-1h-19c-1 4-2 8-1 11h1z"/><path class="cls-3" d="M119 133a20 20 0 0 0 2 4 20 20 0 0 0 2 5l2-1a35 35 0 0 0-2-5 33 33 0 0 0-3-4l-1 1zM94 130l2 3 3 3c0-2-1-2-2-3l-3-3zM99 142a2 2 0 0 0 0 1 1 1 0 0 0 1 0 2 2 0 0 0 0-1 1 1 0 0 0-1 0zM166 29l5 10 3 10a1 1 0 0 0 2-1c0-3-1-7-3-10a38 38 0 0 0-6-10c0-1-2 0-1 1zM171 27c5 4 7 9 9 15h1c1-7-3-13-8-17-1-2-3 0-2 2z"/></g></g></svg>