<svg xmlns="http://www.w3.org/2000/svg" viewBox="0 0 226 153"><defs><style>.cls-3{fill:#865445}.cls-4{fill:#cdada4}.cls-5{fill:#f24284}</style></defs><g id="Layer_2" data-name="Layer 2"><g id="圖"><path d="M113 60s9-18 2-25-8-17-17-17-19 0-24 4a108 108 0 0 0-10 11S52 17 47 17s-16-8-20-6-14 7-16 14S0 39 1 45s1 14 6 16 11 9 11 9v34l25 1 3 9h5l1 3-13 25 11 3 10-28 3 2 6 25 9-3-8-22 1-5 8-2 1-8h22V94l21 10 5-2 1-46-16 4z" fill="#ae857b"/><path d="M39 142l13-25-1-3h-6l-2-9-25-1-1-11V70c0-1-6-6-11-8-4-2-4-7-5-12v-5c-1-4 2-8 5-13a36 36 0 0 0 4-7c2-7 11-11 16-14h1c2-1 8 1 13 3a35 35 0 0 0 7 3c4 0 15 14 17 16a107 107 0 0 1 10-11c4-4 12-5 24-4 6 0 9 4 12 9a57 57 0 0 0 5 7c6 8 0 23-1 26l15-4h1l-1 46-6 2-21-10 1 10H80v8l-9 2-1 5 8 23-9 2-6-25-3-1-10 27zm24-24l6 25 8-2-7-22 1-6 8-1 1-8 22-1-1-9 22 9 5-1 1-45-16 3v1-1s8-18 2-25a58 58 0 0 1-5-7c-3-5-6-9-12-10-12-1-20 1-24 5a109 109 0 0 0-10 10S52 18 47 17a34 34 0 0 1-7-2c-4-2-10-5-13-4l-1 1c-4 2-13 6-15 13a37 37 0 0 1-5 8c-2 4-5 8-5 12l1 5c1 5 1 9 5 11 5 2 11 8 11 9v23l1 10 24 1h1l2 10 5-1 2 4-14 25 11 2 10-27z" fill="#8fb9d1"/><path class="cls-3" d="M37 67c4-3 8-5 11-9a26 26 0 0 0 5-13c0-8-3-17-11-21-7-4-17-4-23 2a40 40 0 0 0-8 14c-2 5-2 10 1 15 4 4 9 7 15 9 4 2 10 5 15 3a1 1 0 0 1 2 2c-3 6-10 5-14 3-7-2-13-5-18-10-5-4-9-9-9-16 0-6 4-13 8-19 3-5 7-9 13-11a27 27 0 0 1 17 0c11 3 18 14 19 26a32 32 0 0 1-5 19c-4 5-10 11-17 9a2 2 0 0 1-1-3z"/><path class="cls-3" d="M36 17c-5-1-12-1-17 2a15 15 0 0 0-5 6c-1 1-1 4-3 5a1 1 0 0 1-1 0c-2-2 0-5 1-7a18 18 0 0 1 6-6c6-4 13-4 19-1a1 1 0 0 1 0 1zM92 18c9 0 17 7 20 15 2 5 3 11 3 16s-1 10-5 13a52 52 0 0 1-14 8 16 16 0 0 1-15-1c-8-5-15-14-16-24 0-10 7-19 15-25 3-3 9-6 14-4 1 1 3 3 2 5s-3 2-5 1c-5 0-9 5-12 8s-6 7-7 12c-2 9 6 19 14 23 6 3 13 0 18-3 3-2 6-4 7-7v-9c0-6-2-13-6-17-3-5-8-7-14-9a1 1 0 0 1 1-2z"/><path class="cls-3" d="M76 26l-7 11c-2 3-4 7-3 11 2 8 10 13 15 19 0 1-1 3-2 2L69 59c-3-3-5-7-6-11s1-8 3-11a97 97 0 0 1 9-12c1-1 2 0 1 1z"/><path class="cls-3" d="M73 28a28 28 0 0 0-5 7l-2 8a1 1 0 0 1-2 0c-1-6 4-13 8-16 1-1 2 0 1 1zM94 23c2 2 2 5 2 7-1 2 0 5-2 7a3 3 0 0 1-4 0v-8c1-2 1-5 3-6a1 1 0 0 1 1 0zM91 48l-1-2 2-1a5 5 0 0 0 0 2h-3a3 3 0 0 1 1-4 1 1 0 0 1 2 1v5l-1-1zM86 49c-2 4-7 7-11 8-3 1-4-4-1-5a20 20 0 0 0 5-2l4-3a2 2 0 0 1 3 2zM102 63l-5-5c-1-2-3-4-3-7l2-1a6 6 0 0 1 3 0l3 4c2 2 3 5 3 8l-3 1zM32 44a2 2 0 0 0 0-1l1-1a1 1 0 0 0 0 1h-2s0-1 0 0v-1 1s0-1 0 0l1-2a2 2 0 0 0 0 1l-1-1s-1 1 0 0c-1 1-1 1 0 0a2 2 0 0 1 3 1 3 3 0 0 1-3 3c-2 0-3-3-2-5a2 2 0 0 1 1-1 4 4 0 0 1 5 3 3 3 0 0 1-4 4 2 2 0 0 1-1-1v-4a2 2 0 0 1 3 0c1 1 2 3 0 4l-1-1z"/><path class="cls-3" d="M47 24c1 2-1 5-2 7a52 52 0 0 1-6 8c-4 3-10-2-6-6l6-6c2-2 4-4 7-4a1 1 0 0 1 1 1zM24 44a27 27 0 0 1-7 2l-8 1 3-2v-1a4 4 0 0 0 1 1 29 29 0 0 0 4-1h5l-2 2v-1a1 1 0 0 1 2-1 2 2 0 0 1 1 3 2 2 0 0 1-1 2 17 17 0 0 1-5 0 30 30 0 0 1-5 0 7 7 0 0 1-5-3 3 3 0 0 1 1-4c5-2 12-2 16 1a1 1 0 0 1 0 1zM35 54c3 3 3 10 3 15a2 2 0 0 1-2 2h-2a2 2 0 0 1-2-3l-1-17c-1-2 4-3 4 0l1 17-2-2h2l-2 3a25 25 0 0 0 0-8l-2-6c0-1 2-2 3-1z"/><path class="cls-4" d="M37 23c-5 0-9 1-13 3a20 20 0 0 0-5 5l-4 5a1 1 0 0 1-1-1c-2-5 4-10 8-12 4-3 10-4 15-2v2zM87 27l-9 11a28 28 0 0 0-1 7l-1 7a1 1 0 0 1-1 0c-2-2-2-5-2-7a25 25 0 0 1 2-8c2-5 6-10 11-12a1 1 0 0 1 1 2zM106 36a14 14 0 0 0-4-5 37 37 0 0 0-6-3h1c4-1 9 3 10 7v1zM17 52a12 12 0 0 0 3 5 12 12 0 0 0 6 2 1 1 0 0 1 0 2c-5 1-10-4-10-9a1 1 0 0 1 1 0zM123 63a45 45 0 0 1-7 7c-1 1-3 3-5 3l-5 1a1 1 0 0 1-1-2 44 44 0 0 1 3-5c1-2 4-3 6-4s6-4 9-1a1 1 0 0 1 0 1z"/><path class="cls-3" d="M124 81c2 6 1 13-1 20a2 2 0 0 1-3 1l-7-4-6-2c-2 0-3-2-3-3l-1-8c0-3 4-4 6-1a83 83 0 0 0 4 7l-5 1 2-4c0-2 3-3 4-1l5 5h-4a4 4 0 0 0 0-2c0-3 4-3 5-1l3 5-5 1c1-3 0-7 2-10l2 1c2 2 2 6 2 9a3 3 0 0 1-5 1l-3-5 4-1a9 9 0 0 1-1 5 3 3 0 0 1-4 0l-5-5 5-1-1 5a3 3 0 0 1-6 0l-5-7 6-3 1 9-3-3c3 0 5 1 7 3l8 5-3 1c2-5 2-12 2-18 0-2 3-2 3 0z"/><path class="cls-3" d="M129 69v16l-1 8a56 56 0 0 1 0 9c-1 3-6 2-6-1a56 56 0 0 1 1-8l1-8c1-5 1-11 3-16h2z"/><path class="cls-3" d="M128 61a1 1 0 0 1 1 2v15a1 1 0 0 1-2 0l-1-7v-8a1 1 0 0 1 1-1l1-1zM91 88c4 3 1 10-3 12-3 2-11 1-12-4a2 2 0 0 1 3-2l3 3a5 5 0 0 0 8-4v-4a1 1 0 0 1 1-1zM63 96l-6 1-9 1-8 1c-3 0-5 1-8-1a2 2 0 0 1 0-3c2-2 5-1 7-1a544 544 0 0 1 16-1l8 1a1 1 0 0 1 0 2zM80 110l-7 2H47c-7 0-7-11 0-11a275 275 0 0 1 26 3c3 1 6 1 8 3a2 2 0 0 1-1 3zM70 117c-2 2-5 2-7 2h-9c-3 0-3-4 0-4h9l7 1v1z"/><path class="cls-3" d="M58 117c1 3 0 6-1 9a65 65 0 0 1-4 9c-2 4-10 1-8-3l4-9 5-6h4zM69 117l2 5a55 55 0 0 0 1 5 47 47 0 0 0 3 6l2 5h-5a6 6 0 0 1 0-1 1 1 0 0 1 2-1 14 14 0 0 1 1 0c3 1 1 6-2 4s-5-7-6-11c0-3-2-9 0-12a1 1 0 0 1 2 0z"/><path class="cls-5" d="M192 53c3 2 3 6 4 10 0 7-1 14-4 20-2 4-6 7-10 6a9 9 0 0 1-6-3c-4-4-4-11-5-17 0-4 0-7 2-10 1-4 5-6 8-7 4-1 9-1 12 1 3 3 4 8 4 12"/><path class="cls-5" d="M192 53c4 6 3 13 2 20a26 26 0 0 1-4 11c-2 3-5 6-9 4-7-2-8-11-9-17l1-12c2-3 5-5 9-6 3-1 8-2 11 2 3 3 3 7 3 10h2c0-3-1-8-3-11s-6-4-10-4a19 19 0 0 0-11 5c-3 3-4 7-4 12 0 7 1 17 8 22 8 5 15-4 17-11a45 45 0 0 0 1-16c0-3-1-8-4-9h-1zM201 92a131 131 0 0 0 6 26 5 5 0 0 1 0 3 5 5 0 0 1-1 2 43 43 0 0 1-9 10 28 28 0 0 1-27 4 2 2 0 0 1-1-1v-2c2-3 2-7 3-11l3-25c4 2 9 1 14 0s7-5 11-8"/><path class="cls-5" d="M200 92c0 7 2 15 4 21l2 6a4 4 0 0 1-1 3l-1 2a38 38 0 0 1-7 8 27 27 0 0 1-19 6 27 27 0 0 1-5-1l-2-1-1-2 2-5a45 45 0 0 0 1-4l3-27-1 1c9 4 18-2 26-8 1-1-1-2-2-2-6 6-15 12-23 8a1 1 0 0 0-2 1l-4 27a29 29 0 0 1-1 7c-1 1-2 3-1 4 1 2 5 3 7 3a29 29 0 0 0 20-3 32 32 0 0 0 8-7 55 55 0 0 0 3-4l2-5-2-6-2-7-3-15h-1zM205 67c2-12-7-25-19-27l9-37a2 2 0 0 1 0-1 2 2 0 0 1 1 0c9 1 17 8 21 16a51 51 0 0 1 6 39 116 116 0 0 0-19 9"/><path class="cls-5" d="M205 67c2-13-7-25-19-28l1 1 6-25 2-7V5c1-2 1-2 3-2a25 25 0 0 1 9 5c12 9 18 26 16 41a30 30 0 0 1-1 7l-5 3a118 118 0 0 0-13 6c-1 1 0 2 1 2a118 118 0 0 1 13-7l3-1 2-1 2-6a52 52 0 0 0-2-24 45 45 0 0 0-13-20 28 28 0 0 0-10-6l-5-1-2 4-8 35a1 1 0 0 0 1 1c11 2 19 14 18 26h1zM174 47a37 37 0 0 0-12 33 59 59 0 0 1-11 4c-2-14-2-29 5-42a46 46 0 0 1 6-10l12 16"/><path class="cls-5" d="M174 47c-10 8-14 20-12 33v-1a63 63 0 0 1-11 4l1 1c-2-18-2-38 11-52h-1l6 8a95 95 0 0 0 5 9 1 1 0 0 0 1-1 67 67 0 0 0-5-8l-6-9a1 1 0 0 0-1 0c-13 15-14 35-12 53a1 1 0 0 0 1 1 63 63 0 0 0 12-5 1 1 0 0 0 0-1c-2-12 3-23 11-32 1 0 0-1 0 0z"/><path d="M101 69c10-6 15-16 14-27-2-11-10-21-21-23-6-2-12 1-17 5-5 3-9 7-11 12-4 11 0 22 9 28 6 4 13 6 19 5s11-6 13-11h2a16 16 0 0 1-9 13c-7 3-14 3-21 0-11-5-20-17-18-30a26 26 0 0 1 8-16c5-5 12-9 19-10 13-2 24 9 28 21 5 13-1 28-14 35l-1-2z"/><path d="M54 57c3-2 3-6 3-8a68 68 0 0 0 1-9c0-6-2-14-7-18-4-4-11-6-16-7-7-2-14-1-19 4L8 32c-3 6-6 13-4 20 2 5 6 10 11 13 6 3 12 6 19 5 15-1 26-16 24-30a1 1 0 0 1 1-1c5 14-5 30-19 34-7 2-15 1-22-3-6-2-12-7-15-13-4-7-3-14 0-21 2-7 5-13 9-18a21 21 0 0 1 19-7c7 0 14 3 20 7 6 5 9 13 9 21l-1 11-4 8a1 1 0 0 1-1-1zM94 39c-1-4 1-8 1-11l1-3-1-1h-6l1-1v9a31 31 0 0 0 0 4l1 1 3 1c1 0 0 2-1 1h-4l-1-3V23a1 1 0 0 1 1-1h8a2 2 0 0 1 1 2 44 44 0 0 1-1 7l-2 8h-1zM93 48c3-2-3-7-4-3a2 2 0 0 0 2 3c1 1 2-1 2-2h1c2 2-1 4-4 4a4 4 0 0 1-3-6 4 4 0 0 1 6-1c2 1 2 5 0 6v-1z"/><path d="M87 52l-1-3h-3a76 76 0 0 0-8 2c-2 1-4 1-3 2l3 5h-1l11-8 1 1-11 8a1 1 0 0 1-1 0l-3-4-1-3 2-1 5-2 4-2h4c2 0 3 3 3 4h-1zM97 49l-4 3v-1a36 36 0 0 1 6 8 12 12 0 0 0 1 2v1a2 2 0 0 0 2-1l4-3-1 1a70 70 0 0 0-8-11c-1-1 1-2 1-1a124 124 0 0 1 9 11 1 1 0 0 1 0 1 37 37 0 0 1-5 4h-3l-3-4a44 44 0 0 0-4-7 1 1 0 0 1 0-1 39 39 0 0 1 4-3l1 1zM31 47a4 4 0 0 0 3-4c0-1 0-3-2-4-2 0-3 3-2 5l4 2 1 1c-3 2-7 0-8-2-1-3 1-7 4-8 3 0 5 2 5 5a6 6 0 0 1-4 6 1 1 0 0 1-1-1zM37 37l10-13v2a22 22 0 0 0-4-3h1l-5 6a70 70 0 0 0-5 7l-1-2a5 5 0 0 1 4 3c1 1 0 2-1 1a4 4 0 0 0-3-2 1 1 0 0 1-1-1 59 59 0 0 1 8-11c1-1 2-3 4-3l4 3a1 1 0 0 1 0 2L38 37h-1zM35 49c-1 2-3 2-5 3v-1c2 5 1 11 3 16h-2a36 36 0 0 0 6-2l1-1a2 2 0 0 1-1-1l-1-3a86 86 0 0 1-2-10h2a59 59 0 0 1 2 7 57 57 0 0 1 2 7 2 2 0 0 1-1 2c-2 2-5 2-7 3a1 1 0 0 1-1-1l-3-17a1 1 0 0 1 1-1l6-2v1zM23 48v-5l-1-1h-3a72 72 0 0 0-10 0l1-2a65 65 0 0 1 1 11l-2-1a32 32 0 0 1 15-3v2a29 29 0 0 0-14 2 1 1 0 0 1-1 0 83 83 0 0 0-1-10 1 1 0 0 1 1-1h14a2 2 0 0 1 1 2v7l-1-1zM101 70c2 2 2 4 2 7v18c0 3 1 7-1 9a2 2 0 0 1-3-1l1-1a1 1 0 0 1 2 0v1a2 2 0 0 1-3 1v-8-10-9l1-7h1z"/><path d="M100 105c-7 2-14 1-21 1l-20 1H28c-4 0-7 0-10-2a1 1 0 0 1 0-2l10-1 10-1 21 1h20l21 1a1 1 0 0 1 0 2z"/><path d="M19 67a92 92 0 0 1 1 19l1 9c0 3 0 6-2 9a2 2 0 0 1-2 0c-2-3-2-5-2-8V86a93 93 0 0 1 2-19 1 1 0 0 1 2 0zM67 60l-6 1a28 28 0 0 1-8-1 1 1 0 0 1 0-1 28 28 0 0 1 8-1l6 1v1zM114 59a56 56 0 0 1 6-2c1-1 2-2 4-1s2 6 2 8v24a44 44 0 0 1-1 11c-1 3-2 5-5 5l-10-4a57 57 0 0 1-11-6 1 1 0 0 1 2-2l16 7c1 1 3 2 4 1l1-4a55 55 0 0 0 1-9 323 323 0 0 0-1-27c0-2 0-1-1-1a10 10 0 0 0-2 1 43 43 0 0 1-4 1 1 1 0 0 1-1-2z"/><path d="M124 55h7a2 2 0 0 1 2 3 233 233 0 0 1 0 31l-1 7-1 7c-2 4-8 3-11 2a3 3 0 0 1 2-5h5v-1-4l1-12V57l2 3-6-2a2 2 0 0 1 0-3zM160 9l-6 9-6 9-13 19a1 1 0 0 1-1 0c3-7 8-14 12-20l7-9 7-8zM135 110c4 0 6 3 8 5l7 12 8 12 9 12c1 1 0 2-1 1a113 113 0 0 1-8-11l-8-11-7-11c-2-4-4-7-8-9zM82 106v4a5 5 0 0 1-1 2l-4 2-18 1H44l-2-5c0-2-1-6 1-7a1 1 0 0 1 1 0c2 1 1 4 1 6l1 4 4-1h17l8-1c2 0 4 1 4-1v-4c0-1 1-2 2-1a1 1 0 0 1 1 1z"/><path d="M71 115a18 18 0 0 1 1 3 1 1 0 0 1-2 1l-9 1a50 50 0 0 1-7 0 4 4 0 0 1-4-3 2 2 0 0 1 2-3l1 1c-1 2 2 2 3 2h14l-1 1a18 18 0 0 1 0-3h2z"/><path d="M53 118l-2 6-3 6-6 13a2 2 0 0 1-2 1l-1-1a2 2 0 0 1 0-1l6-13 3-6 3-6a1 1 0 0 1 2 1zM59 121a1 1 0 0 1 1 1l-5 12-4 12c-1 1-4 1-4-1l5-12 6-12a1 1 0 0 1 1 0zM70 117l2 4 2 7 4 14c1 2-2 3-2 1a243 243 0 0 1-6-21v-5zM70 147c-3-4-4-9-6-13a130 130 0 0 1-3-14c-1-2 2-3 3-1l3 14 4 13a1 1 0 0 1-1 1zM88 95V83a5 5 0 0 0-1-2c-1-2-2 0-2 1l-1 3c-1 3-4 3-6 6s1 5 3 5l7-2 1 1c-4 4-11 4-14-1-2-5 5-6 7-10l2-6a3 3 0 0 1 5 1c1 1 2 3 1 5l-1 11h-1zM135 26v3l-3 6-3 13-1-1 3-13 2-5 2-3zM142 44a24 24 0 0 1-3 3l-3 4-1-1 3-3a22 22 0 0 1 4-3c0-1 0 0 0 0zM130 107l1 1 2 5 5 8-1 1-4-6a44 44 0 0 1-3-8 1 1 0 0 1 0-1c-1 1 0 0 0 0zM64 94h-1a10 10 0 0 1 0-6l1 2H38l-4 1c-1 1 0 2 1 3a1 1 0 0 1-1 1c-2 0-3-2-3-4 1-2 3-3 6-4l12 1h15a1 1 0 0 1 1 1 16 16 0 0 0-1 4v2z"/><path d="M63 94h-2a13 13 0 0 0-3 0h-8l-7 1h-8a1 1 0 0 1 0-2l7-1 9-1a64 64 0 0 1 8 1c2 0 3 0 4 2zM11 83c-7 14-3 32 8 44 11 13 30 17 47 15a50 50 0 0 0 13-4c5-1 9-3 11-7 1-1 3-1 3 1a17 17 0 0 1-7 11c-3 3-8 4-13 5a75 75 0 0 1-31 0c-18-4-35-18-38-38-2-10 0-20 6-28a1 1 0 0 1 1 1zM97 23c8 2 14 10 15 18a24 24 0 0 1-9 21c-3 3-9 4-13 4a23 23 0 0 1-13-3c-8-5-9-16-6-24a25 25 0 0 1 8-11c3-3 8-6 12-6a1 1 0 0 1 0 1l-10 4a23 23 0 0 0-7 9c-4 7-5 18 1 24 3 3 8 4 12 4s10 0 13-1c7-4 11-12 11-20-1-9-7-15-14-19a1 1 0 0 1 0-1zM47 24a25 25 0 0 1 6 25c-2 9-10 17-19 18s-17-7-22-14c-3-4-5-8-4-12s5-9 7-13 7-8 12-8c6-1 13 0 18 2a1 1 0 0 1 0 2 66 66 0 0 0-15-3 15 15 0 0 0-12 5 48 48 0 0 0-6 10c-3 4-4 9-1 14a54 54 0 0 0 9 9c3 3 6 6 11 6 8 1 16-6 19-13 4-9 2-19-4-27l1-1zM65 55c-2 3-7 5-10 8l-6 4-5 3a1 1 0 0 1-1-1l5-4 6-4c3-2 7-6 11-7v1zM64 35a52 52 0 0 0-15-15c-1 0 0-2 1-1a42 42 0 0 1 15 16 1 1 0 0 1-1 0zM191 53l2 4a14 14 0 0 1 1 4 53 53 0 0 1 0 11 27 27 0 0 1-4 11c-2 2-5 5-8 5-7-2-8-11-9-17 0-3-1-8 1-11s5-5 8-6 8-2 10 1c3 3 3 7 4 10a1 1 0 0 0 2 0c0-4 0-8-2-11s-7-5-11-5a19 19 0 0 0-11 5c-4 4-5 8-5 13 1 8 1 18 9 23s15-4 18-12a47 47 0 0 0 1-16c0-3-1-9-5-9h-1zM200 92c-1 3 0 7 1 10a109 109 0 0 0 2 11l2 6a3 3 0 0 1 0 3 21 21 0 0 1-2 2 37 37 0 0 1-7 7 26 26 0 0 1-18 6 25 25 0 0 1-5-1l-2-1h-1l1-1c2-2 2-6 3-9l3-27-2 2c10 4 19-2 26-8 2-2 0-5-2-3-7 4-15 11-23 7a2 2 0 0 0-3 2l-3 27a27 27 0 0 1-2 7c-1 1-2 3-1 5s6 3 8 3a30 30 0 0 0 21-4 34 34 0 0 0 8-7c2-2 5-6 5-9l-2-7-2-7-2-7a41 41 0 0 0-1-8l-2 1z"/><path d="M206 67c2-13-7-26-20-29l2 3 4-19 3-9 1-5 1-5-1 1 7 3a28 28 0 0 1 6 4 42 42 0 0 1 9 13 49 49 0 0 1 3 33l1-1a119 119 0 0 0-19 8c-2 1 0 5 2 4a119 119 0 0 1 14-7l5-2 2-6a53 53 0 0 0-2-26 45 45 0 0 0-14-20 29 29 0 0 0-10-6l-5-1-3 4-8 36a2 2 0 0 0 2 2c11 2 19 14 17 25 0 1 3 2 3 0zM174 47a31 31 0 0 0-11 14 38 38 0 0 0-2 19l1-2a63 63 0 0 1-11 4l1 2c-2-18-1-37 12-51h-3l6 8 6 8c1 1 2 0 2-1l-5-9-7-8a2 2 0 0 0-2 0c-13 15-14 35-12 53a1 1 0 0 0 2 1 63 63 0 0 0 12-4 2 2 0 0 0 1-2c-2-12 3-23 11-32h-1z"/></g></g></svg>