<svg xmlns="http://www.w3.org/2000/svg" viewBox="0 0 466.55 725.78"><defs><style>.cls-1{fill:transparent;}.cls-2{fill:#e50012;}.cls-3{fill:#231815;}</style></defs><title>Asset 1</title><g id="Layer_2" data-name="Layer 2"><g id="圖"><path class="cls-1" d="M247.12,677.11c26-46.51,30.62-100.38,26.19-153.5-2.59-31-3.32-61.79-11.69-91.77-1.47-5.29-3.72-11.37-9-12.88-3.29-.95-6.76.25-10.09,1-15.42,3.58-31.27-2.08-46.55-6.25C146.67,400.3,91,400.92,50.65,369.47c-4-3.16-8-6.82-9.66-11.66a21.18,21.18,0,0,1-.33-11C45,325.8,68.54,313.39,90,314.25s41,11.58,59.74,22c-5.16-13-11.15-28.46-12.11-42.38-2.77-39.76-34.81-62.35-55.78-96.24-5-8.11-8.91-17-15.23-24.16-12.41-14-32.68-19.5-44.14-34.32C11.72,125.34,3.64,103.29,7.64,86.24,10.19,75.35,22.27,67,31.42,60.54S55,54.26,61.57,63.29c4.06,5.56,4.4,12.88,6,19.57,8.09,34.45,47,50,73,74-1.89-15.83-6.9-20-8.79-35.8-3.3-27.64-8.63-70.32,9.28-91.65C156,11.64,189.83,6.08,210.3,17c11.32,6,20.73,19.64,15.35,31.27C220,60.4,201.41,63.81,198.73,76.94c-1.14,5.58,1.14,11.22,3.39,16.45q11.7,27.26,24,54.27c13-14.35,10.94-36.94,20.38-53.85,12.78-22.9,48.29-28.55,67.55-10.75,12.14,11.23,16.9,28.24,26.72,41.55,13.06,17.71,33.93,27.54,51.64,40.62,4,2.93,7.89,6.16,10.27,10.48,3.27,5.93,3.19,13,3.39,19.82a191.12,191.12,0,0,0,19.09,77.69c-9.31-4.71-20.43,4.37-23.2,14.42s-.5,20.76-1.33,31.16c-.37,4.69-1.37,9.36-1.08,14.05.3,4.89,2,9.57,3.64,14.18a918.25,918.25,0,0,1,53,322.93c-.07,4.36-.19,8.8-1.55,12.95-2.88,8.79-10.81,14.87-18.71,19.7-57.59,35.22-137.19,29.8-189.48-12.9-2.65-2.16-5.41-4.74-5.77-8.13s3.37-7.08,6.31-5.35"/><path class="cls-2" d="M355.23,353.19a57.16,57.16,0,0,0-1.42,16c.26,3.63,1,6.77.22,10.49-.63,3-2.08,5.86-3.22,8.72-.34.85,1.08,1.46,1.48.63,2.45-5.08,3.84-10.12,3.3-15.77a92.5,92.5,0,0,1,.09-20c0-.26-.4-.32-.45-.07Z"/><path class="cls-2" d="M323,428.46c3-3,9.7-2.56,10.26-7.74.26-2.45-1.46-4.6-2.55-6.58-1.81-3.28-3.22-6.76-5.06-10-3.9-6.92-11.19-11.19-14.06-18.62-2.47-6.36-4.82-12.36-9.14-17.76-.33-.41-1,.12-.72.56a156.2,156.2,0,0,1,8.72,18.46c2,4.73,5.27,7.3,8.75,10.87A45.92,45.92,0,0,1,330,415.55c1.34,4.19-.91,7.52-4.13,10-1.32,1-2.17,1.19-3.1,2.68-.11.18.15.38.29.23Z"/><path class="cls-2" d="M430.15,520.84c3.8,3.76,6.7,9.54,2.38,14.43a49.52,49.52,0,0,1-5.61,4.68c-5,4.09-10.11,8-15.27,11.89-8.89,6.66-18.5,13.71-29.64,15.52-.59.1-.43,1,.14,1,7.15.07,13.38-4,19.05-7.94,7-4.91,14.05-9.85,20.78-15.15,4.25-3.35,12.34-7.85,14.47-13.15,1.92-4.78-2.59-9.13-6-11.73-.25-.2-.55.22-.33.43Z"/><path class="cls-2" d="M312.22,557c9,3.1,18.19,6.58,27.49,8.46a.71.71,0,0,0,.38-1.36c-9.1-2.9-18.58-4.83-27.76-7.51-.26-.08-.37.32-.11.41Z"/><path class="cls-2" d="M427.19,445c-6.64,1.6-13.18,3.88-19.88,5.2-1.79.35-4.94,1.27-6.79.67l-7.18-6.19a24.33,24.33,0,0,0,0-3.08,23.66,23.66,0,0,0-1.47-7.14c-3.26-8.44-12.67-12.51-21.08-13.78-.65-.1-1.23.86-.5,1.18,5.94,2.53,12.65,3.93,17.3,8.75,4,4.14,4.21,8.74,4.65,14.07.12,1.48-.11,3,.7,4.34,2.32,3.83,8.62,3.69,12.38,3.11,7.4-1.15,15-4.21,22.05-6.66a.24.24,0,0,0-.13-.47Z"/><path class="cls-2" d="M407.77,356.89c-2.12-1.74,0-2.8-1.43-4.08-2-1.78-7.61-2.26-10.28-3.05-10-2.94-21.8-6.26-32.3-4.79-.56.08-.35.86.12.91,11.34,1.27,22.39,2.32,33.42,5.47,1.64.46,3.45.77,5.05,1.38,2.62,1,2.21,1,3.25,2.58.82,1.26.22,1,1.75,2.14.31.23.73-.3.42-.56Z"/><path class="cls-2" d="M277,372.91c-5.15,3.28-10.81,6.28-15.41,10.32-4.93,4.33-6.94,10.1-10.48,15.39-2.37,3.55-11.63,11.07-7.26,15.91a.68.68,0,0,0,1.13-.66c-.84-2.47,4.73-7.4,6.07-9.26,1.83-2.56,2.32-5,3.46-7.94,4.29-11.05,13.54-16.69,22.84-23.15.37-.26,0-.86-.35-.61Z"/><path class="cls-2" d="M276.36,484.16c-.16-2,20.33-4,21.54-4,4.36.14,10.28.5,12.63-3.95s1.21-11.09,1.45-15.84a162.19,162.19,0,0,1,3.2-25.71c.12-.55-.69-1-.95-.4-4.87,10.54-5.16,21.59-4.36,33,.3,4.19.43,7.36-4,9.44-3.4,1.59-7.73.75-11.4.92-6.46.31-11.9,3.94-18.31,4.43a.55.55,0,0,0-.51.39c-.25,1.1-.3.93.42,1.79a.17.17,0,0,0,.29-.12Z"/><path class="cls-2" d="M386.68,485.14,397.42,495c10.23,9.42,20.46,18.84,30.37,28.6,1.19,1.18,2.45,2.49,2.67,4.15a6.76,6.76,0,0,1-1.32,4.33,26.25,26.25,0,0,1-9.85,9.24c-1.71.92-3.52,1.64-5.21,2.59-3.9,2.2-7,5.56-10.42,8.44a52.54,52.54,0,0,1-30.52,12.11c-11.52.66-22.87-2.5-34-5.63l-24.91-7,5.65-10.59c2.26-4.22,4.52-8.44,6.6-12.75a198.52,198.52,0,0,0,11.66-30.27,48.35,48.35,0,0,0,48.71-12.49"/><path class="cls-2" d="M386.65,485.16c7.26,7.13,14.69,14.09,22,21.13,3.55,3.4,7.15,6.73,10.74,10.07,5.24,4.87,12.78,11.18,6.93,18.52-3.19,4-7.24,5.92-11.59,8.31-3.67,2-6.46,4.82-9.6,7.53a55.51,55.51,0,0,1-28,12.69c-11.2,1.62-22.34-.81-33.13-3.69q-8-2.15-16-4.5c-2.48-.73-5-1.42-7.45-2.19-3.7-1.15-4.72-1.37-3.42-5,3.29-9.17,9-17.78,13.11-26.64q2.46-5.34,4.61-10.82c1-2.48,1.89-5,3-7.42,1.24-2.78.83-3.15,3.8-3.05,8.6.29,16.12,1.09,24.56-1.36a49.8,49.8,0,0,0,21.24-12.34c.82-.82-.46-2.11-1.28-1.28-12.47,12.63-30.68,18.5-47.78,12.08a1.11,1.11,0,0,0-1.34.76c-3.57,9.36-5.78,19.06-9.93,28.28-3.93,8.73-9.05,16.81-13.71,25.16a.91.91,0,0,0,.54,1.33c18.31,3.95,36.49,12.2,55.43,12.45a51.85,51.85,0,0,0,22-4.43c6.77-3.07,11.79-7.93,17.42-12.62,5.26-4.39,28.82-13.42,20.68-23.87-2.68-3.43-7-6.49-10.17-9.58-3.51-3.44-7.09-6.78-10.74-10.07-7.27-6.55-14.56-13.08-22-19.46a0,0,0,0,0-.05,0Z"/><path class="cls-2" d="M360.29,431A74.82,74.82,0,0,1,374,446.41a7.63,7.63,0,0,1,1.41,3.06,12.08,12.08,0,0,1-.56,4.06c-1.3,6.67,2.92,14.21-.56,20.05-1.75,2.94-5,4.56-8.12,6-8,3.77-16.49,7.61-25.33,7.08s-18-7.05-18.24-15.91c-.05-1.84.29-3.66.37-5.5.19-4.42-1.09-8.8-.83-13.21.41-7,4.78-13.34,10.65-17.08s13.09-5,20-4.58A43.75,43.75,0,0,1,365,433"/><path class="cls-2" d="M360.17,431.08c5,5.43,12.38,11.58,13.58,19,.52,3.24.23,6.31.54,9.58.37,3.8,1.15,7.14.21,10.92-1.82,7.28-12.31,10.56-18.72,12.86-7.42,2.67-15.87,3.91-23.19.22s-9.62-9.55-9.34-17.51c.25-7.31-1.82-13.94,1.53-21,7.69-16.13,25.52-14.5,40.11-12,.32.06.57-.38.23-.56-13.51-7-35-2.95-41.78,11.7a18.44,18.44,0,0,0-1.59,9.88c.23,2.95,1,5.83,1,8.8,0,2.58-.6,5.14-.49,7.71.26,6.15,4.33,11.26,9.63,14.11,6.92,3.73,14.88,2.75,22.08.42,6.39-2.06,17.15-5.23,20.81-11.44,1.82-3.08,1.49-6.57,1.16-10-.27-2.77-.83-5.41-.62-8.21.15-1.89,1.23-4.36,1-6.19-.83-7-10.77-15-16-18.65-.16-.12-.33.12-.21.26Z"/><path class="cls-2" d="M428.31,441.86c-6,2.68-15.59,4.52-22.11,5.12a11.73,11.73,0,0,1-5.86-.56c-5.77-2.6-4.67-11-7.19-16.82-3.15-7.24-11.86-9.9-19.54-11.72l-18.42-4.38c-3.3-13.61,5.39-27.2,6-41.18.37-7.84-1.68-16.32,2.21-23.14,19.65.39,24.74,3.7,43.35,10"/><path class="cls-2" d="M428.24,441.62a58.55,58.55,0,0,1-11,2.79c-3.75.67-9.27,2.68-13,2-10.54-1.77-7.26-12.74-11.86-19.48-3-4.46-8.2-6.7-13.16-8.32-4-1.3-8.17-2.23-12.28-3.2-2.14-.52-4.87-.82-6.91-1.63-3.42-1.37-4.28-3-4.78-6.78-1.11-8.32,3.6-18.82,5.39-26.92,1.71-7.69.5-15.22,1.3-23,.86-8.29,5.95-7.32,12.17-6.67a70.56,70.56,0,0,1,11.26,2.05c7.23,1.95,14.22,4.83,21.28,7.27.8.27,1.15-1,.35-1.28-14.63-5-27.94-9.61-43.53-10.09a.73.73,0,0,0-.63.36c-5,10.21-1.1,22.35-3.55,33.27s-7.05,20.28-4.84,31.63a.81.81,0,0,0,.56.56c9.4,2.24,20.16,3.42,28.94,7.59a17,17,0,0,1,9.67,11c.91,3.15,1,6.57,2.35,9.59,5,11.12,24.71,3.18,32.49-.35.25-.11.07-.55-.19-.45Z"/><path class="cls-2" d="M328.93,421.07a87.44,87.44,0,0,0-17.09-27.49,21,21,0,0,1-3.08-3.85,29.31,29.31,0,0,1-2-5.7c-2.05-6.62-6.55-12.15-11-17.5-14.6,7.15-26.21,19.07-37.5,30.75a15.16,15.16,0,0,0-3.51,4.75c-.78,2-13.07,17.82-10.92,17.64,8.73-.71,15.13-4.32,14.45,14.41-.17,4.48,3.59,8.2,5.44,12.28a113,113,0,0,1,9.3,33.77c10-5.69,24.36.12,33.14-7.3-3.54-10.72.43-22.32,4.37-32.9,1.59-4.28,3.23-8.64,6-12.24s7.05-6.38,11.62-6.3"/><path class="cls-2" d="M329,421.05a76.06,76.06,0,0,0-15.9-27.22c-4-4.53-5.3-9.53-7.92-14.79-2.35-4.73-5.63-8.86-8.91-13a.66.66,0,0,0-.79-.1,94.89,94.89,0,0,0-21.05,14.41c-6.34,5.63-13.53,11.81-18.58,18.65-2.49,3.38-4.58,7.22-7,10.7-1.11,1.62-6.3,7.28-5.73,9.51.39,1.5,1.53.83,3,.69,2.18-.22,4.79-1,7-.39,3.82,1,4.43,5.09,4.74,8.52.3,3.28-.3,6.63.84,9.79s3.38,5.72,4.84,8.65c5.18,10.41,7.73,22.17,9.09,33.63a.45.45,0,0,0,.67.39c10.52-5.2,23.58,0,33.28-7.08a.75.75,0,0,0,.32-.8c-2.59-9.38-.81-18.17,2.29-27.2,3.22-9.41,7.27-22.47,19.07-23.28,1-.07,1-1.61,0-1.54-9.76.7-14.22,8.73-17.4,17a108.47,108.47,0,0,0-5.77,18.54,47.24,47.24,0,0,0-.82,6.81c-.09,2.45.94,5.51.65,7.87-.76,6.19-11.89,5.8-16.7,5.94a65.85,65.85,0,0,0-7.43.45c-1.52.21-5.17,2-6.22,1.63-3-1.09-3.19-10.79-4-13.8A111.35,111.35,0,0,0,265,448.37c-1.25-2.88-3-5.37-4.38-8.16-2-4.07-1.65-7.1-1.87-11.26-.13-2.6-.29-5.9-2-8.07C253.8,417,250,419.44,246,419c-2.29-.28-1.66.17-.6-2A29.54,29.54,0,0,1,248,413c2.06-3,4.28-5.87,6.29-8.89,6.12-9.15,14.53-17,22.94-24.11,3.68-3.12,14.11-13.51,19.46-11.46,2.45.94,5.91,7.55,7.25,10,1.84,3.37,2.3,7,3.75,10.42,2.14,5.08,7.12,9,10.3,13.4a131.58,131.58,0,0,1,10.84,18.73.09.09,0,0,0,.17-.07Z"/><path class="cls-3" d="M28,123.51c12.6,6.25,26.84,3.28,36.25-7.41,4.15-4.71,6-11.4,7.13-17.45C72.7,91,67.88,85.41,67,78c-.74-6.23-1.07-12.21-4.58-17.62A24.29,24.29,0,0,0,46.73,50C33.09,47.3,19,56.52,11.08,67,1.91,79.08.63,92.09,4.15,106.54c2.13,8.71,4,17.46,6.52,26.08,2.18,7.56,3.74,13.74,10.58,18.18,13.7,8.9,26.31,17.67,36.92,30.31C69,194.06,76.16,209.5,88,221.69c5.86,6,13,12.84,20.62,16.65,6.11,3.07,11.08-.07,16-4.05,6.5-5.31,12.23-11.77,15.32-19.7,2.95-7.6,3-17.64,2.12-25.57a1.35,1.35,0,0,0-2.7,0c-1.57,12.43-7.72,23.42-14.25,34-1.61,2.6-3.35,5.54-5.73,7.55-5.05,4.26-7.73,2.39-11.68-.44a104.72,104.72,0,0,1-15-13.1c-8.81-9.3-14.68-20.3-21.78-30.84a132.89,132.89,0,0,0-22.52-25.64,137.8,137.8,0,0,0-12.65-9.84c-5.11-3.51-12.43-5.8-15.42-11.42-2.84-5.32-4-12.11-5.49-17.91-1.91-7.59-3.93-15.19-4.59-23C9.31,87,12.36,75.42,20.51,67.11,29.92,57.52,44.47,54,54.86,64c5.79,5.56,5.38,12.13,6.12,19.52.55,5.39,3.42,10.74,3.12,16.12-.34,6.08-5.75,14.76-10.86,18.11-6.36,4.18-17,4.72-24.07,2.89-1.69-.44-2.89,2.09-1.22,2.92Z"/><path class="cls-3" d="M71.21,167.08c2.54,2.39,5.92,2,9.22,1.6,4.12-.46,8.65-.46,11.07-4.34,2-3.22,1.53-8.08,2.8-11.83A41.62,41.62,0,0,0,97,137.73c0-4.51-7.17-4.5-7,0a68.52,68.52,0,0,1-.46,10.12c-.19,1.87-.65,6-2.45,7.45-.71.56-2.48.62-3.41,1.2-2.48,1.58-3,4.31-5.53,5.65s-5,1.07-6.92,3.46a1.05,1.05,0,0,0,0,1.47Z"/><path class="cls-3" d="M68.73,97.48a71.56,71.56,0,0,0,15,22.4c2.77,2.76,5.85,5.81,9.22,7.84,2.67,1.62,5.5,1.64,8.29,3.13a50.37,50.37,0,0,1,5.4,3.79c4.25,3.09,8.41,6.11,12.4,9.52,3.23,2.75,6.73,6.25,10.42,8.34,2.33,1.32,3.56,1.74,5.24,4.2a29.35,29.35,0,0,1,3.58,7.2c1.3,3.86,1.69,7.9,3.42,11.63a1.55,1.55,0,0,0,2.65,0c3.72-7.34-.05-16.74-4.13-23.2-2.3-3.65-3.73-7.49-7.26-10.14-4.09-3.07-8.24-4.27-13-5.84a56.54,56.54,0,0,1-15.07-7.47c-3.36-2.53-4-5.3-6.66-8-1.52-1.56-3.4-2.82-5.07-4.22-3.64-3-7.16-6.05-11-8.77-4.63-3.25-8.52-7.33-13.1-10.58-.13-.08-.33.07-.27.21Z"/><path class="cls-3" d="M138.9,113.07a.13.13,0,0,0,0-.25.13.13,0,0,0,0,.25Z"/><path class="cls-3" d="M141.11,110.87c-4-6.29-8-12.24-10.85-19.18-3.77-9-7.13-18.08-.76-26.8,4.21-5.76,7.37-10,8.35-17.31,1-7.7,2.48-15.24,3.18-23l-3.32,3.33c7.79-.24,13.52-4.94,20.13-8.52s13.46-5.47,20.92-4.5c6.66.87,14.17,2.87,19.74,6.71,4.71,3.23,8.42,9.94,14.71,10.19,2.32.09,4.22-1.41,6.71-.14,3.65,1.86,2.27,3.89.73,5.9-2.23,2.92-3.31,6.35-4.77,9.69-1.37,3.17-4.24,6.41-5.08,9.73-.49,1.94.38,3.46-.64,5.09-1.16,1.84-4.58,3.13-6.61,3.76-7.6,2.34-16.7.82-24.52.38-8.17-.46-17.29,1.4-24.52-3.29-2-1.3-3.72,1.47-2.38,3.08,11.75,14.11,38.09,13.38,53.36,6.85,3.78-1.62,7.73-4.85,11.6-6,2.63-.76,4.45-.27,6.74-2.31,1.86-1.66,3.26-4.47,4.39-6.66,2.1-4.08,4.13-8.7,4.45-13.35.2-3-.57-4.38-1.9-6.83-1.13-2.07-1.83-4.45-3-6.51-1.84-3.27-4.67-6.06-8.52-6.69-1.09-.18-2.53.33-3.48,0-1.83-.58-2-2.16-3.32-3.78-5.08-6.28-13.69-11-21.29-13.43-7.95-2.57-17.1-1.85-25.16-.14A38.54,38.54,0,0,0,153.54,12c-5.21,3.33-9.22,8.79-15.83,9.22a3.43,3.43,0,0,0-3.32,3.32c-.61,5-1.23,10-2.31,15-.93,4.26-2.82,7.62-4.67,11.51-3.44,7.27-8.57,14.85-10,22.84-1.55,8.62-1.07,15.71,3.82,23.09,4.3,6.49,11.25,11.86,17.7,16.08a1.61,1.61,0,0,0,2.19-2.18Z"/><path class="cls-3" d="M196.6,75.15a41.19,41.19,0,0,0,.45,10.09c.41,3.41.4,3.26-1.84,5.65a60.51,60.51,0,0,1-12.09,10.53c-2.57,1.6-5.42,2.6-8,4.1-2.2,1.27-3.75,3-6.33,3.67-5.94,1.66-11.14-1.43-16.89-1.82a1,1,0,0,0-.9,1.57c3,5.4,9.84,6.22,15.53,6.54,3.55.19,7.83.83,11.38.34,3.83-.53,7.6-2.7,10.92-4.63,5.57-3.22,14.61-7.65,17.41-13.86,1.75-3.9-.53-6.77-1.32-10.59-.92-4.48-1.36-8.85-3.63-12.86-1.34-2.39-4.4-1-4.69,1.27Z"/><path class="cls-3" d="M129.21,104.23c-4.68,3.88-3.43,13.63-3.1,19.06a61.83,61.83,0,0,0,5.37,22.44c4.85,10.28,13.32,26.74,27,25.05,1.45-.18,2.59-1.95,1.3-3.15-8.66-8-15.15-17.3-20.95-27.57-3.83-6.78-5.23-13.71-5.88-21.44-.39-4.65.63-11-3.1-14.39a.46.46,0,0,0-.61,0Z"/><path class="cls-3" d="M150.23,124.59c5.17,12,10.4,26.15,22.64,32.76a48.64,48.64,0,0,0,17.47,5.57c4.88.46,12.92,2.13,16.78-1.47a.88.88,0,0,0-.17-1.35c-1.88-1.44-2.45-1.31-4.8-1.55-4.13-.42-7.08-1.73-10.71-3.59-5.82-3-9.39-7.29-14.09-11.69a175.64,175.64,0,0,0-25.44-20.36c-1.15-.73-2.12.66-1.68,1.68Z"/><path class="cls-3" d="M198.24,98.58c-1.11,4.85,2.69,9,4,13.63,1.43,5,1.54,9.91,3.47,14.9,2,5.2,6.09,8.35,6.67,13.88.55,5.2-1.51,10.84,1.88,15.3a2.21,2.21,0,0,0,2.94.77c5-2.84,5-8.49,4.91-13.68,0-3.21-.89-6.7-.58-9.86s1.45-5.2.56-8.62c-1.63-6.26-5.68-10.32-10.37-14.3-4.31-3.65-6.88-11-12.41-12.63a.89.89,0,0,0-1.06.61Z"/><path class="cls-3" d="M213,163.09a.07.07,0,0,0,0-.13.07.07,0,1,0,0,.13Z"/><path class="cls-3" d="M20.28,126.35c-2.08,2.78,2.45,9.42,3.92,11.73,2.83,4.46,6.77,7.75,12,8.64a1.74,1.74,0,0,0,1.68-2.87c-2.92-3.6-6.4-6.36-9.8-9.5a37.35,37.35,0,0,1-4.87-5.63c-.81-1.12-1.36-2.22-2.81-2.42a.13.13,0,0,0-.14,0Z"/><path class="cls-3" d="M222,147.75c8.6-7.66,12.84-20.39,16.17-31.15,1.82-5.85,3.21-11.79,4.5-17.78s2.7-12.34,7.51-16.58c4.25-3.76,10-4.57,15.43-5.57,6.23-1.16,12.67-2.37,19-2.55,13.84-.39,25.28,5.5,32.49,17.24,6,9.79,9,21.63,12.07,32.62,2.5,9,3.61,15.88,10.89,22.1,5.48,4.69,11.55,11.91,4.5,18.37-6.33,5.8-17.31,6.81-25.44,6.88a63.75,63.75,0,0,1-14.45-1.39c-4.73-1.05-7.93-3.67-12.06-6-3.82-2.19-8.47-3.07-11-7-3.3-5.23-2.57-12.61-2.64-18.49,0-1-1.5-1.52-1.95-.53-3.82,8.46-6.91,22.11.08,29.94,3.18,3.56,8.72,5.15,12.81,7.43a37.52,37.52,0,0,0,14.84,5,74.25,74.25,0,0,0,32.68-4c7.35-2.67,15.73-7.24,17.45-15.54,2.21-10.7-5.13-16.45-10.9-24-3.53-4.59-4.17-10.87-5.82-16.31a101.74,101.74,0,0,0-8.27-20.13,95.64,95.64,0,0,0-10.71-15.6c-4.45-5.21-9.32-10.91-14.83-15-11.7-8.72-28.11-5.37-41.2-1.83C249.2,71.61,239.67,79.76,236.34,94c-2.08,8.88-3.87,17.71-6.84,26.37s-7.45,17.52-8.78,26.67a.74.74,0,0,0,1.23.72Z"/><path class="cls-3" d="M245.44,120.39c-2.23,5.94,6.55,15.52,10.68,19.21,6.1,5.46,13.88,9.16,21.75,5,1.87-1,1.18-3.52-.54-4.16-6-2.23-12.23-4.69-17.13-8.92-4.35-3.75-8.42-7.78-12.6-11.66a1.31,1.31,0,0,0-2.16.56Z"/><path class="cls-3" d="M234.59,155c2.4,5.13,7.4,9.22,11.52,13s8.5,7.94,14.31,9.2c10.95,2.37,26,2.24,32.54-8.12a2.28,2.28,0,0,0-1.36-3.33c-10-2.28-19.05,2.5-29.15,2.73-11.15.26-18-9.58-27-14.32a.62.62,0,0,0-.85.84Z"/><path class="cls-3" d="M321.52,178.64c-3.87,4.3,2.08,10.35,5.18,13.28,5.16,4.88,11.16,10.08,18.71,9.68,6.27-.33,7.61-9,1.49-11-5-1.59-10.64-1-15.18-3.91-3.51-2.26-5.42-6.91-9.3-8.31a.9.9,0,0,0-.9.24Z"/><path class="cls-3" d="M337.09,119.41c4.86,13.27,12.92,24.42,25.68,31.21a198.33,198.33,0,0,0,18.42,8.43c2.91,1.18,8.17,2.14,10.14,4.62,2.12,2.69,2.61,7.35,3.82,10.6,3.24,8.66,3.89,18.06,5.71,27.11,1,4.85,2.44,9.54,2.47,14.53,0,4.61-.77,9.19-.75,13.81a46.86,46.86,0,0,0,.92,11c.8,3.21,2.7,5.86,3.75,9,1.37,4.1,2.84,8.09,4.57,12.06,1.39,3.2,4.24,6.94,4.85,10.36l1.11-4.19-1,1.12,3.48-1.44c-4.75.21-5.76,2.63-8.43,5.9-3.1,3.81-9.22,5.16-13.93,5.61-8.9.85-19.34-2.21-25.15-9.3-10.14-12.37-11.14-33.23-3.68-47a1.91,1.91,0,0,0-3.29-1.92c-8.58,13.16-10.75,35.37-2.88,49.29,9.29,16.43,31.79,20.39,48.29,13.49,3.74-1.57,9.49-2.34,12.28-5.49,3-3.37,2-8.56-.25-12-3.42-5.38-6.74-10-8.79-16.2-1.71-5.17-1.16-11.57-1.43-17.06-.29-6.11.85-12.13.68-18.22s-1.82-12.49-3.42-18.48c-1.67-6.23-4-12.48-5.22-18.81-1.25-6.49-1-11.39-4.71-17.09-3.27-5-6.46-10.25-12.26-12.62s-12-2.34-17.87-4.69c-12.08-4.88-24.1-13.66-31.88-24.15-.42-.56-1.53-.26-1.24.52Z"/><path class="cls-3" d="M343.2,180c.23,5.21,2,10.31,2.64,15.52s1,10,2.05,15c.78,3.73,1,8,4.15,10.63s7.58,3.86,11,6.23a1.42,1.42,0,0,0,2.07-1.59c-1.39-3.59-3.37-6-5.73-8.93-2.81-3.5-1.84-6.85-2.34-11.26-.94-8.22-4.84-20-9.89-26.65-1.16-1.54-4.1-1.28-4,1.08Z"/><path class="cls-3" d="M267.19,186.65c7.17,4.85,14.93,8.5,22.72,12.24,7.15,3.43,13.88,7.47,21.38,10.23,6.13,2.26,12.08,3.12,18.52,1.75a32.44,32.44,0,0,0,9.24-3.32c3.61-2.06,6-5.59,9.38-8.05,1.81-1.33.25-4.23-1.79-3.07-3.14,1.76-6.45,2.08-9.85,2.93-2.83.72-5.46,2-8.37,2.43-7.11,1.14-13.42-1.43-20-3.78s-13.25-3.87-19.86-6a149.22,149.22,0,0,0-21.32-5.59.13.13,0,0,0-.09.23Z"/><path class="cls-3" d="M280.19,210.05c8.52,2.77,17.74,5.58,25.38,10.39,6.44,4,11.72,10.14,19.48,11.83,10.46,2.28,29.94,2.06,35.26-9.17.62-1.31-.44-3.3-2.08-2.71-12,4.31-27.48,7.9-38.83.32s-25.52-12.15-39.2-10.78a.06.06,0,0,0,0,.12Z"/><path class="cls-3" d="M111.64,236.45c-1.76,14.25,7.52,27.71,20.29,33.83,16,7.65,35.22,3.71,50.93-2.67,8.65-3.52,16.78-8.56,25.86-10.94,10.76-2.81,20.06,1.07,30.66,1.76,9.15.59,17.84-2.58,26.33-5.56,10.05-3.52,20.4-5.66,31.07-4.49,10,1.1,21,7.28,31.13,5.06,7.79-1.71,12.71-8.28,10.47-16.08-.81-2.81-5.58-2.41-5.3.72,1.26,14.29-24.8,4.62-31.65,3.93a97.92,97.92,0,0,0-28.79,1.32c-10,2-19.56,7.39-29.82,7.79-10.46.4-20.12-6-30.56-4.61-19.84,2.62-35.28,18.37-55.17,21.84-22.68,4-38.82-11.26-44.36-32a.56.56,0,0,0-1.09.14Z"/><path class="cls-3" d="M125.09,264.25c2.58,6.32,5.5,11.82,6.47,18.68s2.33,14.18,2.23,21a34.29,34.29,0,0,0,2.47,14.41c2.39,6.71,3.05,13.33,4.31,20.26.49,2.69,4.56,2.45,5.21,0,1.65-6.3.94-14-.85-20.24-.84-2.91-2.59-5.58-3.32-8.49-.81-3.23-.2-7.17-.09-10.5a41,41,0,0,0-3.9-18.47c-2.79-6.08-5.73-12.95-10.06-18.08-.92-1.08-3,.08-2.47,1.44Z"/><path class="cls-3" d="M199.37,281.05c-10.37.08-19.55,2.33-28.26,8-3.49,2.27-6.32,3.71-9.24,6.74-3.88,4-7.09,9-11.2,12.76a5.71,5.71,0,0,0-1.45,5.5c.91,4-.57,9.27-1.09,13.31-.59,4.55-1.51,9.22-1.26,13.79,0,.83,1.31,1.37,1.71.47,2.74-6.1,3-13,5.52-19.15,1.39-3.42,4.44-5.2,6-8.42a51.87,51.87,0,0,1,6.09-9.42c3.9-5,7.5-11.25,13-14.43,6.24-3.6,13.64-4.79,20.46-6.86a1.17,1.17,0,0,0-.31-2.29Z"/><path class="cls-3" d="M121.69,331.6c8.5,3.14,16.85,5.25,24.45,10.48,6.37,4.38,11.73,11.62,18.86,14.52,2,.81,3.49-1.47,3.17-3.17-1.56-8.34-12-14.89-19.16-18.28-8.18-3.87-17.81-7.27-27-6.08a1.29,1.29,0,0,0-.35,2.53Z"/><path class="cls-3" d="M140.55,362.74a44.6,44.6,0,0,0-8.13-26.14c-5.66-8.35-11.84-16.22-21.24-20.39-19.49-8.64-43.51-3.29-60.12,9.48-8.2,6.3-11.82,13.4-13,23.63-1.05,9.32.16,18.58,6.54,25.85,6.8,7.75,17,11.62,26.37,15.16,13.1,4.92,25.86,10,39.57,13,6.7,1.49,13.47,2,20.3,2.51,5.24.42,13.29,2.87,17.91-.75,2.05-1.61,3-4.44,4.81-6.33s3.79-3.33,5.38-5.42c2.94-3.86,4.67-8.23,4-13.1-.28-2.07-3.69-3.13-4.1-.56-.82,5.13-2.94,12.82-8.57,14.85-2.31.83-4.47-.58-6.88-.15-3.22.58-5.69,2.9-9,3.45-6.06,1-12-2-17.51-3.92A201.12,201.12,0,0,0,97.25,388c-18.22-4.24-60-7-53.79-36,1.2-5.63,4.54-8.18,7.78-12.47a48.17,48.17,0,0,1,10.71-11c9.64-6.74,20.24-7.82,31.61-6.44a64.21,64.21,0,0,1,28.66,11.34C131.47,340,136.44,352.3,139,363a.8.8,0,0,0,1.56-.21Z"/><path class="cls-3" d="M109,390.14c5.74.52,9.92,5.59,15.67,6.27,3.63.42,8.39-.28,9.76-4.11a1.07,1.07,0,0,0-.73-1.28c-3.9-1.53-8.92.44-13.15-.34s-7.33-2-11.6-.9c-.21.05-.15.34,0,.36Z"/><path class="cls-3" d="M141.72,405.4c8.79,7.42,20.23,4.37,30.4,8.05,6.26,2.27,11.9,6,18,8.57,5.86,2.49,12.31,3.32,18.47,4.79,20,4.79,53.13,4,60-20.7a2,2,0,0,0-2.88-2.22c-4.86,3.24-7.95,8.28-12.7,11.63a26.48,26.48,0,0,1-15.84,4.64c-5.71-.09-11.43-.4-17.16-.53s-11.94.43-17.52-1c-10.44-2.61-19.16-9.6-29.3-13-9.74-3.26-20.46.6-29.8-3.15-1.58-.63-2.94,1.8-1.67,2.88Z"/><path class="cls-3" d="M288.41,264c.4,5.06,4.39,9.1,7.28,13.07a193.7,193.7,0,0,1,10.64,16.29,128.88,128.88,0,0,1,9.18,18.59c1.05,2.74,1.89,5.52,2.79,8.3,1.09,3.37,3.37,6.23,3.28,9.83-.29,11.78-6.26,25.38-12.75,34.84-6.94,10.12-18.92,17.53-31.38,17.94-1.76.06-2.74,2.67-.95,3.55,11.64,5.71,24.68,1.91,33.56-7.3,10.15-10.53,14.77-26.39,17.06-40.52a51.61,51.61,0,0,0,.61-8.51c0-4.45,1.16-8.1-.24-12.36-2.29-7-6.8-13.63-10.42-20a188.61,188.61,0,0,0-13.89-21.06c-3.61-4.76-7.92-11.85-14.14-13.13a.51.51,0,0,0-.63.48Z"/><path class="cls-3" d="M321.85,352.88c7.9,8.64,23.75,11.87,35,11.88,6.58,0,12.83.35,18.58-3.49,2.65-1.77,3.32-3.57,4.71-6.1,1.83-3.34,4.86-6.25,7.4-9.18,8.38-9.67,17.1-19.8,19.62-32.71,1.86-9.54-.69-22.48-7.78-29.49-.31-.31-.74.08-.58.44,5.11,11.2,4.54,21.16-.25,32.38a85.67,85.67,0,0,1-17.17,26.17c-2.55,2.61-4,3.83-7.67,5a28.77,28.77,0,0,0-5.17,1.72c-5.18,2.66-8.9,6.65-15,6.9-5.74.23-11.5-1-17-2.38-4.68-1.13-9-3-13.91-2.81a1,1,0,0,0-.69,1.68Z"/><path class="cls-3" d="M393.23,334.55c3.17,10.62,6.36,21.12,9,31.88,1.13,4.54,2,9.38,3.75,13.71,2.34,5.74,4.66,11,6.15,17.11,5.25,21.44,8.46,43.35,14.71,64.55,6.61,22.43,16.09,43.9,20.14,67.05,4.17,23.86,4.29,48.29,5.07,72.44.43,13.17.46,26.34.29,39.52-.09,6.66-.19,13.32-.54,20-.33,6.47-1.2,13.42.52,19.73.85,3.1,5.79,4.16,7.3,1,4.8-10.17,3.06-23.46,2.6-34.4-.5-12-1.69-24-2.24-36-1.13-24.46-1-49-4.27-73.34-3.05-23.12-10.94-44.32-18.3-66.3s-11.93-44.41-16.4-67c-1.34-6.81-3-13.66-3.5-20.58a67.58,67.58,0,0,0-3.14-17.18c-3.89-11.83-9.49-23.88-16.92-33.91-1.47-2-5.07-.93-4.26,1.8Z"/><path class="cls-3" d="M255.63,423.55c-.3,9.13,1,18.18,2.45,27.16,1.8,10.75,6.14,20.63,7.5,31.39,2.42,19.23,3.69,38.77,4.44,58.13a148.46,148.46,0,0,1-1,27.48c-.67,4.56-1.68,9.08-2.77,13.55-1,4-2.74,6.93-3.44,11.06-2.89,16.91-5.47,36.92-14.71,51.71-5.54,8.88-34.43,30.28-16.15,40.33,8.6,4.72,19.12-2.42,23.72-9.53S260.35,658,262.31,650c4.28-17.38,11.37-33.7,14-51.56.32-2.15.75-4.36.91-6.54.18-2.55-.36-3.55-.68-5.9-.47-3.33-.11-7-.23-10.35q-.48-14-.29-28c.33-21.5-2-42.48-5.51-63.65-1.93-11.59-1.12-22.93-3.33-34.48-1.71-8.92-3.25-19.7-9.06-27-.84-1.07-2.47-.12-2.51,1Z"/><path class="cls-3" d="M0,101.92c1.78,13.6,2.28,28.21,6.72,41.29,4,11.9,14.16,17.36,23.69,24.48,11.7,8.74,23,18.52,31.72,30.33,3.8,5.15,6.77,10.8,10.16,16.21a33.13,33.13,0,0,0,10.57,10.85c.18.13.36-.14.22-.29-8-8.93-12-20.74-18.38-30.75-6.18-9.7-15.36-17.55-24.41-24.5-10.69-8.2-25.42-12.89-30.79-26.19C7,137.23,6.08,130.6,4.88,124.15c-1.4-7.48-3.16-14.82-4.75-22.25,0-.07-.14-.06-.13,0Z"/><path class="cls-3" d="M.39,94.32c1.5-10,3.58-20.57,8.73-29.4s14-9.2,21.33-14.94c.26-.2,0-.64-.26-.63C8.64,49.85.52,76.93.27,94.3c0,.07.11.09.12,0Z"/><path class="cls-3" d="M41.21,46.26c7.89,1.8,16.73,4.68,22.15,11a33.42,33.42,0,0,1,5.77,10.88c1.17,3.33,3.2,7.54,3.92,10.9.12.54,1,.31.83-.23-1-4.58-.73-8.68-2.45-13.29a33,33,0,0,0-6-10.37c-6.42-7.21-15.31-7.86-24.25-9-.07,0-.08.11,0,.12Z"/><path class="cls-3" d="M71.13,82.08C71.42,93,73.82,99.3,82.54,106c12.42,9.46,24.66,19.15,36.9,28.77,1.56,1.23,4.94.7,4.61-1.91-.57-4.39-1.52-8.67-.75-13.12.53-3.1,2.09-6.09,2.51-9.18.57-4.27-1.56-6.72-5.54-7.56-.32-.07-.57.4-.23.56,8,3.8-.34,22.71-1.29,28.59l4-1.62c-10-7-20.3-14-30.28-21.28-4.83-3.53-10.77-6.78-14.54-11.47-3.62-4.51-4.51-10.28-5.31-15.85-.12-.82-1.47-.62-1.45.2Z"/><path class="cls-3" d="M116.33,95a45.44,45.44,0,0,1-2.19-21.32C115.2,66,119,60.52,122.57,54a.49.49,0,0,0-.77-.59c-10.61,10.08-11.1,29.07-5.69,41.65a.12.12,0,0,0,.22-.09Z"/><path class="cls-3" d="M128.19,34.33c.25-4.79,1.17-11,5.11-14.2,2.66-2.19,7-.85,9.09-3.46.17-.23,0-.61-.3-.52-4.2,1.26-8.08.79-11.14,4.45-3.37,4-2.89,8.8-2.89,13.73a.07.07,0,0,0,.13,0Z"/><path class="cls-3" d="M153.05,10.7c3.16-4.93,12.59-5.68,17.88-6.62,6.73-1.18,14-2,20.62,0,5.52,1.63,10,4.92,14.5,8.39,3,2.32,5.31,5.4,8.37,7.56,3.3,2.33,6.59,2.89,10.2,4.19,6.3,2.28,9.51,8.84,11.07,14.92C238.49,50,237,58.76,230.78,68c-.58.86.65,1.64,1.35,1,8.05-6.78,9-20.25,6.54-29.78-1.31-5.06-3.27-10.86-6.69-14.88-3.77-4.43-10.38-7.47-15.72-9.49-10.93-4.14-19-13.65-31.37-14.76C177.05-.56,169.46,1.5,162,3.78c-4,1.23-7.61,2.7-9.08,6.87,0,.07.07.1.11,0Z"/><path class="cls-3" d="M216.17,73.4c-3.27.75-7.2,1.34-8.84,4.62-2.15,4.32.83,8.78,2,12.87,1.46,5-2.43,8.31.61,12.94,1.59,2.42,4.33,4.31,6.33,6.37,2.64,2.71,5,5.53,7.6,8.3a.37.37,0,0,0,.63-.26,20.48,20.48,0,0,0-3.86-10.1,28.74,28.74,0,0,0-3.74-3.9,8.28,8.28,0,0,1-4.12-5.44,6.27,6.27,0,0,0,.7-2.1,15.65,15.65,0,0,0-1.29-7.62,52.79,52.79,0,0,1-2.5-5.54c-1.53-5.26,2.12-8.23,6.52-9.91a.12.12,0,0,0-.07-.23Z"/><path class="cls-3" d="M231.06,102c.5-6.52,1-14,4.22-19.79,3.48-6.26,10.58-9.52,16.84-12.4a129.53,129.53,0,0,1,19.25-7.53c6.69-1.86,13.68-1.38,20.21-3.13a.43.43,0,0,0,.1-.78c-6.16-3.07-14.87-1.43-21.33.2-8.28,2.08-15.69,5.77-23,10.14-5.83,3.49-11.56,6.79-14.52,13.2s-2.51,13.3-2,20.09a.12.12,0,0,0,.24,0Z"/><path class="cls-3" d="M293.21,59.15C308.9,63.74,324.8,77.87,332.89,92c6.27,10.93,8.07,26.34,18.57,34.44.3.23.69-.21.5-.5-2.13-3.41-4.26-6.17-5.82-10-1.7-4.15-3.36-8.29-5-12.47-2.55-6.61-5.47-13-9.91-18.62-9.67-12.11-22.55-22.74-37.81-26.55a.43.43,0,0,0-.23.83Z"/><path class="cls-3" d="M358.2,132.37c5.87,7.06,16.83,9.34,25,12.56,11,4.33,18.37,9.73,24.09,20.19a1.06,1.06,0,0,0,1.95-.53c-.06-9.68-9.51-16.37-17.46-20.09-5-2.33-10.39-3.6-15.65-5.14-6.27-1.84-11.87-4.69-17.89-7.09-.06,0-.09.06-.06.1Z"/><path class="cls-3" d="M411.25,172.14c1.08,11,2.43,21.83,2.47,32.86,0,10.24,1.25,20.64,1.84,30.88.45,7.75,1.4,15.85,5.63,22.57,3.75,6,17.54,18.9,5.35,24.35-1,.45-.49,2.12.56,2.06,6.17-.36,8.68-6.07,7.88-11.77-.48-3.43-2.33-6.28-4.36-9-4.16-5.58-8.05-10-9.5-17-2.47-12-.84-24.81-2.18-37-.68-6.15-2.4-12-3.32-18.06a168.75,168.75,0,0,0-4.24-19.9c0-.07-.14-.06-.13,0Z"/><path class="cls-3" d="M415.63,287.77c-2.93,0-4.79,1.18-7,3.06a1.67,1.67,0,0,0-.25,2c2.78,6.17,1.94,12.55,1,19-.64,4.33-1.76,8.7.59,12.59a.69.69,0,0,0,1.24-.16c1.48-3.55,1.6-7.49,2.44-11.25a61.47,61.47,0,0,0,1.72-8.93c.36-5.11-.74-9.61-4.4-13.24v2.31a25.46,25.46,0,0,1,5.08-3.77.86.86,0,0,0-.43-1.6Z"/><path class="cls-3" d="M407.72,334.37c1.24,16.65,10.7,31.09,13.65,47.42s2.72,33.48,11.66,47.87c.32.51,1.22.19,1-.42-5.23-15.41-5-31.7-8.42-47.46-3.56-16.35-13.88-30.56-15.45-47.41-.14-1.56-2.57-1.59-2.45,0Z"/><path class="cls-3" d="M435.73,451.1c.6,9.4,5.8,19.31,8.71,28.25,3.19,9.79,6.71,19.46,9.77,29.29a162.88,162.88,0,0,1,6.5,31c1.08,9.65.39,20.59,3.23,29.87.18.59,1.18.69,1.3,0,1.66-9.43-.33-20.43-1.52-29.87a234.7,234.7,0,0,0-5.6-29.51,255.93,255.93,0,0,0-10.36-30.35c-3.63-9.12-6.12-20.74-11.91-28.69,0,0-.12,0-.12,0Z"/><path class="cls-3" d="M464.22,576.36c-2.21,14.07-1.54,29.83.55,43.89.07.44.68.28.72-.1,1.54-14.06,1.6-29.87-1.15-43.79a.06.06,0,0,0-.12,0Z"/><path class="cls-3" d="M188.75,426.76c6.93,6.19,16.12,7.69,25.08,8.7,10.95,1.23,23.42,1.41,34.12-1.49l-2.68-1.09c2.4,5.1,3,11.45,4.2,16.94,1,4.63,2,9.26,3,13.89,2.06,9.7,4.11,19.35,6.91,28.87.06.19.39.16.36-.05-1-9.5-2.79-18.85-4.55-28.23-1-5.09-1.93-10.17-2.87-15.26-1-5.57-2.85-11.7-2.6-17.36a2.41,2.41,0,0,0-3-2.29c-9.85,1.51-19.07,3.31-29.12,2.94-9.19-.34-20.44-1-28.37-6.14-.35-.23-.76.29-.45.57Z"/><path class="cls-3" d="M260.05,503.6c4.58,30.25,6.26,64-4,93.26-4.7,13.43-11.21,26.38-17.45,39.15-5.84,12-12.89,23.14-22.13,32.77-1.17,1.21.37,3.43,1.86,2.41,11.09-7.58,18-18.83,23.84-30.67,6.61-13.36,12.74-27.28,17.11-41.54,9.35-30.49,5.91-64.38.89-95.41,0-.08-.13-.05-.11,0Z"/><path class="cls-3" d="M26.5,349.51c.18,6.05.32,10.56,2.74,16.4a55,55,0,0,0,10.22,15.93c8.89,9.75,20.44,16.45,32.71,21,14.44,5.4,29.85,8,44.93,10.9,7.63,1.49,15.31,4.12,23,5.15,3.79.51,7.65.55,11.42,1.19,4.49.75,8.71,2.54,12.9,4.3.06,0,.11-.08,0-.11-6.1-3.09-12.26-6-18.4-9s-12.86-3.74-19.65-4.88c-14.12-2.38-28.38-4-42.23-7.78-13.49-3.67-26.63-9.23-37.23-18.55S30.4,362.87,26.62,349.5a.06.06,0,0,0-.12,0Z"/><path class="cls-3" d="M41,327.25c25.17-23.84,64.47-26.82,89.79-1.48a2.84,2.84,0,0,0,4.71-2.74c-1.78-7.83-5.28-15.11-7.08-22.92-1.67-7.21-1.91-14.66-3.52-21.94-1.29-5.84-4.06-10.57-6.91-15.81a95.39,95.39,0,0,1-5.15-11.6c-1.21-3.15-2.72-5.09-4.19-8.07a.37.37,0,0,0-.68.19c.19,3.71-.3,5.32,1,9a72.85,72.85,0,0,0,3.27,7.53c3,6.15,7.45,11.21,10.8,17.13,4,7.05,3.4,17.2,3.64,25.11a83.38,83.38,0,0,0,3.4,22.92l4.7-2.73c-27.55-23.33-70.09-23.42-93.86,5.37-.05.06,0,.15.09.09Z"/><path class="cls-3" d="M331.66,329.17c-3,4.52-4.47,12.31-1.57,17.21a10.71,10.71,0,0,0,6.73,4.76,14.73,14.73,0,0,0,4.66.54c2.53-.22,4-1.43,6.65-.17.44.21,1.11-.27.75-.76a13.81,13.81,0,0,0-4.11-3.64c-2.41-1.47-5-1.13-7.47-2.28-5.34-2.51-2.54-10.36-2.21-14.73.14-1.94-2.51-2.35-3.43-.93Z"/><path class="cls-3" d="M123.51,238.59c12.71-11,22.15-27.1,23.18-44.13,0-.75-1.21-.94-1.33-.18-2.71,17.16-9.23,32-22.37,43.79-.36.32.16.83.52.52Z"/><path class="cls-3" d="M224.64,244.58c8.29,2.09,18,1,26.41-.2,8.94-1.23,19.37-3.69,27-8.73a1.29,1.29,0,0,0-1-2.35c-8.72,1.93-17.09,5.2-25.91,7s-17.67,1.38-26.5,2.61c-.87.12-.77,1.46,0,1.66Z"/><path class="cls-3" d="M203.27,416.55a.07.07,0,0,0,0-.13.07.07,0,1,0,0,.13Z"/><path class="cls-3" d="M397.24,532.63a39.93,39.93,0,0,1,5.89,0,.07.07,0,0,0,0-.13,42.88,42.88,0,0,1-5.89,0c-.09,0-.09.14,0,.13Z"/><path class="cls-3" d="M282.25,392.49c12.3.94,27.39,1.48,35.62-9.63,1.64-2.21,2.33-4.45,3.27-7,2.29-6.2,6.12-7.17,12.16-6.84,5.09.29,11.05,1.81,15.48-1.49a.37.37,0,0,0-.19-.68,128.77,128.77,0,0,0-17.77-1.21c-3.76.06-7.56.81-10.05,3.86-1.84,2.28-2,5-2.92,7.65a19.26,19.26,0,0,1-8.23,10c-8.18,5-18.11,4.75-27.37,4.47-.56,0-.55.82,0,.86Z"/><path class="cls-3" d="M389.18,353.83c2.5,9.81,4.57,19.88,7.9,29.45a1.11,1.11,0,0,0,2.13-.59c-1.7-10-4.75-19.82-7.3-29.62a1.42,1.42,0,0,0-2.73.76Z"/><path class="cls-3" d="M273.37,408.22a53.55,53.55,0,0,1-7.74,10.91c-1.91,2.08-2,1.77-1.73,4.55.88,9.58,4.44,19.3,7.16,28.45a1.35,1.35,0,0,0,2.6-.72c-1.39-8.78-4.08-17.58-5.22-26.34-.45-3.48,1.32-4.78,3.07-7.62a28,28,0,0,0,3.43-8.57.86.86,0,0,0-1.57-.66Z"/><path class="cls-3" d="M168.45,337.32c-3.39-3.77-6.78-5.17-11.9-5.33l1.82,1.83c-1.11-10.48,4-18.8,12-25,.77-.6-.07-2-1-1.64-10.81,3.94-16.15,15.75-14.7,26.68a1.87,1.87,0,0,0,1.82,1.82,23.82,23.82,0,0,1,10.94,2.93.8.8,0,0,0,1-1.25Z"/><path class="cls-2" d="M414.17,505.52c-4.05-4.24-8.43-8.18-12.74-12.14l-7.4-6.82c-1.62-1.49-3.61-4.27-5.56-5.11-2.13-.92-.92-1.38-3.47-.56-1.31.43-2.63,2.62-3.59,3.6a41.71,41.71,0,0,1-7.19,5.85,41.23,41.23,0,0,1-15,6.12c-6.64,1.16-11.92-1.12-18.31-2.17-4.37-.72-8.95.23-9.57,5.33-.11.87,1.15.89,1.42.19,2.86-7.41,11.18-3.37,16.43-2.46a30.85,30.85,0,0,0,9.15.15,37.45,37.45,0,0,0,16.33-6.43,57.88,57.88,0,0,0,6.62-5.26c2.25-2.07,2.22-3,5.67-2.46,3.12.53,4.23,1.84,6.44,3.86,6.79,6.23,13.45,12.7,20.62,18.48.12.1.29-.06.18-.17Z"/><path class="cls-2" d="M331.3,503.22c-2.74,6.49-4.36,13.29-7.5,19.68-2.81,5.72-6.38,10.88-9.91,16.16-.32.47.42,1.05.79.61,8.1-9.4,16-23.8,16.84-36.42,0-.13-.17-.13-.22,0Z"/><path class="cls-2" d="M363.91,418.63a55.22,55.22,0,0,0-7-1.5c-3.11-.52-5.65-.2-6.59-3.76-1.11-4.21-.11-8.42.08-12.66a.62.62,0,0,0-1.21-.17c-1.45,4.67-2,10.36,0,15,1.14,2.68,1.61,2.46,4.45,2.85a69.6,69.6,0,0,0,10.18.88.31.31,0,0,0,.09-.6Z"/><path class="cls-2" d="M380.37,472.17c-.43-5.9-.45-11,1.9-16.56,1.21-2.86,2-4.36.81-7.4-2.37-6.26-9.2-11.58-14.39-15.37-.17-.13-.37.14-.22.29a101.72,101.72,0,0,1,7.22,7.6c4.46,5.19,5.9,7.83,4.16,15-1.5,6.22-1.61,10.07.06,16.49a.24.24,0,0,0,.46-.07Z"/><path class="cls-2" d="M375.23,479.05c-11.56,10.87-27.76,14.43-42.39,7.82-8.08-3.65-14.94-9.21-15.44-18.56-.33-6.26.38-12.62-.6-18.81a.35.35,0,0,0-.68,0c-.79,4.65-.53,9.42-.63,14.13-.09,3.88-.7,8,.82,11.65,2.56,6.24,9.87,10.9,15.77,13.39a39,39,0,0,0,43.39-9.38.17.17,0,0,0-.24-.24Z"/><path class="cls-2" d="M351.94,427.05c-12.05-4.31-29.37,2.44-29.86,16.86a.49.49,0,0,0,.91.25c2.24-4.55,4.38-9.18,8.3-12.58,5.64-4.9,13.49-5.81,20.55-4.15a.2.2,0,0,0,.1-.38Z"/><path class="cls-2" d="M409.2,563.5l4.64-1a0,0,0,0,0,0,0l-4.64,1s0,0,0,0Z"/><path class="cls-3" d="M333,77.09c2.92,6.53,5.9,13,8.77,19.61s4.91,13.49,8.79,19.44a1.54,1.54,0,0,0,2.81-1.18c-1.16-6.83-4.6-13-7.68-19.18a165,165,0,0,0-11.42-19.43.74.74,0,0,0-1.27.74Z"/><path class="cls-3" d="M33.5,347.92a7.27,7.27,0,0,1-.06-7.26c1.14-2.18,3.07-3.16,5.2-4.13.72-.33.29-1.34-.37-1.38-6.46-.39-9.07,9-6,13.51.52.79,1.77.08,1.27-.74Z"/><path class="cls-3" d="M83.55,229.83A19.57,19.57,0,0,1,93.23,239c.75,1.47,3.06.15,2.22-1.3a21.65,21.65,0,0,0-11.19-9.5c-1-.37-1.67,1.26-.71,1.68Z"/><path class="cls-3" d="M156,415.38a22.21,22.21,0,0,1,9.53,2.56c2.55,1.25,4.37,3.4,6.8,4.75a1.12,1.12,0,0,0,1.51-1.52c-2.93-6-12-7.35-17.84-6.65a.43.43,0,0,0,0,.86Z"/><path class="cls-3" d="M241.1,446.53a208.87,208.87,0,0,0,11,51.29.92.92,0,0,0,1.78-.49q-5.1-25.56-10.56-51.1c-.26-1.2-2.28-1-2.17.3Z"/><path class="cls-3" d="M218.92,74.05a21.42,21.42,0,0,0,8.76-2c2.3-1.07,5.54-2.77,6.3-5.35.17-.58-.44-1.31-1.06-1.06-2.13.87-3.56,2.9-5.55,4.1a19.35,19.35,0,0,1-8.45,2.69c-1,.09-1,1.62,0,1.6Z"/><path class="cls-3" d="M230.29,96.6c-2.2,8.73-3.41,16.85-7.84,24.91l3.84,1c.23-3.15-.15-4.85-2.28-7.16a1.17,1.17,0,0,0-2,.82,61,61,0,0,1,.14,6.34c-.12,2,2.91,2.81,3.85,1,4.29-8,7.59-17.9,5.46-27a.62.62,0,0,0-1.18,0Z"/><path class="cls-3" d="M231.83,165c5.68,12.45,25.12,22,38.45,19.65a1,1,0,0,0,0-2c-7.21-1.41-14-1.83-20.72-5.13s-11.43-8.4-17.05-13a.43.43,0,0,0-.68.52Z"/><path class="cls-3" d="M145.07,279.73c14.41,6.21,30.92,1.95,43.8-5.75,8.64-5.16,18-10.51,28.21-11.52,9.51-.93,19.43,1,28.77,2.56,1.15.19,1.66-1.58.49-1.78-15-2.56-33-6-47.28.53-9,4.15-16.15,11.16-25.7,14.33s-18.51,2.64-28.26,1.52c-.06,0-.09.09,0,.11Z"/><path class="cls-3" d="M261.38,263.28c12.73-4.52,25.41-6.1,38.72-7.74a.86.86,0,0,0,0-1.72c-13.25-.25-26.79,3.79-38.88,8.86-.36.15-.22.73.16.6Z"/><path class="cls-3" d="M295.54,288.1c5.63,10.65,11.32,21.53,14.36,33.27,3.1,12,1.9,23.29-1.6,35-.35,1.18,1.26,1.74,1.91.8,15.1-21.91-2.33-50.52-14.25-69.31a.24.24,0,0,0-.42.25Z"/><path class="cls-3" d="M354.79,236.38c-3.48,11.77-5,24.82-.05,36.44,3.42,8.08,11.74,18.89,21.53,18.51a.56.56,0,0,0,.28-1c-3.86-2.65-8-4.14-11.57-7.36a33.92,33.92,0,0,1-8.69-12.87c-4.12-10.77-3.05-22.41-.2-33.33a.67.67,0,0,0-1.3-.36Z"/><path class="cls-3" d="M220.25,414.89c8.78,2.46,20.17,3.16,27.47-3.58a1.42,1.42,0,0,0-1.37-2.36c-4.09,1.24-7.78,3.42-12,4.41a45,45,0,0,1-14.06,1.17c-.21,0-.24.3-.05.36Z"/><path class="cls-3" d="M67.62,164.2c3.11-2.61,6-5.54,9-8.33,2.53-2.38,6.35-4.87,7.84-8a1.17,1.17,0,0,0-1.59-1.59c-3.16,1.57-5.53,5.42-7.86,8-2.73,3-5.59,6-8.13,9.16a.55.55,0,0,0,.78.78Z"/><path class="cls-3" d="M213.41,682.71c5.88,16.84,31.12,14,43.2,6.55,8-5,13.07-12.68,15.34-21.8,1.31-5.28,1-10.24,1.43-15.58.56-6.46,1.3-12.92,1.94-19.38.05-.47-.68-.46-.73,0-1.79,16.06-1.94,36.81-15,48.29-9.44,8.26-36.28,17.53-42.94,1-.78-1.92-3.92-1.17-3.2.88Z"/><path class="cls-3" d="M443.82,594.58c0,15.17-.48,30.38-1.33,45.53q-.64,11.39-1.77,22.73c-.66,6.67-1.9,13.49-.77,20.18,1.33,7.9,8.27,17.18,17.35,15.28,6.88-1.44,11-9.77,6.88-15.71a1.48,1.48,0,0,0-2.55,1.49c3.93,7-5.8,11.43-11.1,8-4.38-2.8-6.15-8.09-6.61-13-.84-9,.88-18.59,1.28-27.63a428.82,428.82,0,0,0-1.26-56.9.06.06,0,1,0-.12,0Z"/></g></g></svg>
