<svg xmlns="http://www.w3.org/2000/svg" viewBox="0 0 381.43 627.25"><defs><style>.cls-1{fill:#00ac60;}.cls-2{fill:#f7f7f7;}.cls-3{font-size:36.75px;}.cls-3,.cls-4,.cls-5{fill:#fff;}.cls-3,.cls-4{font-family:NotoSansCJKtc-Bold-B5pc-H, Noto Sans CJK TC;}.cls-4{font-size:35.29px;}.cls-6{fill:#231815;}.cls-7{fill:#e50012;}</style></defs><title>Asset 2</title><g id="Layer_2" data-name="Layer 2"><g id="圖"><polygon class="cls-1" points="0 573.74 381.43 500.77 381.43 446.45 0 519.42 0 573.74"/><polygon class="cls-1" points="0 627.25 381.43 554.28 381.43 524.28 0 597.25 0 627.25"/><polygon class="cls-1" points="0 0 0 493.48 381.43 409.1 381.43 0 0 0"/><path class="cls-2" d="M157.18,67.82l15.13-.32c.29-2.23.14-4.56.73-6.9l11.59.44V67.6c3.7,0,7.17,0,10.65,0,2,0,4,.21,6.25.34v1.43c-.05,6.86-.14,13.72-.14,20.58,0,4.38.16,8.75.17,13.12,0,2.82-.05,2.84-2.85,3.14a20.48,20.48,0,0,1-6.24-.27c-2-.41-4.16-.09-6.32-.09.11.69.64.89,1.14,1a11.12,11.12,0,0,0,5.82.68,6.2,6.2,0,0,1,1.93.22v9.6c-3.81,0-7.46.33-11.07-.36a11.54,11.54,0,0,1-5.05-2.69,10.72,10.72,0,0,1-3.33-3.62,12.17,12.17,0,0,1-1.18-3.6c-.07-.54-.2-1.07-.32-1.66H157.48a10,10,0,0,0,.79.7c1,.67,1,.91.32,1.83-1.57,2-3.21,3.95-4.8,5.94-1.09,1.38-2.14,2.79-3.26,4.26A5.92,5.92,0,0,1,148,116a14.72,14.72,0,0,0-4.77-3.7c-.74.59-1.5,1.22-2.28,1.82a17.3,17.3,0,0,1-5.12,3c-1.73.56-2.19.47-3.28-.92-2-2.57-4-5.17-6-7.87.66-.42,1.27-.86,1.91-1.23A48,48,0,0,0,140.59,97a113.48,113.48,0,0,0,8.11-10.7,2.36,2.36,0,0,1,.42-.38c1.82,1.11,3.63,2.23,5.47,3.32a1.74,1.74,0,0,1,.94,1.93.86.86,0,0,0,0,.16,15.66,15.66,0,0,1-2.6,10.41c-.14.23-.26.48-.46.87l4.48,2.74c0-.43.09-.78.09-1.12q0-17.11,0-34.21C157,69.33,157.12,68.68,157.18,67.82Zm34.09,16.74v-8h-6.6c0,1.42,0,2.74,0,4.05s0,2.6.05,3.91Zm-22.79-8v7.77a12.82,12.82,0,0,0,4.59.18c-.21-2.75.69-5.31-.06-8Zm16.27,16.32v3.16h6.62c0-.73,0-1.33,0-1.93,0-1.45-.42-1.71-1.82-1.48a26.44,26.44,0,0,1-3.09.24C185.93,92.91,185.39,92.89,184.75,92.89Zm-12.46,3.22c.13-1,.21-1.75.35-2.55s-.17-1-.86-1H168.5v3.59Z"/><path class="cls-2" d="M225.06,111.77c0,1.76.73,3.37-.44,5-1.43.1-3,.27-4.6.31-5.86.14-11.72.23-17.58.34h-.66c-1.83,0-1.86,0-1.9-1.85,0-.81.17-1.66-.53-2.33-.13-.12-.11-.42-.11-.64,0-1.55,0-3.09,0-4.82.55,0,1-.11,1.48-.11a2.39,2.39,0,0,0,2.7-2.31,15.26,15.26,0,0,0,.1-2.14c0-3.54,0-7.07.06-10.8,3.67-.48,7.16.34,10.64,0s7,.46,10.61-.23c.14-2.66.33-5.24.4-7.83a13.19,13.19,0,0,0-.24-4.41c-.38-1.26-.08-2.73-.08-4.09,1.32-.93,2.71-.67,4.16-.58a26.56,26.56,0,0,0-.1-5.84l1-.57c-.5-3.44-3-6.1-3.8-9.46l9-4.61,4.14,11.68c1.37-3.33,2.69-6.56,4-9.83l10,4.72c.41,2.27-1,4.22-1.73,6.58l3.47.43c.24,4.44-.35,8.88-.61,13.32s-.48,9-.72,13.54H250a9,9,0,0,0-.42,5.62c.34,1.52,3.09,2.8,4.52,2.25a1.93,1.93,0,0,0,.82-.76,6.32,6.32,0,0,0,1.14-3.73c-.05-.87,0-1.75,0-2.86,2.62,1.47,5.25.41,7.86.91,0,.34.08.7.09,1.07l.3,10.78c0,.22.14.53,0,.65-.83,1-.27,2.27-.7,3.53a6.48,6.48,0,0,1-1.47.31q-7.14.09-14.27.11a3.85,3.85,0,0,1-2.71-1.07c-.85-.79-1.76-1.53-2.56-2.36a7.62,7.62,0,0,1-2.21-6.36c0-.22,0-.44,0-1.06-.35.82-.54,1.31-.77,1.77-1.33,2.74-2.61,5.49-4,8.18a11.9,11.9,0,0,1-2.13,2.73,3.21,3.21,0,0,1-4.85.18C227.51,114.12,226.42,113,225.06,111.77ZM235,78.19v7.42l10.21,1a19.55,19.55,0,0,0-.21-7.82Zm-17.65,22.56-8.94.38c-.23,1.9-.43,3.63-.67,5.65,3.32,0,6.37.92,9.61.23ZM225,93.57a30,30,0,0,0-.34,8.43c3.07-1.4,4.45-4,5.44-7.22-.69-.09-1.23-.17-1.76-.22-.94-.08-2,.2-2.6-.9C225.71,93.53,225.29,93.59,225,93.57Z"/><path class="cls-2" d="M145.1,66.61h10.22v9.87h-4c-.17,2.85-.33,5.52-.5,8.41-.62-.31-1.05-.51-1.46-.75-.71-.41-1.14-.3-1.61.45a89.17,89.17,0,0,1-7.69,10.58A62.88,62.88,0,0,1,128,105.71a4,4,0,0,1-1.2.51c-1.53.45-3.08.84-4.59,1.33a1.28,1.28,0,0,0-.74.79,28,28,0,0,0-.41,3.54c-.07,1.21,0,2.42,0,3.58-1.27.42-6.77.54-9.63.23-1.41-6.45-1.37-13.08-1.87-20-1.67,4.26-.53,8.49-1.16,12.74-2,0-4,.45-5.65-.12s-3.32-1-5-1.62c.18-1,.3-2,.52-3a72.66,72.66,0,0,0,1.22-7.35c.43-3.15.68-6.38,2-9.37a16.92,16.92,0,0,0,.6-2.41l-2.49-.12a15.77,15.77,0,0,1-.87-4.88c-.06-1.49-.19-3-.19-4.48A12.52,12.52,0,0,1,98.73,73c2.52-.63,5-1.24,7.51-1.89a27.85,27.85,0,0,0-1.5-7.07,4.53,4.53,0,0,1-.31-3.21c1.48-.1,3-.26,4.53-.3,2.6-.09,5.2-.1,7.8-.15l1,0a1,1,0,0,1,1.06,1c0,.67,0,1.33.06,2,.18,2,.39,4,.57,5.93.07.82.07,1.65.12,2.48.12,2.15.21,4.3.37,6.45.11,1.33.25,1.39,1.69,1.36.71,0,1.41,0,2.2,0V82l-4.47.65v3.22h3.89c.57,2,.33,8.65-.38,10.49l-3,.15c0,.88.08,1.67.12,2.56a21,21,0,0,0,7.34-2.86c.33-.2.62-.48,1-.65,1.56-.79,1.58-.8,2.53-2.69-1.89-.67-3.83-.06-5.67-.35-.52-1.38-.8-10.55-.39-13.88H120.6c-.24-3.4-1-6.59,0-9.9h7V60.07c1.72-.55,13.62-.47,17.12.06C145.23,62.19,144.67,64.36,145.1,66.61ZM134.52,85.16c.35,0,.62,0,.89,0a2.87,2.87,0,0,0,3.13-1.32c1.08-1.72,2.16-3.45,3.12-5.24.24-.44,0-1.12,0-1.66a23.31,23.31,0,0,0-7.18.14C135.18,79.75,134.31,82.37,134.52,85.16Z"/><path class="cls-2" d="M74.25,66.51l-2.71,1.36c0,.1,0,.2,0,.29a5.1,5.1,0,0,0,1,.18c4.2,0,8.41,0,12.62,0a5.39,5.39,0,0,0,1.8-.2,12.94,12.94,0,0,1,4.58-.54c1.77,0,3.54,0,5.32,0,2,0,4,.16,6.11.24.1.91.19,1.69.28,2.58-2,.8-3.77,1.58-5.63,2.28C96,73.33,96,73.28,96.22,75c.36,3,.61,6.06,1.06,9.06a8.92,8.92,0,0,0,1.18,3.23,2.79,2.79,0,0,1,.37,2.18c-.78,4-1.58,7.91-2.33,11.87-.39,2-.68,4-1,6.06a1.68,1.68,0,0,0,1.35,2.24c1.2.4,2.43.72,3.68,1.08a31.52,31.52,0,0,1,.31,8c-.08,1.13-.43,1.33-1.66,1.37-2.48.09-5,.16-7.45.27-.66,0-1.31.2-2,.26-.87.08-1.73.12-2.83.19-.14-2.21-.26-4.23-.4-6.46l4.14-.26a6.75,6.75,0,0,0,.15-1c0-8.69-.09-17.38-.19-26.07,0-2.21-.28-4.42-.44-6.63a4.08,4.08,0,0,0-.22-.79c-4.19,0-8.34,0-12.48,0-3.26,0-6.53.18-9.79.22-5,0-10.08,0-15.12.1-1,0-2,.16-2.89.24V99.37c0,2.49,0,5,0,7.48a5.65,5.65,0,0,1-.47,3.19,3.84,3.84,0,0,0-.1,2.12,1.72,1.72,0,0,1-1.18,1.93c-2.14.88-4.28,1.77-6.45,2.6-1.34.52-2.11.41-3.9-.33,0-1-.06-1.94,0-2.91.14-2,.66-4,.15-6.08a7.06,7.06,0,0,1,0-1.66c0-7.86,0-15.72,0-23.58,0-3.38-.18-6.75-.27-10.12,0-.76,0-1.53,0-2.44.88-.08,1.58-.15,2.28-.18a6.12,6.12,0,0,1,.82.14,6.9,6.9,0,0,0,5.59-1.6c4.59-3.73,9.48-7.09,14.24-10.6.8-.59,1.54-1.24,2.33-1.85a13.81,13.81,0,0,1,1.75-1.23c1-.56,1.65-.31,2.36.64,2.26,3,4.5,6,6.83,9A2.55,2.55,0,0,1,74.25,66.51Z"/><path class="cls-2" d="M289.22,98a1.7,1.7,0,0,0-.54,2.45,10.52,10.52,0,0,0,3.54,4.11,2.86,2.86,0,0,1,1.33,2.78c-.09,2.21,0,4.42,0,6.64,0,.54,0,1.08-.08,1.67-4.08.71-7.72-.42-11.37-2.14a115.75,115.75,0,0,0-.94-19.21,102,102,0,0,1-14.95,8c0-2.08,0-3.89,0-5.7,0-1.65-.11-1.82-1.8-1.73-2,.11-4,.3-6,.46-.91-1.39-1.78-2.71-2.77-4.24,9-4.18,17.5-8.9,24.49-16.49H262c-.24-3.79-.07-7.45-.13-11.23.76,0,1.3-.08,1.83-.08,2.11,0,4.21,0,6.32,0,6,.1,12-.46,18-1,2.2-.18,4.42-.26,6.63-.28,4,0,8,0,11.95,0,1.27,0,2.53.17,4,.28,0,3.72,0,7.35,0,10.92-1.69,1.16-3.52.94-5.31.94-2.49,0-5,0-7.25,0-1,2.06-2,4-2.86,5.91-.45,1-.81,2-1.17,3a.72.72,0,0,0,.13.62c1.22,1.17,1.7,2.91,3.26,3.85,2.26,1.37,4.38,3,6.66,4.34a18.67,18.67,0,0,0,9.48,2.63c.42,0,.85,0,1.44.07-1.69,4.07-4.41,7.42-6.21,11.38-3.65.39-7.22-.52-10.79-1.43C294.19,103.59,291.85,100.64,289.22,98Z"/><path class="cls-2" d="M50.93,116.33V81.06l37.61.52a22.14,22.14,0,0,1,.25,2.32q-.09,13.86-.23,27.74c0,.43,0,.87-.08,1.48a30.64,30.64,0,0,1-3.77.26,27.37,27.37,0,0,0-6.39.75c-4.35.81-8.77,1.1-13.12,1.74s-8.49,0-12.71.52A11.35,11.35,0,0,1,50.93,116.33ZM65.58,102.5l11.2-1.89V94.07l-11.87.21C65.13,97.08,65.35,99.7,65.58,102.5Z"/><path class="cls-2" d="M339.48,92.19c-4.41.7-8.66.22-13,.39a12.67,12.67,0,0,1-.17-1.39c0-2.83-.07-5.66,0-8.48,0-1,.52-2,.6-3,.29-3.64.43-7.29.75-10.92.35-4.08.84-8.14,1.26-12.21.09-.89.56-1.23,1.43-1.24,2.93,0,5.86-.1,8.7.88,1.87.65,3.77,1.2,5.69,1.72.65.19.94.5.94,1.15,0,1.6,0,3.21,0,4.81a1.84,1.84,0,0,1-.28.94,12.07,12.07,0,0,0-1.5,4.88A65.83,65.83,0,0,1,340.17,85a7,7,0,0,0-.34,1.94C339.69,88.62,339.6,90.32,339.48,92.19Z"/><path class="cls-2" d="M227.43,64.1c.2.36.25.41.25.46.06,2.48,0,5,.21,7.44.11,1.81-.66,2.32-2.37,2.24q-4.22-.21-8.45-.31c-2.49-.06-5,0-7.47-.1-1.81-.07-3.61-.29-5.41-.45-.24-2-.48-4-.72-6,6.36-.45,12.61.5,18.91-.55.07-.91.13-1.83.2-2.75Z"/><path class="cls-2" d="M325.23,98.15h11.15c.05.48.13.85.13,1.22,0,3,0,6,0,8.95,0,1.75-.28,2-2,2-2.71,0-5.42,0-8.12,0-.44,0-.87,0-1.45-.09-.05-.52-.14-1-.14-1.46,0-2.76,0-5.52,0-8.28A13.69,13.69,0,0,1,325.23,98.15Z"/><path class="cls-2" d="M220.78,65.67c-3.18,0-6.16,0-9.14,0-1.71,0-3.42.16-5.14.24a2,2,0,0,1-2.21-2c.1-2.13.33-4.26.53-6.61a76.29,76.29,0,0,1,16.13,0C221.48,60.14,220.54,62.86,220.78,65.67Z"/><path class="cls-2" d="M222.43,84.35c0,1,0,2,0,3s-.1,1.88-.16,2.82l-18.38.71V83.63Z"/><path class="cls-2" d="M203.65,81.9c.16-2.45.31-4.79.47-7.32l17.81,1.08v5.52Z"/><path class="cls-2" d="M126.62,353.75a24.13,24.13,0,0,0,5.86-3.18,63.37,63.37,0,0,1,6.12-3.7c2.61-1.42,5.28-2.72,7.94-4,.87-.43,1.79-.75,2.68-1.13.24-.1.46-.24.66-.34A4.06,4.06,0,0,0,149,339c-1.35.73-2.7,1.51-4.08,2.21-2.7,1.35-5.42,2.66-8.13,4-.69.34-1.37.74-2.07,1.09a2.24,2.24,0,0,1-.82.26c-1.27,0-2.54,0-3.76,0-.09-.12-.17-.18-.18-.24-.12-2.7-.32-5.41-.33-8.12a41.59,41.59,0,0,1,.5-4.66,8.56,8.56,0,0,1,1.16-.14c3.58,0,7.17-.13,10.76,0,7,.29,14,.05,21.05.12,4.07.05,8.14,0,12.21,0h1.33c0,4.08-.38,8.05-.51,12a4,4,0,0,1-2.17.81,15.44,15.44,0,0,0-3,1.08,28.11,28.11,0,0,0-4.13,2.74l5.85,4.58a5.36,5.36,0,0,1,.73.7,13.21,13.21,0,0,0,4,3.36c-1.2,1.2-2,2.63-3.4,3.59a3,3,0,0,0-.6.67,38.34,38.34,0,0,1-6.69,6.9c-.82.65-1.12.59-1.89-.11-1.79-1.63-2.94-3.75-4.46-5.6-.34-.42-.69-.85-1.07-1.34l-2,1.54c.15.25.24.44.36.61,1.48,2,3,4,4.44,6.06a2.33,2.33,0,0,1,.43,1.21c0,3.93,0,7.85,0,11.77a4,4,0,0,1-.06.51c-.29,0-.58.09-.86.09-2.95,0-5.9,0-8.86,0-.55,0-1.1-.13-1.66-.17-1.37-.11-2.75-.22-4.12-.3-.74,0-1.48,0-2.35,0a18.61,18.61,0,0,1,.11-4.61,37.25,37.25,0,0,0,1.05-7.3,65.29,65.29,0,0,1,.7-6.67c.25-2.07.53-4.14.83-6.43-1.64.8-3.12,1.52-4.6,2.26-1.2.6-2.39,1.22-3.57,1.85q-2.62,1.38-5.22,2.81c-1,.55-1.08.56-1.63-.45-1.65-3-3.28-6-4.92-8.93a11.21,11.21,0,0,0-.71-1Z"/><path class="cls-2" d="M361,364.29c-.07,1.12-.16,2.23-.22,3.34-.14,2.3-.27,4.6-.4,6.86l-9.21-.18c-.27-.8-.43-22.75-.18-24.71a69.64,69.64,0,0,1,10-.33Z"/><path class="cls-2" d="M275.33,339.33v-5.07a4.58,4.58,0,0,1,.9-.23h8a43.61,43.61,0,0,1,.11,8c-2.72.1-5.47,0-8.28.06V345c1.37.31,2.74-.08,4.1,0s2.75.08,4.21.12v8h-2.55c0,.4-.08.72-.08,1,0,2,.07,4,.07,6.05,0,.51-.17,1-.22,1.53s0,1,0,1.55,0,1,0,1.54a1.67,1.67,0,0,1-2.06-.52c-.62-.69-1.29-1.33-2-2.05a12.23,12.23,0,0,0-1.06.68c-2.29,1.85-4.53,3.78-6.89,5.55-1.2.91-2.17,1-3-.18-.71-1-1.39-2-2.12-3-.48-.66-1-1.29-1.53-1.92-.23-.29-.5-.54-.85-.93.4-.05.67-.1.94-.11,2.72-.07,5.44-.11,8.16-.21a4.87,4.87,0,0,0,1.3-.44v-2.35a8.84,8.84,0,0,0-.92-.1c-6,0-12,0-17.94,0a28.83,28.83,0,0,0-3.34.39c-.59,1,0,1.67.23,2.45l9.57.18a1.57,1.57,0,0,1,.09.23,5.15,5.15,0,0,1-.76.72c-.84.56-1.7,1.07-2.56,1.59a6.09,6.09,0,0,0-2.29,1.9,3.1,3.1,0,0,1-1,.83,1.13,1.13,0,0,0-.58,1.3c.22,1.18.4,2.36.51,3.55a15.84,15.84,0,0,0,2.13,6,2.75,2.75,0,0,0,1.39,1.4c2.64,1,5.31,1.5,8.05.35a11.68,11.68,0,0,0,3.77-2.75,14.31,14.31,0,0,1,1.17-1c2.35,2.7,4.25,5.64,7.18,7.81-1.71,1.88-3.21,3.69-4.88,5.35a9,9,0,0,1-6,2.67,45.45,45.45,0,0,1-5.59.17,37.28,37.28,0,0,1-5.49-1,20,20,0,0,1-3.18-1,14.25,14.25,0,0,1-4.24-2.89,3.75,3.75,0,0,1-.59-.81c-.17-.24-.27-.54-.45-.77a13.88,13.88,0,0,1-2.56-6.84c-.09-.67.22-1.36,0-2,.53-.76,1-1.56,1.6-2.27,1.47-1.78,3-3.52,4.48-5.26a4.54,4.54,0,0,0-1.83-2,14.05,14.05,0,0,1-3.24-2.91c-.56-.63-1.06-1.36-2.12-1.21-.22,0-.5-.27-.74-.41-.1-3.23-.19-6.43-.29-9.71h-3.31a42,42,0,0,1-.11-8h7.05v-3h-7.09c-.19-2.71-.08-5.31-.12-8.07,2.91,0,5.76,0,8.75,0,.32,1.76,0,3.51.2,5.31Zm-24.85,14.83h22v-2.55a4.54,4.54,0,0,0-.58-.07c-6.57,0-13.14-.14-19.69.43C250.45,352.12,250.35,352.23,250.48,354.16Zm15.81-12H255.7V345h10.59Z"/><path class="cls-2" d="M300.13,362.43a24.59,24.59,0,0,1-6.95.2c0-.47-.13-1-.13-1.49,0-2.77,0-5.53,0-8.3,0-1.71-.26-3.42-.32-5.13s0-3.65,0-5.63c1,.1,2,.26,3.06.29,2.2.08,4.41.16,6.61.11a36.19,36.19,0,0,0,3.83-.49v-2.65H295.13a30.92,30.92,0,0,1,.44-8.38H339a7,7,0,0,1,.08.88c-.1,2.23-.2,4.47-.34,6.7-.05.9-.26,1.07-1.21,1.06a36.31,36.31,0,0,1-3.89-.19,36.69,36.69,0,0,0-4.92,0c-.07,0-.13.06-.22.11-.12.82-.25,1.66-.38,2.56a5,5,0,0,0,.69.1l11.75.19c.41,0,.81,0,1.18,0,.69,1.43-.08,16.23-.64,19.47l-6.34.25c-.25-.5-.36-1-.66-1.21a2.68,2.68,0,0,0-1.38-.36c-4,0-8.07-.1-12.11,0-6.27.08-12.55.24-18.82.38C300.3,360.86,300.3,360.88,300.13,362.43Zm32.79-7.76c.07-2,.13-3.87.19-5.78h-5.05v5.78Zm-26.92,0c.08-1.94.16-3.81.25-5.76H301.8v5.76Zm9.32-5.78v5.77h3.6v-5.77Zm4.12-6.77c.08-.93.15-1.78.24-2.73-1.49,0-2.84,0-4.19,0v2.71Z"/><path class="cls-2" d="M187.4,386.39h-7c0-.29-.07-.65-.07-1q0-26,0-52c0-2.48.17-2,2-2s3.43,0,5.19,0c.09.46.16.86.24,1.33h30c0-.48,0-1,0-1.42,0-1,.11-1.13,1.17-1.17s1.87,0,2.8,0q3.3.09,6.6.24a11.53,11.53,0,0,1,1.31.22v2.72c0,16.48,0,33,0,49.44a4,4,0,0,1-1.62,3.58,37.57,37.57,0,0,0-3.46,3.34,2.32,2.32,0,0,1-1.56.73c-2.75.24-5.5.55-8.25.8-1.49.14-3,.19-4.47.31s-3.19.29-4.78.43a2.41,2.41,0,0,1-.41,0v-6.36a15.75,15.75,0,0,1,2.18-.29c3.67,0,7.33-.05,11,0a4.55,4.55,0,0,0,2.81-.87c1.7-1.21,1.71-1.19,1.71-3.26q0-18.33,0-36.66a25.81,25.81,0,0,0-.17-2.91c-.11-1-.43-1.2-1.39-1.23H190.22c-.52,0-1,0-1.56.05a1,1,0,0,0-1.06,1,13.94,13.94,0,0,0-.19,1.55q0,19.74,0,39.47Z"/><path class="cls-2" d="M190.76,383.31c-1.12-1.57-.79-3.18-.8-4.74q0-9.87,0-19.73v-1.43l30.29-.46c.3,1,.33,24.81.05,25.92-1.57,0-3.17.1-4.76.12-2.92,0-5.85-.2-8.74.06-5,.44-10,.12-15,.26ZM202,371.47h7.58a9,9,0,0,0,.14-4.2H202Z"/><path class="cls-2" d="M311.81,392.73V376h-2.43c-.08,4.27-.16,8.51-.25,12.82a2.72,2.72,0,0,1-.72.18l-8.74-.08a2.48,2.48,0,0,1-.45-.11c-.33-2.14-.23-4.34-.38-6.53s-.18-4.31-.27-6.53c-1.59-.28-3.26.27-4.69-.65-.05-.06-.13-.12-.13-.17q-.17-3.24-.3-6.46a8,8,0,0,1,0-.86,71.27,71.27,0,0,1,10.21-.13,12.25,12.25,0,0,1-.17,3.53h9c3,0,6,0,9,0s5.95.11,9-.1v-3.42a8.31,8.31,0,0,1,.86-.08H340c1.28,0,1.61.36,1.62,1.64,0,.45,0,.9,0,1.34,0,.18,0,.49.12.52.8.24.52.89.54,1.4,0,.82,0,1.64,0,2.47a2,2,0,0,1-.09.29,4.59,4.59,0,0,1-.7.13c-1.68,0-3.36,0-5,0a1.09,1.09,0,0,1-1.14-.69c-.34-.7-.73-1.39-1.13-2.06s-.62-.74-1.27-.41c-1.83.93-3.65,1.87-5.46,2.84a2.68,2.68,0,0,1-1.56.4c-1.26-.11-2.53,0-3.94,0-.18,5.78-.35,11.5-.52,17.3a3.69,3.69,0,0,1-1.95.42c-1.16,0-2.32,0-3.48,0C314.68,393,313.35,392.83,311.81,392.73Z"/><path class="cls-2" d="M220.44,342.82v10.47c-.87.24-28.55.32-30.26.08a6.87,6.87,0,0,1-.23-1.23c0-2.88,0-5.76,0-8.64a3.91,3.91,0,0,1,.12-.68Z"/><path class="cls-2" d="M322.17,377.72c1.44.28,2.43-.5,3.48-1,2.11-1,4.18-2.13,6.26-3.23a13.69,13.69,0,0,0,1.47-1c.21.35.42.67.62,1,1.15,2,2.24,4,3.45,5.89a22.08,22.08,0,0,0,1.94,2.3,5,5,0,0,1,.61.78c.34.58.59,1.22,1,1.77a5.79,5.79,0,0,1,.81,3.74,1,1,0,0,1-.51.9c-2.38,1.55-4.75,3.12-7.12,4.68a7.31,7.31,0,0,1-.66.41,1.64,1.64,0,0,1-2.35-.64c-1.79-2.89-3.52-5.82-5.36-8.67a48.09,48.09,0,0,0-3.26-4.4C321.89,379.44,322.23,378.68,322.17,377.72Z"/><path class="cls-2" d="M273.3,329.82v8c-.67.09-1.28.22-1.9.24-1,0-2.09,0-3.13,0-5.86.07-11.72.16-17.57.24h-1.43a32.22,32.22,0,0,1-.37-8.82C257,330.08,265.11,329.59,273.3,329.82Z"/><path class="cls-2" d="M288.53,375.13c-1.35,1.31-2.69,2.59-4,3.9-.72.7-1.4,1.44-2.12,2.14a1.26,1.26,0,0,1-1.88.1,4.85,4.85,0,0,1-.56-.55l-6.28-6.53a7.2,7.2,0,0,1-.71-.86c-.83-1.15-1.63-2.3-2.55-3.59l7.26-6.67c.82.85,1.65,1.68,2.44,2.54.53.58,1,1.19,1.49,1.8a20,20,0,0,0,1.48,1.92c1.44,1.45,2.94,2.85,4.44,4.25A2.46,2.46,0,0,1,288.53,375.13Z"/><path class="cls-2" d="M304.36,370.29c-.13-2-.25-4-.38-6.11h25.77v6.11Z"/><path class="cls-2" d="M242.5,363.23c2.33,2,4.53,4,6.7,6.15-.32.36-.55.66-.81.9a49.44,49.44,0,0,0-5.29,6.61c-.32.41-.66.81-1,1.23-.14.2-.36.48-.32.68.21.93-.53,1.11-1.07,1.43a1.27,1.27,0,0,1-1.53-.26,22.27,22.27,0,0,1-4.42-4.72,1.84,1.84,0,0,1,0-2.24,70.12,70.12,0,0,1,5.37-7.43A25.43,25.43,0,0,1,242.5,363.23Z"/><path class="cls-2" d="M260.38,378.47c-2.61-2.8-5.1-5.6-6.56-9.14-.38-.9-.27-1.35.58-1.85,1.77-1,3.54-2.06,5.34-3,1.17-.63,1.66-.57,2.57.4s1.59,2,2.4,2.94a29,29,0,0,0,2.08,2.34,2.3,2.3,0,0,1,.57,2.55,1.11,1.11,0,0,1-.37.51c-1.45,1.15-2.94,2.26-4.39,3.41C261.84,377.18,261.13,377.83,260.38,378.47Z"/><path class="cls-2" d="M352.54,389.62v-11.1a30.76,30.76,0,0,1,6.38.18,55.38,55.38,0,0,1,0,10.92h-6.34Z"/><path class="cls-2" d="M219.14,356.45l1-.55C220.1,356.57,220.1,356.57,219.14,356.45Z"/><text class="cls-3" transform="translate(35.01 383.31)">請投</text><text class="cls-4" transform="translate(180.04 261.39)">公投</text><text class="cls-4" transform="translate(315.75 261.39)">號</text><path class="cls-2" d="M126.45,207.08H140c.05.88.13,1.66.13,2.44,0,4.4,0,8.8,0,13.2a15.37,15.37,0,0,0,2.07,8,3.5,3.5,0,0,0,2.13,1.92c0-.72.12-1.35.12-2q0-9.51,0-19c0-.67,0-1.34,0-2,0-2.63.09-2.68,2.69-2.68h12v25.63c1.25,0,2.3.07,3.33,0s2-.33,3.35-.56c.21,1.9.45,3.53.56,5.16.08,1.26-.06,2.54,0,3.8s.39,2.75.59,4.12c.14,1,.27,1.93.4,2.88-1.3.76-2.54.43-3.69.57-.53.06-1.07,0-1.6,0-1.5.06-1.56.12-1.58,1.61q-.08,8.19-.13,16.38v2.45H144.74a23,23,0,0,1-.25-2.59c0-5.26,0-10.53,0-15.8,0-.65-.06-1.3-.09-2-1.63-.12-3.15-.18-4.65-.35-2.24-.26-4.47-.65-6.71-.88-4.34-.45-5.53-2.58-6.09-5.74a95.34,95.34,0,0,1-1-25.08c.13-1.59.11-3.19.2-4.79S126.32,208.79,126.45,207.08Z"/><path class="cls-2" d="M106.16,231.17l-12.68,1.05a19.53,19.53,0,0,1-1.1-7.63c.29-6.94,3.52-11.78,9.68-15.12,5.36-2.9,11-3,16.71-2.62,2.19.14,4.29,1.57,6.25,2.35,0,2.27,0,4.2,0,6.13,0,4.26-.36,8.54-.13,12.79.27,4.78,1,9.54,1.59,14.29a8,8,0,0,0,1.32,3.09,2.11,2.11,0,0,1,.13,2.22c-.5,1.15-1,2.31-1.58,3.7,3.89.21,7.49-1.39,11.4-.62a22.47,22.47,0,0,1,.24,2.25c0,2.6,0,5.2,0,7.8a7,7,0,0,1-1,4,12.32,12.32,0,0,0-.73,1.67c-7.76,1.23-15.53,2.65-23.52,2.33-5.66-.22-11.33,0-17,0-.38,0-.77,0-1.15-.06-.2-2.36-.37-4.59-.58-6.83s-.44-4.34-.67-6.53c1.09-.57,2-1,2.07-2.19.06-1,1-1,1.65-1.17a31,31,0,0,0,8.37-3.69,31.46,31.46,0,0,0,8.79-7.75,16.62,16.62,0,0,0,3.32-12.24,5.05,5.05,0,0,0-8-3.24,5.5,5.5,0,0,0-1.42,1.87c-.46.9-.38,2.06-1.6,2.57C106.27,229.65,106.3,230.5,106.16,231.17Z"/><path class="cls-2" d="M60.56,261.66,48.65,250.28l3.13-3c2.52-2.38,5-4.79,7.6-7.1a27.59,27.59,0,0,1,2.95-2,4.31,4.31,0,0,0,.88-.77c1.25-1.55,2.48-3.12,3.68-4.63H82.68c0-.87.09-1.5.09-2.13,0-4.27,0-8.54,0-12.81a3.22,3.22,0,0,1,1.2-2.75c3.43-3,6.8-6,10.18-9A28.12,28.12,0,0,0,96.19,204q6-6.74,11.92-13.49l1.35-1.55c4.32,3.4,7.47,7.73,11.54,11.3-1.62,1.76-3.11,3.36-4.56,5a2.25,2.25,0,0,1-2,.57,22.55,22.55,0,0,0-8.1.87c-4.32,1.5-8.36,3.53-11.27,7.23a19.27,19.27,0,0,0-3.82,10.75,38,38,0,0,0,0,4.4,2.51,2.51,0,0,1-.86,2.1c-6.3,5.89-11.62,12.63-17.07,19.28-2.63,3.22-6,5.83-9.11,8.64A38.56,38.56,0,0,1,60.56,261.66Z"/><path class="cls-2" d="M80.91,176.49v3.19q0,17.81,0,35.61c0,.9-.27,1.86.51,2.66.17.18.1.64.1,1q0,6.21,0,12.41a5.44,5.44,0,0,1-.16.82c-4.53.18-9.08-.27-13.88-.3a43.4,43.4,0,0,1-1-4.65,64.09,64.09,0,0,1-.42-6.78c-.05-7.27,0-14.54,0-21.81v-2.35h-6.4a16,16,0,0,1-.23-1.64c0-2.8,0-5.61,0-8.41a3.3,3.3,0,0,1,.55-1.82c1.65-2.17,3.43-4.25,5.09-6.42a3.08,3.08,0,0,1,2.86-1.39c3.3.2,6.61.28,9.91.33A22.06,22.06,0,0,0,80.91,176.49Z"/><path class="cls-2" d="M44.67,196.55H34.88c-.14-3.82,0-7.52-.07-11,1.2-1,2.24-1.73,3.22-2.58,1.91-1.66,3.79-3.36,5.67-5a3.51,3.51,0,0,1,2.55-.92c2.59.06,5.19,0,7.79,0,1,0,2-.21,2.67.86.15.24.73.21,1.39.38v2.5c0,9.73,0,19.45,0,29.18,0,6.59.11,13.19.16,19.78,0,.72,0,1.44,0,2.26a10.51,10.51,0,0,1-1.32.16c-2.93,0-5.87,0-8.8,0A2.46,2.46,0,0,1,46,231.15a7.36,7.36,0,0,1-1.54-3.83,23.89,23.89,0,0,1-.16-2.8q.06-12,.15-24C44.44,199.3,44.57,198.06,44.67,196.55Z"/><path class="cls-5" d="M309.38,246.33A27.41,27.41,0,1,1,282,218.92,27.41,27.41,0,0,1,309.38,246.33Z"/><path class="cls-6" d="M274.87,235.73a14.65,14.65,0,0,0-5.12-4.79l-.33-.18-.37.11a49.92,49.92,0,0,0-6.28,2.54l-.48.21-.06.52a29.18,29.18,0,0,0-.22,3.67,39.52,39.52,0,0,0,.22,4l.13,1.19,1.12-.41c1.12-.4,2.08-.72,2.94-1-.28,6.8-.79,14.13-1.5,21.81l-.09.9.91.11a40.25,40.25,0,0,0,5.07.32c.47,0,.93,0,1.38,0l1.24,0h.89l0-.89c.45-8.35.68-16.55.68-24.39V236Z"/><path class="cls-6" d="M299.12,246.14c-4.47-2.88-14.51-1.41-14.51-1.41l-.27-3.58c.2-1.7.52-3,1.67-3.93a6.12,6.12,0,0,1,5.74-1.24,6.52,6.52,0,0,1,3.09,2.7l.37,2.28h6.16s0-4.25-.62-5.74c-1.24-3.07-4.51-7-12.43-6.65a10.46,10.46,0,0,0-8.38,3.67A12.32,12.32,0,0,0,277,238c-.55,3.56-.56,13.71-.6,16.34a9.49,9.49,0,0,0,2.92,7.39,14.54,14.54,0,0,0,9.47,4.3c4.85.41,7.88-1,9.86-2.54a11.22,11.22,0,0,0,4.32-9c0-3.25-.74-6.31-3.86-8.32m-9.28,12.63c-2.4,0-4-.46-4.53-1.35a4.21,4.21,0,0,1,1.17-6.33c1.51-.9,3.38-.74,4.79-.74a4.22,4.22,0,0,1,3,1.11,3.69,3.69,0,0,1,1.11,2.69,4.93,4.93,0,0,1-1.26,3.38c-.81.81-2.29,1.24-4.29,1.24"/><path class="cls-7" d="M282,216.7a29.84,29.84,0,1,0,29.84,29.83A29.86,29.86,0,0,0,282,216.7m-23.45,29.83a23.44,23.44,0,0,1,38.16-18.25l-33,33a23.32,23.32,0,0,1-5.2-14.71M282,270a23.36,23.36,0,0,1-13.61-4.36l32.7-32.71A23.44,23.44,0,0,1,282,270"/></g></g></svg>