<svg xmlns="http://www.w3.org/2000/svg" viewBox="0 0 176 256"><defs><style>.cls-2{fill:#8dc21f}.cls-3{fill:#231815}.cls-4{fill:#e50012}</style></defs><g id="Layer_2" data-name="Layer 2"><g id="圖"><path d="M24 63S9 54 8 44s14-24 20-25 32-9 37-10 44-4 58 1 27 5 34 11 13 10 11 19-6 15-9 22 2 9 0 17-5 18-6 24v9s6-4 10 5 1 9-2 14-10 14-11 22l-2 20 1 20c0 4 0-1 6 5s7 12 5 23a56 56 0 0 1-22 17 119 119 0 0 1-37 9c-11 1-57-6-66-9 0 0-23-12-21-25s11-15 11-15l-3-58s-8-6-8-13 5-16 8-16V63z" fill="#F8CD47"/><path class="cls-2" d="M158 67c1 7-2 19-5 19s-1-4-5-3c-3 0-2 3-2 5l1 5c-1 2-2 2-4 1v-5c1-2-1-5-2-4-2 0-2 2-2 3-2 6 0 13 1 20a7 7 0 0 1-1 5c-1 1-3 2-4 1l-2-5c2-8 1-13 0-20l-1-3a2 2 0 0 0-2 0c-3 2-1 5-2 11 0 3-3 3-3 3a3 3 0 0 1-3-2l2-6-1-7c0-2-3-3-4-3-3 1-3 4-3 6s-2 5-4 4l-1-4v-4a13 13 0 0 0-3-2v-3a43 43 0 0 0 13-2c6-3 9-2 14-2s12-3 14-4l9-4z"/><path class="cls-2" d="M158 67c0 4-1 13-4 16-2 2-2-1-5-2s-3 1-4 3v4s2 4-1 1v-2c-1-1-1-3-3-3s-2 2-3 3v13a19 19 0 0 1 0 3l1 3-4 2 1-8c0-4 0-16-6-15a5 5 0 0 0-3 3v4c0 2 1 3-1 2-3 0-1 0-1-2-1-3-1-13-7-11-4 2-1 6-3 8h-2c-1 0-2-1-1-2v-2l-3-4v-1a12 12 0 0 1 2 0 47 47 0 0 0 9-2c5-2 10-2 16-3a80 80 0 0 0 13-3l9-4 1-1c-2-1-5 1-6 2a63 63 0 0 1-13 4l-15 1c-6 2-11 4-17 4a1 1 0 0 0-1 1l2 5c1 2 0 7 3 9 5 3 5-10 10-6 3 2-4 15 4 14a4 4 0 0 0 3-3v-4a11 11 0 0 1 0-3c0-1 1-3 3-2l1 7a41 41 0 0 1 0 7c0 3-2 8 0 10 3 5 8 0 8-4l-2-13 1-9c2 0 1 5 1 6 1 4 6 3 8 0l-1-5c0-1 0-4 2-4v2h4c5-2 5-14 5-19a1 1 0 0 0-1 0z"/><path class="cls-3" d="M8 45v-1zM13 50zM19 61c-4-4-7-9-8-14-1-7 2-13 6-18l14-8 6-4 7-1 16-4c6-2 13-2 19-2a204 204 0 0 1 37 2l17 2c6 1 13 3 19 6 15 5 18 21 11 34-4 5-8 11-14 14-5 2-11 3-17 3a114 114 0 0 0-17 2c-7 2-13 4-19 4l-39-6c-8-1-14-2-21-6-5-3-10-6-15-5-4 0-4 5 0 5 7 0 12 7 19 10 7 2 15 1 22 2 8 0 17 0 25 2a45 45 0 0 0 17 1c14-2 30 0 44-6 11-4 18-15 21-27 3-9 0-21-8-27-10-8-26-12-39-14-15-2-30-1-45 0-6 0-13 0-18 2-7 1-14 5-21 7-6 1-12 0-17 4-5 3-10 10-13 15-7 13 0 20 10 28l1-1z"/><path class="cls-3" d="M18 59c2 6 0 12 1 17a112 112 0 0 1 1 18c-1 10-4 20 3 28l2-1-1-15a70 70 0 0 1 0-20c1-5 2-10 1-15 0-5-3-8-7-12zM156 69c2 9-3 19-4 28a99 99 0 0 0-1 25c0 2 2 3 3 1 2-4 2-8 2-12 0-6 0-12 3-18 3-8 6-16 2-25a3 3 0 0 0-5 1zM21 144c-2 5-1 10-1 15a49 49 0 0 0 1 14c3 12 0 25 4 36a1 1 0 0 0 2 0c4-11-1-23 0-35a55 55 0 0 0-1-15l-4-15a1 1 0 0 0-1 0zM151 146c-3 4-4 11-5 16a90 90 0 0 0-2 15 188 188 0 0 0 3 35c0 2 3 2 3 0 2-11 2-22 2-33l-1-17v-16zM33 215c3 8 13 13 21 16a64 64 0 0 0 29 4h17c4 1 8 0 11-1 9-6 20-8 29-15h-1c-9 1-18 9-27 9a97 97 0 0 0-12 1H84c-10 0-19 1-28-2-8-3-15-9-23-12z"/><path class="cls-3" d="M154 196c4 7 7 13 5 21-3 8-10 13-17 17l-24 6c-8 2-16 6-24 5l-27-4c-9-1-19-1-28-4s-18-9-22-17a15 15 0 0 1-1-12c2-4 5-6 9-9 1-1 0-2-1-2-7 1-11 9-11 15 0 8 6 16 12 21 8 7 20 10 31 12l38 4c10 1 21-3 31-5s20-4 28-11c7-5 12-13 12-22 0-6-4-15-11-16a1 1 0 0 0 0 1zM173 36l-1 5c0 4-1 7-3 11l-2 8v7a1 1 0 0 0 1 0c4-5 8-12 8-19 0-4 1-9-3-12z"/><path class="cls-3" d="M158 153l-1 11a71 71 0 0 1-1 14c-2 6-3 10 2 15 13 15 9 32-4 45a1 1 0 0 0 1 1c13-6 17-24 13-38a43 43 0 0 0-5-9c-1-2-3-4-3-7l1-6c0-8 2-19-3-26zM31 242c13 11 33 12 49 14l14-1a75 75 0 0 0 12 0 26 26 0 0 0 16-7s0-1 0 0c-6 4-14 5-21 5l-21-1a95 95 0 0 1-49-10zM126 247c3 1 6 0 9-1l12-3a47 47 0 0 0-12 1c-3 0-7 1-10 3zM166 81c-1 8-5 14-7 21-1 3-2 5 1 7s5 3 6 6a18 18 0 0 1 2 10c0 8-6 12-12 17-1 1 0 3 1 2 10-4 17-16 14-26a20 20 0 0 0-3-7l-5-5c-2-3 1-10 2-14a37 37 0 0 0 1-11zM116 2c11 3 22 4 32 8 11 3 18 9 24 18 1 1 3 0 2-1-6-21-40-24-58-25zM38 24c-6 2-12 6-14 12a14 14 0 0 0 6 17l11 4 14 4a158 158 0 0 0 61 2c10-1 19-5 28-8 7-3 12-9 12-16a13 13 0 0 0-10-12c7 2 7 10 4 15a48 48 0 0 1-7 6 40 40 0 0 1-17 9c-14 4-27 2-41 1l-19-1-21-4c-6-1-15-2-18-9-3-9 5-16 11-19v-1zM141 23a7 7 0 0 0-3-4 25 25 0 0 0-10-1v2a19 19 0 0 0 6 1c2 1 6 0 7 2zM15 19A42 42 0 0 0 3 31c-4 5-3 10-3 16 1 5 2 6 5 10s4 7 5 11l5 7a1 1 0 0 0 1 0c2-10-5-14-11-20-5-6-3-14 0-21 2-6 6-10 10-15zM15 82l-1 8-2 12v5l-3 7v6h1c1-7 8-13 7-20V87c0-2 0-3-2-5zM7 131a17 17 0 0 0 3 10l4 5 1 5a2 2 0 0 0 2 0c4-1 3-6 0-8-3-1-5-2-6-5-2-2-2-5-3-7H7zM28 12h16l10-5 9-2c14-3 29-3 43-3 1 0 1 0 0 0a114 114 0 0 0-19-2 129 129 0 0 0-19 1c-7 2-13 6-21 7a54 54 0 0 0-8 1l-11 3zM15 163l1 28c0 4 1 3-1 6l-3 4a19 19 0 0 0-4 6c-4 11 3 23 12 30l1-1c-4-6-10-12-11-19-1-4 0-9 3-13l5-5c3-4 2-10 1-15 0-7-2-13-4-21zM168 70a6 6 0 0 0-3 6c0 2 1 5 3 5a2 2 0 0 0 3-2l-1-4a12 12 0 0 1 0-1 15 15 0 0 1 0-2 1 1 0 0 0-2-2zM33 75c7 6 17 10 26 11 12 2 23-2 35 0v-1c-9-5-18-2-27-2a66 66 0 0 1-34-9v1z"/><path class="cls-4" d="M138 130a98 98 0 0 1 0 22c0 3 0 10-4 12-3 2-9 2-13 1v1c6 2 16 3 18-5a79 79 0 0 0-1-31zM99 165c3-2 5-6 3-10a1 1 0 0 0-1 1c0 3 0 6-3 8a1 1 0 0 0 1 1zM61 159c-3-2-8-2-11-1a28 28 0 0 0-6 1c-2 1-13 8-12-1a1 1 0 0 0-2 0c-2 4 2 8 6 8l11-5 14-1v-1zM70 161v-12a1 1 0 0 0-2 0c-2 3-2 9 0 13a1 1 0 0 0 2-1zM100 168a72 72 0 0 0 17 25c-1 2-3 4-6 5-6 4-14 7-21 7a44 44 0 0 1-11-2l-10-3c-4-1-9-3-10-7a77 77 0 0 0 16-24 23 23 0 0 0 26-1"/><path class="cls-4" d="M99 168a57 57 0 0 0 6 12l8 11c1 2 3 2 1 4-1 2-6 4-9 5a33 33 0 0 1-17 3c-6 0-11-3-16-4-3-1-13-3-11-8l4-5 6-6a24 24 0 0 0 6-11l-3 1a26 26 0 0 0 28-1c1-1 0-4-2-3-7 6-16 6-24 1a1 1 0 0 0-2 1c-6 8-8 17-16 24a1 1 0 0 0 0 1c1 4 4 6 8 7a76 76 0 0 0 21 6c6 1 11-1 16-3s12-5 15-10a1 1 0 0 0 0-1c-6-8-12-15-17-25a1 1 0 0 0-2 1z"/><path class="cls-4" d="M92 139a31 31 0 0 1 7 8 6 6 0 0 1 1 4 3 3 0 0 1-2 2l1 4c-1 3-2 7-6 8l-6 1c-4-1-9-2-12-5a20 20 0 0 1-3-5 4 4 0 0 1-1-2 3 3 0 0 1 2-2c1-2 4-3 4-5a8 8 0 0 1 0-2 3 3 0 0 1 1-1l4-3a13 13 0 0 1 5-3c2 0 4 1 5 3"/><path class="cls-4" d="M91 140c1 1 10 11 6 11-1 1-2 3 0 4s0 5-1 7c-3 4-8 3-12 2s-13-5-10-11c0-2 2-3 3-4l1-3c2-4 9-8 14-5 0-7-9-3-11-1l-5 3-1 3c-1 3-5 5-5 8 0 8 9 11 15 12 3 1 7 1 10-1 4-2 4-6 5-10a2 2 0 0 0 0-3h-1v3c7-4-3-13-7-16-1-1-2 0-1 1z"/><path class="cls-4" d="M107 157a21 21 0 0 0-14-21 149 149 0 0 0 11-24l2-3a3 3 0 0 1 3 1c10 4 22 10 25 21 2 5 2 10 2 15l-2 15a2 2 0 0 1 0 2 2 2 0 0 1-2 0l-22-3"/><path class="cls-4" d="M107 157c2-9-5-19-13-23v2l7-12c1-3 4-12 7-13s9 4 12 6a32 32 0 0 1 11 9c4 8 5 20 4 29l-1 2q-2 6-6 4l-7-1c-3-1-7-2-11-1a1 1 0 0 0-1 1c6 3 13 3 19 3 5 0 6 1 8-4 2-10 3-25-3-34a35 35 0 0 0-10-10c-4-2-10-7-15-8-3 0-4 1-6 4l-10 24a2 2 0 0 0 0 2c10 3 13 11 14 20h1zM82 134a37 37 0 0 0-4-9l-7-14c-1-1-1-3-3-3-1-1-3 0-4 1l-8 7-5 3a41 41 0 0 0-14 39 61 61 0 0 1 24-6 9 9 0 0 0 3 0c2-1 3-4 4-6a23 23 0 0 1 12-12"/><path class="cls-4" d="M82 134l-5-13c-1-4-3-11-6-13-5-5-12 4-16 7a46 46 0 0 0-20 43c1 2 2 2 3 2a60 60 0 0 1 19-5l8-1c2-1 3-7 5-9 2-5 6-7 11-9 3-1 0-5-2-4-4 2-6 4-8 7s-4 10-7 11l-13 2a68 68 0 0 0-15 4l3 1c-2-14 2-28 14-38l6-4 6-5c3 0 4 2 5 4a67 67 0 0 1 11 20 1 1 0 0 0 1 0zM118 198c4-2 3-6 1-10l-5-5c-3-2-4-5-5-9l-1 1c0 3 2 7 4 9 4 4 10 7 6 14-1 0 0 0 0 0zM79 207c-6-3-26-8-22-17l11-17-1-1c-5 4-6 9-9 15-2 2-4 5-3 8s5 4 7 5a58 58 0 0 0 17 7zM69 170a8 8 0 0 0 2-1v-1-1l-1 1a7 7 0 0 1-2 1c0 1 0 2 1 1zM114 201c-4 0-7 2-10 4-5 2-10 3-16 2v1a23 23 0 0 0 13 0c4-2 8-5 13-6v-1zM95 122c3-5 4-12 9-15 7-5 14 1 20 6l1-1c-3-5-12-10-19-9-8 2-9 13-11 19 0 0 0 1 0 0zM126 114a7 7 0 0 1 2 1l2 2v-1l-1-1a8 8 0 0 0-3-1c0-1 0 0 0 0zM132 118l3 4v-1l-3-4v1zM85 129a39 39 0 0 0-4-10c-1-3-2-7-4-9l-1 1c2 6 6 12 7 18h2z"/><path class="cls-4" d="M71 103c-3-1-5-1-8 1l-12 6c-5 5-12 13-13 20 0 1 0 1 0 0a84 84 0 0 1 12-16l9-6c4-1 7-6 12-4v-1z"/><path d="M124 123a38 38 0 0 0 2-9c2 1 2 3 2 5l1 6v3l-2 2a4 4 0 0 1-2-1l-2-3a19 19 0 0 1 3-10" fill="#1eaa39"/><path class="cls-3" d="M18 110c-5 5-8 14-7 21 2 9 10 13 17 18 9 6 17 9 28 10a100 100 0 0 0 17 0l19 1c9 1 18 4 27 0l13-8 14-6c8-4 17-9 20-17 3-7 1-13-5-17l-1 1c6 7-1 18-7 23a94 94 0 0 1-18 13c-14 7-31 8-46 7-9 0-16-2-25-3s-16-1-24-3-17-8-21-15c-5-8 0-16 2-23 0-2-2-3-3-2z"/><path class="cls-3" d="M31 124c0 9 8 13 15 16 13 5 29 7 43 7a91 91 0 0 0 18-1c6-1 10-5 15-7 8-3 22-2 23-13a2 2 0 0 0-2-2c-8 3-14 8-22 10l-13 5c-5 2-10 1-16 1-19-1-49 4-61-16z"/><path class="cls-2" d="M128 137a8 8 0 0 0 7-2 8 8 0 0 1 1-1 3 3 0 0 1 3 4 19 19 0 0 0-2 1c-2 1-1 3-2 5h-6l-6-3-2-1 2-2 7-1"/><path class="cls-2" d="M128 137a9 9 0 0 0 3 0l4-2c1 0 3 2 2 3a10 10 0 0 1-1 0 4 4 0 0 0-1 2c-1 2-2 5-5 4l-5-3-2-1c-1 0-1 0 0 0a1 1 0 0 1 1-1l6-2v-1c-1 0-14 2-9 6l3 1 4 2h6a4 4 0 0 0 2-2l2-4c2-1 3-2 3-4a3 3 0 0 0-4-2 4 4 0 0 0-2 1c-2 1-4 3-7 3z"/></g></g></svg>
