<svg xmlns="http://www.w3.org/2000/svg" viewBox="0 0 356.71 361.4"><defs><style>.cls-1{fill:#231815;}.cls-2{fill:#e50012;}</style></defs><title>Asset 1</title><g id="Layer_2" data-name="Layer 2"><g id="圖"><path class="cls-1" d="M73.93,81.44l-4.15-6.12a1.31,1.31,0,0,1,.92-2L81.3,72a1.25,1.25,0,0,0,.8-.41l3.42-3.7a1.29,1.29,0,0,0,.35-1L84.44,43.25A2.44,2.44,0,0,0,82,41H65.21a1.3,1.3,0,0,1-1.3-1.21L61.54,8.05a1.31,1.31,0,0,0-1.33-1.22L32.75,7.3a1.31,1.31,0,0,0-1.29,1.37c.3,6.2,1.41,31.74-.06,32.78-1.69,1.19-16.7-2.3-17.33,1s-1.32,35,0,37.7c.82,1.7,4.13,2.08,6.54,2.12a1.31,1.31,0,0,1,1,2.08C16.87,90.89,2.94,110,2.87,112.26,2.78,115,22.41,135.57,23.75,135.7c.91.08,5-4.12,7.56-6.86a1.31,1.31,0,0,1,2.27.82c.33,6.86,1.23,22.68,2.4,24.38,1.49,2.16,37.89,5,39.22,3.56s.09-29.36-.09-33.62a1.28,1.28,0,0,1,.34-.93l4.46-4.85a1.3,1.3,0,0,0,.06-1.7L62.3,94.13a1.3,1.3,0,0,1,.2-1.83l11.17-9.1A1.32,1.32,0,0,0,73.93,81.44Z"/><path class="cls-1" d="M65.65,31.49c.06.86.24,3.38.49,6.86a.37.37,0,0,0,.34.29H67l3.66,0,8.28.08,2.17,0h.82a6.54,6.54,0,0,1,.89.08,4.56,4.56,0,0,1,3.62,3.45,5.16,5.16,0,0,1,.13.89l0,.82.06,1.1c.14,2.94.29,5.86.42,8.66s.27,5.47.39,7.91c0,1.22.11,2.39.16,3.48,0,.28,0,.56,0,.84a8.19,8.19,0,0,1,0,1.21,3.11,3.11,0,0,1-1,2l-1.87,2-.81.87-.54.57a4.28,4.28,0,0,1-.64.57,3.44,3.44,0,0,1-1.57.52l-1.22.14-2,.24-5,.58c-.38.05-.78,0-1,.31a.63.63,0,0,0,0,.72l.41.64.79,1.16a5.41,5.41,0,0,1,1,2.59c.14,1.29-.45,1.78-1.57,1A10.26,10.26,0,0,1,70.54,79L69,76.88a6.44,6.44,0,0,1-.79-1.54,2.41,2.41,0,0,1-.14-1.54A2.5,2.5,0,0,1,69,72.41a5.51,5.51,0,0,1,1.4-.67,11.17,11.17,0,0,1,1.86-.35L74,71.15l2.58-.36,2.5-.33,1.25-.16a2.45,2.45,0,0,0,.6-.12,1,1,0,0,0,.21-.19l.24-.26.85-.93,1.56-1.69a.7.7,0,0,0,.29-.59l-.06-1-.18-3c-.27-4.41-.39-8.85-.83-13.23-.16-1.66-.29-3.32-.41-5l0-.34a2.06,2.06,0,0,0,0-.26,1,1,0,0,0-.22-.46,1.1,1.1,0,0,0-.93-.36H76.61c-1.66,0-3.33,0-5,.11l-2.38.08-2.51.06a15.91,15.91,0,0,1-2,0,3.7,3.7,0,0,1-1.66-.63,4,4,0,0,1-1.47-3.27l-.83-10-.87-10-.77-9.33c0-.18,0-.41-.25-.46a1.31,1.31,0,0,0-.28,0l-.45,0c-2.63.07-5.25.26-7.88.31l-10.47.08-3.31.08-1.66,0-.34,0c-.21,0-.31.22-.24.39v.18l0,.45.09,1.66C34.73,19.34,35,26,35,32.78c0,2,.09,3.93-.06,6l-.15,1.44a12.92,12.92,0,0,1-.29,1.43l-.22.66-.36.54c-.12.18-.27.33-.4.5s-.19.12-.19.29l-.26.2a6.56,6.56,0,0,1-3.83.72c-.32,0-.77,0-1-.05l-.6,0-1.16-.1c-1.92-.18-3.78-.37-5.59-.47-.9,0-1.79-.07-2.62-.06-.41,0-.82,0-1.17.07L17,44c-.05,0-.05.09,0,.14a.28.28,0,0,0,.06.16l0,.06s0,0,0,.09v.32l-.07,2.68c-.05,1.83-.11,3.66-.17,5.48-.2,6.52-.26,13.08-.1,19.54,0,.18,0,.49,0,1.53,0,.51.05,1.2.09,2.14,0,.46.07,1,.11,1.56,0,.27.07.56.11.88h0l.24.08a5.16,5.16,0,0,0,.72.17,3.09,3.09,0,0,0,.49.08l.66.08c.45,0,.95.06,1.47.08a5.1,5.1,0,0,1,2.17.61,5.36,5.36,0,0,1,.77.55,4.49,4.49,0,0,1,1.5,3.45c-.11.45-.31.94-.47,1.43-.08.24-.17.49-.26.74l-.13.38-.29.39c-1.91,2.61-4.19,5.7-6.7,9.1-2.15,3-4.49,6.22-6.83,9.61C9.25,107,8.06,108.74,7,110.47c-.28.44-.51.85-.75,1.27l-.2.34,0,.08a.19.19,0,0,0,0,.18l.07.13.36.55c1.1,1.59,2.43,3.22,3.73,4.78s2.65,3.09,4,4.56c2.63,2.94,5.19,5.65,7.48,8,.58.58,1.14,1.13,1.68,1.64l.29.28.16.15c.11.14.26,0,.35,0l.16-.11.31-.27,1.11-1,1.09-1.08c1-1,1.79-1.84,2.32-2.39a10.57,10.57,0,0,1,1.16-.9,6.94,6.94,0,0,1,.94-.42,6.38,6.38,0,0,1,.73-.21,3,3,0,0,1,.79,0,3.46,3.46,0,0,1,2.15,1,2.76,2.76,0,0,1,.51.79c.09.17.13.24.15.29l.31.58a6.32,6.32,0,0,1,.15.89l.2,1.69.08,1.74.06.86,0,.41,0,.25a5.55,5.55,0,0,0,.26,1,6.56,6.56,0,0,1,.13,1.82A3.67,3.67,0,0,0,37,139a3,3,0,0,1,.09,1.29,19.07,19.07,0,0,0,.28,6.93c.19.66.11,1.5.25,2.21l.34,1.95.1.52a1.39,1.39,0,0,0,.06.19c0,.09.14.11.23.15l.17,0,.66.14a18.91,18.91,0,0,0,2.88.34,33.26,33.26,0,0,1,3.93.78,9.56,9.56,0,0,0,1.58.23,42.34,42.34,0,0,1,6.11.57c2.77.42,5.65.49,8.47.65,2.59.14,5.18.23,7.73.28l1.32,0h1.42c.08,0,.17,0,.23-.05a1.27,1.27,0,0,0,.07-.44l0-.5v-.61l0-1.24c0-1.1-.08-2.2-.09-3.34,0-3-.18-6.09-.28-9.15,0-1.53,0-3.07,0-4.61l-.14-5.39-.18-5.75a4.17,4.17,0,0,1,.59-2.34,13,13,0,0,1,1.36-1.6l1.84-2,.69-.74.15-.15c.11-.12,0-.27-.08-.37l-2.23-2.78c-.88-1.09-1.75-2.18-2.58-3.3-2.74-3.66-5.51-7.27-8.45-10.78-.53-.64-1-1.29-1.55-1.95l-.83-1.09a16.29,16.29,0,0,1-1.29-1.81,4.11,4.11,0,0,1-.5-1.9A3.76,3.76,0,0,1,60,91.47,5.42,5.42,0,0,1,61.39,90l1.44-1.12,9-7,.43-.32,0,0h0l.5.71h0s.08-.06.05,0l0,0h0l0,0a1.08,1.08,0,0,1,.28-.16.71.71,0,0,1,.74.1,1.13,1.13,0,0,1,.32,1.14c-.18.53-.36.87-.53,1.26a5.31,5.31,0,0,1-1.08,1.61c-.66.51-2.65,2.16-5.49,4.52l-2.17,1.81-.6.51a.65.65,0,0,0-.18.74c.32.45,2.38,2.94,3.92,4.85l10.29,12.68,2.76,3.41a4.2,4.2,0,0,1,1.21,2.7A3.81,3.81,0,0,1,81.15,120l-2.77,3.09c-1,1.14-1.1,1.06-1,1.52.14,2.79.26,5.2.35,7.07s.13,3.35.15,4.05q.15,5.48.18,11c0,1.84,0,3.67,0,5.53,0,.92,0,1.85-.11,2.81a16.72,16.72,0,0,1-.25,2.23l-.11.53c-.06.17-.14.31-.21.47a7.56,7.56,0,0,1-.47.89,4.05,4.05,0,0,1-.62.37,5.31,5.31,0,0,1-1.35.51c-.51,0-1,.15-1.53.15-1.14.06-1.63.06-2.32.06-1.32,0-2.62,0-3.91-.06-2.59-.08-5.16-.22-7.73-.4-5.23-.37-10.43-.93-15.66-1.6-1.44-.19-2.87-.38-4.34-.62-.76-.14-1.41-.24-2.31-.47a9.28,9.28,0,0,1-1.73-.6A5.72,5.72,0,0,1,34,155.36a13.47,13.47,0,0,1-.62-1.47,4.35,4.35,0,0,1-.23-.78l-.14-.65c-.14-.68-.25-1.33-.35-2s-.15-1.26-.21-1.89l-.2-2.32-.38-3.48-.14-1.38a5,5,0,0,1-.15-.9c.05-1.35,0-2.69,0-4l-.12-2-.07-.62c0-.13,0-.33,0-.46a.61.61,0,0,0-.11-.29.32.32,0,0,0-.34,0,2.3,2.3,0,0,0-.45.57l-.16.22-.09.12-.52.54c-.35.36-.7.71-1.07,1.07l-.57.53c-.26.26-.65.58-1,.85a6.28,6.28,0,0,1-2.18,1.3,10.22,10.22,0,0,1-1.15.19,3.4,3.4,0,0,1-1.12-.31,2,2,0,0,1-.54-.24l-.53-.38a13,13,0,0,1-1-.85c-.79-.7-1-.95-1.37-1.33A16.81,16.81,0,0,0,16.59,133a7.51,7.51,0,0,1-1.53-1.45c-2.1-2.63-4.67-4.77-6.86-7.31a84.06,84.06,0,0,1-6.55-8l-.4-.62-.58-1a11.72,11.72,0,0,1-.47-1.1,10.79,10.79,0,0,1-.2-1.16,9.23,9.23,0,0,1,.2-1.15l.43-1.12a8.3,8.3,0,0,1,.74-1.6c.9-1.65,1.81-3.15,2.8-4.61S8,98.23,10.93,94l6.22-8.77s.07-.08,0-.13-.08,0-.13,0l0,0h0l-.3,0-.62-.14a13.16,13.16,0,0,1-1.32-.41,7.81,7.81,0,0,1-1.69-.9,5.63,5.63,0,0,1-1.79-2.06l-.38-1.29a4.64,4.64,0,0,1-.19-1.07c-.08-.54-.14-1.09-.17-1.56-.08-1-.14-2-.17-2.9-.08-1.91-.12-3.79-.14-5.66q-.06-5.62,0-11.22l.16-7.33.13-3.68.09-1.86.07-1,0-.75a6.07,6.07,0,0,1,.13-.87,16.4,16.4,0,0,1,.45-1.64,4.28,4.28,0,0,1,1-1.32A6.54,6.54,0,0,1,15.52,38l.89-.14.59-.06c.37,0,.72,0,1.07,0,.7,0,1.36,0,2,0,2.59.09,5,.37,7.38.55l1.16.08c.14,0,.05,0,.08,0h0a.42.42,0,0,0,0-.11c0-.39,0-.81.08-1.24.1-1.76.14-3.89.15-6.27,0-4.77-.07-10.56-.25-16.75,0-.78,0-1.56-.07-2.35l-.06-1.51a16.86,16.86,0,0,1,0-2.13c.08-.32.14-.66.24-1a4,4,0,0,1,2-2.18,4.66,4.66,0,0,1,2-.48l2.11,0,9.77-.06,9.53-.05,4.88,0A8.48,8.48,0,0,1,61,4.37a3.77,3.77,0,0,1,1.57.7A3.63,3.63,0,0,1,63.65,6.4a5,5,0,0,1,.43,1.67l1,16C65.4,28,65.59,30.62,65.65,31.49Z"/><path class="cls-1" d="M90.83,66a1.14,1.14,0,0,0-1,1.18,1.14,1.14,0,0,1-.29.72l-20.91,24a1.18,1.18,0,0,0,0,1.53L88,118.06a1.18,1.18,0,0,1,0,1.52l-8.75,9.84a1.21,1.21,0,0,0-.3.79v12.36a1.17,1.17,0,0,0,.39.88l15.5,13.93a1.18,1.18,0,0,0,1.64-.06l9.09-9.51a1.16,1.16,0,0,0,0-1.64l-11.78-12a1.18,1.18,0,0,1-.07-1.59l41.32-49.3a1.2,1.2,0,0,1,1.59-.22l10.13,7a1.18,1.18,0,0,0,1.56-.19l16.93-19.16A1.17,1.17,0,0,0,165,69l-8.37-6.82a1.22,1.22,0,0,0-.82-.26L138.94,63a1.2,1.2,0,0,0-.79.37L108.3,94.74a1.19,1.19,0,0,1-1.85-.17l-1.62-2.47a1.21,1.21,0,0,1,.13-1.47l24.12-25.36a1.18,1.18,0,0,0-.94-2Z"/><path class="cls-1" d="M95.54,158a1.47,1.47,0,0,1-1-.38L79.06,143.67a1.48,1.48,0,0,1-.49-1.1V130.21a1.5,1.5,0,0,1,.37-1l8.75-9.84a.88.88,0,0,0,0-1.14L68.33,93.59a1.47,1.47,0,0,1,.06-1.9l20.91-24a.84.84,0,0,0,.22-.54,1.44,1.44,0,0,1,1.29-1.46L128.12,63a1.48,1.48,0,0,1,1.18,2.49L105.17,90.83a.9.9,0,0,0-.09,1.11l1.61,2.47a.88.88,0,0,0,.67.4.91.91,0,0,0,.72-.27l29.86-31.35a1.48,1.48,0,0,1,1-.46l16.88-1.06a1.46,1.46,0,0,1,1,.33l8.38,6.82a1.47,1.47,0,0,1,.17,2.12L148.44,90.09a1.46,1.46,0,0,1-1.94.24l-10.14-7a.9.9,0,0,0-1.19.16L93.85,132.76a.89.89,0,0,0,0,1.2l11.79,12a1.47,1.47,0,0,1,0,2l-9.1,9.51A1.46,1.46,0,0,1,95.54,158Zm32.7-94.41h-.08L90.85,66.25a.88.88,0,0,0-.75.9,1.42,1.42,0,0,1-.37.91l-20.9,24a.89.89,0,0,0,0,1.16l19.39,24.64a1.47,1.47,0,0,1-.06,1.89l-8.74,9.84a.9.9,0,0,0-.23.6v12.36a.89.89,0,0,0,.3.67l15.49,13.92a.88.88,0,0,0,1.24,0l9.09-9.51a.88.88,0,0,0,0-1.24l-11.79-12a1.46,1.46,0,0,1-.08-2l41.32-49.3a1.46,1.46,0,0,1,2-.26l10.14,7a.89.89,0,0,0,1.18-.14l16.93-19.16a.89.89,0,0,0,.22-.66.87.87,0,0,0-.33-.62l-8.38-6.82a.91.91,0,0,0-.62-.2L139,63.31a1,1,0,0,0-.59.28L108.51,94.94a1.47,1.47,0,0,1-1.2.45,1.43,1.43,0,0,1-1.1-.66l-1.62-2.47a1.48,1.48,0,0,1,.16-1.83l24.12-25.36a.88.88,0,0,0,.16-1A.87.87,0,0,0,128.24,63.56Z"/><path class="cls-1" d="M156.1,63a.37.37,0,0,1,.22-.65l7.46-.39a.86.86,0,0,0,.81-.85L165.06,28a.86.86,0,0,0-.82-.87l-21.69-.9a.85.85,0,0,1-.81-.82l-.9-18.29a.84.84,0,0,0-.86-.81L90.48,7a.86.86,0,0,0-.84.89L90.54,30a.85.85,0,0,1-.8.89l-13.13.86a.86.86,0,0,0-.8.89L76,36.38a.85.85,0,0,0,.79.81l11,.89a.36.36,0,0,1,.34.35l1.76,27.64a1.13,1.13,0,0,0,.63,1h0"/><path class="cls-1" d="M90.42,67.3a1.4,1.4,0,0,1-.79-1.21L87.87,38.45a.07.07,0,0,0-.07-.08l-11-.89a1.14,1.14,0,0,1-1.06-1.09l-.17-3.74a1.15,1.15,0,0,1,1.07-1.2l13.13-.86a.57.57,0,0,0,.53-.59l-.9-22.07a1.16,1.16,0,0,1,.31-.83,1.13,1.13,0,0,1,.82-.36L140,6h0a1.14,1.14,0,0,1,1.14,1.09l.9,18.29a.57.57,0,0,0,.54.54l21.68.9a1.15,1.15,0,0,1,1.1,1.16l-.46,33.07a1.16,1.16,0,0,1-1.09,1.13l-7.47.39a.08.08,0,0,0-.07,0s0,.06,0,.09l-.37.45A.66.66,0,0,1,156.3,62l7.47-.4a.55.55,0,0,0,.53-.55L164.77,28a.56.56,0,0,0-.54-.57l-21.69-.9a1.16,1.16,0,0,1-1.1-1.09l-.89-18.29a.57.57,0,0,0-.57-.54l-49.49.7a.62.62,0,0,0-.41.18.56.56,0,0,0-.15.41L90.83,30a1.14,1.14,0,0,1-1.07,1.19L76.63,32a.57.57,0,0,0-.53.59l.17,3.75a.57.57,0,0,0,.52.53l11.06.89a.64.64,0,0,1,.6.63l1.76,27.63a.85.85,0,0,0,.47.73Z"/><polyline class="cls-1" points="121.85 160.55 96.28 133.82 136.72 86.29 154.73 101.4 147.18 115.93 167.52 135.69 148.92 161.26 134.39 148.47"/><polygon class="cls-1" points="148.97 161.69 134.2 148.69 134.59 148.25 148.88 160.83 167.13 135.72 146.82 115.98 154.37 101.47 136.75 86.7 96.67 133.81 122.06 160.35 121.64 160.75 95.89 133.83 96.06 133.63 136.68 85.88 155.1 101.33 147.54 115.87 167.9 135.65 167.75 135.86 148.97 161.69"/><path class="cls-1" d="M166.07,24.17l-13.23-.55a.37.37,0,0,1-.35-.4L153,17a.38.38,0,0,1,.37-.34l63.79-.08c.21,0,.37.25.37.46l-2.31,76.55a.35.35,0,0,1-.37.35l-21.94-.56a.37.37,0,0,1-.36-.37l.57-44a.36.36,0,0,0-.38-.37l-10.87.54a.38.38,0,0,0-.35.39l2.87,57.4a.38.38,0,0,0,.37.35h29.77a.32.32,0,0,1,.19,0l3.89,2.22a.41.41,0,0,0,.19,0h12.35a.37.37,0,0,1,.37.33L232,115a.36.36,0,0,1-.38.4L211,115.06a.37.37,0,0,0-.39.38L210,130.72a.37.37,0,0,1-.38.38L170.06,130a.4.4,0,0,1-.27-.14L156.6,113.19a.39.39,0,0,1-.08-.21l-1.15-29.4.08-.23,12.67-13.56v-.06l-4-3.71a1.51,1.51,0,0,1,.49-2.53l3.26-1.23-1.41-37.74A.37.37,0,0,0,166.07,24.17Z"/><path class="cls-1" d="M209.61,131.39h0l-39.53-1.14a.68.68,0,0,1-.5-.25l-13.19-16.63a.7.7,0,0,1-.14-.38l-1.15-29.46.16-.38,12.49-13.38-3.85-3.54a1.78,1.78,0,0,1-.55-1.67,1.8,1.8,0,0,1,1.14-1.35l3.07-1.14-1.41-37.53a.08.08,0,0,0-.07-.08l-13.23-.55a.69.69,0,0,1-.47-.22.68.68,0,0,1-.16-.49l.52-6.26a.66.66,0,0,1,.66-.6l63.79-.09a.58.58,0,0,1,.43.2.83.83,0,0,1,.23.57l-2.31,76.54a.65.65,0,0,1-.65.64h0l-21.94-.56a.67.67,0,0,1-.64-.67l.57-44-.08-.08-10.86.55a.07.07,0,0,0-.07.08l2.86,57.39a.08.08,0,0,0,.08.07h29.77a.74.74,0,0,1,.33.09l3.9,2.23h12.39a.67.67,0,0,1,.66.59l.5,5.06a.63.63,0,0,1-.18.52.67.67,0,0,1-.51.2L211,115.35h0l-.09.09-.64,15.28a.63.63,0,0,1-.19.47A.68.68,0,0,1,209.61,131.39Zm-54-47.77L156.81,113,170,129.64l39.59,1.17h0l.08-.09.64-15.28a.63.63,0,0,1,.19-.47.74.74,0,0,1,.5-.19l20.63.34.09-.08-.5-5.06a.08.08,0,0,0-.08-.07H218.81a.73.73,0,0,1-.33-.08l-3.9-2.23H184.77a.67.67,0,0,1-.66-.63l-2.87-57.39a.67.67,0,0,1,.63-.7l10.86-.54a.68.68,0,0,1,.7.67l-.58,44a.09.09,0,0,0,.08.08l21.93.56s.08,0,.08-.07L217.24,17a.19.19,0,0,0-.08-.16l-63.78.08a.08.08,0,0,0-.08.07l-.52,6.25.06.38v-.29l13.23.55a.65.65,0,0,1,.63.63l1.42,38-3.46,1.3a1.21,1.21,0,0,0-.77.91,1.22,1.22,0,0,0,.37,1.13l4.13,3.8v.24l-.08.14L155.71,83.51Z"/><path class="cls-1" d="M213.92,16.55l82.44-1.16a.57.57,0,0,1,.31.1L301,18.73a.48.48,0,0,1,.2.4l.58,114.23v4.07a.5.5,0,0,1-.57.5l-7.07-1a.51.51,0,0,1-.43-.57l1-7.66a.51.51,0,0,0-.49-.57l-44.85-.56a.51.51,0,0,1-.49-.51V117a.51.51,0,0,0-.47-.5l-16.32-1.17a.5.5,0,0,1-.46-.45l-.49-4.9c0-.27.12-.37.39-.4l43.61-5.19a.5.5,0,0,0,.44-.53l-4-58.9a.49.49,0,0,0-.51-.47L214,46.18a.51.51,0,0,1-.52-.51V17.05A.49.49,0,0,1,213.92,16.55Z"/><path class="cls-1" d="M301.26,138.22h-.11l-7.07-1a.8.8,0,0,1-.68-.89l1-7.67a.18.18,0,0,0-.05-.16.18.18,0,0,0-.15-.07l-44.85-.57a.8.8,0,0,1-.78-.8V117a.21.21,0,0,0-.2-.2l-16.32-1.18a.79.79,0,0,1-.73-.71l-.49-4.9c0-.24,0-.64.65-.72l43.6-5.19a.22.22,0,0,0,.19-.22l-4-58.9a.21.21,0,0,0-.21-.2h0L214,46.47a.79.79,0,0,1-.58-.23.76.76,0,0,1-.24-.57V17.05a.81.81,0,0,1,.78-.8h0l82.44-1.15h0a.79.79,0,0,1,.48.16l4.31,3.23a.81.81,0,0,1,.32.64l.58,114.23v4.07a.8.8,0,0,1-.27.6A.78.78,0,0,1,301.26,138.22Zm-30.19-94a.8.8,0,0,1,.8.74l4,58.9a.79.79,0,0,1-.7.84l-43.6,5.19c-.12,0-.15,0-.15,0l.5,4.94a.21.21,0,0,0,.19.19l16.32,1.17a.8.8,0,0,1,.74.79v10.08a.22.22,0,0,0,.21.22l44.84.56a.85.85,0,0,1,.6.28.82.82,0,0,1,.18.62l-1,7.66a.21.21,0,0,0,.18.24l7.07,1a.25.25,0,0,0,.17,0,.22.22,0,0,0,.07-.16v-4.07l-.58-114.23a.21.21,0,0,0-.08-.17l-4.32-3.23s-.05,0-.13-.05l-82.43,1.16a.21.21,0,0,0-.21.21V45.67a.23.23,0,0,0,.06.16.15.15,0,0,0,.16.05l57.11-1.71Z"/><polygon class="cls-1" points="221.56 40.38 222.73 81.06 230.28 93.26 276.77 97.33 277.35 66.53 251.2 66.53 249.46 47.35 265.73 32.24 221.56 40.38"/><path class="cls-1" d="M277.06,97.65l-46.95-4.11-7.67-12.39-1.17-41,.24,0,45.15-8.31-16.9,15.69,1.71,18.77h26.18ZM230.45,93l46,4,.57-30.19H250.94l-1.78-19.58L264.8,32.71l-42.94,7.91L223,81Z"/><path class="cls-2" d="M101.85,317.58c-23.83,20.92-61,33.21-90.08,34.29,0,0,.23-58.08,2.33-58.11,32-.59,32.54-16.86,32.54-16.86C15.26,268.77,6.54,174,12.36,161.84L69.89,163l-1.16,56.37c1.74,12.2,20.92,29.06,20.92,29.06Z"/><path class="cls-2" d="M11.48,352.17v-.3c0-.15.06-14.69.38-29.05.64-29.33,1.68-29.35,2.23-29.36,29.26-.53,32-14.38,32.24-16.34C38.59,275,31.69,267.56,25.84,255,11.05,223.3,8,170.31,12.09,161.71l.08-.17h.19l57.82,1.16v.3L69,219.38c1.7,11.91,20.63,28.66,20.82,28.83l.08.06v.11l12.24,69.31-.13.11c-25.47,22.37-63.68,33.37-90.25,34.36ZM14.17,294c-1.38,1.76-2,35.16-2.1,57.53,26.41-1.05,64.19-12,89.47-34.1L89.38,248.58c-1.51-1.34-19.24-17.27-20.94-29.17l1.15-56.12-57-1.16c-3.94,9-.8,61.25,13.83,92.63,5.84,12.52,12.68,19.87,20.35,21.86l.22.06v.23C46.93,277.08,46,293.44,14.17,294Z"/><path class="cls-2" d="M62,163h89.72a.29.29,0,0,1,.18.07l17.86,17.29a.25.25,0,0,1,.08.18v30a.21.21,0,0,1-.05.15l-12.62,16.63a.27.27,0,0,0,0,.31l4.48,6.16a.22.22,0,0,1,0,.17c-.69,10.9-22.84,43.24-23.79,44.61a.3.3,0,0,0,0,.1c-.12.91-.93,12.24,31.75,15.61a.25.25,0,0,1,.23.24c.19,3.79,2.84,56.74,1.16,56.74s-44.12,4.06-76.08-31.9a.25.25,0,0,1-.06-.15l-8.68-68.85a.25.25,0,0,1,.18-.28c13.17-3.85,20.46-19.65,23.55-28.37a4.29,4.29,0,0,0-4.14-5.73l-47.23,1a.26.26,0,0,1-.27-.28l3.46-53.52A.26.26,0,0,1,62,163Z"/><path class="cls-2" d="M166.53,351.7c-14,0-46.33-3.44-71.82-32.12a.58.58,0,0,1-.13-.3L85.9,250.42a.55.55,0,0,1,.39-.59c13-3.79,20.2-19.29,23.36-28.19a3.94,3.94,0,0,0-.53-3.68,3.9,3.9,0,0,0-3.33-1.66l-47.24,1a.54.54,0,0,1-.41-.17.57.57,0,0,1-.15-.42l3.46-53.52a.55.55,0,0,1,.55-.51h89.72a.51.51,0,0,1,.39.16L170,180.15a.57.57,0,0,1,.16.39v30a.55.55,0,0,1-.11.33l-12.61,16.63,4.48,6.12a.56.56,0,0,1,.1.36c-.69,11-22.89,43.38-23.84,44.76a6.84,6.84,0,0,0,1.79,4.83c2.89,3.65,10.39,8.43,29.71,10.42a.55.55,0,0,1,.49.51c.47,9.22,2.71,55.28,1.15,56.92a.41.41,0,0,1-.28.13l-.5,0C169.44,351.66,168.1,351.7,166.53,351.7Zm-60.65-136a4.58,4.58,0,0,1,4.32,6.11c-3.2,9-10.53,24.7-23.75,28.56l8.7,68.82c28.18,31.69,64.79,32.36,75.33,31.81l.42,0c.94-1.93,0-30.47-1.34-56.44-19.5-2-27.12-6.86-30.08-10.6a7.41,7.41,0,0,1-1.9-5.29.46.46,0,0,1,.09-.23c.94-1.37,23.06-33.66,23.74-44.47l-4.47-6.14a.54.54,0,0,1,0-.65l12.62-16.63v-30L151.7,163.28H62l-3.46,53.49,47.21-1.06Z"/><path class="cls-1" d="M173.36,132.78h39.47a.61.61,0,0,0,.62-.6l.54-14.49a.61.61,0,0,1,.62-.6h30.16a.62.62,0,0,1,.62.62v12.13a.62.62,0,0,0,.62.62H289a.62.62,0,0,1,.62.59l1.12,30.8a.62.62,0,0,1-.54.64l-16.27,2.1a.62.62,0,0,1-.62-.91l2.5-4.69a3.24,3.24,0,0,0-1.44-4.44l-20.74-12.27a3.24,3.24,0,0,0-4,.91L228.37,175a3.26,3.26,0,0,1-4.3.74l-11-7.59c-1.22-.77-.73-.87-.33-2.26L215.1,160a3.25,3.25,0,0,0-1.94-3.94l-13.75-9a3.25,3.25,0,0,0-3.74,1l-16.79,21.51a.6.6,0,0,1-.78.16l-5.6-3.05a.63.63,0,0,1-.33-.56l.57-32.72A.61.61,0,0,1,173.36,132.78Z"/><path class="cls-1" d="M225.81,176.5a3.44,3.44,0,0,1-1.89-.56l-11.06-7.59c-1.05-.66-1-1-.71-1.83a7.83,7.83,0,0,0,.26-.75l2.42-5.91a2.93,2.93,0,0,0-1.77-3.56l-13.81-9a2.93,2.93,0,0,0-3.35,1l-16.79,21.51A.91.91,0,0,1,178,170l-5.6-3.06a.91.91,0,0,1-.48-.81l.57-32.73a.91.91,0,0,1,.91-.89h39.47a.33.33,0,0,0,.33-.32l.54-14.49a.89.89,0,0,1,.91-.88h30.16a.91.91,0,0,1,.91.91v12.13a.32.32,0,0,0,.33.32H289a.91.91,0,0,1,.91.88l1.12,30.8a.9.9,0,0,1-.79.94l-16.27,2.1a.91.91,0,0,1-.86-.39.89.89,0,0,1-.06-.94l2.5-4.69a2.95,2.95,0,0,0-1.31-4.05l-20.76-12.28a3,3,0,0,0-3.6.84l-21.23,31.76A3.59,3.59,0,0,1,225.81,176.5Zm-27.59-30a3.64,3.64,0,0,1,1.29.24l13.81,9a3.49,3.49,0,0,1,2.06,4.26L213,166c-.09.29-.18.55-.26.76-.25.64-.26.67.48,1.14l11.06,7.59a3,3,0,0,0,3.9-.67L249.37,143a3.56,3.56,0,0,1,4.35-1l20.76,12.28a3.54,3.54,0,0,1,1.55,4.83l-2.5,4.69a.3.3,0,0,0,0,.34.3.3,0,0,0,.31.14l16.26-2.1a.33.33,0,0,0,.29-.33l-1.12-30.81a.33.33,0,0,0-.33-.31H246a.91.91,0,0,1-.91-.91V117.71a.33.33,0,0,0-.33-.33H214.61a.33.33,0,0,0-.33.32l-.54,14.5a.91.91,0,0,1-.91.87H173.36a.33.33,0,0,0-.33.32l-.56,32.73a.31.31,0,0,0,.17.29l5.6,3.06a.33.33,0,0,0,.41-.09l16.79-21.51A3.53,3.53,0,0,1,198.22,146.51Z"/><path class="cls-1" d="M163.45,227.51l32.21-33.94a.66.66,0,0,1,.77-.14l15.92,7.68a.66.66,0,0,0,.82-.21L227,181.54a.66.66,0,0,1,.91-.16l21.14,14.47a.66.66,0,0,0,.79,0l5.66-4.63a.68.68,0,0,1,.75-.06l48.09,28.06a.66.66,0,0,1,.33.57v4.66a.63.63,0,0,1-.11.35l-11.1,18.42c-.15.25-3.11-3.44-3.2-3.72l.6-9.18a.65.65,0,0,0-.61-.46l-24.8-.56A.66.66,0,0,1,265,229L251.55,218.3a.66.66,0,0,0-1.17.44l.8,13.29a.66.66,0,0,1-.68.68l-30.37,2.07a.65.65,0,0,1-.61-.49l-2-13.73c-.14-.53-2.31-1-2.64-.57l-12,15.22a.67.67,0,0,1-.43.26l-28.77,3a.63.63,0,0,1-.59-.21Z"/><path class="cls-1" d="M293.61,243.49h-.22c-.55-.07-3.33-3.69-3.41-3.93v-.05l.6-9.18a.38.38,0,0,0-.33-.21l-24.8-.56a1,1,0,0,1-.71-.34l-13.37-10.68a.39.39,0,0,0-.45-.15.34.34,0,0,0-.23.35l.79,13.29a.94.94,0,0,1-1,1l-30.34,2.07a1,1,0,0,1-.91-.71l-2-13.76a2.61,2.61,0,0,0-1-.41,1.82,1.82,0,0,0-1.09,0l-12,15.22a1,1,0,0,1-.61.37l-28.79,3a.94.94,0,0,1-.83-.3l-9.82-11,32.39-34.13a1,1,0,0,1,1.1-.2l15.93,7.68a.35.35,0,0,0,.45-.12l13.83-19.36a1,1,0,0,1,1.31-.23l21.15,14.47a.38.38,0,0,0,.44,0l5.65-4.63a1,1,0,0,1,1.08-.09l48.1,28.06a1,1,0,0,1,.47.82v4.66a.92.92,0,0,1-.15.51Zm-3.05-4.08a34,34,0,0,0,2.8,3.38l10.95-18.18a.31.31,0,0,0,.07-.2v-4.66a.37.37,0,0,0-.19-.32L256.1,191.37a.38.38,0,0,0-.42,0L250,196a1,1,0,0,1-1.13.05l-21.15-14.47a.36.36,0,0,0-.5.09l-13.83,19.36a1,1,0,0,1-1.19.31l-15.92-7.69a.37.37,0,0,0-.43.08l-32,33.74,9.46,10.58a.4.4,0,0,0,.33.12l28.78-3a.4.4,0,0,0,.23-.14l12-15.23c.29-.39,1.11-.3,1.57-.21s1.43.32,1.58.89l2,13.75a.36.36,0,0,0,.33.25l30.34-2.07a.41.41,0,0,0,.3-.11.35.35,0,0,0,.11-.27l-.8-13.28a1,1,0,0,1,.62-.93.94.94,0,0,1,1.06.29l13.37,10.67a.48.48,0,0,0,.32.18l24.8.56a.94.94,0,0,1,.88.66v.05Z"/><path class="cls-1" d="M197.6,149.89l15.34,8.76a.61.61,0,0,1,.24.79L209,167.77a.59.59,0,0,0,.2.75l14.19,9.83a.6.6,0,0,1,.15.83l-11,15.95a.59.59,0,0,1-.74.2l-15.45-7.17a.6.6,0,0,0-.66.11l-11.56,11a.59.59,0,0,1-.75.06l-10.94-7.66a.6.6,0,0,1-.25-.54l1.11-11.68a.61.61,0,0,1,.13-.32l23.4-29.1A.59.59,0,0,1,197.6,149.89Z"/><path class="cls-1" d="M183.73,199.73a.88.88,0,0,1-.51-.16l-10.93-7.66a.87.87,0,0,1-.38-.81L173,179.42a1,1,0,0,1,.19-.47l23.4-29.1a.9.9,0,0,1,1.13-.22l15.34,8.77a.89.89,0,0,1,.36,1.17l-4.17,8.33a.31.31,0,0,0,.1.39l14.19,9.82a.9.9,0,0,1,.23,1.24l-11,15.94a.87.87,0,0,1-1.1.3l-15.45-7.17a.31.31,0,0,0-.34.06l-11.55,11A.91.91,0,0,1,183.73,199.73ZM197.3,150.1a.32.32,0,0,0-.24.11l-23.39,29.1a.36.36,0,0,0-.07.17l-1.11,11.68a.32.32,0,0,0,.13.28l10.94,7.65a.29.29,0,0,0,.38,0l11.56-11a.88.88,0,0,1,1-.16l15.44,7.17a.3.3,0,0,0,.38-.11l11-15.94a.32.32,0,0,0,.05-.23.3.3,0,0,0-.13-.2L209,168.76a.88.88,0,0,1-.29-1.12l4.17-8.33a.32.32,0,0,0-.13-.41l-15.34-8.76A.26.26,0,0,0,197.3,150.1Z"/><path class="cls-1" d="M253.85,145.58l15.58,10.26a2.75,2.75,0,0,1,1.11,3.91l-1.68,2.75a2.74,2.74,0,0,0,.8,3.72l12.09,8.21a2.78,2.78,0,0,1,.92,3.52l-7,14a2.76,2.76,0,0,1-3.7,1.24L259.66,187a2.77,2.77,0,0,0-2.84.22l-5.09,3.64a2.76,2.76,0,0,1-3.32-.09L232.47,178.1a2.76,2.76,0,0,1-.42-3.9l18.43-27.9A2.76,2.76,0,0,1,253.85,145.58Z"/><path class="cls-1" d="M273.21,193.73a3.09,3.09,0,0,1-1.36-.32l-12.32-6.16a2.45,2.45,0,0,0-2.54.2l-5.09,3.64a3.08,3.08,0,0,1-3.67-.1l-15.94-12.66a3,3,0,0,1-.47-4.31l18.42-27.88a3,3,0,0,1,3.74-.82h0l15.58,10.27a3,3,0,0,1,1.54,1.87,3.08,3.08,0,0,1-.34,2.44l-1.69,2.74a2.46,2.46,0,0,0,.72,3.33l12.09,8.21a3.06,3.06,0,0,1,1,3.89l-7,14a3,3,0,0,1-1.76,1.53A3,3,0,0,1,273.21,193.73Zm-14.78-7.33a3,3,0,0,1,1.36.33l12.32,6.16a2.47,2.47,0,0,0,3.31-1.11l7-14a2.48,2.48,0,0,0-.83-3.15l-12.09-8.2a3.05,3.05,0,0,1-.88-4.13l1.69-2.74a2.47,2.47,0,0,0-1-3.5l-15.59-10.27a2.46,2.46,0,0,0-3,.65l-18.42,27.88a2.48,2.48,0,0,0-.56,1.85,2.51,2.51,0,0,0,.92,1.67l15.94,12.66a2.48,2.48,0,0,0,3,.07l5.09-3.64A3.11,3.11,0,0,1,258.43,186.4Z"/><path class="cls-1" d="M175.46,241.83l78.2-6a3.06,3.06,0,0,0,1.29-.41l5.65-1.85a3,3,0,0,1,1.51-.42H284a2.93,2.93,0,0,1,2.93,2.89l.88,31.66a2.93,2.93,0,0,1-1.32,2.49l-17.28,11.35a2.93,2.93,0,0,0-1.24,3.13l2.38,10c0,.14,0,.29.07.43,6.27,25.05-1.18,64.15-2.93,64.29-3.18.26-32.34,1.32-38,1.69-.62,0-1-3.05-1.53-3.38l-26.11-13.45a3,3,0,0,1-1.28-3.18l5.73-21.28A2.93,2.93,0,0,1,210,317.7L236,323a2.93,2.93,0,0,0,3.59-3.74l-6.65-20.5a2.77,2.77,0,0,0-.57-1l-9.86-12.08a2.93,2.93,0,0,1,.46-4.28l8.92-9.64c2.29-1.7.8-3.46-2.05-3.42l-53.38,2.18a2.94,2.94,0,0,1-3-2.94l-.7-22.84A2.93,2.93,0,0,1,175.46,241.83Z"/><path class="cls-1" d="M229.47,361.4c-.55,0-.81-.88-1.14-2a5.12,5.12,0,0,0-.54-1.42l-26.08-13.44a3.24,3.24,0,0,1-1.43-3.51L206,319.74a3.22,3.22,0,0,1,4-2.32l26,5.31a2.62,2.62,0,0,0,2.66-.71,2.57,2.57,0,0,0,.6-2.66l-6.64-20.5a2.71,2.71,0,0,0-.52-.9l-9.87-12.09a3.23,3.23,0,0,1-.76-2.46,3.19,3.19,0,0,1,1.28-2.24l8.88-9.6c.83-.63,1.17-1.24,1-1.76-.23-.7-1.32-1.17-2.72-1.17h-.11l-53.37,2.17a3.34,3.34,0,0,1-2.32-.93,3.19,3.19,0,0,1-1-2.3l-.7-22.83a3.23,3.23,0,0,1,3-3.22l78.21-6a2.64,2.64,0,0,0,1.16-.37l5.71-1.88a3.13,3.13,0,0,1,1.6-.43H284a3.23,3.23,0,0,1,3.22,3.17l.88,31.66a3.23,3.23,0,0,1-1.45,2.75l-17.28,11.35a2.67,2.67,0,0,0-1.12,2.82l2.38,10a2,2,0,0,1,0,.24,1.08,1.08,0,0,0,0,.19c6.16,24.58-.65,61.43-2.75,64.36a.64.64,0,0,1-.43.29c-1.57.13-9.37.45-17.62.79-8.61.35-17.51.71-20.38.9Zm-20.34-43.53a2.65,2.65,0,0,0-2.56,2l-5.72,21.29A2.62,2.62,0,0,0,202,344l26.08,13.44c.34.21.53.81.81,1.77a5,5,0,0,0,.62,1.58c2.83-.19,11.73-.55,20.34-.91,8.25-.33,16-.65,17.6-.78,1.68-1.19,8.77-39.56,2.66-63.93a2,2,0,0,1,0-.26.86.86,0,0,0,0-.17l-2.37-10a3.22,3.22,0,0,1,1.36-3.44L286.31,270a2.64,2.64,0,0,0,1.19-2.25l-.88-31.65a2.65,2.65,0,0,0-2.64-2.61H262.11a2.61,2.61,0,0,0-1.36.38L255,235.73a3.12,3.12,0,0,1-1.35.43l-78.21,6a2.65,2.65,0,0,0-2.44,2.63l.7,22.83a2.63,2.63,0,0,0,2.69,2.65l53.37-2.17h.12c1.67,0,3,.61,3.28,1.56.15.45.2,1.36-1.16,2.38l-8.88,9.6a2.66,2.66,0,0,0-1.09,1.88,2.59,2.59,0,0,0,.63,2l9.87,12.1a3.09,3.09,0,0,1,.62,1.09l6.65,20.5a3.23,3.23,0,0,1-4,4.11l-26-5.31A2.85,2.85,0,0,0,209.13,317.87Z"/><path class="cls-1" d="M314.73,275.73l19.9-55a3.26,3.26,0,0,1,4.49-1.82l15.46,7.53a3.26,3.26,0,0,1,1.58,4.2l-23,54.27a3.26,3.26,0,0,1-4.57,1.58l-12.41-6.8A3.25,3.25,0,0,1,314.73,275.73Z"/><path class="cls-1" d="M330.2,287.2a3.57,3.57,0,0,1-1.71-.44L316.08,280a3.52,3.52,0,0,1-1.63-4.31l19.9-55a3.58,3.58,0,0,1,2-2.08,3.53,3.53,0,0,1,2.88.1l15.47,7.53a3.55,3.55,0,0,1,1.72,4.57l-23,54.27a3.56,3.56,0,0,1-3.26,2.17Zm7.49-68.31a3.09,3.09,0,0,0-1.12.21,3,3,0,0,0-1.67,1.74l-19.9,55a3,3,0,0,0,1.36,3.61l12.41,6.81a3,3,0,0,0,4.16-1.45l23-54.27a3,3,0,0,0-1.43-3.82L339,219.18A3.08,3.08,0,0,0,337.69,218.89Z"/><path class="cls-1" d="M312.91,287l13,6.92a3.07,3.07,0,0,1,1.44,3.78L322.07,312a3.06,3.06,0,0,1-4.52,1.52l-12.21-7.73a3.07,3.07,0,0,1-1.27-3.56l4.49-13.46A3.07,3.07,0,0,1,312.91,287Z"/><path class="cls-1" d="M319.19,314.29a3.27,3.27,0,0,1-1.79-.52L305.19,306a3.35,3.35,0,0,1-1.39-3.9l4.49-13.46a3.35,3.35,0,0,1,1.94-2.06,3.39,3.39,0,0,1,2.82.15l13,6.92a3.37,3.37,0,0,1,1.57,4.14l-5.3,14.27a3.34,3.34,0,0,1-2.07,2A3.69,3.69,0,0,1,319.19,314.29ZM311.47,287a2.74,2.74,0,0,0-2.63,1.89l-4.49,13.47a2.78,2.78,0,0,0,1.15,3.22l12.21,7.73a2.79,2.79,0,0,0,4.09-1.38l5.3-14.27a2.79,2.79,0,0,0-1.3-3.42l-13-6.92A2.69,2.69,0,0,0,311.47,287Z"/><path class="cls-1" d="M306.18,89.34c-.1,11.26-.21,22.52-.26,33.79,0,5.22.92,11.83-1,16.81-1,2.48-.82,2.11-3.28,3.29a16.56,16.56,0,0,0-3.65,2.18.91.91,0,0,0,.39,1.51c3.31,1,8.05,1.09,10.56-1.71,3.15-3.51.57-8.92.32-13.07-.86-14.25-1.36-28.54-2.08-42.8a.49.49,0,0,0-1,0Z"/><path class="cls-1" d="M47.7,2.28a30.89,30.89,0,0,0,7.72,1.17c1.39.1,4.24-.29,5.49.44,2.73,1.59,4.16,5.09,4.11,8-.11,6.57-.34,13.14,1.17,19.56.23,1,1.52.64,1.61-.22.69-6,.28-12.12.51-18.2.11-3.11.7-6.71-1-9.55A6.59,6.59,0,0,0,62.18.18C57.94-.42,51.75.54,47.7,2a.17.17,0,0,0,0,.32Z"/><path class="cls-1" d="M77.17,28.26a30.21,30.21,0,0,0,10.71,1.21,2.14,2.14,0,0,0,2-2.68,17,17,0,0,0-1.17-2.52A13.73,13.73,0,0,1,88,18.09c.15-2.87.8-5.86.24-8.67-.08-.43-.66-.34-.79,0-1.79,4.85.74,10.22-.76,15.12-.73,2.37-.51,2.05-2.62,2a23.47,23.47,0,0,0-6.86,1.08.33.33,0,0,0,0,.63Z"/><path class="cls-1" d="M26.75,10.38c-1.94,7.22-1,16.11-.51,23.5C26.32,35,28,35,28,33.88c-.23-7.58.53-16.08-1-23.5a.12.12,0,0,0-.24,0Z"/><path class="cls-1" d="M22.48,139.85c2.93,2.14,6.37.2,8.18-2.46l-1.72-.73c-.65,3.64-1.35,8.35.47,11.75a.74.74,0,0,0,1.37-.37c-.13-1.73-.6-3.37-.63-5.12a26.42,26.42,0,0,1,.6-5.75,1,1,0,0,0-1.72-.73c-1.49,2-4.18,2.79-6.54,3.33a0,0,0,0,0,0,.08Z"/><path class="cls-1" d="M167.48,131.89c-2.49-3.32-5.16-6.5-7.71-9.77a38,38,0,0,0-7.34-7.75c-1-.71-2.39.7-1.68,1.68,2.17,3,5.11,5.33,7.88,7.73,3,2.62,5.86,5.44,8.78,8.16,0,0,.1,0,.07-.05Z"/><path class="cls-1" d="M152.56,161.29c2.95-2,4.94-6.12,7-9,3.06-4.28,6.79-8.52,9.23-13.16.37-.71-.58-1.55-1.16-.89-5.9,6.79-10,15.47-15.16,22.89a.09.09,0,0,0,.12.12Z"/><path class="cls-1" d="M93.65,4c12,2.55,26.39,2.53,38.46.52.14,0,.1-.23,0-.24-6.36-.33-12.84,0-19.22-.11S100,3.6,93.66,3.91c0,0-.06.08,0,.09Z"/><path class="cls-1" d="M136.94,4.86c2,.08,5.22-.12,6.58,1.45.8.92.18,2.22.1,3.38s-.14,2.25-.21,3.38c0,.47.68.54.81.11.74-2.47,2.36-5.68,0-7.73-1.95-1.66-5-1-7.27-.67,0,0,0,.08,0,.08Z"/><path class="cls-2" d="M26.05,157.79c-2.47.16-4.84.91-7.33,1.06-2.91.17-6.24-1.07-9-.67-1.81.26-2.14.52-2.64,2.45-1.32,5.06-.64,11.59-.66,16.81,0,5.43-.55,11.54,1,16.76.1.33.64.38.71,0,1.6-8.1.21-17.35.67-25.65.09-1.81-.4-5.24.71-6.76,0-1.57.84-1.84,2.45-.81.45.06.91.12,1.37.16,4.7.54,8.05-.82,12.64-1.38,1.22-.15,1.29-2,0-2Z"/><path class="cls-1" d="M300.1,236.24c3.56-3.43,10.8-11.07,9.4-16.69-.41-1.66-1.74-2.57-3-3.55a120.82,120.82,0,0,0-12.63-8.09c-.23-.14-.52.21-.3.38,3.71,2.9,9.29,5.29,12.28,8.83,5,5.9-1.82,14.5-5.77,19.06,0,0,0,.1.05.06Z"/><path class="cls-1" d="M278.11,169c2.17,1.63,7.9,5.22,7,8.05-.57,1.72-2,3.41-2.84,5.06a40.56,40.56,0,0,0-2,4.93c-.24.72.8,1.36,1.3.76a45,45,0,0,0,4.94-7.43c.67-1.25,2-3.12,1.81-4.66-.5-3.44-7.28-5.93-9.9-7.14a.25.25,0,0,0-.24.43Z"/><path class="cls-1" d="M277.64,191.44a4,4,0,0,1-2.5,3.07c-1.2.51-2.26.13-3.48.33-.46.08-.5.67-.25,1,1.1,1.27,3.42.6,4.62-.21a5.13,5.13,0,0,0,2.34-4.06c0-.4-.65-.51-.73-.09Z"/><path class="cls-1" d="M284.85,165.37a34.9,34.9,0,0,1,10.72,2.44c1,.41,1.75-.72,1.56-1.56-.82-3.71-1.7-7.51-2.25-11.26-.12-.79-1.23-.51-1.29.17a28.08,28.08,0,0,0,1.09,11.77c.52-.53,1-1.05,1.57-1.57a27.44,27.44,0,0,0-11.5-.79c-.49.08-.32.77.1.8Z"/><path class="cls-1" d="M152.37,13.21c13.3,1.26,27,.76,40.35.8,6.54,0,13-.68,19.6-.57,6.93.12,13.84.63,20.75-.07a.21.21,0,0,0,0-.41c-6.54-.65-13-.22-19.6-.09-7,.15-13.83-.56-20.75-.54-13.36,0-27.05-.46-40.35.8a0,0,0,1,0,0,.08Z"/><path class="cls-1" d="M235.86,13a69.62,69.62,0,0,0,18.41.29.37.37,0,0,0,0-.73,69.61,69.61,0,0,0-18.41.28c-.08,0-.08.15,0,.16Z"/><path class="cls-1" d="M277.77,12.7c7.05,1,20.69-1.33,25.79,4.22,4.18,4.54.77,9.5-.07,14.47a22.35,22.35,0,0,0,.67,10.31c.23.82,1.59.69,1.53-.21-.38-5.78.9-11.18,1.05-16.9.07-2.73-.13-7.6-1.74-9.81-2-2.74-6.26-2.58-9.34-2.82-6-.45-12-.67-17.89.5-.11,0-.12.22,0,.24Z"/><path class="cls-1" d="M26.48,8.44c.61-.52.49-.63.88-1.29.52-.88.69-2.56,1.81-3.22.79-.46,2.52-.2,3.39-.21A72.56,72.56,0,0,0,43.5,3.24a.71.71,0,0,0,0-1.35,33.37,33.37,0,0,0-13.85.59c-3.8,1-2.24,3-3.24,5.92,0,0,0,.06.07,0Z"/><path class="cls-1" d="M23.69,36.15a29.13,29.13,0,0,0-6.75-1.46c-1.43-.22-3.06-.61-4.48-.1-2.46.88-3.38,4.32-3.56,6.62-.05.55.84.81,1.06.29a12.28,12.28,0,0,1,2.19-3.71c1.26-1.29,2.32-1.27,4-1.33,2.49-.1,5.07.17,7.53-.23,0,0,0-.07,0-.08Z"/><path class="cls-1" d="M16.54,136.55l0,.08a.43.43,0,0,0,.12.45,13,13,0,0,0,4.45,2.56c.53.17,1-.6.56-1a12.93,12.93,0,0,0-4.56-2.38.48.48,0,0,0-.53.21l0,0Z"/><path class="cls-1" d="M30.63,153a8,8,0,0,0,2.92,5.67c1.54,1.25,4.24,2.45,6.22,1.66.36-.14.5-.8,0-.87-1.93-.26-3.54-.22-5.24-1.39a7.51,7.51,0,0,1-3.26-5.16c-.05-.36-.67-.28-.64.09Z"/><path class="cls-1" d="M67.65,35c.65,2,4.15,2.91,5.8,1.76,2.5-1.75.34-5,1.77-7.14.71-1.05-.91-2.29-1.75-1.35-1.21,1.35-1,2.86-.79,4.55.12.81.34,2-.44,2.58-.95.7-3.48.29-4.07-.62-.17-.26-.63-.1-.52.22Z"/><path class="cls-1" d="M144,15a5.33,5.33,0,0,0-.74,2.8,11,11,0,0,0-.15,2.74,4,4,0,0,0,3.3,3.73,3.4,3.4,0,0,0,3.48-2.48c.63-2-.46-4.25.48-6.07a1,1,0,0,0-1.78-1,6.23,6.23,0,0,0-.87,3.16c-.07,1.12.13,2.44-.5,3.44-.47.74-1.08.74-1.71.09a4.35,4.35,0,0,1-.74-2.79c-.06-1.16.24-2.51-.39-3.53A.24.24,0,0,0,144,15Z"/><path class="cls-1" d="M258.43,12.65c4.73.06,10.6,1.38,15.16-.08a.41.41,0,0,0,0-.79c-4.62-1.25-10.44.35-15.16.62-.15,0-.16.25,0,.25Z"/><path class="cls-1" d="M304.29,45.5c-1.73,6.17-1.46,12.75-1.13,19.09.28,5.37-.48,12.2,1.86,17.09a.45.45,0,0,0,.77,0c2.43-4.59,1-11,.47-16-.68-6.72-1.15-13.44-1.73-20.18a.12.12,0,0,0-.24,0Z"/><path class="cls-1" d="M272,196.36c2.21,2.38,6.21,4.19,9.13,5.58s6.68,2,9.43,3.75c.35.22.77-.3.45-.58a33.43,33.43,0,0,0-8.09-5.58c-3.11-1.46-7.4-3.39-10.83-3.38a.13.13,0,0,0-.09.21Z"/><path class="cls-1" d="M169.16,139.43c-1.45,3.5-1.27,7.29-1.52,11-.23,3.49-.88,7.29-.5,10.78.47,4.35,2.53,8.64,7.05,9.71.64.15,1.14-.84.47-1.12-10-4.22-2.8-22.41-5.19-30.41a.16.16,0,0,0-.31,0Z"/><path class="cls-1" d="M173.21,172.79l-2.41,3.48c-.48.7.66,1.37,1.13.67l2.34-3.53c.44-.66-.61-1.26-1.06-.62Z"/><path class="cls-1" d="M77.91,161c3.77-2.29,3.5-8.28,1.94-11.77-.53-1.2-2.33-.17-1.77,1A10.8,10.8,0,0,1,79,156c-.18,1.7-1,3.17-1.37,4.81,0,.14.12.27.24.19Z"/><path class="cls-1" d="M79.84,148.05c2,2.08,4.17,3.94,6.12,6.06,1.68,1.84,3.22,4.76,5.43,5.91a.7.7,0,0,0,1-.78c-.51-2.52-3.37-4.74-5.2-6.38A29.14,29.14,0,0,0,80,147.79a.17.17,0,0,0-.2.26Z"/><path class="cls-2" d="M93.58,160.77c2.08,2.66,7.5.6,10.47.69,4.62.14,9.91,2.4,14.27.43.64-.29.46-1.15,0-1.48-3.71-2.64-9.88-1.88-14.27-1.9-2.91,0-8.41-.29-10.47,2.09a.14.14,0,0,0,0,.17Z"/><path class="cls-2" d="M127.54,160.71c5,.21,9.87.17,14.82.07a.9.9,0,0,0,0-1.8c-5,.15-9.87.37-14.82.83a.45.45,0,0,0,0,.9Z"/><path class="cls-2" d="M153.94,161.81c.56,3.11,4.7,5.63,6.9,7.7,1.29,1.22,2.54,2.52,3.89,3.66s2.56,1.32,3.92,2.1a.37.37,0,0,0,.55-.32c-.07-1.41,0-2.31-.84-3.54-1.16-1.62-3.13-2.75-4.67-3.95l-5.35-4.19c-1.34-1.05-2.28-1.94-4-2a.42.42,0,0,0-.4.52Z"/><path class="cls-2" d="M172,196.2c-1.21,4.79-.16,9.93-1.4,14.65-1.33,5.09-5.06,9.13-7.9,13.38-.37.56.35,1.22.9.9,8.92-5.23,14.27-19.8,8.47-28.94,0,0-.06,0-.07,0Z"/><path class="cls-1" d="M99.64,157.66c3.65-1.23,7.44-2.27,10-5.39l-2.36-.3c1.35,2,3.44,4.95,6.08,4.93a.57.57,0,0,0,.55-.72c-.46-2.14-2.79-4-4-5.73a1.52,1.52,0,0,0-2.59,0c-1.73,2.91-5.2,4.59-8,6.38-.4.27-.16,1,.35.83Z"/><path class="cls-1" d="M127.18,157.94c1.24,0,2.29-1,3.29-1.59,1.29-.79,2.64-1.49,4-2.22s.15-2.53-1.12-1.91a19.38,19.38,0,0,0-4,2.67c-.92.78-2.1,1.68-2.24,3a.09.09,0,0,0,.08.08Z"/><path class="cls-1" d="M136.45,155.11l2.28,2.37a6.68,6.68,0,0,0,2.21,1.89c.49.19.76-.42.6-.79a7.15,7.15,0,0,0-2-2.16l-2.3-2.13a.58.58,0,0,0-.81.82Z"/><path class="cls-1" d="M173.6,196.85a86.72,86.72,0,0,1,6,7v-1.77c-1,2.24-2.44,4.39-3.14,6.77-.25.85.83,1.86,1.62,1.25a17.49,17.49,0,0,0,4.55-6.25,1.78,1.78,0,0,0-.28-2.12,49.31,49.31,0,0,0-7.85-6,.74.74,0,0,0-.89,1.15Z"/><path class="cls-1" d="M253.86,62.77c.19-1.82-1.35-13.79.41-14.31a.54.54,0,0,0-.15-1.05c-2.21,0-2.37,2-2.33,3.73A61.66,61.66,0,0,0,252.9,62.9c.13.58.91.39,1-.13Z"/><path class="cls-1" d="M255.73,48.1c4.08,0,8.55.54,12.57-.21.64-.11.4-1-.14-1-4-.46-8.4.37-12.43.67a.29.29,0,0,0,0,.58Z"/><path class="cls-1" d="M267.88,47.32c-.85,5.43-.06,10.26,1.25,15.54a.29.29,0,0,0,.56-.15c-1.22-4.91-1.1-10.21-.77-15.24,0-.59-.95-.74-1-.15Z"/><path class="cls-1" d="M218.51,48.43c0,2.32,0,4.66-.07,7s-.72,4.62-.87,7c-.12,1.92.16,1.61.48,2.93.49,2,.53,3.88,1,5.89.1.42.81.45.87,0,.31-2.14.45-4.07.77-6.23a8.93,8.93,0,0,0,.09-2.8,114,114,0,0,1-1.2-13.72.53.53,0,0,0-1.06,0Z"/><path class="cls-1" d="M220.51,84.47c1.1,7.29,4.43,12.34,11.87,13.51,4.67.74,9.73.17,14.46.33,5.91.19,11.9.49,17.78,1.09.32,0,.4-.51.08-.56a139.49,139.49,0,0,0-23.44-2.24c-5.19,0-9.37,1.49-13.65-2.61-2.88-2.77-3.89-6.68-5.6-10.15-.44-.9-1.63-.21-1.5.63Z"/><path class="cls-1" d="M184.63,52.14c3.52.35,4,.2,4.53,3.75.34,2.48-.08,5.33-.12,7.84-.06,4.49-.79,9.52.73,13.8a.33.33,0,0,0,.63,0c1.27-3.72.71-8,.6-11.84L190.61,52a.71.71,0,0,0-.7-.7l-5.28.46a.21.21,0,0,0,0,.41Z"/><path class="cls-1" d="M189.33,81.92c0,2.51-.08,5,0,7.54,0,1.19-.31,4.59.17,5.66s.08.8,1.13,1.32c3,1.49,8.78,1,12,1.26,4.62.35,9.26.47,13.89.38a.49.49,0,0,0,0-1c-6.28-.29-12.57-.59-18.83-1.17-3.79-.35-6.31-.25-7.08-4.58-.53-3-.37-6.36-.61-9.43a.33.33,0,0,0-.66,0Z"/><path class="cls-1" d="M217.19,74.9c-.09,6-.33,12.13.16,18.17a.41.41,0,0,0,.82,0,68.8,68.8,0,0,0-.5-18.24c0-.28-.48-.2-.48.07Z"/><path class="cls-1" d="M187.83,104.69a92.34,92.34,0,0,0,16.46,0c6.17-.62,11-2.23,16.74,1.3.36.23.67-.32.33-.56-4.87-3.47-7.88-4.17-13.79-3.49-6.61.77-13.22,1.4-19.78,2.47-.19,0-.13.31,0,.33Z"/><path class="cls-1" d="M222.18,106c8.84,1.87,17.47.32,26.34-.58,5.95-.6,14.72,1.29,19.54-2.94a1.33,1.33,0,0,0-.58-2.21q-1.5-.45-3-.93c-.38-.11-.57.36-.35.62.69.84,1.38,1.67,2.06,2.52v-1.87c-2.93,2.56-8.53,1.76-12.18,2-3,.23-6,.63-9.07,1a180.17,180.17,0,0,1-22.71,2c-.18,0-.23.28,0,.32Z"/><path class="cls-1" d="M149.17,93.38A15.39,15.39,0,0,0,153.09,90L152,89.53c-.05,1.21-.08,2.45-.21,3.66a15.62,15.62,0,0,0-.4,3.39,1.44,1.44,0,0,0,2.87,0,15.14,15.14,0,0,0-.58-3.39c-.21-1.21-.31-2.45-.43-3.66a.63.63,0,0,0-1.16-.32c-.92,1.4-2,2.73-3,4a.08.08,0,0,0,.1.13Z"/><path class="cls-1" d="M298.23,141.41c-1.59-.85-4.07-2.94-5-.27-.48,1.33-.13,3.07,0,4.43A20.85,20.85,0,0,0,294,151c.2.62,1.3.78,1.42,0a23.62,23.62,0,0,0-.17-6.5c-.06-.56-.62-2.66.05-3s2.08.41,2.66.54c.35.08.59-.42.25-.6Z"/><path class="cls-1" d="M198.07,191.43a21.57,21.57,0,0,0,5.48,3.65,47.14,47.14,0,0,0,6,3c.79.28,1.14-.85.54-1.28a45,45,0,0,0-6.17-3.3,21.76,21.76,0,0,0-5.8-2.23.08.08,0,0,0-.08.14Z"/></g></g></svg>