<svg xmlns="http://www.w3.org/2000/svg" viewBox="0 0 309 514"><g data-name="Layer 2"><path d="M46 57h-1a2 2 0 0 0 0-1h1l-1-1h-1v1l-1 1v1h-1l-1 1-1 1v1h-1v1h-1v1l-1 1v1h-1v1l-1 1a3 3 0 0 1-1 0h-1v1h-1v1h-1v-1c0-1 0 0 0 0a1 1 0 0 0 0 1v1h-1-1l-1 1-1-1h1v-1l-1-1v1h-1v1h-1v1-1h-3v-1c-1 0 0 0 0 0l-1 1h-1v-1h-1 1l-1-1-1 1v-2h-1v-1-2l-1-1 1-1a1 1 0 0 0-1 0v-2l1-1-1-1h1v-1-1a2 2 0 0 0 0-1h-1l-1-1h1l-1-1a2 2 0 0 0 0-1h2a1 1 0 0 1-1 0v-1l1-1v2h2l1 1h-1v2h1a4 4 0 0 0 1 0v-1h1v-1-1a1 1 0 0 0 1-1h1v-1h1a1 1 0 0 0 0-1c-1 0 0 0 0 0l-1 1h-1v-1h-1l1-1v-1h1l1-1a2 2 0 0 0 1-1l1-1h1l1-1v-1h1v-1l1-1v-1h1a3 3 0 0 0 1 0v-1a2 2 0 0 1 1 0 1 1 0 0 0 0-1h1a2 2 0 0 0 0-1 1 1 0 0 1 1-1v-1h1l1-2 1-1h1v-1l1-1h1l1-2v-1h1v0l1-1 1-2 1-1 1-1v-1l1 1v-1a1 1 0 0 0 1-1v-1h1v-1h1a8 8 0 0 0 1-1 4 4 0 0 1 1-1v-1h-2l1-1 2-2V9l1-1c1-1 0 0 0 0a1 1 0 0 0 0-1h2V6h1l2 1V6v1l1-1a1 1 0 0 1 1 0h-1V5h1l-1-1v1l-1 1V4h1V3v1h1a2 2 0 0 0 1-1V1h2l1-1h1a2 2 0 0 0 1 1v1a2 2 0 0 1 1 0h2v1h5l1 1h3a1 1 0 0 1 1 1l1 1 1-1a1 1 0 0 0 0 1l1 1a3 3 0 0 1 1 0v2a3 3 0 0 1 1 0v1h-1l1 1v2h-2v1a10 10 0 0 1-1 2h-1v1a4 4 0 0 1-1 0 1 1 0 0 1 0 1l-1 1h-1v0h-4v1h-2l-1 1h-1-1v1l-1 1h-1l-1 1a5 5 0 0 1-1 1l-1 1v1c0 1 0 0 0 0h-1a1 1 0 0 1-1 0l1 1h-2v1h-3v3h-1v1h-2l-1 1v1l-1 1a3 3 0 0 1 0 1h1l1-1h-1 1v1c0 1 0 0 0 0h-1-1v1l-1 1h1v1h-1v1a1 1 0 0 1-1 0v1h-1 1a1 1 0 0 0 0 1h-1l-1 1-1 1h-1v1l-1 1v1h-1v1h-1-1 1v2h1-1v1h2a2 2 0 0 1 0 1h2a8 8 0 0 0 1 0h3v-1h1v1l1 1 1-1h-1a2 2 0 0 1 1-1 2 2 0 0 0 0 1h1l1-1h1a6 6 0 0 0 2-1h1l1-1h1v-1h1v1h1a3 3 0 0 0 0-1v-1h-1l-1-1h1v-1h3l1-1h-1 1l1-1h1l1-1h1v-1h4v-1h1l-1-1h5a3 3 0 0 0 0-1v-1-2-1l-1-1-1-1v-1h-1v-1-1l-1-1-1-1h6v-1h4l1 1h6l1 1h6a3 3 0 0 1 0-1l1 1h1a1 1 0 0 1 0 1h4v1h1c1 0 0 0 0 0h1l1 1c1 0 0 0 0 0v1h2v-1l1 1v-1h2s0-1 0 0h4v1h1a8 8 0 0 0 1 0 4 4 0 0 1 2 0l-1 1h-1v1h1v1l1 1h1l1 1v1l1 1v1h1v1a1 1 0 0 0 0 1l1 2v2l-1 1h1v1l-1 1c0 1 0 0 0 0v1h1l1 1-1 1a8 8 0 0 0-1 0h-1l-1 1c0-1 0 0 0 0h-1v1h-3v1h-2a1 1 0 0 0-1 0h-1-1a3 3 0 0 1-1 0h-5a3 3 0 0 0-1 0v-1l-1 1v-1h-2a2 2 0 0 0-1-1h-1l-1-1v1l-1 1h1v3c0 1 0 0 0 0h-1v2h-1l-1 1-1 1-1 1h1a2 2 0 0 1-1 0l-1 1v1h2-1v1l-1 1v-1l-1 1h1v1l1 1h-1-1v1a1 1 0 0 1-1 0v-1 1a8 8 0 0 1 1 1v1h-1v2l-1 1h1a5 5 0 0 0-1 1h-1l1 1c0 1 0 0 0 0l1 1-2 1v2a1 1 0 0 0 0 1v-1l1 1-1 1h-1v1h1c1 0 0 0 0 0a3 3 0 0 0 1 1l-1 1v2h1l-1 1v3s1 0 0 0l1 1v3l1 1v4h1v2h-1v2a1 1 0 0 1-1 0 5 5 0 0 0 0 1v3a1 1 0 0 0-1 0 1 1 0 0 0-1-1v1l-1 1h-1l1 1h-1l-1 1v-2s0 1 0 0a8 8 0 0 0-1 0v2h-3l-1 1-1-1h-1v1h-1v-1-1h-1 1l-1-1h-2l-1-1a1 1 0 0 1-1 0h1-1v-1l-1-1v-1a7 7 0 0 1 0-1v-1-1a11 11 0 0 0 0-1v-1-1l-1-1h-1-2v-1h-3-1v-1h-2l-1-1h-3l-1-1h-4l1-1-1-1s0 1 0 0h19l2-1-1-2 1-1v-1-1l1-2-1-2h1v-3-5-5-5-4-2-1a2 2 0 0 1 0-1v-1l-1 1v-1l-1 1h-1v1h-1v1h-1a10 10 0 0 0-2 2h1l-1 1-1 1v2h1v1h-2v4h-1l-1 1-1 1h1a3 3 0 0 0-1 0 4 4 0 0 0 0 1v1h-1v1h-1v-1l-1 1v1c0 1 0 0 0 0l1 1h-1-1v2h-1v1a1 1 0 0 0 0 1h-1v1a1 1 0 0 0 0 1h-1v1h-1v1l-1 1a1 1 0 0 0 1 0h-1l1 1h-1v1h-1v2h-1v0h-1 1v-1h-2v2h-1v1l-1 2h-1a1 1 0 0 0 0 1h-1l1 1a1 1 0 0 0-1 0v1l-1 1h-1a2 2 0 0 0 0 1v-1h-1v1h1a4 4 0 0 1 0 1 5 5 0 0 1-1 1l-1 1v-1l1-1-1 1a1 1 0 0 0-1 0 2 2 0 0 1 0 1h1v1h-1v1h-1l1 1h-1v1h-1 2v-1l1-1v-1h1a7 7 0 0 0 0-1 5 5 0 0 0 1-1v1h1c1 0 0 0 0 0v1l-1-1v1h-1v1l-1 1h1-1v2h-1l1 1h-1v1a2 2 0 0 1-1 0 1 1 0 0 0-1 1v1l-1-1h-1l1 1-1 1v1h-1a2 2 0 0 1 0 1h-1v-1l-1 1h-3v1a2 2 0 0 1-1 0l-1 1v-1l-1 1h-1v1a4 4 0 0 1-1 1v1h-1-1v-1a3 3 0 0 0 0-1 1 1 0 0 1 1 0v-1-1h1v-1-1h1l1-1 1-1 1-1 1-2h1l1-2a6 6 0 0 1 1-1l1-1v-1a4 4 0 0 0 1 0v-1l1-1v-1a1 1 0 0 1 1 0 2 2 0 0 0 0-1l1-1 1-1 1-2v-1a10 10 0 0 0 1-1l1-1a3 3 0 0 1 0-1v-1-1h1a2 2 0 0 0 0-1v-1h1v-1-1h1v-1l1-1h-1l1-1a1 1 0 0 0 0-1v-1-1h1v-1a2 2 0 0 1 1-1v-1-1a1 1 0 0 0 1 0h-1v-1h1-1l1-1v-1-1h1l-1-1h0-1v1h-1a1 1 0 0 1 0-1h-2a12 12 0 0 1 0-1v-1-1l-1-1v-1-1-1-1-1c0-1 0 0 0 0v-1l-2-1 1-1c1-1 0 0 0 0l-1-1a1 1 0 0 1 0-1h-1v1zm3 36a3 3 0 0 0-1 1v1h-1l1 1 1-1h1a2 2 0 0 1 0-1l1-1v-1-1h-1v2h-1zM28 46a3 3 0 0 0 1 0v-1-1l-1 1h-1l1 1h-1l-1 1v1h1l1-1v-1zm5-5v-1h-1v1h-1l1 1h-1l-1 1h-1l1 1h1v-1h1a2 2 0 0 0 0-1 3 3 0 0 0 1-1zm13 13v-2l-1 1v2h1v-1zm-3-24h-1v1h-1v1h-1v1h1v-1h1l1-2zm6 27h1l-1-1v-1h-1v1a5 5 0 0 1 1 1zm41 27a1 1 0 0 0 0 1h1v-1zm-45 16a1 1 0 0 0 1 0v-1h-1v1zM65 4V3h-1l1 1zM47 98h-1 1zm-5 12l1-1h-1v1zm1-58zm14 35h-1 1zm-2-3h0zm36-9zm-22-7v0zm1-49v0z"/><path d="M18 49l-1 1v-1l1-1v-1h1v-1l1 1-1 1v1l-1 1zM51 98v1h-1-1v1a2 2 0 0 0 0-1h1v-1h1zM51 96v1a1 1 0 0 1-1 1v-1c0-1 0 0 0 0a2 2 0 0 1 1 0v-1zM51 97v-1h1c1 0 1 0 0 0zM58 51v-1a1 1 0 0 1 0 1zM47 20h-1v-1zM54 91h1v1l-1-1zM59 88h-1a1 1 0 0 1 0-1h1v1zM45 80h-1 1zM33 34zM32 69h1-1zM61 31a1 1 0 0 1-1 0h1zM64 78v1h-1l1-1zM53 95h-1 1zM49 100a2 2 0 0 1 0 1 1 1 0 0 1-1 0v-1h1zM33 33h0zM48 65v-1 1zM49 18a3 3 0 0 1-1 0h1zM54 94zM53 93h0zM21 46a2 2 0 0 1 1 0h-1zM64 48zM62 48a2 2 0 0 1 1 0 3 3 0 0 1-1 0zM62 1v0c0-1 0 0 0 0zM46 57l-1 1 1-1zM61 138l1-1-1-1h1v-1l1-1v-1l1-1h-1v-1h1v-1-1l1-1v-1-1l-1-1 1 1v-1h1v-1-1a3 3 0 0 0-1-1h1l1-1a3 3 0 0 1 0 1 2 2 0 0 1 1 0v-1h2v-1-1h1v1h3a1 1 0 0 0 1 1h1l1 1h2l1 1h2v1h4v2h1v2l1 1a2 2 0 0 0 0 1h1v2l-1 1v2l-1 1h-3l-1 1h-1-1c-1 0 0 0 0 0h-1v1a2 2 0 0 0-1 0 6 6 0 0 0-1 1l-1 2h-1l-1 1-1 1v1h-2l1 1-1 1a2 2 0 0 0 1 0v1h1v1h-1l1 1h1a2 2 0 0 0 0 1 1 1 0 0 1 1 1v1l1 1h3c1 0 0 0 0 0v-1 1a3 3 0 0 1 1 0l1-1v1l1-1h1v-1l1 1h2a1 1 0 0 1 1 0h6v1h1v1-1 1s1 0 0 0v2h1v1l1 1v1h1-2v1h1l-1 1h-2v1a1 1 0 0 1 0-1v1h-1v1-1 1h-1v1h1v-1l1 1h-1a2 2 0 0 0 1 1h-1v-1h-1-1a2 2 0 0 1 0 1l-1-1v1-1 1l-1-1v1l-1-1c-1 0 0 0 0 0v1h-1l-1 1-1-1v1l-1-1h-2v1h-1v1l-1 1 1 2h-1v1h1l-1 1v1h1l-1 1h1v2h-1v1a1 1 0 0 0 1 0l-1 1a2 2 0 0 1 1 1v2a1 1 0 0 0 1 0l-1 1h1a2 2 0 0 1 0 1h1c1 0 0 0 0 0h-1 1v-1h1a1 1 0 0 1 0 1h2v-1h1a2 2 0 0 0 1 1v-1a1 1 0 0 1 1 0h1v-1l1-1 1 1v-1c0-1 0 0 0 0v1h1l1-1v1-1a4 4 0 0 0 1 0v-1a1 1 0 0 1 0-1h1v-1h1v-1h1v1l1 1v-1a1 1 0 0 0 1 1 2 2 0 0 0 1-1h1a1 1 0 0 0 1 0h2a1 1 0 0 1 0-1v1l1-1v1l1-1v1l1-1h1v-1a1 1 0 0 1 0 1h1v1h1v1l1-1 1-1v1h4v1h3l1 1h1v1l1 1h1v1h-1v2h1v-1 1h1-1v1h-1v1h1a2 2 0 0 0-1 1h-1 1v2h-1v2h-2v1h-2v1h-2v1a5 5 0 0 0-1 0h1-4v1h-1a2 2 0 0 1-1-1h-1l-1 1h-1a1 1 0 0 0-1 0h-2a1 1 0 0 0 0-1l-1 1a1 1 0 0 0-1 0h-4-1v1h-2v-1h-1l-1 1h-4c-1 0 0 0 0 0l-1 1h-1v-1a4 4 0 0 1 0 1v-1l-1 1v-1l-1 1v-1 1h-1v5h-1v1h0v14l-1 1v11a3 3 0 0 1 0 1 3 3 0 0 0 1 1h-1l-1 1v1h-1v2h-1v3h-1v1h1v1h-1l1 2-1 1h-1 1v1h-1v2h1l-1 1v1h-1v1a1 1 0 0 0-1 0v2a5 5 0 0 1-1 0l-1 1-1 1h-1v1a1 1 0 0 0 0-1l-1-1-1 1h1l-1 1h-1 1-1l-1-1v1l-1 1h-1v-1-1h-1v-1h-1v-1l-1-1h-1c1 0 0 0 0 0v-1h-1v-1h-1v-1h-1a2 2 0 0 1 0-1h-1l-1-1v-1-1h-1l-1-1a1 1 0 0 0-1 0v-1h-1a1 1 0 0 1-1 0 2 2 0 0 0-1-1h1v-1h1v-1h-1v-1h-1l-1-1h-1v-1h-2a2 2 0 0 0 1 0l-1-1a2 2 0 0 1-1 0l-1-1c0-1 0 0 0 0h-1a2 2 0 0 1 0-1 2 2 0 0 0-1 0h-1l-1-1h-1v-1h-2v-1h2c1 0 0 0 0 0a1 1 0 0 1 1 1h1l1 1h1v-1h1-1v-1h-2l-1-1h-1-2l-1-1 1-1v1h1c1 0 0 0 0 0h2v-1h-1l1 1h-3v-1a2 2 0 0 1 1 0h-1l-1-1h-3v-1a5 5 0 0 0-1 0h1c1 0 0 0 0 0h1v1a2 2 0 0 1 1 0h2l1 1v-1 1h5v1h5v-1l1 1h2l1-1h1l1 1h2v-1h-1a2 2 0 0 0 0-1h4v-1h-4 2v-1a3 3 0 0 1-1-1 9 9 0 0 1 1 0h2v-1l-1-1h-1 7l1-1v-3-1h1v-2a1 1 0 0 1-1-1v-1a1 1 0 0 0 1 0v-1-2h1a1 1 0 0 1-1-1v-2h-1a6 6 0 0 1 0-1v-1-1h-4-1v1h-3v1l-1-1v1l-1-1h-1v2l-1-1-1 1h-1v1l-1-1v1h-1-1l-1 1h-2l-1 1h-1c-1 1 0 0 0 0h-1v1a1 1 0 0 1-1 0h-2v1h-1l-1 1h-3l-1 1h-4v0l-1 1-1-1h-2-1v1l-1-1-1 1h-1v-1a2 2 0 0 0-1 0l-1-1h-1l-1-1h-1v-1h1-1l-1-1-1-1v-1h-1v-1-1h1l1-1a5 5 0 0 1 0-1 3 3 0 0 1 0-1v-1-1l1-1v-1h1l1-1a7 7 0 0 1 1 0l-1 1a2 2 0 0 1 1 0v1h2v-1h2c1 0 0 0 0 0a1 1 0 0 1 1 0 2 2 0 0 1 1 0l1-1h1l1-1h5l1-1h2a2 2 0 0 0 1-1h2l1-1h4l1-1h2v-1h3l1-1h3v1l1-1v1-1l1 1h1l1-1a2 2 0 0 1 1-1h1v-1a2 2 0 0 1 1 0h2v-1h3v1l1-1v-4-1-1l-1-1a1 1 0 0 0 1 0 3 3 0 0 0 0-1h1v-1-1h-1v-1l-1 1 1 1h-1v-1-2-2l-1-1v-1a2 2 0 0 1 0-1h-1 1l-1-1v1h-1l-1 1h-1v1h-2l-1 1a2 2 0 0 1-1 0l-1 1v1h-1v1h-3l-1-1h-1a1 1 0 0 1 0 1h-1a4 4 0 0 1 0 1v1h-2a4 4 0 0 0 0-1h-2v-1l-1-1-1-1v-1l-1-1h-1a3 3 0 0 1-1-1v-1h-1v1l-1-1v-1c0-1 0 0 0 0h1v-1h3l1-1h3l1-1h3l1-1h2l1-1v1a2 2 0 0 1 0-1h3l1-1h2l1-1h2v-1-2h-1v-1-1a4 4 0 0 1-1-1h-1 1v1-1h-1v1a5 5 0 0 1-1 0h-2a3 3 0 0 0 0 1l-1 1-1 1v-1h-1v1h-1a6 6 0 0 1-1 0h-1l-1-1h-1v1-1a4 4 0 0 0-1 0v1h-1a2 2 0 0 0 0-1l1-1h-1v-1h-3-1v1l-1-1-1-1h-1v-2l1-1v-1h3v-1h1v-1h3l1-1v-1h1v-1h1v-1h1v2a2 2 0 0 0 1 0v-1h1a1 1 0 0 1 1 0v-1h1v-1h1v-1l1-1h-1l1-1h1v-1h1v-1h1v-1zm20 94v-1a2 2 0 0 0 0-1v1zm-31-41v-1h-1v1a2 2 0 0 0 1 0zm8 36a2 2 0 0 1 1 0v-1h-1c-1 0 0 0 0 0v1zm-10 2a1 1 0 0 0 1 1h1-1v-1a1 1 0 0 0-1 0zm43-65h1l-1-1v1zm-49 65v-1h-1 1zm0 0h1v-1h-1v1zm25-47v1c0 1 0 0 0 0h1v-1h-1zm-20 48v-1 1a2 2 0 0 0 0-1h-1zm13-7h-1 1zm-44-17v-1h-1v1zm106-18v-1l-1 1zm-22-10h-1l1 1v-1zm-43 49v-1 1zm-12 2h-1zm22-26v-1h-1v1a4 4 0 0 0 1 0zm-25 25h1zm5 0zm73-40zm-42 54zm-19-13v-1 1z"/><path d="M41 223a1 1 0 0 0 0-1h8v1-1 1h-1l1 1h-2 1v-1h-5-1-1zM28 220v1h-7-1l1-1v1-1 1h4v-1 1a1 1 0 0 0 1 0v-1h1zM35 222h2a1 1 0 0 0 0 1h2-1v1h-2v-1h-1v-1zM13 199v1h-1v2h-1v-1h1-1l1-1h-1v-1h2zM56 220a2 2 0 0 0-1 0h-2l1-1h2a4 4 0 0 0 0 1zM47 225v1-1a2 2 0 0 1 1 0v1h-1a3 3 0 0 0-1 0l-1-1a7 7 0 0 1 2 0zM41 220h1c1 0 0 0 0 0a2 2 0 0 0 0 1 1 1 0 0 0 1 0h-1v-1h-1zM40 225h2v1l-1-1v1h-1v-1zM36 227h-1v-1 1h1zM28 221h2a3 3 0 0 1-1 0h-1zM13 203h-1v-1 1h1zM37 229h-1a1 1 0 0 1 1 0zM38 225h2-1a3 3 0 0 1-1 0zM31 222v-1 1zM34 222h-1v-1zM53 224a2 2 0 0 1 1 0s0-1 0 0h-1c-1 0 0 0 0 0zM31 224h-1 1zM14 198v0zM52 145l1-1-1 1zM55 222h0zM101 176v1h-1l1-1zM61 138h-1 1zM105 195v1a2 2 0 0 0 0-1zM48 159h1zM31 222h0zM35 221v-1zM93 180h-1 1zM107 174h-1 1zM96 177c0-1 0-1 0 0zM43 221h0zM40 220l1-1-1 1zM53 223v-1h1l-1 1zM45 224zM105 195v0zM37 226h-1 1zM29 220zM33 220h-1zM44 226h-1v-1l1 1zM52 226zM30 221h1a3 3 0 0 1-1 0zM40 223v-1 1zM105 176l1-1v1h-1zM43 157l-1 1v-1h1zM50 159zM107 175zM42 167v-1 1zM41 223zM97 176zM41 156h-1 1zM29 224zM33 226zM40 223h0zM93 180zM94 180h-1 1zM108 196h-1 1zM45 219zM50 238a2 2 0 0 1-1 0v-1a2 2 0 0 1 1 0v1zM39 221zM43 221zM32 221zM48 220zM43 224zM107 196zM51 224zM20 213zM25 213zM124 185h1-1zM38 225zM31 227a1 1 0 0 1 1 0h-1zM42 219a1 1 0 0 1 1 0h-1zM26 305h1a1 1 0 0 1 0-1v-1 1h-1v1l-1-1a2 2 0 0 1-1 1l-1 1v-1l-1 1v1h-2v1h1l-1 1h-1l-1 1h-1v1a9 9 0 0 1-1 1v1h-1v2l-1 1h-1v1h-2v1H9v-2H8v-2l1-1a3 3 0 0 0-1 0v-1h1l-1-1h1v-1h1v-1h1a2 2 0 0 0 0-1v-1h-1l-1 1v-2h1-1l1-1v-1l1-1h-1 1v-5h1-1l1-1v1a1 1 0 0 0 1-1v-1h1v1h1v1h5l1-1h2v-1h1a2 2 0 0 1 1 0h1l2-1v-1h1l1-1v-7-1c0-1 0 0 0 0v-2l-1-2v-1a2 2 0 0 1 0-1v-3h-1v-11h-2v-2a5 5 0 0 0 0-1v-2a2 2 0 0 0 0-1l1-1v-2h1v-1 1h1v-1h1a1 1 0 0 1 1 1h1l1 1a4 4 0 0 0 1 1v1a2 2 0 0 1 0 1 5 5 0 0 1 0 1h1v1c0 1 0 0 0 0v4h1v4h1v13a2 2 0 0 0 0 1v5h2a2 2 0 0 0 0-1h1a9 9 0 0 0 1-1v-1h1v1h1v1h3l1 1-1 1v2c0 1 0 0 0 0v1l-1 1a1 1 0 0 1-1 0 1 1 0 0 1-1 1 9 9 0 0 1-1 0l-2 2v1l-1 1a1 1 0 0 1-1 0v1h-1v1l1 1v2h-1l1 1 1-1v-1h1l1-1v-2h1v-1l1-1c0-1 0 0 0 0v1h1a3 3 0 0 0 1 0 1 1 0 0 1 1 1l1 1a10 10 0 0 0 2 0v1h1l1 1c1 1 0 0 0 0h1l1 1c1 0 0 0 0 0h1a2 2 0 0 1 1 1h-1v1h1v2a2 2 0 0 0-1 1h1v-1h2v-2h1l1-1v1l1-1h-1 1v-2a2 2 0 0 1 1 0v-1a2 2 0 0 1 1 0v-1l1-1c1-1 0 0 0 0l1-1a2 2 0 0 1 0-1h1-1 1a1 1 0 0 0 0-1l1-1a1 1 0 0 0 0-1h1v-1h1v-1a1 1 0 0 1 0 1v-1h-1-2l-1 1h-1v1h-1l-1 1h-1a3 3 0 0 1-2 1h-1v1a2 2 0 0 0-1 0 5 5 0 0 1-1 1h-2v-1l1-1a3 3 0 0 0 0-1l1-1v-1h1v-1h1l1-1h1a2 2 0 0 1 0-1h1v-1-1h2v-1l2-1v-1h1a1 1 0 0 1 0-1 6 6 0 0 1 1-1v-1l1-1v-1l1-1v-1a2 2 0 0 0 0-1h-1v-1h-1v-1h-1v-1h2v-2h-1a2 2 0 0 0 0-1 4 4 0 0 0 0-1 4 4 0 0 0 1 0h-1v-2h-1v-1-1h2v-1h2v-1a1 1 0 0 0 0-1h9v-1h1l1-1h2l1 1h3l1-1v1h2v1h2l1 1a2 2 0 0 1 1 0 1 1 0 0 1 1 1 2 2 0 0 0 0 1 1 1 0 0 1 1 0l1 1v2a4 4 0 0 0 1 0 3 3 0 0 0 0 1h2l1-1h1v-1h1v1h1v-1h3v-1a3 3 0 0 0 1 0h1v1a1 1 0 0 1-1 0v1h1a10 10 0 0 1 0 1h-1v1l-1 1c-1 0 0 0 0 0h-2v1-1l-1 1v1h-2a2 2 0 0 1 0 1l-1-1h-2v2h-1v1l-1 1h-1l-1 1h-1l-1 1h-2v1h-1v1l-1 1h1l-1 1h-1l1 1h-1v1l-1 1v1h-1a4 4 0 0 0-1 0l1 1a1 1 0 0 0-1 0 3 3 0 0 1 0 1l1-1v1h4l1-1a2 2 0 0 0 1 0 1 1 0 0 0 1-1h1v1h1a1 1 0 0 0 1 0h4a4 4 0 0 0 0 1v1h-1l1 1a1 1 0 0 0 0 1 1 1 0 0 1-1 0v1a2 2 0 0 0-1 1v1h-1v1a1 1 0 0 1-1 0 2 2 0 0 0-1 1h1l-1 1h-1v2h-1v-1h-1l1 1h-1v2c0 1 0 0 0 0a2 2 0 0 0-1 0v1h-1a2 2 0 0 0-1 0l1 1-1 1v1h-1v0l-1 1v1h-1v1l-1 1a6 6 0 0 0 0 1v1h-1v1h-1v1a2 2 0 0 0 0 1h-1l-1 1h1l-1 1-1 1v1l-1 1-1 1-1 1v1h-1v2h-1-1l1 1h-1a4 4 0 0 0-1 1h-1l1 1h-2v2a2 2 0 0 1-1 0h-1v1h-1v1h-1-1a3 3 0 0 0 0 1h-1v1a1 1 0 0 0-1 0 3 3 0 0 1-1 1h-1v1h-1l1 1h-1-1l-1 1v1a3 3 0 0 0-2 1l1 1h-3l-1 1c0-1 0 0 0 0l-1 1h-1v1a3 3 0 0 0-1 1v-1l-1 1h-1l-1 1c-1 0 0 0 0 0h-1 1a3 3 0 0 1 0-1l1-1v-3a2 2 0 0 1 1 0v-1l1-1h1v-1h1v-1h1v-1h2a2 2 0 0 0 0-1v-1l1-1a4 4 0 0 0 1 0v-1l1-1c1 0 0 0 0 0v-1a1 1 0 0 1 1 0l1-1v-1l1-1c0-1 0 0 0 0v-1h1v-1l1-1a5 5 0 0 0 1-1 5 5 0 0 1 1-1v-1h1v-1a3 3 0 0 1 1-1 2 2 0 0 1 1-1v-1h-7v-1h-2l-1-1h-1-1l-1 1v-2l-1-1a1 1 0 0 1-1-1 1 1 0 0 1-1 0v-1h-1v1h-3v0h-2v1h-1v-1h-3v-1h-2l-2-1v-1-1-1h-1v2h-1 1l-1 1v11h-1v7l-1 1a2 2 0 0 1 1 0h-1v4l-1 1c-1 0 0 0 0 0v3h-1 1l-1 1v1l-1 1h-1v1c0 1 0 0 0 0h-1v1h-1v2h-1a3 3 0 0 1-1 0v1h-1a4 4 0 0 0-1 1l-1 1a2 2 0 0 0 0-1h1v-1a5 5 0 0 1 1-1v-2h1a3 3 0 0 0 0-1 1 1 0 0 1 1 0v-3h1v-6h1v-6a2 2 0 0 1 1 0v-3-2l-1-1h-3a2 2 0 0 1-1 0l-1 1-1 1v1a4 4 0 0 1 0-1l-1 1h-1v1h-1a2 2 0 0 1-1 1 3 3 0 0 1-1 0 2 2 0 0 1-1 1 1 1 0 0 0 0 1l-2 1a1 1 0 0 0-1 0v1h-1-1v1a1 1 0 0 1-1 0 3 3 0 0 0 0 1h-1l-1 1-1 1v1H7 6c-1 0 0 0 0 0v1H5 4a3 3 0 0 1 0 1l-1 1H2l-1 1H0v-1-1a8 8 0 0 1 1-1l1-1v-1h1l1-1v-1l1-1h1l1-1 1-1h1v-1h1l1-1h1l1-1 1-1v-1l1-1a9 9 0 0 0 1-1 1 1 0 0 0 0-1h1v-1a4 4 0 0 1 2-2v-1l1-1 1-1v-1a4 4 0 0 0 1 0v-1a7 7 0 0 1 1-1v-1h1v-2l1-1v-1l1-1v-2zm53-1v-1l1-1v-1l1-1h1-1a2 2 0 0 0 1-1v-1h1v-2-1-2h-1v-1l-1 1a2 2 0 0 0 0 1h-1v2h-1v1h-1v1l-1 1v2h-2v1h1-1v2h-1a2 2 0 0 1 0 1l-1 1 1-1a2 2 0 0 1 0 1 1 1 0 0 0-1 0v1a1 1 0 0 0-1 0v1h-1v1l-1 1h5c0-1 0 0 0 0l1-1h1v-1-1l1-1c0-1 0 0 0 0l1-1a4 4 0 0 1-1 0l1-1h-1zm-19 1a1 1 0 0 1 1 0h-1zm19-1l1-1h-1v1zm-5-7v0z"/><path d="M114 295v1h-1 1a1 1 0 0 1-1 1v1a1 1 0 0 0-1 1l-1 1h1l-1 1v1h-1v2l-1 1v-1l-1 1h1-1v1c0 1 0 0 0 0v1h-1v1h-1v1l-1 1v1h-1v1l-1 1h0v1h-1v1l-1 1v1a1 1 0 0 1-1 0v1h-1v1l-1 1v1h-1 1l-2 2h-1v2h-1v1h-1v1a1 1 0 0 1-1 1v1h-1v1a2 2 0 0 0-1 0h-1l1 1-1 1v1h-1v1h-1v1h-1v1c0 1 0 0 0 0v1h-1v1h-2v2h-1v2h-1v1h-1v1h-1v1a1 1 0 0 1-1 0v1h-1v1h1-1v2h-1 1l1-1 1-1a1 1 0 0 1 0 1l-1 1v1a6 6 0 0 1-1 1 1 1 0 0 0-1 1v1a1 1 0 0 0-1 0v1l-1 1a1 1 0 0 1-1 0v1h-2 1v1h-2v1h-1a1 1 0 0 0-1 1h-1a2 2 0 0 1 0 1h-1a1 1 0 0 0 0 1v1h-1a7 7 0 0 0-1 0v1h-2a1 1 0 0 1-1 1h-1l-1 1h-2 1l-1 1h-1v1h-2a5 5 0 0 1-1 0v1a2 2 0 0 0-1 0h-1l-1 1h-1v-1l-1 1h-1v1a1 1 0 0 1-1 0h-1a1 1 0 0 0-1 0h-2l-1 1h-1a1 1 0 0 0-1 0l-1 1h-2c-1 0-1 0 0 0h-1v1h-3v1-1l-1 1h-1l-1 1h-2-1a1 1 0 0 1-1 0h1v1h-2v1l-1-1v1l-1-1a1 1 0 0 1 1-1v-1h2v-1h1v-1a6 6 0 0 1 1 0v-1h2v-1h1a2 2 0 0 1 1-1h2v-2l1 1 1 1h2v-1h1a4 4 0 0 0 1 0v-1h2l1-1h2l1-1h1c0-1 0-1 0 0a2 2 0 0 1 1-1h1v-1h2l1-1h1l1-1a2 2 0 0 0 1-1l1-1h1v-1a1 1 0 0 1 1-1 2 2 0 0 0 1 0v-1h1v-1h1v-1h1v-1h1l1-2 1-1 1-2v-1h1l1-1a2 2 0 0 1 1-1l1-1v-1h1-1l1-1 1-1v-1l1-1 1-1h1v-2 0h1v-1h1s0-1 0 0h1l-1-1h1v-1h-1 1v-1h1v-1h2a1 1 0 0 1 0-1h-1 1v-1-1h2l-1-1h1v-1h1v-1l1-1v-1h2v-1a1 1 0 0 1 1-1 4 4 0 0 0 0-1 4 4 0 0 0 1 0v-1h1v-2h1a2 2 0 0 1 0-1v-1h1v-1a3 3 0 0 0 1 0l-1-1h1v-1h1l-1-1c-1 0 0 0 0 0l1-1h1a1 1 0 0 0 1-1l1-1v-1a1 1 0 0 1 1-1l1-1a3 3 0 0 1 0-1v-1a1 1 0 0 1 1 0v-2a1 1 0 0 1 1-1h-1 1v-1 1l1-1v-1-2h1v-1l1-1h-1 1v-2-1-1l1-1v-2h1a2 2 0 0 0 0-1h1l1-1v-1a1 1 0 0 0 1 0l1-1a2 2 0 0 1 1 0h-1a2 2 0 0 0 1 0l-1-1h1v-1h1l1 1v1l2 1h3v1h1v-1l1 1s0-1 0 0a1 1 0 0 0-1 0v2h1v1a1 1 0 0 1 0 1 6 6 0 0 1-1 0l-1 1h1l-1 1v3a1 1 0 0 0-1 0h-1l1 1h-1l1 1v1h-1v-1l-1-1zm-20 17v1l1-1h-1zM121 346v1h1l-1 1h1-1l1 1v-1a2 2 0 0 0 1 0v3a1 1 0 0 0 1 0v1a8 8 0 0 1 0 1 7 7 0 0 1 1 0v1a3 3 0 0 1-1 0v3a1 1 0 0 0-1 0v-1h-1v1h1v2h-1v1 1h-1a2 2 0 0 0 0 1l-1 1v1h-1-1v1h-1l-1 1h-2l-1-1h-1v-1h-2v-1h-1l-1-1v1c0 1 0 1 0 0h-2v-2l-1-1a2 2 0 0 0 0 1 1 1 0 0 0-1 0l-1-1-1-1-1-1-1-1v-1h-1v-1c0-1 0 0 0 0h-1a1 1 0 0 0 0-1h-1a1 1 0 0 0 0-1h-1l-1-1a1 1 0 0 0-1-1v-1l-2-2a1 1 0 0 1 1-1h-1v-2a4 4 0 0 0 0-1h-1a3 3 0 0 0 0-1l-1-1h1v-1-1l-1-1v-2-1h4a1 1 0 0 1 0-1h1v-1l1 1 1-1 1-1c0-1 0 0 0 0h1v1h2a1 1 0 0 1 1 0h1l1 1h1v0l1 1h2l2 1v1h1l1 1h2l1 1h2l1-1h1v-1h3v-1 1l-1 1h-1-1v1h-1a4 4 0 0 0 0 1h-1a2 2 0 0 0 1 1v1h1l-1 1h1v1h1v1h1z"/><path d="M66 335v-1a1 1 0 0 0 1 0h0l-1 1zM77 326h-1v-1a1 1 0 0 1 1 0l1-1v1l-1 1c0 1 0 0 0 0zM75 328v-1l1-1v1h-1v1zM115 298v1l-1 1v-1l1-1zM70 333l1-1v-1 1l-1 1zM22 307a2 2 0 0 1 0 1h-1a2 2 0 0 1 0-1h1zM89 336v1h-1v-1h1zM70 333l-1 1v-1a3 3 0 0 1 1 0zM86 261l1 1a1 1 0 0 1-1 0v-1zM24 307a4 4 0 0 0-1 0l1-1c1-1 0 0 0 0v1zM75 328v1a1 1 0 0 1-1 0v-1a1 1 0 0 0 1 0zM80 346l1 1h-1v-1zM78 323v1-1zM110 308zM72 331zM81 345h1zM82 344a6 6 0 0 1 1 0 1 1 0 0 1-1 0zM83 343zM112 304a2 2 0 0 1 0 1v-1zM84 342v-1h1l-1 1zM73 329v0zM87 320h-1 1zM91 314s-1 0 0 0zM26 305a1 1 0 0 1-1 0zM114 301h-1 1zM114 301v-1a2 2 0 0 1 0 1zM95 299h0zM83 317c0-1 0-1 0 0zM91 314v-1 1zM107 312zM98 301h0zM4 295v-1 1zM115 296h-1 1zM116 296zM25 306zM111 307a1 1 0 0 1-1 0v-1h1zM8 308h0zM87 318h0zM79 322zM78 346zM76 303v-1l1-1h1l-1 1-1 1zM79 299v1l-1 1a3 3 0 0 1 0-1l1-1zM76 303l-1 1 1-1zM82 296h-1v-1h1v1zM75 304v0zM80 298v1l-1-1h1zM76 303zM76 309zM84 460l1-1v1h1a1 1 0 0 0 1-1v-1c1 0 0 0 0 0v-1h-1c-1 0 0 0 0 0l1-1v-1-1 0a3 3 0 0 0 0-1l-1-1a1 1 0 0 1 0-1l-1 1-1 1h-1v1-4l-1 1h-1v1h-1v-1-1h-1l-1-1v-1h-1a4 4 0 0 0 0-1v-1h-1v-1-1h-1v-4-3h-1v-1a7 7 0 0 1 0-1v-1h1v-6-1h1v-4-4h-1v2h-1v1l-1-1h-1l-1-1h-1v-1a2 2 0 0 0-1-1h-1v-1a3 3 0 0 1-1 0v-1a1 1 0 0 0-1 0l-1-2-1-1h-1v-1h1v-1h1v-1h1v-1h-1a5 5 0 0 1 1 0h1l1-1c1 0 0 0 0 0h1v-1h2v-1a2 2 0 0 0 1 0l1-1a4 4 0 0 1 1 0h1v-1h1a2 2 0 0 0 1-1v-1h1l-1-1v-1-6-5l-1-1h-1v-1h-2a2 2 0 0 1 0-1v-1-1h1v-1h1l-1-1h1v-1h1l1-1h1a2 2 0 0 0 1 0h1a2 2 0 0 1 0-1v1a2 2 0 0 1 1 0v1h1v1l1 1v2a1 1 0 0 0 1 0h-1l1 1v5h1-1v1h1v3h-1v1h1v1l-1 1c-1 1 0 0 0 0h2l1-1a3 3 0 0 1 1 0l1-1h1l1-1a3 3 0 0 0 1 0l1-1s1 0 0 0h1v-1a3 3 0 0 0 0-1v-1-1a2 2 0 0 1 1 0h-1v-1-4h1v-1h-1l1-1v-1-1-7h1-1v-1-1l-1-1h1-1v-1-1c0-1 0 0 0 0a2 2 0 0 0 0-1 1 1 0 0 1 1 0v-1h2a1 1 0 0 0 1 0h4l1 1c0 1 0 0 0 0v1l-1 1 1 1v2h-1v2h-1v3a2 2 0 0 1-1 1v1h0v2-1 1a2 2 0 0 0-1 0h1v1h-1v1h1v-1 2h-1a2 2 0 0 0 1 0v1h-1 1v1h-1v1a2 2 0 0 0 1 0h-1a2 2 0 0 0 0 1h1a2 2 0 0 1 0 1v1h1v-2 1h1l1-1h9v1h2v2l1 1v1h-1s-1 0 0 0l-1 1v1a1 1 0 0 1-1 0v1h1v1h1-1v1h-1v1h-1v1l-1 1h-3a7 7 0 0 1-1 0h-2l-1 1h-1v-1 1h-1v-1a1 1 0 0 0 0 1v1h-1v5h1-1v1l1 1-1 1h1v1h-1l1 2v4h1l1-1a2 2 0 0 0 1 1l1 1a1 1 0 0 1 1 0h2a1 1 0 0 1 1 0v1h1v2h-1a1 1 0 0 0 0 1h-1v1h-1v-1a4 4 0 0 0-1 0l1 1v-1 1c1 0 0 0 0 0v1h1v1h-3v1h-1l-1 1v2h1v3l1 1h-1v3h-1v1a2 2 0 0 0-1 0v2a1 1 0 0 1-1 0v2l-1 1v0a2 2 0 0 0-1 0h-3l-1 1h1a1 1 0 0 0 0 1v1c0 1 0 0 0 0v1h1v4h1a7 7 0 0 0 1 0v-1h1v-1h2a1 1 0 0 1 0-1v1h1v1h1v1h3-1v-1h-1v-1h1l-1-1h-2v-2a2 2 0 0 1 1 1v1h1v-1h2v0h-1 1v-2 1a2 2 0 0 1 1 0h1l1 1h2l-1-1h-1 1l-1-1h2v1h1l1-1h1v1a1 1 0 0 0 0 1l1 1v-1h1-1v-1h2v1h1v1h-1 1v1h-1a2 2 0 0 0 1 1h0v1h-2 1v1l-1 1v-1-1h-1l-1 1h1-1a2 2 0 0 0 0-1h-1v1l1 1h-1v-1l-1 1v-1h-1 1l-1 1h1l1 1v1l1-1v1-1l1 1-1 1h-1v1h-1a4 4 0 0 1 0-1v1l-1-1h1v-2a4 4 0 0 1-1-1 2 2 0 0 0 0-1l-1 1v-1a2 2 0 0 0-1-1v2l-1 1v-1h-2v-1h-2a1 1 0 0 0-1 0v1l1-1v1h2v1h2a8 8 0 0 1 1 0h-1v1l-1 1h0l-1-1-1 1h1-1l1 1h-1a4 4 0 0 0-1 0 2 2 0 0 0 0 1h-1 3l-1 1h2v-1h1l1 1h-2c0 1 0 0 0 0h-1-1v0h-1l-1 1v-1 1h5v0l-1 1h-1l-1 1v-1h-2 1v1h-2v1a1 1 0 0 1-1 0h-3v0l-1 1v1a1 1 0 0 1 0 1h-1v3h-1l1 1v8h-1 1v8a8 8 0 0 1-1 2v1h-1l1 1h-1 1-1v3h-1v2h-1v1c0 1 0 0 0 0h-1l1 1h-1v1c0 1 0 0 0 0l-1 1v3h-1v1a3 3 0 0 0-1 1v2a2 2 0 0 0-1 1 3 3 0 0 1-1 1v1c0 1 0 0 0 0h-1v1a1 1 0 0 0 0 1c-1 0 0 0 0 0l-1 1v-1l1-1v-1a5 5 0 0 1 1-2v-3h1v-2l1-1a2 2 0 0 0-1 0 4 4 0 0 0 0-1v-1-1h1-1v-8l1-1v-1h-1v-5a1 1 0 0 0-1 0h1l-1 1v1h-1a2 2 0 0 0-1-2v1l-1-1-1 1h-1v1h-1l-1 1-1 1h-2v2h-1l-1 1h-1v1a6 6 0 0 0-1 1v1h-1l-1 1h-1l1 1h-1l-1 1a3 3 0 0 1-1 1h-1v1h-1a4 4 0 0 1-1 0v1h-1a7 7 0 0 1-1 1v1h-1a1 1 0 0 0-1 1l-1 1-1 1h-1v-1-1-1l1-1h1v-1l1-1h1l1-1v-1a2 2 0 0 1 1 0v-1 1a2 2 0 0 0 1-1h1v-1h1l1-1a2 2 0 0 1 1-1l2-1a2 2 0 0 1 1-1v-1l1-1h1v-1l1-1a5 5 0 0 0 1-1 4 4 0 0 1 1-1v-1h1v-1h1v-2l1-1c0-1 0 0 0 0a1 1 0 0 0 1-1h-1l1-1v-1-1h1v-1-1h-1v2a2 2 0 0 0-1 0v1a2 2 0 0 0-1 0l-1 1v-1 1h-6v-1h-1a1 1 0 0 0 0-1v0h-1v-2h-1v-1a1 1 0 0 0 0-1h-1l1-1h-1v-2l1-1v-2l1-1v-1h-1a2 2 0 0 0 0-1v-1l1-1-1-1v-1l1-1h-1 2s0-1 0 0v-1h1v1h1l1-1h1v1a8 8 0 0 0 1 0h2-1v1a2 2 0 0 1 1 1h1a1 1 0 0 0 1 0 2 2 0 0 1 0-1h1v1h-1l-1 1v1h1v-1h2v-1c0-1 0 0 0 0h2zm20-2h1v-1 1h-1s1 0 0 0zm6-9v1l1 1v-1h1l-1-1a3 3 0 0 0-1 1v-1h-1l-1-1a2 2 0 0 1 0 1v1l1-1v1l1-1zm-7 6v2h1v-2 1l-1-1v0l1-1h-3v1h-1a2 2 0 0 1-1 0v1-1l-1 1h2v-1h3zm-1 6v1c0 1 0 0 0 0h-1l1-1h-1 2l-1-1a1 1 0 0 0-1 0 1 1 0 0 1 0 1h-1v-1c0-1 0 1 0 0h1-1v-1l-1 1h-1v2h-1l1 1c0 1 0 0 0 0l1-1v1h1v-1 1a4 4 0 0 1 1-1l1-1zm-11-27h-1l-1 1h1v1a3 3 0 0 0-1 1h-1c-1 0 0 0 0 0v1h-1v1-1 2a2 2 0 0 1-1 1 4 4 0 0 1 0 1h-1l1 1h-1v1l1 1a1 1 0 0 1 0 1h-1v1h1v-1l1-1v-1h2v-1c0-1 0 0 0 0v-1h1a3 3 0 0 0 1 0h1v-1h1v-1h1v-8h-1l-1 1-1 1zm0-10l1-1h1a1 1 0 0 1 1 0 2 2 0 0 0 0-1v-3-4-2-1-3-1-1h-1v1a1 1 0 0 1-1 0 5 5 0 0 0-1 1v-1 1h-1l-1 1c1 0 1 0 0 0a1 1 0 0 1-1 0v1h-1a1 1 0 0 0-1 0l-1 1v1l-1 1v6a2 2 0 0 0 0 1v5h3v-1h2l1-1h1zm23 27v-1h1-3v1h1v1h-1s0-1 0 0a2 2 0 0 0 1 1v-1h1v-1zm-32 13h1v-2l-1 1v-1a1 1 0 0 0 0 1v1zm3 0l1-1h-2v0h1v1zm14-11a1 1 0 0 1-1-1 1 1 0 0 1 0 1 1 1 0 0 1 0 1l1-1zm5 8v-1h-1 1v1zm-1-8l-1-1v1h1zm-2 6h1v-1h-1zm2 4l-1-1v1zm-10-56h-1 1zm-6 54h-1 1c1-1 0 0 0 0zm-12-3h-1v1h1zm42-9a1 1 0 0 0 1 0zm-4 0v-1h-1v1zm4 1a6 6 0 0 0 0 1v-1zm-40 10h-1v1l1-1zm23-7zm5 4h-1zm10-9h-1zM45 437v1l-1 1v3a1 1 0 0 1 0 1h-1v4s-1 0 0 0h-1v1h1-1v3l-1 1v1l-1 1h1a1 1 0 0 1-1 1h1-1v1l-1 1v1c0 1 0 0 0 0l-1 1v1-1 2l-1 1v2h-1l1 1h-1v2l-1 1h-1l1 1h-1v1h1a3 3 0 0 0 0 1h-1a2 2 0 0 1 0 1v1h-1l1 1c1 1 0 0 0 0l-1 1h1l-1 1v2l-1 1a1 1 0 0 1 0 1v2h-2v1h-1v2l-1 1v3h-1v-1a2 2 0 0 0 0 1v1h-1v1l-1 1v-2h-1v1l-1-1v1a1 1 0 0 1-1 0v-1-1l-1-1v2l-1-1a1 1 0 0 0 0-1l-1-1h1l-1-1h1-1a1 1 0 0 1 0-1v-2-1l1-1a2 2 0 0 0 1-1l1-1a1 1 0 0 1 0-1 4 4 0 0 0 1-1v-1l1-1v-1h1v-1-2h1v-3l1-2 1-1a1 1 0 0 0 0-1s1 0 0 0v-1h1v-1-1h1v-1a8 8 0 0 1 0-1v-2h1v-2l1-1v-1c0-1 0 0 0 0v-1l1-1a1 1 0 0 0 0-1v-1l1-1v-4-1-2l-1-1v-1h-2v-1a2 2 0 0 1-1 0l-1-1c0-1 0 0 0 0h-1l-1-1v-1h-1l-1-1-1-1-1-1a2 2 0 0 1 0-1 2 2 0 0 0-1-1 3 3 0 0 0 0-1l-1-1v-1h-1v-1l-1-1v-2h1a2 2 0 0 0 0-1v-1l1-1v-1l1-1h-1v-1-1h1l1-1v0a1 1 0 0 1 1 0v2-1h1v1l1 1 1 1h1l1 1a2 2 0 0 1 1 0 3 3 0 0 0 0 1h1l1 1a2 2 0 0 0 0 1l1 1 1 1c1 0 0 0 0 0v-2-3-8l-1-1h1-1l1-1a2 2 0 0 1-1 0h1-1l1-1h-1v-4-10-6c0-1 0 0 0 0h2a4 4 0 0 0 1 0v1h1l1 1h2a2 2 0 0 0 0 1 2 2 0 0 0 1 0v1h1v1h1v1a3 3 0 0 1 0 1l1 1v3c1 0 0 0 0 0v1h1v3l1 1v1a2 2 0 0 0 0 1v1h1v2h1l-1 1h1v1a3 3 0 0 1 0 1v5l1 1-1 1v2a1 1 0 0 0 0 1l-1 1v2h-1v3a1 1 0 0 1-1 1v3l1 1h-1v2z"/><path d="M68 481h-1a2 2 0 0 1-1 1v5h-1v1l-2 2-1 1v1a7 7 0 0 1-1 1 2 2 0 0 1-1 0 2 2 0 0 1-1 0v1l-1-1a3 3 0 0 1-1 0 4 4 0 0 1 0-1 3 3 0 0 1-2-1 2 2 0 0 1-1 0l-1-1v-1-2h-1v-2-1-1l-1-1a2 2 0 0 1 0-1c-1 0 0 0 0 0a4 4 0 0 0-1-1v-3-4-5l-1-1v-3-1-3h-1v-2-1c0-1 0 0 0 0l-1-1c-1 0 0 0 0 0v-1-2l-1-1v-2-1h-1v-2h1v-3 1h2v1l1 1h1v2l1 1v2h1v2l1 1a5 5 0 0 1 0 1 3 3 0 0 0 1 1 1 1 0 0 1 0 1 2 2 0 0 1 1 1v1c0 1 0 0 0 0v1a2 2 0 0 0 1 0l1 1a2 2 0 0 1 1 1v-1 1a1 1 0 0 1 1-1h2l1 1h-1l-1 1h-1 4v1h-1v2l-1 1h1v-1 1c1 0 0 0 0 0v2h1-1v1h1v2h1v1h1v2h-1a1 1 0 0 0 1 1v-1 1h2-1l1 1 1 1a3 3 0 0 0-1 0v1h1v1l-1-1v1zM115 469h1a1 1 0 0 1 0 1h2a2 2 0 0 1 0 1h1a1 1 0 0 1 1 1h1l1 1h1l1 1v2a4 4 0 0 1 1 1 1 1 0 0 0 1 1 3 3 0 0 0 0 1h1l1 1v1l1 1v1l1 1v7a6 6 0 0 0-1 1 3 3 0 0 1 0 1 3 3 0 0 0-1 1h-1l-1 1h-1l-1 1v-1 1l-1-1-1 1v-1h-1a1 1 0 0 1-1-1h-1v-1h-1-1v-1l-1-1h-1v-1h-1v-1h-1a1 1 0 0 0 0-1h-1v-1h-1v-1-1h-1v-2-1h-1-1v-2-2-1l-1-1v-1h-1v-1a1 1 0 0 1 1-1h-1l1-1v-3a1 1 0 0 1 0-1v-1a1 1 0 0 1 1 0v1a2 2 0 0 0 0-1h2l1 1h3a1 1 0 0 1 1 1zM61 404l-1-1h-2v1h-2v2l-1 1v3a1 1 0 0 1 0 1v8h-1 1a2 2 0 0 1-1 1v3h-1a2 2 0 0 1 1 1 1 1 0 0 0-1 0v3a2 2 0 0 0 0 1v1a1 1 0 0 0 0 1v1h-1v1h-1l-1-1-1-1-1-1v-1-3h1v-1-3h1v-2a4 4 0 0 0 1-2v-2h1v-2l-1-1v-2-2h-1v-3l-1-1v-1-1-1h-1v-1l-1-1v-1a2 2 0 0 0 0-1l-1-1v-1l-1-1h-1v-1-1h1v-1l1 1c0-1 0 0 0 0h6a1 1 0 0 0 1 0h3a2 2 0 0 0 1 1h1l1 1h1a2 2 0 0 0 1 1v1h1v1l1 1h-1l1 1 1 1-1 1a2 2 0 0 1 0 1h-1-1v1zM108 458h1a2 2 0 0 0 1 0l-1 1h-1l-1-1c0-1 0 1 0 0v-1a2 2 0 0 0 1 1zM85 458v1h-1v-1h-1v-1l-1 1v-1h3v1zM111 462h-1v-1h2v-1 1h-1v1zM78 456h1v1h-2 1a2 2 0 0 0 0-1zM111 459h1-1l-1 1v-1zM114 458h1v-1h1l-1 1h0v1l-1-1zM81 458v-1h1v1h-1a1 1 0 0 1-1 0 2 2 0 0 1 1 0zM114 460v-1h1v1h-1zM111 454v1h-1a1 1 0 0 0 0-1zM106 445h1v1h-1zM62 461h-1 1zM78 459v-1h1-1 1v1zM104 447h1a4 4 0 0 1-1 0zM66 476h1-1zM116 456v-1a1 1 0 0 1 1 0 2 2 0 0 0 0 1h-1zM85 458h1-1zM113 446h-1 1v-1 1zM111 459v-1a3 3 0 0 1 1 0h-1v1zM83 459h1v1h-1zM111 457h1v-1 1h-1zM81 456h-1v1-1h1zM85 513a1 1 0 0 1-1 1l1-1zM99 451v-1l1 1zM113 461h0zM107 444h0zM113 460v1-1zM27 489h1zM34 481v1l-1-1h1zM76 457h1a1 1 0 0 1-1 0zM116 454zM110 454h1zM120 454h-1v-1l1 1zM105 450h-1a1 1 0 0 1 1 0zM103 449zM115 455zM73 435v-1l1 1h-1z"/><path d="M57 461a3 3 0 0 0 1 0h-1zM83 459v0zM113 459v-1 1zM60 461h-1 1zM63 465h1-1zM116 457zM116 456h1-1zM76 456h1-1zM112 456zM78 456h-1 1zM118 456h-1 1zM120 452v-1h1l-1 1zM91 434v0zM164 244v-1h1v-1h1c1 0 0 0 0 0v-1h1v-1a7 7 0 0 1 1 0v-1a1 1 0 0 0 1 0l1-2a1 1 0 0 0 1-1h0l1 1v1a2 2 0 0 0 1-1v-1l-1-1 1-1h2a3 3 0 0 1 0-1l1-1-1-1a1 1 0 0 0 1 0h1v-1-1a2 2 0 0 1 1 0h1v-1h1v-1l1-1 2-1v-1h1v-1h1v-1l1-1h1v-1h1v-1l1-1 1-1 1-1a8 8 0 0 1 1-1 4 4 0 0 0 1-1 7 7 0 0 1 1-1v-1h1a1 1 0 0 1 1 0h1v-1h-1 1a2 2 0 0 0 0-1l1-1a6 6 0 0 0 0-1l1 1h1a7 7 0 0 0 1-1v-1h1v-1h1v-1-1 1h1v1a6 6 0 0 1 0 1h1v-1h1v-1-1h-1v0h1v-1h1v-1h1c1 0 0 0 0 0a2 2 0 0 0 0-1l1-1v-1h2v-1h1l1-1h1v-1h1l1-2h1l-1-1-1-1v1l-1-1h1v-1l1-1a2 2 0 0 1 0-1h-2v1c0-1 0 0 0 0h-1l-1-1v1h-1v1h-2l-1 1h-1l-1 1h-1a2 2 0 0 1 0 1h-2-1v1l-1-1-1 1a2 2 0 0 1-1 0 2 2 0 0 1 0 1l-1-1v1h-2a1 1 0 0 0 0 1h-1c0 1 0 0 0 0h-1a2 2 0 0 0-1 0h-1a1 1 0 0 0-1 1h-1v1h-1-1-3a1 1 0 0 1-1 0v1h-1v-2l-1 1v-1h-1v-1h1-1v-1-1h-1a1 1 0 0 0 0-1l-1-1-1-1a8 8 0 0 1-1 0 1 1 0 0 1 0-1h-1v-1h-1a1 1 0 0 1 0-1v-1l-1-1v-1h5v-1h4l1-1h1l1-1h2v-1l1 1v-1h3l1-1h1a2 2 0 0 1 1 0 2 2 0 0 1 1-1 3 3 0 0 1 1 0h1l1-1h2v-1l1 1v-1h3l1-1h-1v-1l-1-1v-1-1h-1v-1l-1-1h-1v-1h-1v-1a1 1 0 0 1 0-1h-1v-1h-1a11 11 0 0 0 0-1 3 3 0 0 0-1 0 1 1 0 0 1 0 1l-1-1-1-1h-1-1v-1l1-1v-1a3 3 0 0 0 0-1v-1h1v-2-2-1-2l1-1h-1v-1l1-1v-1l1 1v-1h2v-1 1l1-1a1 1 0 0 1 0 1 2 2 0 0 0 1 0 2 2 0 0 1 1-1h1a2 2 0 0 1 1-1h3l1-1 1-1h4v2h1a1 1 0 0 1 1 0v3l-1 1h-1l-1 1v3h2l-1 1h1-1v1h-2 1a1 1 0 0 0 1 0 2 2 0 0 1 0 1h1l1-1v1l-1 1h-2v1l-1-1v13c0 1 0 0 0 0l1 1v1h1a2 2 0 0 0 0 1h1a1 1 0 0 1 1 0v-1h3a2 2 0 0 1 1 0v-1h1c1 0 0 0 0 0h2l1-1h2v-1a4 4 0 0 1 1 0l1-1v-2-1h1a3 3 0 0 0-1 0v-1-1-1-2l1-1v-1-3-2-1-2-1-1h-1l1-2-1-1h1l-1-1v-4-2h-1v-4-1l-1-1-1-1h-1v-1h-1 2v-1h1v1h1v-1h3a8 8 0 0 1 1-1 3 3 0 0 0 1 0h1v-1h2l1 1 1-1a1 1 0 0 0 0 1h1c0-1 0 0 0 0h4l1 1a1 1 0 0 0 0 1h1v1l1 1h-1 1l1 1v1a4 4 0 0 0 1 1v1h1v2l1 1h-1 1l-1 1v1l-1 1a2 2 0 0 0-1 1h-1v1h-1l-1 1-1 1v2h1l-1 2v7h-1v3h1v-1-1h1v-1h1v-1-1h1a3 3 0 0 0 0-1l1-1v-1h1a3 3 0 0 1 0-1h1v-1-1a8 8 0 0 1 1-1v-1h1v-1a1 1 0 0 0 0-1v-1h1-1l1-1v-2h1-1l1-1 1-1v-2-1h1v-1-1-1-3h1v-2h-1l1-1s-1 0 0 0l-1-1h1v1h2-1l1-1h-1 2a2 2 0 0 1 1 0h1a2 2 0 0 1 1 1l1 1c1 0 0 0 0 0a2 2 0 0 1 1 1 3 3 0 0 0 1 0v1h1v1h1a2 2 0 0 1 1 1 2 2 0 0 0 1 1v1a2 2 0 0 1-1 1h1l-1 1a1 1 0 0 1 1 1v2l1 1v2h-1v3h-1v1h1l-1 1a3 3 0 0 1-1 1h0a2 2 0 0 0-1 1l-1 1-1 1v-1l-1 1h-1v1h-1 1l-1 1-1 1v1 1h-1 1a4 4 0 0 0-1 1 4 4 0 0 1 0 1l-1-1v3-1 2h1l1-1h2v-1h1s0 1 0 0h2l1-1h4a1 1 0 0 0 1 0v-1h1a1 1 0 0 0 1-1v-1l1 1h11v-1 1h5a2 2 0 0 1 1 0h1l-1 1a1 1 0 0 1 1 0h1c0 1 0 0 0 0v1h2v3h-1v1h2l1 1v1l-2 1v2h-1v1l-1-1v1h-3l-1 1a2 2 0 0 0-2 1h-3a2 2 0 0 1 0 1h-1l-1 1s-1 0 0 0h-2a4 4 0 0 1-1 1h-1a3 3 0 0 0 0 1l-1-1a2 2 0 0 1 0 1l-3-1v1-1l-1 1h-1v-1l-1 1-1-1v1l-1-1-1 1v-1l-1 1h-1v-1 1-1l-1 1v-1 1h-2l-1-1h-1s0 1 0 0h-2l-1 1c-1 0 0 0 0 0h-1-1a2 2 0 0 0-1 1h-1a3 3 0 0 1-2 1 2 2 0 0 0-1 0 2 2 0 0 1-1 1l-1 1h-1v1a3 3 0 0 0-1 0 3 3 0 0 1-1 1v2h-2a2 2 0 0 1 1 1v-1 1l1 1h1l-1-1a1 1 0 0 0 1-1h1a3 3 0 0 0 0 1h1v1h1v1l1 1h1l1 1v2a2 2 0 0 0 1 1v1l1 1c0 1 0 0 0 0v3h1v1a4 4 0 0 0 0 1v3h1v1h1v1l1-1 1 1h1v1h1a3 3 0 0 0-1 0v2h2-1l-1 1h3v1-1l1 1 1-1h4a1 1 0 0 0 0 1l1-1h2a1 1 0 0 1 1-1 6 6 0 0 1 1 0h1v1l1-1a9 9 0 0 0 1-1v-1l1-1a5 5 0 0 0 0-1h1a1 1 0 0 1 0-1v2a1 1 0 0 1-1 0v2l1-1 1-1a1 1 0 0 0 0-1h1v-1-1h-1v1h-1v-1h1v-2-2l1-1h-1v1h-1l1-1h-1l1-1v-1l1-1v-1-1-1h1l-1-1h1l-1-1h1l1-1v3h1v1h1v2h-1v4a1 1 0 0 0-1 0l1 1v4h1a1 1 0 0 1-1 0v1h2a2 2 0 0 1 1 0v-1a9 9 0 0 1 1 0v1a3 3 0 0 0-1 1 1 1 0 0 1-1 0v1-1 1a2 2 0 0 0 0 1v2h3l-1 1s0 1 0 0h1a3 3 0 0 1 0-1l1 1a2 2 0 0 1 0 1l1-1h1l-1 1h-1v1h1v2h-1 1l1-1v1a1 1 0 0 0 1 0v2a1 1 0 0 1-1 0 1 1 0 0 0-1 1v2c0 1 0 0 0 0v2h-1v1h-1v1h-1v1l-1 1-1 1-1 1-1 1h-1l-1 1h-1v1-1l-1 1h-1l-1-1h-1v1h-2-1v-1l-1 1h-3v1l-1-1v1h-1l1-1h-1-1v-1 1h-1-1-1v-1 1-1l-1 1v-1l-1 1h-2l-2 1h-4v1h-1v1h-1-1a2 2 0 0 1 0 1 5 5 0 0 1-1 1 4 4 0 0 1-1 0v1a3 3 0 0 1-1 0 1 1 0 0 1 0 1 2 2 0 0 1-1 0h-1v1h-1a1 1 0 0 0-1 0h-2a1 1 0 0 1 0-1l-1-1a4 4 0 0 0-1 0 3 3 0 0 1 0-1v-1h-1v-2l-1-1h-1v-2-1-1l-1-1 1-2v-1c0-1 0 0 0 0v-1-1l1-2v-2h1v-1-1-3-1-2l1-1v-1-1h1v-1-1-1-1l1-1h-1v-1h1l-1-1h1v-1h-1 1v-2-1-5-1h-1l1-1h-1-1v3h-1v-1l-1 1c1 0 0 0 0 0l-1 1v1a1 1 0 0 0-1 0 1 1 0 0 1-1 1v1h-1v1a2 2 0 0 0-1 0h-1l1 1a2 2 0 0 0-1 1h-1l1 1h-2v1h-1-1l1 1s-1 0 0 0v1h-1a1 1 0 0 1 0-1h-1l-1 1v1h-1 1l1-1v1l1 1c-1 0 0 0 0 0h-2v1h-1l-1 1-1 1-1 1h1v1h-2-1 1v1l-1 1h-1v-1l-1 1h-1v2-1 1h-3v1h0-1a2 2 0 0 1-1 0h-1c-1 0 0 0 0 0l1 1h-1a1 1 0 0 0 1 1h-1-1v1a1 1 0 0 0 0-1 1 1 0 0 0 0 1h-1v1c0 1-1 0 0 0h-1v1h-1 1l-1 1h1v1h-1c-1 0 0 0 0 0h-1l-1 1h-1c0 1 0 0 0 0l-1 1s1 0 0 0l-1 1a3 3 0 0 0 0-1h-2v1h-1 1-1v2l-1 1a4 4 0 0 1-1 0l-1 1h1l-1 1v-1h-1v1h1a8 8 0 0 0-1 1h-1v1h-1-1v1h-1v1h-1v-1l-1 1v1h1-1v1h-1l-1 1h-1v1h-1a4 4 0 0 1-1 0v1 1h-1a2 2 0 0 1 0 1h-2l1 1c0 1 0 0 0 0a1 1 0 0 0-1 0h-1v1h-2v2l1-1h1v1h-1a2 2 0 0 0 0 1h-1-1v1h-1l1 1h-1a3 3 0 0 0-1 0 2 2 0 0 0 0 1h-1l-1 1v1a2 2 0 0 0-1 0l-1 1h-1v1h-1 1l-1 1a2 2 0 0 0-1 0v0l-1 1h1l-1 1h-2v1h-2s0-1 0 0l-1-1v1h1-1v1h-1v-1c0-1 0 0 0 0h-1v-1a1 1 0 0 0-1 0l-1 1h1v2h-1v1h-2v0l-1-1v-2l1-1-1-1h2v-1-1a4 4 0 0 1 1 0 6 6 0 0 1 0-1h1v-1a3 3 0 0 1 1 0 3 3 0 0 0 1-1v-1l1 1h1a4 4 0 0 0 0-1h1l-1-1 1-1h1-1l1-1h-1 2zm39-25h1v-1 1a1 1 0 0 0 1 0v-1-1a3 3 0 0 0 0-1h-1v2h-1v1h-1 1zm-15 3s0-1 0 0h-1 1l-1 1h-1v1h2a6 6 0 0 0 1-1v-1h1v-1h1l-1-1v1h-2 1zm93-27v3h-1l1 1v-1a1 1 0 0 0 0 1v-2h1v-1h-1l1-1v-1l-1-1h1v-1l-1 1v1zm-109 45v-1h-1v1a3 3 0 0 1 0 1h-1a1 1 0 0 0 1 0l1-1zm30-86v-1l1-1a1 1 0 0 0-1 0v1h-1v1zm-10 63h1c1 0 0 0 0 0v-1zm-15 19l1-1h-1v1zm29-24h-1l-1 1h1v-1h1zm-13 16v1h1l-1-1zm-17 7l-1-1v1h1zm115-72v-1a2 2 0 0 0 0 1zm-70 42h-1 1zm-46 37h-1 1zm75-77h1v-1 1zm30 35v1h1v-1zm-37-17h1v-1l-1 1zm15 46h-1s1 0 0 0zm21-32a1 1 0 0 0 0-1 1 1 0 0 0 1 1zm-90 26h1zm-22 21v0zm1-1v1a2 2 0 0 1 0-1zm6-2h1zm45-50zm32-41zm-67 83zm107-19zm-93-61h-1a1 1 0 0 0 1 0zm84 40zm0 1v-1 1z"/><path d="M201 222v1h-1v1h-1l1-1v-1zM289 192v1l-1 1h-1l1-1-1-1h2z"/><path d="M288 192h1v-1 1h1a1 1 0 0 1-1 1zM209 217l-1 1 1-1zM269 206h1l-1 1a1 1 0 0 1 0 1v-1-1zM211 214l1-1v1h-1zM223 207h-1a2 2 0 0 0 1-1v1zM212 196a1 1 0 0 1-1 0h1c1 0 0 0 0 0zM237 190v1a1 1 0 0 0 0-1zM277 198v1h-1l1-1zM212 168v-1l1 1h-1zM212 196v-1h1a1 1 0 0 1-1 0v1zM233 194h1v1h-1l1-1zM235 194a1 1 0 0 1-1 0h1zM211 197zM196 167h-1a1 1 0 0 1 0-1h1a1 1 0 0 1 0 1zM264 203h-1v1-1h1zM207 201v1-1zM214 191l-1-1h1zM263 208zM223 205h1-1zM273 207v1l-1-1zM270 206zM245 153zM270 205h-1zM287 204zM200 149v-1 1zM232 197h-1a1 1 0 0 1 1 0zM249 148h-1v-1h1v1zM214 193v0zM257 162c-1 0-1 0 0 0zM196 167h-1 1zM189 233v-1 1zM215 193h-1v-1zM227 202h-1 1zM260 204zM271 207v0zM194 210h0zM208 202v-1 1zM196 226v0zM207 200c1 0 1 0 0 0zM214 193h1zM209 218h0zM209 216h1v1l-1-1zM213 214a1 1 0 0 1-1 0h1zM292 212h-1 1zM194 157h-1a3 3 0 0 1 1 0zM199 208h0zM241 159zM213 155zM244 154zM246 152a1 1 0 0 1-1 0 3 3 0 0 1 1 0zM216 149v-1 1zM240 188zM214 145v0zM235 193zM213 195zM228 200zM229 200zM264 204v-1zM176 232h-1 1zM223 205a1 1 0 0 1 0 1v-1zM270 205h0zM267 206zM275 299h-1a3 3 0 0 0-1 0h-1a2 2 0 0 1 0 1h-1-1l1 1v1c0 1 0 0 0 0a2 2 0 0 1-1 1 3 3 0 0 0 0-1l-1 1v1h-1l1 1v1l1 1h-1a1 1 0 0 1-1 0l1 1v-1 5c-1 0-1 0 0 0 0 1 0 0 0 0v1l1 1h-1v1a8 8 0 0 0 0 1l-1 1v1h1v1h1v1h-1 1l-1 1a1 1 0 0 1 1 0v1l-1 1v1h1v8a1 1 0 0 0 1 0v7h1v3a4 4 0 0 0 1 1v6h1-1l1 1v3h1v1l-1 1a1 1 0 0 0 0 1 1 1 0 0 1 0 1h-1v3h-1v3h-1l-1 1-1-1v2h-2l-1 1v-1 1h-2v1h-2-1l-1-1v1-1h-1v-1l-1 1h-2a3 3 0 0 0 0-1v-1l1-1h-2 1v-1h-1 1v-1h-1v-1h-1a1 1 0 0 0 0 1v-1-1-1c0-1 0 1 0 0v-1l-1-1v-1c0-1 0 0 0 0l-1-1h1v-1h-2l-1-1h-2a1 1 0 0 0-1 0v-1h-2-3v-1h-1-1-1v-1h-2 1l-1-1h-2 9c1 0 0 0 0 0a1 1 0 0 1 0-1h-1l-1-1h-1-4v-1h-2-1s0 1 0 0h7v-1c0-1 0 0 0 0h-1 7v-1h-3l1-1 1 1h2a2 2 0 0 0 1 0h3l-1-1h-1 2v-1l-1 1a3 3 0 0 1-1-1v-1 1h-1l-1-1h-3 1-1v-1h-1l-1 1h-1v-1a1 1 0 0 0-1 0h-2a3 3 0 0 1-1 0h9a8 8 0 0 1 1 0v1h2v-1h-1 1v-1h-2l-1-1c-1 0 0 0 0 0h-2v1h-1v-1h-1a1 1 0 0 1-1 0h-2-4v-1h8a2 2 0 0 1 1 0h4l1 1h5v-2-2-1-1-3-1h-1l1-1v-1-1l-1-1 1-1-1-1v-1-1l1-1h-1v-1-1h1a1 1 0 0 0-1-1v-1l1-1v-1-1l-1-1h1l-1-1a1 1 0 0 1 1-1h-1c-1 0 0 0 0 0v-1a1 1 0 0 0 0-1h1-2a5 5 0 0 0-1 1h-1l-1 1h-1-1v1h-1l-1 1h-1a5 5 0 0 1-1 1h-1a6 6 0 0 1-1 1l-1 1h-1l-1 1a2 2 0 0 1-1 0 2 2 0 0 1-2 1l-1 1v1h-1v1l-1-1a3 3 0 0 0-1 0v-2l-1 1v1h1-1v-1c0-1 0 0 0 0l-1-1h3v-1h1l-1-1h-1l-1-1v1h-1v-1c0-1 0 0 0 0l1-1h2a3 3 0 0 0 1-1h2l1-1a2 2 0 0 1 1 0 1 1 0 0 1 1-1h1l2-1 1-1c1 0 0 0 0 0a4 4 0 0 0 1-1h1a1 1 0 0 1 0-1h1c1 0 0 0 0 0l1-1h2l1-1h2v-1h2v-1a1 1 0 0 0 1 0h1v-1-4h-1 1v-1h1v-1c0-1 0 0 0 0h-1-1v-2-1-1-1a3 3 0 0 0 0-1h-2l-1 1h-1l-1 1-1 1-1 1-1 1v1l-1-1v1a2 2 0 0 0 0 1h-1v1h-1v1h-2v1h-1-1a1 1 0 0 0-1-1h-1v-1h-4l1-1h-2v-1h1v-1h1v-1h1s0 1 0 0h-5l-1-1-1 1v5h1a2 2 0 0 0 0 1h-1v6h-1 1a3 3 0 0 1 0 1v4h-1v5h-1 1v1h-1v6a3 3 0 0 0 1 0v3l-1 1v1a2 2 0 0 1-1 0v3a2 2 0 0 0 1 0l-1 1-1 1v1h-1l-1 1-1 1-1 1v1h-1l-1 1h-1l-1 1h1v1-1l-1 1-1 1h-1v1h-1l-1 1a1 1 0 0 1 0 1 2 2 0 0 0-1 0v1l-1 1v1h-1v1a3 3 0 0 1-1 1h-1v2l-1 1-1 1v1l-1 1-1 1v1h-2l-1 1a1 1 0 0 0 0 1v1l-1 1h-1a1 1 0 0 0 1 0l-1 1-1 1v1h-1v1a1 1 0 0 0-1 0l-1 1v-1l-1 1 1-1c1-1 0 0 0 0v-1l1-1 1-1 1-1a6 6 0 0 0 1-1 4 4 0 0 1 0-1l1-1 1-1 1-1c1 0 0 0 0 0v-1l1-1v-1h1v-1l1-1v-1h1a4 4 0 0 1 0-1h1v-1a2 2 0 0 1 1-1v-1h1v-1-1l1-1 1-1 1-1a3 3 0 0 0 0-1l1-1v-1l1-1 1-1v-1l1-1v-1-1h1v-2-1h1v-1-1-1-1-2l1-1v-1-2-2-1-1-1-1h1v-1-1-2-2-2-2h1v-1-1a1 1 0 0 1 0-1v-2-2-1-1-1h1l-1-1c1 0 0 0 0 0v-1-2-1h1-1l1-1v-1-2h-1l1-1a1 1 0 0 0 0-1v-1c0-1 0 0 0 0v-1-3-1-1a2 2 0 0 0 0-2v-1 1h-3a2 2 0 0 0 0 1h-1v1a1 1 0 0 0-1 1v2l-1-1v1h1l-1 1h1l-1 1a2 2 0 0 1 0 1v7a4 4 0 0 0 1 0v1l-1 1v2h-1v2l-1 1h0v1a2 2 0 0 0 0 1v1a2 2 0 0 1 0 1v2h-1 1l-1 1v5h-1 1v1a2 2 0 0 1 0 1h1v2l-1 1h1-1l1 1a2 2 0 0 1-1 0l1 1-1 1 1 1 1 1v1h-1v2a1 1 0 0 1 0 1h-1l1 1v1h-3l-1-1v1h-2v-1h-1l-1-1h-1v1h-3l-1 1-3 1h-1v1a5 5 0 0 1-1 0l-1 1h-1l-1 1a1 1 0 0 1-1 0v1h-2l-1 1h-1v1a4 4 0 0 0-1 0h-1v1h-1v-1l-1 1h-1c0 1 0 0 0 0h-1v1l-1-1-1 1h-1v1h-1v-1l-1-1v1a3 3 0 0 0-1-1h-1l-1-1-1-1c-1-1 0 0 0 0l-1-1v-1-1h-1l1-1v-1c0-1 0 0 0 0l1-1a2 2 0 0 0 1 0l2-1h1a3 3 0 0 1 1-1h1v-1h2a1 1 0 0 1 0-1 1 1 0 0 1 1 0h1l1-1a3 3 0 0 1 1-1v-1-5h-1v-1a2 2 0 0 0-1 0v1l-1-1v-2-1-1h-1v-1l1-1 1 1h1l1-1a2 2 0 0 1-1 0l1-1v-2-1h1l-1-2h1v-1-2-2-1a2 2 0 0 1 0-1l-1-1v-1h-2v-2a1 1 0 0 1 0-1v-1c0-1 0 0 0 0l1-1 1-1v-3-1-1l-1-1v-1a2 2 0 0 0 0-1v-1h-1v-1-2h2v1h2l1 1c1 0 0 0 0 0h1l1 1a8 8 0 0 1 1 0 1 1 0 0 1 1 0 5 5 0 0 1 0 1v1h1-1 1v1h-1v1l1 1 1-1 1-1a2 2 0 0 0 1 0v-1h1l1-1 1-1h1a4 4 0 0 0 1-1l1-2h1l1-1 1-1h1l1-2 1-1 2-1a8 8 0 0 0 1 0 3 3 0 0 0 0-1l1-1h1v1h1l1-1h3v1c0 1 0 0 0 0l1 1h1s0-1 0 0h2l-1-4v-3h-1a7 7 0 0 1-1-1v-2h1v-1a2 2 0 0 0 0-1v-1h1l1-1a1 1 0 0 0 0-1h2v1l1-1h1a2 2 0 0 0 1-1h2v2h2v2c0 1 0 0 0 0l1 1a1 1 0 0 0 1 1 2 2 0 0 1 1 0 1 1 0 0 1 0 1 3 3 0 0 1-1 0v2h-1a2 2 0 0 0 0 1 2 2 0 0 1-1 0v7a1 1 0 0 0 1-1h1l1-1 1-1 2-1a7 7 0 0 1 1 0 6 6 0 0 0 1-1 1 1 0 0 1 1 0l1-1 1-1h2l1-1h1v-1h1a2 2 0 0 0 0-1h1a2 2 0 0 0 1-1 2 2 0 0 1 1 0h1v-1h1l1-1h1l1-1 1-1a2 2 0 0 0 1 0v-1h3v-1l1-1v-1h0l1-1v1h1a3 3 0 0 1 1-1 3 3 0 0 0 0-1h2v1l1-1h3a2 2 0 0 0 1-1h1v1l1 1a2 2 0 0 0 0-1h2v2h1v12h-1v1a3 3 0 0 1 1 1h-1v4l-1 1h1a1 1 0 0 0-1 0v1a2 2 0 0 1 0 1l-1 1h1l-1 1v2l-1 1h1-1a5 5 0 0 0 0 1v14h-1l1 1-1 1v1h1-1v6h1a2 2 0 0 0 0-1v2h-1v1h-1v2h1-1v1h1l1-1h2zm-33 11h-1 1c1 0 0 0 0 0l-1 1-1 1a1 1 0 0 0 1 0l1-1h1l1-1a2 2 0 0 0 1 0 3 3 0 0 0 1-1h1v-1h1a5 5 0 0 1 1-1 6 6 0 0 0 1 0l2-1 1-1h2l1-1h-1v1l-1-1a2 2 0 0 1 1 0h1l1-1h-1v1l-1-1a2 2 0 0 1 1 0h1l-1-1h-2v1h-3l-1 1h-2a2 2 0 0 1 0 1h-2l-1 1a3 3 0 0 1-1 1 4 4 0 0 1-1 0 4 4 0 0 1 0-1l-1 1h1-1v1h-1l-2 2h-2a3 3 0 0 1-1 0v2h0v1h-1l-1 1a1 1 0 0 0 1 0v-1h2l1-1 1-1h1l1-1a11 11 0 0 0-1 1h-3 1c1 0 0 0 0 0a1 1 0 0 1 1-1 2 2 0 0 0 1 0h1zm-12-20v-1a2 2 0 0 0 1 0h1v-1h1l1-1 2-1 1 1h3v-1h3l1-1h2v-1a9 9 0 0 0 1 0l1-1h1a1 1 0 0 1 1 0v-1h2a8 8 0 0 0 1-1 4 4 0 0 1 1 0h1v-1h1v-1h-1v-1-2-1l1-1-1-1h1l-1-1v-1-1h1v2h1v-1-1l-1 1v-1-1h-1v-1l1-1v-2-1-1h-1-2v1h-2v1h-1c-1 0 0 0 0 0l-1 1a4 4 0 0 1-1 0h-1v1h-1l-1 1h-1v1a1 1 0 0 1-1 0h1c1 0 0 0 0 0a1 1 0 0 0-1 0l-1 1h-1s1 0 0 0v1l-1-1v1l-1 1v-1a1 1 0 0 0-1 0v1l-1 1h-1v1h-2l-1 1h-1l-1 1h-1v2-1l-1 1v5l1 1h-1v1a1 1 0 0 0 0 1h0l1 1-1 1v1zm-36-1l-1 1v2h1l-1 1 1 1a6 6 0 0 0 0-1 1 1 0 0 0 1 0l1-1h1l1-1v-1h1a2 2 0 0 1 1 0 1 1 0 0 0 0-1h1v-1l1-1h1v-1h1l1-1a2 2 0 0 1 1 0v-1-1-2h1v-3-1h-1-1l-1 1a2 2 0 0 1-1 1h-1v1h-1v1h-1a4 4 0 0 1-1 1h-1v1h-1a1 1 0 0 1-1 1 4 4 0 0 0-1 0l-1 1a1 1 0 0 0-1 1h1v1h-1l1 1h-1zm2 15v1a1 1 0 0 0-1 0v1h-1a5 5 0 0 1 0 1v2h2a4 4 0 0 1 0-1h2v-1h2l1-1 1-1h2v-1h1v-2-3-2h-1a5 5 0 0 1-1 1l-1 1a1 1 0 0 1-1 0 3 3 0 0 0 0 1h-1v1l-1 1h-1l-1 1v1zm63 9v1l1 1v-3l-1-1h-1a6 6 0 0 0 1 1v1zm1-4a1 1 0 0 0-1 0v1h1zm-13 40h1l-1-1v1zm6-66v1l1-1zm3 31v-1h1v-1l-1 1v1zm-13 30v1l1-1a1 1 0 0 1-1 0zm7-5h1zm6-29v1h1l-1-1zm-9-23v-1 1zm11 76h-1a1 1 0 0 0 1 0zm-1-96a1 1 0 0 0 0-1l-1 1zm2 38v1h1l-1-1zm-5 37v-1zm8 25v-1zm0-1zm5-1h0zm-7-48a3 3 0 0 0-1 0zm-4-3h1-1zm0-10h1zm8 3h0zm2-13h-1zm-15-31zm19 91zM277 298l1-1h3a2 2 0 0 1 0-1h1l-1 1h-3v1z"/><path d="M275 298h1a1 1 0 0 1 1 0 1 1 0 0 1-1 0zM283 296a3 3 0 0 1 1-1h1a1 1 0 0 0-1 0v1zM242 343v-1 1h-1 1zM181 301h0zM237 344h2-2zM233 293l-1 1v-1h1zM274 345l-1-1h1v1zM193 365h1zM275 299v-1 1zM267 366c0 1 0 1 0 0zM235 349h0zM234 348h0zM249 342zM280 292h0zM275 297zM276 297h0zM279 296zM283 296zM281 295c0 1 0 1 0 0zM281 295h0zM285 295zM285 295l1-1-1 1zM271 311l-1 1v-1zM254 312zM278 293zM279 292h-1 1zM280 292h-1 1zM280 292zM236 337zM237 344v-1 1zM237 349zM251 305h1v1h-1-1a3 3 0 0 0-1 1h-1v1h-3a6 6 0 0 0 1 0 4 4 0 0 0 0-1h1a2 2 0 0 1 1-1l1-1h2c0 1 0 1 0 0zm-1 1h-1 2-1zM242 310v-1h2a1 1 0 0 1-1 1h-1zM244 309h-1 1a1 1 0 0 1 1 0h-1zM251 305h1v-1 1zM254 304a1 1 0 0 0-1 0zM242 310zM253 305h0zM237 312zM271 41l-1 1-1 1v2h-1 1l-1 1a1 1 0 0 1 0 1v2h-1l1 1v1l-1 1v1h1l-1 1v4l-1 1h1l-1 1h1v1a4 4 0 0 1-1 1v1h1c1 1 0 0 0 0h-1v1h1v0a2 2 0 0 1 1 0l-1 1v3l-1 1h1a3 3 0 0 1 1-1v0-1l1-1v2a2 2 0 0 0 0 1v1h1v1h-1v1h1v1h4a2 2 0 0 0 1-1h2l1-1v-1h1v-1h1l2-1 1-1c1 0 0 0 0 0a1 1 0 0 0 1 0v-1h1l1-1h1l1-1c1 0 0 0 0 0a2 2 0 0 1 1-1 1 1 0 0 0 1 0v-1h1l1-1h2l1-1h1l1-1v-1c0-1 0 0 0 0l1-1h2a3 3 0 0 0 1-1h4l1-2h2l-1 1h-1a2 2 0 0 0-1 1l-2 1h-1l-1 1-1 1h-2v1h-1c0 1 0 0 0 0h-1v2h-1v1a5 5 0 0 1-1 0v1h-2l1 1h-2l-1 1c-1 0 0 0 0 0h-1v2h-1v1h-1l-1 1-1 1v2a1 1 0 0 1-1 0 1 1 0 0 0 0 1h-1a1 1 0 0 0-1 1v1h-1a2 2 0 0 0-1 1v1h-1l-1 1h1v1a4 4 0 0 1-1 1l-1 1a2 2 0 0 0-1 1v1l-1-1v1h-1v1l-1 1v2h1v-1h1v-1-1h1v3l-1 1 1 1v1h-1a2 2 0 0 1-1 1v1h-1v1l1 1h-1 1v1h-1v1h1a1 1 0 0 1 0 1v1h1-1a2 2 0 0 1 0 1l-1 1v1h1l-1 1v3h-1v1l-1 1h-1a4 4 0 0 0-1 2 1 1 0 0 1-1 0 5 5 0 0 0-1 1h-1l-1 1h-1l-1-1h-2-1a2 2 0 0 1 0-1 4 4 0 0 0-1-1 4 4 0 0 1-1-1h-1v-1a1 1 0 0 1-1 0 5 5 0 0 0 0-1l-1-1v-1h-1v-1l-1-1v-2a2 2 0 0 1-1 0v-1l-1-1v-1h-1v-1-2h-1v-1-1-1l-1-1-1-1v-2l-1-1h1v-6l1-1h-1l1-1v-2-1-1c0-1 0 0 0 0a3 3 0 0 0 0-1v-2a1 1 0 0 0 1-1h-1 1v-1-1c-1 0 0 0 0 0v-5-8-2-4a3 3 0 0 0 0-1v-1h1v-8-7-1-4-1l-1-1v-1c0-1 0 0 0 0a2 2 0 0 0-1-1h-1v1h-1-1v1c0 1 0 0 0 0h-1l-1 1v-1l-1 1h-1v1h-1v1c0 1 0 0 0 0h-2v1h-1v1h-1v1h-1v1l-1-1v1-1l-1 1v2l1-1h1-1v-1h1v1h1v-1h6v1h1l1 1h1v1h1l-1 1h1l-1 1v2a3 3 0 0 0 0 1 2 2 0 0 1-1 0 2 2 0 0 0 0 1h1l-1 1v1a4 4 0 0 1-1 0h-1v2l-1-1h-1v1h-1v1h-1a1 1 0 0 0 0 1h-1 1v1a1 1 0 0 0-1 1h-1l1 1h-1v1l-1 1h-1l-1 1h1v1h-1v-1l-1 1h-1-1a1 1 0 0 0 0 1h2a4 4 0 0 0 1 1v-1h2v-1h1v0a2 2 0 0 1 1 0h1l1-1h4l1 1h2l1 1v4h-1v3a3 3 0 0 0-1 1v1l-1 1h-1v2a1 1 0 0 1-1 0l-1 1h1v1l-1 1v1l-1-1v1h-1l-1 1-1 1v1h1l-1 1v1l-1 1h1l-1 1h-1v1h-1v1l-1 1-1 1v1h-1l1 1h-1v2a2 2 0 0 0-1 0 5 5 0 0 0-1 1v1h-1-1v1h-1v1l-1 1v-1l-1 1a1 1 0 0 0-1 0 2 2 0 0 1-1-1v-1h-2a4 4 0 0 0 0-1v-2h-1v-4h1v-1-2-3h1v-1-1h-1l-1 1h-1v1l-1 1-1 1-1 1v1l-1 1c0 1 0 0 0 0a2 2 0 0 1-1 1v1l-1 1v1a7 7 0 0 0-1 0v2c-1 0 0 0 0 0l-1 1v1l-1 1v1l1 1a8 8 0 0 0 1 1v-1h3l1-1h7a2 2 0 0 1 1 0l1 1h2v1l1 1h-1 1a2 2 0 0 1 0 1v1h-1v1h1c0 1 0 0 0 0v1h-1v1h1l-1 1v1a8 8 0 0 0 3-2h1a4 4 0 0 1 1-1v-3l1-1 1-1 1-1a1 1 0 0 0 0-1h1l1 1v-1h2v1h1a1 1 0 0 0 0-1l1 1v-1h2l1 1v-1h3l1 1v2h1-1v3h-1v3h1l-1 2h-1l1 1h-1l1 1h-1a2 2 0 0 1-1 1v1l-1 1h1-1v1h1v3l1 1 1 1h-1l-1 1v1h-2l-1 1v1h-1-1-1l-1 1v-1l1-1a3 3 0 0 0 1-1 7 7 0 0 1 1-1v-5a2 2 0 0 0 0-1l-1-1v-1l-1-1h-1a5 5 0 0 1 0-2l-1-1-1 1v1a2 2 0 0 0-1 0h-1a4 4 0 0 1-1 1v1h-1v-1l-1 1v1l-1 1-1 1h-2a1 1 0 0 0-1 1h-1v1l-1 1v3l-1 1h1-2l-1 1h-1l-1-1v1h-1v-1-1h1-1s-1 0 0 0h-2v-1h-1v-3h1l-1-1 1-2v-1-1a1 1 0 0 1 1-1v-1h1-1v-2h1l-1-1h1v-5h-3v1h-3v1h-1c-1 0 0 0 0 0h-3v1h-1c1 0 0 0 0 0v3h-1v1l-1 1v1l-1 1a1 1 0 0 1-1 0v-1h-1v0c0-1 0 0 0 0l-1 1h-2v1l-1 1v-1a2 2 0 0 1-1 1h-1v1h-1c-1 0 0 0 0 0v1h-2v1l-1 1-1-1v2h-1l-1 1h-2v2-1l-1 1h0c-1 0 0 0 0 0l-1 1v-1 1a1 1 0 0 0-1 0 2 2 0 0 1 0 1l-1-1v1-1h-1l-1 1h2-2v1l-1 1v-1l-1 1v1a1 1 0 0 0-1 0l-1 1h-1v1h-1l-1 1h-1v1a4 4 0 0 1-1 1l-2 2a2 2 0 0 1-1 0 4 4 0 0 1 1-1v-1a2 2 0 0 0 0-1h1l1-2v-1a2 2 0 0 1 1-1l1-1v-1a2 2 0 0 0 1 0v-1l1-1a3 3 0 0 0 1-1v-1h1v-1c0-1 0 0 0 0a5 5 0 0 0 1 0 6 6 0 0 0 0-1l2-1v-1h1a1 1 0 0 0 0-1l1-1 1-1v-1h1v-1h1v-1a1 1 0 0 0 1-1l1-1v-1h1v-1a3 3 0 0 1 1-1l1-1a2 2 0 0 1 1-1 3 3 0 0 0 0-1l1-1v-1a1 1 0 0 0 1-1l1-1h-1 1v-1l1-1a1 1 0 0 1 0-1h1v-1-1c0-1 0 0 0 0l1-1v-1a7 7 0 0 0 0-1 3 3 0 0 1 1 0v-4h1l-1-1h1v-1h-1l1-1v-1h-1 1v-5h-1 1v-2h-1v-5-1 1h1l-1-1v-3-1c0-1 0 0 0 0v-2h-1v-2-5h-1l1-1h-1v-1l1-1h-1v-2-2h-1v-1-5h-1a5 5 0 0 0-1 0 4 4 0 0 1-1 1v-2a1 1 0 0 0-1 0v-2h1a1 1 0 0 1 0-1h1s0 1 0 0h1v-1a1 1 0 0 1 1 0v-1h-1v-1l-1-1v-3a2 2 0 0 0 1 0h1l1 1 1 1h1v1a2 2 0 0 0 0 1 5 5 0 0 0 1 0h1v1h1v-1l1 1h1l1 1h3a1 1 0 0 0 0-1h1l1-1h2v-1 1l1-1 1-1c1 0 0 0 0 0h1l-1-1h1v-1 1h1a19 19 0 0 0 2-1h-1l1-1a4 4 0 0 1 0 1h1v-1h2v-1h1l1-1h1v-1l1-1h1l2-1h1v-1h1a1 1 0 0 0 1-1h-1l1-1a3 3 0 0 0 1 0v-1h2a6 6 0 0 0 1-1 3 3 0 0 1 1-1h2v-1l1-1h1l1-1v-1h1v-1h1v1l2-1h1V9h1a1 1 0 0 0 0-1 1 1 0 0 0 1 0v1h1l1-1h-1l1-1 1-1h1V5h2V4h-2 1a1 1 0 0 0 0-1l-1-1V1h7V0h5v1h5v1h2l2 1h2v1a2 2 0 0 1 0-1l1 1h3a1 1 0 0 0 1 1h1v1h1a1 1 0 0 1 1 1h1v1a2 2 0 0 1 1 1 3 3 0 0 0 1 0v2a2 2 0 0 0 0 1v2l-1 1a1 1 0 0 1-1 0v2a1 1 0 0 0 0 1h-1v1l-1 1v1h-1v1l-1 1v2h-1c-1 0 0 0 0 0a3 3 0 0 1-1 1v2h-1a4 4 0 0 1 0 1h1l-1 1v2h-1l1 1h-1v-1h-1-1-1v1l1 1-1 1v5h-1v-1l-1 1h1l-1 1h-1v1h1a3 3 0 0 0 0-1h1zm-51 74h1v-1 0l-1 1c0 1 0 0 0 0zm-6-43h1v-2a2 2 0 0 1 1-1h-1v1l-1 1a1 1 0 0 1-1 0l-1 1v-1h-1-1c0 1 0 0 0 0v2h1v1h-1l1 1v1a2 2 0 0 1-1 0h1v1a6 6 0 0 1 0-1l1-2h2l-1-1 1-1zm5-28a1 1 0 0 0-1 1 3 3 0 0 1-1 1h-1v-1 2l-1-1v1h-1 1l-1 1h-1a3 3 0 0 0 0 1 2 2 0 0 0 0 1h-1v1h-1v1-1h-2v1l-1 1h1l-1 1h1v7l1 1v1l1 1v-1h1a1 1 0 0 1 0-1l1-1h2l1-1 1-1 1-1a4 4 0 0 0 1 0 2 2 0 0 1 0-1 3 3 0 0 1 1-1 3 3 0 0 0 1 0v-1l1-2h2v-1a5 5 0 0 1 0-1l1-1 1-1 1-1v-1a3 3 0 0 0 1 0l1-1v-1h1v-1h-1 1l-1-1a1 1 0 0 0 1 0v-1h1a4 4 0 0 1 0-1 2 2 0 0 0 0-1v-1l-1-1v-1h-1l-1 1v1a1 1 0 0 1-1 0h-1v1h-1v-1l-1 1v1h-2v1l-1 1a3 3 0 0 0-1 0 3 3 0 0 1-1 1zm11 31a5 5 0 0 1 1 0v-1h1v-1l1-1 1-1v-1h1a2 2 0 0 1 1-1v-1h1a2 2 0 0 0 0-1 8 8 0 0 1 0-1 7 7 0 0 1 1 0v-1h1v-1-1h-3l-1 1h-2v1h-1a1 1 0 0 1-1 0l1 1h-1v1a1 1 0 0 0 0 1l-1 1v2a2 2 0 0 1 0 1v3zm2-41v1h1v1l1-1h-1zm1-15h1a2 2 0 0 1 0-1l-1 1h-1l-1 1h1v-1zm40 12v-1h-1v1zm0 60v1a2 2 0 0 0 1 0v-1h-1zm4-65v-1h-1v1zm-51-4h1-1s-1 0 0 0zm38 39c-1 0 0 0 0 0h-1l1 1v-1zm-89 59l-1 1h1l1-1h-1zm42-52v-1 1zm12 39v-1 1zm35-53v-1h-1zm11 36zm-60-16v1a1 1 0 0 0 0-1zm-1 39h1-1zm15-77zm15 68zm12-44v0z"/><path d="M249 6V5l1-1V3l1 1v1l-1 1zM240 45h1v1h-1v-1zM272 41l-1-1h1v1zM271 41l1 1h-1v-1zM269 61v-1h1l-1 1h1-1zM270 44v1a1 1 0 0 1 0-1zM273 39v-1 1zM248 8a1 1 0 0 1-1 0h1zM275 34l-1 1a1 1 0 0 1 0-1zM275 34v0zM267 67l1-1v1zM237 50v1a1 1 0 0 1-1 0zM216 27a2 2 0 0 1-1 0h1zM308 54v-1l1 1zM274 37v-1 1h1zM302 56l1-1-1 1zM274 34a1 1 0 0 1 0-1v1zM269 56h0zM273 39v0zM240 46v1-1zM198 110zM273 72h0zM238 48v-1 1zM243 66h0zM269 65c-1 0 0 0 0 0zM270 48c0 1 0 1 0 0zM268 63v-1 1zM269 61zM249 6c0-1 0 0 0 0zM268 55zM269 56v-1zM304 55h-1 1zM269 55h0zM173 54a2 2 0 0 1 1 0h-1zM240 29h-1 1zM270 54zM228 46zM214 72zM220 115h1a1 1 0 0 1-1 0zM236 452v1h-1a2 2 0 0 1 0 1v1-1h-1l1 1a4 4 0 0 1 0 1h-1v1l-1 1h1l-1 1v2h-1a1 1 0 0 1-1 0v1h-1v3l-1 1v1l-1-1v2l-1 1a2 2 0 0 0 1 0l-1 1h-1v2h-1l-1 1v1h-1l1 1v1h-1v1h-1a3 3 0 0 0 0 1 4 4 0 0 1 0 1l-1 1v1l-1 1v3h-1a2 2 0 0 0 0 1l-1 1v2l1-1v1a3 3 0 0 1-1 1h-1v3l-1 1v1l-1 1v2h-1c-1 0 0 0 0 0v1h-1l-1 1a1 1 0 0 1 0 1h-1v2h-1v1h-1v1h-1v-1a1 1 0 0 0-1 1h1a6 6 0 0 1-1 1h-1c0-1 0-1 0 0h-2a1 1 0 0 1 0-1h2v-1h-3v1h-1v-1-1a7 7 0 0 0 0-1 1 1 0 0 1 1-1h-1 1v-1-1l1-1 1-1v-1h1a1 1 0 0 1 0-1l1-1v-1h1v-1h1v-1a2 2 0 0 0 0-1h1l1-1v-1l1 1v-1a4 4 0 0 0-1-1l1-1v-1h1a5 5 0 0 0 0-1h1v-1h-1l1-1v-1l1-1v1h1v-2l-1 1v-2h1v-2h1v-1a1 1 0 0 0 0-1h1v-1l1-1v-2-1c0-1 0 0 0 0l-1 1h-1a5 5 0 0 0-1 0v1h-1a1 1 0 0 0 0-1h-1-1v-1c0-1 0 0 0 0h-2v-1h-1v-1h-1v-2h-1v-1a3 3 0 0 0 0-1h-1v-1l-1-1v-1-3h-1v-2l-1-1a4 4 0 0 0-1 0l-1 1v2h-1v1a1 1 0 0 0 0 1h-1v3h-1v3l-1 1v3l-1 1v3h-1v2a1 1 0 0 1-1 1v1a1 1 0 0 0-1 1v1l-1 1v1l-1 1a2 2 0 0 1-1 1v1h-1v1l-1 1v-2h-1v-1h1v-2a2 2 0 0 0 0-1 5 5 0 0 1 0-1h1a1 1 0 0 1 0-1v-1l1-1v-1h1v-3h1v-2a4 4 0 0 1 1 0v-2l1-1v-2h1v-1-1-1a1 1 0 0 1 1 0v-1-1c0-1 0 0 0 0l1-1c0-1 0 0 0 0v-1l1-1v-1h1v-2a6 6 0 0 0 0-1c0-1 0 0 0 0a4 4 0 0 0-1 0h-3v-1a3 3 0 0 0-1 0h-8v1h-2v-1h-1l-1-1v-5h-1l1-1h1v-1a2 2 0 0 0 0-1 1 1 0 0 1 0-1h1v-1h1v-3h1v-1l1-1 1-1a1 1 0 0 0 1 0v-2a6 6 0 0 0 0-1 1 1 0 0 1-1 0v1h-2v1h-2a1 1 0 0 0-1 1h-1v1h-2l-1 1h-1-1v1h-1v1a1 1 0 0 1-1 0h-1l-1 1v1h-1v1h-3v1h-4v-1h-4-1l-1-1h-1v-1h1v-2l-1-1h1l3-3h3v-1h3v-1h2l1-1h3a3 3 0 0 1 1 0v-1h4v-1h4v-1h2a1 1 0 0 1 1 0h2v-1h2v-1l1-1v-3-1h1v-1h-1v-1h1a3 3 0 0 0 0-1h-1v-1h1v-9-3h1v-1h1c0 1 0 1 0 0h1l-1-1h-1v-1-1h1a1 1 0 0 1 0-1l1-1h1v-1 1h1v1a1 1 0 0 0-1 0h1v1a1 1 0 0 0 1 0h8v1l-1 1v1h1v2h2l-1 1h-1v3l1 1h-1v11a6 6 0 0 0 1 0h2v-1h2v-6a3 3 0 0 0 0-1h-1v-1-1h1a1 1 0 0 1 1 0l1-1h3a3 3 0 0 1 1 0h3v1a1 1 0 0 0 1 0h1v2h-1v1h-1v1h-1v3h-1a1 1 0 0 1 1 0 2 2 0 0 0 0 1l1-1h5v-1h5l1-1h5v1l1 1v-2l1-1a1 1 0 0 1 0-1v-1a2 2 0 0 1 0-1v-2h1v-3-1-1l1-1v-6-1h-1v-1h-1v-1l1-1-1-1h-1v-2a1 1 0 0 1 0-1h2v-1h-1 1v-1h3a4 4 0 0 1 1 0h1v-1a1 1 0 0 0 1 0h1v-1h2l1-1h2l1-1h1v-1 1a1 1 0 0 1 1-1 1 1 0 0 1 1 0h1v-1h2l1-1h1l1-1h2a3 3 0 0 1 0-1h2v-1h3v-1a4 4 0 0 1 1 0 3 3 0 0 1 1 0h1v-1l1-1h2v-1h1v-1h1v1h2a4 4 0 0 1 1 0h1a3 3 0 0 1 1 0h2v-1h1l1 1v-1h1v2h1v2h-1v1h1v1h-1a2 2 0 0 0 0 1v1h-1l-1 2v1h-1l-1 1c-1 0 0 0 0 0h-1v1a2 2 0 0 1-1 0 3 3 0 0 1 0 1h-1v1h-2v1h0c-1 0 0 0 0 0v3a1 1 0 0 0 0 1h-1c-1 0 0 0 0 0l1 1h-1v1a2 2 0 0 0 1 0l-1 1v1l-1 1v3h-1v1h1l-1 1h-1v2l1 1a2 2 0 0 0-1 0v1h-1l1 1-1 1v1l-1 1a1 1 0 0 0 1 0v1h-1v5h-1l-1 1h-1l-1 1 1 1-1 1h-1a1 1 0 0 1-1-1v-1h-1v-3a1 1 0 0 0 0-1h1v-4l1-1a4 4 0 0 0 0-1 8 8 0 0 1 0-1v-5-2h1v-1h-1 1a3 3 0 0 0 0-1v-7-3l-1-1v1a1 1 0 0 0-1 0v1h-2l-1 1h-1v1h-1a1 1 0 0 0-1 1h-1v4h1v8a3 3 0 0 0-1 1l1 1v4a1 1 0 0 1 0 1h3v1h1v2 1l-2 1-1 1v1h-5a1 1 0 0 0-1 1h-1v1h-3l-1 1h-1-1l-1 1v2h-1v2h-1c-1 0 0 0 0 0h1l-1 1v1l-1 1v2h-1a4 4 0 0 0 0 1v3h1a1 1 0 0 1 1-1h1l1-1h1l1-1c1 0 0 0 0 0h1v-1h3v-1h2a1 1 0 0 0 1-1l1 1 1-1h1l1-1 1 1v-1h2l1-1h1l1-1h1v-1h4a5 5 0 0 0 0-1h2v-1h9v1h1v1a5 5 0 0 1 1 0v2h1v1l1 1v1h-1a1 1 0 0 1 0 1v2h-1l-1 1h-1v1l-1 1h-1v1h-1a5 5 0 0 0-1 1v1h-1c-1 0 0 0 0 0h-1v2h-1a6 6 0 0 0-1 0l-1 1v1l-1 1h1v2h-1v4h-1l1 1h-1a2 2 0 0 0 0 1h1v-1l1 1 1-1 1 1v-1h2a4 4 0 0 1 1 0v-1h4v-1h4v1l-1 1v1h-1 1l-1 1-1 1h-1v1h-2v1h-2-1a1 1 0 0 0-1 0h-1v1h-3l-1 1v1a1 1 0 0 0-1 0l-1 1 1 1-1 1v0h-1v-1a1 1 0 0 1 1 0v-2h-3a9 9 0 0 1-2 0v1h-1-1v1h-2v1h-1a2 2 0 0 0 1 0l-1 1c0 1 0 1 0 0v-1h-2v1h-1-1l-1 1-1 1h-1a4 4 0 0 0 0 1 3 3 0 0 1 0 1h-1v1h-1v2l-1-1v1h-1v-1h-3v-1h-2l-1 1h1v1h-1v1h0a3 3 0 0 1 0 1v1h1l-1 1v14a1 1 0 0 1-1 1v-1a5 5 0 0 0-1 1v1h-1v2a2 2 0 0 0-1 0l1 1-1 1h-1v1h-1-1c-1 0 0 0 0 0a1 1 0 0 1 0 1h-1v1h-1l-1-1v-1-1-1h-1v1l-1-1v-2a3 3 0 0 0 0-1s1 0 0 0l1-1h-1v-2h1v-4h1v-3-2a8 8 0 0 0 0-1h1v-5h1v-1a2 2 0 0 0 0-1v-2a8 8 0 0 0 0-1v-2l1-1v-6l1-1c0-1 0 0 0 0v-1-6a4 4 0 0 0 0-1v1zm-14 12l-1 1v2h1v-1h-1v-1h1v-1h1v-1h-1l-1 1h1zm46-19h-1v1h-1a1 1 0 0 0-1 1v2h-1v3h-1v-2-1a1 1 0 0 1 0-1v-1h1v-1a1 1 0 0 0 1 0 1 1 0 0 0 0-1 2 2 0 0 1 0-1v-1a1 1 0 0 0-1 0v-2h1v-1h-1l-1 1a2 2 0 0 1-1 0l1 1v1h-1v2h-1l-1-1v-1h1a4 4 0 0 0 0-1h-1-1a1 1 0 0 0 0 1h-1l-1-1h-1v1h-4a3 3 0 0 1 0 1h-2l-1 1-1 1h-1v1h-1l-1 1v1h1-1v1l-1 1c-1 0 0 0 0 0v1a4 4 0 0 0 1 0v1h-1v2h-1 1v2h-1 1v1-1l-1 1v1a4 4 0 0 1 0 1v1a1 1 0 0 1-1 1h1l-1 1h1v2h-1v1h0l2 1 1-1 1-1h-1-1v-1h1l1 1a2 2 0 0 0 1 0v-1h-2l-1-1v-1h5l1-1h3l1-1h2l1-1c0-1 0 0 0 0h1l1-1h2v-1h3a2 2 0 0 0 0-1 3 3 0 0 0 1 0h3v-1h1a3 3 0 0 0 0-1v-1a3 3 0 0 0 0-1v-2-1-1a2 2 0 0 0-1 0v0a12 12 0 0 1 0-2v-1 1-3-1 1h-1v1a1 1 0 0 1 1 0l-1 1h1zm-42 12h-1 0v-1-1h1v-1-1h1v-2l1-2v-1l1-1v-1l1-1v-1-3h1a1 1 0 0 0 0-1h1a1 1 0 0 0 0-1 3 3 0 0 1-1 0l1-1v-1-1h1v-1h-1 1v-1a3 3 0 0 1 0-1l1-1h-1 2a2 2 0 0 1-1 0l1-1-1-1v-1h1a5 5 0 0 1 0-1v-3h1v-2a8 8 0 0 0 0-1h-1v1l-1 1a1 1 0 0 0-1 0l1 1h-8l-1-1h-2v1a3 3 0 0 1-1 0h-1a2 2 0 0 0-1 0h-2l-1 1h-1v2a1 1 0 0 0-1 0v2l-1 1v2h-1l-1 1a5 5 0 0 1 0 1v1h-1v2h-1v2h-1a3 3 0 0 0 0 1 1 1 0 0 1 0 1 1 1 0 0 1-1 0 3 3 0 0 0 0 1v1h-1v2h-1v3h1v1h1v1h1l1 1 1 1v2l1 1 2 2h1v1h2a1 1 0 0 0 1 0v1h1v1a3 3 0 0 0 0 1h4a3 3 0 0 1 0-1 1 1 0 0 1 1-1v-1h1v-2a1 1 0 0 1 1 0zm-26-13v1h1v1h1l1 1a1 1 0 0 0 1-1c-1 0 0 0 0 0v-1l1-1a1 1 0 0 0 0-1h1v-2a4 4 0 0 1 0-1l1-1v-1-1l1-1 1-1h-1 1v-3h1v-1h1v-1-3h-5v1h-1v1h-1v2a1 1 0 0 1 1 0v1h-1l-1 1v2a3 3 0 0 1 0 1l-1 1-1 1h-1v1h-1l-1 1v1l-1 1 1 1 1 1zm50-29v-1h1l-1-1h1v-7h-1v2l1 1h-1v2l-1 1h1v3zm32 37a5 5 0 0 0-1 0v1h2v-1h-1zm-32-51h1a5 5 0 0 0 0 1v-2 1h-1zm1 5v-1zm-9 55h1v-1h-1v1zm-15-1h-1v0zm49-6zm3 0v-1 1zm-46 43v0zm36-49v-1 1h-1 1zm0 8zm-50 27zm44-25v0zm-24 3zm-51-33v0zm28 54zm20-10zm-12-9zm35-3zm0-1zm13-4v0zm-1-10s-1 0 0 0zm-5-2zm17-7zm-62 43zm-4 2zm2 3zm-3 4zm23 3z"/><path d="M263 473h4l-1 1v1h1v1a1 1 0 0 0-1 1v3l-1-1h-1v2h-3l-1 1v2h1a3 3 0 0 0 0 1h-1l1 1h-1a1 1 0 0 0 1 0v1h-1v-1h-1v1h1v1a6 6 0 0 1 0 1h-1c-1 0 0 0 0 0l1 1v1h-1l-1-1v1h2a1 1 0 0 1 0 1v-1a5 5 0 0 1 1 0v1h-1 1a1 1 0 0 1 1 0h1v-3-3h1v1a1 1 0 0 1 1 0v2h-1 1v1a5 5 0 0 0 0 1l1-1v1h2-1l1 1v-1h1v-1a2 2 0 0 0 0 1h1v-1l1 1h1v1a5 5 0 0 1 0 1v1h2v3a1 1 0 0 1 0 1h1v2h1a1 1 0 0 1 1-1v3a1 1 0 0 0 0 1v-1h-1v1c0 1 0 0 0 0v1l1 1-1 1h1-1-1v-1h-1v1h0a2 2 0 0 0 0-1h-1v-1h1v-1-1h-1v3a1 1 0 0 0 0 1l1 1v1-1h-2v-1 3h-1v-1h-1l-1 1h1v2a4 4 0 0 1-1 0v-1h-1v-1h-1v2h-2a4 4 0 0 1-1 0h-1l-1-1h-1v-1l-1-1c1 0 0 0 0 0h-1v-1h-1v-1l-1-1v-1c0-1 0 0 0 0h-1l1-1v-2l1 1v-2h-5a3 3 0 0 1-1 0 1 1 0 0 1-1 0v1h-1l-1 1h-1v1l-1 1h-1l-1 2h-1v1a3 3 0 0 1-1 1v1l-1-1a4 4 0 0 1-1 0h-2l-1-1h-2l-1-1h-1v-1h1l1-1h1v-1h-1 1c1 0 0 0 0 0h-1v-1h-1a1 1 0 0 0 1 0v-1h1a1 1 0 0 0 1 0l1-1h1l1-1 1 1v-1h1l1-1h1a3 3 0 0 1 1 0h2v-1 1l1-1v1h-1v1h-1 1v1a3 3 0 0 0 1 0h1a1 1 0 0 0 0-1h2a1 1 0 0 1 0-1h2a1 1 0 0 0 0-1h3v-1h1-1l1-1h-2l1-1h1l-1-1h-1 1v1h-1v-2h1v-3l1-1a4 4 0 0 0-1 0l1-1h-1v-1h1v-1-1a2 2 0 0 0 0-1v-1h-1v1h-1l-1 1v1h-1a1 1 0 0 0-1 1h-7v-1l1-1h1v-1h1a1 1 0 0 0 0-1h-1 1-1v-1a3 3 0 0 1 1 0h-1l-1-1h2v-1h3v-1h1a1 1 0 0 0 1-1h2v-1h2v-1h1v-1l1 1h1v-1h2v-1zm4 20h1v-1l-1 1zm0 3h1v1c0 1 0 0 0 0h-1l-1-1v1h3v-1l-1-1v-1l-1 1v1zm4-2v1c0 1 0 0 0 0h1s0 1 0 0v-3l-1 1v1zm-7 3h-1v1h-1v1a2 2 0 0 0 1 0v-1a3 3 0 0 0 1 0zm-1 3a4 4 0 0 0 1-1h-1a1 1 0 0 1 0 1zm2-3v-1 2h1v-1zm7 7h1a1 1 0 0 0 0-1h-1v1zm-6 2v0zm-2-16a4 4 0 0 1-1 0v1h1v-1zm-16 10zm24 0h1l-1-1a1 1 0 0 0 0 1zm-3-7h0zm0 0h-1 1zm1 2v-1 1zm-11-3h-1v1h1c1 0 0 0 0 0zm13 12h-1 1zm3-2zm-17 2zm17 0z"/><path d="M269 468v5h1a3 3 0 0 1-1 0 1 1 0 0 0 0 1h1a1 1 0 0 0 0 1v5h-2v1l-1-1v-1l1-1v-1h1v-1h-1v-1-1h-1v-1l1-1v-1h1l-1-1v-1a1 1 0 0 0 1 0 6 6 0 0 1 0-1zm0 6zm0 1zm0 4zM271 487h-1v1c0 1 0 0 0 0h1c1 0 0 0 0 0l-1 1c1 0 1 0 0 0a1 1 0 0 1 0 1v-1h-1v1h-1v-3h-1v-1a6 6 0 0 0 1 0v-1 2h1v-1h1l1 1zM269 481h-1v1h2c1 0 0 0 0 0v2h-1a5 5 0 0 1 0 1v-1h-1v1-2a10 10 0 0 0 0-1h-1l1-1h1zm0 3v-1 1zM264 484a3 3 0 0 1-1 0v-1h2v1a3 3 0 0 1 0 1v1h-1a5 5 0 0 1 0-1v-1zM274 447h1v-2a5 5 0 0 1 0 1v1c0 1 0 0 0 0v1h-1v-1zM258 471v-1h1v2h-1v-1zM249 497l1-1h1v1h-1v1a2 2 0 0 1-1-1zM268 466a3 3 0 0 0 0-1l1 1a1 1 0 0 0-1 0zM263 470h1v1h-1zM265 481a2 2 0 0 1 0-1h1v1h-1zM274 450v0zM259 467h-1l1-1v1c0 1 0 0 0 0zM257 472v-1l1 1h-1zM263 473v-1l1 1h-1zM261 465a3 3 0 0 0 0-1 2 2 0 0 0 0 1zM261 490v1-1zM271 487v-1 1zM274 496h0zM257 496v-1a4 4 0 0 0 0 1zM256 495a1 1 0 0 1-1 0h1zM272 450h1a3 3 0 0 1-1 0zM263 464l1 1h-1v-1zM240 494h-1 1zM285 454zM275 507zM219 488h-1 1zM270 472zM258 471h-1 1zM269 468zM270 475zM272 450zM275 374zM271 480zM270 483zM241 491zM268 491zM240 493h-1c-1 0 0 0 0 0h1zM254 496v-1c0-1 0 0 0 0v1zM270 511zM271 511h-1a1 1 0 0 1 1 0zM261 449v1a2 2 0 0 1 0 1v1l-1 1v2l1 1h-1v1-2h-1v-1h1v-5h1zM265 453v-1 2l-1-1a2 2 0 0 1 1 0zM260 446v-1l1 1v1h-1v1-2zM267 450h-1l1-1a1 1 0 0 0 0 1zM268 449v1h-1 1v-1zM266 451a4 4 0 0 1 1 0v1h-1v-1zM263 444v1a3 3 0 0 1 0-1zM266 447v1h-1l1-1zM266 450h-1zM259 450zM265 454zM263 454zM263 452zM245 451v1l-1-1h1zM265 450h-1 1zM261 449zM262 449zM266 448h0zM266 447zM260 443zM221 467z"/></g></svg>