<svg xmlns="http://www.w3.org/2000/svg" viewBox="0 0 1095 657"><defs><style>.cls-1{fill:#f29600}</style></defs><g id="Layer_2" data-name="Layer 2"><g id="圖"><path class="cls-1" d="M483 116c2 5 7 13 13 14 3 0 4-4 3-6l-6-5a14 14 0 0 1-3-5c-1-5-8-3-7 2zM536 167l2 1c1 1 3-1 2-2l-1-2a2 2 0 1 0-3 3zM458 31l-2 7c0 2 3 3 5 2a8 8 0 0 0 2-3 11 11 0 0 0 0-3 3 3 0 0 0-1-4 3 3 0 0 0-4 1zM593 270l7 5c3 2 5-2 3-4l-7-5c-2-1-5 2-3 4zM540 282l3 1a12 12 0 0 0 3 0 1 1 0 0 0 1-2 23 23 0 0 0-5-3 2 2 0 1 0-2 4zM960 106l1-1v-1l-2 1a10 10 0 0 0 4-2l-6 2a12 12 0 0 0 8-2l3-2c5-2 6-8 4-12-3-4-9-7-13-4-5 4-10 11-6 17v0a7 7 0 0 0 0 2s1 3 1 1a3 3 0 0 0 6 1zM1007 275c0-3 1-4 2-5l3-6-10-1c1 2 0 3 2 5l-1-2-1 3a2 2 0 0 0 1 2c2 1 4-1 5-2l4-3a13 13 0 0 0 0-4c0-6-8-7-10-2-1 3-2 6-1 8l2 7a2 2 0 0 0 4 0zM568 199l1 1 1-1a6 6 0 0 1 0 1l10-4c-3-2-6-2-10-2l9 9c2-7-1-15-9-18-2-1-4 1-4 2l-3 9a8 8 0 0 0 4 7 2 2 0 0 0 3-1 27 27 0 0 0 0-5c0-2 0-5 2-6l-6-1a6 6 0 0 1 1 4 3 3 0 0 1 0 2s-1 1 0 0c-4 5-2 10 3 13 4 1 7 1 10-1s5-7 3-10a7 7 0 0 0-10-2 10 10 0 0 0-2 1h2a16 16 0 0 1-2 0h-2s-2 1-1 2zM637 14a38 38 0 0 0 3 7l4 5a3 3 0 0 0 3 0c2-2 1-6 0-8a10 10 0 0 0-2-5 10 10 0 0 0-3-2c-2-1-6 1-5 3zM698 436a25 25 0 0 0 2 6 34 34 0 0 0 4 4c3 4 9 1 9-4a35 35 0 0 0-1-6 24 24 0 0 0-2-5 7 7 0 0 0-12 5zM442 318a12 12 0 0 1 1 1v1a22 22 0 0 0 3 3l1 2 1 1 1 1a5 5 0 0 0 9-5 19 19 0 0 0-6-7 11 11 0 0 0-3-1 10 10 0 0 0-3-1h-1c-2 0-4 3-3 5zM343 358c3-5 3-13-3-14a4 4 0 0 0-4 3 9 9 0 0 0 0 6 6 6 0 0 1 1 3c0 3 5 5 6 2zM55 252a41 41 0 0 0 4 5c2 1 4 4 6 4a2 2 0 0 0 3-3l-4-5a40 40 0 0 0-6-5c-2-1-4 2-3 4zM50 40a10 10 0 0 1 1-5c2-2 3-4 2-7v2a6 6 0 0 0 0-2c0-2-1-4-4-4-4 0-7 4-8 8a13 13 0 0 0 3 9c2 3 6 2 6-1zM1067 90a78 78 0 0 0 5 8 3 3 0 0 0 5-3 80 80 0 0 0-5-8c-2-3-6 0-5 3zM1035 85a30 30 0 0 0 3 6 21 21 0 0 0 5 4 6 6 0 0 0 8-10 21 21 0 0 0-5-4 31 31 0 0 0-6-2c-4-1-7 3-5 6zM124 335c11 0 17 13 29 11 2 0 2-2 1-3-6-4-9-11-15-15-5-3-12-5-17-2-4 2-3 9 2 9zM333 10a15 15 0 0 1 7 0l6 2a2 2 0 0 0 2-2c-1-3-4-5-7-6a20 20 0 0 0-10 0c-4 1-2 6 2 6zM1 383c3 4 5 8 6 13 1 4 5 9 8 11a3 3 0 0 0 4 0c4-5 3-13-1-17-4-5-9-8-15-11a2 2 0 0 0-2 4zM229 390a28 28 0 0 0 7 6 5 5 0 0 0 5-1l-2 1a4 4 0 0 0 3-5v-1 3a5 5 0 0 0-2-5 28 28 0 0 0-8-4c-3 0-5 3-3 6zM248 385c1 4 5 7 9 10 4 1 7-4 3-6s-5-4-8-7a2 2 0 0 0-4 3zM741 643a7 7 0 0 0-6 3 8 8 0 0 0 0 8c2 4 8 4 11 1a7 7 0 0 0 2-4 7 7 0 0 0-1-4 7 7 0 0 0-2-2 2 2 0 0 1-1-1l1 1 1 1v4a2 2 0 0 1 0-1v1a5 5 0 0 0 0-5 5 5 0 0 0-5-2zM751 641a13 13 0 0 0 0 2 10 10 0 0 0 1 2 3 3 0 0 0 3 1 2 2 0 0 0 2-3 11 11 0 0 0-1-2 17 17 0 0 0-2-2 2 2 0 0 0-2-1 2 2 0 0 0-1 3zM610 338l3 4a24 24 0 0 0 4 3c3 2 5 5 9 6a3 3 0 0 0 3-5c-1-3-4-5-7-7a32 32 0 0 0-4-2l-5-2c-1 0-4 1-3 3zM434 1a32 32 0 0 1-3 8l-7 6c-1 2 0 4 2 4 4 0 7-4 9-7s3-7 2-11a2 2 0 0 0-3 0zM475 239a13 13 0 0 1 2-2 15 15 0 0 1 3-2 4 4 0 0 0-4-7c-4 2-6 7-5 11a2 2 0 0 0 4 0zM885 30l1 1h1c-1 0 0 0 0 0a6 6 0 0 0 5 2l-3-1 2 3c1 1 2 0 3-1l1-6-1 4c4-4-1-10-6-11-2 0-4 1-5 3a5 5 0 0 0 2 6zM638 466c1-2 3-7 1-10a3 3 0 0 0-5 0c-2 3-1 8 1 10a2 2 0 0 0 3 0zM776 379c1 0 1 0 0 0l-1-2c0 2 2 2 4 3a10 10 0 0 0 2 1c1 1-2 0 0 1a5 5 0 0 0 3 0c4 0 6-3 5-7 0-3-4-6-7-6s-7 2-8 5l1-2a4 4 0 0 0-2 4l3 3zM1084 365c-3 3-6 7-7 11 0 2 1 3 2 2 4-2 7-7 9-10 1-3-3-6-4-3zM1058 394c-1 0-2 0 0 0h-3a18 18 0 0 0 8-2l5-3c5-3 8-7 8-13a13 13 0 0 0-3-10c-8-7-18-4-25 2a23 23 0 0 0-5 8 10 10 0 0 0-1 5 26 26 0 0 1 0 2v1c1 9 8 13 16 10zM744 454a18 18 0 0 1 4 6l2 6c1 2 3 1 4 0 2-3 1-6 0-9a24 24 0 0 0-5-8c-3-3-8 2-5 5zM818 513a46 46 0 0 1 9-8c4-4 10-4 13-9 2-5 1-11-3-13-8-4-17 1-23 7a30 30 0 0 0-9 17c-1 8 8 12 13 6zM655 529c2 5 6 9 9 12 4 5 9 8 14 8l-4-1 9 3a4 4 0 0 0 4-5c1-3-1-6-2-9l1 4c0-10-13-20-23-22-6-1-10 5-8 10zM675 482c0 5 1 11 5 14a3 3 0 0 0 4-1c3-4 1-10 0-14-1-2-3-4-5-3a4 4 0 0 0-4 4zM580 385a11 11 0 0 0-2 5q1 6 1 2a14 14 0 0 0 10 14 14 14 0 0 0 11-1h-12c3 1 7 3 11 3a8 8 0 0 0 8-7 19 19 0 0 0-1-5l-1-5-3 12c3-3 4-7 4-11 1-4-2-10-7-12l-1-1a11 11 0 0 0-5-1c-6-1-11 1-14 7zM783 641a10 10 0 0 0 3 0c3-1 4-4 5-7a9 9 0 0 0 0-1l-2 5a9 9 0 0 0 2-6l-1 4a10 10 0 0 0 2-6c-1-6-8-12-15-8l-3 2c-3 2-4 6 0 8 0 1 0 0 0 0a8 8 0 0 1 1 1l-2-6v1c-1 5 1 11 7 12a14 14 0 0 0 5 0l-6-1a11 11 0 0 0 5 1l-5-2c2 2 3 3 6 3l-2-1v1zM757 528a3 3 0 0 0 3 2c4-1 6-4 6-8a3 3 0 0 0-7 0v1c0 1 0 0 0 0l-1 1s0 1 0 0l-1 1a4 4 0 0 0 0 2 1 1 0 0 0 0 1zM1027 380l-1 1h5c-5-2-10 0-14 4a16 16 0 0 0-4 7 35 35 0 0 0-1 6c-1 8 10 14 17 10a27 27 0 0 0 5-4 17 17 0 0 0 4-7c2-5 1-10-3-14l3 6v-1c-1-4-6-10-11-8zM1020 526a17 17 0 0 0 6-1l2-1 5-2a46 46 0 0 0 11-8c5-6 6-16 0-21-3-3-7-5-11-5s-7 2-11 5-6 6-8 10c-3 4-5 8-4 13 0 6 4 9 10 10zM1026 479a20 20 0 0 1 4-5l4-3a4 4 0 0 0 2-4l-1 3 1-1c1-1 2-3 0-4s-4-2-7 0a16 16 0 0 0-4 3 13 13 0 0 0-3 5 10 10 0 0 0 0 5c0 2 3 3 4 1zM1071 509c1 1 1 1 0 0l1 1c-1-1-1-1 0 0v-1 1a7 7 0 0 1 0 1v-1a21 21 0 0 0-2 6l1-2-1 1a5 5 0 0 0-1 0 3 3 0 0 0 1 5c3 2 7 1 9-1a10 10 0 0 0 2-10 8 8 0 0 0-7-6c-3 0-5 4-3 6zM1086 417a35 35 0 0 1-2 7l-2 7a3 3 0 0 0 2 2c4 2 8-2 9-5a11 11 0 0 0 0-12 4 4 0 0 0-7 1zM691 414l-1-2-1-2-2-6c-3-8-13-12-20-8-15 9-4 28 7 35 4 3 11 2 15-2s4-10 2-15zM775 389l3 3v-1l-2-3-1 1zM98 380l2-2a30 30 0 0 0-2 2l2-2 2-2 3-1a11 11 0 0 0-5 19 9 9 0 0 0 2 1l3 2h3a6 6 0 0 0 1 0 6 6 0 0 0 3-1 9 9 0 0 0 4-2 10 10 0 0 0 2-3 19 19 0 0 0 1-3 9 9 0 0 0 0-4 8 8 0 0 0-1-4l-2-3a8 8 0 0 0-3-2 6 6 0 0 0-3-1 9 9 0 0 0-5 0 12 12 0 0 0-6 6z"/></g></g></svg>