<svg xmlns="http://www.w3.org/2000/svg" viewBox="0 0 549 226"><defs><style>.cls-1{fill:#fff}.cls-2{fill:#ffe9a1}.cls-5{fill:#f54782}.cls-6{fill:#6d93e0}.cls-8{fill:#ecae32}.cls-9{fill:#cbccc7}.cls-11{fill:#bbac77}.cls-12{fill:#2b6ed4}.cls-13{fill:#00ac5f}.cls-14{fill:#8e7de4}.cls-15{fill:#221714}</style></defs><g id="Layer_2" data-name="Layer 2"><g id="圖"><path class="cls-1" d="M462 182l-21-5c-1 0-16-8-35-4s-26 4-38 11-24 12-30 13l-35 3c-10 0-29-5-29-5l28-35 12-20 12-18"/><path class="cls-1" d="M395 147l-57 2-12 5v-5"/><path class="cls-1" d="M280 192l30-45c4-9 43-75 48-102 0 0 23-11 53-2s44 23 44 23l-1 41c0 15 15 39 18 46s15 40 17 40l-102-30"/><path class="cls-2" d="M42 126s-2-15 8-25 18-14 27-15 15 4 19 5 8 2 11 6 3 5 4 10-2 3 3 6 9 2 10 8 3 6 2 11-1 6-5 10-5-2-6 3 0 4-4 8-1 0-6 4-5 6-10 7H84c-6-1-1 1-8-2s-6 0-10-6l-3-5a62 62 0 0 0 11-2c5-1 6 0 8-2s2-6 1-10-1-8-3-12 0-4-4-5-16 0-21 1l-13 5z"/><path class="cls-2" d="M117 114l7-10-1-3 4-2 1-1c3-3 6 4 6 4l5 2-6 10-9 7zM169 124l4 22 15 5c3 0 11 3 13 0 3-5 4-12 0-13s-1-2-4-5c-3-2-7-1-4-5s2-2-2-5-6 2-11 0a16 16 0 0 0-11 1z"/><path d="M52 64s8-7 15-7 5 0 14 2 10 5 17 4 12-5 17 1 8 2 11 9 2 16 2 16v9l-5 3-4 11h-9s0-18-7-19-15-7-21-7-18 0-23 3-9 12-9 12l-6 11s-3 5-2 9a31 31 0 0 1 0 7h-2a29 29 0 0 1-9-10c-2-7-3-20-2-27s1-10 6-16 17-11 17-11z" fill="#ae857b"/><path d="M200 77s10 13 18 16l15 3c8 2 15 3 20 6s5-14 7-16 5-6 5-9-8-4-14-5l-21-6c-5-2-13-5-15-12l-6 8c-2 1-1 5-3 7l-6 8z" fill="#73a536"/><path class="cls-1" d="M204 69s5 1 5-7-11-20-11-22-9 1-10 1c0 0 3 14 5 15s-6-2-7 0-2 5 0 7a14 14 0 0 0 6 3l-3 2 3 5h6zM264 82l10-3c3-1 6-3 9-2s4 0 5 3 0 3-1 5l-3 4v4c0 2 0 2-3 3s-4 0-4 1 0 5-1 6 1 3-4 2-5 0-8-2l-4-4-2-5 6-12zM318 34s10-5 14-4 4 11 4 11l-3 7-3 10-9 5-26-8-8-15c0-2-2-6 0-10s2-5 6-6 6-1 9 0l8 4 8 6zM491 101l-2-12 4-10a72 72 0 0 1 7-3l7 4 4 6 2 5s14 1 17 3 6 1 8 5 4 3 4 6 1 4-2 7l-6 4c-3 2-18 2-20 1l-7-2c-2-1-7-1-10-4a36 36 0 0 1-4-7l-2-3zM467 147s8-3 9-5l2-13 22 6 1 10 2 25 7 14-22 7-6-13z"/><path class="cls-5" d="M380 118l-4-21s5-7 11-7 8-1 12 1l11 5c2 2 6 4 6 6s-14 19-14 19-17-6-21-3M342 126l24 5s-1 19 3 21-17 16-17 16-20-15-10-42zM378 155s-6-13-5-18 13-9 17-8 9 2 11 5 7 3 4 7-8 14-10 15-17-1-17-1zM401 162s17-20 18-24 10-1 10-1l9 2 3 7s-15 26-19 27c-17 5-21-11-21-11z"/><path class="cls-6" d="M76 118s15 31 7 30-20 3-20 3 15 15 22 15 18-6 23-13 6-2 9-8 5-5 10-15l31-7 4 19-30 14s2 12 7 20l21 32c5 8-12 13-23 12l-43-2-26-42s-23-10-28-15c-8-7-8-7-4-17 0 0-1-5 4-14s25-15 36-12z"/><path d="M103 169l-2 1-3-6a4 4 0 0 1-1 1c-5 4 4 11 7 4l-7 2c4 4 5 10 6 15l9 12c1 1 4 1 5-1s0-5 0-6a25 25 0 0 0-4-7c-3-6-4-13-10-17a2 2 0 0 0-3 2c0 4 3 9 6 13 2 3 7 8 5 12l5-2a3 3 0 0 0-2 0l3 2a20 20 0 0 0-4-7 16 16 0 0 1-3-5 55 55 0 0 0-2-7c-2-3-4-4-4-7a4 4 0 0 0-3-4l3 4a4 4 0 0 1 0-1c0-4-5-5-7-2a4 4 0 0 0 0 2c0 4 4 4 6 2z" fill="#d9706f"/><path class="cls-1" d="M85 169l6 3c2 1 5 1 4-2l2-2a3 3 0 0 0 0-4 3 3 0 0 0-4 0l-3 6 3-2c-2-1-4-3-7-3a2 2 0 0 0-1 4zM103 164l6 3c2 0 4 0 5-2 0-3 0-7 2-9l-6-4a9 9 0 0 0-1 2c0 5 7 5 7 0h1a4 4 0 0 0-3-4 4 4 0 0 0-4 1c-3 4-3 10-2 14l3-4h-8a2 2 0 0 0 0 3zM84 141l-8-22s6-5 11-3 6-2 7 5l5 17v4zM158 125c0-2 11-2 11-2l4 23-10-1z"/><path class="cls-6" d="M4 95a8 8 0 0 0 1 1 4 4 0 0 0 4 1h6a10 10 0 0 0 4-1 2 2 0 0 0 1-3c-2-4-8-4-13-4a4 4 0 0 0-3 2l-1 4zM19 119l-2 3a6 6 0 0 0 2-4v1a5 5 0 0 0 1-2 3 3 0 0 0-1-2v1a6 6 0 0 0-2-4l2 4c0-3-3-5-5-5a6 6 0 0 0-2 12 6 6 0 0 0 5-1 6 6 0 0 0 2-3zM13 142v1c4 3 9 0 9-4v-1l-2 2 5-3c2-1 3-3 2-5h-4l-5 3h2-2c-3-2-7 2-6 6a4 4 0 0 0 1 1zM14 69l2 2 1 2a14 14 0 0 0 4 5c3 2 5-3 3-4a9 9 0 0 1-3-4 17 17 0 0 1-2-3l-1 3 2-1a6 6 0 0 0 3-3 6 6 0 0 0-11-5c-1 3-1 7 2 8zM35 41a27 27 0 0 0 1 3 10 10 0 0 1 1 1 12 12 0 0 1 0 3 4 4 0 0 0 5 4 8 8 0 0 0 5-4 3 3 0 0 0-1-3c-1-2-3-7-6-5-2 2 1 6 2 8l1-4a4 4 0 0 1-2 1l4 3-1-5a17 17 0 0 0 0-5 5 5 0 0 0-6-3c-2 1-4 4-3 6zM121 53l-2 3a3 3 0 0 0 1 4 3 3 0 0 0 4-1 12 12 0 0 0 2-6 3 3 0 0 0-3-3 3 3 0 0 0-2 3zM141 82a8 8 0 0 0-1 0h-1a4 4 0 0 0-3 2l1-1a3 3 0 0 0 0 5h-1a4 4 0 0 0 4 1 7 7 0 0 0 4-2 3 3 0 0 0 0-3 3 3 0 0 0-3-2zM146 96c0 1 1 1 0 0h-1c1 0 0 0 0 0a7 7 0 0 1-1 0s1 0 0 0h-1c1 0 1 0 0 0v-1a3 3 0 0 0-1 0 2 2 0 0 0-2 1 8 8 0 0 0-1 2 4 4 0 0 0 3 3 8 8 0 0 0 6 1c3-1 2-6-2-6z"/><path class="cls-5" d="M78 154a13 13 0 0 0 11-1c4-2 8-1 11-3s2-7-1-7l-10 1a6 6 0 0 0-4 2l-5 2a3 3 0 0 0-2 6z"/><path class="cls-8" d="M363 60c2 5 7 9 11 12 4 4 10 7 16 7l-3-11c-2 2-6 4-9 2l-2-8c-2-3-8-2-9 2-1 5 1 11 6 15 6 5 12 2 18 0 6-1 6-10 0-11a39 39 0 0 1-12-5c-4-3-8-6-12-7-2 0-4 2-4 4zM409 76c4 3 10 3 15 3a150 150 0 0 0 16-1l-3-5c-4 6-17 7-22 0-1-2-4-2-5 0-3 6 7 11 12 12 7 2 17-2 21-9 1-2 0-5-3-5a150 150 0 0 1-15 2h-15a2 2 0 0 0-1 3z"/><path class="cls-9" d="M384 51c3-1 4-4 6-6l-4-1v2c-2 2 1 6 3 4a38 38 0 0 0 4-5l-4-1v10c0 3 4 4 5 1l3-11-5-1c0 3 1 5-1 7l5 3a37 37 0 0 1 3-6l-5-2a21 21 0 0 0 2 7c1 3 5 3 5 0a28 28 0 0 1 0-6h-5l4 9c1 2 5 1 4-1v-9l-4 1a19 19 0 0 0 3 4 3 3 0 0 0 4-1 41 41 0 0 0-1-6l-3 3 2 4c1 2 5 1 5-1a10 10 0 0 1 0-4l-4 1 2 5 4-2c-2-2-6 0-4 3v1c2 1 4 1 5-1l-3-9c-1-1-4-1-5 1a15 15 0 0 0 0 5l5-2a13 13 0 0 0-5-5c-2-1-4 1-3 3a31 31 0 0 1 0 4l4-2a14 14 0 0 1-2-4c-1-2-4-1-5 1v10l5-2c-1-2-3-5-3-8-1-2-5-2-5 0a34 34 0 0 0-1 8l5-1a17 17 0 0 1-1-6 3 3 0 0 0-5-1 37 37 0 0 0-3 6c-1 3 3 6 5 3l1-10a2 2 0 0 0-5-1l-3 12h5V43a3 3 0 0 0-5-1 30 30 0 0 1-3 4l3 4c3-3 3-5 2-8a2 2 0 0 0-4-1l-6 7c-2 2 1 5 3 3zM383 92a27 27 0 0 0 0 6c0 2 3 4 4 1l5-7-4-2a20 20 0 0 1-1 2c-1 2 2 5 3 3a12 12 0 0 0 2-4c1-2-2-3-3-2-3 2-4 5-6 8l4 1v-6a2 2 0 0 0-3-2 2 2 0 0 0-1 2zM402 93l2 9a2 2 0 0 0 3 2 15 15 0 0 0 5-3 2 2 0 0 0-1-4c-1-1-3-3-5-3a2 2 0 0 0-2 1c0 3 2 5 5 6l-1-4a9 9 0 0 1-3 2l4 2a34 34 0 0 0-3-8c-1-2-3-1-4 0zM434 98a20 20 0 0 0 3-3 7 7 0 0 1 4-2c1 0 3-2 2-3l-1-1-3 3 1 3a3 3 0 0 1-2 1h-1l1 2-3-3-1 1 3 3-1 1a2 2 0 0 0 1-1 3 3 0 0 0 0-1 2 2 0 0 0-3-2c1 0 0 0 0 0a3 3 0 0 0-2 3c0 2 2 2 4 2a6 6 0 0 0 3-5 2 2 0 0 0-3-2c-2 1-4 4-2 6h6c5-3 5-8 2-12-2-1-5 1-4 3l1 1 2-3c-4-1-7 3-10 5-1 2 1 5 3 4zM445 109c2 0 2-1 3-2l3-4-2 1c1 0 0 0 0 0v1a5 5 0 0 1-1 1h-1l-1 5c3 0 4 3 7 3a2 2 0 0 0 3-4l-5-2a15 15 0 0 0-5-2c-3 0-3 4-1 5 7 5 16-12 4-12a3 3 0 0 0-3 1l-3 6c0 1 0 4 2 3zM429 62a7 7 0 0 0 1-4l-4 3 5 2 4 2a2 2 0 0 0 1-1 2 2 0 0 0-1-3l1 2v-1a7 7 0 0 0-1-1 9 9 0 0 0-2-2 29 29 0 0 0-4-2 2 2 0 0 0-4 2l1 3c0 1 2 2 3 0zM335 115a13 13 0 0 0 7-5l5-9-5 2 8 4-3-4a18 18 0 0 1-3 9l-1 2c-1 1-1 0 0 0l-1-1-2-3-1 6c3-2 6-1 8-4l2-8c1-3-2-5-4-4-3 1-3 4-3 6-1 2-1 4-4 3-2 0-5 2-4 5 3 5 9 10 14 5 4-4 6-10 6-16a4 4 0 0 0-2-3 37 37 0 0 1-7-4 4 4 0 0 0-4 0c-5 4-6 11-8 16-1 2 0 4 2 3z"/><path d="M41 126c3-8 2-17 7-25 4-8 12-11 21-13a36 36 0 0 1 13-1c4 0 8 3 12 4 5 1 10 3 13 6 4 4 4 9 5 14 0 3 5 4 7 2 2-3 4-6 3-10l-1-4v-1-1l-2 1-3-1a3 3 0 0 1 1 1c1 4 6 4 7 1 3-5 4-11 4-17a12 12 0 0 0-1-5l-3-4c-1-2-1-5-3-7-2-1-5 0-4 3 0 1 3 5 2 6l-2 4a20 20 0 0 0 0 4 86 86 0 0 1 0 15l8-2-3-6a6 6 0 0 0-8 0c-2 2-3 5-3 8s3 7 1 10l8 1a54 54 0 0 0-8-14c-3-5-8-7-13-9l-7-5a26 26 0 0 0-8-3 41 41 0 0 0-16 1c-9 2-20 8-25 17-4 9-6 20-6 30 0 2 3 2 4 0z" fill="#57423d"/><path class="cls-11" d="M64 155c1 2 5 0 7 2l-1-2c1 9 12 8 18 6l12-6c3-2 7-4 10-4s4-5 1-5c-7-1-14 4-19 6-3 2-7 4-11 4s-4-1-6-4a3 3 0 0 0-4-1c-2 1-6 0-7 2a2 2 0 0 0 0 2zM174 143l2 4c1 2 4 3 6 3a22 22 0 0 0 16-1c3-1 3-4 2-6v-1 3a14 14 0 0 1 1-2c1-2-1-3-2-3-5 1-9 3-13 2l-7-2-4 1a1 1 0 0 0-1 2zM178 136l8-2a6 6 0 0 0 3-3l3-4c0-2-1-6-4-4-3 1-5 4-6 7l2-2-7 4c-2 1-1 4 1 4zM100 138c2 7 11 6 16 3s12-13 7-19a2 2 0 0 0-3 1c-2 1-2 4-3 6a14 14 0 0 1-3 6c-4 2-7 3-10 0a2 2 0 0 0-4 3zM122 115a9 9 0 0 0 10 1c3-1 6-7 3-10a2 2 0 0 0-3 0c-2 1-2 4-3 6s-3 1-5 0c-2 0-4 2-2 3zM46 124c3-7 5-14 11-20a41 41 0 0 1 18-11c7-2 14-2 20 1 7 4 9 11 15 17 1 2 3 1 3-1 0-9-8-18-15-21a33 33 0 0 0-24-3c-16 4-33 20-32 38 0 2 3 2 4 0z"/><path class="cls-9" d="M88 139l1-1-2 1a4 4 0 0 0 4-1c2-3 3-7 2-10l-4 4h2l-3-2 4 10 5-5c-3-1-7-3-8 0-2 4 2 6 5 7a4 4 0 0 0 6-3c0-4-2-8-3-11-1-2-3-4-5-4h-3a4 4 0 0 0-3 5c0 4-2 7 0 10v-2 1c-1 2 1 2 2 1zM169 145a13 13 0 0 0 1-5 15 15 0 0 0 0-5c-2-4-8-4-8 1a37 37 0 0 0 0 5 16 16 0 0 0 2 4 3 3 0 0 0 5 0z"/><path class="cls-12" d="M37 132c-1 7-3 15 0 22 3 9 12 11 20 15a62 62 0 0 1 22 19c6 9 10 20 16 28 4 5 11 0 8-4-7-8-10-18-16-27a74 74 0 0 0-33-25c-4-1-9-2-12-6-4-6-1-15-2-22 0-1-2-2-3 0z"/><path class="cls-12" d="M93 213c1 6 11 8 15 8l14 3c6 0 10 0 15-2a2 2 0 0 0 0-4 23 23 0 0 0-12-3l-13-1h-9l-8-2c-2-1-2 0-2 2zM130 153c5 0 9-2 14-3l13-3a6 6 0 0 0-1-11c-5 0-11 2-15 5a102 102 0 0 0-12 9 2 2 0 0 0 1 3z"/><path class="cls-12" d="M122 215c5 4 14 4 20 3a90 90 0 0 0 14-3c8-3 5-13-3-12l-13 4-11 2c-3 0-6 1-8 3a2 2 0 0 0 1 3z"/><path class="cls-12" d="M114 201l4 10c1 3 3 7 6 8a2 2 0 0 0 3-3l-6-9-4-8c-2-2-4 0-4 2zM96 174c2 2 1 5 3 8 1 1 4 1 4-2-1-3-2-8-6-9-1 0-3 2-2 3zM107 169a25 25 0 0 0 2 3 20 20 0 0 1 2 4 3 3 0 0 0 2 2 2 2 0 0 0 2-1 2 2 0 0 0 1-2c-1-3-4-7-7-8a2 2 0 0 0-2 2zM59 150c6 2 15-1 21-2 7 0 6-9-1-8l-10 3-10 3a2 2 0 0 0 0 4zM121 168c-2 4 0 9 2 12 1 2 3 7 7 6s3-6 2-9a16 16 0 0 0-2-5 20 20 0 0 0-2-2 10 10 0 0 0-1-1c-2-1 0 1 0 1v3a4 4 0 0 0 0-5 3 3 0 0 0-5 2l1-2a2 2 0 0 0-1 1s-1 1 0 0v4l4 5a5 5 0 0 1 0 2 7 7 0 0 0 0 1l4-1-2-2a37 37 0 0 1-1-3l-3-7h-3z"/><path class="cls-12" d="M80 167c7 7 11 17 18 24 4 4 15 16 21 11 1-1 1-3-1-4l-4-1a23 23 0 0 1-5-4 67 67 0 0 1-9-8c-6-7-10-17-18-21a2 2 0 0 0-2 3z"/><path class="cls-12" d="M62 148c-2-2-5-1-6 2s2 5 3 7a41 41 0 0 0 20 15c3 0 10 1 8-4 0-2-3-3-5-3a27 27 0 0 1-8-3 41 41 0 0 1-9-6l-3-4-1-1 2-1a2 2 0 0 0-1-2z"/><path class="cls-12" d="M93 185a1 1 0 0 1-1 0 4 4 0 0 0-2 3c-2 5 1 12 4 16a45 45 0 0 0 12 13c5 3 10-2 9-7-1-4-1-7-3-10l-9 7a19 19 0 0 1 6 9l8-8c-12-2-18-14-25-23-7-11-15-22-28-24-3 0-6 1-7 4s1 7 4 8c12 1 18 13 24 22 7 11 15 22 28 25 5 1 9-3 8-8a31 31 0 0 0-10-13c-5-5-13 1-9 7l2 7 8-6c-4-3-8-8-11-13l-4-6a6 6 0 0 0-3-3c-1 0-1 1 1 1l-2-1z"/><path class="cls-2" d="M35 115c1-12 0-26 9-36a36 36 0 0 1 16-9 29 29 0 0 1 12-2l11 4c4 1 9-3 6-8-6-8-19-9-28-7s-17 7-22 14a84 84 0 0 0-8 44 2 2 0 0 0 4 0z"/><path class="cls-2" d="M86 69c3 1 7-1 9-2l11-3a2 2 0 0 0 0-3c-4-2-9-1-13 0-3 1-8 3-8 7a2 2 0 0 0 1 1z"/><path class="cls-13" d="M201 79c5 7 15 10 22 13 10 3 20 7 31 9 2 1 4-1 3-4-2-6 4-12 7-18 1-3-4-6-5-2-3 7-9 13-8 22l4-4-28-9-13-4-11-6a2 2 0 0 0-2 3z"/><path class="cls-13" d="M212 58c2 10 13 14 21 16l14 2a40 40 0 0 1 7 2l6 3a2 2 0 0 0 2-3c-1-4-7-5-10-6a120 120 0 0 0-14-2l-13-4c-4-2-6-6-9-10-2-2-4 0-4 2z"/><path class="cls-13" d="M204 78c3-6 13-12 11-20a2 2 0 0 0-3 0l-2 5a33 33 0 0 1-4 5c-2 3-5 6-5 9-1 3 2 3 3 1z"/><path class="cls-14" d="M491 98c0 10 14 17 23 19a37 37 0 0 0 17 2 22 22 0 0 0 7-3 6 6 0 0 0 3-7 3 3 0 0 0-2-2h-1a6 6 0 0 0-5 0 27 27 0 0 1-4 2 32 32 0 0 1-13 0 40 40 0 0 1-13-5l-8-8c-1-1-4 0-4 2zM331 39c-2 5-3 11-7 13-4 3-8 3-12 2-10-3-16-12-19-21-1-2-3-2-4 0-2 13 10 25 22 28 14 2 24-8 23-22 0-1-3-2-3 0z"/><path class="cls-15" d="M40 129c-2-1-2-4-4-6a32 32 0 0 1-2-5c-2-4-2-8-2-12 0-9 0-19 4-26 5-9 14-16 23-20a26 26 0 0 1 14-2c5 1 9 3 14 7 1 1 4 0 3-2-6-9-20-11-30-8-10 4-21 12-27 22-5 8-6 21-5 31 0 4 1 9 3 13 2 3 5 8 9 9a1 1 0 0 0 0-1z"/><path class="cls-15" d="M88 66c11-4 22-5 31 4a25 25 0 0 1 7 14c1 5-1 9-1 14a1 1 0 0 0 2 1c7-9 2-25-6-32-9-8-24-11-34-3a1 1 0 0 0 1 2z"/><path class="cls-15" d="M124 101c2-2 5-2 8 0s3 6 1 10a18 18 0 0 1-5 6l-7 4a1 1 0 0 0 1 1c4 3 9-2 12-5s6-8 5-13a11 11 0 0 0-9-9c-3 0-8 2-8 5a1 1 0 0 0 2 1zM55 170c-6-6-17-9-19-18-3-8 2-19 8-24a31 31 0 0 1 13-6 60 60 0 0 1 8-1c3-1 7-2 9 0 3 2 5 9 6 13 1 5 0 10 2 14a1 1 0 0 0 2 0c3-5 1-13 0-18-1-4-3-11-7-14h-7a99 99 0 0 0-11 1 38 38 0 0 0-16 6c-8 6-13 17-12 27 2 11 14 16 23 21l1-1z"/><path class="cls-15" d="M75 118h9c3 0 4-1 6 2l1 4 3 9 1 4 1 4c0 1 1 2 1 0h-1a17 17 0 0 0-2 0l-5-1c-2 0-5 0-6 2a1 1 0 0 0 0 1c2 3 7 2 11 2 2 0 7 0 7-4l-1-6-2-7-4-11a6 6 0 0 0-7-4l-12 2a2 2 0 0 0 0 3zM76 104l14 2h14a1 1 0 0 0 0-2c-4-2-9-2-13-2H76v2zM61 107c-5 2-11 7-14 11a1 1 0 0 0 1 1c6-1 11-5 15-9a2 2 0 0 0-2-3zM83 53a8 8 0 0 1 3 5l1 5a1 1 0 0 0 1 1c2-2 2-5 2-7a10 10 0 0 0-6-6c-1-1-3 1-1 2z"/><path class="cls-15" d="M90 65c1-3 3-6 6-8a13 13 0 0 1 4-2 4 4 0 0 0 2-1 1 1 0 0 0 0-2c-2-3-6 0-8 1-4 3-5 6-7 10a2 2 0 0 0 3 2zM59 153c5 1 10-1 15-1 4-1 9-1 12-4v-2c-4-1-9 0-13 1-5 1-10 1-14 3a2 2 0 0 0 0 3zM95 120c3-4 12-6 16-5 7 1 11 6 12 12 1 7-2 13-10 15-5 1-11 0-14-5a1 1 0 0 0-2 0c0 9 9 11 16 10 10-2 16-9 15-19-1-9-6-17-15-18-6-1-20 1-21 9 0 2 2 2 3 1z"/><path class="cls-15" d="M102 122l4-2c2 0 4 1 4 3s-2 3-3 3l-4 2a1 1 0 0 0 0 1c4 3 11-2 10-7s-9-5-12-2a1 1 0 0 0 1 2zM95 91a21 21 0 0 1 11 9c2 4 2 10 5 13a1 1 0 0 0 2 0c2-5-2-13-5-17s-8-7-13-7a1 1 0 0 0 0 2zM119 96c1 5 1 9-2 14 0 1-2 5 1 5 3-1 5-7 5-9a15 15 0 0 0-2-11 1 1 0 0 0-2 1z"/><path class="cls-15" d="M42 125l2-9a45 45 0 0 1 4-10 36 36 0 0 1 12-13c6-3 12-4 19-4 5-1 11 0 15 4 2 2 6 0 4-2-4-5-9-7-16-7s-15 1-22 4a35 35 0 0 0-15 15c-3 6-6 15-4 22a1 1 0 0 0 1 0zM61 152c4 12 20 17 31 15a35 35 0 0 0 17-8c3-3 9-10 8-15a2 2 0 0 0-3-1l-3 6a23 23 0 0 1-5 6 31 31 0 0 1-14 7 27 27 0 0 1-16-1c-6-2-9-6-14-10l-2 1z"/><path class="cls-15" d="M75 152c1 7 11 5 16 3s17-3 14-11c-1-2-5-1-4 1 1 4-8 5-10 6-3 1-13 7-14 0 0-1-2-1-2 1zM127 130l24-5c2-1 4-2 6 1l1 6 1 6c1 2 1 3-1 4l-27 11a1 1 0 0 0 0 2c7 0 13-4 19-6l9-3c3-1 5-2 5-5l-3-16c-1-3-2-5-6-5-5 0-10 2-14 3a137 137 0 0 0-15 5c-1 1 0 2 1 2z"/><path class="cls-15" d="M157 125h6c5-1 5 4 5 8l1 6 1 6h-10c-1 0-2 1-1 2 3 2 10 4 13 1 2 0 2-2 2-3l-2-11c0-3 0-9-3-12-4-4-7 0-11 0a1 1 0 0 0-1 2zM102 164c2 2 6 5 9 5s3-3 4-5c1-6 4-13 2-19a2 2 0 0 0-4 1c1 4 0 9-1 14l-1 3v2l-8-2-1 1zM79 165l13 11a2 2 0 0 0 2-1l7-12c1-2-2-4-4-2l-6 13 3-1-14-10a1 1 0 0 0-1 2z"/><path class="cls-15" d="M95 170c1 3 5 4 8 2s4-8 0-10a1 1 0 0 0-2 2c1 2 2 4 0 6a3 3 0 0 1-4-1c-1-1-2 0-2 1z"/><path class="cls-15" d="M103 166l6 12c2 4 4 8 7 10l2-2c0-3-3-7-5-10l-8-11a1 1 0 0 0-2 1zM98 173c2 2 2 7 3 10s1 6 3 8a1 1 0 0 0 2 0c1-4-1-10-2-13s-1-6-5-7c-1-1-2 1-1 2z"/><path class="cls-15" d="M110 166l2 6 3 9a50 50 0 0 1 1 18l3-1a46 46 0 0 1-15-11c-4-4-6-9-9-15a1 1 0 0 0-2 1c2 12 14 22 24 28a2 2 0 0 0 2-1 48 48 0 0 0 0-19 61 61 0 0 0-4-9c-1-2-1-5-3-6a1 1 0 0 0-2 0zM131 154c-4-1-2 6-1 8l9 15 11 17 9 14a1 1 0 0 0 2-1c-2-10-9-18-14-26l-9-13c-1-2-8-10-6-13a1 1 0 0 0-1-1zM51 169c5 3 10 4 14 8a79 79 0 0 1 9 12 173 173 0 0 1 15 25c1 2 4 0 3-2a156 156 0 0 0-16-27 63 63 0 0 0-10-11l-15-6v1zM191 129c4 6 14 11 7 19-7 7-16 1-24-3l-1 1c6 9 20 12 28 4s-1-18-9-22l-1 1z"/><path class="cls-15" d="M171 125l11-1c4 0 8-2 9 2 2 8-7 8-12 9a1 1 0 0 0 0 2c7 6 18-2 17-10a9 9 0 0 0-7-8c-3-1-6 0-8 1a41 41 0 0 0-11 3l1 2zM18 120c-3 1-11 2-10-3a4 4 0 0 1 4-4c2 0 4 2 6 1a1 1 0 0 0 0-1c0-3-5-3-7-3a7 7 0 0 0-6 7 6 6 0 0 0 4 7c3 1 7-1 10-2 1 0 0-3-1-2zM20 76c-3-1-5-5-6-9a14 14 0 0 1-1-2c0-2 0-2 2-3s3-1 4 1l3 2 1-1c-1-3-3-6-7-6a5 5 0 0 0-5 5c-1 5 3 14 9 15a1 1 0 0 0 0-2zM22 131a9 9 0 0 0-8 3 11 11 0 0 0-3 7c-1 2 1 5 3 5 3 1 5 0 7-2 1-1 0-2-1-2l-5 2c-2-1-1-4 0-5 1-3 4-5 7-6a1 1 0 0 0 0-2zM119 56c0-1 3-8 5-6v5l-1 4a1 1 0 0 0 1 1 9 9 0 0 0 3-7c0-2 0-5-2-6s-4 1-6 2a12 12 0 0 0-3 6c0 2 2 3 3 1zM135 84a8 8 0 0 1 4-1 12 12 0 0 1 2 1l1 1-4 2-4 1a1 1 0 0 0 0 1c3 2 12 0 12-4 0-3-3-4-5-5a10 10 0 0 0-7 1c-1 1 0 3 1 3zM142 95c2 0 6 1 7 3 2 5-6 3-8 2v1c2 2 10 3 10-2 0-4-5-6-9-6-2 0-2 2 0 2zM200 77a48 48 0 0 0 14-23l-2 1c7 11 20 16 33 18l12 3 5 1-2 5-7 20 2-1a69 69 0 0 0-28-9c-5-1-11-2-15-5-5-3-8-7-12-11-1-2-4 1-2 2 6 7 13 15 23 16l16 3a63 63 0 0 1 17 7 2 2 0 0 0 2-1c2-8 5-15 9-22 4-6-2-7-7-8-16-3-34-5-44-20a1 1 0 0 0-3 1 54 54 0 0 1-12 22 1 1 0 0 0 1 1z"/><path class="cls-15" d="M205 77c5-3 8-9 10-14h-2c5 8 14 12 23 14 5 2 10 2 16 3a9 9 0 0 1 2 0v2l-1 5-3 8h3c-4-6-13-6-20-8-5 0-10-1-14-3l-13-8c-2-2-4 1-3 2 7 6 13 10 22 11l14 2c4 1 9 2 12 6a2 2 0 0 0 3-1l3-9c0-2 2-5 1-7 0-4-6-3-9-3-12-2-26-5-34-15a1 1 0 0 0-2 0l-9 14 1 1zM210 61c-1-5-4-9-6-13-2-3-4-8-9-10-3-1-7 1-7 5-1 6 3 11 6 15l2-2c-4-3-11-4-13 2s6 9 10 10l1-3c-2-1-6-1-7 2-1 2 0 5 2 6 4 4 13 3 16-2a1 1 0 0 0-1-2l-5 2a7 7 0 0 1-4 1 13 13 0 0 1-3 0q-2-5 1-4c2 0 3-3 1-3s-5-1-6-3c-1-1-2-2 0-3q0-3 2-3l4 2c2 1 3-1 2-2a24 24 0 0 1-3-5 21 21 0 0 1-2-4l2-4c2-3 2-2 4 0a14 14 0 0 1 1 2l2 3 8 14a1 1 0 0 0 2-1zM264 83l16-5c4 0 9 2 6 6-2 3-6 3-9 3l1 3a13 13 0 0 1 3 0c1 2 1 4-2 4a14 14 0 0 1-6 1l1 3c1 3 0 5-2 5a7 7 0 0 1-3 0 15 15 0 0 1-4-2 17 17 0 0 1-6-6c-1-2-4 0-3 2 3 5 12 11 19 8 5-2 5-11-2-10a2 2 0 0 0 0 3c4 0 13-1 13-6 1-6-6-6-9-5-2 0-2 3 0 3 4 0 9 0 12-3a7 7 0 0 0 0-9c-6-8-20-1-26 4a1 1 0 0 0 1 1z"/><path class="cls-15" d="M212 80a14 14 0 0 0 5-5c1-1 3-4 2-6a1 1 0 0 0-1 0c-2 0-3 3-4 4l-3 6a1 1 0 0 0 1 1zM218 81a7 7 0 0 1 2-3 5 5 0 0 1 2-2l1 1-1 4a2 2 0 0 1-2 0h-1a1 1 0 0 0-2 1c1 3 5 2 6 1 2-2 3-5 2-7-1-3-4-3-5-1a6 6 0 0 0-3 6 1 1 0 0 0 1 0zM228 84a3 3 0 0 1 1-4 6 6 0 0 1 2-1l2 2-1 3a3 3 0 0 1-3 0 1 1 0 0 0-1 0c-1 3 3 4 5 3 3-2 3-6 2-8-1-4-5-3-7-1s-3 6 0 7a1 1 0 0 0 0-1zM239 86v-3h4l-1-1a2 2 0 0 1-1 3c-1 1-3 1-2 3h4a6 6 0 0 0 3-5 5 5 0 0 0-1-2 3 3 0 0 0-2-2 7 7 0 0 0-5 1 5 5 0 0 0-2 4c0 2 1 3 2 3a1 1 0 0 0 1-1zM288 73a5 5 0 0 1 3 3 25 25 0 0 1 1 3 1 1 0 0 0 1 1v-6a6 6 0 0 0-5-3 1 1 0 0 0 0 2zM295 72a3 3 0 0 1 2 2v2a1 1 0 0 0 1 0v-3a4 4 0 0 0-2-2c-1-1-1 1-1 1zM184 40a5 5 0 0 1 4-2 1 1 0 1 0 0-2 6 6 0 0 0-5 4h1zM181 37a6 6 0 0 1 4-2l4-1a1 1 0 0 0 0-2h-6a7 7 0 0 0-3 4l1 1zM266 80c-4 3-8 6-9 12a7 7 0 0 0 6 8c4 0 8-2 8-6 1-4-3-8-7-5 0 0 0 2 1 1 2 0 4 1 4 3a4 4 0 0 1-2 4 5 5 0 0 1-6-1c-5-5 2-11 6-14 1-1 0-2-1-2zM207 59c1 3 0 11-5 9-2 0-3-3-3-5 0-1 1-2 3-1a7 7 0 0 1 1 3 1 1 0 0 0 1 0 4 4 0 0 0-5-6c-4 1-3 7-1 9a6 6 0 0 0 9 2 10 10 0 0 0 2-12c-1-1-2 0-2 1zM18 89c-3-2-7-5-12-3a8 8 0 0 0-6 6c-1 9 13 6 18 6a1 1 0 0 0 0-1c-4-1-12 2-15-2-2-3 2-6 5-7l9 3a1 1 0 0 0 1-2zM37 52l-1-6 1-8c2-6 6 1 7 3a19 19 0 0 0 2 4h1c-2-4-4-15-11-11-2 1-2 4-2 6l1 12h2zM109 90a48 48 0 0 1 3 22h1a33 33 0 0 0-3-23l-1 1z"/><path class="cls-15" d="M115 100a22 22 0 0 1-3 14h1c3-4 5-9 4-14h-2zM118 171a26 26 0 0 0 4-2c3-1 4-2 6 1s4 8 3 11c-1 6-6 6-8 1l-3-12a1 1 0 0 0-2 1l2 7 2 8c1 2 5 2 8 2a1 1 0 0 0 1 0c1-3 4-6 3-9 0-3-3-7-4-10-1-2-2-4-4-4-3 0-7 3-9 5l1 1z"/><path class="cls-15" d="M119 175a20 20 0 0 0 5-2l3-3a1 1 0 0 0-1-1l-3 2a19 19 0 0 0-4 3v1zM205 115a8 8 0 0 0 5 5 4 4 0 0 0 5-2v-1a5 5 0 0 1-5 2l-4-4a1 1 0 0 0-1 0zM210 110a7 7 0 0 0 4 5c3 0 5 0 7-2l-1-1-5 1a5 5 0 0 1-4-4 1 1 0 0 0-1 1zM217 102c1 5 8 9 12 4v-1c-4 2-9 1-10-4-1-1-3-1-2 1zM309 147c7-7 13-17 19-26l19-35c5-9 9-18 12-28l2-6c2-5 6-6 11-7a90 90 0 0 1 26-1 93 93 0 0 1 54 23c3 3 8-2 5-4a100 100 0 0 0-76-26c-7 1-18 1-24 8-3 4-3 10-5 14l-6 15-20 37c-6 11-12 23-20 34-1 2 1 4 3 2z"/><path class="cls-15" d="M366 58l14 5a76 76 0 0 1 14 9l-1-2c-2 9-12 13-19 7-7-5-6-14-10-21a1 1 0 0 0-2 1c0 5 2 11 4 16 2 4 5 8 10 9 9 4 18-2 20-11a2 2 0 0 0 0-2c-9-6-20-12-30-12v1zM408 74l19-1h18l-2-2c-2 8-10 14-19 13a20 20 0 0 1-11-5c-4-2-5-6-7-9h-2c-1 10 11 18 20 18 10 1 20-6 23-16a2 2 0 0 0-2-3c-12 0-26-1-38 2a1 1 0 0 0 1 3zM461 122a72 72 0 0 0 18-8c5-3 12-7 15-13l-1-1c-6 2-11 7-16 10l-17 10a1 1 0 0 0 1 2z"/><path class="cls-15" d="M493 98c-1-6-4-16 3-20 6-3 11 5 12 9 2 6 4 7 9 7 7 0 14 0 19 5s3 12-4 15c-4 2-10 2-15 1-11 0-20-5-27-14a1 1 0 0 0-1 0c3 10 13 16 22 17 9 2 23 3 29-5 7-9-1-19-10-22a37 37 0 0 0-9-1h-5c-3-1-3-3-4-5-2-5-5-9-9-11-5-2-10 0-13 5-4 6-3 13-1 20a2 2 0 0 0 4-1zM476 55c-1-4 0-10 3-13 4-3 10-3 13 1 4 4 2 11-2 14s-11 1-16-1l-1 2a15 15 0 0 0 21 1c5-5 7-13 2-19-5-5-13-6-18-2a15 15 0 0 0-4 18 2 2 0 0 0 2-1zM318 50c-3-2-2-10 0-13s6-4 10-5c11-1 3 18 2 22l1 1c6-4 7-12 7-18 0-2-1-6-3-8s-5-1-8-1c-5 1-11 3-14 9-1 4-1 13 4 15l1-2z"/><path class="cls-15" d="M318 33c-5-8-17-14-26-12a10 10 0 0 0-8 9c-1 6 0 13 2 18 5 11 18 14 29 15 5 1 11 1 15-2 2-2 6-6 2-9a1 1 0 0 0-1 0 4 4 0 0 0-1 2l-4 5h-14c-8-2-18-4-22-12-2-4-2-9-2-13l1-6c1-2 4-3 6-3 8 0 15 4 21 9 1 2 3 0 2-1z"/><path class="cls-15" d="M330 55c0 6 2 12 3 17s1 12 4 16a1 1 0 0 0 2 0c2-5 0-11-1-16l-4-17c-1-2-4-2-4 0zM537 68c-2-1-1-4 1-5s5 1 6 3a7 7 0 0 1 1 3c1 1-1 1-3 2l-5-2a1 1 0 0 0-1 0c-2 4 4 5 7 5s5-1 6-3c0-3 0-5-2-7-2-4-7-6-11-3-3 2-4 6-1 9l2-2zM526 159c-2-5-4-12-2-17 2-7 11-7 16-3a11 11 0 0 1 3 15 11 11 0 0 1-7 4c-3 1-6 0-9-1-1 0-2 1-1 2 4 6 16 3 20-2a16 16 0 0 0-3-22c-6-4-16-5-21 2-5 6-3 19 3 24l1-1zM523 42c-3-4 0-11 5-8 2 1 4 4 2 6s-6 0-9 1a1 1 0 0 0 0 2c3 3 10 2 13-2s0-8-4-10a8 8 0 0 0-10 2c-2 3-2 7 1 10l2-1zM249 141c-5-3-5-10-3-14 4-6 10-6 15-2a9 9 0 0 1 1 11c-2 4-7 6-12 6v1c7 2 14 1 17-6 2-7-1-14-7-17a12 12 0 0 0-17 7c-2 5-1 15 6 15a1 1 0 0 0 0-1zM399 37c7-1 11-6 16-11 2-3 5-6 9-8 4-4 8-3 13-1 6 1 9-2 13-6 3-4 6-5 11-5 3 0 6 0 8-2a1 1 0 0 0 0-2h-12a12 12 0 0 0-7 3l-6 7c-3 3-7 1-11 0-16-3-22 19-34 24v1zM426 44c6 1 12-2 17-5a65 65 0 0 1 7-5l10-3c5 0 8-3 9-7 1-3 2-5 4-6a16 16 0 0 1 5 0l7-1a1 1 0 0 0 0-2c-5 1-11-1-15 2a9 9 0 0 0-3 5c-1 4-2 6-6 7-6 1-10 1-15 5-6 4-12 9-20 8v2zM455 66c-2 2-3 7-3 10a97 97 0 0 0-1 14 166 166 0 0 0 3 32c5 23 13 47 28 66 2 4 8 1 5-3a195 195 0 0 1-25-64 217 217 0 0 1-4-31V77l-1-11a1 1 0 0 0-2 0zM380 116l-2-12-1-6c1-3 3-4 5-5a27 27 0 0 1 21 1 26 26 0 0 1 7 5l3 4-1 3a70 70 0 0 0-13 15l3-1a32 32 0 0 0-22-4c-3 1-2 5 1 4a26 26 0 0 1 19 4 2 2 0 0 0 3-1 86 86 0 0 1 10-12c2-2 6-5 5-8 0-3-4-7-7-9a31 31 0 0 0-10-5c-7-3-18-2-24 3a8 8 0 0 0-3 8 96 96 0 0 0 5 16 1 1 0 0 0 1 0zM375 145c-4-8 8-14 14-14a16 16 0 0 1 10 4c3 2 3 5 3 9l1 1c5-2 3-8 1-12a19 19 0 0 0-15-6 19 19 0 0 0-14 6c-3 4-5 9-1 13a1 1 0 0 0 1-1zM366 130c-3 1-3 5-2 8 0 3 0 9 4 10a1 1 0 0 0 1-1l-2-6c-1-2-2-7 0-9 1-1 0-2-1-2zM364 129l-17-4c-3-1-7-2-8 2s-6 24 3 25a2 2 0 0 0 1-2 1 1 0 0 0 0-1c-3-2-3-21 1-21l5 2a38 38 0 0 0 5 1 32 32 0 0 0 10 0v-2zM412 148c4-1 6-6 7-10l-2 2h11l12 1-2-2v8a1 1 0 0 0 2 1c3-2 5-10 1-12h-24a2 2 0 0 0-2 2c0 3-2 5-4 8-1 1 0 2 1 2z"/><path class="cls-15" d="M402 143a5 5 0 0 1-2 1 11 11 0 0 1-2 2l-2 2a10 10 0 0 0-2 2 1 1 0 0 0 1 1 5 5 0 0 0 4 0 11 11 0 0 0 3-3c1-1 4-5 1-6a1 1 0 0 0-1 1zM432 51c-2 3-2 8-3 11 0 4 0 8 3 11a1 1 0 0 0 1-1V62l1-11h-2zM434 84c-1 7 4 14 8 19 1 2 11 11 12 4a1 1 0 0 0-1-2l-6-3a35 35 0 0 1-5-6l-6-12h-2z"/><path class="cls-15" d="M426 56l7 3c2 1 2 2 2 4s-1 1-2 1a14 14 0 0 0-3-1l-3-1c-2-1 0-5 0-7a1 1 0 0 0-2-1l-1 6c0 2-1 4 1 4a4 4 0 0 0 2 1 25 25 0 0 1 3 0l5 2a3 3 0 0 0 2-3v-5c-1-2-2-1-4-2a38 38 0 0 0-7-2v1zM431 96c4-2 7-6 10-9h-2c2 2 4 4 4 6q2 2 0 2l-1 1-3 3-3 2h-1a9 9 0 0 1-1-2c-2-1-2-3-3-5a1 1 0 0 0-1 1c-1 2 1 5 2 7 3 3 4 2 7 0l5-5 3-2c1-1-1-2-1-3l-4-6a1 1 0 0 0-2 0c-4 2-8 5-10 9l1 1zM442 109l4-7c1-2 2-3 5-1a4 4 0 0 0 2 1 1 1 0 0 0 1 0c0-3-5-6-7-5l-3 4-3 7 1 1z"/><path class="cls-15" d="M441 110l6 4 5 2a1 1 0 0 0 0-1l-4-3-6-4a1 1 0 0 0-1 2zM341 96a32 32 0 0 0 7 3l3 2c2 1 1 4 1 6l-7 14 2-1-8-4-6-3a1 1 0 0 0-1 2c3 4 10 6 14 7a1 1 0 0 0 2-1c2-6 7-12 7-19 0-3-1-3-3-4l-10-3-1 1z"/><path class="cls-15" d="M346 103c3-3 6-7 6-11h-1l-6 10c-1 1 0 2 1 1zM350 105a33 33 0 0 0 3-3 9 9 0 0 0 3-3h-1l-6 4c-1 1 0 2 1 2zM349 110a10 10 0 0 1 3 1 8 8 0 0 0 3 1 1 1 0 0 0 0-1c-1-3-4-3-6-3a1 1 0 0 0 0 2zM345 116c2 1 5 3 8 3a1 1 0 0 0 0-1c-2-2-5-2-8-3v1zM337 115a19 19 0 0 0-1 6l1 1a19 19 0 0 0 2-7h-2zM341 115l1 6h1a14 14 0 0 0 0-6h-2zM384 42a50 50 0 0 0-5 10l1 1 9-2-2-1a43 43 0 0 0 3 8 1 1 0 0 0 1 0l6-6h-1c1 1 4 6 7 6 2-1 0-6 3-5 2 0 5 3 7 1v-3-8c0-2-2-2-2 0a39 39 0 0 1 0 6c0 2 0 4-3 2l-4-2c-2 1-2 4-2 5 0 2 1 1-1 0l-4-4a1 1 0 0 0-1 0l-6 7h2a43 43 0 0 1-3-8 1 1 0 0 0-1 0l-8 2 1 1 4-9c1-1-1-2-1-1zM375 71a2 2 0 0 1 3-2l2 4h1a4 4 0 0 0-4-6c-2-1-5 2-3 4h1zM290 129c-5-1-7-9-5-13 4-6 11-6 15-1 5 5 5 11-1 14-3 2-6 1-8-1a13 13 0 0 0-4-3 1 1 0 0 0-1 1c3 3 4 7 8 7 3 1 7-1 9-3 7-6 4-15-3-20-7-4-17-1-18 7-1 5 2 15 8 13v-1zM510 103a19 19 0 0 0 3-8c0-2 1-4-1-6a1 1 0 0 0-2 1v5a16 16 0 0 1-2 7 1 1 0 0 0 2 1zM464 150c9-3 14-10 16-19l-2 2a86 86 0 0 1 10 2l9 2c3 2 2 6 2 9a73 73 0 0 0 0 8 79 79 0 0 0 8 32c1 2 5 0 4-2a73 73 0 0 1-8-40c0-5 0-8-5-10a83 83 0 0 0-20-5l-2 2c-1 7-6 14-12 18v1zM419 79c1-2 3-4 6-3 2 1 2 3 2 5h2a6 6 0 0 0-5-7 6 6 0 0 0-6 6h1zM382 95a11 11 0 0 0 1 8 1 1 0 0 0 2 0l6-6c1-2 4-3 4-6a1 1 0 0 0-1 0c-2 0-4 3-5 4l-6 6 2 1a8 8 0 0 1-1-7c0-1-2-2-2 0zM311 78a19 19 0 0 1 4 1h3c2 1 2-2 1-3-2-2-6-1-9 0-1 0-1 3 1 2z"/><path class="cls-15" d="M313 71l-1 12a1 1 0 0 0 2 1c2-4 2-9 1-13 0-2-2-1-2 0zM502 10a27 27 0 0 1 5 0h5a1 1 0 0 0 0-1c-2-3-8-3-11-2-1 1-1 3 1 3z"/><path class="cls-15" d="M505 1c0 5-1 11 1 16a1 1 0 0 0 1 0l1-16a1 1 0 0 0-3 0zM251 31l7 2h6v-1c-1-2-4-2-6-2l-6-1-1 2z"/><path class="cls-15" d="M257 23c-2 5-2 12-1 17h1c2-5 3-12 3-17a1 1 0 0 0-3 0zM471 86a34 34 0 0 0 7 1c2 0 4 1 5-1a1 1 0 0 0 0-1c-1-2-3-2-5-2a34 34 0 0 0-7 1 1 1 0 0 0 0 2z"/><path class="cls-15" d="M476 75a56 56 0 0 0 1 20 1 1 0 0 0 1 0 56 56 0 0 0 2-20c-1-2-4-2-4 0zM219 153a39 39 0 0 0 12 1c1-1 2-1 1-2-4-3-9-3-13-1a1 1 0 0 0 0 2z"/><path class="cls-15" d="M225 143a64 64 0 0 0 1 21 1 1 0 0 0 1 0 64 64 0 0 0 1-21 1 1 0 0 0-3 0zM116 199a78 78 0 0 0 4 8c1 3 2 6 5 7a1 1 0 0 0 1-1l-3-6a81 81 0 0 0-5-9c-1-1-2-1-2 1zM125 203l-2-3v1a4 4 0 0 1 6 2l1-1c-2 2-4 1-6 1a1 1 0 0 0 0 1c1 2 5 2 7 0a1 1 0 0 0 0-1 6 6 0 0 0-9-3 1 1 0 0 0 0 1l2 3 1-1z"/><path class="cls-15" d="M21 177c20 25 52 41 83 47 16 2 33 4 48-2a43 43 0 0 0 19-13c4-5 8-12 14-17 7-5 16-4 24-2s16 4 25 3c3 0 2-5-2-5-7 2-15 0-23-2-6-2-13-4-19-4-8 0-15 4-19 9s-8 12-13 17c-12 9-30 11-44 10a129 129 0 0 1-47-11c-17-7-32-18-45-31a1 1 0 0 0-1 1zM458 183c11 7 22 12 35 14 10 0 23-3 29-13 1-3 0-5-1-7a5 5 0 0 0-3-2c-2 0-5 0-6 2-3 3-5 6-9 8a28 28 0 0 1-12 4c-11 1-22-5-32-9-2 0-2 2-1 3zM538 142c-2-1-5-3-8-2-2 1-4 3-3 5 0 3 4 2 6 2a23 23 0 0 1 2 1 10 10 0 0 1 2 1l1 2c-1 2-6 1-7 2a1 1 0 0 0 0 2c3 1 13-2 9-7-2-2-5-3-7-3a13 13 0 0 1-3 0v-2l1-1c2-1 5 0 7 1v-1z"/><path class="cls-15" d="M530 140a53 53 0 0 0 4 19h2l-4-19c0-2-2-1-2 0zM534 140a38 38 0 0 0 4 16l1-1-4-16-1 1zM491 44c-3-1-6-2-9 0a5 5 0 0 0-3 6 1 1 0 0 0 1 0 39 39 0 0 1 4 0l5 1c2 1-1 2-2 2a36 36 0 0 1-4 1 1 1 0 0 0 0 1c2 1 9-1 9-4 0-2-2-2-4-2a41 41 0 0 0-8 0h1c-1-2 1-3 3-4s4 0 6 1c1 0 2-1 1-2z"/><path class="cls-15" d="M482 42c1 7 2 13 5 19l1-1-4-18h-2zM487 41l3 15h1l-3-15h-1zM298 118c0-3-3-4-5-4a6 6 0 0 0-5 6 1 1 0 0 0 1 2 7 7 0 0 0 3 0l4-1c3 1 0 4-1 4h-4a1 1 0 0 0-1 1c4 2 10 1 9-4 0-5-6-2-9-3l1 1a3 3 0 0 1 3-3c1-1 2 0 4 1z"/><path class="cls-15" d="M289 113c2 6 3 13 6 18h1l-6-18h-1zM293 112c1 6 3 13 6 18h1l-6-18h-1zM260 125c-4-2-10 1-12 4a1 1 0 0 0 0 2 6 6 0 0 0 4 1l5-2c3 1 2 3 0 4a16 16 0 0 1-3 1h-6a1 1 0 0 0 0 1c2 2 6 1 8 0 2 0 5-1 6-4 0-2-2-3-4-4-3 0-6 3-9 1l1 2c2-4 5-4 9-4l1-2z"/><path class="cls-15" d="M250 126l4 16h1l-4-17-1 1zM253 123c0 6 1 12 4 17l1-1-4-16h-1zM311 142l-20 28-11 15a55 55 0 0 1-5 5c-2 2-4 3-4 5a1 1 0 0 0 1 1c4 1 7-4 10-7l11-14c7-10 14-20 19-32a1 1 0 0 0-1-1z"/><path class="cls-15" d="M232 190c11 2 21 3 31 7 10 3 19 7 29 8 20 2 40-5 59-13 19-7 39-14 61-14 10 0 19 3 28 6l14 5 17 4c5 2 9 7 14 9 5 1 10 0 15-1 9-4 20-11 22-21a4 4 0 0 0-4-4c-9 1-15 9-23 12a48 48 0 0 1-11 2h-2a27 27 0 0 1-4 0l-7-4c-5-2-8-6-12-8a134 134 0 0 0-15-6 90 90 0 0 0-29-6c-20 0-40 8-57 15-19 8-38 17-59 18-12 0-22-4-33-7s-22-5-34-3v1zM372 143c-2 3 0 8 3 11a17 17 0 0 0 23 1c3-2 7-6 5-10a1 1 0 0 0-2 0l-5 5a13 13 0 0 1-8 4 12 12 0 0 1-9-3l-5-8a1 1 0 0 0-2 0zM366 146c-1 3 1 6 2 9l2-3c-8 1-12 11-19 14l3 1c-6-6-14-15-13-24a1 1 0 0 0-2-1c-3 4-1 10 0 14 3 5 7 10 12 14a2 2 0 0 0 2 0 29 29 0 0 0 8-6c3-3 6-7 9-8a2 2 0 0 0 1-3c-2-2-2-5-3-7a1 1 0 0 0-2 0z"/><path class="cls-15" d="M412 147l-6 7a31 31 0 0 1-8 5 2 2 0 0 0-1 4c4 3 1 10 7 12a2 2 0 0 0 2-2l-2-7a12 12 0 0 0-3-6l-1 3c6-3 13-8 14-15 0-2-2-2-3-1zM439 142l-4 8a44 44 0 0 1-5 9 37 37 0 0 1-7 7c-3 1-6 2-7 5a2 2 0 0 0 1 2c3 2 6-1 8-2a42 42 0 0 0 9-9c4-4 9-13 7-19a1 1 0 0 0-2-1z"/></g></g></svg>