<svg xmlns="http://www.w3.org/2000/svg" viewBox="0 0 839.5 457.6"><defs><style>.cls-10,.cls-15{fill:#221e1f}.cls-5{font-family:NotoSansCJKtc-Medium-B5pc-H,Noto Sans CJK TC}.cls-4,.cls-5{font-size:22.75px}.cls-16,.cls-4,.cls-5{fill:#58595b}.cls-10,.cls-16,.cls-4{font-family:NotoSansCJKtc-Regular-B5pc-H,Noto Sans CJK TC}.cls-8{fill:#007a75}.cls-9{fill:#f8e046}.cls-10{font-size:22.75px}.cls-15{font-size:28.44px;font-family:NotoSansCJKtc-Bold-B5pc-H,Noto Sans CJK TC}.cls-16{font-size:19.91px}.cls-19{letter-spacing:.25em}</style></defs><g id="Layer_2" data-name="Layer 2"><g id="圖"><text transform="translate(142.5 101.2)" font-family="NotoSansCJKtc-Medium-B5pc-H,Noto Sans CJK TC" fill="#221e1f" font-size="34.1">各年備轉容量率低<tspan x="273" y="0" letter-spacing=".3em">於</tspan><tspan x="315.7" y="0">6</tspan><tspan x="335.1" y="0" letter-spacing=".3em">%</tspan><tspan x="375.7" y="0">的天數比例</tspan></text><text class="cls-4" transform="translate(0 154.4)">100 %</text><text class="cls-4" transform="translate(12.6 213.4)">75 %</text><text class="cls-4" transform="translate(12.6 272.4)">50 %</text><text class="cls-4" transform="translate(12.6 331.4)">25 %</text><text class="cls-4" transform="translate(25.3 390.4)">0 %</text><text class="cls-5" transform="translate(162.8 433.7)">2016</text><text class="cls-5" transform="translate(334.2 433.7)">2017</text><text class="cls-5" transform="translate(508.7 433.7)">2018</text><text class="cls-5" transform="translate(692.8 433.7)">2019</text><path fill="#fff" d="M64.5 145.7h774.9v249.9H64.5z"/><path d="M90.3 394.1h727.6m-727.6 0V146m727.6 248.2V146m-727.6 0h727.6M90 208.6h727.5M89.8 270h727.6M89.8 332.6h727.6" fill="none" stroke="#b7b7b7" stroke-width="2.8"/><path class="cls-8" d="M126.8 340.5h123.9v53.9H126.8zM300.2 325.6h123v68.8h-123zM472.7 374.9h123.9v19.5H472.7z"/><path class="cls-9" transform="rotate(-81.5 742.5 323.8)" d="M700.4 240.6h84.1v166.5h-84.1z"/><path class="cls-9" transform="rotate(-81.5 557.7 230)" d="M515.6 158.7h84.1v142.5h-84.1z"/><text class="cls-10" transform="rotate(8.5 -1720.6 4698)">每日預計穩定</text><text class="cls-10" transform="rotate(8.5 -1950.2 4680.9)">高<tspan x="22.8" y="0" letter-spacing=".3em">於</tspan><tspan x="51.2" y="0">10 %</tspan></text><text transform="rotate(8.5 -1188.3 3502.5)" letter-spacing=".3em" font-size="22.8" font-family="NotoSansCJKtc-Regular-B5pc-H,Noto Sans CJK TC" fill="#221e1f">6<tspan x="18.3" y="0" letter-spacing="0">月後每日</tspan></text><text class="cls-10" transform="rotate(8.5 -1243 4238)"></text><text class="cls-10" transform="rotate(8.5 -1417.9 3485.4)">皆高<tspan x="45.5" y="0" letter-spacing=".3em">於</tspan><tspan x="73.9" y="0">6％</tspan></text><text class="cls-15" transform="translate(157.8 293.5)">22％</text><text class="cls-15" transform="translate(327.8 276.7)">28％</text><text class="cls-15" transform="translate(512 334.4)">8％</text><text class="cls-16" transform="translate(165.3 321.6)">8<tspan x="11.1" y="0" letter-spacing=".3em">0</tspan><tspan x="27.1" y="0" letter-spacing="0">天</tspan></text><text class="cls-16" transform="translate(329.6 305.7)">10<tspan class="cls-19" x="22.1" y="0">4</tspan><tspan x="38.1" y="0">天</tspan></text><text class="cls-16" transform="translate(511.1 360.1)">2<tspan class="cls-19" x="11.1" y="0">9</tspan><tspan x="27.1" y="0" letter-spacing="0">天</tspan></text><text transform="translate(254.3 31.6)" font-size="35.9" fill="#929496" font-family="NotoSansCJKtc-Bold-B5pc-H,Noto Sans CJK TC">【備載容量小知識】</text></g></g></svg>