<svg xmlns="http://www.w3.org/2000/svg" viewBox="0 0 373 316"><defs><style>.cls-1{fill:#ffe9a1}.cls-2{fill:#ff9f36}.cls-3{fill:#bbac77}.cls-4{fill:#f79291}.cls-5{fill:#f54782}.cls-7{fill:#b56c6a}.cls-8{fill:#fff}.cls-9{fill:#221714}</style></defs><g id="Layer_2" data-name="Layer 2"><g id="圖"><path class="cls-1" d="M64 262h18l10 4 19-7h5l5 15-1 3-28 18-15 8-16-4-13-9-6-16 8-9 14-3z"/><path class="cls-2" d="M154 257a90 90 0 0 0 43 10c16 0 26-5 26-5s-4 12 8 23c13 10 25 3 43 0s-79 19-79 19l-12-12-26-13zM120 261c1 0 20 2 33-4l1 14 3 9-5 7-8 4-11-3-11-16z"/><path class="cls-3" d="M48 277c0 13 13 25 26 26 9 0 14-8 21-12a87 87 0 0 1 27-12c5-2 3-10-2-8a94 94 0 0 0-36 17c-3 2-6 6-10 6-3 1-7-1-10-3-6-3-10-9-13-15a2 2 0 0 0-3 1"/><path class="cls-3" d="M60 271c3 5 11 7 16 7 5 1 5-6 0-6a53 53 0 0 1-8-1l-7-1a1 1 0 0 0-1 1"/><path class="cls-4" d="M151 58l-24-6-31 13-15 35 10 48 5 3 11-24 18-20 24-9 8 9 7 6 19 11 15 5 3 19-3 15-6 10 16-8 1-7 2-12 3-12 9-11 4-11-3-27-6-10-16-14-16-5-17 1-14 4-4-3zM86 170l1 15-6 9-14 6H56l5 13 18 7 23 2 17-8 8-8-11-11-9 3-6-4-4-8 1-8-12-8z"/><path class="cls-1" d="M97 148l-14 3-5 9 8 10 12 8 11-9 6 21 16 17 21 6 25-2 23-17 10-19 1-13-9 7-10 4 8-16 1-13-3-15-22-8-12-7-8-10-7-6-11 1-13 8-13 11-10 16z"/><path class="cls-1" d="M214 134l-5 24 8-5 7-8 2-9-5-6-7-2v6zM281 104l7-7 13 6 5 11-6 22 9 3 8 12v18l-8 10h-11l-9 6-6 7-18 23-10 27-16-16-3-27 9-16 23-21 7-21 6-37zM159 210l7 9-1 10v14l10 4 14-1 11-3 7-14v-17l-10-6-4-9-34 13z"/><path class="cls-2" d="M256 246l3-16 10-18 8 15-1 15-20 4z"/><path class="cls-1" d="M255 247l4-18 10-18 9 16-2 15zm5-17l-3 15 18-4 2-14-8-13z"/><path class="cls-5" d="M148 195l-5-13v-9h9l6 8 2 13-3 4-9-3z"/><path d="M4 188s20-20 34-14v19s-3 25 19 42l-25 23s-9 5-14-5-14-44-14-65" fill="#8fb9d1"/><path class="cls-3" d="M252 243c5-7 9-17 13-25a116 116 0 0 1 17-25c1-2 2-5 0-7a6 6 0 0 0-2-2 6 6 0 0 0-6 1 127 127 0 0 0-18 27c-4 8-9 19-9 29 0 2 3 4 5 2"/><path class="cls-3" d="M273 181c4 6 12 6 17 3 6-4 9-12 7-18-1-3-4-6-7-4-3 1-2 5-2 8 1 7-7 10-14 8a2 2 0 0 0-1 3M308 141c1 7 6 32-6 31a2 2 0 0 0-1 1c-2 3 0 7 3 8 5 2 10-1 12-5 6-11 2-27-5-37-1-1-3 1-3 2"/><path class="cls-3" d="M285 104c10 2 8 20 6 27-2 10-4 19-3 29 0 3 5 3 5 0 0-10 4-17 8-26 3-6 3-13 2-20-1-5-2-11-7-15a9 9 0 0 0-11 2 2 2 0 0 0 0 3M165 218c7 7 25 3 31-4 5-5 0-13-7-12-5 1-11 5-15 7-3 2-7 4-9 7a2 2 0 0 0 0 2M98 151c6-3 9-8 13-13l13-14a68 68 0 0 1 13-11c5-3 11-3 14-7a3 3 0 0 0 0-5c-10-5-25 9-31 15a136 136 0 0 0-13 15c-5 6-10 12-11 19 0 1 1 2 2 1"/><path class="cls-3" d="M147 103c7 9 12 18 20 25 9 6 21 9 31 8 4-1 4-7 0-7-11-1-21-4-29-12-7-5-11-15-19-17-2-1-4 1-3 3"/><path class="cls-3" d="M192 133l-2 21-7 20c-1 4 5 8 8 4 9-11 14-32 7-46-2-2-6-2-6 1"/><path class="cls-3" d="M188 181c9 3 17-4 22-10 3-5-4-10-7-5-4 6-10 8-15 12a2 2 0 0 0 0 3"/><path class="cls-7" d="M100 146l6-17a108 108 0 0 1 11-16c4-5 8-9 14-11 6-1 12-1 17-3a3 3 0 0 0 1-5c-15-8-30-1-39 11-8 11-21 27-14 42 0 2 3 1 4-1M152 99c1 7 9 12 14 15a81 81 0 0 0 24 12c8 2 17 4 25 0 6-2 10-9 6-15a3 3 0 0 0-5-1l-5 6c-4 2-8 1-12 1a75 75 0 0 1-18-6 113 113 0 0 1-14-8c-4-2-8-6-13-6a1 1 0 0 0-2 2M199 133c0 12 2 22-4 34l6 3a63 63 0 0 0 10-35c0-4-6-4-6 0a53 53 0 0 1-10 32c-2 3 3 6 6 3 9-9 7-26 3-38-1-2-5-2-5 1M57 207c12 15 57 22 59-5l-8 5 4 2-1 1c-2 0-3 2-3 3 0 7 10 5 12 2 6-7 0-15-7-18-3-2-7-1-8 3-2 9-14 9-21 9-9 0-18-2-26-4a1 1 0 0 0-1 2"/><path class="cls-8" d="M150 71c12-7 27-8 39 0 11 7 17 21 26 32 1 1 4 0 4-2 0-17-13-35-29-42-14-7-31-1-41 10a1 1 0 0 0 1 2"/><path class="cls-8" d="M86 83c6-13 15-20 29-21a37 37 0 0 1 18 2c5 2 8 6 14 6 1 0 2-1 2-3-1-7-9-10-15-12a40 40 0 0 0-23-1c-12 3-27 15-26 28l1 1M206 213c12 2 32-6 33-19 1-3-2-4-4-3-5 2-9 8-14 11l-15 7c-2 0-2 4 0 4M125 249c4 0 7 2 12 0l12-7c6-3 18-9 17-17l-2-2c-4 0-5 2-7 4a79 79 0 0 1-11 9l-11 7-11 4a1 1 0 0 0 1 2M246 192c7-2 13-9 19-14s10-10 13-17c3-8 4-16 5-24 1-9 2-18 1-27a1 1 0 0 0-2 0c-4 7-4 14-5 21a94 94 0 0 1-5 24c-3 7-7 13-13 18s-12 10-15 17a1 1 0 0 0 2 2"/><path class="cls-5" d="M180 156a27 27 0 0 0 5 2 8 8 0 0 0 5 1v-1a8 8 0 0 0-3-3 29 29 0 0 0-6-2 1 1 0 0 0-1 3M190 151a14 14 0 0 0 4 2h5a1 1 0 0 0 0-2c-1-2-2-2-4-2a14 14 0 0 0-5-1v3"/><path class="cls-9" d="M97 150c5-11 11-22 20-32 8-9 20-18 33-18 3 0 3-4 1-4-14-2-26 8-35 17a80 80 0 0 0-20 37 1 1 0 0 0 1 0z"/><path class="cls-9" d="M151 99c-1 10 12 18 20 23 12 6 25 12 38 14 3 0 5-5 1-6-10-3-21-5-31-10-9-5-22-12-25-22a1 1 0 0 0-3 1z"/><path class="cls-9" d="M214 131c11 0 9 12 4 18-3 4-8 5-11 9-1 2 0 3 2 3 8-1 17-11 18-20 0-7-5-14-13-13a2 2 0 0 0 0 3z"/><path class="cls-9" d="M100 158c7 6 5 16 6 24a44 44 0 0 0 10 19c11 14 27 15 43 11s34-8 45-22a34 34 0 0 0 7-20c1-10-2-20 2-29 1-3-3-5-5-2-7 14 2 30-6 44-9 16-28 20-44 24-18 5-36 1-45-17-3-7-4-14-5-21-1-5-3-9-7-12l-1 1z"/><path class="cls-9" d="M117 164c-3-7-6-14-4-21a13 13 0 0 1 7-7h9a2 2 0 0 0 1-3c-5-6-15 0-19 5-5 9-2 20 4 27l2-1z"/><path class="cls-9" d="M125 142a41 41 0 0 0 3 13c1 2 6 1 5-2a41 41 0 0 0-4-12c-1-2-4-1-4 1zM153 150c-5-11-1-24 12-24 3 0 3-5 0-5-15 0-25 19-14 30a1 1 0 0 0 2-1z"/><path class="cls-9" d="M162 134l2 14c1 3 5 3 5 0l-2-14c-1-3-5-2-5 0zM149 196a50 50 0 0 1-5-12c-1-2-2-5-1-7 0-4 4-5 7-3 5 3 12 21 4 22a1 1 0 0 0-1 2c1 2 3 3 5 2 3-2 4-5 4-8 0-7-2-16-8-21-5-3-14-3-15 3-2 8 4 18 9 23a1 1 0 0 0 1-1zM161 210c0 4 2 10 7 12a1 1 0 0 0 1-1l-3-6-4-6a1 1 0 0 0-1 1zM191 197a18 18 0 0 0 5 17c2 2 5-1 3-3a16 16 0 0 1-5-13c1-2-3-3-3-1z"/><path class="cls-9" d="M165 223c-3 8-6 18 2 24 8 5 19 5 27 2s14-9 16-17c1-7-1-19-9-21a1 1 0 0 0-2 2c2 5 6 9 6 15-1 7-5 13-11 16a31 31 0 0 1-18 2c-13-2-12-13-10-23a1 1 0 0 0-1 0zM106 125a90 90 0 0 0 11 1c4 0 7 1 10-1a1 1 0 0 0 0-2c-3-2-6-1-10-1a90 90 0 0 0-11 1 1 1 0 0 0 0 2zM146 121c5-2 12-6 15-11a1 1 0 0 0-1-1l-15 10c-1 1 0 2 1 2z"/><path class="cls-9" d="M94 148c-12-22-17-47-5-70 6-12 16-20 29-21a38 38 0 0 1 18 2c5 2 9 6 14 5a5 5 0 0 0 4-5c-1-14-25-16-36-15a48 48 0 0 0-35 24c-14 25-11 61 9 81a1 1 0 0 0 2-1z"/><path class="cls-9" d="M144 76c7-9 13-16 25-18 13-2 25 3 34 11 14 13 24 43 10 60a1 1 0 0 0 1 2c14 5 17-16 17-25-1-16-8-33-20-44a48 48 0 0 0-41-12c-11 3-26 12-28 25 0 1 1 2 2 1zM96 180c-4 4-3 10 0 14 4 4 11 7 15 3a2 2 0 0 0-1-4c-3-1-6 1-9-2s-3-7-3-11h-2z"/><path class="cls-9" d="M86 179c-5 1-5 7-7 11-4 8-13 7-21 6-4 0-9 0-10 6 0 5 6 10 9 13a48 48 0 0 0 34 12c10 0 26-5 30-15 1-2-1-3-2-3l-15 8a42 42 0 0 1-17 2 40 40 0 0 1-29-15h-2 4a44 44 0 0 0 8 0 22 22 0 0 0 11-3c5-4 10-15 9-21a1 1 0 0 0-2-1z"/><path class="cls-9" d="M92 150c-2-6-9-6-13-3-5 4-6 11-4 17 4 10 22 20 29 7 2-3-3-6-6-4-5 4-11 2-15-4-1-3-2-6-1-9s6-2 9-3a2 2 0 0 0 1-1zM161 221c-9 3-15 10-23 14-5 3-10 4-15 5-3 1-6 2-7 4-6 9-4 36 11 35a1 1 0 0 0 1-3c-3-6-7-10-7-18 0-3 0-8 4-10l9-2c11-4 23-14 28-24a1 1 0 0 0-1-1z"/><path class="cls-5" d="M180 155a26 26 0 0 0 4 3 8 8 0 0 0 5 1l1-1a8 8 0 0 0-4-3 28 28 0 0 0-5-2 1 1 0 0 0-1 2zM189 151a13 13 0 0 0 5 2h4a1 1 0 0 0 0-2c-1-2-2-2-4-2a14 14 0 0 0-5-1v3z"/><path class="cls-9" d="M96 148c-4-17-2-34 3-51l-2-1c-8 16-8 36-3 53a1 1 0 0 0 2-1z"/><path class="cls-9" d="M95 151c1-22 9-41 21-59 1-1 0-2-1-1a76 76 0 0 0-22 60 1 1 0 0 0 2 0zM186 113a98 98 0 0 0 11 13c4 3 8 9 13 10 1 0 2 0 2-2-2-4-8-7-11-10l-13-13c-1-1-3 0-2 2zM198 110c0 5 3 9 6 13 3 3 7 8 11 7a2 2 0 0 0 2-2c-1-4-6-7-8-9-3-3-4-7-8-10-1-1-3 0-3 1z"/><path class="cls-9" d="M196 133c2 14 2 26-6 38-1 2 1 3 2 3 15-2 27-24 22-37a1 1 0 0 0-2 0c-3 12-6 31-21 33l3 3c7-11 11-28 4-40h-2zM191 238l8-5c2 0 6 0 8-2a1 1 0 0 0-1-1c-1-3-6 0-8 0-3 2-7 4-8 7l1 1zM166 240l9-1v-1h-9a1 1 0 0 0 0 2zM115 256l-17 5c-2 1-7 3-9 2-3 0-3-1-5-2-5-4-18-6-24-3-15 9 8 34 18 21a2 2 0 0 0-1-3c-4-1-20-4-12-11 2-2 7-1 10 0 4 0 5 3 8 5 4 3 11 0 15-2 6-2 13-4 18-9 1-1 0-3-1-3z"/><path class="cls-9" d="M58 258c-9 1-16 7-18 16s6 19 13 24c7 7 16 10 25 9 6-1 19-5 16-14a2 2 0 0 0-2-1c-4 0-7 4-11 6-6 2-13 1-18-2a36 36 0 0 1-14-14c-5-9 0-18 10-20 2 0 2-4-1-4z"/><path class="cls-9" d="M91 297c6-1 10-4 15-7s11-5 16-9c4-2 0-9-4-6l-16 9-13 10a2 2 0 0 0 2 3zM64 259c4-4 3-11-1-16-2-3-9-8-13-4a2 2 0 0 0 0 3l8 4c3 4 3 7 2 11a2 2 0 0 0 4 2z"/><path class="cls-9" d="M53 235c-4 2-7 6-10 9s-11 10-15 10c-10 1-15-21-17-29-2-10-4-21-4-31 0-14 21-16 31-16l-3-3c0 13-3 26 1 39a46 46 0 0 0 18 24l-1-5a11 11 0 0 0-2 5c0 2 2 4 3 3a15 15 0 0 0 4-5 3 3 0 0 0 0-3c-8-7-14-14-16-24-3-11 0-23 0-34a4 4 0 0 0-4-4c-11 0-31 2-36 14-3 6-2 14-1 21a179 179 0 0 0 4 24 90 90 0 0 0 8 20c2 5 6 12 12 12 6 1 12-5 17-9s11-10 14-16a2 2 0 0 0-3-2z"/><path class="cls-9" d="M33 254c-2 5 2 11 6 13s12 6 15 0a2 2 0 0 0-1-2l-4-1a13 13 0 0 1-7-1c-4-2-4-6-6-9a2 2 0 0 0-3 0zM8 177c-3-13 2-27 16-30 4-1 10-2 12 3 1 3 0 7-1 10-2 5-6 9-7 14a1 1 0 0 0 2 2c12-7 18-37-3-35-18 2-29 21-21 37 0 2 3 1 2-1zM100 159c6 5 5 14 6 22a49 49 0 0 0 9 19c8 11 21 17 35 16 15-2 33-7 45-17 9-7 19-22 11-33a1 1 0 0 0-1 0l-6 18a41 41 0 0 1-15 14l-20 7c-8 2-17 5-25 3-13-3-21-15-25-26-3-9-3-21-12-25-1-1-3 1-2 2zM202 211c7 1 13-4 19-8a90 90 0 0 1 26-13l-4-9c-21 18-17 51 5 65 8 6 21 7 29-1 5-6 7-21-4-21a2 2 0 0 0-2 2c0 6 1 13-6 15-8 2-15-5-20-11-9-13-8-31 4-42 4-3 0-9-4-8a76 76 0 0 0-24 13l-20 15a2 2 0 0 0 0 3z"/><path class="cls-9" d="M244 186c11-3 20-15 26-24 7-11 10-25 10-38 0-7 0-25 12-22 9 2 10 13 8 21-4 11-12 20-10 33 1 2 5 2 5 0-1-16 16-27 15-43-2-13-17-26-29-17-6 4-9 11-9 19-1 9 0 18-3 27a81 81 0 0 1-11 23c-4 7-11 12-16 19-1 1 0 3 2 2zM286 187c-9 6-17 17-23 26-5 6-14 20-10 28a2 2 0 0 0 3 1c3-3 3-8 5-12a72 72 0 0 1 8-15c6-9 15-16 20-25 1-2-1-5-3-3zM55 95c-16 7-24 22-29 38a1 1 0 0 0 1 0c7-14 14-29 29-35 1-1 0-3-1-3zM5 201a82 82 0 0 1 32-11c2-1 1-4-1-4a54 54 0 0 0-32 14c-1 0 0 2 1 1zM18 251a82 82 0 0 1 30-22c2-1 0-4-2-3a46 46 0 0 0-28 25c-1 0 0 1 0 0z"/><path class="cls-9" d="M28 188c-5 4-2 14-2 19 2 8 4 18 10 22h1c-2-6-5-11-6-17a88 88 0 0 1-2-11v-11c1-1 0-2-1-2zM11 197a98 98 0 0 0 15 46 1 1 0 0 0 2-1 108 108 0 0 1-15-45h-2zM189 197c-1 4 1 10 4 13s7 9 11 6a3 3 0 0 0 2-3c-1-3-5-4-7-7l-3-9c-1-4-6-3-7 0zM157 214c0 3 1 5 3 7s5 6 8 4a4 4 0 0 0 2-5l-3-3-5-6c-2-2-5 0-5 3zM152 256c-4 11-2 24 7 31 4 3 9 5 14 6 4 1 10 3 13-1a2 2 0 0 0 0-2c-2-3-4-3-7-3-5-1-10-1-15-4-10-5-8-17-10-27h-2z"/><path class="cls-9" d="M121 279c3 7 10 14 17 16s14-3 17-9c3-5-2-7-6-4-5 3-5 8-12 5-5-2-9-6-13-9-1-1-3 0-3 1zM267 213l4 11 3 12a1 1 0 0 0 3 0c5-8-1-20-7-25-2-1-3 0-3 2zM122 168l9-3a1 1 0 0 0-1-2l-9 2a1 1 0 0 0 1 3zM155 159c4 0 8-1 10-3a1 1 0 0 0 0-2l-10 3a1 1 0 0 0 0 2zM277 166c4-2 7-4 11-3 5 1 7 6 7 11-2 11-14 10-23 10a1 1 0 0 0 0 3c12 9 31 1 31-16-1-14-20-22-28-8l2 3z"/><path class="cls-9" d="M298 143c12-5 18 11 17 21s-12 12-20 15a2 2 0 0 0 0 4c7 3 15 2 21-3 7-5 9-14 7-22s-4-19-13-23c-5-2-12-1-14 5-1 2 1 4 2 3zM298 203c2 7 4 13 4 21s-2 14-4 21a2 2 0 0 0 3 1c8-12 9-33-1-44l-2 1zM308 195a104 104 0 0 1 5 25v23c0 3 3 3 4 1 6-16 3-35-3-50-1-4-7-2-6 1zM59 110c-9 8-20 20-18 33h1c2-14 9-23 18-32 1-1 0-2-1-1zM244 261a59 59 0 0 0 22-6c5-2 15-6 16-12a2 2 0 0 0-1-2c-6 0-11 6-16 8-7 4-14 6-22 8-1 1-1 4 1 4z"/><path class="cls-9" d="M243 263c5 5 12 8 18 12s11 8 18 10a2 2 0 0 0 2-3c-3-6-9-9-15-13s-13-9-20-11c-3-1-5 3-3 5zM178 291l9 8c2 3 5 8 8 8a2 2 0 0 0 2-1c1-4-3-7-6-10a46 46 0 0 0-11-8c-1-1-3 1-2 3z"/><path class="cls-9" d="M194 307c7 4 16 3 25 3l30-2c15-2 33-9 38-25a3 3 0 0 0-1-4 2 2 0 0 0-2-1 3 3 0 0 0-3 2c-7 16-22 20-38 22l-23 2c-8 1-17 3-26 1a1 1 0 0 0 0 2z"/><path class="cls-9" d="M158 312c4 6 14 4 20 3 10-3 20-7 31-8 20-2 40 1 60-1 9 0 19-2 28-6 10-4 18-10 27-16 7-5 15-10 24-12 7-3 15-3 22-5a4 4 0 0 0 3-3c0-10-8-16-17-18-10-4-22-1-32 4-17 8-30 26-48 32-19 7-40 6-60 9a100 100 0 0 0-28 9l-16 8-14 2a1 1 0 0 0 0 2zM186 24a169 169 0 0 0-1-22 2 2 0 0 0-4 0 167 167 0 0 0 0 22 3 3 0 0 0 5 0zM208 38c0-5 2-11 4-16a1 1 0 0 0-1-1c-5 4-7 11-7 17 0 3 4 3 4 0zM230 48l7-6 7-6a2 2 0 0 0-2-3l-8 5-7 7c-3 2 1 5 3 3z"/></g></g></svg>