<svg xmlns="http://www.w3.org/2000/svg" viewBox="0 0 323 333"><g data-name="Layer 2"><path d="M210 11l5 1h12l26 1a45 45 0 0 1 8 1l1 2a84 84 0 0 1 1 10v61c1 9 1 19 6 27a56 56 0 0 0 6 10l9 11c3 3 7 5 11 6l22 4h1l2 26h-2l-25-1c-8 0-17-1-25-5-10-5-17-14-22-24l-3-9a12 12 0 0 0-1 1c-8 7-18 12-27 18l-18 10h2a46 46 0 0 1-5 3 46 46 0 0 0-8 3c-2 2-4 1-6 0a101 101 0 0 1-21-18v-1l14 2c3 0 4 0 4-3l4-20a4 4 0 0 1 2-4c8-4 16-8 23-14l11-9 14-8c2-1 3-3 3-5l-1-35v-7a1 1 0 0 0-1-2l-10-1-26-1h-13l-2-1c-1-2-1-2 2-8a18 18 0 0 0-2-18v-3z"/><path d="M189 205h-10l-15 1c-4 0-4 0-4-5l-1-10 2-2h14l14-1v-1c1-2 0-2-1-2h-24a6 6 0 0 0-2 1l-2-1a9 9 0 0 1 0-1v-16a8 8 0 0 1 0-3l2-2h10l3 2a15 15 0 0 1 5 4c2 2 4 2 6 1l18-8a4 4 0 0 1 2-1l27-1c4 0 3 0 4 5v13c0 4 0 4-3 4l-19 1-1 1a17 17 0 0 1-2 1v2c9 2 18 2 27 2-1 2-2 4-1 7 2 6 2 8-1 8h-16l-10 1v3h24c0-2 1-2 2-2h13l1-12 1-24c0-2 0-2 2-2l21 1 2 2-2 23-1 12 5 1h10l16 1c1 0 2 0 2 2l-1 22-2 12-1 14-2 14-1 13-3 17-2 7a50 50 0 0 0 0 7l-1 1c-7 0-13 0-19-3a23 23 0 0 0-5-1c-2 0-3-2-3-4l2-14 2-17 4-21 2-22c0-3-1-3-3-3-3 5-3 11-3 17a118 118 0 0 1-1 16l-3 16c-2 10-4 20-3 30l-2 2a20 20 0 0 1-12-2 1 1 0 0 0-1 0c-3 0-4-2-3-5a10 10 0 0 0 0-3l-1-2v6a435 435 0 0 0-1 10h-2l-14 1h-66v-13a1 1 0 0 1 0-1 22 22 0 0 1 5-1l20-1v-4h-25a1 1 0 0 1-1-1v-14l1-1 6-1h20v-5h-28v-6l-1-19v-23l1-15v-1l6-1 1 1a4 4 0 0 0 2 0l19-2a1 1 0 0 0 1-1v-4zm18 75h34v15l3-17 2-12 2-13a128 128 0 0 0 2-19c1-2 0-2-2-2h-6v43h-19l-13 1c-3 0-3 0-3 3a1 1 0 0 0 0 1zm13-29h-11l-2 1v7l2 1a51 51 0 0 0 6 1l8-1a2 2 0 0 0 2-2 59 59 0 0 0 0-6l-2-1a18 18 0 0 1-3 0zm-13 50l3-2c6-7 16-6 21 1h4l5 1a18 18 0 0 0 3-1l-3-1-1-4-32 2zm-23-50h-6l-2 1a46 46 0 0 1 0 6c-1 2 0 3 1 3h12a2 2 0 0 0 1-2l1-7-2-1zm6-22h-12c-2 0-1 1-1 2-1 2 0 3 2 2h8c3-1 3-1 3-4zm20 0c0 3 1 4 3 4h6c4 0 4 0 4-4zM91 144v-21l-1-33V68 53c0-1 1-2-1-2a5 5 0 0 0-1 2v82l1 9a2 2 0 0 0 2 3l5 1-1 7c-1 5 0 4-4 4H67c-2 0-2-1-2-2v-30l1-2 1-2 2-18V84v-2l-6 1v24l-2 21-1 19v23l-2 2a1 1 0 0 0-1 0l-6 1H28a2 2 0 0 1-2-2v-27l2-11a748 748 0 0 0 4-33l1-12H23a30 30 0 0 1-7-2v-1-27l1-1 16-3V15c0-3 0-3 2-3h25c2 0 2 1 2 2l1 37v2h6c0-2 1-3 3-3h19V38c0-2 0-2 2-2h25c1 0 2 0 2 2l16 1h39c3 0 3 0 3 3v31l-1 45-1 7c0 1-1 2 1 3l-3 18h-6l-14-1-15 1h-27a3 3 0 0 1-2 0 8 8 0 0 0-5-2H91zm57-76h-28v27l1 14v7h24a350 350 0 0 0 3-48zM130 286v-47a7 7 0 0 0-1 1l-17 5-23 9c-2 0-3 0-3-2v-9l1-2a67 67 0 0 0 16-10 31 31 0 0 1 3-2l-6-14 14-4 23-6c3-1 5-3 8-3a46 46 0 0 1 8-1c2 0 3 0 3 2v23l1 16-1 11-1 24v42h-2c-1 0-2-1-3 1h-4c-9 0-17-3-26-4l-20-3h-4l-2-2v-12-28-3a6 6 0 0 1 4 1 18 18 0 0 1 2 2 80 80 0 0 0 20 11l10 4z"/><path d="M93 313l-40 3v-7-11l1-16-1-14 1-16v-6a4 4 0 0 1 2-4l15-7 11-5c2-1 2 0 2 2l1 15 1 14 2 16 4 24 1 12zM17 208l8-6 19-15 17-10 13-9 2 4 11 23a12 12 0 0 0 1 2c2 2 2 2-1 4l-15 10-11 8-20 14a38 38 0 0 1-4 2h-3l-9-13-8-14z"/><path d="M86 240l-1-7v-4c0-1-1-2-2-1a49 49 0 0 0-13 6 64 64 0 0 1-16 8 4 4 0 0 0-2 4l1 3-2 19a3 3 0 0 1 0 1c-6 5-11 10-15 16l-2 2-2-1a62 62 0 0 0-4-6c-5-5-8-11-12-17a24 24 0 0 1-3-4 2 2 0 0 1 1-1l10-8 21-16 15-10 13-10 15-11a1 1 0 0 1 2 1l5 6a101 101 0 0 1 8 18 2 2 0 0 1 0 2l-13 8a27 27 0 0 1-4 2zM91 198v-3-19c0-2 0-2 2-3a46 46 0 0 1 5 0 95 95 0 0 0 19-3 104 104 0 0 1 31-3 67 67 0 0 0 8 0l1 2v22a3 3 0 0 1-3 3 80 80 0 0 0-9 0l-14 2-11 1c-8 2-16 1-24 1h-5zM47 8c-4-2-17-4-20 0-2 3-1 7-1 10v14a1 1 0 0 0 3 0V14c0-2 1-4 3-4a19 19 0 0 1 5-1l10 1a1 1 0 0 0 0-2zM9 68v33a1 1 0 0 0 2 1 41 41 0 0 0 16-3l-2-2c-3 13-4 27-3 41h2l4-41a2 2 0 0 0-2-1 37 37 0 0 1-15 4l1 1-2-33H9zM17 158a110 110 0 0 0-1 12c0 4 0 8 2 10 4 5 13 2 18 1 2-1 2-4 0-4-4-2-12 4-14 0-2-2-1-7-1-9a86 86 0 0 0-1-10c0-1-2-2-3 0z"/><path d="M17 242c-3-3-6 1-8 4l-6 8c-1 2-3 3-3 6s1 4 2 5l6 10c3 5 6 12 11 15 1 1 2 0 2-2 0-3-3-7-5-10l-7-11-4-6 2-5c2-3 6-11 10-11a1 1 0 0 0 0-3zM39 293l-1 19c0 3-1 10 2 13s11 1 15 1h21a3 3 0 0 0 0-6H45c-2-1 0 2-1-1v-4-7l-1-15c0-2-3-2-4 0zM110 323l28 7 13 3 9-3c16-5 34 1 50-4 2 0 1-3 0-2-16 1-32-3-47 1l-11 4c-4 1-9-2-14-3a267 267 0 0 0-27-5c-2-1-2 1-1 2zM208 2l45 6 11 1c4 1 2 2 2 5v6c-1 7-2 15 0 22 0 2 3 2 4 0 2-8 1-18 2-26 0-3 1-7-1-10-2-2-5-2-7-3-19-1-37-3-56-3v2zM270 65c-2 9 0 17 3 26 2 7 4 15 9 22a37 37 0 0 0 17 14 73 73 0 0 0 11 4c3 1 7 2 10 1a2 2 0 0 0 1-3l-9-3a85 85 0 0 1-9-3c-7-2-13-6-17-13-4-6-6-14-9-20-2-8-4-16-4-25a1 1 0 0 0-2 0zM121 26l23 4c7 2 15 4 22 3a2 2 0 0 0 1-3c-8-3-16-4-24-5l-22-3c-2 0-2 3 0 4zM285 198l16 1 19 3-2-4c-2 6-3 13-2 20a90 90 0 0 1-3 22c-3 14-9 27-6 41 0 3 3 2 3 0 2-14 6-27 9-41a77 77 0 0 0 2-19c0-7-1-14 2-21a3 3 0 0 0-2-3c-11-2-25-4-36-1-1 0-2 2 0 2zM220 57l2 13 2 15c1 2 3 1 3 0a64 64 0 0 0-4-29c-1-1-3-1-3 1zM278 324c6 5 13 4 19 0 6-3 14-9 16-16a2 2 0 0 0-2-2c-8 5-20 25-31 16-1-1-3 1-2 2z"/></g></svg>