<svg xmlns="http://www.w3.org/2000/svg" viewBox="0 0 291 296"><defs><style>.cls-1{fill:#231815}</style></defs><g id="Layer_2" data-name="Layer 2"><g id="圖"><path class="cls-1" d="M93 45c-13 0-26 3-39 4v64h19a6 6 0 0 1 3 1l22 18a75 75 0 0 0 9 6l-20-16-20-17 3-4 7-8 10-12a2 2 0 0 1 3-1l7 4 21 11 14 8 10 6 5 2a13 13 0 0 1 0 3l-18 27-4 7h-4l-11-8a7 7 0 0 1-1 2 4 4 0 0 1-2 0H58a144 144 0 0 0-20 0 56 56 0 0 1-10 1h-7a2 2 0 0 1-2-2v-2-22c0-2 0-2 3-3l-1-13-4-44c0-9-2-17-3-26l-1-17h112l2 13 3 25 2 25 2 20a28 28 0 0 1 0 4 6 6 0 0 1-6-2c-8-6-17-10-25-15l-6-3c0-12-1-24-4-36M207 113h8V97l-25 2v6l1 21 1 10c0 3 0 4-3 4l-27 2h-9a7 7 0 0 1-1-1v-15-12-20l-2-23-1-34a37 37 0 0 0-1-6V14l8-1h25l1 3 30-2v-3a24 24 0 0 1 4 0h23c2 0 4-1 5 2 2 0 3 2 3 3l2 16 2 33 3 31 2 16 3 16 2 12v4h-5l-38-2-8 1c-4 0-5-2-5-5a72 72 0 0 1 1-18l1-7m-21-75l2 25 26-1-1-24zM48 205v22c0 9 2 17 3 25l2 30a10 10 0 0 1-2 1l-23 1c-4 1-4 0-5-4l-2-37-3-30v-18l-1-18-1-23a13 13 0 0 1 1-3h14l1 1c1 2 2 1 4 1h24c6-2 11-1 16-1h3a26 26 0 0 1 1 4l-1 40a57 57 0 0 1 0 6l-31 3m10-36H40c0 2 1 2 3 2l15-2m4 17c-2-1-13 1-16 3l16-2v-1M123 270l-1-24 1-15-1-28a10 10 0 0 0 0-2h-10l-16 1h-5c-4-16-5-33-9-50l6-1 19-1h30a4 4 0 0 1 3 0l4 1a75 75 0 0 1 2 19v45a8 8 0 0 1-1 4l-10 18-2 5c-1 2-1 3 1 5l12 10a4 4 0 0 1 2 3l1 13a65 65 0 0 1 0 12 9 9 0 0 1-5-1l-8-1h-29c-2 0-3 0-3-3v-7c6-2 13-2 19-3m-22-103l1 3 19-1v-3l-20 1m2 19c0 3 0 3 2 2l15-1a12 12 0 0 0 2 0l-1-1h-18M250 219a64 64 0 0 1 0 7 243 243 0 0 0 1 27v25a41 41 0 0 1 0 5 50 50 0 0 1-11 0l-10-1c-4 0-4 0-5-4a3 3 0 0 0 0-1c-4-1-26 0-32 1l-1 5a38 38 0 0 1-11 1l-6-1c-4 0-6-2-6-6l-1-19-1-28v-8l4-1a3600 3600 0 0 1 49-2h30m-57 19v24l33-1v-24l-33 1"/><path class="cls-1" d="M51 208l16-1 7-1 36-1h10c1 3 2 59 1 64h-6l-32 2-20 1-7 1a17 17 0 0 1-1-3l-2-12-1-29-1-17v-4m27 45c5 1 17 0 22-2v-26c-9 1-17-1-25 1l3 27M151 149h22v11h26a41 41 0 0 1 4 1c-1 7-1 15-3 22-3 1-3 1-5-2l-2-8h-18c-2 0-3 1-3 3l19-1 7 19h-20c-3-4-4-9-5-14l-1 15-22 1c-2-3-2-6-2-9a188 188 0 0 1 2-36l1-2M229 146l-1 12 35-1a192 192 0 0 1-1 28l-10-2-2-4a32 32 0 0 0-2-4c-1-2-2-2-4-2a66 66 0 0 0-15 0h-5v4c2 6 1 12 0 18l-22-3a5 5 0 0 1 0-1l3-26v-3l1-14c0-2 1-3 2-3h21M185 210a17 17 0 0 0-5 8c-1 2-2 3-4 3a65 65 0 0 0-8 0c-2 0-2 0-2 3l-1 11v2a13 13 0 0 1-2 9l-9 12a11 11 0 0 1-2-1l-9-7-9-6c1-5 22-41 27-47l7 3 14 7c2 0 3 0 3 2a3 3 0 0 0 0 1M235 215l-4-10 10-5a73 73 0 0 1 8-4 17 17 0 0 1 4 0c2 0 3 1 4 3l18 33 5 9-23 12c-3-4-6-7-6-12v-20c0-5 0-5-5-5h-9l-2-1"/><path class="cls-1" d="M185 210a3 3 0 0 1 0-1l1-2-18-8a4 4 0 0 1 4-1h36a189 189 0 0 1 21 1h9l-9 6 5 10h-26c-9 0-17 2-25 0l2-5M246 174l5 11 3 5c1 2 1 4-2 4l-21 2a6 6 0 0 1-1 0l-2-7-3-12c0-2 0-3 2-3h19M15 104C14 70 9 36 6 3L2 5l19 4c5 1 10 2 14 0a1 1 0 0 0 1-2c-5-3-10-3-15-3L4 0C2 0 0 1 0 3c4 34 6 68 13 101h2M42 10l34 1a1 1 0 0 0 0-2C65 6 53 5 42 7v3M9 152c-2 12-1 25 0 37 0 12 0 24 3 36 0 2 2 2 2 0l-2-37c-1-12 0-24-2-36a1 1 0 0 0-1 0M21 295l15 1 12-3c2 0 1-2-1-3l-13 2-13 1a1 1 0 0 0 0 2M154 7l17-1c7-1 10-2 15 3 2 2 2 3 5 2l14-2c3 0 2-5-1-4-4 0-11 3-15 0-2-2-2-3-5-4-4-1-8 1-12 1l-18 3a1 1 0 0 0 0 2M225 3c10 4 22 4 32 5l-3-2c-2 14 2 31 4 46l6 44a1217 1217 0 0 0-2-45c-1-14-5-30-3-45a2 2 0 0 0-2-3c-10-1-22-3-32-2v2M264 199l10 23 12 27 3-3c-8 0-15 2-20 7-1 1 0 4 2 3 6-2 11-5 18-5 1 0 3-2 2-3-7-17-14-36-25-50-1-1-3 0-2 1M160 270c-2 4-2 8-1 12 0 3 0 9 2 12s7 1 10 1c5 0 10 1 15-1a2 2 0 0 0 0-3l-10-1h-11l-1-11-2-9a1 1 0 0 0-2 0M108 290h43a1 1 0 0 0 1-2c-14-3-30-2-44-1-2 0-2 3 0 3M66 276h23c2 0 2-3 1-3-8-1-16-1-24 1-2 0-1 2 0 2"/></g></g></svg>