<svg xmlns="http://www.w3.org/2000/svg" viewBox="0 0 298 288"><defs><style>.cls-1{fill:#231815}</style></defs><g id="Layer_2" data-name="Layer 2"><g id="圖"><path d="M218 180l-10-3v-6h-1l-9-1-1-1v-9-9a22 22 0 0 0-1-5 2 2 0 0 0-1-1 30 30 0 0 0-5 0l-10-1h-3v-6-34-40a1 1 0 0 0-1-1 3 3 0 0 0 0 1l-1 25v17l-1 8c0 3 0 3-2 3h-15c-3 0-4-1-4-4l1-17V70v-6h-1c-3 0-2 0-2-3V40c0-2 0-2 2-2l17-1h7V22h23c1 0 2 0 2 2l-1 10a14 14 0 0 0 0 2l2 2c4 0 4 1 4 4v8a472 472 0 0 0-1 12h-3v8h7c4 0 4 0 4 4v12c0 2-1 3-3 3h-8v60l3-1v-8a25 25 0 0 1 1-5c0-2 1-3 3-3a63 63 0 0 0 18-2c3 0 5-2 7-4a18 18 0 0 1 2-1c5-1 7-5 10-8a29 29 0 0 0 1-3c2 1 2 0 2-1l1-22 1-8 1-2 16-1 7-1 2 1v19l-1 5v5a3 3 0 0 0 0 2 50 50 0 0 0 11 11 56 56 0 0 0 5 3l-13 16c-2 2-5 2-8 2v-2a2 2 0 0 0-2-2h-11l-11-1-2 2v5h-13v-4c0-2 0-2-2-2h-22c-2 0-2 0-2 2v5h1v-6h23v4c0 2 1 3 2 3l13-1c1 0 2 0 2-2v-4l22 1v2c1 2 1 2 3 2h7a4 4 0 0 1 1 1l-1 21-1 1h-9v2h2l1 1v19l-1 2h-1v15h7v20h-17v4l25 1 1 2h2v20h-12v22l-2 2h-17l-2-1v-18l1-5h-7v21c0 2 0 2-2 2h-17c-1 0-2 0-2-2 0-3 0-5 3-7a22 22 0 0 0 7-8 17 17 0 0 1 3-3l-7-7-8-9h-3l-3 3h-4l-7-8a16 16 0 0 1-2-3l-1-3h23v-2h-23a2 2 0 0 1-1-1l-3-8a6 6 0 0 1 0-1c0-2 0-2 2-2l9 3 1-1a32 32 0 0 0 0-4l2-23 1-11zm13 10h12c4 0 4 0 4-3 0-2 0-2-2-2h-12a9 9 0 0 0-1 0l-1 5zm14 10h-12l-2 3c0 2 1 2 2 2l9 1h3zm2-32l-17 1v5l17-3v-3zM66 211l-2 6-6 27a75 75 0 0 1-3 9l-3 11a2 2 0 0 1-1 1H28c-2 0-2-1-2-2a23 23 0 0 0-1-4v-15l2-1h23v-8-14-3c0-1 0-2 2-2a27 27 0 0 0 3 0l1-8 2-16a9 9 0 0 0 0-2 4 4 0 0 1 0-1l3-21a11 11 0 0 0-1-4l-12-3a8 8 0 0 1-1 0 3 3 0 0 1-2-4 1 1 0 0 1 1-1h28l1 1v1l22-1a121 121 0 0 0 1-20h4l16-1 1 2c1 3 0 5-3 7a25 25 0 0 0-4 2 115 115 0 0 0 10 15l6 8a14 14 0 0 0 3 4 4 4 0 0 0 3 0 35 35 0 0 0 6-3c2-2 4-3 6-2l1 1v11a1 1 0 0 1-1 0c-4 2-8 1-12 1h-11l4 20 10-6 4-3a1 1 0 0 1 1 1l10 13 6 10c-7 5-15 8-23 12 2 4 3 8 6 11a3 3 0 0 0 2 1l9-2 8 16h-1l-13 9-13 7a26 26 0 0 1-3 2 21 21 0 0 1-3 0c-2 0-3 0-3-2l-2-5-1-1-2-2-2-7a384 384 0 0 1 1-23v-14l1-9h-15 9c2 0 3 1 3 3v16l-1 25-1 10c0 2-1 2-2 2H89a4238 4238 0 0 0-30-3v-1c-2 0-1-2-1-3v-1a67 67 0 0 1 2-20l5-23 2-4zm16 24v4a3 3 0 0 0 2 3l9 1a2 2 0 0 0 3-2v-2-8l-1-2h-7a9 9 0 0 1-2 0l-3-1a4 4 0 0 0-1 3 28 28 0 0 0 0 4zm-12-49h29l-1-4H70zm33 24l-1-1H86l-4-1H68v2z"/><path d="M55 128H23v-1-22l1-2a71 71 0 0 0 9-1l5-2a28 28 0 0 1 6-1h13l1-4h-9c-6-2-12 0-19-1l-7-1c-1 0-2 0-1-1V69l1-1h23l9 1h3v-9l-13-2-16-3a2 2 0 0 1-1-1V30c9 0 19-1 29 1v-3-11l1-1h23a6 6 0 0 1 1 0v5l1 24 1 20v34l-2 29-1 18c0 2 0 2-2 2H55zM117 129v4l-2 2-18 2v15h-6l-1-1v-15c-2-20-1-40-1-60l1-27a456 456 0 0 0 2-35h22c2 0 2 0 2 2v14l8 1h14c2 0 2 0 2 3v21c0 2 0 2-2 2h-21l-1 12h1l22 1a35 35 0 0 0 6 1l1 1v23l-1 1h-23a62 62 0 0 1-7-1v8h19l10 1 2 2-1 15-1 4-1 4h-4a74 74 0 0 0-19 0h-1-2zM235 92a37 37 0 0 0-4-1h-13c-3 0-3 0-3-3V66l-6-1v-9l-1-17c0-1 0-2-2-2a21 21 0 0 1-3 0v-7h11v6h1v-6a6 6 0 0 0 1-2l-1-8c-1-3 1-5 1-8l1-1a30 30 0 0 1 4 0h35l2 1-1 18v4c-13 2-27 2-41 2 14 1 28 1 42-1l1 2 1-13h23v20c0 1 0 2-2 2l-11 1v30c0 1 0 2-2 2l-16 1a2 2 0 0 0-2 1l-1 9v19a8 8 0 0 1-2 4c-4 5-8 10-14 12a39 39 0 0 1-15 3l-8 1a5 5 0 0 1-2 0c-2 0-2 0-2-2v-19a1 1 0 0 1 1-1l12-4c5-1 9-4 13-8l3-3zm12-23v-1l1-6a19 19 0 0 1-1-5v-7l-10 1v18zM173 177l-2-7a15 15 0 0 1 0-3v-18c0-2 0-2 2-2l20-1h2v50h1v-1c0 6 0 12-2 18l4 1c2 1 3 1 4 4l2 9c2 7 6 13 12 18v3l-8 9-5 5-1 2c-4-3-7-6-9-10a51 51 0 0 0-4-7c-1-1-1-1-2 1a16 16 0 0 1-2 2l-13 17c-3 4-6 7-11 9a2 2 0 0 1-2 0l-4-3-7-6-1-2 13-8c2-1 2-2 1-4l-2-5a2 2 0 0 1 0-2c3-3 6-6 7-10a66 66 0 0 0 3-9 14 14 0 0 1 3-5l14-17a3 3 0 0 0 0-3l-12-24a6 6 0 0 0-1-1l2 4 10 21a2 2 0 0 1 0 2l-13 16a27 27 0 0 1-4 3l-3-4-11-20-6-11-1-7a2 2 0 0 1 1-1c6-2 10-5 15-9h6v1l2 4a8 8 0 0 0 1 1zM54 213h-3l-2 1H24l-14-2-1-1v-17-7l2-1 16 2 13 2 15 1 1 2-1 10-1 7v3zM15 156l17 4 15 4a998 998 0 0 1 12 4l-4 17c0 2-1 2-2 2a40 40 0 0 0-5-1H37l-7-2-19-3-2-2 2-5 3-13 1-5zM49 218v22l-2 2H27l-12-1a3 3 0 0 1-3-2l-3-13a65 65 0 0 1 0-8z"/><path d="M217 181l-3 37-7-3a4722 4722 0 0 0-12-4c1-6 2-11 1-17l1-18c-1-2 0-2 2-2l6 3 6 2 6 2zM115 149c3-3 5-6 10-8l8-4 2 3 13 16c1 2 1 3-1 5l-5 4a28 28 0 0 1-9 6 2 2 0 0 1-2 0l-6-7c-2-2-4-3-5-6a107 107 0 0 0-5-9zM240 258l-10 11-2 3-5 6-10-7-1-1-6-6a2 2 0 0 1-1-2l8-8a51 51 0 0 1 7-7 14 14 0 0 0 4-3c1-1 1-2 3-1a33 33 0 0 1 7 8l6 7z"/><path class="cls-1" d="M19 43l2-18-2 1h13a1 1 0 0 0 0-3H19a2 2 0 0 0-1 2l-2 18c0 2 3 1 3 0zM56 9c6 2 12 2 17 1a1 1 0 0 0 0-2L56 9z"/><path class="cls-1" d="M23 33l-2 22h3l2-22c0-2-3-2-3 0zM1 192a2 2 0 0 0-1 2v18c1 2 3 1 4 0 1-6 0-13-1-19a2 2 0 0 0-1-1H1zM0 227c0 5 2 10 4 14 1 3 2 8 4 10 3 3 7 1 9 6s0 13 1 18a2 2 0 0 0 2 2h14a1 1 0 0 0 0-2c-4-2-9-2-14-2l2 2-1-19c-1-2-1-5-4-7h-4c-4-1-5-5-6-9-2-4-3-9-6-13H0z"/><path class="cls-1" d="M10 264c-3 9 1 28 14 24 2-1 2-4 0-3-5 0-9-3-11-8s0-8-1-13h-2zM73 272l21 1c7 1 14 2 21 1a2 2 0 0 0 1-3c-7-3-15-3-22-4s-14 0-21 2c-3 0-2 3 0 3zM80 281l33 2a2 2 0 0 0 0-3 56 56 0 0 0-33 1zM282 175c-3 2-3 4-4 8l-2 10a8 8 0 0 0 2 5c2 3 6 3 7 6 2 5-1 11 2 16l4 8a46 46 0 0 0 4 11l3-1c0-6 0-13-3-18-2-3-4-4-4-8v-7a10 10 0 0 0-2-5c-1-2-5-2-6-4-3-4-1-10 0-14l-1-7zM263 285c2 3 7 3 11 3a13 13 0 0 0 10-6 18 18 0 0 0 3-10c0-3 0-8-3-10a1 1 0 0 0-2 0c-2 4 0 11-1 15-2 4-5 6-8 6h-10a1 1 0 0 0 0 2zM219 4c6 3 16 2 23 2h14c2 0 2 0 3 2l2 8a2 2 0 0 0 4-1c0-4 1-9-1-13s-8-2-12-2h-18c-5 1-11 0-15 3a1 1 0 0 0 0 1zM274 9c-5 0-5 6-3 8a9 9 0 0 0 5 3 21 21 0 0 0 3 1 12 12 0 0 0 3 0 1 1 0 0 0 1-1c0-3-3-4-6-5l-2-1a2 2 0 0 1 0-1 2 2 0 0 1 0-1s-1 1 0 0 0-3-1-3zM56 10a43 43 0 0 0 12 0c4 0 8 0 10-2a2 2 0 0 0 0-4c-3-2-7 0-11 0a41 41 0 0 0-11 3c-1 0-2 2 0 3zM285 79l-2 14v14a14 14 0 0 0 12 12 2 2 0 0 0 2-3 60 60 0 0 0-5-5c-3-4-3-8-3-12 0-6 0-14-2-20a1 1 0 0 0-2 0zM12 103l-1 17c0 4 0 8 2 11 4 6 12 9 18 9 1 0 2-2 1-3-6-3-14-3-17-10l-1-12a97 97 0 0 0-1-12h-1zM148 274c0 5 9 10 13 12a2 2 0 0 0 3 0l24-25h-4a86 86 0 0 0 7 7 2 2 0 0 0 3-2 85 85 0 0 0-5-9 3 3 0 0 0-5 0l-24 25h3c-4-2-11-9-15-8z"/><path class="cls-1" d="M178 279l2-1a17 17 0 0 0 2-1 39 39 0 0 1 5-3 2 2 0 0 0 1-2 2 2 0 0 0-1-2 2 2 0 0 0-2 0 17 17 0 0 0-6 4 7 7 0 0 0-1 3v2zM170 30l1-15-3 3h12c3 0 7 0 9-2a2 2 0 0 0 0-2c-2-2-6-1-9-1h-12a3 3 0 0 0-2 2v15a2 2 0 0 0 4 0zM165 5h1a1 1 0 0 0 1 1 31 31 0 0 1 9 1l7 2a1 1 0 0 0 1-2l-10-4c-3 0-7-1-9 2zM122 27a1 1 0 0 0 1-1l-2-17a2 2 0 0 0-1-2l-6 1h-5v1l5 2a22 22 0 0 0 6 0l-2-2 2 17a1 1 0 0 0 1 1h1z"/></g></g></svg>