<svg xmlns="http://www.w3.org/2000/svg" viewBox="0 0 250 280"><defs><style>.cls-1{fill:#231815}</style></defs><g id="Layer_2" data-name="Layer 2"><g id="圖"><path class="cls-1" d="M57 280l-1-13v-27-20a14 14 0 0 1 0-1l5 1a15 15 0 0 1 6 4 19 19 0 0 0 1 2h3a56 56 0 0 0 3-6l3-6 4-3c-1-2-5-4-7-4l2 2 3 1c-3 3-4 7-6 10a49 49 0 0 1-3 5 8 8 0 0 1-1-1 21 21 0 0 0-11-6l-4-3v62H42v-10-10-10-21-10-10-10h-1v55H30l-1-3v-36-15l-1-2c-3-1-3-1-3-3a36 36 0 0 1 0-12c7-1 13 0 19-2v-4H33a5 5 0 0 1 0-1v-10l1-1h14l2 3 8-5c2-1 3-2 5-1a15 15 0 0 0 3 0v8l-1 2 22-1h18l2-1 1-2c0-2 0-2 2-2h18v14c-3 2-7 0-11 2l1 11 2-2 18-14 3-3a8 8 0 0 1 1 0l3-3 3-2c2-2 4-3 6-2a10 10 0 0 0 2-1 2 2 0 0 0 2-2v-5l2-2h12a3 3 0 0 1 3 3c-2 7-5 13-6 20a43 43 0 0 1-2 7l-6 16-1 3 6 5a4 4 0 0 1 2 3v4l24-6 1-16a4 4 0 0 0 0-1h-4l-4 13-1 3a2 2 0 0 1-2 2l-7-1a28 28 0 0 1-14-6 64 64 0 0 1 6-16l2-7 3-7 3-12a13 13 0 0 1 3-6c6 1 12 2 18 5l-2 9 2-1 1-6 1-2 2-2h14v10h21c1 0 2 0 2 2v1l1 15v5c-7 2-14 2-22 1v12l29-7c2 8 2 17 3 25l-7 2-15 3-9 2v43l-24 1a34 34 0 0 1-1-4v-34l-24 8v30a18 18 0 0 1-3 1h-17c-3 0-3-1-3-4v-16-15-32-4l-5 5-4 5c-4-3-7-6-9-10l-8-11v24l18 1a7 7 0 0 1 2 4v4l1 18v2l1 28-1 3a111 111 0 0 0-21 3v-9l-1 6h-13l-3-1-2-1-10 1h-1c-1 3-4 2-6 2h-9a7 7 0 0 1-2 0v1c0 1 0 2-2 2zm31-32l2 14h13v-7-6l-15-1m32 19l2-32h-10c-14 0-28-1-42 1a10 10 0 0 1-2-1v7h1v-5h13l12-1h26a4 4 0 0 1 1 0v16c0 5-2 10-1 15m-48-62l-2-13-10 2 12 11m15-21a33 33 0 0 0 11-1v-4a36 36 0 0 0-12 1l1 4m13 12h-6l-6 1v4l12-2v-3m-12 20l11-1c1 0 2-1 1-2l-12 1v2m-26-47l-1 4h-3l-1 4h5a14 14 0 0 0 0-8m7 80c-1 5 1 17 2 20a155 155 0 0 0-2-20"/><path class="cls-1" d="M185 42l6-1 10-1 10-1h33a23 23 0 0 1 1 4l1 18 1 17v24l1 26v6a117 117 0 0 0 1 19l1 9c0 3 0 3-3 3h-31-1a24 24 0 0 1 0-7l2-1 4 1h3v-6a179 179 0 0 1-1-26v-4-18h-1a8 8 0 0 0-1 2l1 43v7h-17v-3c-1-3-2-4-4-3h-16l-11 2-13 1h-3l-1 8-1 1-21 2c-3 0-3-1-4-4l-1-18-2-26-2-18v-1c0-2 1-2 2-2h5a268 268 0 0 0-1-27l-7-1v-8a37 37 0 0 0-4 2c-3 2-7 3-10 6L99 77c-2 1-4 1-6-1l-4-5-5-5 15-18a75 75 0 0 1 15-13h1c2-2 3-1 4 0l4 8 2 2v-4a9 9 0 0 1 2 0h10l2 1 2 1 10-1h14a6 6 0 0 0 1 0c5-2 11 0 16-1 2 4 1 42 0 47l-14 1-15 2v2h3l15-1h8l26-1 17-1 1-3a15 15 0 0 0-7-1l-8 1h-7l-8 1a37 37 0 0 1-1-4l-4-26-2-14-1-2m-33 33h9l5-1c1 0 2-1 1-2l-2 1-11 1-2 1a6 6 0 0 0-3 0v1l3-1m53 47v-3c-9-1-18 1-27 1v3c9 1 18-1 27-1m-51-14v4a1138 1138 0 0 0 5 24l-2-29-3 1m23 1l25-1v-2h-25zm26-54l1 3 17-1v-3l-18 1m2 20l17-1-2-1h-14a7 7 0 0 0-1 0zm-3 58v-1l-7 1h-7l-6 1c4 2 8 1 12 1a23 23 0 0 0 8-2m-55-76v2l18-2v-1l-18 1"/><path class="cls-1" d="M73 69l1 13 2 11a8 8 0 0 1 0 6h-9v8l14-1v19H67v2l21 2-1 17H69v7l-13 7a42 42 0 0 1-6 2v-36h-2v34a16 16 0 0 1-2 0H30c-2 0-2 0-2-2a181 181 0 0 1 1-26l1-4h-6c0-6 1-11-1-16l8-1 16-2h1v-6l-22 7-6-17 18-8-5-12h-2l-11 4a5 5 0 0 1-1 0c-2-6-4-11-8-17l22-7 1 7 1 3c0 1 0 2 1 1 3-2 7-2 11-3a6 6 0 0 0 1-1h-1l15-3a2 2 0 0 0 1-1l1-8 2-2 9-4a18 18 0 0 1 4-1l3 8 2 6c1 2 0 4-2 5a11 11 0 0 0-2 1l-7 4v4zM58 82c1-5 3-9 2-15l-8 2 2 7 2 7 2-1"/><path class="cls-1" d="M73 69l1-2 6-1a3 3 0 0 1 3 2 46 46 0 0 0 11 11 3 3 0 0 0 4 0c4-3 8-5 11-9a8 8 0 0 1 7-3l13 1c2 0 2 0 2 2l1 8v15l-8 2 1 33 1 32-18 1v-8l-3-1a46 46 0 0 1 0-9l2-24-2-27-2 1v9c0 14 0 29-2 43l-2 12c-6-1-12 1-18-2v-8h7l1-6v-7-7h-7v-3l1-19V93h-5l-1-5-3-15a30 30 0 0 0-1-4M48 60l-7 1h-4l-1-8V43c0-3 0-4 3-4h21l4 1a37 37 0 0 1-1 5l-2 12h-1l-12 3h-1 1"/><path class="cls-1" d="M107 166l-35 1v-14h7l1 2v1c3 2 15 2 21 2l1-4h5zM19 32c1 3 4 9 3 12-1 5-5 4-8 4a22 22 0 0 0-13 8 2 2 0 0 0-1 2l9 20c1 2 3 1 3 0-1-8-5-16-8-22l-1 2a19 19 0 0 1 14-7l6-1c5-4 0-14-2-19l-2 1M16 134c-2 10-1 22 1 32a1 1 0 0 0 2-1l-1-31h-2M8 118v28a1 1 0 0 0 2 0v-28a1 1 0 0 0-2 0M19 207l1 34 1 33a2 2 0 0 0 1 2c6-1 11-2 15-7 0-1-1-2-2-1-4 2-8 4-13 4l2 2-1-34c0-11 0-22-2-33h-2M139 32c17 3 35 5 53 3a1 1 0 0 0 0-2l-53-3c-1-1-2 2 0 2M164 26c9 0 18 1 27-1a1 1 0 0 0 0-2h-27a1 1 0 0 0 0 3"/></g></g></svg>