<svg xmlns="http://www.w3.org/2000/svg" viewBox="0 0 247 260"><defs><style>.cls-1{fill:#231815}</style></defs><g id="Layer_2" data-name="Layer 2"><g id="圖"><path class="cls-1" d="M6 63a29 29 0 0 1 4-1h21l3-2-3-16-4-26-1-7c-1-1 0-3-2-3V7 2a29 29 0 0 1 7 0l20 2a12 12 0 0 1 1 1l1 3h45l1-3c9 0 17-1 26 3l-1 8a73 73 0 0 0-4 16 4 4 0 0 1-2 3l-4 2c-2 1-2 2-1 4l3 8a5 5 0 0 1 0 4l-2 6c6 1 12-1 18-1v5l-13 4v7l-4 1H76a5 5 0 0 0-4 1h7l38-1c4 0 4 0 4 4l2 7v9l-2 4-3 4-5 10 13 5v5a6 6 0 0 1 0 3l-6 13c-1 3-4 4-7 2l-3-2-9-5-3 3a5 5 0 0 1-4 2h-8v1h17a4 4 0 0 1 1 4c-2 4-1 7-2 11l9-6a11 11 0 0 1 3-2 21 21 0 0 1 4-2 4 4 0 0 1 4 1l4 3 5 7a3 3 0 0 1 1 2 27 27 0 0 1 0 3l-18 8h1l11 1h2c3 0 4 1 4 3v16a32 32 0 0 1-3 12 23 23 0 0 0-1 4l-3 11a100 100 0 0 0-4 16 27 27 0 0 1-1 3l13 4v16a281 281 0 0 1-29 2 16 16 0 0 1-2 0c-2-5-2-17-1-20h5l1-6a103 103 0 0 0-21 1 79 79 0 0 0-1 11v10a9 9 0 0 1-2 0l-13-1-11-1h-3a12 12 0 0 1-1-2v-9a3 3 0 0 1 2-4l17-9-1-2-9-17a15 15 0 0 1-2-10 2 2 0 0 0-1-1l-1 3-14 2c-5 0-9 2-14 3l-15 3v-10l-1-12v-4h45l1 13v-2-11a16 16 0 0 1 1-2l1-6c1-2 3-2 6-2 1 0 2 0 2-2a50 50 0 0 0-6-7l-8-6c-2-2-2-5 0-6l9-7c2-2 3-2 5 0l10 13 2 2v-19h-1-1v11h-3l-2-4a21 21 0 0 1-3-11v-6a2 2 0 0 1 1-2l8-6-5-4-5-4v24c0 3-1 4-4 4l-11-1h-7v-6l1-5c-12 2-25 5-38 5v-3a50 50 0 0 0-1-8 17 17 0 0 1-1-6 3 3 0 0 1 3-3l8-1V80a21 21 0 0 1-11 2 42 42 0 0 0-1-5l-4-8-1-1zm49-16h39l1-5H55zm0-16h41v-5H55zm55 175l-27 1v6l26 1 1-8m0-21c-6-1-23 0-27 1v4h26a4 4 0 0 0 1-1zM93 58H55a3 3 0 0 0 1 4c12-1 25-2 37-1zM37 84l19-2 1-4H43a38 38 0 0 0-4 0h-1l-1 6m62 12H83l1 3 10 8 5-11m-61 3l17-2v-5l-17 1v6m15 13H40v2h13v-2"/><path class="cls-1" d="M148 40c5-1 10-3 16-3l1-2 1-6 1-4 9-4a8 8 0 0 1 5-1l2 5 3 9a3 3 0 0 1-2 5l-8 4c-2 1-2 3-1 5l1 10 2 14a9 9 0 0 1 0 6h-7l-2 1v7l14-1v19h-14v2l21 2v3l1-5h-4a3 3 0 0 1-3-3l1-18V72h-6l-4-24v-2c4 0 7-2 10 1v-2l3-3 15-16a70 70 0 0 1 14-12c2-2 3-2 4 1l6 10 4 7a6 6 0 0 1 0 2c1 2 1 3-1 3a62 62 0 0 0-17 9 3 3 0 0 0-1 1h2a7 7 0 0 1 2-1 132 132 0 0 0 22 0h2l-2 12-1 12-11 1a12 12 0 0 0 0 2l1 17v20c0 10 0 20 2 29a7 7 0 0 0 0 2l1 2a11 11 0 0 1-1 3 28 28 0 0 1-8 0 39 39 0 0 0-12-1c-1-25 0-49-2-74h-2v36l-2 15a119 119 0 0 0 0 16v3l-12 1-4-2-5-4c1 2 2 4 5 6 1 1 1 3-1 4a25 25 0 0 1-3 2l-15 7-4 2-1-1-9-8c-2-2-2-3 0-5l6-4 6-5 3-2c1-1 3-2 2-4a2 2 0 0 1 3 1l3 3 3 2v-5c0-3 0-3 3-4h6a17 17 0 0 0 1-8l-1 7a139 139 0 0 1-19 0v4a5 5 0 0 1-3 4l-3 3-7 5a28 28 0 0 1-3 2 8 8 0 0 1-2 1v-38h-2a3 3 0 0 0-1 1v32h-3l-9 1a47 47 0 0 1-5 0c-2 0-2 0-2-2v-14l1-14v-2h-4c-2 0-3-1-3-3v-6l1-6c0-2 0-2 2-2h10l13-2v-6l-8 3-13 4a3 3 0 0 1-4-2l-3-12-1-5c0-2 0-3 2-3l7-1 8-1-3-11-13 3-8-18 3-1 17-6a28 28 0 0 1 4-1l-1 6 1 5 10-3zm9 21c3 0 3 0 4-2v-4l1-9-8 2 3 13m54-13l-10 7c-2 2-4 2-6 0l-7-6a16 16 0 0 0-2 0 42 42 0 0 0 12 10c5-3 10-6 13-11"/><path class="cls-1" d="M205 194l7-5h3a331 331 0 0 0 27 26l2 2-3 3a30 30 0 0 1-3 3l-13 10c-3 2-3 2-5-1l-11-17-5-5-1 1h-11l-1-6h-31l-1 5-5 1v-7c-3-1-5-3-9-3a3 3 0 0 1-2-3 19 19 0 0 1 0-3l-1-30v-15-1l11-1 2 1 9 9 19-8c3-2 6-2 9-2h18a9 9 0 0 1 2 0v3l-1 6-2 22v8a3 3 0 0 1-1 3 33 33 0 0 0-3 3l-2 1v1l2-1m-45 3c11 1 21 0 31-1v-5h-31zm32-14l1-7h-33v7h32m2-21h-35v4l7 1h24c4 0 4 0 4-4a5 5 0 0 0 0-1m4 37v1l3-3-3 2m0 0l-1 1 7 11v-1l-6-11"/><path class="cls-1" d="M189 223l9-5 4-2 3-1a6 6 0 0 1 2 1c5 6 10 12 11 20 1 6-1 11-6 14a31 31 0 0 1-13 6c-6 1-12 0-17-1l-19-3-4-1-6-1-6-2a48 48 0 0 1 1-5l2-10a12 12 0 0 1 0-2c1-3 3-4 5-3a37 37 0 0 0 4 2 66 66 0 0 0 9 3 100 100 0 0 0 20 1h1c4 0 5-2 3-6a35 35 0 0 0-3-5M17 219l11-4 16-5 12-4a14 14 0 0 1 3 0l3 5 6 9a54 54 0 0 1 2 6l-8 5a16 16 0 0 0-3 1c-3 3-7 4-10 5l-16 8v1a2 2 0 0 1-4 0 8 8 0 0 1-1-2l-6-12-4-9a5 5 0 0 1-1-4M23 148a9 9 0 0 1 6 1c8 4 17 7 25 9l9 4a8 8 0 0 1 0 2 83 83 0 0 1-4 13 2 2 0 0 1-3 2l-11-1h-5l-9-1-10-2a11 11 0 0 1-3 0l-1-1c1-2-1-4 1-6a2 2 0 0 0 0-1l5-19M153 205a15 15 0 0 0-1 9 17 17 0 0 1-1 4l-3 17-3 6-5-1-14-4-3-1a25 25 0 0 1 1-4l3-14a71 71 0 0 0 3-12 59 59 0 0 1 1-7l1 3c1-2 3-2 4-2l10 3 7 3"/><path class="cls-1" d="M161 206l20-1 6 1a3 3 0 0 1 3 2l1 7c0 4-1 7-5 9a12 12 0 0 1-6 1l-16-2c-3 0-3-1-3-4v-9-4M148 40l-9 1a44 44 0 0 1-1-7V21c0-2 1-3 2-3 8 0 17-1 25 1a21 21 0 0 1 0 7l-2 10a63 63 0 0 0-15 4v-1"/><path d="M205 193l-2 2v-1l2-1" fill="#fff"/><path class="cls-1" d="M18 15l5 37h2a119 119 0 0 0-5-38c0-1-2-1-2 1M0 75l5 14a3 3 0 0 0 3 2 25 25 0 0 0 7-1v-2a31 31 0 0 0-5 0c-1 0-2 1-3-1a14 14 0 0 1-1-3l-5-9H0M61 4c11 0 23 0 35-2a1 1 0 0 0 0-1C84-1 72 0 60 2v2M5 125l2 10 2 6 6 1h9v-1a29 29 0 0 0-6-1c-2 0-6 1-7-1l-3-7-3-7M14 156a92 92 0 0 0-3 15c0 1 1 2 2 1 2-5 4-11 3-15a1 1 0 0 0-2-1M11 194v11c0 2 0 6 2 9 2 4 8 0 11-2v-2l-7 2c-1 1-2 0-2-1l-1-5-2-12a1 1 0 0 0-1 0M57 255a105 105 0 0 0 23 4v-2a67 67 0 0 0-23-3 1 1 0 0 0 0 1M14 239l10 15a2 2 0 1 0 3-3l-10-13c-1-2-3 0-3 1M197 21c10-3 17-13 27-17l-2-1c2 6 3 13 7 19 1 1 3 1 2-1 0-6-3-13-6-20a2 2 0 0 0-3-1c-10 5-16 14-26 19-1 1-1 2 1 2M230 84l-1 26c0 9 0 17 3 25a1 1 0 0 0 1 0v-25l-1-26h-2M223 196l11 9 10 9a2 2 0 0 0 2-2c-5-7-14-13-21-18-1 0-3 1-2 2M156 256c14 3 28 4 42 4 9 0 22-3 25-12a1 1 0 0 0-1-1c-4 4-7 7-13 9s-12 2-17 2c-12 0-24-2-35-3l-1 1M213 158c-2 6-1 12 0 17a1 1 0 0 0 1 0l1-17h-2M143 11l15 1c2 0 7 0 9 2l1 4c1 1 2 0 2-1 0-5 0-7-6-8a70 70 0 0 0-21 0v2"/></g></g></svg>