<svg xmlns="http://www.w3.org/2000/svg" viewBox="0 0 237 269"><defs><style>.cls-1{fill:#231815}</style></defs><g id="Layer_2" data-name="Layer 2"><g id="圖"><path class="cls-1" d="M228 243a4 4 0 0 1-1 0h-10a2 2 0 0 1-1 0l-8-7-2-1 1 7a11 11 0 0 1-4 9l-9 11a5 5 0 0 1-1 0c-1 1-1 0-2-1a19 19 0 0 1-3-2l-2-2-3-2-3-2a8 8 0 0 0 0-1l6-5v-1l-6 1-7 2a18 18 0 0 1-3 1 2 2 0 0 1-1-2l-3-14 25-8v-7c-4 3-9 4-14 6l-5 2a7 7 0 0 1-1 1c-1 0-2 0-3-2l-4-12 1-2a40 40 0 0 0 5-2 182 182 0 0 0 12-6l3-2-1-2a1 1 0 0 0-1-1l-10 1h-7l-2 12-2 17-1 6 1 1a4 4 0 0 1 0 1v12a2 2 0 0 1-2 3h-12l-2-2v-19a6 6 0 0 0 0-1 3 3 0 0 1 0-1 124 124 0 0 1 0-18l1-8c0-1-1-2-2-1 1-3-3 0-5 0l-2-7-2-21v-6a18 18 0 0 0 2 0l9-3c-4 1-8 1-11 3a2 2 0 0 0-1 3l2 22 1 7a11 11 0 0 0 1 3 1 1 0 0 0 1 0h4l-1 2a2 2 0 0 0-1 1v31l1 14v8h-15a45 45 0 0 1-1-12v-26a98 98 0 0 0 0-12l-1-14-1-14-4 2a1 1 0 0 1-2 0l-10-11v-2l6-6a46 46 0 0 0 5-5 71 71 0 0 1 12-11l13-10a106 106 0 0 1 10-7l-7 34 2-2 4-23 2-13a21 21 0 0 1 3 0l15 2 2 1a9 9 0 0 1 0 4l-2 6h12l13-1 1 1-1 11-1 9h9l7 1 1 1-1 26v10l-1 1h-6l-1-1h-4l2 9 1-1 9-4a6 6 0 0 1 2 0h10l1 1v10l-1 2a27 27 0 0 0-3 1l-8 4 13 11zm-73-65l1 10 12-1v-12l-13 3m42-5h-8l-1 1-1 2v9l10-1zm-27-11h3c4 0 4 0 4-3v-1l1-5h-7l-1 9"/><path class="cls-1" d="M207 0v14l-1 15-1 10-1 7v6l-1 5-1 1-7 1h-14l-1-1-1-5-4 1h-5l-16 1a35 35 0 0 0-5 1 1 1 0 0 0-1 0v11h38l25-1a2 2 0 0 1 2 2 93 93 0 0 0 0 16l-4 1v19l2 10a56 56 0 0 0 4 15l2 6a1 1 0 0 1 0 1 64 64 0 0 1-9 1l-13 1-2-1h-4a1 1 0 0 1-2-1l-2-11-2-19-1-12v-3l-13 1-21 1h-4v3l-2 12-7 22-5 12c-1 3-2 3-4 2a26 26 0 0 0-4 0l-10-4-10-6v-3l1-1a3 3 0 0 0 1 0l5-6a12 12 0 0 0 4-7c0-3 3-4 5-5a23 23 0 0 1 4-2 14 14 0 0 0 6-4l2-3a2 2 0 0 0 1-2l-5-11-4-5a3 3 0 0 1 0-1V74a3 3 0 0 1 1-2 2 2 0 0 0 1-1l-1-3a4 4 0 0 1 0-2v-5-3a4 4 0 0 1 0-2 5 5 0 0 0 1-3l-1-6-4-14-3-8a9 9 0 0 1 0-2v-1a35 35 0 0 1 4-1l4-1 9-3a18 18 0 0 0 4-2l3-2 5-1v1l1 5 1 10v6l3-1 13-3a7 7 0 0 1 1 0h16v-1l1-17a43 43 0 0 1 0-4 27 27 0 0 0 1-4l1-1 12-2 6-1zM9 185l1-8 2-16 1-10v-3h17a8 8 0 0 1 2 0 1 1 0 0 1 1 1 10 10 0 0 1 0 2l24-1 4 1 1 1 1 7 1 10v7l2 12v6l-12 3a15 15 0 0 1-4-1l-2-6h-4v9h8l3-1h11a2 2 0 0 1 1 0l1 13-3 2-13 2-7 2 1 17h5l-1-7v-7l2-2h12l2 1-1 18v9l-1 2-11 2-20 2-13 1h-6l-1-1v-9l-1-6-1-10 3-2 7-1 5-1 1 2 1 5 1 6 4-1v-16l-8 1-6 1-5 1a2 2 0 0 1-1-1l-2-9v-6l1-2 13-2 7-1v-10h-2l-1 5-1 1h-5l-13 1a4 4 0 0 1-1-1zm37-14l-1-8-13 1v6l14 1M91 263l-2-1v-3-4-5-4l1-16 1-19v-2H70l-2-1 1-14a9 9 0 0 1 0-3 2 2 0 0 1 1-1l6 1h14l11-1v2c-1 1 0 2 1 2h11c3 0 3-1 3-3l1-2h6l1 1 1 12v3l-2 2-17 1v3l1 16a285 285 0 0 1 1 30 31 31 0 0 1-1 4l-2 2h-6a11 11 0 0 0-2 0zM38 117v-3H21c-2 0-2-1-2-4V98h-5l-2-2V81l1-1h14l1 6h8l11-1h10l1-1-1-1-11 1h-4l-12 1h-2a22 22 0 0 1 0-3 18 18 0 0 1 0-3l1-7v-1h27l1 1v9l1 2 1-2v-4h13a96 96 0 0 1-1 20h-3v17H53v3h18c1 5 4 10 8 15-4 0-7 3-10 4a26 26 0 0 0-3 1l-2-2-1-1-4-7-4-6-1-2a10 10 0 0 0-1-2 17 17 0 0 0 0 4 58 58 0 0 1 1 12v7c-5 0-11-1-16 2v-22l-9 19-4-2a566 566 0 0 0-13-7 67 67 0 0 1 7-13 2 2 0 0 1 1-1l18 1m-2-13l15 1-1-7-14-1z"/><path class="cls-1" d="M71 76H59v-5c0-1 0-2-2-2H36l-6 1-2 1-1 6-6-1h-2a52 52 0 0 1-6-1 2 2 0 0 1-1-2v-7-11l-1-27a23 23 0 0 0 0-3v-1c-1-2-1-3 2-3h17l15-1h18l14-1 2 1v14a3 3 0 0 1-1 2l-8 6-3 3-6 4v2l1 1a40 40 0 0 0 9 16v8M55 52l-23 3v6h14a18 18 0 0 0 8-2 1 1 0 0 0 1-1v-6M31 41l24-3v-6l-24 2zM107 171l3 4 4 4c3 2 2 2 2 5l-1 8h-13v-5h-7l-17 1h-7l-1-2v-12l-1-20-1-9 2-1h16a2 2 0 0 1 1 1v5h27c3 0 3 0 3 2v7a4 4 0 0 1-1 3l-9 8v1m-20-9v11l8-1 6-1a1 1 0 0 0 1 0v-9zM82 137a31 31 0 0 0-1-3 9 9 0 0 0-1-1 2 2 0 0 1-1-1l-4-9-2-3a3 3 0 0 0 0-1l-1-1-1-5 1-1c5-1 10-5 14-7l17-9 7-5 6-4 2-1c1-1 3-1 4 1a75 75 0 0 1 4 7l3 8a55 55 0 0 1-4 5l-5 3a47 47 0 0 1-5 2c-4 1-7 5-10 7-2 0-3 2-5 3l-16 14-2 1M114 54l2 2 6 11 1 3a1 1 0 0 1 0 2L96 92l-13 7a52 52 0 0 1-5 4l-5 1h-1l-2-5c2-1 2-1 2-3l1-6 1-11a2 2 0 0 1 0-1l10-7 20-12 10-5"/><path class="cls-1" d="M73 68c-5-5-8-11-10-17a1 1 0 0 1 0-1l9-8 11-8 20-13h1l2 4 1 3 1 2 1 2 4 9 1 2a1 1 0 0 1-1 1l-2 2a7 7 0 0 0-1 1 3 3 0 0 1-1 1l-8 4-10 6-14 7-4 3M88 230v8l-1 10-1 1-10 2a61 61 0 0 1-9 0v-1l-1-13c0-2 1-2 3-3a43 43 0 0 0 5-1l14-3M89 211v14l-6 1H70l-2-1 1-11c0-3 0-3 3-3h17M125 251l-6-3-9-4a2 2 0 0 1-1-1v-10l1-1h10l5 2v17M125 218v6l-1 2h-14l-1-1v-11l1-1 12-4a7 7 0 0 1 3 0v9zM14 135c-2 1-3 0-2-1l2 1M27 14l28 1h26v-3H55l-28 1a1 1 0 0 0 0 1M0 239l4 20a1 1 0 0 0 1 1c16 4 34 7 50 5a1 1 0 0 0 0-2l-33-3c-4 0-14 0-16-4l-4-17c0-2-2-1-2 0M212 16c-2 11-5 24-5 35a1 1 0 0 0 2 0c4-11 4-23 5-34a1 1 0 0 0-2-1M218 15c-1 11-3 22-2 33 1 2 3 2 4 0 2-10 1-22 1-33 1-2-3-2-3 0M133 13a13 13 0 0 1 11-4l10 5a1 1 0 0 0 1-1c-1-5-6-7-11-7a16 16 0 0 0-13 5c-2 1 1 3 2 2M149 264c6 0 11-2 16-1a35 35 0 0 1 16 6c2 1 3-2 1-3-8-7-23-10-33-4v2M203 263c6-2 13-10 11-18a1 1 0 0 0-1 0c-2 7-4 13-11 16-1 1-1 3 1 2M212 105c3 13 7 27 14 39h1c-4-13-10-26-13-40 0-2-2-1-2 1M221 113l15 28c0 1 2 0 1-1l-13-28c-1-2-3-1-3 1"/></g></g></svg>