<svg xmlns="http://www.w3.org/2000/svg" viewBox="0 0 298 320"><defs><style>.cls-2{fill:#fde0e8}.cls-4{fill:#ffe9a1}.cls-8{fill:#ffc4da}.cls-9{fill:#88d5a9}.cls-10{fill:#bbac77}.cls-12{fill:#57423d}.cls-13{fill:#221714}</style></defs><g id="Layer_2" data-name="Layer 2"><g id="圖"><path d="M49 140s-22 3-30-18 8-27 8-27-24-25-8-52c0 0 7-11 26-10 0 0 3-23 14-26s25 7 29 15 18-11 30 1 18 27 6 38c0 0-31-17-40-13 0 0-19 18-29 20 0 0 12 19-2 34 0 0 15 16 9 25a47 47 0 0 1-13 13z" fill="#ffe2ed"/><path class="cls-2" d="M47 141c-6 0-22-2-28-18-7-18 4-27 8-28-4-4-23-28-9-52 0 0 8-11 27-11 0-3 3-23 14-26 12-3 25 7 29 16 2 3 4 2 9 0 6-3 14-7 21 1 9 8 13 17 13 24a18 18 0 0 1-6 14h-1S93 45 85 48c-2 2-19 18-29 20 2 4 10 21-2 34 3 3 14 16 9 25a47 47 0 0 1-14 14h-2zM43 33c-17 0-24 11-24 11-15 25 9 50 9 50v1c-1 1-16 8-8 27 7 19 27 18 28 18a47 47 0 0 0 14-14c5-8-9-23-9-24 13-15 2-34 2-34l-1-1h1c10-1 29-20 29-20 9-3 37 11 40 13a17 17 0 0 0 6-12c0-8-4-16-13-24-6-7-13-4-19-1-5 2-9 4-11 0-4-9-17-19-28-16S46 33 46 33v1h-1l-2-1z"/><path d="M149 67s-20-9-3-36 29-28 43-27 39 2 48 13 9 16 13 22 12 11 9 24-5 21-10 28-18 10-21 14 5-14-2-35-4-29-20-29-32-5-38 3l-19 23z" fill="#bfead0"/><path class="cls-2" d="M228 106v-2c0-6 3-19-3-34l-4-14c-2-11-3-14-15-14l-13-1c-10-1-20-2-24 4l-19 23h-1a19 19 0 0 1-9-12c-3-7 0-15 6-25 17-27 29-29 43-28s39 2 48 13a60 60 0 0 1 9 15 41 41 0 0 0 5 8l2 3c5 5 9 10 6 21l-1 4c-3 11-4 18-9 24-3 4-8 6-12 9l-8 6h-1zm-46-67l11 1h13c12 0 14 5 17 16l4 13c5 15 3 29 2 35 1-2 4-3 7-5 5-2 10-5 12-9 5-5 6-13 9-23l1-4c3-11-1-15-5-20l-3-3a43 43 0 0 1-5-8 60 60 0 0 0-9-15c-9-11-33-12-47-13s-25 1-42 28c-6 9-8 17-6 24a18 18 0 0 0 8 10l19-22c2-4 8-5 14-5z"/><path class="cls-4" d="M188 151s-8 1-19-8-17-9-20-24-1-29 0-41 0-17 7-23 3-14 16-15 10-6 25-1 13-4 21 12 14 12 14 29-4 25-4 25 14-13 17-14 9 3 7 13-7 13-11 16-7 6-9 6-12 37-12 37-1 12-8 18-11 15-19 8-8-11-6-21a69 69 0 0 0 1-17zM84 48s14 0 22 4 12 7 18 17 15 13 14 27 4 17-5 29-13 15-18 19l-6 4-1 9s6 5 2 14-4 12-10 12-12 4-16 0-8-7-6-14 1-17 1-17l-8-11s-1 10-8 9-13-2-14-6v-4s13-3 13-14a36 36 0 0 0-6-21c-3-3 4-12 3-18l-4-19s12-5 19-11l10-9z"/><path class="cls-4" d="M71 161l-13 3-11 15-32-31s6-12-1-13-10 5-7 15l-5 11c-1 0 2 10 6 12s7-2 7-2l28 32s5 6 15 2 9-8 9-8zM119 157s9-1 17 9a189 189 0 0 0 19 21l8 6-1 21-21-18s-15-32-22-39zM145 171l31-9-13 31-18-22zM233 166s14 9 25 10a106 106 0 0 0 21-1s8 8 1 11 5 10 5 10 13 2 7 11-8 7-18 9-14 1-21-3-4-8-12-13a119 119 0 0 0-17-9z"/><path d="M108 157v-5s9 5 19 19 18 31 15 43-16 1-16 1l-51 1s-6-2-7-15-1-28 2-35a21 21 0 0 1 7-11l5 2c-2 4-6 12-2 17s3 10 13 11 15-1 16-7 3-19-1-21z" fill="#ffeff6"/><path class="cls-2" d="M136 221c-4 0-9-4-10-5l-51 1c0-1-7-3-7-16-1-10-2-27 1-36a22 22 0 0 1 8-11l6 2v1l-2 3c-1 4-3 10-1 13a31 31 0 0 1 2 4c2 4 3 7 11 7 10 1 15-1 15-6l1-3c1-7 2-16-1-18h-1v-6h1s9 6 19 20c9 13 19 30 16 43-1 4-3 6-5 6a6 6 0 0 1-2 1zm-10-6s7 6 12 4c2 0 3-2 4-5 3-12-7-30-16-42-8-12-15-17-17-19v3c3 3 2 12 1 19l-1 3c-1 8-9 8-17 8s-9-5-11-9a31 31 0 0 0-2-3c-3-4-1-10 1-15l1-2-4-1a21 21 0 0 0-7 10c-2 8-2 25-1 34 0 12 6 15 7 15z"/><path d="M188 151s-12 11-16 18-13 31-10 45 60 4 60 4v-22c1-9 3-20 7-25l4-5-14-6a35 35 0 0 1-5 17c-6 9-13 16-21 12s-10-15-6-21 1-17 1-17z" fill="#f0fef4"/><path class="cls-2" d="M185 222c-12 0-23-1-24-8-2-13 7-38 11-45 3-7 15-18 15-19h1v1s4 11-1 17a15 15 0 0 0-1 12 13 13 0 0 0 7 9c6 3 13-1 20-12a35 35 0 0 0 6-17v-1l15 7-4 6c-4 5-7 15-8 24v23c-1 0-20 3-37 3zm2-70l-14 17c-4 7-13 32-11 45s54 5 59 4v-22c1-9 3-20 8-25l3-4-12-6a37 37 0 0 1-6 16c-7 12-15 16-22 13a15 15 0 0 1-7-10 16 16 0 0 1 1-12c4-5 2-13 1-16z"/><path d="M40 202s11 5 18 3-2 12-2 12l189 6-16-18h16s3 5 15 11 15 18 15 18l6 5-7 8 3 50s-40 40-49 6c0 0-3-8-14 1-9 7-49 14-60-8 0 0-2 3-15 3-3 0-57 24-65 1 0 0-10 11-15 0 0 0-37 17-40-6s0-47 0-47l-5-4-4-11s13-7 30-30z" fill="#ae857b"/><path class="cls-8" d="M18 105c-11 11 4 28 15 32 9 4 18 5 25-2s9-17 3-24c-4-5-14-4-16 2-2 4-2 11-9 9s-15-9-16-17a1 1 0 0 0-2-1zM47 99a27 27 0 0 0 5-30c-2-5-11-1-9 4 2 8 3 16 2 25-1 1 1 2 2 1z"/><path class="cls-8" d="M35 62c5 8 19 5 26 2 10-3 21-11 26-20 6-9-6-23-16-16L60 39l-11 7c-3 2-18 10-14 16z"/><path class="cls-8" d="M87 42c3 5 7 7 12 10l15 8c7 3 13-7 9-12-6-10-24-20-35-12-2 1-3 4-1 6zM71 193c-4 3-4 9-2 14 2 6 9 8 15 9 18 2 36 1 53-3 8-1 5-14-4-13a336 336 0 0 1-34 4c-8 1-24 3-23-9 0-2-3-3-5-2z"/><path class="cls-9" d="M148 59c9-8 16-17 28-22 12-4 25-3 36 5 9 7 18 17 22 28a30 30 0 0 1 1 14l-5 14c-1 3 1 6 4 5 15 0 18-22 16-33-3-16-16-29-28-39a46 46 0 0 0-48-7c-13 6-26 18-31 33 0 2 3 4 5 2zM185 217c7 3 17 4 24 0s12-10 10-17c-2-8-13-4-10 4 2 3 0 10 0 13 0 5 8 6 8 1 1-5 0-11 2-16l-10-2c-1 5-1 8-6 11s-12 2-18 3c-2 0-2 2 0 3z"/><path class="cls-10" d="M191 160c4 5 14 3 18 0 2-2 4-5 2-7a5 5 0 0 0-7-2 35 35 0 0 1-6 3l-6 2a3 3 0 0 0-1 4zM156 65c8-6 15-12 25-15s20-3 26 6a68 68 0 0 1 10 29c1 10-1 20-2 31-1 3 5 5 7 2 6-12 6-26 5-38-2-12-6-27-15-35-17-16-52-1-60 17a2 2 0 0 0 4 3zM62 73a34 34 0 0 0 31-20c3-6-6-9-8-3-4 10-13 16-24 17-3 1-2 6 1 6z"/><path class="cls-10" d="M56 69l6 16c1 3 3 16-3 16l5 4c-1-3 1-6 1-9s-4-4-5-2c-3 3-3 6-5 10-1 2 1 5 3 5 9 3 13-8 13-15 0-10-4-20-11-27a2 2 0 0 0-4 2z"/><path class="cls-10" d="M56 104c4 5 10 11 9 18 0 4-5 18-10 17l3 2a11 11 0 0 0-2-2 2 2 0 0 0-2 0 11 11 0 0 0-2 2c-3 2-1 6 3 7 10 1 16-14 17-22 2-11-5-19-14-24a1 1 0 0 0-2 2zM17 172l16 18c4 5 8 11 14 13 7 2 22-4 19-14a3 3 0 0 0-5-1c-3 3-3 6-7 8-5 1-9-2-12-5l-23-21a1 1 0 0 0-2 2zM82 173c-4 10 7 15 15 13 9-3 18-12 15-22a3 3 0 0 0-2-3c-2 0-3 0-4 2v3a13 13 0 0 1-1 6c-4 7-18 14-20 2a1 1 0 0 0-3-1zM89 157c4 2 11 3 16 1 3-1 3-7-1-7l-8 1-7 1c-2 1-1 3 0 4zM138 192l7 9 9 8a4 4 0 0 0 5 0 3 3 0 0 0 1-1 4 4 0 0 0 0-5l-10-8a37 37 0 0 0-9-6c-2-1-4 2-3 3zM155 185l3 2 6 2a13 13 0 0 1 1-9c2-3-3-6-5-3a16 16 0 0 0-3 12c1 3 5 3 6 1a8 8 0 0 0-1-9c-2-2-6-3-9-1-2 1-1 5 2 5zM223 188c5 5 11 8 16 14 5 4 8 10 14 13 12 6 28 2 39-4 6-2 1-11-4-8-11 6-27 10-36 1-7-8-16-18-27-19-2-1-4 2-2 3zM182 179c-1 8 10 11 17 9 9-2 17-12 16-22 0-1-1-2-2-1-5 4-7 10-12 14-6 6-12 4-17-1a1 1 0 0 0-2 1z"/><path d="M98 129v-1a1 1 0 0 1 0 2 1 1 0 0 1-2 1c-1 0-2-1-1 1a4 4 0 0 0 5 4c3-1 4-3 5-5a24 24 0 0 1 4-5l5-4a2 2 0 0 0-1-3c-5 0-10 5-12 8a10 10 0 0 1-1 2c-1 1-1 2 1 2v-3a5 5 0 0 0-3-3c-3-2-8-1-9 3-2 4 2 8 5 9 10 3 15-13 5-15s-10 15-1 12c3-1 3-5 0-5z" fill="#d9706f"/><path class="cls-12" d="M12 241c9 4 18 8 28 10a165 165 0 0 0 31 2l64-1 136-3c7 0 7-12 0-12l-133 4c-21 1-42 3-63 2l-29-3-31-5c-4-1-6 4-3 6z"/><path class="cls-12" d="M139 251c-3 7-3 16-3 24a150 150 0 0 0 2 25c2 9 14 5 13-3a190 190 0 0 1-3-23c0-7 2-15 0-22-1-4-7-5-9-1zM211 248c-2 5 0 13 1 18l2 21c0 9-4 30 10 33a6 6 0 0 0 6-2c3-6 1-12 1-18l-2-20a93 93 0 0 0-5-20c-2-5-4-11-9-13a3 3 0 0 0-4 1zM60 253v9l-1 12a208 208 0 0 0 1 26 8 8 0 0 0 16-3l-3-26-3-13c0-3 0-5-3-7-2-2-6-2-7 2z"/><path class="cls-12" d="M24 265c10 3 21 3 31 4l30 3 60 3h60l29-1 15-1c6 0 12 0 17-2 6-2 10-6 10-12a13 13 0 0 0-10-13c-9-2-21 0-31 0l-29 1h-60l-59-3-30-2-29-3c-15 1-19 22-4 26zM40 213c4 3 15 6 17-1 2-3-1-6-5-6l-7-1c-5-4-10 5-5 8zM235 210c1 11 14 18 24 18 8 0 8-12 0-12s-13-4-20-9c-1-1-4 1-4 3z"/><path class="cls-12" d="M224 207a7 7 0 0 0-3 6 9 9 0 0 0 2 6c3 3 10 6 13 2a6 6 0 0 0 2-6 5 5 0 0 0-4-3 11 11 0 0 0-4 0h1 1-1c1 0 1 0 0 0-1-1 1 0 0 0l-1-2v1c-1-1 1 0 0 0 0-1 0-1 0 0 0-1 0 0 0 0a13 13 0 0 0 0-2 4 4 0 0 0-6-2zM60 217a25 25 0 0 0 5-5 13 13 0 0 0 2-3l1-4-5 1a25 25 0 0 1 2 7l3-4a32 32 0 0 0-8 2 3 3 0 1 0 3 6 26 26 0 0 1 6-2c2 0 3-2 3-4a28 28 0 0 0-4-8 3 3 0 0 0-5 1l-3 4a19 19 0 0 1-4 4c-3 3 1 7 4 5zM145 217c2-1 2-3 3-5a57 57 0 0 1 0-7l-6 2a21 21 0 0 1 4 5c2 2 2 5 4 6 2 2 6 2 7-1 1-7-6-13-10-16-3-2-6 0-6 3a26 26 0 0 0 0 10c1 1 3 4 4 3z"/><path class="cls-12" d="M145 221a14 14 0 0 0 4 1l5-1a2 2 0 0 0 0-3l-5-1a14 14 0 0 0-4 0 2 2 0 0 0 0 4zM222 200a7 7 0 0 0-2 3c-1 3 3 7 6 5 4-1 5-6 5-10 0 0 0-1 0 0q0-2-3 1c-3 1-3 0-1 2l1 1a75 75 0 0 1 4 7c4 6 13 0 9-6a45 45 0 0 0-6-9c-3-3-6-5-10-4-3 1-4 4-4 7a26 26 0 0 0 0 3v1l1-1a14 14 0 0 0-1 1h8a7 7 0 0 0-3-2 4 4 0 0 0-4 1z"/><path class="cls-13" d="M43 136c-9-3-20-8-23-18-3-8 2-18 11-20 2 0 3-4 1-5-11-9-11-26-10-40 0-7 3-13 11-15a16 16 0 0 1 9 0h6a2 2 0 0 0 2-1c0-7-12-8-17-7-7 1-14 6-17 14s-2 20-1 29 5 19 12 24l2-5c-12 2-18 15-16 25 3 14 17 22 29 22 2 1 2-2 1-3z"/><path class="cls-13" d="M51 35c-2-9 1-21 11-24s20 4 21 14c1 3 4 5 6 4 10-7 23-6 31 2 6 6 11 19 4 26a2 2 0 0 0 1 3c16 0 9-24 3-31a32 32 0 0 0-43-7l6 3C90 11 75-1 60 4 48 8 40 25 47 36a2 2 0 0 0 4-1z"/><path class="cls-13" d="M89 52c14-1 27 10 35 20 8 9 12 20 11 32-2 11-7 21-15 28-10 9-22 13-34 16-2 1-2 5 0 5 29 5 56-22 58-50 2-14-5-27-14-37-10-12-26-22-42-19-2 1-2 5 1 5z"/><path class="cls-13" d="M44 70c10 3 21 0 30-6 6-4 19-17 13-25-2-2-4-3-6-1l-4 10a31 31 0 0 1-8 9c-7 6-16 10-25 9a2 2 0 0 0 0 4z"/><path class="cls-13" d="M50 70c3 4 6 9 6 15s-2 10-6 15c-2 3 3 6 6 4 11-9 10-32-4-38a2 2 0 0 0-2 4z"/><path class="cls-13" d="M50 107c10 4 14 16 6 24-9 9-19 1-29 2a2 2 0 0 0-1 3c10 10 30 9 38-4 6-12 0-26-12-30-4-2-5 3-2 5zM71 101c-1-7 1-17 10-16 10 1 11 13 15 20h3c2-12-7-27-20-26-10 1-16 13-12 22 0 2 4 2 4 0z"/><path class="cls-13" d="M73 100l4 9c1 2 2 5 4 5a1 1 0 0 0 2-1c1-2-1-4-2-6l-4-9c-2-2-5 0-4 2zM100 80c-2-10 11-12 17-6a20 20 0 0 1 5 8c0 3 0 6 2 8a1 1 0 0 0 2 0c3-4 0-11-2-15-3-4-7-8-12-9-9-2-18 6-16 15 0 3 4 2 4-1z"/><path class="cls-13" d="M102 84l3 12c1 3 6 2 5-1l-4-12c0-3-5-1-4 1zM116 112a29 29 0 0 1-21 8c-5 1-8 3-9 7-2 11 12 16 19 10a2 2 0 0 0-1-4c-4 1-11 4-13-2s6-5 9-6a25 25 0 0 0 18-11c1-1-1-3-2-2zM91 70c2-4 7-8 12-6 2 0 3-3 1-4-7-2-15 3-15 10-1 2 2 2 2 0zM48 138c-1 7 3 14 10 15 8 1 14-5 14-13 0-3-5-3-5 0 0 5-4 9-8 8-5 0-8-5-8-9 1-2-2-2-3-1z"/><path class="cls-13" d="M71 142l8 18c1 4 1 10 4 14a2 2 0 0 0 2 0c3-5 0-13-2-18a36 36 0 0 0-10-15 1 1 0 0 0-2 1zM107 145l-3 19c0 3 4 3 4 1 2-6 2-13 3-19 0-2-3-3-4-1zM77 137c1-4 3-8 2-12a1 1 0 0 0-2-1l-4 12a2 2 0 0 0 4 1zM64 81c3-3 6-5 11-5 2-1 2-4-1-4a16 16 0 0 0-13 7c-1 2 1 3 3 2z"/><path class="cls-13" d="M106 160c6 10 1 24-12 23a14 14 0 0 1-12-9c-2-6 0-11 2-16a2 2 0 0 0-2-1c-7 3-8 13-5 19a19 19 0 0 0 17 12c16 1 25-18 15-30-1-2-4 0-3 2zM151 68c-5-7-10-13-9-22 1-7 6-14 11-20 9-11 20-19 35-20 15 0 31 2 44 10 3 2 7 4 9 7 2 5 1 10 4 14l7 9c4 4 5 8 4 14l-4 15c-1 5-3 9-6 13-5 6-13 10-18 18l2 1c7-6 16-11 21-18a30 30 0 0 0 6-11l5-16a28 28 0 0 0-1-12c-1-5-4-8-8-12-4-5-4-10-6-15s-5-8-9-10C225 3 205-1 188 0s-30 9-40 22c-11 14-18 38 2 48 0 0 2-1 1-2z"/><path class="cls-13" d="M245 93c7 4 3 14 0 20-5 7-11 9-20 8l-1 3c9 11 24-1 28-10s6-24-6-25c-2 0-3 3-1 4zM153 66c9-23 42-34 60-15 7 8 12 20 13 30a51 51 0 0 1-1 16l-5 15a2 2 0 0 0 3 2c11-5 12-24 10-35-2-13-8-27-18-36-22-19-59-5-66 21-1 3 3 4 4 2z"/><path class="cls-13" d="M149 65c-2 6-2 14-3 21a109 109 0 0 0-2 18c0 11 3 22 9 31 7 8 18 15 28 18 9 3 26 5 31-5a2 2 0 0 0-1-3l-14 2a36 36 0 0 1-16-2c-9-3-19-9-24-17-6-9-7-19-7-29 1-11 4-23 3-34 0-2-3-3-4 0z"/><path class="cls-13" d="M153 77c8 1 18 3 25 1 1 0 2-2 1-3-8-3-17-2-25-2-2 0-3 3-1 4zM190 81l14 1c4 0 8 1 12-1a3 3 0 0 0 0-5l-12-1-14 1a3 3 0 0 0 0 5zM189 93a96 96 0 0 0 22 0l-3-3c-1 3-2 6-1 10a1 1 0 0 0 3 0c2-2 3-5 3-9a3 3 0 0 0-2-3 96 96 0 0 0-22 1c-2 0-2 4 0 4zM156 93l20 1-3-3v5l2 3a4 4 0 0 0 2 0 3 3 0 0 0 2-3v-5a3 3 0 0 0-3-3l-20 1a2 2 0 0 0 0 4zM166 119c-3 9 8 19 16 21 10 2 21-3 26-11 3-5-4-9-7-4-3 6-11 10-19 7a20 20 0 0 1-9-6l-4-7c-1-2-3-1-3 0zM203 116a41 41 0 0 1 6 2l5 4c2 1 4-2 3-4-1-3-4-4-6-5a10 10 0 0 0-8 0c-2 0-2 3 0 3zM249 38a13 13 0 0 1 7-4c2-1 5-1 5-4a2 2 0 0 0-2-2c-5-1-11 2-14 6-2 3 2 7 4 4z"/><path class="cls-13" d="M248 38l11 4c2 2 4 6 7 6a2 2 0 0 0 1-1c2-4-3-8-6-10a16 16 0 0 0-13-3v4zM228 125l-6 22c-2 7-5 15-5 22a1 1 0 0 0 3 1l7-21c2-7 5-15 6-23 0-3-4-4-5-1z"/><path class="cls-13" d="M187 157c3 8-4 15-5 23 0 8 6 13 14 13s16-5 20-12c4-5 9-18 2-23a2 2 0 0 0-2 0c-2 3-2 6-2 8a26 26 0 0 1-3 11c-4 6-11 12-19 10-7-3-2-13-1-18 2-5 3-10 0-14-1-2-5-1-4 2z"/><path class="cls-13" d="M219 160c9 8 22 13 33 17a33 33 0 0 0 15 1h9c3 1 4 1 3 4s0 2-2 3a2 2 0 0 0-1 2c3 5 9 1 10-4 2-6-3-10-9-11h-12c-6 1-10 0-15-2-10-4-20-10-30-12a1 1 0 0 0-1 2z"/><path class="cls-13" d="M266 188c7 3 13 6 19 11 3 2 7 6 5 10-2 2-6 3-8 3-8 2-16 3-24 1-6-2-11-6-16-10a1 1 0 0 0-2 1c-1 9 9 15 17 17 10 2 23 1 33-3 8-3 11-12 6-19-7-9-19-14-29-13-2 0-3 2-1 2z"/><path class="cls-13" d="M222 191l14 10c4 3 8 7 13 8a2 2 0 0 0 2-2c-2-5-7-9-11-11a55 55 0 0 0-17-8c-2-1-3 2-1 3z"/><path class="cls-13" d="M230 166a61 61 0 0 0-10 55c1 5 8 3 6-1-5-18-1-34 8-50 2-3-2-6-4-4zM190 154c-9-3-19 11-22 18a86 86 0 0 0-7 24c-1 7-2 16 1 23a1 1 0 0 0 3 0l2-19a112 112 0 0 1 4-20 40 40 0 0 1 7-13c2-2 7-10 11-9a2 2 0 0 0 1-4zM235 72c3 7-1 15-5 22-2 4-5 9-6 14l1 1c5-4 8-13 10-18 3-7 5-13 3-20-1-1-3-1-3 1z"/><path class="cls-13" d="M239 80a44 44 0 0 1-7 16c-3 4-6 7-8 12l1 1c9-6 16-18 17-29a1 1 0 0 0-3 0zM240 101c-4 3-8 7-10 12-2 3-2 8 3 7a9 9 0 0 0 5-3c1-1 3-2 3-4 0-4-7-2-9-2v3a14 14 0 0 0 4 0l2-1-3 3c-2 1-3 2-3 0 1-5 7-10 10-13 1-2-1-4-2-2zM181 109a4 4 0 0 0 2 5c1 1 4 0 5-1a2 2 0 0 0-2-3l-2 1a1 1 0 0 1 0-2c0-2-3-2-3 0zM150 66c-3-7-6-15-3-23a1 1 0 0 0-1-1c-7 5 0 19 3 25 1 1 2 0 1-1z"/><path class="cls-13" d="M151 64c-2-1 0-9 0-11l4-9a1 1 0 0 0-1-1c-4 1-5 7-6 11 0 3-1 11 2 12 1 0 2-1 1-2zM109 153c3 5 8 8 12 13a112 112 0 0 1 12 17 58 58 0 0 1 6 18c1 5-1 11 2 15a1 1 0 0 0 1 0c4-3 3-10 2-14a59 59 0 0 0-6-19 95 95 0 0 0-12-18c-4-5-9-11-15-14a1 1 0 0 0-2 2zM77 154c-10 0-10 20-11 27-1 12-1 28 8 37a1 1 0 0 0 1-1l-5-15a67 67 0 0 1 0-18 153 153 0 0 1 2-16 37 37 0 0 1 1-6l5-7-1-1z"/><path class="cls-13" d="M114 156l12 6a81 81 0 0 1 12 10l21 23c3 2 7-2 4-4l-25-26c-5-5-15-14-24-11v2z"/><path class="cls-13" d="M144 173c6 1 13-2 19-4 5-2 12-3 15-7a1 1 0 0 0-1-2c-5-2-12 2-16 4-6 2-13 3-18 7a1 1 0 0 0 1 2zM71 158c-5 1-12 2-15 5l-4 7a28 28 0 0 1-6 8c-2 2 1 5 3 3a33 33 0 0 0 7-10c2-4 4-5 7-7l9-2a2 2 0 0 0-1-4z"/><path class="cls-13" d="M54 188c-5-10-12-17-20-25-6-5-16-13-16-21 0-6-3-13-10-9s-5 15-1 21l1-3c-9 4-11 16-3 22 3 3 8 4 12 3 3-2 5-6 3-9a2 2 0 0 0-4 1l-7 3-2-2a8 8 0 0 1-2-5c-1-4 2-7 5-9a2 2 0 0 0 1-3c-2-4-4-9-3-13 1-2 4-4 6-1v4c0 6 2 9 5 13l15 14a101 101 0 0 1 17 21 1 1 0 0 0 3-2zM225 207l22 2c3 0 3-5 1-5-8-1-16-2-23-1-2 1-2 3 0 4z"/><path class="cls-13" d="M63 199a48 48 0 0 0-9 18 2 2 0 0 0 2 3l93 2 96 3c3 0 4-4 2-6-5-6-12-13-19-18a1 1 0 0 0-2 2c3 8 11 13 16 20l3-5-96-2-93-1 2 3a55 55 0 0 1 8-17c1-2-2-4-3-2zM101 177l9-1c2-1 0-4-2-4l-7 2c-1 0-2 2 0 3z"/><path class="cls-13" d="M15 173c2 5 7 10 11 15l12 15c5 6 11 9 18 6 5-1 12-6 11-12a1 1 0 0 0-2-1c-5 2-10 9-17 7-5-1-7-8-11-12-5-7-12-15-19-21-1-1-3 1-3 3zM140 197c2 5 8 9 12 13 2 3 6 7 10 7a2 2 0 0 0 1-3c0-2-2-3-4-4l-6-5c-3-4-7-8-11-10a1 1 0 0 0-2 2zM204 171a53 53 0 0 1 7 1 19 19 0 0 0 6 1v-1c-3-3-8-3-13-3v2zM191 171a9 9 0 0 1 3 0l3 1a2 2 0 0 0 1-2c-1-3-5-3-8-3-2 1-1 4 1 4z"/><path class="cls-13" d="M37 204c-8 10-16 19-26 26-2 2-2 5 0 5a229 229 0 0 0 64 8l67-4 136-1a3 3 0 0 0 2-5l-16-16c-2-3-6 1-3 3l15 17 2-5-134 2-65 4a211 211 0 0 1-66-8v5c11-7 21-17 27-28 2-3-1-5-3-3z"/><path class="cls-13" d="M10 234a66 66 0 0 0 1 7c0 2 0 4 2 5a1 1 0 0 0 1 0v-5a72 72 0 0 0-2-8l-2 1z"/><path class="cls-13" d="M13 245c18 6 37 8 57 8h61l124-2c7 0 19 1 25-5 4-4 4-11-1-14-3-2-5 2-3 4 6 7-10 8-13 8l-16 1-33 1-68 3-66 1c-22 0-45-1-67-7a1 1 0 0 0 0 2z"/><path class="cls-13" d="M17 246c-2 9-1 19-1 29v14c0 3 0 4 3 6a2 2 0 0 0 2 0v-1a1 1 0 0 0 0-1c-2-2 0-9 0-12v-12l-1-23a2 2 0 0 0-3 0zM275 249c-3 2-2 6-2 9v31c0 4-1 7 2 10a2 2 0 0 0 2 0c4-2 3-6 3-10v-15l-1-16c0-4 0-7-3-9a1 1 0 0 0-1 0zM60 255l-1 26 1 24a1 1 0 0 0 2 0v-24-26a1 1 0 0 0-2 0zM68 258l3 24 3 23a1 1 0 0 0 3-1l-2-24-4-23c0-2-3-1-3 1zM136 253c-2 17-2 36 3 52a1 1 0 0 0 2-1l-2-25v-26c0-2-3-2-3 0zM145 255l2 22 3 21a1 1 0 0 0 3-1c1-7-1-14-2-22l-3-20c0-2-4-1-3 0zM210 255l1 26 3 24c0 1 2 1 3-1 1-8 0-16-1-24l-2-25c0-2-4-2-4 0zM221 253c0 21 4 43 8 63 0 2 2 1 2 0-1-21-2-43-6-63-1-2-4-2-4 0z"/></g></g></svg>