<svg xmlns="http://www.w3.org/2000/svg" viewBox="0 0 306 325"><g data-name="Layer 2"><path d="M147 205c4-2 6-6 9-9l23-22 5-5c1-2 3-1 4 1l13 18 4 6 1 2-5 3-5 1-2 1v21c-1 3 0 3 2 4l3 1v6h-4l-1 2v1l-1 22c-1 2 0 3 2 3l1 2-1 17v14l-1 1h-24v-32l-2 3c-2 7-7 12-12 17-5 7-13 12-20 17a148 148 0 0 1-19 11 41 41 0 0 1-12 3 44 44 0 0 1-5 0H85l-1-1v-17l1-2c10-1 18-5 26-8 3-1 5-3 6-5a16 16 0 0 0 3-3 2 2 0 0 0 0-2l-4-7a1 1 0 0 0-2-1l-7 3c-1 1-2 1-3-1l-5-11-4-10c10-9 22-15 31-25l-4 4-6 5a70 70 0 0 1-7 4 27 27 0 0 0-2 1l-10 8-3 2a2 2 0 0 0 0 3c1 2 1 3-2 3l-6 2c3 0 6 0 9-2l6 12 3 6c0 1 1 2 2 1l7-3a2 2 0 0 1 1 0l5 8a79 79 0 0 1-6 5 81 81 0 0 1-18 8 7 7 0 0 1-2 0H75a19 19 0 0 1-2 0v2l-1 15-2 2H53l-2-2v-14-22-9h-4v2a271 271 0 0 1 1 33c0 2 0 2-2 2H29l-1-1-2-18v-18h-4c-2 0-2-1-2-2v-17-1l32-1 1-9-5 1H29c-2 0-2-1-2-2v-15c0-3 0-3 3-3v-2l-1-26v-3c-2-1-1-2-1-3v-16c0-1 0-2 2-2h25l28 1 13-1a3 3 0 0 1 1 1l-7 6-5 4a19 19 0 0 1-3 2c-2 1-2 1-1 2l7 10 6 7c2 2 3 3 5 1l2-2 1 2 6 12a51 51 0 0 0 3 5l4 4 2 3a1 1 0 0 0 1 0l12-7 4-3c2-1 0-2 0-3l-4-5a2 2 0 0 1 0-3l4-7c1-2 1-2-1-2l-26-1a8 8 0 0 0-4 2l-5 3a2 2 0 0 1-3 0c-6-4-9-10-13-15v-2l14-10 6-5 9-8a25 25 0 0 1 6-3 2 2 0 0 1 2 0l13 14c2 2 1 2 0 3a11 11 0 0 0-3 2h35l2 2-1 13a4 4 0 0 1-1 2l-16 17a7 7 0 0 0-1 2l-1 1 6 9a2 2 0 0 1 0 1l-5 7a2 2 0 0 1-1 0 35 35 0 0 1-4-4l-2-3a1 1 0 0 0-2-1l-8 6a4 4 0 0 0 0 1l8-6 10 11c2 2 4 4 8 4h11a2 2 0 0 1 2 2l2 5 2-15-2 1-4 3a2 2 0 0 1-3 0l-15-19a6 6 0 0 1-1-1 17 17 0 0 1-1-2zm-11 46l-1-1a11 11 0 0 0-1 1l-5 4a1 1 0 0 0 0 2l4 11c1 2 2 2 3 2 4-3 8-6 10-10a37 37 0 0 0 2-7c1-1 0-1-1-1zm-64 15h9l5 1c3 0 3 0 3-4a6 6 0 0 1 0-1c1-1 0-1-1-1l-13-1c-3 0-3 0-3 3v3zm13-10a17 17 0 0 1-2-3l-3-9-2-6c-1-1 0-2 1-2l4-1 6-2-7-1a5 5 0 0 1-1 0h-7v7h3l6 16c1 1 1 2 2 1zm-10-45h6a1 1 0 0 0 1-1v-8h-7zm-25-8v9h4v-9zm26-19l-1 4h7v-4zm-22 4v-5h-4c0 5-1 5 4 5zM174 33a15 15 0 0 1 0-1c0-2 0-2-2-2h-22a6 6 0 0 0-2 1l-2-1a4 4 0 0 1 0-1V13c0-3 1-3 4-3l14-1 9-1h11a173 173 0 0 0 18-1h14c1 0 2 0 2 2v17l-2 2h-18l-1 1-2 1v2c8 2 17 1 25 1v12c0 2 0 3-2 2l-15 1h-9v4h23c-1-2 0-2 2-2h12l2-36h6l15 1c2 0 2 0 2 2l-2 22-1 11h4l10 1h14c2 0 2 1 2 2v21l-2 11-1 13-2 13-1 12-3 16-1 6a46 46 0 0 0 0 7l-2 2c-6 0-12 0-17-3a23 23 0 0 0-5-1 3 3 0 0 1-3-4l4-25 4-26 1-18c0-3 0-4-3-3-2 5-3 11-2 17 0 10-2 20-4 30a94 94 0 0 0-3 26c0 2 0 2-2 2a19 19 0 0 1-11-1 7 7 0 0 0-2 0l-2-2 1-5a2 2 0 0 0-2-2v5l1 7-2 2h-1l-13 1h-62v-2-10l2-2 12-1h10v-3h-9l-14-1-2-1v-12l2-2h19l4-1v-4h-26v-6-18-21-14a11 11 0 0 1 0-1l6-1 1 1a3 3 0 0 0 1 0c6 1 12-1 18-1a1 1 0 0 0 1-1v-4h-22c-5 0-5 0-5-4v-9c0-2 0-2 2-2h12l14-1zm48 100l3-17 2-11 1-12 3-18c0-1 0-2-2-1h-6v40l-32 1v3h31zm-23-42h-7l-1 1v7a2 2 0 0 0 1 1 53 53 0 0 0 14 0l1-2v-5l-2-2h-6zm25 47c-3 0-4-2-3-5l-30 1v4h23a3 3 0 0 0 1 0 5 5 0 0 1 2-1l4 1a12 12 0 0 0 3 0zm-56-37h5a1 1 0 0 0 2-2v-6l-1-2h-11l-1 1-1 7 1 2zm6-30h-11a1 1 0 0 0-1 0 16 16 0 0 0 0 2c0 2 1 2 2 2h7c3-1 4-1 3-4zm31 0h-12c0 2 1 4 3 4h6c3 0 3 0 3-4z"/><path d="M260 200l5 5 5-5 1-1c0-2 1-1 3-1h4c2 0 2 0 2 2l1 20a9 9 0 0 1 0 2 19 19 0 0 1-1 4h-25l-2-1-1 7h15l1-1h17l1 26h-35l-1 13-1 20-1 10c0 2-1 2-2 2h-22l-1-1v-23l1-11v-7h-5l-15 1a75 75 0 0 1-8-2l-1-1v-23l30-3 1-6h-21a2 2 0 0 1-1 0l-3-1c-6-1-6-1-6-7l1-16h10a2 2 0 0 1 2 1l2 4c9-1 17-7 25-10l2 1h1a21 21 0 0 0-1-4l-5-12a88 88 0 0 1-4-13l1-6v-1-6h25a1 1 0 0 1 1 1v10a15 15 0 0 1-1 4l-5 14a18 18 0 0 0-1 2h1a4 4 0 0 0 0-1l8-20 5-9a2 2 0 0 1 1 0 13 13 0 0 1 11 3c3 4 7 6 11 9a6 6 0 0 1 1 2 13 13 0 0 0 1 2v3l-10 11c-2 3-4 6-7 7v2l-5 7a7 7 0 0 1-2-1l-7-7a23 23 0 0 0-2-2l-5-5h-1l12 12zM96 71l-6-12 30-9 13-4a39 39 0 0 1 7-1c2 0 3 0 3 2v46l-1 21v40l-5 5-4 1h-4l-3-4-5-7c-2-2-3-2-5-1a35 35 0 0 0-5 3 4 4 0 0 1-4 1l-19-3c-3 0-3 0-3-2v-16l-1-21c0-2 2-3 4-2l3 2a75 75 0 0 0 18 10l10 4-1-43h-2l-23 8-13 5c-2 1-2 0-2-2l-1-8 1-2a63 63 0 0 0 15-9 31 31 0 0 1 3-2z"/><path d="M84 149l-38 4v-6l1-31v-14-16a3 3 0 0 1 2-2l14-8 10-4c2-1 2 0 3 2v14l2 13 2 15 2 22 2 11zM13 52l7-6c10-9 21-16 32-22l12-8 2-2 2 4 10 22a9 9 0 0 0 1 1c2 3 2 2-1 4L64 55l-9 7-20 13a38 38 0 0 1-4 2 2 2 0 0 1-2-1l-6-8-10-16z"/><path d="M77 81v-6l-1-4-1-1a46 46 0 0 0-13 6 59 59 0 0 1-14 7 4 4 0 0 0-2 4v4l-1 16a2 2 0 0 1-1 2c-5 4-10 9-14 15a6 6 0 0 1-1 1h-2a43 43 0 0 0-4-6l-12-16a23 23 0 0 1-2-4 2 2 0 0 1 1-1l9-7 21-16 13-9 12-9 14-10a1 1 0 0 1 2 1l4 6a97 97 0 0 1 9 16l-1 2-12 8a25 25 0 0 1-4 1zM130 13h12c2 0 2 1 2 2v20a3 3 0 0 1-3 3c-7-1-14 2-22 3l-10 1-23 1-4-1v-4-17l1-2a43 43 0 0 1 6-1 102 102 0 0 0 18-2l23-3zM197 162l8-1 4-2 13-5h1l3 12a98 98 0 0 0 5 17l3 11a2 2 0 0 1 0 2l-11 6-9 3c-2 1-2 1-3-1a5 5 0 0 0-1-1v-1l-4-12-3-9-4-12-2-7zM115 216l-7-11-6-11v-1c2-1 3-3 5-3l12-1a3 3 0 0 1 3 2l9 13c2 3 2 5-1 7l-11 6a2 2 0 0 1-3 0l-1-1zM24 26c-5 3-7 8-11 13L1 53a3 3 0 0 0 0 5c6 4 7 8 11 13a2 2 0 0 0 4-1c0-7-6-13-11-17v5a158 158 0 0 0 12-15c4-4 8-10 10-15 0-2-2-3-3-2zM290 236a107 107 0 0 0 0 13l1 8v7h-13a110 110 0 0 0-13 2c-1 0-1 3 1 3a155 155 0 0 0 18 0c3 0 9 1 11-2s0-10 0-14l-3-18a1 1 0 0 0-2 1zM234 311a73 73 0 0 0 10 1c3 0 6 1 8-1s1-6 1-8v-13c0-1-2-2-2 0l-2 17c0 2-1 1-3 1h-5a52 52 0 0 0-7 1 1 1 0 0 0 0 2zM76 306v12c0 2 0 4 2 5 3 2 7 0 10 0l13 2c2 1 4-2 2-3-5-3-12-3-17-2-4 0-6 1-7-4l-1-10a1 1 0 0 0-2 0zM11 242l-2 19c0 3-1 6 3 7 1 0 2-1 3 1l1 5v10l1 22a2 2 0 0 0 2 1l19 2c1 0 2-2 1-3-6-2-13-2-20-2l2 2-1-22c-1-5 0-11-2-16-2-4-5-2-6-5v-10a98 98 0 0 0-1-11s0-1 0 0zM18 162l-2 19v7l1 1 1 6v9l-3 9c-2 3-2 7 0 10a1 1 0 0 0 2 0c0-4 0-6 2-9l3-5v-16a11 11 0 0 0-1-5l-2-2v-5a459 459 0 0 0-1-19zM265 44c6 2 13 1 18 1h8l-1 10-7 39a2 2 0 0 0 3 1c6-16 9-32 11-49 0-6-3-8-9-8l-12 1c-4 0-8 0-11 2v3z"/><path d="M287 29h9c4 0 4 4 4 7l1 20h4c1-8 1-18-1-26s-10-4-16-5c-2 0-3 3-1 4zM149 5l37 1 37-1-2-2a46 46 0 0 0 0 12c0 2 3 1 3 0a46 46 0 0 0 2-12 3 3 0 0 0-3-3l-37 1-37 2a1 1 0 0 0 0 2zM88 11l14 1 15-1a2 2 0 0 0-1-4h-15L88 8v3zM110 91l1 27a1 1 0 0 0 2 0 96 96 0 0 0-1-28l-2 1zM282 120a191 191 0 0 1-4 33 2 2 0 0 0 1 2l14 14a2 2 0 0 0 2-2 40 40 0 0 0-7-9c-1-1-5-3-5-5v-5a150 150 0 0 0 1-28 1 1 0 0 0-2 0z"/></g></svg>