<svg xmlns="http://www.w3.org/2000/svg" viewBox="0 0 537 756"><defs><style>.cls-1{fill:#00b26e}.cls-2{fill:#fff}.cls-3{fill:#e60012}</style></defs><g id="Layer_2" data-name="Layer 2"><g id="圖"><path class="cls-1" d="M248 747a9 9 0 1 1-9-9 9 9 0 0 1 9 9zM248 724a9 9 0 1 1-9-9 9 9 0 0 1 9 9zM270 724a9 9 0 1 1-9-9 9 9 0 0 1 9 9zM227 703a9 9 0 1 1-9-9 9 9 0 0 1 9 9zM248 703a9 9 0 1 1-9-9 9 9 0 0 1 9 9zM270 703a9 9 0 1 1-9-9 9 9 0 0 1 9 9zM227 681a9 9 0 1 1-9-9 9 9 0 0 1 9 9z"/><circle class="cls-1" cx="239" cy="681" r="9"/><path class="cls-1" d="M270 681a9 9 0 1 1-9-9 9 9 0 0 1 9 9zM227 658a9 9 0 1 1-9-8 9 9 0 0 1 9 8zM248 658a9 9 0 1 1-9-8 9 9 0 0 1 9 8zM270 658a9 9 0 1 1-9-8 9 9 0 0 1 9 8zM205 636a9 9 0 1 1-9-8 9 9 0 0 1 9 8zM227 636a9 9 0 1 1-9-8 9 9 0 0 1 9 8zM248 636a9 9 0 1 1-9-8 9 9 0 0 1 9 8zM270 636a9 9 0 1 1-9-8 9 9 0 0 1 9 8zM162 614a9 9 0 1 1-9-9 9 9 0 0 1 9 9zM183 614a9 9 0 1 1-8-9 9 9 0 0 1 8 9zM205 614a9 9 0 1 1-9-9 9 9 0 0 1 9 9zM227 614a9 9 0 1 1-9-9 9 9 0 0 1 9 9zM248 614a9 9 0 1 1-9-9 9 9 0 0 1 9 9zM449 623a13 13 0 1 1-13-13 13 13 0 0 1 13 13zM270 614a9 9 0 1 1-9-9 9 9 0 0 1 9 9zM291 614a9 9 0 1 1-8-9 9 9 0 0 1 8 9zM140 592a9 9 0 1 1-9-9 9 9 0 0 1 9 9zM162 592a9 9 0 1 1-9-9 9 9 0 0 1 9 9zM183 592a9 9 0 1 1-8-9 9 9 0 0 1 8 9z"/><circle class="cls-1" cx="196" cy="592" r="9" transform="rotate(-89 196 592)"/><path class="cls-1" d="M227 592a9 9 0 1 1-9-9 9 9 0 0 1 9 9z"/><circle class="cls-1" cx="239" cy="592" r="9" transform="rotate(-89 239 592)"/><path class="cls-1" d="M270 592a9 9 0 1 1-9-9 9 9 0 0 1 9 9zM291 592a9 9 0 1 1-8-9 9 9 0 0 1 8 9zM356 592a9 9 0 1 1-9-9 9 9 0 0 1 9 9zM140 570a9 9 0 1 1-9-9 9 9 0 0 1 9 9zM162 570a9 9 0 1 1-9-9 9 9 0 0 1 9 9zM183 570a9 9 0 1 1-8-9 9 9 0 0 1 8 9zM205 570a9 9 0 1 1-9-9 9 9 0 0 1 9 9zM227 570a9 9 0 1 1-9-9 9 9 0 0 1 9 9zM248 570a9 9 0 1 1-9-9 9 9 0 0 1 9 9zM421 561a9 9 0 1 1-9-9 9 9 0 0 1 9 9zM270 570a9 9 0 1 1-9-9 9 9 0 0 1 9 9zM291 570a9 9 0 1 1-8-9 9 9 0 0 1 8 9zM313 570a9 9 0 1 1-9-9 9 9 0 0 1 9 9zM335 570a9 9 0 1 1-9-9 9 9 0 0 1 9 9zM119 547a9 9 0 1 1-9-8 9 9 0 0 1 9 8zM140 547a9 9 0 1 1-9-8 9 9 0 0 1 9 8zM162 547a9 9 0 1 1-9-8 9 9 0 0 1 9 8zM183 547a9 9 0 1 1-8-8 9 9 0 0 1 8 8zM205 547a9 9 0 1 1-9-8 9 9 0 0 1 9 8zM227 547a9 9 0 1 1-9-8 9 9 0 0 1 9 8zM248 547a9 9 0 1 1-9-8 9 9 0 0 1 9 8zM270 547a9 9 0 1 1-9-8 9 9 0 0 1 9 8zM291 547a9 9 0 1 1-8-8 9 9 0 0 1 8 8zM313 547a9 9 0 1 1-9-8 9 9 0 0 1 9 8zM335 547a9 9 0 1 1-9-8 9 9 0 0 1 9 8zM119 525a9 9 0 1 1-9-9 9 9 0 0 1 9 9zM140 525a9 9 0 1 1-9-9 9 9 0 0 1 9 9zM162 525a9 9 0 1 1-9-9 9 9 0 0 1 9 9zM183 525a9 9 0 1 1-8-9 9 9 0 0 1 8 9z"/><circle class="cls-1" cx="196" cy="525" r="9"/><path class="cls-1" d="M227 525a9 9 0 1 1-9-9 9 9 0 0 1 9 9z"/><circle class="cls-1" cx="239" cy="525" r="9"/><path class="cls-1" d="M270 525a9 9 0 1 1-9-9 9 9 0 0 1 9 9zM291 525a9 9 0 1 1-8-9 9 9 0 0 1 8 9z"/><circle class="cls-1" cx="304" cy="525" r="9"/><circle class="cls-1" cx="326" cy="525" r="9"/><path class="cls-1" d="M356 525a9 9 0 1 1-9-9 9 9 0 0 1 9 9zM119 503a9 9 0 1 1-9-9 9 9 0 0 1 9 9zM140 503a9 9 0 1 1-9-9 9 9 0 0 1 9 9zM162 503a9 9 0 1 1-9-9 9 9 0 0 1 9 9zM183 503a9 9 0 1 1-8-9 9 9 0 0 1 8 9zM205 503a9 9 0 1 1-9-9 9 9 0 0 1 9 9zM227 503a9 9 0 1 1-9-9 9 9 0 0 1 9 9zM248 503a9 9 0 1 1-9-9 9 9 0 0 1 9 9zM421 512a9 9 0 1 1-9-9 9 9 0 0 1 9 9zM270 503a9 9 0 1 1-9-9 9 9 0 0 1 9 9zM291 503a9 9 0 1 1-8-9 9 9 0 0 1 8 9zM313 503a9 9 0 1 1-9-9 9 9 0 0 1 9 9zM335 503a9 9 0 1 1-9-9 9 9 0 0 1 9 9zM356 503a9 9 0 1 1-9-9 9 9 0 0 1 9 9z"/><circle class="cls-1" cx="88" cy="481" r="9" transform="rotate(-24 88 481)"/><path class="cls-1" d="M119 481a9 9 0 1 1-9-9 9 9 0 0 1 9 9zM140 481a9 9 0 1 1-9-9 9 9 0 0 1 9 9zM162 481a9 9 0 1 1-9-9 9 9 0 0 1 9 9zM183 481a9 9 0 1 1-8-9 9 9 0 0 1 8 9z"/><circle class="cls-1" cx="196" cy="481" r="9" transform="rotate(-77 196 481)"/><path class="cls-1" d="M227 481a9 9 0 1 1-9-9 9 9 0 0 1 9 9z"/><circle class="cls-1" cx="239" cy="481" r="9" transform="rotate(-22 239 481)"/><path class="cls-1" d="M270 481a9 9 0 1 1-9-9 9 9 0 0 1 9 9zM291 481a9 9 0 1 1-8-9 9 9 0 0 1 8 9z"/><circle class="cls-1" cx="304" cy="481" r="9" transform="rotate(-88 304 481)"/><circle class="cls-1" cx="326" cy="481" r="9" transform="rotate(-22 326 481)"/><path class="cls-1" d="M356 481a9 9 0 1 1-9-9 9 9 0 0 1 9 9zM378 481a9 9 0 1 1-9-9 9 9 0 0 1 9 9zM97 459a9 9 0 1 1-9-9 9 9 0 0 1 9 9zM119 459a9 9 0 1 1-9-9 9 9 0 0 1 9 9zM140 459a9 9 0 1 1-9-9 9 9 0 0 1 9 9zM162 459a9 9 0 1 1-9-9 9 9 0 0 1 9 9zM183 459a9 9 0 1 1-8-9 9 9 0 0 1 8 9zM205 459a9 9 0 1 1-9-9 9 9 0 0 1 9 9zM75 459a9 9 0 1 1-9-9 9 9 0 0 1 9 9zM227 459a9 9 0 1 1-9-9 9 9 0 0 1 9 9zM248 459a9 9 0 1 1-9-9 9 9 0 0 1 9 9zM270 459a9 9 0 1 1-9-9 9 9 0 0 1 9 9zM291 459a9 9 0 1 1-8-9 9 9 0 0 1 8 9zM313 459a9 9 0 1 1-9-9 9 9 0 0 1 9 9zM335 459a9 9 0 1 1-9-9 9 9 0 0 1 9 9zM356 459a9 9 0 1 1-9-9 9 9 0 0 1 9 9zM378 459a9 9 0 1 1-9-9 9 9 0 0 1 9 9zM97 437a9 9 0 1 1-9-9 9 9 0 0 1 9 9zM119 437a9 9 0 1 1-9-9 9 9 0 0 1 9 9zM140 437a9 9 0 1 1-9-9 9 9 0 0 1 9 9zM162 437a9 9 0 1 1-9-9 9 9 0 0 1 9 9zM183 437a9 9 0 1 1-8-9 9 9 0 0 1 8 9zM205 437a9 9 0 1 1-9-9 9 9 0 0 1 9 9zM227 437a9 9 0 1 1-9-9 9 9 0 0 1 9 9zM248 437a9 9 0 1 1-9-9 9 9 0 0 1 9 9zM399 437a9 9 0 1 1-8-9 9 9 0 0 1 8 9zM270 437a9 9 0 1 1-9-9 9 9 0 0 1 9 9zM291 437a9 9 0 1 1-8-9 9 9 0 0 1 8 9zM313 437a9 9 0 1 1-9-9 9 9 0 0 1 9 9zM335 437a9 9 0 1 1-9-9 9 9 0 0 1 9 9zM356 437a9 9 0 1 1-9-9 9 9 0 0 1 9 9zM378 437a9 9 0 1 1-9-9 9 9 0 0 1 9 9zM97 415a9 9 0 1 1-9-9 9 9 0 0 1 9 9zM119 415a9 9 0 1 1-9-9 9 9 0 0 1 9 9zM140 415a9 9 0 1 1-9-9 9 9 0 0 1 9 9zM162 415a9 9 0 1 1-9-9 9 9 0 0 1 9 9zM183 415a9 9 0 1 1-8-9 9 9 0 0 1 8 9zM205 415a9 9 0 1 1-9-9 9 9 0 0 1 9 9zM227 415a9 9 0 1 1-9-9 9 9 0 0 1 9 9zM248 415a9 9 0 1 1-9-9 9 9 0 0 1 9 9zM399 415a9 9 0 1 1-8-9 9 9 0 0 1 8 9zM270 415a9 9 0 1 1-9-9 9 9 0 0 1 9 9zM291 415a9 9 0 1 1-8-9 9 9 0 0 1 8 9zM313 415a9 9 0 1 1-9-9 9 9 0 0 1 9 9zM335 415a9 9 0 1 1-9-9 9 9 0 0 1 9 9zM356 415a9 9 0 1 1-9-9 9 9 0 0 1 9 9zM378 415a9 9 0 1 1-9-9 9 9 0 0 1 9 9zM119 392a9 9 0 1 1-9-8 9 9 0 0 1 9 8zM140 392a9 9 0 1 1-9-8 9 9 0 0 1 9 8zM162 392a9 9 0 1 1-9-8 9 9 0 0 1 9 8zM183 392a9 9 0 1 1-8-8 9 9 0 0 1 8 8z"/><circle class="cls-1" cx="196" cy="392" r="9" transform="rotate(-89 196 392)"/><path class="cls-1" d="M227 392a9 9 0 1 1-9-8 9 9 0 0 1 9 8z"/><circle class="cls-1" cx="239" cy="392" r="9" transform="rotate(-89 239 392)"/><path class="cls-1" d="M399 392a9 9 0 1 1-8-8 9 9 0 0 1 8 8zM270 392a9 9 0 1 1-9-8 9 9 0 0 1 9 8zM291 392a9 9 0 1 1-8-8 9 9 0 0 1 8 8z"/><circle class="cls-1" cx="304" cy="392" r="9" transform="rotate(-88 306 392)"/><circle class="cls-1" cx="326" cy="392" r="9" transform="rotate(-89 326 392)"/><path class="cls-1" d="M356 392a9 9 0 1 1-9-8 9 9 0 0 1 9 8zM378 392a9 9 0 1 1-9-8 9 9 0 0 1 9 8zM119 370a9 9 0 1 1-9-9 9 9 0 0 1 9 9zM140 370a9 9 0 1 1-9-9 9 9 0 0 1 9 9zM162 370a9 9 0 1 1-9-9 9 9 0 0 1 9 9zM183 370a9 9 0 1 1-8-9 9 9 0 0 1 8 9z"/><circle class="cls-1" cx="196" cy="370" r="9"/><path class="cls-1" d="M227 370a9 9 0 1 1-9-9 9 9 0 0 1 9 9z"/><circle class="cls-1" cx="239" cy="370" r="9"/><path class="cls-1" d="M399 370a9 9 0 1 1-8-9 9 9 0 0 1 8 9zM270 370a9 9 0 1 1-9-9 9 9 0 0 1 9 9zM291 370a9 9 0 1 1-8-9 9 9 0 0 1 8 9z"/><circle class="cls-1" cx="304" cy="370" r="9"/><circle class="cls-1" cx="326" cy="370" r="9"/><path class="cls-1" d="M356 370a9 9 0 1 1-9-9 9 9 0 0 1 9 9zM378 370a9 9 0 1 1-9-9 9 9 0 0 1 9 9zM119 348a9 9 0 1 1-9-9 9 9 0 0 1 9 9zM140 348a9 9 0 1 1-9-9 9 9 0 0 1 9 9zM162 348a9 9 0 1 1-9-9 9 9 0 0 1 9 9zM183 348a9 9 0 1 1-8-9 9 9 0 0 1 8 9zM205 348a9 9 0 1 1-9-9 9 9 0 0 1 9 9zM227 348a9 9 0 1 1-9-9 9 9 0 0 1 9 9zM248 348a9 9 0 1 1-9-9 9 9 0 0 1 9 9zM399 348a9 9 0 1 1-8-9 9 9 0 0 1 8 9zM270 348a9 9 0 1 1-9-9 9 9 0 0 1 9 9zM291 348a9 9 0 1 1-8-9 9 9 0 0 1 8 9zM313 348a9 9 0 1 1-9-9 9 9 0 0 1 9 9zM335 348a9 9 0 1 1-9-9 9 9 0 0 1 9 9zM356 348a9 9 0 1 1-9-9 9 9 0 0 1 9 9zM378 348a9 9 0 1 1-9-9 9 9 0 0 1 9 9zM119 326a9 9 0 1 1-9-9 9 9 0 0 1 9 9zM140 326a9 9 0 1 1-9-9 9 9 0 0 1 9 9zM162 326a9 9 0 1 1-9-9 9 9 0 0 1 9 9zM183 326a9 9 0 1 1-8-9 9 9 0 0 1 8 9zM205 326a9 9 0 1 1-9-9 9 9 0 0 1 9 9zM227 326a9 9 0 1 1-9-9 9 9 0 0 1 9 9zM248 326a9 9 0 1 1-9-9 9 9 0 0 1 9 9zM399 326a9 9 0 1 1-8-9 9 9 0 0 1 8 9zM421 326a9 9 0 1 1-9-9 9 9 0 0 1 9 9zM270 326a9 9 0 1 1-9-9 9 9 0 0 1 9 9zM291 326a9 9 0 1 1-8-9 9 9 0 0 1 8 9zM313 326a9 9 0 1 1-9-9 9 9 0 0 1 9 9zM335 326a9 9 0 1 1-9-9 9 9 0 0 1 9 9zM356 326a9 9 0 1 1-9-9 9 9 0 0 1 9 9zM378 326a9 9 0 1 1-9-9 9 9 0 0 1 9 9zM162 304a9 9 0 1 1-9-9 9 9 0 0 1 9 9zM183 304a9 9 0 1 1-8-9 9 9 0 0 1 8 9zM205 304a9 9 0 1 1-9-9 9 9 0 0 1 9 9zM227 304a9 9 0 1 1-9-9 9 9 0 0 1 9 9zM248 304a9 9 0 1 1-9-9 9 9 0 0 1 9 9zM399 304a9 9 0 1 1-8-9 9 9 0 0 1 8 9zM421 304a9 9 0 1 1-9-9 9 9 0 0 1 9 9zM479 304a9 9 0 1 1-9-9 9 9 0 0 1 9 9zM270 304a9 9 0 1 1-9-9 9 9 0 0 1 9 9zM291 304a9 9 0 1 1-8-9 9 9 0 0 1 8 9zM313 304a9 9 0 1 1-9-9 9 9 0 0 1 9 9zM335 304a9 9 0 1 1-9-9 9 9 0 0 1 9 9zM356 304a9 9 0 1 1-9-9 9 9 0 0 1 9 9zM378 304a9 9 0 1 1-9-9 9 9 0 0 1 9 9zM162 282a9 9 0 1 1-9-9 9 9 0 0 1 9 9zM183 282a9 9 0 1 1-8-9 9 9 0 0 1 8 9zM205 282a9 9 0 1 1-9-9 9 9 0 0 1 9 9zM227 282a9 9 0 1 1-9-9 9 9 0 0 1 9 9zM248 282a9 9 0 1 1-9-9 9 9 0 0 1 9 9zM399 282a9 9 0 1 1-8-9 9 9 0 0 1 8 9zM421 282a9 9 0 1 1-9-9 9 9 0 0 1 9 9zM270 282a9 9 0 1 1-9-9 9 9 0 0 1 9 9zM291 282a9 9 0 1 1-8-9 9 9 0 0 1 8 9zM313 282a9 9 0 1 1-9-9 9 9 0 0 1 9 9zM335 282a9 9 0 1 1-9-9 9 9 0 0 1 9 9zM356 282a9 9 0 1 1-9-9 9 9 0 0 1 9 9zM378 282a9 9 0 1 1-9-9 9 9 0 0 1 9 9zM183 260a9 9 0 1 1-8-9 9 9 0 0 1 8 9zM205 260a9 9 0 1 1-9-9 9 9 0 0 1 9 9zM227 260a9 9 0 1 1-9-9 9 9 0 0 1 9 9zM248 260a9 9 0 1 1-9-9 9 9 0 0 1 9 9zM399 260a9 9 0 1 1-8-9 9 9 0 0 1 8 9zM421 260a9 9 0 1 1-9-9 9 9 0 0 1 9 9zM270 260a9 9 0 1 1-9-9 9 9 0 0 1 9 9zM291 260a9 9 0 1 1-8-9 9 9 0 0 1 8 9zM313 260a9 9 0 1 1-9-9 9 9 0 0 1 9 9zM335 260a9 9 0 1 1-9-9 9 9 0 0 1 9 9zM356 260a9 9 0 1 1-9-9 9 9 0 0 1 9 9zM378 260a9 9 0 1 1-9-9 9 9 0 0 1 9 9zM205 237a9 9 0 1 1-9-8 9 9 0 0 1 9 8zM227 237a9 9 0 1 1-9-8 9 9 0 0 1 9 8zM248 237a9 9 0 1 1-9-8 9 9 0 0 1 9 8zM399 237a9 9 0 1 1-8-8 9 9 0 0 1 8 8zM421 237a9 9 0 1 1-9-8 9 9 0 0 1 9 8zM443 237a9 9 0 1 1-9-8 9 9 0 0 1 9 8zM270 237a9 9 0 1 1-9-8 9 9 0 0 1 9 8zM291 237a9 9 0 1 1-8-8 9 9 0 0 1 8 8zM313 237a9 9 0 1 1-9-8 9 9 0 0 1 9 8zM335 237a9 9 0 1 1-9-8 9 9 0 0 1 9 8zM356 237a9 9 0 1 1-9-8 9 9 0 0 1 9 8zM378 237a9 9 0 1 1-9-8 9 9 0 0 1 9 8zM227 215a9 9 0 1 1-9-9 9 9 0 0 1 9 9zM248 215a9 9 0 1 1-9-9 9 9 0 0 1 9 9zM399 215a9 9 0 1 1-8-9 9 9 0 0 1 8 9zM421 215a9 9 0 1 1-9-9 9 9 0 0 1 9 9zM443 215a9 9 0 1 1-9-9 9 9 0 0 1 9 9zM270 215a9 9 0 1 1-9-9 9 9 0 0 1 9 9zM291 215a9 9 0 1 1-8-9 9 9 0 0 1 8 9zM313 215a9 9 0 1 1-9-9 9 9 0 0 1 9 9zM335 215a9 9 0 1 1-9-9 9 9 0 0 1 9 9zM356 215a9 9 0 1 1-9-9 9 9 0 0 1 9 9zM378 215a9 9 0 1 1-9-9 9 9 0 0 1 9 9zM227 193a9 9 0 1 1-9-9 9 9 0 0 1 9 9z"/><circle class="cls-1" cx="239" cy="193" r="9"/><path class="cls-1" d="M399 193a9 9 0 1 1-8-9 9 9 0 0 1 8 9zM421 193a9 9 0 1 1-9-9 9 9 0 0 1 9 9zM443 193a9 9 0 1 1-9-9 9 9 0 0 1 9 9zM465 193a9 9 0 1 1-9-9 9 9 0 0 1 9 9zM270 193a9 9 0 1 1-9-9 9 9 0 0 1 9 9zM291 193a9 9 0 1 1-8-9 9 9 0 0 1 8 9z"/><circle class="cls-1" cx="304" cy="193" r="9"/><circle class="cls-1" cx="326" cy="193" r="9"/><path class="cls-1" d="M356 193a9 9 0 1 1-9-9 9 9 0 0 1 9 9zM378 193a9 9 0 1 1-9-9 9 9 0 0 1 9 9zM537 193a13 13 0 1 1-13-13 13 13 0 0 1 13 13zM399 171a9 9 0 1 1-8-9 9 9 0 0 1 8 9zM421 171a9 9 0 1 1-9-9 9 9 0 0 1 9 9zM443 171a9 9 0 1 1-9-9 9 9 0 0 1 9 9zM465 171a9 9 0 1 1-9-9 9 9 0 0 1 9 9zM270 171a9 9 0 1 1-9-9 9 9 0 0 1 9 9zM291 171a9 9 0 1 1-8-9 9 9 0 0 1 8 9z"/><circle class="cls-1" cx="304" cy="171" r="9"/><circle class="cls-1" cx="326" cy="171" r="9"/><path class="cls-1" d="M356 171a9 9 0 1 1-9-9 9 9 0 0 1 9 9zM378 171a9 9 0 1 1-9-9 9 9 0 0 1 9 9zM399 149a9 9 0 1 1-8-9 9 9 0 0 1 8 9zM421 149a9 9 0 1 1-9-9 9 9 0 0 1 9 9zM443 149a9 9 0 1 1-9-9 9 9 0 0 1 9 9zM465 149a9 9 0 1 1-9-9 9 9 0 0 1 9 9zM510 158a9 9 0 1 1-9-9 9 9 0 0 1 9 9zM270 149a9 9 0 1 1-9-9 9 9 0 0 1 9 9zM291 149a9 9 0 1 1-8-9 9 9 0 0 1 8 9z"/><circle class="cls-1" cx="304" cy="149" r="9"/><circle class="cls-1" cx="326" cy="149" r="9"/><path class="cls-1" d="M356 149a9 9 0 1 1-9-9 9 9 0 0 1 9 9zM378 149a9 9 0 1 1-9-9 9 9 0 0 1 9 9zM399 127a9 9 0 1 1-8-9 9 9 0 0 1 8 9zM421 127a9 9 0 1 1-9-9 9 9 0 0 1 9 9zM443 127a9 9 0 1 1-9-9 9 9 0 0 1 9 9zM465 127a9 9 0 1 1-9-9 9 9 0 0 1 9 9zM291 127a9 9 0 1 1-8-9 9 9 0 0 1 8 9zM313 127a9 9 0 1 1-9-9 9 9 0 0 1 9 9zM335 127a9 9 0 1 1-9-9 9 9 0 0 1 9 9zM356 127a9 9 0 1 1-9-9 9 9 0 0 1 9 9zM378 127a9 9 0 1 1-9-9 9 9 0 0 1 9 9zM399 105a9 9 0 1 1-8-9 9 9 0 0 1 8 9zM421 105a9 9 0 1 1-9-9 9 9 0 0 1 9 9zM443 105a9 9 0 1 1-9-9 9 9 0 0 1 9 9zM465 105a9 9 0 1 1-9-9 9 9 0 0 1 9 9z"/><circle class="cls-1" cx="304" cy="105" r="9"/><circle class="cls-1" cx="326" cy="105" r="9"/><path class="cls-1" d="M356 105a9 9 0 1 1-9-9 9 9 0 0 1 9 9zM378 105a9 9 0 1 1-9-9 9 9 0 0 1 9 9zM399 82a9 9 0 1 1-8-8 9 9 0 0 1 8 8zM421 82a9 9 0 1 1-9-8 9 9 0 0 1 9 8zM443 82a9 9 0 1 1-9-8 9 9 0 0 1 9 8zM465 82a9 9 0 1 1-9-8 9 9 0 0 1 9 8z"/><circle class="cls-1" cx="304" cy="82" r="9"/><circle class="cls-1" cx="326" cy="82" r="9"/><path class="cls-1" d="M356 82a9 9 0 1 1-9-8 9 9 0 0 1 9 8zM378 82a9 9 0 1 1-9-8 9 9 0 0 1 9 8zM399 60a9 9 0 1 1-8-9 9 9 0 0 1 8 9zM421 60a9 9 0 1 1-9-9 9 9 0 0 1 9 9zM443 60a9 9 0 1 1-9-9 9 9 0 0 1 9 9zM465 60a9 9 0 1 1-9-9 9 9 0 0 1 9 9zM486 60a9 9 0 1 1-9-9 9 9 0 0 1 9 9zM356 60a9 9 0 1 1-9-9 9 9 0 0 1 9 9zM378 60a9 9 0 1 1-9-9 9 9 0 0 1 9 9zM399 38a9 9 0 1 1-8-9 9 9 0 0 1 8 9zM421 38a9 9 0 1 1-9-9 9 9 0 0 1 9 9zM443 38a9 9 0 1 1-9-9 9 9 0 0 1 9 9zM465 38a9 9 0 1 1-9-9 9 9 0 0 1 9 9zM486 38a9 9 0 1 1-9-9 9 9 0 0 1 9 9zM421 16a9 9 0 1 1-9-9 9 9 0 0 1 9 9zM440 21a5 5 0 1 1-5-5 5 5 0 0 1 5 5zM458 21a5 5 0 1 1-6-5 5 5 0 0 1 6 5zM458 5a5 5 0 1 1-6-5 5 5 0 0 1 6 5zM476 21a5 5 0 1 1-6-5 5 5 0 0 1 6 5zM483 105a5 5 0 1 1-6-6 5 5 0 0 1 6 6zM483 122a5 5 0 1 1-6-6 5 5 0 0 1 6 6zM483 138a5 5 0 1 1-6-5 5 5 0 0 1 6 5z"/><circle class="cls-1" cx="492" cy="122" r="5"/><path class="cls-1" d="M498 88a5 5 0 1 1-6-6 5 5 0 0 1 6 6z"/><circle class="cls-1" cx="492" cy="138" r="5"/><path class="cls-1" d="M483 155a5 5 0 1 1-6-5 5 5 0 0 1 6 5zM445 260a5 5 0 1 1-6-6 5 5 0 0 1 6 6zM445 277a5 5 0 1 1-6-6 5 5 0 0 1 6 6zM492 277a5 5 0 1 1-6-6 5 5 0 0 1 6 6zM472 530a5 5 0 1 1-5-5 5 5 0 0 1 5 5zM440 530a5 5 0 1 1-5-5 5 5 0 0 1 5 5zM440 553a5 5 0 1 1-5-6 5 5 0 0 1 5 6zM418 588a5 5 0 1 1-5-5 5 5 0 0 1 5 5zM310 590a5 5 0 1 1-6-6 5 5 0 0 1 6 6zM93 536a5 5 0 1 1-6-6 5 5 0 0 1 6 6zM115 568a5 5 0 1 1-6-6 5 5 0 0 1 6 6zM93 518a5 5 0 1 1-6-6 5 5 0 0 1 6 6zM93 500a5 5 0 1 1-6-5 5 5 0 0 1 6 5zM72 518a5 5 0 1 1-5-6 5 5 0 0 1 5 6zM72 500a5 5 0 1 1-5-5 5 5 0 0 1 5 5zM62 429a5 5 0 1 1-6-5 5 5 0 0 1 6 5zM62 412a5 5 0 1 1-6-6 5 5 0 0 1 6 6zM42 445a5 5 0 1 1-5-5 5 5 0 0 1 5 5zM21 477a5 5 0 1 1-6-5 5 5 0 0 1 6 5zM20 401a10 10 0 1 1-10-10 10 10 0 0 1 10 10zM42 427a5 5 0 1 1-5-5 5 5 0 0 1 5 5zM91 380a5 5 0 1 1-6-5 5 5 0 0 1 6 5zM91 363a5 5 0 1 1-6-6 5 5 0 0 1 6 6zM74 363a5 5 0 1 1-5-6 5 5 0 0 1 5 6zM310 606a5 5 0 1 1-6-6 5 5 0 0 1 6 6zM324 606a5 5 0 1 1-5-6 5 5 0 0 1 5 6zM310 622a5 5 0 1 1-6-6 5 5 0 0 1 6 6zM461 260a5 5 0 1 1-5-6 5 5 0 0 1 5 6z"/><path class="cls-2" d="M381 38c-16 0-26 17-19 31l19 29c4-5 15-23 18-30a21 21 0 0 0-18-30z"/><path class="cls-3" d="M381 38c-16 0-26 17-19 31l19 29 19-29a21 21 0 0 0-19-31zm0 34a13 13 0 1 1 13-13 13 13 0 0 1-13 13z"/><path class="cls-3" d="M381 52a7 7 0 1 1-8 7 7 7 0 0 1 8-7z"/><path class="cls-2" d="M422 79c-16 0-26 17-19 31l19 29 19-30a21 21 0 0 0-19-30z"/><path class="cls-3" d="M422 79c-16 0-26 17-19 31 4 7 14 24 19 29 5-5 16-22 19-29a21 21 0 0 0-19-31zm0 35a13 13 0 1 1 13-14 13 13 0 0 1-13 14z"/><path class="cls-3" d="M422 93a7 7 0 1 1-7 7 7 7 0 0 1 7-7z"/><path class="cls-2" d="M338 100c-15 0-25 17-18 31 3 7 14 23 18 29 5-5 16-22 19-29a21 21 0 0 0-19-31z"/><path class="cls-3" d="M339 100c-16 0-26 17-19 31 3 7 14 24 19 29 4-5 15-22 18-29a21 21 0 0 0-18-31zm0 35a13 13 0 1 1 13-13 13 13 0 0 1-13 13z"/><path class="cls-3" d="M339 114a7 7 0 1 1-8 8 7 7 0 0 1 8-8z"/><path class="cls-2" d="M307 80c-15 0-25 17-18 31 3 7 14 23 18 29 5-5 16-23 19-30a21 21 0 0 0-19-30z"/><path class="cls-3" d="M307 80c-15 0-25 17-18 31 3 7 14 24 18 29 5-5 16-22 19-29a21 21 0 0 0-19-31zm0 35a13 13 0 1 1 14-14 13 13 0 0 1-14 14z"/><path class="cls-3" d="M307 94a7 7 0 1 1-7 7 7 7 0 0 1 7-7z"/><path class="cls-2" d="M279 121c-16 0-26 17-19 30 4 8 14 24 19 30l19-30a21 21 0 0 0-19-30z"/><path class="cls-3" d="M279 121c-16 0-26 17-19 31l19 29c5-5 16-23 19-30a21 21 0 0 0-19-30zm0 34a13 13 0 1 1 13-13 13 13 0 0 1-13 13z"/><path class="cls-3" d="M279 135a7 7 0 1 1-8 7 7 7 0 0 1 8-7z"/><path class="cls-2" d="M248 147c-16 0-26 16-18 30 3 7 13 24 18 29 5-5 16-22 19-29a21 21 0 0 0-19-30z"/><path class="cls-3" d="M248 147c-16 0-26 17-18 30 3 7 13 24 18 29 5-5 16-22 19-29a21 21 0 0 0-19-30zm0 34a13 13 0 1 1 13-13 13 13 0 0 1-13 13z"/><path class="cls-3" d="M248 160a7 7 0 1 1-7 8 7 7 0 0 1 7-8z"/><path class="cls-2" d="M261 181c-16 0-26 17-19 30 4 7 14 24 19 29 5-5 15-22 19-29a21 21 0 0 0-19-30z"/><path class="cls-3" d="M261 181c-16 0-26 17-19 30 4 8 14 24 19 30 5-5 16-23 19-30a21 21 0 0 0-19-30zm0 34a13 13 0 1 1 13-13 13 13 0 0 1-13 13z"/><path class="cls-3" d="M261 194a7 7 0 1 1-7 8 7 7 0 0 1 7-8z"/><path class="cls-2" d="M220 206c-16 0-26 16-19 30 4 7 14 24 19 29 4-5 15-22 18-29a21 21 0 0 0-18-30z"/><path class="cls-3" d="M220 206c-16 0-26 16-19 30 4 7 14 24 19 29l19-29a21 21 0 0 0-19-30zm0 34a13 13 0 1 1 13-13 13 13 0 0 1-13 13z"/><path class="cls-3" d="M220 219a7 7 0 1 1-8 8 7 7 0 0 1 8-8z"/><path class="cls-2" d="M239 265c-15 0-26 17-18 30 3 8 13 24 18 30 5-5 16-23 19-30a21 21 0 0 0-19-30z"/><path class="cls-3" d="M239 265c-15 0-26 17-18 31 3 7 14 23 18 29 5-5 16-23 19-30a21 21 0 0 0-19-30zm0 34a13 13 0 1 1 14-13 13 13 0 0 1-14 13z"/><path class="cls-3" d="M239 279a7 7 0 1 1-7 7 7 7 0 0 1 7-7z"/><path class="cls-2" d="M179 302c-16 0-26 16-19 30 4 7 14 24 19 29l19-29a21 21 0 0 0-19-30z"/><path class="cls-3" d="M179 302c-16 0-26 17-19 30 4 7 14 24 19 29 5-5 15-22 19-29a21 21 0 0 0-19-30zm0 34a13 13 0 1 1 13-13 13 13 0 0 1-13 13z"/><path class="cls-3" d="M179 315a7 7 0 1 1-8 8 7 7 0 0 1 8-8z"/><path class="cls-2" d="M137 340c-16 0-26 17-19 31l19 29c4-5 15-22 18-29a21 21 0 0 0-18-31z"/><path class="cls-3" d="M137 340c-16 0-26 17-19 31 4 7 14 24 19 29l19-29a21 21 0 0 0-19-31zm0 35a13 13 0 1 1 13-14 13 13 0 0 1-13 14z"/><path class="cls-3" d="M137 354a7 7 0 1 1-8 7 7 7 0 0 1 8-7z"/><path class="cls-2" d="M179 403c-16 0-26 17-19 30 4 7 14 24 19 29 4-5 15-22 18-29a21 21 0 0 0-18-30z"/><path class="cls-3" d="M179 403c-16 0-26 17-19 30 4 8 14 24 19 30l19-30a21 21 0 0 0-19-30zm0 34a13 13 0 1 1 13-13 13 13 0 0 1-13 13z"/><path class="cls-3" d="M179 416a7 7 0 1 1-8 8 7 7 0 0 1 8-8z"/><path class="cls-2" d="M118 442c-15 0-25 17-18 31 3 7 14 23 18 29 5-5 16-23 19-30a21 21 0 0 0-19-30z"/><path class="cls-3" d="M119 442c-16 0-26 17-19 31 3 7 14 24 19 29 4-5 15-22 18-29a21 21 0 0 0-18-31zm0 34a13 13 0 1 1 13-13 13 13 0 0 1-13 13z"/><path class="cls-3" d="M119 456a7 7 0 1 1-8 7 7 7 0 0 1 8-7z"/><path class="cls-2" d="M183 442c-15 0-25 17-18 31 3 7 13 23 18 29 5-5 16-23 19-30a21 21 0 0 0-19-30z"/><path class="cls-3" d="M183 442c-15 0-25 17-18 31 3 7 14 24 18 29 5-5 16-22 19-29a21 21 0 0 0-19-31zm0 34a13 13 0 1 1 14-13 13 13 0 0 1-14 13z"/><path class="cls-3" d="M183 456a7 7 0 1 1-7 7 7 7 0 0 1 7-7z"/><path class="cls-2" d="M147 460c-16 0-26 17-19 30 4 8 14 24 19 29 5-5 15-22 19-29a21 21 0 0 0-19-30z"/><path class="cls-3" d="M147 460c-16 0-26 17-19 31l19 29c5-5 16-23 19-30a21 21 0 0 0-19-30zm0 34a13 13 0 1 1 13-13 13 13 0 0 1-13 13z"/><path class="cls-3" d="M147 474a7 7 0 1 1-7 7 7 7 0 0 1 7-7z"/><path class="cls-2" d="M136 505c-16 0-26 17-19 30 4 7 14 24 19 29 5-5 15-22 19-29a21 21 0 0 0-19-30z"/><path class="cls-3" d="M136 505c-16 0-26 17-19 30 4 8 14 24 19 30 5-5 16-23 19-30a21 21 0 0 0-19-30zm0 34a13 13 0 1 1 13-13 13 13 0 0 1-13 13z"/><path class="cls-3" d="M136 518a7 7 0 1 1-7 8 7 7 0 0 1 7-8z"/><path class="cls-2" d="M187 487c-16 0-26 16-18 30 3 7 13 23 18 29 5-5 16-22 19-29a21 21 0 0 0-19-30z"/><path class="cls-3" d="M187 487c-16 0-26 16-18 30 3 7 13 24 18 29 5-5 16-22 19-29a21 21 0 0 0-19-30zm0 34a13 13 0 1 1 13-13 13 13 0 0 1-13 13z"/><path class="cls-3" d="M187 500a7 7 0 1 1-7 8 7 7 0 0 1 7-8z"/><path class="cls-2" d="M176 528c-16 0-26 17-19 30 4 8 14 24 19 29l19-29a21 21 0 0 0-19-30z"/><path class="cls-3" d="M176 528c-16 0-26 17-19 31l19 29c5-5 16-23 19-30a21 21 0 0 0-19-30zm0 34a13 13 0 1 1 13-13 13 13 0 0 1-13 13z"/><path class="cls-3" d="M176 542a7 7 0 1 1-7 7 7 7 0 0 1 7-7z"/><path class="cls-2" d="M218 564c-16 0-26 16-19 30l19 29c4-5 15-22 18-29a21 21 0 0 0-18-30z"/><path class="cls-3" d="M218 564c-16 0-26 16-19 30 4 7 14 24 19 29l19-29a21 21 0 0 0-19-30zm0 34a13 13 0 1 1 13-13 13 13 0 0 1-13 13z"/><path class="cls-3" d="M218 577a7 7 0 1 1-8 8 7 7 0 0 1 8-8z"/><path class="cls-2" d="M382 216c-16 0-26 17-19 31l19 29c4-5 15-22 18-29a21 21 0 0 0-18-31z"/><path class="cls-3" d="M382 216c-16 0-26 17-19 31 4 7 14 24 19 29l19-29a21 21 0 0 0-19-31zm0 35a13 13 0 1 1 13-13 13 13 0 0 1-13 13z"/><path class="cls-3" d="M382 230a7 7 0 1 1-8 8 7 7 0 0 1 8-8z"/><path class="cls-2" d="M360 283c-16 0-26 17-19 30 4 7 14 24 19 29 4-5 15-22 18-29a21 21 0 0 0-18-30z"/><path class="cls-3" d="M360 283c-16 0-26 17-19 30 4 8 14 24 19 30l19-30a21 21 0 0 0-19-30zm0 34a13 13 0 1 1 13-13 13 13 0 0 1-13 13z"/><path class="cls-3" d="M360 296a7 7 0 1 1-8 8 7 7 0 0 1 8-8z"/><path class="cls-2" d="M339 323c-16 0-26 17-19 30 4 7 14 24 19 29 5-5 15-22 19-29a21 21 0 0 0-19-30z"/><path class="cls-3" d="M339 323c-16 0-26 17-19 30 4 8 14 24 19 30 5-6 16-23 19-30a21 21 0 0 0-19-30zm0 34a13 13 0 1 1 13-13 13 13 0 0 1-13 13z"/><path class="cls-3" d="M339 336a7 7 0 1 1-7 8 7 7 0 0 1 7-8z"/><path class="cls-2" d="M384 345c-15 0-26 17-18 31 3 7 13 23 18 29 5-5 16-23 19-30a21 21 0 0 0-19-30z"/><path class="cls-3" d="M384 345c-15 0-26 17-18 31 3 7 14 23 18 29 5-5 16-23 19-30a21 21 0 0 0-19-30zm0 34a13 13 0 1 1 14-13 13 13 0 0 1-14 13z"/><path class="cls-3" d="M384 359a7 7 0 1 1-7 7 7 7 0 0 1 7-7z"/><path class="cls-2" d="M299 403c-16 0-26 17-19 30 4 8 14 24 19 29l19-29a21 21 0 0 0-19-30z"/><path class="cls-3" d="M299 403c-16 0-26 17-19 31l19 29c5-5 16-23 19-30a21 21 0 0 0-19-30zm0 34a13 13 0 1 1 13-13 13 13 0 0 1-13 13z"/><path class="cls-3" d="M299 417a7 7 0 1 1-7 7 7 7 0 0 1 7-7z"/><path class="cls-2" d="M360 69c-16 0-26 17-19 31l19 29c5-5 15-22 19-29a21 21 0 0 0-19-31z"/><path class="cls-3" d="M360 69c-16 0-26 17-19 31 4 7 14 24 19 29 5-5 16-22 19-29a21 21 0 0 0-19-31zm0 35a13 13 0 1 1 13-14 13 13 0 0 1-13 14z"/><path class="cls-3" d="M360 83a7 7 0 1 1-7 7 7 7 0 0 1 7-7z"/></g></g></svg>