<svg xmlns="http://www.w3.org/2000/svg" viewBox="0 0 266 319"><defs><style>.cls-1{fill:#fff}.cls-2{fill:#ae857b}.cls-3{fill:#ffe9a1}.cls-5{fill:#57423d}.cls-6{fill:#bbac77}.cls-7{fill:#00ac5f}.cls-8{fill:#cbccc7}.cls-10{fill:#a88f1f}.cls-11{fill:#221714}.cls-12{fill:#231815}.cls-13{fill:#f54782}</style></defs><g id="Layer_2" data-name="Layer 2"><g id="圖"><path class="cls-1" d="M181 174s-2 5-9 0c0 0-10-1-5-15 0 0 6-4 12-2a25 25 0 0 1 21-8c13 1 22 2 28 5s12 9 13 13-4 13-4 13a78 78 0 0 1-13 8c-7 3-21 4-27 2s-14-9-16-16z"/><path class="cls-2" d="M71 140l-6-17s-16 6-23-10c0 0-5-15 6-20 0 0 12 25 30 27 0 0-18-27-15-35s28-3 52-56 23 2 36 42c0 0 11-3 6-23s-12-29-18-32-18-9-25-7c0 0-13-12-37-4S40 22 35 31s0 29 2 35l-4-4a47 47 0 0 0-1 47c13 25 14 37 39 31z"/><path class="cls-3" d="M115 29s23 4 37 40c0 0 2 24 1 39s-19 50-38 48-9 0-9 0 7 23 3 30l-31-22-13-41s-15 8-23-10 6-20 6-20 14 31 30 27c-12-14-15-35-15-35s39-23 52-56zM36 218s-4-9 8-19 21-6 27 0 13 8 22 10 14-1 21 6c0 0 7 0 10 4s2 7-1 9 5 9-7 13-13 2-16 0-4-13-9-17c-10 8-26 11-26 11s-22 6-29-17zM156 193s17-14 30-12c0 0 6 9 20 10 0 0 14 3 24-7 0 0 12 9-2 14s-29 2-33 1-8 4-7 10c0 0-12 21-15 21s-18-2-22-8c-6 0-17 5-13-4l1-16c3-6 17-9 17-9z"/><path d="M75 150s-9 5-8 10c0 0-23 7-27 16s-8 12-6 17-5 10-1 19c0 0 12-23 28-18s21 14 30 15 37-9 48-6c0 0 9-9 15-10a8 8 0 0 0 8-7l-1-5s3-3-4-7-8 2-11 2-19-16-33-12-5 0-5 0l2 26-31-28z" fill="#78cb99"/><path class="cls-2" d="M121 187l10-1 4 17h4l-2 19-9-1-15-7-9-4-5-1h-7l-2-14c-1-2 7-3 7-3s4-2 3 16l24-5z"/><path class="cls-2" d="M22 219l2 29h146l-1-10h82l2 12 10-3v-25l-82-1s2 9-13 8-17-7-17-7l-23-1s-1 7-5 7 3 12-7 13-15 8-25-17c0 0-13 10-26 11s-24 2-29-14z"/><path class="cls-5" d="M32 248l2 50s18 10 47 0c0 0 16 5 30 4s32-6 40-3c3 2 13 12 33 17 23 5 58 3 74-9 0 0 4-4 5-10s-4-46-4-46l-5-1-1 55-44-21-40 18 1-54z"/><path class="cls-2" d="M186 159s12-4 24-3c0 0 23 3 23 7 0 6-19 6-25 6s-24 0-22-10z"/><path class="cls-5" d="M34 98c-7 9 1 24 9 30l12 4a12 12 0 0 1 4 2 1 1 0 0 1 1 1 10 10 0 0 1 0 3l5-5-1-1h-1a35 35 0 0 1-5-2 29 29 0 0 1-4-3l-1-1c-2-6-13-3-10 3 3 8 14 13 22 14 3 1 5-3 5-5 1-5 0-9-4-12-3-3-8-4-12-5-8-3-13-11-13-20 0-3-5-6-7-3zM76 118c0-2-1-2-2-3a31 31 0 0 1-3-3l-8-9a45 45 0 0 1-6-9c-1-3-1-6-4-8a4 4 0 0 0-4 0c-9 4 4 21 8 25a35 35 0 0 0 12 8c1 0 8 3 7-1zM115 19c-3 2-5 6-7 9a67 67 0 0 0-6 9c-4 8-10 14-17 20-10 8-19 16-30 21a2 2 0 0 0-1 2c0 3 3 5 6 5s7-2 10-4l18-14c7-7 15-13 20-21a40 40 0 0 0 6-13 51 51 0 0 1 1-6l2-7c1-1-1-2-2-1z"/><path class="cls-5" d="M116 27c1 4 6 5 10 7a29 29 0 0 1 9 6l8 11c3 4 7 8 8 13a2 2 0 0 0 3 0c2-6 2-12-1-17a63 63 0 0 0-9-14 35 35 0 0 0-12-8c-4-2-10-5-15-1a3 3 0 0 0-1 3zM55 82c-1 7 2 15 5 21s7 12 14 15a2 2 0 0 0 2-2c0-7-5-12-8-17a70 70 0 0 1-4-10l-5-8c-1-1-3-1-4 1z"/><path class="cls-5" d="M40 101c2-2 1-7 4-8h1a4 4 0 0 1 1 1c3 1 5 3 8 1h-3a6 6 0 0 1 1 1 2 2 0 0 0 3-2h-1a5 5 0 0 0 2-2 7 7 0 0 0 0-3l-5-5a14 14 0 0 0-10-1 13 13 0 0 0-8 7c-2 4-3 10 2 13a4 4 0 0 0 5-2zM91 200a8 8 0 0 0 3 1 7 7 0 0 0 4 0 4 4 0 0 0 2-4 4 4 0 0 0-3-3 5 5 0 0 0-3 0l-1 1a7 7 0 0 0-3 2 2 2 0 0 0 1 3zM122 192a3 3 0 0 0 2 1s1 0 0 0a6 6 0 0 1 1 0 8 8 0 0 0 5 2 4 4 0 0 0 3-3 4 4 0 0 0-1-4c-2-2-5-2-7-1s-4 2-3 5zM35 222c4 10 9 20 21 21 7 0 14-2 20-5a63 63 0 0 0 8-4l6-5a2 2 0 0 0 2-1l-3-1v1l1 4a28 28 0 0 0 3 8c1 2 2 5 5 6l8 2c11 1 21-6 20-18l-1 2c4-1 7-4 6-8 0-2-4-2-3 0 0 3-1 4-4 4a2 2 0 0 0-2 2c1 9-8 17-17 13-4-2-7-5-9-9a22 22 0 0 1-3-6 12 12 0 0 0 0-2 2 2 0 0 0-1 0c-1-1-1 0 0 0a2 2 0 0 0-2 0l-2 1 3-1c-4-1-8 2-11 4-6 2-11 6-18 7a18 18 0 0 1-15-4c-4-3-7-8-10-12-1-1-3 0-2 1zM148 225c3 7 13 10 19 10a17 17 0 0 0 11-4l5-3 4-3a2 2 0 0 0 0-4c-7-2-11 7-17 7-3 1-7-1-11-2l-8-4c-1 0-3 1-3 3z"/><path class="cls-6" d="M41 102c-4 10 9 22 19 21 4-1 5-6 1-7s-7-2-10-4a16 16 0 0 1-4-4l-2-6c-1-1-3-2-4 0zM91 143c4 11 22 10 31 8 7-2 12-5 16-11l4-10 4-10-1 1a2 2 0 0 0 0-3 2 2 0 0 0-2 1l-4 7-7 7c-3 3-7 6-12 8-8 2-19 4-27 0-1-1-2 0-2 2zM93 154l3 6 2 9c1 5 1 13 6 16 4 3 10 0 8-6-4-5-3-12-6-18a16 16 0 0 0-6-8c-2 0-7-2-7 1zM147 210c1 11 13 21 24 18 5-1 8-7 10-11a33 33 0 0 1 5-9 44 44 0 0 1 4-4l5-4c2-2-1-3-2-3a14 14 0 0 0-7 4 51 51 0 0 0-6 6c-4 4-5 9-8 13-3 5-9 3-12 0a31 31 0 0 1-9-11c-1-2-4-1-4 1z"/><path class="cls-6" d="M185 183c1 4 5 8 7 12 3 4 8 6 12 7 10 1 22-1 30-7 4-3-1-9-5-8l-12 4a30 30 0 0 1-11 0l-9-2c-4-1-6-5-9-8-1-1-3 0-3 2zM35 213a24 24 0 0 0 15 21c10 3 19 0 27-4 3-2 8-6 12-6 3 1 5 5 6 7 4 7 9 14 18 12 8-2 15-15 6-21a2 2 0 0 0-3 2v9a6 6 0 0 1-8 3c-6-2-7-10-11-14-4-6-11-5-17-2-7 4-13 9-22 9-10 0-16-8-20-17 0-1-3-1-3 1z"/><path class="cls-6" d="M116 219c-1-1-1-1 0 0l1 1 2 2 1 1c-1-1 0 0 0 0 1 2 1 3 3 3l-2-1c1 0 0 0 0 0a4 4 0 0 0 1 1h1l1 1a3 3 0 0 0 3-3 5 5 0 0 0 0-1v1c1-3-2-6-4-7a11 11 0 0 0-3-2 8 8 0 0 0-4 0 2 2 0 0 0 0 4z"/><path class="cls-7" d="M64 162c-1 6 0 13 2 19l4 9a52 52 0 0 0 4 10c2 3 7 8 11 8a5 5 0 0 0 5-3 8 8 0 0 0 0-3 7 7 0 0 1 0-3 2 2 0 0 0-2-3 4 4 0 0 0-3 3 7 7 0 0 0-1 2 13 13 0 0 0 0 1h4c-2 0-5-3-6-5l-5-11-5-11-5-13c0-2-3-2-3 0zM101 207c3 2 6-1 7-4a9 9 0 0 0 0-4q0-3-5 0v4c0 2 2 4 5 4 4 0 6-3 6-7a7 7 0 0 0 0-1v-1h-5v3c0 4 5 6 8 4a13 13 0 0 0 3-9v-1h-7a6 6 0 0 0 1 1 24 24 0 0 0 0 4 5 5 0 0 0 10 0c0-5-1-13-8-13-3 0-5 3-5 6a28 28 0 0 0-1 4 8 8 0 0 0 0 1c0 1-1 2 0 0l8 5c1-5 0-12-6-13a7 7 0 0 0-6 5 11 11 0 0 0-1 4 5 5 0 0 0 0 1c1 2-3-2 2-2l5 5c0-5-2-12-8-11-7 1-5 9-4 14l1-2a2 2 0 0 0-1 3zM132 190a17 17 0 0 1 1 4c1 3 0 5 2 6a2 2 0 0 0 3 1c2-2 2-6 1-8a6 6 0 0 0-6-6c-2 1-2 2-1 3z"/><path class="cls-7" d="M36 190l7-4 9-1c6 2 8 7 12 11a3 3 0 0 0 6-4c-1-7-10-14-17-15-4-1-9 0-12 2s-6 5-7 9a2 2 0 0 0 2 2zM36 209a6 6 0 0 1 0-4 13 13 0 0 1 2-4c4-4-2-8-5-4-2 2-3 5-3 8s1 6 4 7a2 2 0 0 0 2-3zM139 203l3-3a16 16 0 0 1 3-3 24 24 0 0 1 9-3 4 4 0 0 0 3-3v-1c-1-2-3-3-5-3-4 1-8 2-11 5-2 2-5 6-5 10a2 2 0 0 0 3 1zM145 182c4-1 9-3 12 0a3 3 0 0 0 3 1 4 4 0 0 0 2-1 3 3 0 0 0 0-4c-4-6-14-4-19 0a2 2 0 0 0 2 4z"/><path class="cls-1" d="M91 107c2-3 1-8 1-12v-1-1h1a15 15 0 0 1 4-1l-1-10c-11 3-5 16-3 23l4-6-5 1h-5c-4 1-4 6-1 8 3 3 9 1 13 0a5 5 0 0 0 4-6l-3-7a19 19 0 0 1-1-3v-1c1 0-2 1 0 1 5-2 4-10-2-10s-13 2-15 9c-1 5 0 13 4 17a4 4 0 0 0 5-1zM123 97c0-3 0-17 6-15l-3-9c-3 4-3 9-3 13l1 3v2s-1 1 0 0c0 0 0-1 0 0a18 18 0 0 0-3 0l4 2 3-3c1-2 3-3 3-5a4 4 0 0 0-5-5c-3 1-6 4-7 6a14 14 0 0 0-3 10c0 2 2 4 4 4 6 2 13-1 14-8a38 38 0 0 0 0-7v-6c2-3 0-7-4-7-7 0-12 3-13 10-1 6-1 11 2 16 1 2 4 1 4-1z"/><path class="cls-8" d="M167 166c0 4 2 7 5 9s9 2 9-3a3 3 0 0 0-3-3l-4 1a6 6 0 0 1-4-4h-3zM180 167l4 10a31 31 0 0 0 6 7 37 37 0 0 0 20 7 33 33 0 0 0 19-4c3-2 6-4 7-7v-3l3-6c1-1 0-3-2-2l-6 5-3 1-3 3a28 28 0 0 1-14 5 27 27 0 0 1-16-5l-12-13a2 2 0 0 0-3 2z"/><path class="cls-8" d="M195 171a46 46 0 0 0 13 2l14-1a1 1 0 0 0 0-3h-13a96 96 0 0 1-14-1c-1 0-2 2 0 3zM87 107c-2-5-4-11-2-16 1-3 2-5 5-6l8-1a2 2 0 0 0 0-3c-6-3-14 1-16 7-3 6-2 15 2 21 1 1 3-1 3-2zM121 99c-2-2-1-5-2-7a33 33 0 0 1 1-9 11 11 0 0 1 5-7 8 8 0 0 1 4-1l4 1a2 2 0 0 0 2-2c0-4-6-4-9-3a15 15 0 0 0-9 8c-2 4-2 9-2 14 1 2 1 7 4 8a1 1 0 0 0 2-2z"/><path class="cls-3" d="M41 66c2-9 1-19 3-28 1-4 2-8 6-11a35 35 0 0 1 9-6c7-4 15-5 23-6l13-1c4 0 9 1 12-2 2-2 2-5 0-6-3-4-9-3-13-3a135 135 0 0 0-14 1c-10 2-20 4-28 8-20 11-19 35-15 54 0 3 4 3 4 0z"/><path class="cls-6" d="M148 195c-7 4-10 14-11 22 0 3 1 5 4 5 0 0 1 0 0 0h1a10 10 0 0 0 4 1c3 0 4-5 1-6-2 0-2-1-3-2a6 6 0 0 0-3-1l4 4a81 81 0 0 1 2-11l4-9a2 2 0 0 0-3-3z"/><path class="cls-6" d="M148 219a15 15 0 0 1-2-6l2-5c0-1-1-3-3-2-4 3-3 10 0 14 1 2 4 1 3-1z"/><path d="M169 302v-65l82 1 3 68-46-23z" fill="#f3e727"/><path class="cls-10" d="M169 300c6 3 16-3 21-6l10-6 11-6c4-2 1-10-3-8-7 3-14 8-20 12l-10 6-9 5a2 2 0 0 0 0 3z"/><path class="cls-10" d="M206 279c2 3 5 5 8 6l13 7 12 7c4 2 8 6 12 6 2 0 4-1 3-3-5-7-15-11-23-15l-23-11a2 2 0 0 0-2 3z"/><path class="cls-10" d="M209 283l9 5a2 2 0 0 0 1-3l-9-5c-2-2-3 1-1 3zM245 239v32l1 16c0 5 0 11 2 15a3 3 0 0 0 5-1c1-5-1-10-1-15a426 426 0 0 1-1-33c-1-5 0-10-2-15-1-1-4-1-4 1z"/><path class="cls-11" d="M114 9c-5-9-18-10-27-9-12 2-24 8-34 13S33 24 30 36c-4 12 1 24 8 35a1 1 0 0 0 2-1c-3-10-8-22-5-32s12-16 21-20C66 13 75 8 86 6c5-1 9-2 14-1s8 3 12 6c1 1 3-1 2-2z"/><path class="cls-11" d="M113 11c8-2 16 0 23 5 6 5 10 13 13 20 3 11 9 26 1 36a1 1 0 0 0 2 2c14-7 6-31 1-41-3-9-8-17-16-23-7-5-18-7-26-3-2 1 0 4 2 4z"/><path class="cls-11" d="M115 30l12 5 10 11c6 7 13 17 11 27 0 2 3 3 4 1 2-11-5-22-12-29-7-8-13-17-25-16v1z"/><path class="cls-11" d="M116 20c-4 13-12 25-21 36a93 93 0 0 1-15 15 71 71 0 0 1-10 6l-9 5a2 2 0 0 0 0 3c4 0 7-2 10-3a73 73 0 0 0 11-7 95 95 0 0 0 16-17 145 145 0 0 0 13-19c3-6 7-12 7-19 0-1-2-2-2 0zM46 91c-1 6 5 14 9 19 6 7 14 11 23 12a2 2 0 0 0 2-2c-7-11-14-21-17-34a1 1 0 0 0-1 0c-3 14 8 25 15 35l1-2c-15-2-26-15-31-29a1 1 0 0 0-1 1z"/><path class="cls-11" d="M48 94c-4-2-8 1-9 5a22 22 0 0 0 1 17 20 20 0 0 0 12 9c4 2 10 2 13-2a1 1 0 0 0-1-1c-7 1-13 0-18-5a17 17 0 0 1-5-10c0-4 1-13 7-12v-1zM148 69l2 15a89 89 0 0 1-1 17 74 74 0 0 1-11 31c-5 8-14 17-24 19-3 1-7-1-11-2l-6-3-5-1a1 1 0 0 0-2 2l2 4a16 16 0 0 0 5 4 38 38 0 0 0 11 4c9 1 17-3 24-8 15-12 23-32 24-51a70 70 0 0 0 0-16c-1-5-2-12-5-15a1 1 0 0 0-3 0z"/><path class="cls-11" d="M33 60c-8 4-8 17-8 24 0 12 2 23 6 34 4 9 10 17 18 22a26 26 0 0 0 13 6c3 0 8-1 9-6a2 2 0 0 0-2-1c-3-2-6 0-10-1a27 27 0 0 1-10-6 50 50 0 0 1-13-21c-3-8-4-17-5-27a73 73 0 0 1 0-11l3-12a1 1 0 0 0-1-1zM87 69l12-1c4 0 8 0 11-2a1 1 0 0 0 0-2h-10a63 63 0 0 0-13 4v1zM123 63c7 0 15-2 22-5 2 0 1-4-1-3l-22 7v1zM85 109c-3-7-8-17-1-23 3-3 7-4 11-4 4-1 8 1 12 1v-1c-2-4-8-4-11-3-5 0-10 1-14 4-8 7-3 20 2 27 1 0 2 0 1-1z"/><path class="cls-11" d="M98 89c0 6 1 13 3 19l2-1-3-18a1 1 0 0 0-2 0zM119 100l-3-10a18 18 0 0 1 2-12 12 12 0 0 1 10-6l9 3a1 1 0 0 0 1-1c-1-4-6-5-10-5a16 16 0 0 0-11 5c-6 7-5 20 1 27l1-1z"/><path class="cls-11" d="M131 80v9c0 3-1 6 1 9a1 1 0 0 0 1 0c2-3 1-6 1-9v-9a1 1 0 0 0-3 0zM102 131a30 30 0 0 0 20 1 29 29 0 0 0 8-4c2-2 6-4 5-7a1 1 0 0 0-1-1l-5 4a28 28 0 0 1-9 5 27 27 0 0 1-17 0c-2-1-3 2-1 2zM64 122l3 9 2 9 8 24c1 1 3 0 3-1-2-9-6-17-9-26-1-5-2-12-6-16-1-1-2 0-1 1zM105 157a36 36 0 0 0 1 8l2 7a1 1 0 0 0 2 0v-7a38 38 0 0 0-2-8 1 1 0 0 0-2 0zM22 67c-1-1 4-6 5-6l7-1v-1c-3-2-7-1-10 1-1 2-5 6-3 8l1-1z"/><path class="cls-11" d="M24 51c4 2 6 5 8 9a1 1 0 0 0 1-1c0-5-4-8-8-10-1-1-2 1-1 2zM72 150c-8 3-6 17-4 23 3 10 9 19 16 28 0 1 3 1 3-1 1-4 6-5 10-6a59 59 0 0 1 13-1 2 2 0 0 0 2-3c-9-12-25-16-33-29-1-2-5 0-3 2 8 13 24 17 32 29l2-3a55 55 0 0 0-18 3c-4 1-8 3-9 7h4l-14-22c-3-7-6-19 0-25l-1-2z"/><path class="cls-11" d="M110 164l14 11c4 4 9 8 11 14l2-3a33 33 0 0 0-28 4l2 2a54 54 0 0 0 1-13c0-3 0-8-2-10a1 1 0 0 0-2 0v10a50 50 0 0 1 0 12c-1 1 1 3 2 2a30 30 0 0 1 26-3 2 2 0 0 0 3-2c-3-6-7-11-12-15s-10-9-16-10a1 1 0 0 0-1 1zM43 229c-3 0-6-8-6-10a21 21 0 0 1 0-12 19 19 0 0 1 18-13c13 0 22 13 34 17a26 26 0 0 0 10 1c5-1 9 0 13 3 5 5 12 17 7 23-2 4-7 4-11 4-5 0-8-2-10-7l-5-11a4 4 0 0 0-6-1l-4 4a26 26 0 0 1-6 3 69 69 0 0 1-12 3H50c-5-1-8-4-11-8a1 1 0 0 0-1 0c0 9 10 12 17 12a76 76 0 0 0 15-2 43 43 0 0 0 13-4 24 24 0 0 0 5-3c1-1 1-2 3-1l2 4c2 4 3 9 7 12 5 4 17 3 21-2 5-7 0-17-3-23-3-4-6-7-10-9s-9 0-14-1c-16-1-26-21-44-16a23 23 0 0 0-17 19 22 22 0 0 0 3 13c1 2 4 7 7 6v-1z"/><path class="cls-11" d="M113 215c4 1 7 2 10 5 1 1 3 4 0 5l-4 3v1c5 1 11-3 9-8s-9-9-15-8v2zM34 213c-2-5-3-9-1-14a24 24 0 0 1 10-10c4-3 10-3 14 0 3 2 5 8 9 7a1 1 0 0 0 1-1c2-4-7-10-10-12-6-3-13-1-18 3-5 3-9 8-10 13-2 5-1 12 4 15 1 1 2 0 1-1z"/><path class="cls-11" d="M33 193c2-4 2-10 7-12 4-2 9-2 13-2 5 0 9 5 12 8a24 24 0 0 1 4 6v7a1 1 0 0 0 1 2c8-1 5-10 2-14-4-6-9-13-15-14-6-2-15 0-19 3-6 3-8 10-7 16h2z"/><path class="cls-11" d="M41 178c4-5 7-9 13-11a33 33 0 0 1 8-3c2-1 5-1 7-3a2 2 0 0 0 0-3c-4-4-14 1-18 3-6 3-11 9-13 15a1 1 0 0 0 3 2zM128 187l3 9 1 9a1 1 0 0 0 1 0c6-3 0-15-3-19a1 1 0 0 0-2 1zM120 187l2 7 1 8a1 1 0 0 0 1 0c3-4 1-13-3-16a1 1 0 0 0-1 1zM98 193l1 8-1 7a1 1 0 0 0 1 0c4-3 3-12 0-15a1 1 0 0 0-1 0zM89 195v6a56 56 0 0 1 0 7 1 1 0 0 0 1 1h1a2 2 0 0 0 1-1c1-4 0-9-2-13a1 1 0 0 0-1 0z"/><path class="cls-11" d="M92 209c16 2 30-6 46-4l-2-2a94 94 0 0 1 0 11v8a1 1 0 0 0 2 0l1-8a77 77 0 0 0 1-11 2 2 0 0 0-2-2c-16-1-31 5-46 7a1 1 0 0 0 0 1zM110 163c3 3 7 3 10 4a91 91 0 0 1 12 3 34 34 0 0 1 12 8c2 3 6-1 4-4a32 32 0 0 0-13-9 48 48 0 0 0-12-4c-4 0-9-1-13 1a1 1 0 0 0 0 1z"/><path class="cls-11" d="M138 199c2-5 3-10 6-14s13-3 15 2a2 2 0 0 0 2 1 3 3 0 0 0 1 0 2 2 0 0 0 2-3c-2-7-13-9-19-6s-10 13-9 19a1 1 0 0 0 2 1z"/><path class="cls-11" d="M140 188l2-7 7-4c2-1 5-2 8-1l3 5a1 1 0 0 0 2 0c2-2 0-6-2-7-3-3-6-3-10-2-8 2-12 8-12 16a1 1 0 0 0 2 0zM151 222c-3-8-3-17 2-24 2-4 6-6 9-9 2-1 6-2 7-5v-1l-5 2a45 45 0 0 0-6 3 31 31 0 0 0-9 10c-4 8-4 18 1 25a1 1 0 0 0 1-1z"/><path class="cls-11" d="M151 221c-1 4 6 6 9 8 5 2 12 3 17-1 4-3 6-8 8-13a46 46 0 0 1 4-9 16 16 0 0 1 3-4l3-3a1 1 0 0 0-1-1c-3-1-6 4-8 6l-5 13c-2 5-5 11-12 11a23 23 0 0 1-9-2c-3-1-7-2-9-5 0 0 0-1 0 0zM116 139h5l4-1a1 1 0 0 0 0-1h-4a18 18 0 0 0-5 1v1z"/><path class="cls-12" d="M225 167l-21 1a92 92 0 0 1-12-2c-1-1-4-1-5-3-2-3 2-4 3-5h22a102 102 0 0 1 11 2 35 35 0 0 1 5 1c2 1 4 4 1 5a1 1 0 0 0 0 1c2 3 4 0 5-2 1-4-3-6-6-7a89 89 0 0 0-37-2c-2 0-6 1-7 5-1 3 3 6 6 7l17 2 19-1a1 1 0 0 0-1-2zM179 157c-7-5-17 2-15 11 1 4 4 7 8 9 3 1 7 0 9-3 0-2-1-3-2-2-5 5-11 1-12-4a8 8 0 0 1 2-8c3-3 6-3 10-2a1 1 0 0 0 0-1z"/><path class="cls-12" d="M188 182a26 26 0 0 1-8-17c0-3 0-7 3-10 2-2 5-3 8-3a62 62 0 0 1 39 5c2 1 5 2 7 5s1 7 0 11a23 23 0 0 1-13 14c-6 2-11 3-17 3a30 30 0 0 1-10-3l-7-5a1 1 0 0 0-1 1c2 5 8 8 13 9a34 34 0 0 0 17-1c11-3 20-10 22-22 1-13-12-17-23-20a68 68 0 0 0-20-1c-5 0-11 1-15 4-10 8-4 24 4 31l1-1z"/><path class="cls-12" d="M178 162c-4-2-9 1-8 5a4 4 0 0 0 3 4 5 5 0 0 0 6-3c0-1-1-2-2-1l-3 2-2-2c0-3 4-4 6-4v-1zM168 186c6-4 12-3 18-4a1 1 0 0 0 0-2c-7-1-14 0-19 4-1 1 0 2 1 2zM192 197c3 4 9 7 14 8a28 28 0 0 0 16-1l13-7c3-3 4-8 1-11-1-2-7-4-7 0l1 3c2 2 0 4-3 6-5 2-11 5-16 5a30 30 0 0 1-10-1c-2-1-5-3-8-3a1 1 0 0 0-1 1z"/><path class="cls-11" d="M113 115l3-2a1 1 0 0 0-1-1l-2 1a1 1 0 0 0 0 2zM127 223l12 1 12-1a1 1 0 0 0 0-1h-12c-4 0-8-1-12 1zM180 222c2 2 4 2 6 2h10l19 1h39a2 2 0 0 0 0-5h-58l-10 1c-2 0-4-1-6 1zM35 220a30 30 0 0 0-7-1h-6a1 1 0 0 0 0 2l6 1a29 29 0 0 0 7-1 1 1 0 0 0 0-1zM168 237c3 2 6 1 9 1l11 1h54l10-1a1 1 0 0 0 0-2h-10l-12-1h-21l-21 1h-11c-3 0-6-1-9 1zM169 238c-2 4-2 10-2 14v17l1 34a1 1 0 0 0 2 0v-34-17c0-4 1-10-1-14z"/><path class="cls-11" d="M250 237l-1 5v8l1 19c0 12 0 24 2 36a1 1 0 0 0 2 0c1-11 0-23-1-35l-1-17c0-5 1-11-1-15a1 1 0 0 0-1-1z"/><path class="cls-11" d="M167 304l9-3a249 249 0 0 0 33-17l-2-1c1 3 4 4 6 5l13 6 27 13c1 1 3-1 1-2l-23-11-12-6c-3-1-8-3-10-6a1 1 0 0 0-1 0l-21 12-10 5c-3 1-7 2-10 5zM2 248c-5 11 0 24 6 33 7 10 17 17 28 22 6 3 12 6 19 5 6 0 12-2 18-4l18-3c6 0 13 3 19 5a47 47 0 0 0 11 0l12-2c4-1 11 0 13 4 3 8 14 5 12-3-1-6-6-10-11-12-6-2-12-1-18 0-7 1-12 2-19 0l-19-3a43 43 0 0 0-19 3c-5 2-11 5-17 6-12 2-26-5-35-13a49 49 0 0 1-13-16c-3-7-4-14-4-22H2zM178 257v-13l-2 1a74 74 0 0 0 11 12 1 1 0 0 0 2-1v-13a1 1 0 0 0-2 0v13h2a72 72 0 0 1-11-12 1 1 0 0 0-2 0v13a1 1 0 0 0 2 0zM195 254c-1-2-2-4-1-7a5 5 0 0 1 7-2c3 1 4 4 2 7-1 2-4 3-7 3a1 1 0 0 0 0 1c3 2 8 1 10-3s0-8-3-10a7 7 0 0 0-10 2c-2 3-2 9 2 10v-1zM178 285v-21l-2 1 12 21a1 1 0 0 0 2-1 77 77 0 0 1-2-22h-2a79 79 0 0 0 1 23l2-1-12-21a1 1 0 0 0-2 0l1 21h2zM193 266c-3 6-3 18 6 18 3 0 5-2 6-5 1-5 0-13-1-18h-2c0 4 4 20-3 21-8 0-5-11-5-16h-1z"/><path class="cls-11" d="M209 265l2 19a1 1 0 0 0 2 0c1-7-1-13-2-19 0-2-2-2-2 0z"/><path class="cls-11" d="M220 263l-4 10-4 8a1 1 0 0 0 1 1c5-3 8-12 8-18l-1-1z"/><path class="cls-11" d="M217 274a36 36 0 0 0 5 6l6 5 2-2-6-5a53 53 0 0 1-5-6c-1-1-3 1-2 2z"/><path class="cls-11" d="M228 265l1 13c1 3 0 7 2 11a1 1 0 0 0 2-1c1-3 0-8-1-12l-1-12a1 1 0 0 0-3 1z"/><path class="cls-11" d="M228 265c4 2 9 3 13 1 1-1 1-3-1-2h-11c-1-1-2 1-1 1zM231 277l6 1 5-1a1 1 0 0 0 0-2h-5a58 58 0 0 0-6 0 1 1 0 0 0 0 2zM232 289c3 1 9 1 12-1a1 1 0 0 0 0-2l-6 1a42 42 0 0 1-6 0 1 1 0 0 0 0 2zM21 221c-2 3-2 9-1 13a43 43 0 0 0 3 15c1 2 4 0 3-2l-3-14v-12h-2z"/><path class="cls-11" d="M24 249h134l8 1a1 1 0 0 0 0-1c-3-4-10-3-14-3H97c-24 1-49 0-73 2a1 1 0 0 0 0 1zM252 224a64 64 0 0 0 7 1c2 0 2 1 2 3l-1 4v17l2-2h-8a2 2 0 0 0-1 3c3 3 7 2 11 2a3 3 0 0 0 2-3l-1-24c0-6-9-5-13-4-2 0-2 3 0 3z"/><path class="cls-11" d="M29 249l-1 12 1 13 1 11c1 4 1 9 3 13 1 1 3 1 4-1l-2-10-1-14-1-12-1-12a2 2 0 0 0-3 0zM53 249v35l1 10a1 1 0 0 0 2 0l1-10-1-13-1-22h-2zM58 249a188 188 0 0 0 1 26c0 9 1 17 3 25h2l-3-25-1-26a1 1 0 0 0-2 0zM94 249v13l1 13 1 13 2 11a1 1 0 0 0 1 0 377 377 0 0 1-2-25l-1-12-1-13h-1zM103 249a203 203 0 0 0-1 25l1 12 1 10a1 1 0 0 0 2 0l-1-11-1-12 1-24h-2zM140 251l1 25 1 13v12a1 1 0 0 0 2 0v-11l-1-14-2-25h-1zM147 251c-1 8 0 17 1 24v12l2 12h2v-11l-1-13c-1-8 0-16-2-24a1 1 0 0 0-2 0zM255 251a287 287 0 0 0 2 38l3 12c1 1 3 1 3-1 1-3 0-7-1-11l-1-13-1-13-2-12c0-1-3-2-3 0zM200 136c1 2 3 2 4 1 3-1 5-6 6-9 2-8 2-18-1-26-2-5-8-13-15-9-3 1-3 6-3 9-1 3 0 8 3 10 2 1 6 2 8-1s-1-8-4-10l-1 2c2 1 4 5 3 7-1 1-4 0-5-1-3-2-2-7-1-11 2-9 11 1 13 6a40 40 0 0 1 2 15 36 36 0 0 1-2 8c0 1-3 11-6 8l-1 1zM215 142c-1-4-6-13 1-15 3-1 6 1 7 4 0 3-3 6-6 6h1a6 6 0 0 1 1-4 1 1 0 0 0-1-1 5 5 0 0 0-2 6 1 1 0 0 0 1 1c8 0 11-11 3-13a7 7 0 0 0-8 3c-2 5 0 10 2 14l1-1zM106 17a39 39 0 0 1-5 15L91 44a1 1 0 0 0 1 1c9-5 15-18 15-28h-1zM96 17c0 6-3 10-7 14a1 1 0 0 0 1 1c5-2 8-9 8-15a1 1 0 0 0-2 0z"/><path class="cls-13" d="M139 106a32 32 0 0 0 3 3 11 11 0 0 0 4 2l1-1a11 11 0 0 0-3-3 27 27 0 0 0-4-2l-1 1zM144 105l4 2 3 2a1 1 0 0 0 1-1l-3-3-4-2c-1-1-2 1-1 2zM85 120a23 23 0 0 0 3 2l3 2a1 1 0 0 0 1-1 7 7 0 0 0-3-2 23 23 0 0 0-3-2l-1 1zM91 117a26 26 0 0 0 4 1h3a1 1 0 0 0 0-1l-3-1a27 27 0 0 0-4-1 1 1 0 0 0 0 2z"/><path class="cls-11" d="M156 193c-10-2-19 6-19 16h3c-1-8 7-16 15-14 2 0 2-2 1-2zM110 23a191 191 0 0 1-15 27h1a77 77 0 0 0 15-27h-1zM118 24a27 27 0 0 1 20 8v-1a22 22 0 0 0-20-9v2zM213 236c-1 3 2 6 3 8 1 3 2 8 4 10a1 1 0 0 0 2-1c2-3-1-7-3-10-1-2-2-7-5-7a1 1 0 0 0-1 0zM223 240l4 9 3 7h2l-2-8a43 43 0 0 0-5-9l-2 1zM230 239a99 99 0 0 0 5 10l5 8a1 1 0 0 0 2-1c0-3-2-6-4-9a98 98 0 0 0-6-9 1 1 0 0 0-2 1zM239 241l4 6 4 7a1 1 0 0 0 2-2l-3-6-4-7a1 1 0 0 0-3 2zM160 29a68 68 0 0 1 6 17l1 16c0 2 2 1 3 0 2-5 1-12 0-17a46 46 0 0 0-8-17 1 1 0 0 0-2 1zM172 33a42 42 0 0 1 3 11l2 11a2 2 0 0 0 3 0c2-8-2-18-6-24a2 2 0 0 0-2 2z"/></g></g></svg>