<svg xmlns="http://www.w3.org/2000/svg" viewBox="0 0 770.1 531.6"><defs><style>.cls-3{fill:#fff}.cls-4{fill:#231815}</style></defs><g id="Layer_2" data-name="Layer 2"><g id="圖"><path fill="#00a04b" d="M119 73.8L64.4 531.6l705.7-46.1L703.2 0 119 73.8z"/><path fill="#ff328b" d="M0 140.4v373.9l456.1-140.4V0L0 140.4z"/><path class="cls-3" d="M189.4 186.2a48 48 0 0 1-6.3 9.4c1 2.8 2.2 4.3 3.4 4.1.8-.1 1.2-2 1.4-6.5a9.2 9.2 0 0 0 3.7 1.9c-.7 6.8-2 8.7-5.5 9.3-2.8.5-5-1.4-6.6-4.9a50 50 0 0 1-7 6 15.1 15.1 0 0 0-3-3.2 49.5 49.5 0 0 0 8.5-6.9 62.5 62.5 0 0 1-2-9.8l-7.7 1.4v4.3l5.9-2 .3 4-6.2 2.3v6.5c0 2.5-.5 3.8-2 4.8s-3.7 1.5-6.8 2a15.5 15.5 0 0 0-1.6-4.2l5-.9c.7-.2 1-.3 1-1v-5.5l-6.9 2.6-1.1-4.4 8-2.7v-5l-7.3 1.2v-4.3l7.2-1.3v-4.3l-6.1 2a14.3 14.3 0 0 0-1.3-3.7 111.4 111.4 0 0 0 15-5.8l3 3.3c-1.8.9-4 1.8-6.1 2.6v5.1l7.3-1.3c-.3-3.3-.4-6.8-.5-10.3l4.8-.8a94.3 94.3 0 0 0 .3 10.3l10.4-1.8v4.3l-9.9 1.7c.3 2.3.7 4.4 1.1 6.3a40.5 40.5 0 0 0 3.6-5.8zm-2.7-7.9a23.3 23.3 0 0 0-5.4-5.3l3.4-3a25.2 25.2 0 0 1 5.6 5zM215.3 180.1l-6.6 1.2v18.9l-4.2.7v-33.3a88 88 0 0 1-2.6 7v26.8l-4.3.8v-19a38.6 38.6 0 0 1-2.3 3.5 25.8 25.8 0 0 0-2.2-4.5 51.5 51.5 0 0 0 7.5-16l4.2.5-.2.8 10.7-1.9zm-6.6-9.9v2.2l3.1-.6v-2.1zm3.1 7.1v-2.2l-3 .5v2.3zm16.5 14.2c0 2.6-.6 3.9-2.1 4.8s-4 1.5-7.5 2.2a14 14 0 0 0-1.5-4.2c2.4-.2 5-.7 5.7-.9s1-.4 1-1.1v-13.7l-7 1.2v-14.5l11.3-2zm-7.8-23.4v2.2l3.4-.6v-2.2zm3.4 7V173l-3.4.6v2.2zM251.6 179l-.7 2 13.5-2.4v7.8c0 1.8-.3 2.8-1.5 3.6a12 12 0 0 1-4.8 1.5 10.9 10.9 0 0 0-1.3-3.4l2.7-.5c.4 0 .6-.2.6-.5v-4.2l-4.2.7v8l-4 .8v-8l-4 .7v8l-4.2.7v-8l-3.9.7v8.2l-4.2.8v-11.8l11-2 .4-1.9-14.2 2.5v-3.5l5.2-.9-1.1-2.8 9-3 .2 2.6-7.7 3.1 28-5v3.5zm-14.4-4.1l-4.3.7v-8.5l14.4-2.5v-1.8l-12.7 2.2v-3.2l29.8-5.3v3.2l-12.7 2.3v1.8l14.6-2.6v8.5l-4.5.8v-5.2l-2.1.4 1.4 1.7a48 48 0 0 1-6.8 3l-1.4-1.9a42.5 42.5 0 0 0 5.4-2.5l-6.6 1.1v7.4l-4.4.7V168l-7.6 1.3a39.2 39.2 0 0 1 6.2.5l-1.2 2.7a42.4 42.4 0 0 0-6.6-.8l1.2-2.3-2.1.4zm16-4.3a44.2 44.2 0 0 1 8.7.2l-.8 3a49.8 49.8 0 0 0-8.8-.6zM297.3 174.4a22.2 22.2 0 0 1-3.5 4.7c4 .2 7.7.6 10.6 1l-4 3.9a102.4 102.4 0 0 0-11-1.4c-4.3 2.8-10 4.8-17.4 6.6a10.6 10.6 0 0 0-1.7-3.6 72.2 72.2 0 0 0 11.8-3.4l-7.4-.2 2.9-4.1-7.2 1.2v-3.7l9.6-1.7 2-3.8-9.3 1.7v-10.7l8.2-1.4v-2.2l-10 1.8v-4l33.1-5.8v4l-10.3 1.7v2.2l9-1.6v10.6l-20.3 3.6 4 .2-1.3 2.8 9.1-1.6c.4-.7.6-1.5.9-2.3l4.3.3-.3 1.2 5.7-1v3.7zm-20.4-7.1l4-.7V163l-4 .7zm5.8 9.7l-1 1.6c2.2 0 4.5 0 6.7.2a17.5 17.5 0 0 0 3.4-3.4zm2.5-18.3l4.3-.7v-2.2l-4.3.8zm4.3 6.4v-3.6l-4.3.8v3.5zm4.2-4.3v3.5l4.6-.8V160zM317.2 170.7l6.5-10c3.3 2.5 7.5 4.3 12.2 3.4 5.8-1 9.4-4.7 9.4-10.9 0-6-3.6-8.5-8.7-7.6-3.3.5-5 1.5-8.4 4.3l-6.3-3 1.5-29.7 33.5-5.9v11.9l-21.2 3.7-.9 10.2a17.2 17.2 0 0 1 6.2-2.3c10-1.7 18.5 2.7 18.5 15.6 0 13.3-10 22.9-21.5 24.9-9.5 1.7-16-.8-20.8-4.6zM367.2 139c0-20.5 8.5-32 21-34.3s21.1 6.5 21.1 26.9-8.5 32.7-21.1 34.9-21-7-21-27.5zm28.7-5c0-16.3-3.4-19-7.7-18.3s-7.6 4.7-7.6 21 3.4 19.5 7.6 18.8 7.7-5.3 7.7-21.6zM416 130.4c0-20.5 8.4-32.1 21-34.3s21 6.5 21 26.8c0 20.5-8.5 32.7-21 35s-21-7-21-27.5zm28.6-5.1c0-16.2-3.4-19-7.6-18.2s-7.6 4.7-7.6 20.9 3.3 19.6 7.6 18.8 7.6-5.2 7.6-21.5zM481.2 93.6l-16 2.8V87l16-2.8v-3.6l11.4-2v3.6l7.5-1.4v9.5l-7.5 1.3V94l-11.4 2zm53.6 43.6c0 4.4-.6 7-3.4 9s-5.9 2.6-9.7 3.3a40.6 40.6 0 0 0-1.8-6.2l-6.7 2.8a32.3 32.3 0 0 0-.5-3.5l-29.5 7.2-.9-9.5 13.3-3v-4.6l-15.6 2.8v21l-11.1 2v-21l-3 .5v-9.2l3-.5v-1.9l11.1-2v1.9l15.6-2.8v-2.4l-21.7 3.8V98.5l55.1-9.7v26.4l-22.4 4v2.4l28.2-5zM485 106.3l10.6-1.8V102l-10.6 1.8zm10.6 7.5v-2.4l-10.6 1.8v2.4zm42-39.6v9.4l-16.6 3V89l-11.4 2v-2.5l-7 1.3v-9.4l7-1.3v-3.6l11.4-2v3.6zm-20.2 24l-10.8 1.9v2.4l10.8-1.9zm0 9.3l-10.8 1.9v2.4l10.8-2zm-7 26.5l-1.2-2.7 4.6-1.8-7.2 1.2v4.2zm12.1 6c.7 0 1-.3 1-1v-11.2l-5.3.9a49.4 49.4 0 0 1 3.8 11.5zM586.9 61.9c-.1 3.7-.3 8.3-.7 13.5 1.2 11.1 6.3 38.5 34 46a42.5 42.5 0 0 0-8.6 11.5 47.9 47.9 0 0 1-30.6-29.8 84.8 84.8 0 0 1-28.3 40.7 29.4 29.4 0 0 0-9.7-7.8c32.2-23.5 30-57.3 30.5-71.8zM158.5 238.9v4.3l-20.4 3.6a55.4 55.4 0 0 1-4.4 8.3v18.4l-4.6.8V261a41 41 0 0 1-3.3 3.2 25.5 25.5 0 0 0-2.3-4 37.1 37.1 0 0 0 9.5-12.6l-8.2 1.5v-4.4L135 243a74 74 0 0 0 1.7-5.6l4.7.3-1.4 4.4zm-9.1 26.7l9-1.6v4.2l-22.8 4V268l9.2-1.6v-8.7l-7.7 1.4v-4.2l7.7-1.4v-6.3l4.6-.8v6.3l7.5-1.3v4.2l-7.5 1.4zM163.7 260.4l6-1v-17.9l-5.1 1V239a22.3 22.3 0 0 0 6.5-3.5l4.2-.7v23.6l5.3-1v4.5l-17 3zM186 256.4l6-1v-17.8l-5 .9V235a22.3 22.3 0 0 0 6.5-3.5l4.2-.7v23.6l5.2-1v4.6l-16.9 3zM215.3 225.2l3.7-.6-9.4 39.1-3.7.7zM221.7 251.4c7.7-8.1 12.2-14.2 12.2-18.5 0-2.9-1.6-4.3-4.3-3.9-2 .4-3.7 2-5.1 3.8l-3-2.5c2.6-3.2 5-5.1 9-5.8 5.2-1 8.8 1.9 8.8 7.1 0 5.1-4.3 11.3-9.4 17.2a50 50 0 0 1 4.6-1l6.1-1.2v4.8l-18.8 3.3zM263.8 240l-3.4.6v7.3l-5.2.9v-7.3l-12 2.1v-3.8l10.5-18.9 6.7-1.1v16.5l3.4-.6zm-8.6-2.8v-5.7l.3-5.8h-.2a155 155 0 0 1-2.2 5l-4.4 7.7zM275.4 234.4v9c0 2.2-.4 3.4-1.7 4.3s-3.1 1.4-5.8 1.8a12.8 12.8 0 0 0-1.3-3.8l3.6-.6a.7.7 0 0 0 .7-.9v-7.8l-3.8 1.6-1.2-4.1a288 288 0 0 0 5-2v-6.7l-4.5.8v-4.2l4.5-.8v-7.2l4.5-.8v7.2l4-.7v4.2l-4 .7v5.6l2.7-1.2.6 4zm24-8.1a29.8 29.8 0 0 1-6.5 12.1 29 29 0 0 0 8.8 1.3 28.7 28.7 0 0 0-2.9 4.7 26.6 26.6 0 0 1-9.8-2.3 44.1 44.1 0 0 1-10.3 5.8 15.5 15.5 0 0 0-2.2-3.7 37.6 37.6 0 0 0 8.7-4.4 21.8 21.8 0 0 1-5.2-6.5l1.4-.7-2.2.4v-4.2l16.5-3 .8-.3zm-19 1.8a13.2 13.2 0 0 0-3-2.7c4.5-2.9 5-5.7 5-8.3V213l13.4-2.4v8.3c0 1.1 0 1.6.6 1.5l2-.4a10.4 10.4 0 0 0 2.2-.6l.4 3.7a8.4 8.4 0 0 1-2.4.7l-2.6.4c-3.7.7-4.5-.8-4.5-4.6v-4l-4.9 1a13 13 0 0 1-6.2 11.5zm4 4a14 14 0 0 0 4.6 4.5 23.6 23.6 0 0 0 4.4-6.1zM316.4 233.8a39.9 39.9 0 0 1-8.5 8.5 21.5 21.5 0 0 0-3.3-2.5 29 29 0 0 0 7.7-6.7zm22.7-9.3v3.6l-15 2.6v9.3l-4.5.8v-9.3l-14.8 2.6v-3.5zm-23.6-13.8l-10.2 1.9V209l33-5.8v3.5l-10.5 1.9v2l8.5-1.5v9.2l-28.8 5.1v-9.3l8-1.4zm-6.2 17.4v-3.4l25.1-4.4v3.4zm2.4-8.6l3.8-.7V216l-3.8.7zm11.9-10.2l-4 .7v2l4-.7zm-4 8.8l4-.7v-2.8l-4 .7zm10.3 12a42.2 42.2 0 0 1 8.8 4.2l-3.6 3.1a37 37 0 0 0-8.5-4.5zm-2-16.3v2.9l4-.7V213zM373.1 198v32.8l-4.8.8v-2.4l-16.9 3v2.5l-4.7.8v-32.8zm-21.7 8.5v8.1l16.9-3v-8.1zm16.9 18.2v-8.5l-16.9 3v8.5zM392.6 215.4c3-1.5 4.6-3.4 4.9-5.5a1.6 1.6 0 0 1-.5.1c-1.9.4-3.6-.5-3.6-2.7a4.3 4.3 0 0 1 3.8-4c2.6-.6 4 1.2 4 4.4 0 4.3-2.7 8.3-7.4 10.5zM451 187.3v4.3l-20.3 3.6a54.5 54.5 0 0 1-4.5 8.3v18.4l-4.6.8v-13.2a38 38 0 0 1-3.3 3.2 26.3 26.3 0 0 0-2.2-4 37.3 37.3 0 0 0 9.4-12.6l-8.2 1.5v-4.4l10.2-1.8c.7-1.9 1.2-3.7 1.7-5.5l4.7.3-1.4 4.4zm-9.1 26.7l9-1.6v4.2l-22.8 4v-4.2l9.2-1.6V206l-7.7 1.4v-4.2l7.7-1.4v-6.3l4.6-.8v6.3l7.5-1.3v4.2l-7.5 1.3zM553.5 184.8l-.1 1.6c-.5 7.2-1 10.3-2 11.5a4.3 4.3 0 0 1-2.5 1.8 30.5 30.5 0 0 1-4 .8 8.5 8.5 0 0 0-1-3.5 28.4 28.4 0 0 0 3.2-.5 1.6 1.6 0 0 0 1.2-.5c.5-.7.9-2.6 1.2-7l-3.6.6-3.8.7a79 79 0 0 0 1.4-6.4l-2.9.5v-3.8l14.2-2.5v3.9l-7.5 1.3-.6 2.7zm.4-8.7l-11.5 2v-10.7l11.5-2zm-3.3-7l-5 .9v4.4l5-.8zm20.6 9.1a12.4 12.4 0 0 0 2.6-.7l.3 3.1a10.8 10.8 0 0 1-2.8.8l-4 .7c-3.1.6-3.8-.8-3.8-3.8l-2.7.7-.4-2.9 3-.7V173l-3.6.6v6.3c0 5.4-.5 13.4-3.7 19a13.5 13.5 0 0 0-3.3-1.8c2.8-5.1 3-11.7 3-16.6V171l7.4-1.3v-7.3l4.3-.8v2l7.3-1.3v3.6l-7.3 1.3v1.6l5.5-1 .6-.2 2.8.1c-.4 2.6-1 5.6-1.5 7.6l-3.2-.3.5-3.4-5 .8v2l3.5-1 .4 2.8-4 1v.3c0 1 .1 1.3 1 1.2zm-5.7 5.5c-.3 6.3-1.1 11.1-5.4 14.7a7 7 0 0 0-2.4-2.5c3.4-2.8 3.9-6.5 4-11.5zm7 7.8a1 1 0 0 0 .6-.2 1.9 1.9 0 0 0 .3-.8l.1-3.6a7.4 7.4 0 0 0 3 1.2 31.1 31.1 0 0 1-.4 4.5 4.3 4.3 0 0 1-1.3 2 4.7 4.7 0 0 1-2 .8l-2 .4a3.1 3.1 0 0 1-2.6-.4c-.6-.6-.8-1.2-.8-3.4v-8.7l3.7-.6v8.3a.8.8 0 0 0 .2.5.6.6 0 0 0 .5.1zM593.6 159.4a73.2 73.2 0 0 1-11.3 18.6 33.4 33.4 0 0 0-4-3.2 50.5 50.5 0 0 0 10.3-16.2zm10.7 15.6a94 94 0 0 1 8.4 11.6L608 190a31.6 31.6 0 0 0-2-3.4c-18.3 4.7-20.9 5.4-22.7 6.4a35.3 35.3 0 0 0-1.9-4.5c1.3-.5 2.3-1.7 3.8-3.7a88.1 88.1 0 0 0 9.3-16l5.3 1.3a109.1 109.1 0 0 1-10.2 16l14-3.4-3.7-4.9zm.7-19.1c1.6 5 5.1 9.8 9.8 11.8a29.8 29.8 0 0 0-3.4 5.1c-4.4-2.5-7.8-7-9.9-11.6l-6 1v-4.6zM625.9 172.6v9c0 2.2-.4 3.4-1.7 4.2s-3.1 1.4-5.8 1.9a12.9 12.9 0 0 0-1.3-3.9l3.6-.6a.7.7 0 0 0 .7-.8v-7.9l-3.8 1.7-1.2-4.2 5-2v-6.6l-4.5.8V160l4.5-.8V152l4.5-.8v7.2l4-.7v4.2l-4 .7v5.6l2.7-1.2.6 4zm24-8.1a29.9 29.9 0 0 1-6.5 12.1 29.3 29.3 0 0 0 8.8 1.4 28 28 0 0 0-2.9 4.6 26.4 26.4 0 0 1-9.8-2.3 44.5 44.5 0 0 1-10.3 5.8 15.5 15.5 0 0 0-2.2-3.7 37 37 0 0 0 8.7-4.4 21.7 21.7 0 0 1-5.2-6.5l1.4-.7-2.2.4V167l16.5-2.9.8-.3zm-19 1.8a13.4 13.4 0 0 0-3-2.7c4.5-2.9 5-5.7 5-8.3v-4.1l13.4-2.4v8.3c0 1.1 0 1.6.6 1.5l2-.4a10.4 10.4 0 0 0 2.2-.6l.3 3.7a8.4 8.4 0 0 1-2.4.6l-2.5.5c-3.7.7-4.5-.8-4.5-4.6v-4l-5 1a13 13 0 0 1-6 11.5zm4 4a14 14 0 0 0 4.7 4.5 23.1 23.1 0 0 0 4.4-6.1zM181.2 337v9c0 2.2-.4 3.4-1.7 4.3s-3.1 1.3-5.8 1.8a12.9 12.9 0 0 0-1.3-3.9l3.6-.6c.5 0 .7-.3.7-.8V339l-3.8 1.7-1.2-4.2a192 192 0 0 0 5-2V328l-4.5.8v-4.2l4.5-.8v-7.2l4.4-.8v7.2l4-.7v4.2l-4 .7v5.6l2.8-1.2.6 4zm24-8.1a29.8 29.8 0 0 1-6.5 12.1 29 29 0 0 0 8.7 1.4 28 28 0 0 0-2.8 4.6 26.6 26.6 0 0 1-9.8-2.3 44.8 44.8 0 0 1-10.3 5.8 15.8 15.8 0 0 0-2.2-3.7 37 37 0 0 0 8.7-4.4 21.7 21.7 0 0 1-5.2-6.4l1.4-.8-2.2.4v-4.2l16.5-3 .8-.3zm-19 1.8a13.4 13.4 0 0 0-3-2.7c4.4-2.9 5-5.7 5-8.3v-4l13.4-2.4v8.2c0 1.1 0 1.6.6 1.5l2-.4a11 11 0 0 0 2.2-.6l.3 3.7a8.4 8.4 0 0 1-2.4.7l-2.5.4c-3.8.7-4.6-.8-4.6-4.6v-4l-4.8 1a13 13 0 0 1-6.2 11.5zm4 4a14 14 0 0 0 4.6 4.5 23.4 23.4 0 0 0 4.4-6.1zM229.3 314.5v6l.8-1c4 1.3 10 3.5 13 5.4l-3.4 4.7a59 59 0 0 0-10.4-5v18l-4.8.8v-28l-13.8 2.4v-4.5l33.9-6v4.5zM265.8 273l23.8-4.1v9.1l-13.8 2.4v35.4l-10 1.8zM336.1 283.8c7.1 4.2 18 10.5 23 15.3l-8.7 9.4c-4-4.3-12.4-10.2-19.4-14.9V328l-11.2 2v-31.6a103.7 103.7 0 0 1-20.6 19.1 50.4 50.4 0 0 0-7-8 89.4 89.4 0 0 0 28.9-31.1l-26.5 4.7v-10.5l61.5-10.8V272l-21.6 3.8a132 132 0 0 1-3.6 6.5v6.6zM425.7 300.1c0 5-1 8-4 10s-7 3.3-12.8 4.3a28.6 28.6 0 0 0-3.4-9.5c3.3-.4 7.3-1 8.5-1.3s1.7-.8 1.7-1.9v-42.3l-40.8 7.2v53.7l-9.9 1.8v-63.4l60.7-10.7zM412.5 272l-34.7 6.1v-8.5l34.7-6zm-22.3 32.4v4.4l-9.3 1.7v-28.7l28.9-5.1V301zm0-16v7.7l10.2-1.8v-7.7zM432.2 303.6A45 45 0 0 0 441 290l8.5 2.2c-2.3 5-5.2 10.7-9 14.8zm63.7-48.7l-61.1 10.8v-7.8l13.8-2.4-.8-2.5 5.6-2-15.1 2.7v-7.8L460 242a21 21 0 0 0-.8-2.3l10-3.5a27.3 27.3 0 0 1 1.6 3.9l21.4-3.8v7.8l-14.4 2.5h6.2l-1.6 2.9 13.6-2.4zm-24.6 39.6c2.4-.4 2.8-1.2 3.1-5.6a24.1 24.1 0 0 0 8.6 1.7c-1 8-3.6 10.5-10.7 11.8l-10.3 1.8c-9.9 1.7-12.2-.3-12.2-8v-6.4l8-1.4 2.8-3.3-18 3.2v-22l46-8.1v22l-19.6 3.4a29.5 29.5 0 0 1 5.6 2.3l-6.2 7.4a36.7 36.7 0 0 0-8.7-3.8v4.9c0 2 .6 2 3.6 1.5zm-19.2-21.8l26.5-4.6v-2l-26.5 4.6zm0 7.8l26.5-4.7v-2l-26.5 4.6zm5.3-30.3a19.2 19.2 0 0 1 1.3 3.5l13.2-2.4a32.2 32.2 0 0 0 1.2-3.8zm31.5 30.9c3.3 3.2 6.8 7.8 8.2 11.2l-8.8 5.5a39.9 39.9 0 0 0-7.6-11.7zM567.3 269.7l-27.1 4.8v16.8L530 293v-16.8l-13.2 2.3 9 1.6a71 71 0 0 1-15.3 15.5 49.2 49.2 0 0 0-7.5-5.4 50 50 0 0 0 13.3-11.6l-13 2.3V273l64-11.3zm-44.4-32l-18.4 3.2V233l61.4-10.8v7.9l-19 3.3v2.8l15.2-2.7v17.8l-53.5 9.5v-17.9l14.3-2.5zm-11.3 32V262l47.3-8.3v7.5zM518 252l5-1v-3.6l-5 1zm19.5-17l-5.2 1v2.7l5.2-.9zm-5.2 14.4l5.2-.9V245l-5.2.9zm26.4 37.7c-3-2.6-9.9-6-15.1-8.2l7.5-6.4c5 1.9 12 5 15.7 7.6zm-11.7-43.9v3.7l5.1-.9v-3.6zM594.8 281.6l-23.8 4.1v-9l13.8-2.5V239l10-1.8zM248.4 376l-8.6 1.5v17.3c0 2.9-.6 4.2-2.3 5.2s-4.3 1.7-8 2.3a15.4 15.4 0 0 0-1.6-4.5c2.4-.3 5-.8 5.8-1s1.1-.4 1.1-1.2v-15.9a70.2 70.2 0 0 1-17.3 21 15.7 15.7 0 0 0-3.6-3.4 56.9 56.9 0 0 0 16.2-18l-15 2.6v-4.7l19.7-3.5v-7.4l5-1v7.5l8.6-1.5zM268.7 391.5c0 1.9-.4 2.9-1.6 3.7a14.5 14.5 0 0 1-5.3 1.6 10.5 10.5 0 0 0-1.4-3.3l3.4-.5c.5-.1.6-.3.6-.8v-3.8a169 169 0 0 1-5.5 4.7l-1-2.5a19.7 19.7 0 0 1-2.6 7.6 14.1 14.1 0 0 0-3.2-2.5c2-3.3 2.2-7.5 2.2-10.8v-8.5l14.4-2.6zm-2.2-28a63.7 63.7 0 0 1 4.6 7.8l-4 2.3-1-2.2a67 67 0 0 0-12.3 3.8 40.4 40.4 0 0 0-1.4-3.8 5.6 5.6 0 0 0 2.1-1.9 40.9 40.9 0 0 0 4.5-7.5l4.6.4a54.4 54.4 0 0 1-4.7 7.2l5.5-1.4c-.5-1-1-2-1.6-2.8zm-8 20.7a46.3 46.3 0 0 1-.3 5l6.2-4.3v-1.2l-1.8 2a42.5 42.5 0 0 0-4.2-2.8zm0-4.8v2.7l1.8-2a44 44 0 0 1 4.1 2.5v-4.3zm18.7-4c-4.5.8-5.8-.6-5.8-4.8v-10.8l4.5-.8v4.5l9.4-1.6v3.8l-9.4 1.7v2.5c0 1.4.2 1.9 1.5 1.7l5.5-1a21.3 21.3 0 0 0 3.5-1c0 1.2.3 2.8.4 3.8a16.2 16.2 0 0 1-3.8 1zm4.8 13.7c1.3-.2 1.6-.9 1.7-4.4a10.5 10.5 0 0 0 4 1c-.5 5-1.7 6.7-5.3 7.3l-5.4 1c-4.5.8-5.6-.3-5.6-4.5v-12l4.5-.7v3.8l9.6-1.7v4l-9.6 1.7v4.1c0 1.3.3 1.5 1.7 1.2zM304.3 357a252 252 0 0 1-3.4 10.5 10.1 10.1 0 0 1 3 7.4c0 2.4-.6 4.1-1.8 5.3a5.7 5.7 0 0 1-2.2 1.2 14.7 14.7 0 0 1-2.6.5 7.6 7.6 0 0 0-1-3.7 14 14 0 0 0 1.8-.2 2.1 2.1 0 0 0 1-.5 3.3 3.3 0 0 0 .7-2.4 9 9 0 0 0-2.7-6.5 149 149 0 0 0 2.2-8.3l-3.6.7v29.9l-4.2.7v-34l9.3-1.6.6-.3zm21 23.4v4.2l-23.7 4.1v-4.1l3.8-.7v-28.3l17-3V381zM309.8 359v5l8.3-1.4v-5zm8.3 7.7l-8.2 1.4v5.4l8.2-1.5zm-8.2 16.4l8.2-1.5v-5.5l-8.2 1.4zM363 372.7v4.5l-34.7 6.1v-4.5l4.8-.9v-21.3l4.8-.8v21.3l6.9-1.2v-29.1l4.8-.8v11.8l11.3-2v4.6l-11.3 2V375zM379.2 340.5l12.6-2.2v4.1l-8.1 1.5V364l-4.5.8zM401.2 358v9.5c0 2-.3 3-1.4 4s-2.7 1.2-5 1.6a12.9 12.9 0 0 0-1.1-3.7 27.8 27.8 0 0 0 3-.5c.4-.1.6-.3.6-.7v-8l-2.9 1.5-1-4 3.9-2V349l-3.5.6v-4.2l3.5-.6v-7.1l3.9-.7v7.1l2.4-.4v4.1l-2.4.5v5.5l2-1 .8 3.9zm27.4-18.4l-21 3.7 2.4.7a33.1 33.1 0 0 1-2.4 5.5l1.8-.5.7-2.1 3.2 1.2a79.2 79.2 0 0 1-4.2 9.2l1.8-.8a13.5 13.5 0 0 0 .4-1.5l3 .1v-1a21.1 21.1 0 0 0-2.6-1.8 31.7 31.7 0 0 0 4.6-10.4l3.5.3-1 3.3 2.9-.5a14.8 14.8 0 0 0-1.3-2.5l3-1.6a17.7 17.7 0 0 1 1.9 3.5l3-.6v3.4l-3.9.7v2.7l3.3-.6v3l-3.3.6v2.8l3.2-.6v3l-3.2.6v3l4.2-.7v3.4l-10.7 2v1.9l-3.5.6v-14.1a25 25 0 0 1-9.6 16 12.2 12.2 0 0 0-2.3-2.3 19.6 19.6 0 0 0 7.1-8.6 21 21 0 0 0-5 2.8 22.3 22.3 0 0 0-1.3-3 5.7 5.7 0 0 0 2.2-2.6 47.4 47.4 0 0 0 2.4-4.7 12.4 12.4 0 0 0-3.6 1.4 22 22 0 0 0-1.3-3.2 3.4 3.4 0 0 0 1.4-1.6 39.5 39.5 0 0 0 2.1-6.2l-2.2.4V340l9.8-1.7a12 12 0 0 0-1.3-2l3.3-1.8a14.6 14.6 0 0 1 2 3.1l10.6-1.9zm-7.8 9l-3 .5v2.7l3-.5zm0 5.7l-3 .5v2.8l3-.5zm0 5.8l-3 .6v3l3-.5zM442.7 351.8a34.5 34.5 0 0 0-1.8-3.7v17.2l-4.3.8v-14a39.5 39.5 0 0 1-3.3 7.7 20.4 20.4 0 0 0-2.2-4.2c2.3-3.3 4.3-9 5.4-13.8l-4.5.8v-4.1l4.6-.8v-7.1l4.3-.8v7l3.8-.6v4.2l-3.8.7v1.2c1 1.2 3.8 5 4.4 6zm24-6.8a44.6 44.6 0 0 1-5.6 8 50.8 50.8 0 0 1 6.2 4.4l-3.5 3.6a35.5 35.5 0 0 0-6-4.7 51.1 51.1 0 0 1-12.2 8.3 22.1 22.1 0 0 0-2.7-3.4c9-4 16.1-10.5 19.2-17zm-2.6-7a48.3 48.3 0 0 1-16.7 17.9 17.2 17.2 0 0 0-2.5-3 41.3 41.3 0 0 0 9.3-7.5c-5.7 1.4-7 1.9-7.7 2.3a24.6 24.6 0 0 0-1.1-3.9 7.4 7.4 0 0 0 3-1.8c.6-.7 2-3.3 3.2-5.4l-6.3 1.1v-4l8.9-1.6a16.2 16.2 0 0 0-1.4-3.4l4.3-2a18 18 0 0 1 2 4.5l7.7-1.3v4l-10.4 2-3.6 6.2 5-1.1a33.7 33.7 0 0 0 2-3.6zM484.6 324.6a73 73 0 0 1-11.4 18.7 32.5 32.5 0 0 0-4-3.2 50.7 50.7 0 0 0 10.3-16.2zm10.6 15.6a93.5 93.5 0 0 1 8.4 11.6l-4.6 3.3a33.4 33.4 0 0 0-2-3.4c-18.4 4.7-21 5.4-22.8 6.4a33.9 33.9 0 0 0-1.9-4.5c1.3-.6 2.3-1.8 3.8-3.7a87 87 0 0 0 9.4-16l5.3 1.2a109 109 0 0 1-10.3 16.1l14-3.3-3.7-5zm.7-19.1c1.7 5 5.1 9.7 9.8 11.8a29.9 29.9 0 0 0-3.4 5.1 26 26 0 0 1-9.9-11.6l-6 1v-4.6zM516.8 337.8v9c0 2.2-.4 3.4-1.7 4.3s-3.1 1.4-5.8 1.9a12.9 12.9 0 0 0-1.2-3.9l3.5-.6c.5 0 .7-.3.7-.8v-7.9l-3.8 1.7-1.2-4.1 5-2v-6.7l-4.5.8v-4.2l4.5-.8v-7.2l4.5-.8v7.2l4-.7v4.2l-4 .7v5.6l2.8-1.2.5 4zm24-8a29.9 29.9 0 0 1-6.5 12 28.9 28.9 0 0 0 8.8 1.4 28.7 28.7 0 0 0-2.9 4.7 26.6 26.6 0 0 1-9.8-2.4 44.6 44.6 0 0 1-10.3 5.9 15.8 15.8 0 0 0-2.2-3.8 37 37 0 0 0 8.8-4.4 21.6 21.6 0 0 1-5.3-6.4l1.4-.8-2.2.4v-4.2l16.5-2.9.8-.3zm-19 1.7a13.2 13.2 0 0 0-3-2.7c4.5-2.8 5-5.7 5-8.3v-4l13.5-2.4v8.2c0 1.1 0 1.6.6 1.5l2-.4a11.2 11.2 0 0 0 2.1-.6l.4 3.7a8.3 8.3 0 0 1-2.4.7l-2.5.4c-3.8.7-4.6-.8-4.6-4.6v-4l-4.9 1a13 13 0 0 1-6.1 11.5zm4 4a14 14 0 0 0 4.7 4.5 23.6 23.6 0 0 0 4.4-6.1zM557.4 345l-12.6 2.2v-4l8-1.5v-20.2l4.6-.8zM182.2 466.3c1.3-.3 1.6-1 1.7-5.2a11.6 11.6 0 0 0 4.1 1c-.5 5.6-1.7 7.4-5.4 8l-5.2 1c-4.5.8-5.7-.3-5.7-4.4v-7l-.6.1c-2 6-6 11.3-15.7 15.6a10.9 10.9 0 0 0-2.5-3.3c7.8-3.4 11.4-7.2 13.2-11.4l-9.4 1.7v-8.5l-1.3 1.1a10.5 10.5 0 0 0-3.2-2.8 41.5 41.5 0 0 0 10.7-13.5h4.9l-1 2 7.5-1.3.8-.4 3.2 1.5a50.2 50.2 0 0 1-3.6 5.8l10.2-1.9v13l-8.4 1.5v7c0 1.2.2 1.3 1.6 1zm-14.7-9.9a43.1 43.1 0 0 0 .6-5l-7 1.2v5zm-3.3-11.6c-.9 1.3-1.7 2.5-2.8 3.8l8-1.4a38.3 38.3 0 0 0 2.3-3.7zm8.7 5.8a52 52 0 0 1-.7 5l8-1.4v-5zM203.7 434.6c-1 3.4-2 7.5-3.1 10.6a11.3 11.3 0 0 1 2.6 7.4c0 2.5-.5 4.2-1.7 5.3a5.4 5.4 0 0 1-2 1.2 16.9 16.9 0 0 1-2.5.5 7.7 7.7 0 0 0-1-3.7 8.3 8.3 0 0 0 1.7-.3 1.6 1.6 0 0 0 1-.4 3.4 3.4 0 0 0 .6-2.4 9.7 9.7 0 0 0-2.4-6.5c.7-2.4 1.4-5.7 2-8.3l-3 .6v29.8l-4 .7v-33.9l8.3-1.4.6-.3zm6.8 20.8a44.2 44.2 0 0 1-5.5 9.4 21.9 21.9 0 0 0-3.3-2 27.7 27.7 0 0 0 4.9-7.8zm6.6-3.5v8.2c0 2-.4 3.2-1.7 4.2a15.5 15.5 0 0 1-5.7 1.7 12.8 12.8 0 0 0-1.5-3.8c1.7-.2 3.3-.5 3.9-.7s.6-.2.6-.7v-8.1l-9 1.6v-4.1l9-1.6v-3.1l-6 1V444c-.6.5-1 .9-1.6 1.2a12.4 12.4 0 0 0-3-2.7 36.8 36.8 0 0 0 11.8-13l3.7.8-.9 1.7a25.7 25.7 0 0 0 10 5.6 16.8 16.8 0 0 0-3 4.2l-1.8-.8v3l-4.8.8v3.2l8.5-1.6v4.2zm3.6-11.7a33.2 33.2 0 0 1-6.2-4.8 47.2 47.2 0 0 1-6.1 7zm.8 12a30 30 0 0 1 5.1 6.4l-3.6 2.6a32.3 32.3 0 0 0-4.9-6.8zM239.8 447.6a38.3 38.3 0 0 0-1.8-3.7V461l-4.4.7v-14a39.6 39.6 0 0 1-3.3 7.8 20.3 20.3 0 0 0-2.1-4.2c2.3-3.3 4.3-9 5.4-13.8l-4.6.8v-4.1l4.6-.9v-7l4.4-.8v7l3.8-.6v4.2l-3.8.7v1.2l4.4 6zm24-6.8a44.6 44.6 0 0 1-5.7 8 49.7 49.7 0 0 1 6.3 4.4l-3.5 3.5a36 36 0 0 0-6-4.6 50.8 50.8 0 0 1-12.2 8.2 22 22 0 0 0-2.7-3.3c9-4 16-10.5 19.1-17zm-2.6-7a48.3 48.3 0 0 1-16.8 17.8 17.6 17.6 0 0 0-2.5-3 41 41 0 0 0 9.4-7.5c-5.7 1.5-7 2-7.8 2.4a25 25 0 0 0-1-4 7.3 7.3 0 0 0 3-1.7l3.2-5.4-6.4 1v-4l9-1.6a16.2 16.2 0 0 0-1.4-3.3l4.3-2a18 18 0 0 1 2 4.5l7.7-1.4v4.1l-10.5 1.8-3.6 6.3 5-1.2a31.9 31.9 0 0 0 2-3.6zM286.5 431.6l-.3 3.3c1.6 8.1 5.5 11.7 16.2 10.8a20.4 20.4 0 0 0-2.6 4.7c-8.6.3-13-2-15.5-7.1-2 4.9-6.2 8.9-15 12.3a11 11 0 0 0-2.6-3.6c13.5-5 14.2-10.5 14.8-19.4zm-12 2.5a33.2 33.2 0 0 0-6-6.7 71.5 71.5 0 0 0 5.2-8.1l4.7.4a76.5 76.5 0 0 1-4.7 6.7 33.6 33.6 0 0 1 5.2 5.3zm-1 1.2a65.7 65.7 0 0 1 3.8 7.5l-4.5 2.8a67.6 67.6 0 0 0-3.6-7.9zm11.6-3.6a34.2 34.2 0 0 0-6.4-6.4 71.2 71.2 0 0 0 5.6-7.9l4.7.4a78.4 78.4 0 0 1-5 6.5 30.7 30.7 0 0 1 5.5 5zm11-1.3a33.1 33.1 0 0 0-7.2-6.6 82 82 0 0 0 6.2-8.3l4.7.5c-1.7 2.4-3.7 4.7-5.4 6.8a36.9 36.9 0 0 1 6.1 5zm-5.3 10.2a51 51 0 0 0 4.3-8.7l5 .3a95.5 95.5 0 0 1-5.2 9zM338.8 420.5a53 53 0 0 1-5.4 16c.7 2 1.5 3.2 2.3 3.1.7-.1 1-2 1.2-6.6a9.8 9.8 0 0 0 3.4 1.8c-.6 6.7-1.9 8.7-5 9.3-2 .3-3.6-1-4.8-3.1a32 32 0 0 1-4.6 4.9 17 17 0 0 0-3.1-2.6 27.2 27.2 0 0 0 6-6.6 86.6 86.6 0 0 1-2.2-17.4l-15 2.7v6.9c0 5.6-.6 14-4 19.8a12 12 0 0 0-3.4-2c2.9-5.3 3.2-12.1 3.2-17v-11l19-3.4v-5.1l4.4-.8v5.1l4.9-.8a28.2 28.2 0 0 0-4.2-2.1l2.5-3a21.8 21.8 0 0 1 5 2.4l-2 2.5 2.6-.5v4l-8.6 1.5a107.4 107.4 0 0 0 1.1 11.8 48.4 48.4 0 0 0 2.5-9.7zm-16 21.6l-2.6-1.2a23.8 23.8 0 0 1-7.7 6 8.2 8.2 0 0 0-2-2.5 19.9 19.9 0 0 0 6.5-5 47.3 47.3 0 0 0-4.9-1.6c.6-1.2 1.1-2.8 1.7-4.4l-1.4.2v-3l2.4-.4 1-3.5-3 .5v-3.4l12.9-2.3v3.5l-6.2 1.1-1 3.5 2.9-.5.2-2 3.7-.2-.2 1.5 1-.1v3l-1.6.2a26.2 26.2 0 0 1-2 6 31.4 31.4 0 0 1 3.3 1.5zm-5.2-9.4l-1 2.8 2.5.8a18.7 18.7 0 0 0 1.6-4.1zM377.4 412.6c-.4 3-.8 4.7-1.6 5.5a4.5 4.5 0 0 1-2.4 1.4 35.1 35.1 0 0 1-4 .7 6 6 0 0 0-.9-2.8 33 33 0 0 0 3-.4 1.6 1.6 0 0 0 1-.4 4.5 4.5 0 0 0 .6-2l-4 .7c-1.1 2.8-3.4 5-8.2 7a6 6 0 0 0-1.9-2.3c3-1.2 4.8-2.5 5.8-4l-4.7.9v-2.6l5.9-1 .3-1.4-3 .4a6 6 0 0 0-1-2.6 52 52 0 0 0 4.3-.6 2.3 2.3 0 0 0 1.3-.4 4.2 4.2 0 0 0 .9-1.6l-7.5 1.3c-1.4 2.3-4 4-8.9 5.6h.2l-.2 1.8 7-1.3a7.3 7.3 0 0 1-.2 1.5c-.5 3-1 4.6-1.7 5.4a4.5 4.5 0 0 1-2.3 1.3 33.9 33.9 0 0 1-3.5.6 5.8 5.8 0 0 0-.8-2.8 22.8 22.8 0 0 0 2.5-.3 1.3 1.3 0 0 0 1-.4 4.5 4.5 0 0 0 .7-2l-3.5.6c-1 3-3 5.4-7.2 7.5a6.5 6.5 0 0 0-2-2.4c2.7-1.2 4.3-2.7 5.2-4.3l-4.5.8v-2.6l5.5-1 .2-1.3-2.1.5a6 6 0 0 0-1.4-2.5c5.6-1.2 8.9-2.4 10.7-3.8l-9.3 1.7v-2.7l11.5-2a9.9 9.9 0 0 0 .4-2l4.1-.7a16.3 16.3 0 0 1-.3 2l11.3-2a11.2 11.2 0 0 1-.3 1.5c-.5 2.8-1.2 4.3-2 5a4 4 0 0 1-1 .8l-.3 1.7 7.4-1.3zm-5 20.6c0 2.2-.4 3.2-2 4s-4 1.3-7 1.8a13.6 13.6 0 0 0-1.3-3.3l4.8-.8c.5 0 1-.3 1-.9v-2c-5.4 2-10.7 3.8-14.9 5.2l-1-3.2a20.7 20.7 0 0 1-2.8 7.7 17.8 17.8 0 0 0-3.7-1.7c2.3-3.6 2.6-8 2.6-11v-4.4l24.4-4.3zm-4.5-4v-5.1l-15.5 2.7v1.4a36 36 0 0 1-.4 5.6l12.4-3.6a81.9 81.9 0 0 0-11.4-.3l1-2.6a74.3 74.3 0 0 1 11.8 0l-1 2.8zM403.6 417l-4 4.2a54.9 54.9 0 0 0-8.2-6.9l4-4.2a54.6 54.6 0 0 1 8.3 6.9zM450.4 418.4c0 2.5-.6 3.9-2.2 4.9s-4 1.5-7.4 2a13.5 13.5 0 0 0-1.5-4.2l5.5-1c.7-.1 1-.3 1-1v-19.4l-22.3 4v24.7l-4.5.8V400l10.5-1.9a59.3 59.3 0 0 0 2-6.7l5.7-.2c-.8 2-1.7 4.2-2.6 6l15.8-2.8zm-19.2.6v2.6l-4 .7v-15.6l14.8-2.6v13zm0-9v5l6.7-1.2v-5zM466 407.7a36.1 36.1 0 0 0-1.8-3.7v17.2l-4.3.8v-14a38.9 38.9 0 0 1-3.3 7.8 20.4 20.4 0 0 0-2.2-4.2c2.3-3.4 4.3-9 5.5-13.8l-4.6.8v-4.2l4.6-.8v-7.1l4.3-.8v7.1l3.8-.7v4.2l-3.8.7v1.2c1 1.2 3.8 5 4.4 6zm24-6.8a44.3 44.3 0 0 1-5.6 8 50.8 50.8 0 0 1 6.2 4.4l-3.5 3.5a36.6 36.6 0 0 0-6-4.6 51.1 51.1 0 0 1-12.2 8.2 21.5 21.5 0 0 0-2.7-3.3c9-4 16.1-10.5 19.2-17zm-2.6-7a48.3 48.3 0 0 1-16.7 17.8 17.7 17.7 0 0 0-2.5-3 41 41 0 0 0 9.3-7.4c-5.7 1.4-7 1.8-7.7 2.3a24.6 24.6 0 0 0-1.1-3.9 7.4 7.4 0 0 0 3-1.8c.6-.8 2-3.3 3.2-5.4l-6.3 1.1v-4.1l8.9-1.6a17.5 17.5 0 0 0-1.4-3.3l4.3-2a17.8 17.8 0 0 1 2 4.5l7.7-1.4v4.1l-10.4 1.9-3.6 6.2 5-1.1a33.7 33.7 0 0 0 2-3.6zM498 394.2l-4.1.7v-8.5l14.4-2.6v-1.5l-12.7 2.2v-3l29.8-5.2v3l-12.7 2.2v1.6l14.6-2.6v8.5l-4.3.8-.8 2.8a54.1 54.1 0 0 0-8.8-.5l.9-2.7a47.8 47.8 0 0 1 8.5.3v-5.5l-2 .4 1.3 1.7a45.4 45.4 0 0 1-6.7 3l-1.4-2a57.6 57.6 0 0 0 5.2-2.5l-6.5 1.2v7.9l-4.4.8v-8l-7.3 1.4a37.9 37.9 0 0 1 6 .5l-1.3 2.6a42.5 42.5 0 0 0-6.5-.7l1-2.3-2 .4v5.2l8.8-2.8.1 2.6-8 3.2zm24.3 12.8c2-.3 2.3-1 2.5-4.2a10.3 10.3 0 0 0 3.8.7c-.5 4.7-1.8 6.1-6 6.9l-8 1.4c-5.1.9-6.6 0-6.6-3.9v-.1l-6.3 1.2v1.6l-4.3.8v-13.8l26.3-4.7v12.2l-11.3 2c0 1.5.4 1.6 2.7 1.2zm-20.6-7.2v1.7l6.3-1.1v-1.7zm6.3 5V403l-6.3 1v1.8zm11.2-8l-6.8 1.2v1.7l6.9-1.2zm0 6v-1.7l-6.8 1.2v1.7zM562 399.5c.5-.1.7-.6.8-4.2a9.3 9.3 0 0 0 3.8 1c-.4 5.1-1.5 6.7-4.2 7.2l-2.5.5c-3.4.6-4.2-.7-4.2-4.6v-7.6l-1.7.3c-.6 6.1-2 11-8.1 15a10.3 10.3 0 0 0-2.3-2.8v.8l-7.4 1.3v1.6l-3.9.7v-13.1l11.3-2v10.2c4.7-3 5.6-6.5 6-11l-2.5.5V383c-.4.5-1 1-1.3 1.5a21.6 21.6 0 0 0-3.2-2.7l.1-.1-11.9 2v-3.5l5.7-1a28.8 28.8 0 0 0-1.8-4.5l3.8-1.8a23 23 0 0 1 2.1 4.5l-3 1.6 6.8-1.2v2.2a33.3 33.3 0 0 0 5.4-8.8l4.1.5a49.3 49.3 0 0 1-5.2 9.3l13-2.3a54.5 54.5 0 0 0-6.3-6.8l3.2-2.7c2.9 2.6 6.5 6.2 8 8.7l-3.4 3-.7-1.1v10.9l-2.4.4v7.5c0 1.1 0 1.2.6 1.1zM543 386.8l-10.7 1.9v-3.4l10.7-2zm-10.7 3.6l10.7-2v3.5l-10.7 1.9zm7.5 7.5l-3.7.6v4.3l3.7-.7zm11.4-9.2l6.7-1.2v-4.2l-6.7 1.2zM591.9 375.5c4 2.2 9.9 5.5 12.6 8l-3.8 4.2a68.4 68.4 0 0 0-11.7-8.2V399l-4.9 1v-18.6A58.8 58.8 0 0 1 572 393a21.1 21.1 0 0 0-3.1-3.6 51.6 51.6 0 0 0 16.4-17.8l-15.2 2.7v-4.6l33-5.8v4.6l-11.9 2c-.6 1.4-1.4 2.7-2.2 4v4zM611.1 388.6a4.7 4.7 0 0 1 4-4.4c2.3-.4 4 .9 4 3a4.6 4.6 0 0 1-4 4.5c-2.3.4-4-.9-4-3zm.7-19.5l-.2-5.6 7-1.2-.2 5.7-1.3 13.2-3.9.7zM525.8 187.3c0 16.5-13.4 32.2-30 35.1s-29.9-8-29.9-24.6 13.4-32.3 30-35.2 29.9 8.1 29.9 24.7z"/><path class="cls-4" d="M488.3 181.5a12.4 12.4 0 0 0-5.6-4.3l-.4-.1-.4.2a67 67 0 0 0-6.8 4l-.5.3-.1.6a33.5 33.5 0 0 0-.2 4 40 40 0 0 0 .2 4.3l.1 1.3 1.3-.7 3.2-1.6c-.3 7.5-.9 15.6-1.7 24.1v1h1a45.1 45.1 0 0 0 5.5-.7l1.5-.3c.5 0 .9-.2 1.3-.3l1-.1v-1c.6-9.2.8-18.2.8-26.8v-3.8zM514.8 188.2c-5-2.3-15.9 1.2-15.9 1.2l-.3-3.9a7.2 7.2 0 0 1 1.9-4.6s2.7-3 6.2-2.4c1.2.1 3.1 1.5 3.4 2.3l.4 2.4 6.7-1.1s0-4.7-.7-6.2c-1.3-3.1-4.9-6.8-13.5-4.9a13.7 13.7 0 0 0-9.2 5.7 16.4 16.4 0 0 0-3.2 6.8c-.6 4-.6 15.1-.6 18 0 3.4.8 5.5 3.2 7.5a13.5 13.5 0 0 0 10.3 3 17.1 17.1 0 0 0 10.8-4.8 14.8 14.8 0 0 0 4.7-10.7c0-3.5-.8-6.8-4.2-8.3m-10.1 15.5c-2.7.5-4.4.3-5-.6a6.2 6.2 0 0 1-.8-4.4 8.6 8.6 0 0 1 2-2.7c1.7-1.3 3.7-1.5 5.3-1.7a4 4 0 0 1 3.3.6 3.4 3.4 0 0 1 1.2 2.7 6.3 6.3 0 0 1-1.4 4 8 8 0 0 1-4.7 2.1"/><path d="M496 159.3c-18 3.2-32.5 20.4-32.5 38.3s14.6 30 32.6 26.9 32.5-20.4 32.5-38.4-14.6-30-32.6-26.8m-25.6 37.1a32 32 0 0 1 25.7-30.1 22.4 22.4 0 0 1 16 2.8l-36 42.4a21.6 21.6 0 0 1-5.7-15.1m25.6 21a22.8 22.8 0 0 1-14.8-2l35.7-42a21.8 21.8 0 0 1 4.8 14 32 32 0 0 1-25.7 30" fill="#e50012"/></g></g></svg>