<svg xmlns="http://www.w3.org/2000/svg" viewBox="0 0 808.5 322.7"><defs><style>.cls-2{fill:#1ca3fb}.cls-3{fill:#cadffd}.cls-4{fill:#e5effd}.cls-5{clip-path:url(#clip-path)}.cls-7{font-size:24.98px;fill:#58595b}.cls-15,.cls-7{font-family:NotoSansCJKtc-Medium-B5pc-H,Noto Sans CJK TC}.cls-8{letter-spacing:.25em}.cls-15{font-size:22.42px;fill:#626365}</style><clipPath id="clip-path"><path fill="none" d="M0 0h487v311.5H0z"/></clipPath></defs><g id="Layer_2" data-name="Layer 2"><g id="圖文"><path class="cls-2" d="M0 0h149.2v42.5H0zM152.8 0H487v42.5H152.8z"/><path class="cls-3" d="M0 46.9h149.2v62.8H0zM152.8 46.9H487v62.8H152.8z"/><path class="cls-4" d="M0 114.2h149.2V177H0zM152.8 114.2H487V177H152.8z"/><path class="cls-3" d="M0 181.4h149.2v62.8H0zM152.8 181.4H487v62.8H152.8z"/><path class="cls-4" d="M0 248.7h149.2v62.8H0zM152.8 248.7H487v62.8H152.8z"/><text transform="translate(195.2 31.7)" fill="#fff" font-family="NotoSansCJKtc-Bold-B5pc-H,Noto Sans CJK TC" font-size="25">零到滿載發電所需時間</text><text class="cls-7" transform="translate(242.6 85.5)"><tspan class="cls-8">約</tspan><tspan x="31.2" y="0">9 ~ 20 分鐘</tspan></text><text class="cls-7" transform="translate(49.7 85.5)">水力</text><text class="cls-7" transform="translate(49.7 218.9)">燃煤</text><text class="cls-7" transform="translate(49.7 150)">燃氣</text><g class="cls-5"><text class="cls-7" transform="translate(49.7 283.3)">核能</text></g><text transform="translate(269.3 218.9)" letter-spacing=".3em" font-family="NotoSansCJKtc-Medium-B5pc-H,Noto Sans CJK TC" fill="#58595b" font-size="25">約8<tspan x="51.7" y="0" letter-spacing="0">小時</tspan></text><text class="cls-7" transform="translate(258.8 149.9)"><tspan class="cls-8">約</tspan><tspan x="31.2" y="0">2.5 小時</tspan></text><g class="cls-5"><text class="cls-7" transform="translate(262.2 283.3)"><tspan class="cls-8">約</tspan><tspan x="31.2" y="0">1 ~ 3 天</tspan></text><text transform="rotate(-8 2184.6 -1075.3)" font-size="28.1" fill="#d12229" font-family="NotoSansCJKtc-Medium-B5pc-H,Noto Sans CJK TC">最<tspan x="28.1" y="0" letter-spacing=".3em">慢</tspan><tspan x="63.2" y="0" letter-spacing="0">!</tspan></text></g><text transform="rotate(-7 1250 -4185)" font-family="NotoSansCJKtc-Black-B5pc-H,Noto Sans CJK TC" font-size="24.5" fill="#58595b">養綠</text><text class="cls-15" transform="rotate(-7 1219.5 -4584.2)">要靠</text><text class="cls-15" transform="rotate(-7 1544 -4202.5)">電力系統的</text><text transform="rotate(-7 1465 -5118.2)" font-size="36.7" font-family="NotoSansCJKtc-Black-B5pc-H,Noto Sans CJK TC" fill="#58595b">彈性能力</text><text class="cls-15" transform="rotate(-7 1751.9 -5590.3)">不是核能！</text><path stroke="#626365" stroke-linecap="round" stroke-linejoin="round" stroke-width="6.1" stroke-dasharray="0 12.5" fill="none" d="M525.5 194l142.8 15.3"/></g></g></svg>