<svg xmlns="http://www.w3.org/2000/svg" viewBox="0 0 217 303"><defs><style>.cls-1{fill:#c73f69}.cls-2{fill:#cbccc7}.cls-3{fill:#88d5a9}.cls-4{fill:#ffe9a1}.cls-5{fill:#00b26e}.cls-6{fill:#865445}.cls-7{fill:#bbac77}.cls-8{fill:#ffe2ed}.cls-9{fill:#fff}.cls-10{fill:#211613}</style></defs><g id="Layer_2" data-name="Layer 2"><g id="圖"><path class="cls-1" d="M17 92s-6-10-4-27 2-26 11-34 19-16 27-16S76 2 91 2s30 10 38 21 15 12 18 31 7 21 4 37-8 10-8 10-10-17-13-19-9-9-16-10-11-3-14-2-10 9-16 14-14 8-19 13-11 7-14 11-7 6-7 10-14-5-14-5z"/><path class="cls-2" d="M43 120c-3 0-12-6-13-7L16 93s-5-11-3-28v-1c1-17 2-25 10-33 4-4 18-17 28-17 4 0 8-2 14-5 7-3 17-8 26-7 15 0 30 9 38 21a63 63 0 0 0 7 8c5 5 9 9 12 22l2 12c3 10 4 14 1 26-1 7-3 11-5 12-2 0-3-2-3-2s-10-17-13-19l-2-1c-3-3-8-8-14-8a46 46 0 0 1-9-2l-5-1-8 7-8 8a68 68 0 0 1-10 6 52 52 0 0 0-9 6 72 72 0 0 1-5 4l-8 8a23 23 0 0 1-4 4c-2 2-3 3-3 5a1 1 0 0 1-1 2 2 2 0 0 1-1 0zm-13-7c5 3 12 7 14 6v-1l3-6a23 23 0 0 0 4-4l8-7a70 70 0 0 0 6-5 52 52 0 0 1 9-6 66 66 0 0 0 10-6 106 106 0 0 0 7-8c4-3 7-6 9-6h5a46 46 0 0 0 9 2c6 1 12 5 15 8l2 1 13 19 2 2c1 0 3-2 5-11 2-12 1-16-1-25l-3-12c-2-13-7-18-11-23a65 65 0 0 1-7-8c-8-11-24-20-38-20-9-1-18 4-26 7-5 3-10 5-14 5-10 0-23 13-27 16-8 8-9 16-10 33l-1 1c-1 17 4 27 4 27z"/><path class="cls-1" d="M10 113s-9 0-8 13 0 19 3 28l8 17a48 48 0 0 1 1 10s9 4 16 1 15-9 17-13l7-16-12-15s-6 8-11 2-11-17-11-17-9-6-10-10z"/><path class="cls-2" d="M24 184a27 27 0 0 1-10-3 48 48 0 0 0-1-10 34 34 0 0 0-4-7 106 106 0 0 1-4-10c-3-7-3-13-3-21l-1-7c0-13 9-14 9-14h1c1 5 9 10 9 10h1c0 1 5 13 10 18a5 5 0 0 0 4 2c4-1 7-4 7-4v-1l12 16-6 16c-2 5-11 10-18 14a14 14 0 0 1-6 1zm-9-3c1 0 9 3 14 1 7-3 16-9 18-14l6-15-11-14-7 4a6 6 0 0 1-5-2c-5-6-10-17-10-18-1-1-9-6-10-10-2 0-8 2-8 13v7c1 8 1 14 4 21a104 104 0 0 0 4 9 35 35 0 0 1 3 8 48 48 0 0 1 2 10z"/><path class="cls-1" d="M143 126s13 8 16 20c0 0 11 7 12 6s-2 11-10 15-21 10-27 6a27 27 0 0 1-10-8s18-22 19-39z"/><path class="cls-2" d="M139 175a12 12 0 0 1-5-1 27 27 0 0 1-10-9c0-1 17-22 19-39v-1l1 1s12 8 15 20l12 6a1 1 0 0 1 1 0c0 2-4 12-11 16-3 2-14 7-22 7zm-14-10a27 27 0 0 0 9 8c6 3 18-1 27-6 6-3 9-12 10-14l-13-6v-1c-2-10-12-17-14-19-2 16-17 36-19 38z"/><path class="cls-3" d="M60 174s9 32 22 30 9-31 9-31l12-1 11 8s13-3 19 1 21 12 23 27 9 38 9 38l-6 4-13 2s0 4-10 8-66 17-66 17l-15-6s-7 4-15 2-15-5-17-10-6-8-4-13a38 38 0 0 1 5-8s-3-17-1-30 17-20 17-20 8-15 20-18z"/><path class="cls-2" d="M70 277l-15-5a24 24 0 0 1-15 1c-9-2-15-5-17-9l-2-3c-2-4-4-7-3-11a38 38 0 0 1 6-8c-1-2-4-18-1-31 2-12 15-19 17-20 1-1 8-14 20-17h1c0 1 8 30 20 30a7 7 0 0 0 1-1 8 8 0 0 0 5-3c6-8 3-27 3-27v-1h13l11 8c2 0 13-3 19 1l2 1c7 5 19 12 22 26l8 38-6 5-13 1c0 1-1 5-10 8-11 4-65 17-66 17zm-15-6l15 6 66-17c11-3 9-8 9-8v-1h1l12-1 6-4-8-38c-2-13-14-21-21-25l-2-1c-6-4-19-1-19-1l-11-9-12 1c1 3 3 20-3 28a9 9 0 0 1-6 3c-13 2-21-25-22-29-12 3-19 17-19 17h-1s-14 7-17 20 2 30 2 30h-1a38 38 0 0 0-5 9c-1 3 1 6 3 9l1 3c2 4 8 7 17 9 8 2 15-1 15-1z"/><path class="cls-4" d="M31 270s14 4 21 2 16 4 16 4l-3 6s-10 3-14 3-14-4-20-15zM161 187s14-25 31-20 0 14 0 14 1-4 10 0 16 9 9 16a41 41 0 0 1-22 13s14 37-5 42c0 0-15 6-21-12s-2-53-2-53zM30 110s-7-1-8 6 2 22 9 24 11-2 11-2 9 9 12 18l11 31c2 5 12 17 12 17s9 10 13-5 1-26 1-26 17-2 25-5 24-22 26-36 1-31 1-31-7-14-17-23-26-10-26-10-15 17-25 23-29 20-31 27-14-8-14-8z"/><path class="cls-5" d="M68 276s26-3 34-5l36-12 4 7s8 5-5 15-13 11-26 15-24 7-31 3-12-23-12-23z"/><path class="cls-2" d="M89 302a19 19 0 0 1-10-3c-7-4-11-22-12-23h1l34-5 36-12 4 7a6 6 0 0 1 3 5c0 3-3 6-7 10l-6 4c-7 6-10 8-21 12-9 3-16 5-22 5zm-21-25c1 3 6 18 12 21s16 3 31-2c11-4 13-6 20-11l6-5c5-3 7-7 7-9a5 5 0 0 0-3-4l-3-7-36 11-34 6z"/><path class="cls-5" d="M54 220c4 6 11 10 18 8a19 19 0 0 0 10-6 17 17 0 0 0 3-5l1-3c2 0 4 3 5 4a19 19 0 0 0 5 3c4 1 8 1 11-1 7-2 11-9 10-15 0-2-3-2-3 0-1 3-2 6-6 8s-7 1-10-1c-5-3-8-8-14-8a9 9 0 0 0-7 4l-2 8c-4 6-12 7-17 2-2-1-5 0-4 2z"/><path class="cls-5" d="M77 211c1 10 4 19 7 29l7 28c1 6 10 4 9-2l-8-29c-3-9-5-19-9-27-1-3-6-2-6 1zM156 215c-3 5-4 11-4 16s0 11 4 15c1 2 4 1 4-2l-2-13 2-14a2 2 0 0 0-4-2zM135 224a89 89 0 0 1 9 12l5 14c1 4 7 2 6-2a60 60 0 0 0-18-26 2 2 0 0 0-2 2zM51 269c-3-5-3-10-3-15s1-12-2-16c-1-3-4-2-5 0v11l1 12c0 5 1 10 7 11l2-3z"/><path class="cls-5" d="M28 259c4 8 11 12 20 12 5 0 5-8 0-8-6 0-11-3-15-6-2-2-6 0-5 2zM53 177l6 10c1 3 3 6 6 8 1 2 4 0 4-2l-5-9-7-10c-1-2-6 0-4 3zM94 173a46 46 0 0 0-2 21c0 2 3 2 4 1a46 46 0 0 0 4-22 3 3 0 0 0-6 0z"/><path class="cls-5" d="M95 178a29 29 0 0 1 4 0l5 1c1 0 2-3 1-4a9 9 0 0 0-6-2 11 11 0 0 0-2 0 11 11 0 0 0-4 1c-2 1-1 4 2 4z"/><path class="cls-3" d="M14 98c-2 7-1 13 3 19a4 4 0 0 0 7 0c2-3 3-8 0-11a7 7 0 0 0-9-3c-8 3-4 15 4 13 3-1 1-5-1-4-4 1-4-5 0-4a2 2 0 0 1 0 4l6 1a39 39 0 0 1-6-15c0-3-4-2-4 0z"/><path class="cls-6" d="M46 119c0-5 0-8 3-11l9-9a98 98 0 0 1 20-15c12-7 25-17 22-32 0-2-3-2-3 0-3 8-7 14-13 19-7 5-14 8-19 13l-19 18c-5 6-7 11-4 18 1 2 4 1 4-1z"/><path class="cls-6" d="M102 55c-5 12 10 19 18 23 11 5 16 15 23 24 2 2 4 0 4-2-2-10-7-20-15-27-8-6-21-7-25-18a3 3 0 0 0-5 0zM62 99a92 92 0 0 0 23-17c2-2 0-4-2-3L60 96a2 2 0 0 0 2 3zM45 115c-8-7-13-14-16-24l-4-16a163 163 0 0 1-2-19c0-2-4-3-4 0-2 6-3 14-3 20a53 53 0 0 0 4 19c4 11 11 21 22 24 2 1 4-3 2-4zM8 115c-2 11 4 22 12 29 7 7 22 14 27 1l-7 2c4 5 7 11 2 17-4 3-7 7-7 13 0 2 3 3 5 2l7-7a23 23 0 0 0 7-8c3-9-3-15-7-22-1-2-4-4-7-2-5 4-13-3-16-7-6-5-8-12-12-18-1-2-4-2-4 0zM141 131c1 8 0 15-5 21-2 3-6 4-8 8a9 9 0 0 0 3 11c7 5 18 0 25-3s16-10 14-18a3 3 0 0 0-5 0l-7 7-10 4a39 39 0 0 1-4 2h-6q-1 3 1 1l1-1a29 29 0 0 0 4-3c7-8 10-22 2-30-2-2-5-1-5 2z"/><path class="cls-7" d="M71 159l-1 2h-2l9 5a60 60 0 0 0 10 2 49 49 0 0 0 39-8c4-3 10-8 11-13a2 2 0 0 0-3-2l-6 6a35 35 0 0 1-7 5 37 37 0 0 1-15 5 75 75 0 0 1-20-1l-9-1c-3 0-5-2-8-1a2 2 0 0 0-1 1c-1 1 0 3 2 3 1 0 2-2 1-3zM23 128c-1 5 7 9 11 10h8a4 4 0 0 0 1-6 2 2 0 0 0-4 0c-2 2-6 0-8-1s-4-4-7-4a1 1 0 0 0-1 1zM28 116a79 79 0 0 0 20 14c2 1 5-1 4-4-2-5 4-12 7-16a65 65 0 0 1 13-11c9-5 18-9 25-16a34 34 0 0 0 5-5l2-3h3a50 50 0 0 1 13 9 53 53 0 0 1 10 11c3 4 4 10 7 13 2 2 4 0 4-1 0-6-4-12-7-16a59 59 0 0 0-12-13 56 56 0 0 0-15-9c-7-2-8 3-12 7-8 10-20 14-30 21a70 70 0 0 0-14 14c-4 5-7 11-5 17l5-3a113 113 0 0 1-20-12c-2-2-4 1-3 3zM72 170c3 7 8 13 12 20 2 4 7 2 7-2a42 42 0 0 0-2-17c-2-3-7-3-7 1a56 56 0 0 0 3 15c1 3 1 9 5 12a2 2 0 0 0 3-1c1-3-1-8-2-12l-2-14h-7a95 95 0 0 1 1 16l8-2c-4-7-9-15-16-20-2-1-5 2-4 4zM163 232c-6 4-2 9 2 13 5 5 10 9 18 8 7-2 10-8 10-15a54 54 0 0 0-1-11c0-4-1-9-4-13-2-3-8-3-8 2s2 9 3 13v13c-2 4-7 3-10 1-2-1-9-6-8-9a2 2 0 0 0-2-2zM180 208h11a27 27 0 0 0 13-5c3-3 7-6 8-9a5 5 0 0 0-6-8 2 2 0 0 0-2 2c0 4-7 8-10 10a78 78 0 0 1-7 4l-7 4a1 1 0 0 0 0 2zM180 189c6 3 15 1 19-4a3 3 0 0 0-3-4c-3 0-5 2-8 3l-7 2a2 2 0 0 0-1 3zM39 275l-2 2 4 3a24 24 0 0 0 7 3 15 15 0 0 0 12-1c4-2 3-8-2-8l-5-2-2 4 13 5c2 1 4-3 1-4l-12-5c-2-2-5 2-3 3l4 4 2-5c-5 3-11-2-16-2-3 0-5 2-4 4s3 1 3-1z"/><path class="cls-8" d="M30 26l-3 12a2 2 0 0 0 3 2l14-15-3-2a214 214 0 0 1-9 29c-1 2 1 3 3 3 4-1 6-5 8-9l11-14-4-2-15 28c-2 3 2 6 4 3a209 209 0 0 1 20-27l-4-3-15 36c-1 3 3 4 5 2l23-31-4-2q-8 20-13 39c-1 3 3 4 4 2q11-17 24-33l-4-2a185 185 0 0 1-18 41c-1 2 2 5 4 3l18-20c5-6 9-12 9-19 1-3-4-3-5 0-1 7-5 12-10 18L57 83l4 2a190 190 0 0 0 18-42c1-2-2-4-4-2Q62 57 51 75l4 1 14-38c1-3-3-4-5-2L41 66l4 3 15-36c1-3-3-5-5-3a199 199 0 0 0-20 28l4 3 15-29a2 2 0 0 0-4-2l-8 10-3 5-5 6 2 2a215 215 0 0 0 9-29c0-1-2-3-4-2L28 37l3 2 3-12a2 2 0 0 0-4-1zM93 7c10 5 19 10 27 18a60 60 0 0 1 9 12c3 5 4 10 5 16l5-3a63 63 0 0 0-15-14c-2-1-5 2-4 4a75 75 0 0 1 9 17l4-2-17-12c-2-2-5 2-3 3 7 6 14 12 19 20a2 2 0 0 0 3-2c-5-9-12-15-19-21l-3 4 17 12c2 1 5-1 4-3a92 92 0 0 0-10-19l-3 4a52 52 0 0 1 13 12c2 2 5 2 6 0 2-12-4-25-12-33-8-9-21-14-33-17-3 0-4 3-2 4zM3 129c0 14 4 33 17 41 2 1 4-1 2-3a41 41 0 0 1-10-16c-3-7-3-15-5-22-1-2-4-2-4 0z"/><path class="cls-9" d="M84 106l1 8c1 5-3 7-8 8l-5 1q2 2 1-1a14 14 0 0 1 1-4c1-3 4-9 9-7l-2-4a14 14 0 0 1-1 7l-4 5 2 2c-1-1 0-5 1-6a11 11 0 0 1 5-4l-5-2c1 3-1 6-4 9l6 4v-1a3 3 0 0 0-1-4 4 4 0 0 0-3 0c-5 2-1 9 3 6a15 15 0 0 0 5-16 3 3 0 0 0-5-2 17 17 0 0 0-8 10c-1 3-2 9 1 11 4 2 8-3 10-5a19 19 0 0 0 4-13 3 3 0 0 0-2-4c-7-1-12 3-15 9-2 4-6 13 0 15h9a16 16 0 0 0 8-4c5-5 1-11 1-18-1-2-3-3-4 0zM112 122c3-3 2-7 2-10s1-8 5-7 4 6 3 9a25 25 0 0 1-1 3 4 4 0 0 1 0 1c0 1 0 1 0 0l-8-3 2 7c4-5 2-11 4-17l-7 1a16 16 0 0 1 3 11l7-1a14 14 0 0 1 0-3v-1l1 2a2 2 0 0 0 3 0c2-2 2-4 1-7a7 7 0 0 0-6-3c-7 0-7 9-6 14 1 4 7 3 7-1a22 22 0 0 0-3-15 4 4 0 0 0-7 1 22 22 0 0 0-1 7l-1 6a4 4 0 0 0 1 6c4 2 8 4 12 3 3-1 4-4 5-6 2-6 3-14-3-18-4-3-10-3-14 1-2 2-3 5-2 8v10a2 2 0 0 0 3 2z"/><path class="cls-2" d="M72 127c-1-5-2-11 3-15 4-3 7-2 12-2a2 2 0 0 0 2-3c-4-7-14-4-18 0-6 6-7 15-3 22 1 2 4 1 4-2zM112 107a20 20 0 0 1 5-2 7 7 0 0 1 3 1l2 2c1 4-1 9 1 13a3 3 0 0 0 4 0c2-3 2-7 2-11 0-3-1-6-3-8-5-4-13-4-16 1-2 2 0 4 2 4z"/><path class="cls-5" d="M21 119v-1h1a7 7 0 0 1 1-1c-1 0 1-1 0 0a5 5 0 0 1 1-1c-1 0 0 0 0 0a4 4 0 0 0 4-2 5 5 0 0 0 0-3 4 4 0 0 0-2-3 9 9 0 0 0-9 3 7 7 0 0 0-1 9c1 2 4 1 5-1z"/><path class="cls-10" d="M49 24c6-9 17-13 27-16 12-3 23-3 34 3 21 11 33 34 36 57a104 104 0 0 1-1 39l4-1c-4-4-6-10-9-15a50 50 0 0 0-10-13 47 47 0 0 0-29-11c-2 0-3 3 0 4 10 3 20 5 28 13 7 8 9 18 17 25a3 3 0 0 0 4-1c6-25 3-53-10-75a76 76 0 0 0-27-27c-12-6-24-6-36-3s-27 7-31 19c-1 2 2 3 3 2z"/><path class="cls-10" d="M56 13C36 9 21 26 14 43c-6 19-5 41 4 58a57 57 0 0 0 25 24 3 3 0 0 0 4-2c1-7 7-13 12-17l22-16c11-8 28-21 24-37 0-3-4-2-4 0 0 17-18 28-30 37-10 8-28 18-29 33l4-3c-22-11-32-34-30-58 1-11 4-22 11-31s17-13 28-14c2-1 3-4 1-4z"/><path class="cls-10" d="M30 112c-4-3-10 1-11 5-1 6 0 12 3 16s6 10 11 12c5 1 10-2 11-7 0-2-2-3-3-2-2 2-4 5-7 3l-7-8c-1-3-4-7-3-11 0-4 3-4 6-5a2 2 0 0 0 0-3zM139 102c2 10 3 21 0 31a52 52 0 0 1-16 27 38 38 0 0 1-24 9c-10 0-18-4-28-6-1 0-3 2-1 3 7 7 20 9 29 9a43 43 0 0 0 28-10c19-15 22-42 16-64-1-2-4-1-4 1zM70 128c-3-7-3-14 2-20a11 11 0 0 1 8-4c3 0 5 4 9 3a2 2 0 0 0 2-2c0-4-7-6-10-6a16 16 0 0 0-12 5c-6 7-8 18-2 25 1 2 4 0 3-2z"/><path class="cls-10" d="M77 113l1 6a18 18 0 0 0 1 6 3 3 0 0 0 3 2 6 6 0 0 0 0-1c2 0 2-2 2-3-1-3 0-9-3-11a2 2 0 0 0-4 1zM109 104l2-1a14 14 0 0 1 6-3 7 7 0 0 1 9 4c3 6-1 13 0 19a2 2 0 0 0 3 0c3-2 4-8 4-12 1-4 0-9-3-12-6-7-19-6-23 3a2 2 0 0 0 1 2 2 2 0 0 0 1 1zM109 110v6c0 2 0 5 2 6a2 2 0 0 0 2 0c2-1 1-5 1-7s-1-5-3-6a2 2 0 0 0-2 1zM89 148c1 5 10 7 14 7 6 0 13-3 15-8 1-3-1-5-3-3-4 3-7 6-13 6a20 20 0 0 1-6-1l-6-2a1 1 0 0 0-1 1zM110 89a29 29 0 0 1 10-2 14 14 0 0 1 5 1c2 1 3 3 5 3a2 2 0 0 0 2-2c0-5-7-7-11-7-5-1-10 1-13 5a2 2 0 0 0 2 2zM76 93a36 36 0 0 1 7-1l7 1a2 2 0 0 0 2-3c-4-5-13-3-17 0-2 1 0 3 1 3zM42 141l13 23c4 8 5 17 9 24 0 2 3 1 3-1 0-8-4-17-8-25-3-8-7-17-14-23a2 2 0 0 0-3 2zM87 173l2 8 1 7a2 2 0 0 0 4 0c1-5 0-12-3-17a2 2 0 0 0-4 2zM17 91c-16 3-12 34 4 35 3 0 3-4 1-5-6-2-9-7-10-12-1-7 2-11 7-15 2-1 0-3-2-3z"/><path class="cls-10" d="M9 109c-10 8-10 24-8 35 1 12 8 27 22 30 2 0 3-3 1-4-11-5-17-15-18-27-2-11-1-22 6-31 1-2-2-4-3-3z"/><path class="cls-10" d="M10 167c2 4 3 9 1 14a2 2 0 0 0 2 3c6 1 13 2 19 1 6-2 11-6 15-11 4-4 8-9 9-14 1-4 1-11-4-11a2 2 0 0 0-2 1l1 5a12 12 0 0 1-2 5 35 35 0 0 1-7 11c-3 3-7 7-12 8-5 2-10 1-16 0l2 3c1-6 1-13-4-17-1-2-3 0-2 2zM124 165c3 11 17 13 27 10 9-3 23-11 22-22 0-1-2-2-3 0-5 7-11 14-19 17a25 25 0 0 1-13 1c-5-1-8-4-10-8-2-2-5-1-4 2z"/><path class="cls-10" d="M143 126l10 13 6 15a2 2 0 0 0 3 0c3-5 0-12-3-17a51 51 0 0 0-13-14c-2-1-4 1-3 3z"/><path class="cls-10" d="M160 148c3 4 8 5 13 5l-2-4a28 28 0 0 0-3 6l3 2 5-5a3 3 0 0 0-3-4c-3 0-7 0-10-2-2-2-4 0-3 2zM45 120c-2-9 3-18 7-26 1-2-1-4-2-2-6 6-13 20-9 30 1 2 4 0 4-2z"/><path class="cls-10" d="M40 74a36 36 0 0 0 4 50 2 2 0 0 0 3-2c-6-6-10-14-11-22a32 32 0 0 1 7-23c1-2-1-5-3-3zM139 83a121 121 0 0 1 4 20 2 2 0 0 0 3 0c1-7-1-15-4-21-1-2-4-2-3 1zM13 119c-3 7-6 16 0 23a2 2 0 0 0 3-2c-5-7-2-13 1-20 0-2-3-3-4-1z"/><path class="cls-10" d="M16 123c-1 9 0 18 6 25 1 1 3-1 2-2-3-8-5-14-4-23 0-2-4-2-4 0zM142 135l4 11c0 2 3 1 3-1 0-4-2-8-4-11-2-2-5-1-3 1zM140 144a25 25 0 0 0 3 5c1 1 3 0 3-1a25 25 0 0 0-4-6c-1-1-4 0-2 2zM135 151a33 33 0 0 0 6 6c2 1 3 0 2-2l-5-6a2 2 0 0 0-2-1 2 2 0 0 0-1 3zM44 142c-1 6-5 10-11 12a2 2 0 0 0 1 3 17 17 0 0 0 14-14c0-2-3-3-4-1zM55 14C52 9 48 3 42 1a2 2 0 0 0-2 3c6 3 8 8 12 12a2 2 0 0 0 3-2z"/><path class="cls-10" d="M54 15c3-6 7-9 12-12a2 2 0 0 0-2-3c-6 2-11 7-13 13-1 2 2 4 3 2zM27 53c-3 4-4 9-5 14a72 72 0 0 0-1 19c1 10 4 25 15 29 1 1 3-1 1-2-8-7-11-17-12-28s0-20 5-30c1-1-1-3-3-2zM59 171c-8 3-16 10-19 19s-1 20 5 27 16 9 24 7c7-3 11-12 10-19a2 2 0 0 0-3-1c-3 6-2 13-9 15s-16 0-19-6-5-15-3-22c3-8 9-13 16-16 2-1 1-5-2-4z"/><path class="cls-10" d="M64 186c1 9 8 20 17 21 9 2 16-11 13-18-1-2-4-1-3 1 1 7-6 16-13 12-5-4-9-11-11-17 0-2-4-1-3 1z"/><path class="cls-10" d="M88 203c3 14 22 17 30 5 4-6 5-15 2-22-2-7-9-14-17-14a2 2 0 0 0-1 4c5 4 11 5 13 11 3 6 2 12-1 17-2 5-6 8-12 7-5-1-8-5-10-10-1-2-4 0-4 2zM131 218l10 18c2 5 4 11 1 16-5 8-16 11-25 13l-27 6c-11 2-25 6-34-3-8-8-6-22-8-32 0-2-3-2-3 0-2 10-2 23 5 32 7 11 21 12 33 9l18-4 17-3c10-2 21-6 27-14 10-13-4-29-11-40-1-1-4 0-3 2zM163 191c1-7 4-13 11-17 5-3 13-5 19-3 3 1 4 4 1 6-3 4-8 4-13 5-2 0-1 3 0 3 6 3 15 0 18-5 3-4 3-10-2-13-7-4-17-2-23 2-8 4-15 12-14 22 0 2 3 2 3 0z"/><path class="cls-10" d="M199 183c4 2 11 3 12 9 1 3-2 7-4 9a30 30 0 0 1-13 7 27 27 0 0 1-8 1l-7-1a2 2 0 0 0-1 4c4 4 14 2 19 1a33 33 0 0 0 16-10c3-4 5-9 3-13-2-7-9-10-15-11-2-1-4 3-2 4z"/><path class="cls-10" d="M160 191l-4 33c0 10 2 21 10 28 9 7 20 7 27-3a25 25 0 0 0 4-16 106 106 0 0 0-5-21 2 2 0 0 0-4 0c-3 11 5 22 0 32s-16 7-22-1c-10-15 1-35-2-52h-4zM43 189c-5-3-12 3-15 6-5 5-7 11-8 18-3 13 0 29 8 41 4 6 10 11 18 13a3 3 0 0 0 3-3 12 12 0 0 0-1-5 2 2 0 0 0-3 0 12 12 0 0 0-2 5l4-3c-15-4-22-22-22-36-1-7 0-15 4-22a22 22 0 0 1 6-7l8-5a1 1 0 0 0 0-2z"/><path class="cls-10" d="M21 241c-6 9-3 20 5 27 7 6 20 11 29 5 2-2 1-5-2-4-8 2-16 2-23-4-8-5-10-14-6-22a2 2 0 0 0-3-2zM119 182a38 38 0 0 1 25 8 35 35 0 0 1 8 10l4 14c0 1 4 2 4 0 2-10-6-22-13-28a37 37 0 0 0-29-8c-2 1-1 4 1 4z"/><path class="cls-10" d="M165 248c-14-1-15-26-6-33 2-2 0-6-2-4-7 5-8 16-7 24s6 18 15 16c2-1 1-3 0-3z"/><path class="cls-10" d="M148 254a13 13 0 0 0 10-1c2-2 5-5 4-8a2 2 0 0 0-3-1l-4 4a11 11 0 0 1-6 2c-3 0-3 3-1 4zM85 204c-2 4-1 9 0 13a134 134 0 0 0 4 16l8 34c0 2 3 1 4-1 0-10-4-21-7-31l-5-17a62 62 0 0 1-1-7l-1-7a1 1 0 0 0-2 0z"/><path class="cls-2" d="M57 137c3-1 5 1 7 3"/><path class="cls-1" d="M58 138l-1-1c1 2 2 1 3 2a15 15 0 0 1 3 2c1 1 3 0 3-1-1-3-4-5-8-5a2 2 0 0 0-1 1l1-1a3 3 0 0 0-1 1 1 1 0 0 0 1 2z"/><path class="cls-2" d="M64 134a8 8 0 0 1 6 3"/><path class="cls-1" d="M64 136a7 7 0 0 1 3 1 15 15 0 0 0 3 1 2 2 0 0 0 2-2 6 6 0 0 0-4-3 9 9 0 0 0-4 0 1 1 0 0 0 0 3z"/><path class="cls-2" d="M129 129l3 3"/><path class="cls-1" d="M128 130a22 22 0 0 0 3 3c1 1 3-1 2-2a23 23 0 0 0-3-3 1 1 0 0 0-2 2z"/><path class="cls-2" d="M137 130a11 11 0 0 0-4-4"/><path class="cls-1" d="M138 130a13 13 0 0 0-4-5c-1-1-3 1-1 2a10 10 0 0 1 3 4c1 2 3 0 2-1z"/><path class="cls-10" d="M97 135a10 10 0 0 0 4 0 7 7 0 0 0 3-2 2 2 0 0 0-1-3 11 11 0 0 0-3 1 18 18 0 0 1-3 1 2 2 0 0 0-2 2 2 2 0 0 0 2 1zM67 276a24 24 0 0 0 9 22c6 5 14 6 22 5 16-1 35-9 43-23 5-7 5-16 0-23a2 2 0 0 0-3 2c2 6 3 12 0 18-4 6-9 10-15 14-12 7-30 12-42 5-8-4-10-12-11-20 0-2-3-1-3 0z"/><path class="cls-10" d="M70 281c2 4 9 4 13 5 5 0 11-2 16-4a1 1 0 0 0-1-3c-5 2-10 1-15 1h-6c-2 0-4-2-6-1a1 1 0 0 0-1 2zM72 288c6 7 18 8 27 6a2 2 0 0 0-1-3c-8 0-17 2-24-5a2 2 0 0 0-2 2zM137 261c-4 7-10 12-18 14-2 0-2 3 0 3 9-1 18-7 21-16a2 2 0 0 0-3-1z"/><path class="cls-10" d="M128 283c8-3 14-10 16-19 0-1-2-2-3-1l-5 10a26 26 0 0 1-9 7c-2 1-1 4 1 3zM69 190a13 13 0 0 1 5 0l5 2a2 2 0 0 0 1-2c-2-4-8-5-12-4-2 1-1 4 1 4zM88 191v-1l-1 1a10 10 0 0 1 3-2l4-1a2 2 0 0 0 0-3 10 10 0 0 0-6 1 6 6 0 0 0-2 2 4 4 0 0 0-1 1v1c0 2 2 2 3 0z"/><path class="cls-2" d="M165 108c1-3 2-10 6-13"/><path class="cls-1" d="M169 111l4-8a16 16 0 0 1 1-2l1-1a7 7 0 0 0 1-4 6 6 0 0 0-6-5c-8 0-11 11-10 17 1 4 7 6 9 3z"/><path class="cls-2" d="M165 110c3-4 8-6 13-7"/><path class="cls-1" d="M165 113c3 1 5-1 8-2l7-3c5-2 3-12-3-11a23 23 0 0 0-12 5c-3 3-6 10 0 11z"/><path class="cls-10" d="M29 270c4 14 26 23 38 12 2-1-1-5-3-3-10 7-27 2-31-10-1-3-5-2-4 1z"/></g></g></svg>