<svg xmlns="http://www.w3.org/2000/svg" viewBox="0 0 231 231"><defs><style>.cls-4{fill:#fff}.cls-6{fill:#f9c956}.cls-8{fill:#ff8200}.cls-11{fill:#e98b38}.cls-12{fill:#c3d2f5}.cls-14{fill:#ffe050}.cls-15{fill:#56b746}.cls-16{fill:#7191e4}.cls-17{fill:#221714}</style></defs><g id="Layer_2" data-name="Layer 2"><g id="圖"><path d="M3 118S7 4 108 4s119 82 119 112-32 111-104 113S11 183 3 118z" fill="#cdada4"/><path d="M108 5s1 46 22 69 78 27 89 8c-6-44-69-88-111-77z" fill="#e7d4cf"/><path d="M56 22s-5 161 154 153c0 0-28 52-72 51s-58-2-78-15-41-33-48-53-13-63-4-81 41-51 48-55z" fill="#ae857b"/><path class="cls-4" d="M8 86h17l8-26 10 26h41s3-16-1-22-10-15-15-17-21-8-25-8l-12-1z"/><path d="M33 60l-9 34s4 9 10 9 11-2 10-9-11-34-11-34z" fill="#c73f69"/><path class="cls-6" d="M19 86l-1 86 9 14 1-5 2-54s0-7 4-6l5 1 2 77 11 8V87l-9-1a6 6 0 0 1 1 8c-2 5-3 8-10 9s-6-1-9-6 0-11 0-11zM84 71c5 2 12 1 18 1h39c6 0 12 0 18-2a2 2 0 0 0 0-3l-18-1H84a3 3 0 0 0 0 5zM150 162l-89 2s0 6 8 16 43 25 49 25 61 0 68-3 25-30 25-30l7-12z"/><path d="M89 116s0-17 3-23 9-15 13-16 2 9 2 12l-5 20-1 2-2 5s1 3 2 2l5-1c-2-2-4-4-3-5 0 0 8-4 12-4 10-1 15-3 20 2a62 62 0 0 1 7 9s-5 9-9 10l-5 2 2 2-4 4 2 25-11 1-2-26-10-4 1-3h-4l-1 3s5 7 6 13l3 16-6 1s-8-11-9-15l-3-14s-7-2-10-5c0 0-10 1-15-2a20 20 0 0 1-6-6s9-4 13-4l10 1z" fill="#bfead0"/><path class="cls-8" d="M128 162s7-9 7-15-7-16-7-16 9-4 12-8 6-15 5-17 4 5 14 1 23-11 25-14l13 18c4 4 16 7 17 8s-2 9-2 14 4 10 4 10-6 7-6 13v5l-18 1c1 0 11-6 11-13s0-17-5-21-9-9-14-11-14-3-19-1-13 5-15 10-7 12-6 17 0 11 2 13a62 62 0 0 1 3 7z"/><path d="M150 162a26 26 0 0 1-5-25c5-15 15-20 18-20s15-3 21 0 12 5 14 11 6 9 5 15-1 11-5 15-6 4-6 4z" fill="#ffdf47"/><path d="M175 129l8 2-10 13s12 0 14 4l-10 12-10 1 6-10-17-3 2-4 10-10z" fill="#fff0a2"/><path class="cls-11" d="M63 176h144a1 1 0 0 0 0-3l-8-1h-64l-36 1-18-1-18 1c-2 0-2 3 0 3zM127 204l29-6a148 148 0 0 1 16-2c4 0 10-1 13 2l-2-3v1l-1-3 1-1 2-2-8 1a284 284 0 0 1-24 2l-15 1a41 41 0 0 0-8 0c-3 1-4 3-6 5a2 2 0 0 0 0 3l4 2a10 10 0 0 0 5 0h10l20-1 20-2 8-2a8 8 0 0 0 3-9c-2-7-10-8-16-8a105 105 0 0 0-21 2 73 73 0 0 0-19 6c-5 3-10 6-13 12a1 1 0 0 0 2 2zM86 192l10 5c2 1 6 4 9 3 2-1 3-3 2-5-2-3-6-4-9-5a25 25 0 0 0-12-1 2 2 0 0 0 0 3zM84 72c2 3 8 3 11 3h30c5 0 10 0 14-2a1 1 0 0 0 0-2c-4-2-9-2-14-2H91s-9 1-7 3zM148 73l7 1c2 0 5 1 7-2a3 3 0 0 0 0-3c-2-3-5-3-8-2-2 0-5 0-7 3a3 3 0 0 0 1 3zM33 127a3 3 0 0 1 3-1l-1-2a269 269 0 0 0-2 35l1 18c0 5 0 12 2 17 1 3 6 3 6-1l-1-9v-8a474 474 0 0 1-2-52 2 2 0 0 0-1-2 5 5 0 0 0-7 4 2 2 0 0 0 2 1z"/><path class="cls-11" d="M32 125a200 200 0 0 0-2 32v32c0 5 7 4 7-1-2-10-1-21-2-32v-15-8-6l-2 1-1-1a2 2 0 0 0 4 0c2-3-4-6-6-2v64h7l-1-32a275 275 0 0 0-2-31l-2-1z"/><path class="cls-12" d="M26 60l-4 11-3 13 3-3c-5 0-10-1-14 1a3 3 0 0 0 1 5h13a3 3 0 0 0 3-2l2-13c1-4 2-8 1-12a1 1 0 0 0-2 0z"/><path class="cls-12" d="M24 86l1-2v-3a1 1 0 0 0-1 0 2 2 0 0 0-1 1 13 13 0 0 0-1 1l1 3a1 1 0 0 0 1 0zM45 86c6 2 13 1 19 0l20-2c3 0 2-6-1-6l-19 1c-6 1-13 1-19 3-2 0-3 4 0 4z"/><path class="cls-11" d="M20 87c-2 3-2 7-2 10v11 23l-1 23v10a30 30 0 0 0 2 12 2 2 0 0 0 4 0 28 28 0 0 0 2-11v-11-23-22l-1-11-1-11a2 2 0 0 0-3 0z"/><path class="cls-11" d="M23 88l-1 1a3 3 0 0 0 0 2 2 2 0 0 0 1 1 2 2 0 0 0 1 0c-1 0 0 0 0 0l1-1v1h0v-1s0 1 0 0a4 4 0 0 0 1-3 2 2 0 0 0-2-2 2 2 0 0 0-1 2zM43 97c-3 3-8 10-12 7s-5-8-10-10a1 1 0 0 0-2 1c0 3 2 6 4 9s4 5 8 6c6 1 14-7 13-13h-1z"/><path class="cls-6" d="M35 95l-1-3a3 3 0 0 1 1-1c0-1 0 0 0 0h-1v0s1 0 0 0a3 3 0 0 1 1 1l-1 1a1 1 0 0 1 1 0 6 6 0 0 0-1 0c1 0 1 0 0 0a1 1 0 0 0-2-1c-1 1 0 4 1 5a4 4 0 0 0 5-2c2-3 0-9-5-8-3 1-4 9 1 8 3 0 7-5 3-7a4 4 0 0 0-5 1 6 6 0 0 0 0 7 1 1 0 0 0 3-1z"/><path class="cls-11" d="M31 90c-1 2-1 4 1 5a4 4 0 0 0 2 1 3 3 0 0 0 1 0 2 2 0 0 0 2-1 2 2 0 0 0-2-2h1a3 3 0 0 0-2 0 3 3 0 0 1 0-2c0-2-3-3-3-1z"/><path class="cls-4" d="M49 89l-1 29v73l1 13a1 1 0 0 0 2 0c2-4 1-9 1-13v-15-29-28l-1-30a1 1 0 0 0-2 0zM38 120c-3-2-7-1-10 3s-2 12-2 17v21 22h1l1-16 1-17v-17c0-4 1-14 9-11v-2zM33 89l2 2a1 1 0 1 0 2 1 3 3 0 0 0-4-4 1 1 0 0 0 0 1zM84 66l10 1h50l19-1a1 1 0 0 0 0-2H94c-4 0-7-1-10 1a1 1 0 0 0 0 1z"/><path class="cls-4" d="M143 66a5 5 0 0 0 0 3 2 2 0 0 0 1 2l1-2a4 4 0 0 0 0-2"/><path d="M142 64c-3 1-2 8 1 9a4 4 0 0 0 5-2c1-2 0-4-1-5a3 3 0 0 0-4 2v1l2-1s0 1 0 0v-1a3 3 0 0 0 0-1v-1a2 2 0 0 0-2-1z" fill="#2389af"/><path class="cls-14" d="M183 95c0 7 5 14 10 18 4 4 13 9 19 7a1 1 0 0 0 0-2c-2-2-5-2-8-3a28 28 0 0 1-9-5c-5-5-7-10-10-16l-2 1zM144 107c4 6 13 6 19 3 7-2 15-7 19-14a1 1 0 0 0-1 0l-16 10a27 27 0 0 1-10 3c-4 0-7-1-10-3a1 1 0 0 0-1 1z"/><path class="cls-8" d="M169 119l10 2a27 27 0 0 1 9 6c4 4 8 11 7 17a1 1 0 0 0 3 1c5-6 0-16-5-21-6-5-16-10-24-7a1 1 0 0 0 0 2z"/><path class="cls-15" d="M79 126a9 9 0 0 0 6 2 28 28 0 0 1 2-1l3 1c4 2 8-4 10-6l-4-1a20 20 0 0 1 2 9l3-2-4-3-1 4 1 1a2 2 0 0 0 4-1v-5l-3 1a8 8 0 0 1 0 4c0 1 3 2 3 0a9 9 0 0 0 1-5 2 2 0 0 0-2-1l-5 1-4-1c-3 1-2 6-3 9l3-3a14 14 0 0 1-7-4l-3 4 8 2c2 1 4-4 1-5l-7-2c-3 0-4 3-3 4a16 16 0 0 0 10 6l3-2c0-2-1-4 1-5l2 1a5 5 0 0 0 3-1s2 0 1-1l-1-1a8 8 0 0 1-1 3l3 1a16 16 0 0 0 0-5c0-2-3-2-3 0l-1 4 3-1a6 6 0 0 0-4-2c-2 0-3 3-1 4l4 2c1 1 3 0 3-1a37 37 0 0 0-1-10c0-2-3-2-4-1l-5 4c-2 2-1 0-3-1l-9 2a1 1 0 0 0 0 2z"/><path class="cls-15" d="M92 130l1 8a45 45 0 0 0 2 9 43 43 0 0 0 9 14c3 3 6-1 4-3a43 43 0 0 1-9-14l-2-7-2-7a1 1 0 0 0-3 0zM62 122c1 2 4 4 7 5l9 3c3-1 3-5 0-5l-9-2-7-2v1zM92 122c6-2 10-9 12-15a65 65 0 0 0 3-12V84h-1l-3 10-3 9c-2 7-5 12-10 16-1 1 0 4 2 3zM108 134a46 46 0 0 0 10 2 51 51 0 0 0 5-1h4c1 0 3-2 2-4l-3-3-1 4c7-2 13-7 16-13 1-3-3-5-4-2-2 5-7 10-13 11a2 2 0 0 0-1 3l3 3 3-3c-3-2-5-1-9-1a88 88 0 0 1-12-1c-2 0-3 5 0 5zM114 141c2 3 6 3 9 3l-4-4c0 4 2 7 3 10a62 62 0 0 1 2 10l4-1-5-11c-1-3-2-7-5-9a1 1 0 0 0-3 1l4 10 5 11c1 2 4 2 4-1l-2-20c0-2-2-3-4-3-3 0-5 0-7 2a2 2 0 0 0-1 2z"/><path class="cls-16" d="M92 95l12 6c3 0 4-3 1-4-4-2-8-4-12-3a1 1 0 0 0-1 1zM104 160l3-6c1-2 2-4 1-6a2 2 0 0 0-3 0l-3 5a12 12 0 0 0-1 6 2 2 0 0 0 3 1zM68 119a45 45 0 0 0 3 5l2 5c1 1 4 0 3-2a20 20 0 0 0-2-4 22 22 0 0 0-4-5l-2 1zM102 118v10c0 4 5 4 5 0 0-3 1-9-3-11a2 2 0 0 0-2 1z"/><path class="cls-17" d="M80 64c8 2 17 1 25 1l16 1h15c8 0 18 1 26-1a2 2 0 0 0 0-3c-8-3-17-2-26-2l-15 1h-16c-8 0-17-1-25 2a1 1 0 0 0 0 1z"/><path class="cls-17" d="M38 40c6 0 12 0 17 2a40 40 0 0 1 16 9 39 39 0 0 1 10 15c2 6 2 12 2 18 0 2 3 2 3 0 3-12-3-27-12-36-9-8-25-15-36-9v1z"/><path class="cls-17" d="M46 87l19 1c6 0 13 1 20-1a1 1 0 0 0 0-2c-7-2-14-1-20-1s-13 0-19 1a1 1 0 0 0 0 2zM8 87l8 1 9-1a1 1 0 0 0 0-2l-9-1-8 1a1 1 0 0 0 0 2zM86 74l7 2h51l19-1a2 2 0 0 0 0-3H94c-3 1-6 0-8 2z"/><path class="cls-17" d="M161 61v11a2 2 0 0 0 1 2 1 1 0 0 0 1 0 2 2 0 0 0 1-2V61c0-1-3-2-3 0zM44 55a68 68 0 0 0 4-7 1 1 0 0 0-2-1c-3 1-4 4-4 7l2 1zM54 61a24 24 0 0 1 2-3l2-3a1 1 0 0 0-1-1c-2 0-3 1-3 3a12 12 0 0 0-2 3c-1 2 2 3 2 1zM63 72a17 17 0 0 0 4-2l4-3a1 1 0 0 0-1-1l-5 1a16 16 0 0 0-3 4 1 1 0 0 0 1 1zM24 97l10-37h-2l7 16c1 5 4 11 4 16s-4 11-10 10c-5 0-8-6-7-11a1 1 0 0 0-2-1 11 11 0 0 0 5 13c5 3 11 1 14-2 4-5 2-12 0-18a188 188 0 0 0-9-24 1 1 0 0 0-3 0 480 480 0 0 0-7 38z"/><path class="cls-17" d="M32 96c-1-2-2-4-1-7a3 3 0 0 1 6 0c1 2 0 4-1 5-2 1-5 2-5-1a1 1 0 0 0-2 0c0 3 3 5 6 4 4 0 6-5 5-8-2-4-6-5-9-3-3 3-2 8 0 11a1 1 0 0 0 1-1zM142 73v-6a38 38 0 0 0-1-6h-1c-1 3-1 9 1 12h1zM146 61l1 11 1-1V61h-2zM60 164c22 2 45 1 67 0l58-1c9 0 19 0 28-2 2 0 1-3-1-2-8 2-17 1-25 1h-24l-68 2H60a1 1 0 0 0 0 2zM62 173h120l29-1a1 1 0 0 0 0-1l-25-1-31 1H91l-29 1a1 1 0 0 0 0 1z"/><path class="cls-17" d="M60 164c0 11 7 19 16 24 9 6 21 10 32 13 22 6 47 6 70 1a56 56 0 0 0 17-7c5-3 11-7 14-12 0-1-1-2-2-1l-11 9a51 51 0 0 1-14 7c-11 3-23 4-34 5-21 1-44-2-64-12-11-5-22-14-24-27zM213 150a22 22 0 0 0-3 9 1 1 0 0 0 2 1 22 22 0 0 0 3-9 1 1 0 0 0-2-1zM149 161c-6-10-6-22 0-31a28 28 0 0 1 50 4c2 5 3 11 2 16a14 14 0 0 1-5 7c-1 2-4 3-6 4a1 1 0 0 0 1 1c4 0 8-3 10-6 3-4 4-9 4-13a32 32 0 0 0-13-23c-15-12-39-6-47 11-4 10-4 22 3 30h1z"/><path class="cls-17" d="M130 160c8-7 6-22-1-30v2a25 25 0 0 0 16-27l-2 1c3 2 7 4 11 4a24 24 0 0 0 11-3c8-3 15-8 21-14h-2c6 12 15 26 30 26l-1-1-3 15a21 21 0 0 0 5 11v-2c-4 6-8 12-6 19a2 2 0 0 0 3-1c-1-6 2-11 6-16a2 2 0 0 0-1-2 18 18 0 0 1-4-12l2-12a1 1 0 0 0-1-1c-14-1-22-14-28-25a1 1 0 0 0-2 0 62 62 0 0 1-28 16l-12-3a1 1 0 0 0-2 1 23 23 0 0 1-14 24 1 1 0 0 0 0 2c7 8 6 19 1 28h1zM51 88l-1 14v43l1 58a1 1 0 0 0 1 0l1-58v-28-15l-1-14a1 1 0 0 0-1 0zM18 86l-1 11v35l1 47a1 1 0 0 0 2 0l1-47v-23-12l-1-11a1 1 0 0 0-2 0zM66 79h9a1 1 0 0 0 0-1l-9-1a1 1 0 0 0 0 2zM59 64a13 13 0 0 0 3-2 8 8 0 0 0 2-2l-1-1a8 8 0 0 0-2 2 13 13 0 0 0-2 2 1 1 0 0 0 0 1zM49 57a10 10 0 0 0 4-7 1 1 0 0 0-1 0 23 23 0 0 0-2 3l-2 3a1 1 0 0 0 1 1zM35 53v-5a18 18 0 0 0 0-5 1 1 0 0 0-2 0 18 18 0 0 0 0 5v5a1 1 0 0 0 2 0zM62 162c-3-4 0-9 5-10 2-1 5-1 6 2a7 7 0 0 1-2 8v1c4-1 5-5 4-8a6 6 0 0 0-7-5c-6 0-13 7-7 13l1-1z"/><path class="cls-17" d="M63 162a4 4 0 0 1 1-3 4 4 0 0 1 2-2l3 1a9 9 0 0 1 0 4h1a5 5 0 0 0 0-5l-4-2a6 6 0 0 0-4 3 4 4 0 0 0 1 4zM90 121c0-9 0-17 3-26 2-6 6-16 13-17l-1-1c3 8 1 17-1 25a81 81 0 0 1-5 11 18 18 0 0 1-3 5l-6 3v2c9 0 12-11 15-18 3-9 5-19 2-28a1 1 0 0 0-1-1c-8 1-12 10-15 16a54 54 0 0 0-2 29h1z"/><path class="cls-17" d="M101 133a1 1 0 0 0 1-1 10 10 0 0 0 2-7 29 29 0 0 0-2-5l-2-3h-1c-1 2 1 4 2 6 1 3 1 5-1 8a1 1 0 0 0 1 2zM86 117c-2 1-6 3-7 6-1 1-2 4-1 5a18 18 0 0 0 3 2l2 2a14 14 0 0 0 3 2c2 1 5 2 7 1v-1l-5-1-6-5c-2-2-3-3 0-6l5-4c1-1 0-2-1-1zM95 94l9 4a1 1 0 0 0 0-1c-2-3-6-4-9-5v2zM93 97l9 3 1-1-9-4-1 2z"/><path class="cls-17" d="M93 128c5 2 9 9 11 14a47 47 0 0 1 4 9l1 10a1 1 0 0 0 2 0c1-7-2-17-6-23-2-2-9-13-12-10z"/><path class="cls-17" d="M93 131a1 1 0 0 0 1-1l-2 1c-1-1 0 0-1 1a29 29 0 0 0 0 4 34 34 0 0 0 3 11 55 55 0 0 0 4 10c1 1 3 5 5 5a1 1 0 0 0 1 0l-1-1v-1l-3-5a67 67 0 0 1-4-10c-2-5-2-10-2-15a1 1 0 0 0-1-1 1 1 0 0 0-1 1l1 1z"/><path class="cls-17" d="M102 157l3-7 3-6a1 1 0 0 0-1-1c-2 1-3 4-4 6a21 21 0 0 0-2 8 1 1 0 0 0 1 0zM104 162a69 69 0 0 0 4-6l3-6a1 1 0 0 0-1-1c-2 1-3 4-4 6a71 71 0 0 0-3 6 1 1 0 0 0 1 1zM102 114c5 4 5 13 3 18h1c4-5 2-16-3-19-1-1-1 0-1 1zM104 112c6-3 13-5 20-5a18 18 0 0 1 10 4 18 18 0 0 1 4 4 7 7 0 0 0 2 3l1-1c1-3-3-6-6-8a19 19 0 0 0-9-4l-13 2c-4 1-8 2-10 5h1zM105 133l2 2a68 68 0 0 0 7 3c6 1 13 1 17-3 1-1 0-3-2-2-4 3-9 3-14 2l-4-1c-2 0-4 0-5-2a1 1 0 0 0-1 1zM158 144l11-10c2-2 4-5 7-5s6 2 8 3v-1a134 134 0 0 0-13 13 1 1 0 0 0 1 1c5 0 11 1 16 4l-1-2c-2 4-6 7-9 10a1 1 0 0 0 1 2 39 39 0 0 0 11-11 1 1 0 0 0-1-1c-5-4-11-3-17-3l1 1a134 134 0 0 1 12-13 1 1 0 0 0 0-1c-4-2-9-6-13-3a104 104 0 0 0-8 8l-7 8h1z"/><path class="cls-17" d="M158 142l-3 5a1 1 0 0 0 0 1 57 57 0 0 0 18 4v-2a34 34 0 0 0-5 7l1 1a70 70 0 0 0 5-6 1 1 0 0 0-1-2 70 70 0 0 1-18-3l1 1 3-5-1-1zM125 137v23l1 3a1 1 0 0 0 2 0v-1a1 1 0 0 0 0-1v-5l-1-7-1-12h-1zM115 140l1 10v9a1 1 0 0 0 2 0v-10a39 39 0 0 0-2-9 1 1 0 0 0-1 0zM84 118c-7-3-17 0-24 1a1 1 0 0 0 0 2l6 5a22 22 0 0 0 5 3 19 19 0 0 0 12 1c1 0 0-2-1-1a18 18 0 0 1-12-2c-4-2-6-6-9-8v2a105 105 0 0 1 11-2l12-1z"/><path class="cls-17" d="M67 120l5 9 1-1-5-9-1 1zM71 119l5 9h1l-5-10c-1-1-2 0-1 1zM103 131a25 25 0 0 0 3 0v-1a25 25 0 0 0-3 0v1zM102 119h3a5 5 0 0 0 2-1v-1h-6l1 2zM129 115l-1-1a1 1 0 0 0-1 1 11 11 0 0 1-7 7c-3 0-4-1-5-3a4 4 0 0 1 1-5c2 0 3 1 3 2a2 2 0 0 1 0 2c-1 0-2 1-1 2 4 0 3-5 2-6-3-3-7-1-7 3s2 7 6 7a11 11 0 0 0 6-3 12 12 0 0 0 2-3 27 27 0 0 1 2-3z"/><path class="cls-17" d="M131 116c-1 5-4 9-8 12a24 24 0 0 1-5 3 8 8 0 0 1-4 0h-2c-1-3 0-4 3-3l-1 1h1a1 1 0 0 0 1 0c2-1-1-4-3-3-4 1-5 5-1 7s9-1 13-4 7-7 7-13h-1zM69 156a14 14 0 0 0 0-2 13 13 0 0 1 0-2c0-1-2-2-2 0v4a1 1 0 0 0 2 0z"/><path class="cls-17" d="M68 151l9-10 8-8a1 1 0 0 0 0-1l-9 9a47 47 0 0 0-8 9v1zM108 109a208 208 0 0 0 19-18l8-9 5-5 3-4a1 1 0 0 0 0-1c-3 0-5 3-7 5l-9 11a483 483 0 0 1-19 21zM148 76l13 13 14 12c1 1 2-1 1-1l-14-13c-4-4-8-9-13-12l-1 1zM84 182a88 88 0 0 0 26 12 90 90 0 0 0 14 2c4 1 9 1 13-1 1 0 0-2-1-1h-14a86 86 0 0 1-13-2 92 92 0 0 1-25-11v1zM30 182v-33-16c0-3 0-8 2-9 2-2 5-1 7-1v-1a364 364 0 0 0 2 82c1 2 3 1 3-1a361 361 0 0 1-3-81 1 1 0 0 0-1-1c-4 0-8-1-10 3-2 1-1 3-1 5l-1 11v42a1 1 0 0 0 2 0z"/><path class="cls-17" d="M60 164c0 11 8 21 16 27 9 7 21 11 32 14a134 134 0 0 0 37 4l20-2c7-1 14-1 19-5v-3c-6-2-12 0-17 1l-19 2a135 135 0 0 1-36-1c-11-2-22-6-31-12a46 46 0 0 1-12-11c-4-4-5-9-8-14h-1zM71 201a11 11 0 0 0 5 7c2 1 6 2 8 1a1 1 0 0 0 0-2 10 10 0 0 0-3 0 9 9 0 0 1-8-6c0-2-2-1-2 0zM79 201l11 2a1 1 0 0 0 0-1c-3-2-8-2-11-2v1z"/><path class="cls-17" d="M224 115c0 45-29 87-72 102-43 16-91 2-121-33S-1 98 22 59C46 20 92 0 137 9c44 9 78 45 85 89a110 110 0 0 1 2 17c0 5 7 5 7 0-1-48-31-92-76-108S57 5 26 42s-35 91-10 133c26 41 75 63 122 53 47-9 84-48 91-95a123 123 0 0 0 2-18c0-4-7-4-7 0z"/></g></g></svg>