<svg xmlns="http://www.w3.org/2000/svg" viewBox="0 0 231 231"><defs><style>.cls-2{fill:#221714}.cls-5{fill:#e1fafc}.cls-7{fill:#fff}.cls-8{fill:#ff4a59}.cls-9{fill:#ffeb82}.cls-10{fill:#ae857b}.cls-11{fill:#ffe9a1}.cls-12{fill:#bbac77}.cls-13{fill:#865445}.cls-14{fill:#f4eae6}.cls-17{fill:#00b26e}.cls-18{fill:#4271d6}.cls-19{fill:#ffc28e}.cls-20{fill:#e7d4cf}.cls-21{fill:#ff9f36}</style></defs><g id="Layer_2" data-name="Layer 2"><g id="圖"><path d="M3 117C3 51 60 4 112 4s116 40 116 106-54 119-109 119S3 189 3 117z" fill="#c2d9e5"/><path class="cls-2" d="M119 229C62 229 3 187 3 117a114 114 0 0 1 35-82C59 15 86 3 112 3c27 0 56 11 78 29 25 20 38 48 38 78a123 123 0 0 1-34 84c-21 22-48 35-75 35zM112 4C61 4 4 51 4 117c0 70 58 111 115 111s109-56 109-118C228 47 168 4 112 4z"/><path d="M116 78c-30 0-106 25-106 77 0 0 10 33 31 45s30 28 72 28 71-22 84-36 16-13 23-36-33-78-104-78z" fill="#8fb9d1"/><path d="M77 64l10-37 54 7-20 21 19-5 11 2-11 11c-2 3-6 16-2 22a99 99 0 0 0 9 12l-7 10-18 15c-2 1-19 10-21 13s3-39 3-39l-19 3s6-13 4-20-12-15-12-15z" fill="#f9c956"/><path class="cls-5" d="M101 135c-1 0-2 0 0-20l3-18-19 3v-1s6-13 4-19-12-16-12-16l10-37 55 7-20 20 18-5c4 0 10 3 11 3v1s-9 7-10 10c-2 3-7 16-3 22a99 99 0 0 0 10 12l-8 10-18 16-6 3-15 9zm3-39c-1 14-4 36-3 39l15-10 6-3 18-15 7-10a98 98 0 0 1-9-11c-4-7 0-20 2-23l10-11-10-2-19 5-1 1 21-22-54-7-10 37c2 1 10 9 12 15 2 7-2 17-3 20z"/><path d="M81 66l13-29 32 2v2l-19 22 30-5 5 2a105 105 0 0 0-4 11 40 40 0 0 0-1 13l2 5s-24 34-32 37 0-2 0-2l8-36-26 2s2-19-8-24z" fill="#ffe050"/><path class="cls-5" d="M103 127h-1l4-3 8-36-26 2c0-1 2-19-7-23v-1l13-29 33 2-1 3-18 21 29-5 5 1v1a109 109 0 0 0-3 11 40 40 0 0 0-1 13l1 4v1c-1 1-24 34-32 37a15 15 0 0 1-4 1zm12-40l-8 38-3 1h2c8-3 31-35 32-37l-1-5a40 40 0 0 1 1-13 107 107 0 0 1 3-11 11 11 0 0 0-4-2l-30 6h-1l19-23 1-1-32-3-12 29c8 4 7 20 7 23z"/><path class="cls-7" d="M43 111s-18-10-17-24 14-28 28-27 30 0 32 16 5 18-6 30c-3 4-21 11-28 10l-4 8z"/><path class="cls-5" d="M48 125l-6-13c-1-1-18-12-17-25 1-15 15-28 29-28 14 1 31 1 32 17l2 7c1 9 2 13-7 23-4 4-22 11-29 10zm5-65c-13 0-26 13-27 27-1 13 17 24 17 24l5 12 4-8c7 1 25-6 28-10 9-9 8-13 7-22l-1-7c-2-15-19-16-32-16h-1z"/><path class="cls-7" d="M162 103s-21-5-24-18 5-31 18-35 29-9 36 5 10 16 4 31c-2 4-17 17-24 18l-1 9z"/><path class="cls-5" d="M171 113l-9-10c-2 0-21-5-24-18-4-14 5-31 18-35s30-9 36 5l4 7c4 8 6 12 0 24-2 5-17 17-23 18zm5-67c-6 0-13 3-20 5-12 3-21 20-18 34 4 13 24 17 24 17l9 10 1-8c7-2 22-14 24-19 5-11 3-14-1-23l-3-7c-4-6-9-9-15-9z"/><path class="cls-8" d="M68 79l-3-2 6-7 4 1-4 26 2 4H61l3-3 4-19z"/><path class="cls-5" d="M74 102l-14-1 4-3 4-19-4-2 7-7h5l-5 27zm-12-1h11l-3-4 5-26h-4l-5 6 3 2-4 19z"/><path class="cls-8" d="M47 80l1-6 7 1-1 7 8 1-2 8-7-1-2 9-7-1 2-8-8-2 3-7 6-1z"/><path class="cls-5" d="M51 99l-7-1 1-8-7-2 2-7 6-1 2-6 7 1-1 7 8 1-2 8h-7zm-7-1h7l2-8 6 1 2-7-8-2 1-7h-5l-2 6h-6l-2 7 7 1z"/><path class="cls-8" d="M176 65l-4-1 4-8 4-1 3 26 4 3-11 4 2-4-2-19z"/><path class="cls-5" d="M175 88l2-4-2-19-3-1 3-9 5-1 4 27 4 4zm-2-24h3l2 20-2 3 11-3-4-3-4-26-3 1z"/><path class="cls-8" d="M156 73v-7l6-1 1 7 8-1 1 8-7 1 1 9-7 1-1-8h-8l1-7 5-2z"/><path class="cls-5" d="M159 91l-1-9-8 1v-8l6-3-1-6 7-2 2 7 7-1 1 9-6 1v9zm-1-10l1 9 6-2v-8l6-2v-7l-8 1-1-7-6 1v7l-5 2v7z"/><path class="cls-7" d="M6 96s5-5 10-4 11 2 13 6 8 10 8 10 1 3-1 7-4 8-9 10l-10 4-4 12-4-9-5-2z"/><path class="cls-5" d="M13 142l-5-10-4-1 2-35v-1s5-4 10-4c6 1 11 3 13 7s8 9 8 9v1s1 3-1 7v1c-2 4-4 8-9 10l-9 3zm-8-12l4 1 4 9 4-12 9-3c5-2 7-5 9-9v-1c2-4 2-7 1-7l-8-10c-1-3-6-5-12-6-4 0-9 3-10 4z"/><path class="cls-7" d="M208 109l-6 3s-8 0-10-3-4-6-3-10l5-12 4-8s6-2 11-1 9 1 11 3l6 13v11l-7 4c-2 1-4 8-4 8z"/><path class="cls-5" d="M215 117l-7-7-6 2c-1 0-8 0-10-3-3-3-4-7-4-10l6-12 4-8 11-2c4 1 9 2 11 4l6 13v12l-7 3-4 8zm-6-8l6 7c0-2 2-6 4-7l7-4V94l-6-13c-3-2-7-2-11-3l-11 1c0 1-1 6-3 8s-6 8-6 12l3 10c2 2 9 2 10 2z"/><path class="cls-8" d="M9 105c-2-2-3 0-3 1-2 4-1 8-1 12a3 3 0 0 0 2 3 2 2 0 0 0 2-1 3 3 0 0 0 1-2v-7l-1-5a1 1 0 0 0 0-1z"/><path class="cls-8" d="M3 114l4 1a11 11 0 0 0 5-1c4-3 1-8-3-6a17 17 0 0 0-1 2l-3 1c-1 0-2 1-2 3zM16 103c2 0 3-1 4-3l-3-1 2 19 1 1a6 6 0 0 1 1-2l-3-1c0 3 2 4 5 4a1 1 0 0 0 1-2 5 5 0 0 0-2-2 1 1 0 0 0-2 1 5 5 0 0 1 2 2v-2h-1c1-2-2-3-2-1l-2 4a2 2 0 0 0 1 1c3 1 4-2 4-4l-1-18a2 2 0 0 0-3-1c-1 2-3 3-2 5zM199 98a13 13 0 0 0 9-1c2-1 1-5-1-4l1 3v-1a1 1 0 0 0-1-2 2 2 0 0 0-1 3l-1-2v-1 1h-2a33 33 0 0 0-4 1 2 2 0 0 0 0 3z"/><path class="cls-8" d="M201 88c-1 2 1 5 1 8 1 2 0 6 2 8 1 2 3 1 3-1a12 12 0 0 1 2-8c1-1-1-3-2-3l-3 1a5 5 0 0 1-2-2 1 1 0 0 0-1 0v1a1 1 0 0 0-1 1c1 4 5 4 8 3l-2-3a15 15 0 0 0-3 10l4-1-1-4a32 32 0 0 0-1-5c0-2-1-5-3-5zM213 90l3-4h-2c0 2 3 16 1 16l1 3 5-2c2-1 1-3 0-2l-6 1c-2 0-1 3 1 3 3-1 3-3 3-6l-2-14a2 2 0 0 0-3 0c-1 2-2 3-1 5zM100 153c3 0 6-3 8-4s5-4 6-6h-4c1 4 5 4 8 7a2 2 0 0 0 3-2c0-4-5-3-6-6l-2 2a11 11 0 0 1 4 2 1 1 0 0 0 2-2 10 10 0 0 0-5-3c-2 0-3 1-2 2 1 3 5 4 6 6l3-1a11 11 0 0 0-2-3l-5-3a2 2 0 0 0-4-2l-7 6c-2 2-4 3-4 6a1 1 0 0 0 1 1z"/><path class="cls-9" d="M62 17s1 16-1 20-7 12-11 13-14 7-19 4a23 23 0 0 1-7-5z"/><path class="cls-10" d="M216 159s-2 1-2-10-1-19-5-24-22-12-30-2c0 0-15-7-19-7s-27 8-29 8-7 12-8 16-2 21 0 25l1 3s5-19 13-24a40 40 0 0 1 14-5s3 20 19 33 23 5 23 5l2-14 4 6 9 4 8-13z"/><path class="cls-2" d="M187 179c-4 0-9-1-17-7a53 53 0 0 1-19-32 41 41 0 0 0-14 5c-7 4-13 23-13 23v1l-2-4c-1-4 0-21 1-25 0-2 4-15 7-16l7-2c8-3 20-7 23-6 4 0 17 5 19 6 2-3 6-4 11-4 8 0 17 4 19 7 4 5 6 13 6 24v9h1v2l-7 13h-1s-7-2-9-4l-3-5-2 13s-2 2-7 2zm-36-40c0 1 3 20 19 32s22 6 23 5l2-14 1 1 3 6c1 2 8 3 9 3l8-12-1-1-1-11c1-10-1-18-5-22-3-3-11-8-19-8-5 0-8 2-11 5 0 0-15-7-20-7l-21 6-7 3c-3 0-6 10-8 15v24l1 3c1-4 6-19 13-23a41 41 0 0 1 14-5z"/><path class="cls-10" d="M18 169l4-8s-3-17 5-24 5-12 23-4c0 0 8-7 16-8s26 4 30 15 5 17 4 23c0 0-9-11-17-13s-13-3-18 2c0 0-6-5-14 1s-15 17-6 34l-4 1-4 6z"/><path class="cls-2" d="M37 194l-19-25 3-8c0-1-2-18 5-24a35 35 0 0 0 4-4c4-4 6-7 20 0 2-1 9-8 16-8 9 0 27 4 30 15l2 5c2 8 3 13 2 18v1l-1-1s-8-11-16-12h-1c-7-2-13-3-17 1v1-1c-1 0-6-4-13 1-9 6-15 18-6 34v1h-5zm-18-25l18 24 3-6h5c-9-16-3-28 6-35 7-5 13-1 14 0 4-5 10-4 17-2h1c7 2 15 10 16 12 1-4 0-9-2-16l-2-6c-3-11-21-15-29-14-8 0-15 7-15 7l-1 1c-14-7-16-5-19 0a34 34 0 0 1-4 4c-7 6-5 23-5 23z"/><path class="cls-11" d="M37 194l4-6 4-1s-9-6-2-24 22-11 22-11 5-4 10-3 16 4 25 14c0 0-5 0-1 19 0 0 2 20-5 24s-19 12-25 11-32-23-32-23zM124 168s4-15 8-18 11-11 17-10c0 0 4 14 13 23a120 120 0 0 0 16 14l15 2s5 1 5 7-16 20-16 20l-21 9s-12 2-16 0l-12-9c-3-2-8-9-8-15s2-8 1-12l-2-11zM106 195s-1-10 4-10 5 8 5 8 6 0 6 2 3 5 1 8-7 8-9 8-7-16-7-16zM118 227s-2-8 0-11 6-5 9-5 9 2 11 7a15 15 0 0 1 0 8z"/><path class="cls-12" d="M48 185c-4-5-3-13-1-19 2-5 8-12 14-9 3 1 6-4 3-5-9-4-17 3-21 10a25 25 0 0 0-3 13c1 4 2 10 5 12 1 2 4 0 3-2z"/><path class="cls-12" d="M63 155c3 2 7-1 10-1a19 19 0 0 1 12 3 35 35 0 0 1 6 4c1 1 2 3 4 3s3 0 3-2c0-3-5-6-7-7a27 27 0 0 0-10-5 20 20 0 0 0-11 0c-2 1-7 3-7 5zM41 188c-1 2-4 6-1 8a1 1 0 0 0 1 0l2-2a22 22 0 0 1 2-4c1-2-2-4-4-2zM97 200l-6 4a67 67 0 0 1-8 4 38 38 0 0 1-9 3H63v1c6 5 15 3 21 0 4-1 15-7 13-12zM119 197c1 2 1 4-1 6-1 1-4 4-5 3-2-2-4 0-3 2 2 5 8 0 10-2 2-3 4-8 0-10a1 1 0 0 0-1 1zM119 224a11 11 0 0 0 8 1l8-2c2 0 4 2 6 1s2-4 2-6l-3 2c1 0 2 1 1 2a2 2 0 0 0 1 2h1a2 2 0 0 0 2 0c2-3 0-6-3-8a2 2 0 0 0-3 2v2h1l-2-1a10 10 0 0 0-6-1l-6 2-7 1v3zM136 207zM136 207l4 3 3 2a44 44 0 0 0 7 2 41 41 0 0 0 16 1c5-1 10-3 13-7 3-2 7-8 4-11a2 2 0 0 0-2 0c-3 1-4 5-6 7-3 3-8 5-12 5a50 50 0 0 1-13 1 41 41 0 0 1-7-1l-7-2zM185 196a1 1 0 0 0 0-1 1 1 0 0 0 0 1z"/><path class="cls-12" d="M184 192c-2 2-2 4-2 6a3 3 0 0 0 3 3 3 3 0 0 0 3-2 3 3 0 0 0 0-1 5 5 0 0 0 2 0 5 5 0 0 0 4-5 1 1 0 0 0-1-1 52 52 0 0 0-6 1c-2 0-4 2-4 5l1-2h1l2 2c0-2 0-5-2-6a1 1 0 0 0-1 0zM149 142c-2 4 0 9 2 13a46 46 0 0 0 8 13 45 45 0 0 0 12 10l4 2 3 5 4 7h1c1-4-2-11-5-15l-6-3a40 40 0 0 1-7-5 43 43 0 0 1-9-13 51 51 0 0 1-4-8l-2-6h-1z"/><path class="cls-12" d="M126 169c2-2 2-5 3-7a31 31 0 0 1 5-7c4-5 10-9 16-9a2 2 0 0 0 2-1c1-4-3-7-6-4a2 2 0 0 0-1 2h1a1 1 0 0 0 1 1h1l2-2c-7 0-14 5-18 10-3 4-8 12-6 17z"/><path class="cls-13" d="M150 136c-1 5 2 11 4 15a63 63 0 0 0 9 14 41 41 0 0 0 28 14c4 0 5-6 1-7a43 43 0 0 1-23-13 55 55 0 0 1-9-12c-2-3-4-9-7-12l-3 1z"/><path class="cls-13" d="M125 165c2-2 2-5 2-7 1-4 4-7 7-9 4-5 10-8 16-8 4 0 4-6 0-5a28 28 0 0 0-19 8 30 30 0 0 0-6 9l-1 11 1 1zM197 141c-1 4 1 7 1 11a52 52 0 0 1-1 10c-1 9 7 10 14 10a4 4 0 0 0 3-2h1a3 3 0 0 0 0-3c-2-3-5-2-9-3-2 0-1-1-1-3a22 22 0 0 0 0-5c0-5-2-13-7-16a1 1 0 0 0-1 1z"/><path class="cls-13" d="M182 126c6 1 10 3 14 8 3 4 1 10 2 15a1 1 0 0 0 2 1c6-6 7-14 1-21-5-6-13-11-20-7a2 2 0 0 0 1 4zM44 187l-4-6-5-6a27 27 0 0 1-4-7l-1-3-1-4c-1-3-5-3-6 0a13 13 0 0 0 0 9 26 26 0 0 0 5 8 28 28 0 0 0 7 7c2 1 5 3 8 3a1 1 0 0 0 1-1z"/><path class="cls-13" d="M20 165c-1 5 2 10 4 14a42 42 0 0 0 9 12c3 2 7-2 4-4a43 43 0 0 1-9-10 44 44 0 0 1-3-6l-2-6h-3zM43 183l-1-5v-6a38 38 0 0 1 2-12c2-4 4-8 8-9h11c2 0 4-2 2-4-3-4-11-2-15-1-5 2-8 6-10 11a38 38 0 0 0-3 18c0 3 1 10 6 10a1 1 0 0 0 0-2z"/><path class="cls-13" d="M63 152l9-4a19 19 0 0 1 10 1 29 29 0 0 1 10 6c2 2 4 6 7 7a1 1 0 0 0 2 0c0-4-4-8-6-11a34 34 0 0 0-12-7 21 21 0 0 0-13-1c-3 1-8 4-8 7a1 1 0 0 0 1 2z"/><path class="cls-14" d="M122 159l4-19c2-6 6-10 12-13a45 45 0 0 1 19-4 23 23 0 0 1 9 3c3 1 5 3 8 3 1 1 3-1 2-2-4-5-12-8-18-9-7 0-15 2-22 5a26 26 0 0 0-12 14c-3 7-5 15-3 22h1z"/><path class="cls-14" d="M159 138a1 1 0 0 0 1 0c0-2-3-2-2 0 2 6 8 12 13 17a2 2 0 0 0 3-2 90 90 0 0 1-1-14l-4 1 9 14c1 2 3 0 3-2a23 23 0 0 1 0-11h-3c2 5 3 10 6 14 0 2 3 1 3-1l-1-13-3 1c2 2 2 5 3 8l3 7a2 2 0 0 0 3-1l-1-14c0-2-3-2-3 0a108 108 0 0 1 0 14h3l-3-10-3-6a2 2 0 0 0-2 1v13l3-1-5-13a2 2 0 0 0-3 0 29 29 0 0 0-1 13l4-1-8-14a2 2 0 0 0-4 1 75 75 0 0 0 1 15l4-2a85 85 0 0 1-8-8l-6-8-1 2zM51 135c5-1 9-4 14-4a26 26 0 0 1 15 3 28 28 0 0 1 10 10c3 4 4 9 5 14 1 1 3 2 3 0 1-5-1-11-4-16a32 32 0 0 0-12-13 30 30 0 0 0-18-3c-5 1-12 3-14 8a1 1 0 0 0 1 1zM46 143l-10 14h2v-14a1 1 0 0 0-2-1 49 49 0 0 0-5 15h2a26 26 0 0 1-2-10c0-1-2-2-2 0-1 3-2 7-1 11l1-1-1-2v3h1c2-3 2-7 2-11h-2a28 28 0 0 0 2 11h2a46 46 0 0 1 5-15l-2-1v15a1 1 0 0 0 2 1l8-15zM184 121c11-4 22 3 26 13l2 16c0 4 0 8 4 11a1 1 0 0 0 1-1c-5-6-2-13-3-19a28 28 0 0 0-5-14c-6-8-16-11-25-6z"/><path class="cls-13" d="M179 178c2 4 4 8 3 12h3l-1-5-1-4-1 2a4 4 0 0 0 1 3 2 2 0 0 0 3-1 14 14 0 0 1 1-5c1-2-3-3-3-1a16 16 0 0 0-2 6l3-1 1-3a5 5 0 0 0-1-2 3 3 0 0 0-4-1l-1 4a83 83 0 0 0 2 9 2 2 0 0 0 3 0c1-5-1-10-4-14a1 1 0 0 0-2 1z"/><path d="M138 192c-1 3 4 5 6 6a26 26 0 0 0 12 3l-1-6c-2 1-5 3-8 3h-1l-1-2-2-4c-2-3-6 0-5 2 2 3 4 8 7 9s9-1 12-3c3-1 2-5-1-5a31 31 0 0 1-12-2c-1 0-5-3-6-1z" fill="#f871a0"/><path d="M69 216l26 9 8-9a55 55 0 0 0 8-6l-2-7-2-8-8 6a21 21 0 0 1-8 8c-5 2-10 6-15 6a26 26 0 0 0-7 1z" fill="#88d5a9"/><path class="cls-17" d="M96 201l-4 6a32 32 0 0 1-6 4 24 24 0 0 1-7 3l-7 1a1 1 0 0 0 0 2c4 5 12 1 17-2s11-8 10-14a1 1 0 0 0-3 0zM85 223c4 1 9-2 13-4l6-5c2-1 5-3 6-6a1 1 0 0 0-1-1c-3-1-3 0-5 2l-6 5a29 29 0 0 1-7 5l-6 2a1 1 0 0 0 0 2zM143 22c6 1 6-7 2-10-6-3-11 4-10 9 1 6 8 9 14 8a18 18 0 0 0 9-6c3-3 5-7 5-10 0-2-2-3-3-2-3 2-4 5-5 8-2 2-5 5-8 5-3 1-7-1-8-4 0-1 1-4 3-3 2 0 1 2 0 3a1 1 0 0 0 1 2zM162 34c1 3 3 3 5 1 2-1 2-6 0-7-2-3-5-2-8-1a7 7 0 0 0-4 7c1 8 10 8 16 6a19 19 0 0 0 7-7c2-2 4-6 3-9a2 2 0 0 0-3 0c-2 1-2 4-3 6a14 14 0 0 1-6 6c-3 1-7 2-9-1-1-2 1-5 3-4h1l-1 2a1 1 0 0 0-1 1z"/><path class="cls-9" d="M100 152l11-6 10 5s0 10 3 17c0 0 3 5 2 11s-2 11 0 15a90 90 0 0 0 10 16c3 3 10 5 13 6s6 0 6 0l-7 5a5 5 0 0 0-3-3 13 13 0 0 0-6-1c-2 0-4-3-6-4s-1-3-6-2-5 0-7 3-3 5-3 8l1 5-23-2 5-7 11-8s9 0 9-4 4-8 1-11-4-1-6-2c0 0 1-4-2-6s-4 0-6 2a12 12 0 0 0-1 6s1 2-2 2a21 21 0 0 0-5 3 21 21 0 0 0 2-9 67 67 0 0 0-1-11l-2-9-1-9 2 1s2-10 1-11z"/><path class="cls-18" d="M7 133c1 5 4 9 7 13 1 2 4 1 4-1 0-4 0-13 4-14l10-4a25 25 0 0 0 11-15h-4l7 16a2 2 0 0 0 4 0l7-9-2 1a48 48 0 0 0 20-5c5-3 13-8 15-14 0-1-1-2-3-2l-9 8a45 45 0 0 1-11 6 44 44 0 0 1-7 2l-6 1-3 3-5 7 4 1-8-17a2 2 0 0 0-4 0 21 21 0 0 1-15 16c-4 1-6 2-8 6a29 29 0 0 0-1 13l4-1-9-12a1 1 0 0 0-2 1z"/><path class="cls-18" d="M84 103c1 3 5 3 8 2 4 0 7 0 11-2l-5-3-2 20c-1 6-2 13-1 19 1 2 4 2 5 0l1-18c0-7 1-14 3-20 1-2-1-4-3-4-3 0-19 1-17 6z"/><path class="cls-18" d="M98 142c5-1 10-5 14-8l14-10 26-21c2-2-1-5-4-3l-26 22-14 9c-4 3-9 5-12 9l2 2z"/><path class="cls-18" d="M143 105a3 3 0 0 0 1 0 7 7 0 0 0 1-1l2-2 4-3a1 1 0 0 0-2-2c-1 0-9 7-7 8h1z"/><path class="cls-18" d="M146 100a14 14 0 0 0 5 5c2 2 5 2 7 3l5 5a26 26 0 0 0 7 5 3 3 0 0 0 4-2c0-2 0-8 2-10l6-3c3-1 8-4 7-8a1 1 0 0 0-1 0c-2-1-4 2-5 3a33 33 0 0 1-7 4l-5 4-2 9 3-2a21 21 0 0 1-6-4l-4-6c-2-2-5-1-7-1a30 30 0 0 1-7-3 1 1 0 0 0-2 1z"/><path class="cls-18" d="M187 96c-3 6-2 13 5 17a21 21 0 0 0 11 2l2-1c2 0 2 1 3 2l5 6c1 2 4 1 4-1l2-6 4-2c2-2 4-3 4-6a2 2 0 0 0-3-2l-4 3-3 2c-3 2-4 7-5 10l5-2-7-8c-2-2-7 0-9 0-4 0-9 0-11-3s-1-8-1-11a1 1 0 0 0-2 0z"/><path class="cls-19" d="M118 151c-4 5 0 14 1 20 2 8 0 16 3 24a37 37 0 0 0 11 17c5 4 13 9 20 9 2 0 3-3 1-4l-9-4a38 38 0 0 1-9-6 31 31 0 0 1-10-16c-1-7 0-14-2-20l-3-10-1-10a1 1 0 0 0-2 0zM98 166a26 26 0 0 0 1 15l2 8v9a1 1 0 0 0 2 1c4-3 2-11 1-15a89 89 0 0 1-4-18 1 1 0 0 0-2 0z"/><path class="cls-19" d="M96 226l18-12c6-3 12-4 14-11h-5a24 24 0 0 0 6 9l2-3c-4-3-10 0-14 3a13 13 0 0 0-4 14l2-3a109 109 0 0 0-17-1l1 5a83 83 0 0 0 15-10l-4-3a27 27 0 0 0-3 9l4-3-5-2c-4-1-5 5-2 6l5 2c2 0 4-1 4-3a26 26 0 0 1 2-7c1-3-3-4-5-3a59 59 0 0 1-13 10c-2 1-1 4 1 4a129 129 0 0 1 17 1 2 2 0 0 0 3-3 8 8 0 0 1 2-9c2-2 6-5 9-3a2 2 0 0 0 3-4 19 19 0 0 1-4-7 2 2 0 0 0-5 0c-1 6-10 7-15 10l-14 12a1 1 0 0 0 1 2z"/><path class="cls-20" d="M139 83c-1 6 5 13 10 15l11 3c4 2 6 6 8 9 1 2 4 1 4-1a23 23 0 0 1 0-8l-2 1c5 1 8-1 12-4a73 73 0 0 0 10-10c6-7 9-16 5-25l-2 1c1 8-2 16-7 21l-8 8c-3 3-6 5-10 5a2 2 0 0 0-1 2 37 37 0 0 0-1 9h4c-2-8-6-12-14-14-4 0-8-1-11-4-3-2-5-5-6-9-1-1-2 0-2 1zM189 103c1 4 6 7 10 7a14 14 0 0 0 6-1c2 0 2-1 4 1a14 14 0 0 1 3 3 2 2 0 0 0 3-1 19 19 0 0 1 1-4l-2 1a12 12 0 0 0 11-6c1-2-2-4-3-2a8 8 0 0 1-8 5 2 2 0 0 0-2 1 23 23 0 0 0 0 5l3-1c-2-3-5-7-9-6l-8 2c-3 0-5-3-7-5a1 1 0 0 0-2 1zM27 91l1 5a27 27 0 0 0 1 4 18 18 0 0 0 5 7l8 5c3 3 4 5 5 9 0 2 3 1 4 0v-4c1-2 3-1 4-1a33 33 0 0 0 8-2 37 37 0 0 0 14-7c8-6 14-15 12-25a1 1 0 0 0-2 0c-2 10-7 19-18 24l-15 4a9 9 0 0 0-5 3c-2 2-1 4-2 6l4 2c2-6-5-12-9-15-3-2-7-3-9-6a36 36 0 0 1-2-5 21 21 0 0 0-2-4 1 1 0 0 0-2 0z"/><path class="cls-20" d="M9 131c1-1 0 0 1 1l1 3a2 2 0 0 0 3 0c1-2 1-7 4-8h4a14 14 0 0 0 8-4c4-4 10-13 4-17l-2 2v6a22 22 0 0 1-3 5 12 12 0 0 1-9 4c-2 0-5 0-6 2-2 2-3 7-3 10l3-1c-1-3-1-8-6-6a2 2 0 0 0 1 3z"/><path class="cls-2" d="M66 24h9"/><path class="cls-21" d="M66 25l9-1a1 1 0 0 0 0-1l-9 1v1z"/><path class="cls-2" d="M67 29a29 29 0 0 0 13 1"/><path class="cls-21" d="M67 29c4 2 9 3 13 1a1 1 0 0 0 0-1 38 38 0 0 0-6 0 38 38 0 0 1-6-1 1 1 0 0 0-1 1z"/><path class="cls-2" d="M67 34a32 32 0 0 1 6 2"/><path class="cls-21" d="M67 35a32 32 0 0 1 3 1 8 8 0 0 0 3 1 1 1 0 0 0 1-2 6 6 0 0 0-3-1 31 31 0 0 0-3-1 1 1 0 0 0-1 2z"/><path class="cls-2" d="M64 40a104 104 0 0 1 13 4"/><path class="cls-21" d="M64 41l7 2c2 0 4 2 6 1l1-1-6-2-8-1v1z"/><path class="cls-2" d="M62 45a38 38 0 0 1 7 4"/><path class="cls-21" d="M62 45l6 4 1-1-7-4v1z"/><path class="cls-2" d="M57 50l12 11"/><path class="cls-21" d="M57 51a63 63 0 0 0 6 5 48 48 0 0 0 6 5c1 1 1 0 1-1a52 52 0 0 0-6-5 56 56 0 0 0-6-5l-1 1z"/><path class="cls-2" d="M50 55a8 8 0 0 1 2 5"/><path class="cls-21" d="M49 55a16 16 0 0 1 3 5h1a6 6 0 0 0-3-6l-1 1z"/><path class="cls-2" d="M44 57l1 5"/><path class="cls-21" d="M43 57c0 2 0 4 2 5a1 1 0 0 0 1 0l-2-5a1 1 0 0 0-1 0z"/><path class="cls-2" d="M35 60l1 6"/><path class="cls-21" d="M35 59a6 6 0 0 0 0 3 11 11 0 0 0 0 4 1 1 0 0 0 1 0 10 10 0 0 0 0-4v-3a1 1 0 0 0-1 0z"/><path class="cls-2" d="M30 60l-2 16"/><path class="cls-21" d="M29 60l-2 16h1c2-5 2-11 3-16h-2z"/><path class="cls-2" d="M25 60a9 9 0 0 1 0 5"/><path class="cls-21" d="M25 60a15 15 0 0 1-1 5h1a7 7 0 0 0 1-5h-1z"/><path class="cls-2" d="M33 60v5"/><path class="cls-21" d="M32 60a34 34 0 0 0 0 5h1a34 34 0 0 0 0-5 1 1 0 0 0-1 0z"/><path class="cls-2" d="M60 47a51 51 0 0 0 5 3"/><path class="cls-21" d="M59 48l3 2a9 9 0 0 0 3 1l1-1a13 13 0 0 0-3-2l-3-1a1 1 0 0 0-1 1z"/><path class="cls-2" d="M65 21h4"/><path class="cls-21" d="M65 22a17 17 0 0 0 4-1v-1a17 17 0 0 0-4 0 1 1 0 0 0 0 2z"/><path class="cls-2" d="M97 163c-2 6-1 12 1 17 1 6 2 11 0 16a26 26 0 0 1-10 13c-6 4-13 4-19 5a1 1 0 0 0 0 2c12 3 26-6 31-17a23 23 0 0 0 2-15l-2-9-2-11-1-1zM47 187c-11-11-1-42 16-33 2 0 3-1 2-2-8-6-19 1-22 9-4 8-5 20 3 27l1-1z"/><path class="cls-2" d="M52 135c8-11 23-10 33-3 12 7 15 19 14 32l2-1c-7-10-26-23-37-11-2 1 0 3 2 2 4-5 12-4 18-2a33 33 0 0 1 15 13 1 1 0 0 0 2-1c1-7 1-15-2-21-3-7-8-12-14-15-11-6-28-6-35 6a1 1 0 0 0 2 1zM52 167a41 41 0 0 1 7-4c1-1 4-1 5-3a1 1 0 0 0 0-1c-2-1-5 1-7 2a28 28 0 0 0-6 5c-1 1 0 2 1 1z"/><path class="cls-2" d="M73 158a64 64 0 0 0 7 0 15 15 0 0 0 5-1 1 1 0 0 0 0-2h-6a58 58 0 0 0-6 1v2zM65 197c1 6 8 8 13 7 3-1 13-5 10-10a1 1 0 0 0-1 0c-3 3-5 6-10 7s-8-1-11-4a1 1 0 0 0-1 0zM65 167c-6-1-12 3-13 9 0 3-1 12 4 11a1 1 0 0 0 0-2c-3-1-1-10-1-11 2-4 6-5 10-6v-1zM64 172c0 2 1 6 3 7a1 1 0 0 0 2-1 15 15 0 0 0-2-2 9 9 0 0 1-1-4h-2zM86 162c-10-1-16 11-10 19 1 1 3-1 2-2-2-3-3-7-1-10a11 11 0 0 1 9-5 1 1 0 0 0 0-2z"/><path class="cls-2" d="M84 167a13 13 0 0 0 2 4 8 8 0 0 0 2 3 1 1 0 0 0 2-1 8 8 0 0 0-1-4 14 14 0 0 0-2-3c-1-1-3 0-3 1zM150 139c-15 0-24 16-28 29h3c-3-8-3-16-1-24 1-7 4-14 11-18 7-5 17-7 25-7s14 5 20 10c1 2 4-1 2-3-6-5-13-11-22-11s-20 3-28 8c-7 5-10 12-11 20-2 9-2 18 1 26 1 2 3 1 3 0 2-7 5-13 9-19s10-7 17-10l-1-1z"/><path class="cls-2" d="M171 129c8 0 16 2 21 9a24 24 0 0 1 5 12l-2 13a1 1 0 0 0 2 1c5-8 3-20-3-28-5-6-15-12-23-8a1 1 0 0 0 0 1z"/><path class="cls-2" d="M150 141c-1 6 4 14 8 19 4 6 9 11 15 15a41 41 0 0 0 10 4c3 1 8 2 11 1 3 0 3-2 3-5a56 56 0 0 1-1-14l-1-1a33 33 0 0 0-2 10 42 42 0 0 0 0 5c1 2 0 2-2 2a38 38 0 0 1-19-7 54 54 0 0 1-13-13 52 52 0 0 1-7-17 1 1 0 0 0-2 1zM132 180l-2-4a16 16 0 0 1 0-3 12 12 0 0 1 2-7 7 7 0 0 1 6-3l5 2a1 1 0 0 0 1-1c-1-2-4-3-6-3a10 10 0 0 0-8 4 14 14 0 0 0-2 10c0 2 1 5 4 6v-1z"/><path class="cls-2" d="M140 168l-2 5v5a1 1 0 0 0 1 0c2-1 2-3 2-5a15 15 0 0 0 1-5 1 1 0 0 0-2 0zM148 183v-5a10 10 0 0 1 2-6 10 10 0 0 1 12-1c2 1 3-1 2-2-5-3-12-3-16 1-3 3-4 10-1 14a1 1 0 0 0 1-1z"/><path class="cls-2" d="M159 175a26 26 0 0 0-2 6v5c2-1 2-3 2-5a26 26 0 0 0 1-6 1 1 0 0 0-1 0zM136 190c6 6 17 6 25 7l-1-1c-1 8-12 6-17 6a1 1 0 0 0-1 2c8 2 19 1 20-9l-1-1a99 99 0 0 1-13-1l-11-5c-1 0-2 1-1 2z"/><path class="cls-2" d="M124 168c-1 3 0 6 1 9l-1 11c0 6 4 11 7 16s7 9 13 11c4 2 11 4 15 1a1 1 0 0 0 0-2h-8a21 21 0 0 1-9-3c-4-2-8-6-11-11s-5-10-4-17l-2-15a1 1 0 0 0-1 0zM168 190a8 8 0 0 0 1 2l2 2a1 1 0 0 0 1-1 4 4 0 0 0-1-2 8 8 0 0 0-2-2 1 1 0 0 0-1 1zM174 190a12 12 0 0 0 2 3c1 1 2 0 2-1a13 13 0 0 0-3-4 1 1 0 0 0-1 2zM151 161a9 9 0 0 1 6 0l4 2a1 1 0 0 0 1-1c0-2-3-4-5-4a9 9 0 0 0-6 1v2zM136 155a16 16 0 0 1 4 2l4 2a1 1 0 0 0 2-2c-2-3-7-4-10-4a1 1 0 0 0 0 2zM180 125c3-6 9-7 15-5s11 4 14 9 5 11 5 17c-1 4-2 8 0 11h1c-1-4 0-7 1-11a19 19 0 0 0-1-9c-1-5-4-11-9-15s-12-6-17-5c-5 0-10 3-10 8h1zM178 178l5 15a1 1 0 0 0 2 0 71 71 0 0 1 5-15c0-1-1-2-2-1a80 80 0 0 0-5 15h2a652 652 0 0 0-7-14zM192 180c5-1 6 5 4 9l-6 5a1 1 0 0 0 0 1c5 0 9-5 9-10 0-4-3-8-8-6l1 1zM47 194l2 2a12 12 0 0 0 3 1v-1a12 12 0 0 0-2-2l-2-1-1 1zM51 192a6 6 0 0 1 4 1l1-1a4 4 0 0 0-5-1v1zM98 202l7-4 3-2v-5c0-2 1-6 4-3 2 1 2 4 2 5a1 1 0 0 0 1 1c4-1 7 3 7 6 0 4-3 6-5 8-2 1-4 2-6 0l-1-4-2-9h-2l2 9 2 6c3 3 8-1 10-2 3-3 5-8 3-12a7 7 0 0 0-9-4l2 1c0-3 0-6-3-8a4 4 0 0 0-5 0 7 7 0 0 0-3 6c1 3 0 4-3 6l-5 4s0 2 1 1z"/><path class="cls-2" d="M111 209l-8 6-6 5a1 1 0 0 0 1 2l7-5 7-6a1 1 0 0 0-1-2zM51 134c-5-6-15-6-22-1-6 5-9 12-9 19a38 38 0 0 0 7 25c4 6 12 14 20 13 2-1 1-3 0-3-8 0-15-7-18-13a35 35 0 0 1-6-20c0-6 1-13 6-17a17 17 0 0 1 9-5c5-1 9 1 13 3a1 1 0 0 0 0-1z"/><path class="cls-2" d="M38 174c-2 3 0 7 2 10 2 2 3 5 6 4a1 1 0 0 0 0-1l-4-5a12 12 0 0 1-2-4l-1-4a1 1 0 0 0-1 0zM89 147c6 5 7 12 10 18h1c-1-7-4-15-10-19l-1 1zM57 139a14 14 0 0 1 7-4v-1a12 12 0 0 0-7 5c-1 0 0 0 0 0z"/><path class="cls-2" d="M60 141c2-3 5-4 8-5v-1c-4-1-7 2-9 5l1 1zM61 144c3-3 7-4 11-5v-1c-5-1-9 2-11 5v1zM76 208c2 0 4-1 4-3a1 1 0 0 0 0-1 4 4 0 0 0-2 1 11 11 0 0 1-2 1 1 1 0 0 0 0 2zM149 77a30 30 0 0 0 6-1l2-1v-3a28 28 0 0 0 0-6 1 1 0 0 0-2 0 18 18 0 0 0 0 4v3l-2 1a22 22 0 0 0-4 1v2z"/><path class="cls-2" d="M156 67l6-1-1-1a21 21 0 0 0 1 8 1 1 0 0 0 1 1 20 20 0 0 0 8-3h-1l1 6-6 2a1 1 0 0 0-1 1c0 2 1 7-1 7l-5 2 2 1-2-9a1 1 0 0 0-1-1c-2 1-4 2-6 1v-5a1 1 0 0 0-2 0c0 2-1 6 1 7s6 0 8-1h-2l2 9a1 1 0 0 0 2 0l6-1a1 1 0 0 0 1-1v-9l-1 1c2 0 6-1 7-3s-1-6-1-8a1 1 0 0 0-2-1 17 17 0 0 1-7 2l1 1a22 22 0 0 1 0-7 1 1 0 0 0-2-2 12 12 0 0 0-7 3l1 1zM176 63a24 24 0 0 1-4 0v2a12 12 0 0 0 3-5 13 13 0 0 1 1-3c1-2 3-1 4-1l-1-1 4 26h2l-4-26a1 1 0 0 0-1-1c-2 0-4-1-5 1l-4 8a1 1 0 0 0 1 2 14 14 0 0 0 4-1v-1z"/><path class="cls-2" d="M175 64l1 12c0 4 2 8-1 11a1 1 0 0 0 1 2 92 92 0 0 0 12-4c1 0 2-1 1-2a55 55 0 0 1-6-3 1 1 0 0 0-1 1 12 12 0 0 0 6 4v-2a64 64 0 0 1-12 4l1 2c3-3 3-7 2-10 0-5 0-11-2-15a1 1 0 0 0-2 0zM183 169a17 17 0 0 0 5 7l7 3a1 1 0 0 0 1-2l-6-3a22 22 0 0 1-6-6 1 1 0 0 0-1 1z"/><path class="cls-2" d="M187 163c0 5 3 11 7 15l1-1-6-15c0-1-3-1-2 1zM191 183c-2 2-3 5-3 7 1 2 2 4 4 4 2-1 3-3 2-5s-4 0-5 0v1h3c1 0 0 4-2 1-1-2 1-5 2-7 1-1 0-2-1-1zM182 195l-1 5-2 5c-1 1 0 1 1 1l4-5c0-2 1-5-1-6a1 1 0 0 0-1 0zM163 102c-6 0-11-4-15-7a22 22 0 0 1-9-13c-2-11 3-21 12-27 8-6 21-9 31-5s17 17 15 27c-2 6-6 11-10 16s-10 8-16 10a1 1 0 0 0-1 1 23 23 0 0 1 0 9l2-1a60 60 0 0 1-9-9c-1-1-3 0-2 1a47 47 0 0 0 9 10c1 1 2 0 2-1a48 48 0 0 0 1-9l-1 1c6-1 12-5 17-9 4-4 8-9 10-15 5-12-2-27-12-33s-26-3-36 3c-11 6-18 18-16 30a25 25 0 0 0 10 16c4 4 12 10 18 7v-2zM39 82a28 28 0 0 0 6 1h3l1-3a26 26 0 0 0 0-5l-1-1a17 17 0 0 0-1 4l-1 1a9 9 0 0 1 0 2h-2a22 22 0 0 0-4 0 1 1 0 0 0-1 1z"/><path class="cls-2" d="M48 75l7 1-1-2a22 22 0 0 0-1 9 1 1 0 0 0 1 1 20 20 0 0 0 8 0l-1-1-1 3v4l-7-1a1 1 0 0 0-1 1l-2 8h1l-7-1 1 2 2-10a1 1 0 0 0-2-1c-1 0-4 1-5-1-1-1 1-4 1-5s-2-2-2-1c-1 2-2 6-1 8s5 2 7 1l-1-1a3089 3089 0 0 0 0 11h7a1 1 0 0 0 1-1l3-8-2 1c2 0 7 1 8-1l2-8a1 1 0 0 0-2-1 17 17 0 0 1-7-1l1 2a22 22 0 0 1 2-8 1 1 0 0 0-1-1 12 12 0 0 0-8 0v1zM69 78a24 24 0 0 1-4-2v2a13 13 0 0 0 4-3l2-3h4l-1-1a27705 27705 0 0 0 2 1 1 1 0 0 0 0-2c-2 0-4-2-6 0-3 2-3 5-6 6a1 1 0 0 0 0 2 14 14 0 0 0 4 1 1 1 0 0 0 1-1z"/><path class="cls-2" d="M68 79c-2 3-2 7-3 10 0 4-1 9-4 11v3a91 91 0 0 0 13 0 1 1 0 0 0 1-2 55 55 0 0 1-5-5h-1a12 12 0 0 0 4 6l1-2a63 63 0 0 1-12 0v2c3-1 4-5 5-8 1-5 3-10 2-15l-1-1z"/><path class="cls-2" d="M44 110c-5-1-9-6-12-10-3-5-5-9-5-15 1-10 9-19 18-22s24-3 33 3 11 21 7 31c-3 5-8 9-13 11-6 3-13 6-20 6a1 1 0 0 0-1 1 24 24 0 0 1-3 8h2a60 60 0 0 1-6-11 1 1 0 0 0-2 0 47 47 0 0 0 6 12 1 1 0 0 0 2 0 48 48 0 0 0 3-8l-1 1c7 1 14-2 20-5s11-6 14-11c7-11 6-26-3-35s-25-10-36-7-21 12-23 24c-1 7 1 13 5 19 4 4 9 12 15 10a1 1 0 0 0 0-2zM119 224c0-3-1-5 1-7a11 11 0 0 1 8-5c3 0 5 2 8 4l3 8a1 1 0 0 0 2 1c3-7-8-16-14-15-3 0-7 2-9 5s-2 7 0 10l1-1z"/><path class="cls-2" d="M139 217l5 1a5 5 0 0 1 2 2v2a1 1 0 0 0 1 0c2-1 0-5-2-6h-7a1 1 0 0 0 1 1zM183 127c4-1 8 3 11 6s2 6 1 10a1 1 0 0 0 1 0c7-7-5-22-13-17v1zM196 165c1 6 10 12 15 7v-1l-9-1-5-6a1 1 0 0 0-1 1z"/><path class="cls-2" d="M204 165c1 3 5 6 8 4a1 1 0 0 0 0-1 34 34 0 0 1-4-1 9 9 0 0 1-3-3l-1 1zM207 161a13 13 0 0 0 7 5l1-1a21 21 0 0 1-7-5l-1 1zM42 187c-3 1-5 3-6 6 0 2-1 5 2 5l1-1c-2-3 1-7 3-9a1 1 0 0 0 0-1zM76 190a6 6 0 0 0 2-1 6 6 0 0 0 3-1 1 1 0 0 0-1-1 14 14 0 0 0-2 1 20 20 0 0 0-2 1 1 1 0 0 0 0 1zM47 129a14 14 0 0 1 1 3 23 23 0 0 0 1 4 1 1 0 0 0 1 0c1-3 0-6-1-8a1 1 0 0 0-2 1z"/><path class="cls-2" d="M52 128l-2 6a1 1 0 0 0 1 0l2-6h-1zM22 161v-1a1 1 0 0 0-1 0c-2 1-3 3-3 5a12 12 0 0 0 0 7 1 1 0 0 0 2 0l1-8 1-3zM155 137c2 5 5 11 10 14h1c-4-5-8-9-10-15l-1 1zM160 137c1 3 3 7 6 9a1 1 0 0 0 1-1l-3-4a29 29 0 0 1-3-5c-1-1-2 0-1 1zM82 65c4-6 7-14 10-21 1-2 1-6 4-6h5l12 1 6 1h7l-2 1-1 2-4 4a146 146 0 0 0-13 16c-1 1 0 2 1 2 11-2 22-5 32-5l1-2c-5-2-11 0-16 1l-18 3 2 2a141 141 0 0 1 18-21c1-1 4-3 1-5h-3l-9-1-14-1c-3 0-7-1-9 1l-3 8-3 6-6 14a1 1 0 0 0 2 0zM89 91c9 1 18-1 27-2l-2-2a234 234 0 0 0-10 40 1 1 0 0 0 2 1 131 131 0 0 0 19-18l14-20a1 1 0 0 0-2-2c-5 7-9 15-15 21a131 131 0 0 1-18 17l2 2a257 257 0 0 1 11-40 1 1 0 0 0-2-2l-26 4v1z"/><path class="cls-2" d="M78 64l9-36-1 1a379 379 0 0 1 56 6l-1-2-21 21a1 1 0 0 0 1 2c9 1 18-7 27-4 2 0 2-3 1-3-10-3-19 5-28 5l1 2 21-21a1 1 0 0 0-1-2 382 382 0 0 0-56-7 1 1 0 0 0-1 1l-9 37a1 1 0 0 0 2 0zM83 101l21-4-1-1-4 41h2c3-4 8-6 13-9a73 73 0 0 0 12-7l22-22c1-2 0-3-1-2-8 8-15 17-24 23-8 6-18 8-24 16l2 1a441 441 0 0 1 3-42c-7 1-14 2-21 5v1zM62 20c1 10-2 20-9 27a26 26 0 0 1-13 5c-5 1-10 2-15-2l-1 1c2 5 8 6 12 5 6-1 12-2 17-6a28 28 0 0 0 10-30 1 1 0 0 0-1 0zM6 97c6-8 18-5 23 3 1 1 3 0 2-2a17 17 0 0 0-13-8c-4 0-12 2-13 7h1zM35 109c2 5-1 9-4 12a13 13 0 0 1-6 4 55 55 0 0 1-5 1c-2 1-4 1-5 3l-3 11h2a73 73 0 0 1-4-9 1 1 0 0 0-1-1 14 14 0 0 0-3 0 1 1 0 0 0 0 1 13 13 0 0 0 3 1l-1-1a59 59 0 0 0 4 10 1 1 0 0 0 2 0l2-7c1-2 1-4 4-5s7-1 10-4c4-4 9-10 6-16h-1zM5 105a28 28 0 0 1 4 0l-1-1 1 6c1 2 4 0 5 0l-1-1c0 2 1 3-1 4l-2 1c-2 1-1 5-1 7l1-1a5 5 0 0 0-4 2h1a7 7 0 0 1 3 0 1 1 0 0 0 1-1l1-5 3-2v-5a1 1 0 0 0-1-1h-2l-1-1-1-3a1 1 0 0 0-1-1 10 10 0 0 0-4 1 1 1 0 0 0 0 1z"/><path class="cls-2" d="M17 102l-2 2 1 1a13 13 0 0 1 5-8h-2a71 71 0 0 1 2 18h2a57 57 0 0 0-2-19 1 1 0 0 0-1 0 14 14 0 0 0-6 8c0 1 1 2 2 1l2-2c1 0 0-2-1-1z"/><path class="cls-2" d="M18 104l-1 9a9 9 0 0 1-1 5 10 10 0 0 0-1 3 1 1 0 0 0 1 1 51 51 0 0 1 9-1 1 1 0 0 0 1-2l-4-5-1 1 4 5v-1a54 54 0 0 0-10 1l2 2 2-7a45 45 0 0 0 0-11 1 1 0 0 0-1 0zM189 94c-2 6-2 12 3 16a14 14 0 0 0 16 0 1 1 0 0 0-1-2c-5 3-9 3-14 0s-4-9-3-14a1 1 0 0 0-1 0zM198 81c8-4 20-4 24 6 0 2 3 1 2 0a16 16 0 0 0-12-11c-4-1-12 0-15 4l1 1z"/><path class="cls-2" d="M208 110c3 2 3 6 6 8a1 1 0 0 0 2-1l2-6 4-2c3-1 5-4 5-7a1 1 0 0 0-2 0l-3 4-5 3c-3 1-3 5-4 8l2-1c-3-2-3-6-6-8l-1 2zM202 97a14 14 0 0 0-5 2l2 1-1-4h2l1-2a6 6 0 0 0 0-2c0-1 0-5 2-4l1 4a1 1 0 0 0 1 1h2l2 2-2 2a5 5 0 0 0-1 3v3a7 7 0 0 1-3 1l1 1-1-7a1 1 0 0 0-1 0v7a1 1 0 0 0 1 1c3 0 5 0 6-3v-3c0-2 1-2 2-3v-5c-1-3-3-1-6-1l2 1c-1-2-1-5-3-6-2 0-5 1-5 3v3c0 2-1 1-2 2-2 1-1 5-1 6a1 1 0 0 0 2 1 16 16 0 0 0 4-3v-1z"/><path class="cls-2" d="M216 88a51 51 0 0 0-5 4l2 1 2-6 1-2 1 3a65 65 0 0 1 1 12 1 1 0 0 0 3 0 43 43 0 0 0-1-10c-1-2-1-7-3-8-4-3-6 9-6 10a1 1 0 0 0 2 1 45 45 0 0 0 4-4l-1-1z"/><path class="cls-2" d="M215 90a77 77 0 0 0 0 9 7 7 0 0 1-2 4 8 8 0 0 0-1 2 1 1 0 0 0 1 2 52 52 0 0 1 10-3 1 1 0 0 0 1-1 3 3 0 0 0-4-3v1l2 2v-1a51 51 0 0 0-9 3l1 1c1-3 3-4 3-7a60 60 0 0 0-1-9 1 1 0 0 0-1 0zM101 148l11-9h-2c4 3 8 7 13 7l1-1c-4-3-8-4-12-8a1 1 0 0 0-2 0c-3 4-8 7-10 11h1z"/><path class="cls-2" d="M123 152a39 39 0 0 0-7-4c-1-1-3-4-5-4l-4 3-7 6a1 1 0 0 0 1 1c4-1 6-6 10-6l6 2a29 29 0 0 0 5 3 1 1 0 0 0 1-1zM106 171a56 56 0 0 0 0-5v-6l-1 1h10l1 1v4l1 3c0 2-1 1-2 2a44 44 0 0 1-9 0c-2 0-1 3 0 3l12-1c2-2 1-5 1-7s0-6-2-7h-12a1 1 0 0 0-1 1l1 12h1z"/><path class="cls-2" d="M106 165a14 14 0 0 0 6 1l6-1-1-2-6 1a23 23 0 0 0-5 1z"/><path class="cls-2" d="M111 160a13 13 0 0 0 0 6l1 5a1 1 0 0 0 1 0l-1-5v-6h-1z"/><path class="cls-2" d="M224 115c0 45-29 87-72 102-43 16-91 2-121-33S-1 98 22 59C46 20 92 0 137 9c44 9 78 45 85 89a111 111 0 0 1 2 17c0 5 7 5 7 0-1-48-31-92-76-108S57 5 26 42s-35 91-10 133c26 41 75 63 122 53 47-9 84-48 91-95a123 123 0 0 0 2-18c0-4-7-4-7 0z"/></g></g></svg>