<svg xmlns="http://www.w3.org/2000/svg" viewBox="0 0 231 231"><defs><style>.cls-1{fill:#ffdf47}.cls-3{fill:#9beaff}.cls-4{fill:#e8f9ff}.cls-5{fill:#f9c956}.cls-6{fill:#14c5ed}.cls-8{fill:#ff8200}.cls-10{fill:#c73f69}</style></defs><g id="Layer_2" data-name="Layer 2"><g id="圖"><path class="cls-1" d="M163 121a50 50 0 0 1-99 0c0-42 33-49 33-49l2-11h26l2 11c24 4 36 25 36 49z"/><path d="M91 122c7-13 12-23 21-35a79 79 0 0 1-5 26 85 85 0 0 1 28-4 304 304 0 0 1-22 47l1-32a162 162 0 0 1-28 6 19 19 0 0 0 5-8z" fill="#ff9f36"/><path class="cls-1" d="M91 123l11-18 11-18h-2a83 83 0 0 1-5 25 1 1 0 0 0 2 2 88 88 0 0 1 27-3l-1-2a306 306 0 0 1-22 46l2 1 1-32a1 1 0 0 0-1-1 185 185 0 0 1-28 5l1 3c2-3 4-5 4-9h-1l-5 7c-1 1 0 2 1 2a156 156 0 0 0 28-5l-2-2v32a1 1 0 0 0 2 0 314 314 0 0 0 22-46 1 1 0 0 0-1-2 90 90 0 0 0-28 4l1 1a83 83 0 0 0 5-26 1 1 0 0 0-2-1l-12 18-9 18 1 1z"/><path class="cls-3" d="M67 112s-10-5-14-5-16 10-16 10-4-10-10-10-17 1-21 15 3-44 3-44 18-36 31-45S71 7 100 3s38-1 54 7 29 11 40 27 20 17 24 33 10 20 9 33-2 9-2 9-10-9-17-7a54 54 0 0 0-14 6s-11-8-16-6l-15 7s-2-20-11-26l-23-15-5-8-24-2-3 11s-11 6-18 13-11 21-12 27z"/><path class="cls-3" d="M5 124c-1 0-2 0 1-23l3-23c1-2 18-37 31-45l9-6c12-9 28-22 51-24 28-4 39-1 55 7l9 4c12 5 22 10 30 22a103 103 0 0 0 12 14c5 6 10 10 12 20a87 87 0 0 0 6 15c2 6 4 10 4 18l-2 10-1-1c-1 0-11-9-17-7a54 54 0 0 0-14 6s-11-8-16-6l-15 8h-1v-1s-2-20-10-26l-23-14-5-9-24-2-2 11c-1 0-12 6-19 14-6 7-10 19-11 26h-1s-10-5-14-5-16 10-16 10h-1s-4-10-9-9h-1c-6 0-16 1-20 14l-1 2zm5-46c-3 16-5 41-5 45a15 15 0 0 0 0-2c4-13 15-13 21-14h1c5 0 9 7 10 9 2-2 12-10 16-10l14 5c1-6 6-18 12-26s17-13 18-13l3-12 24 3 6 8 22 15c8 5 11 23 11 26l15-8c5-1 15 5 16 7a54 54 0 0 1 14-7c7-2 17 7 17 8a1 1 0 0 0 1 0l1-9c0-8-2-12-4-17a88 88 0 0 1-5-15c-3-10-7-15-13-20a103 103 0 0 1-11-14c-9-13-19-17-30-22l-10-4c-16-8-26-11-54-8-22 3-39 15-51 24l-9 7c-12 8-30 42-30 44z"/><path class="cls-4" d="M6 122s3-9 9-11 10-6 15-4a12 12 0 0 1 6 7s8-7 13-7 13 3 13 3l4 20c4 16 11 29 20 32s26 14 36 9 21-7 26-15 10-14 11-20l4-19c0-5 2-6 2-6s6-7 13-6 13 3 16 6c0 0 6-6 14-6s17 7 17 7l2 16s-3 17-7 27 0 5-8 17-7 14-16 22-16 16-24 20-27 13-38 13l-39-1a114 114 0 0 1-73-46c-6-10-14-32-15-42a91 91 0 0 1-1-16z"/><path class="cls-3" d="M135 227h-1a741 741 0 0 0-39-1c-8-1-36-10-47-20l-3-3c-10-8-18-15-23-23-6-10-14-33-16-42a93 93 0 0 1-1-17c1 0 4-8 10-11l4-1c4-2 7-4 11-2a13 13 0 0 1 6 7c2-2 8-7 13-7 4-1 13 3 13 3l4 20c5 17 12 29 20 32l7 3c9 4 21 10 28 5a81 81 0 0 1 11-4c6-2 12-5 16-10a62 62 0 0 0 14-39c0-4 3-6 3-7 1 0 6-7 13-6s13 3 16 7c1-2 7-7 14-7 8 0 17 7 17 8l3 16-8 27a43 43 0 0 0-2 6c0 3 0 3-6 11l-6 10c-3 4-4 7-10 12l-9 8c-5 5-10 10-15 12l-4 2c-9 4-24 11-33 11zM6 122a93 93 0 0 0 1 16c1 9 9 31 15 41 6 9 14 16 23 24l3 3c11 9 39 18 47 19l25 1 14 1c9 0 24-7 33-11l5-2 15-12 8-8c6-5 8-8 11-13l6-9 6-11a43 43 0 0 1 2-6c4-10 7-26 7-27l-2-16c-1-1-10-7-17-7-8 0-14 6-14 6v1-1c-3-3-9-5-16-6s-12 6-12 6-3 2-3 6l-3 19c-2 5-5 12-11 20-4 6-10 8-17 11a82 82 0 0 0-10 4c-8 4-20-1-29-5l-7-4c-8-3-16-15-20-32-4-14-4-19-4-20l-13-3c-5 1-13 7-13 7v1-1a12 12 0 0 0-6-6c-4-2-7-1-11 1l-4 2c-5 2-9 10-9 11z"/><path class="cls-5" d="M82 107c-9 6-10 18-7 28a41 41 0 0 0 47 28c8-2 23-8 22-19 0-3-2-5-5-5-7 0-11 6-17 8a25 25 0 0 1-17-1 25 25 0 0 1-13-9 27 27 0 0 1-3-9l-3-11 1 4v-12a3 3 0 0 0-5-2z"/><path class="cls-6" d="M164 114l8-5a15 15 0 0 1 11-1c7 2 12 9 14 16 1 4 7 3 6-2-2-9-9-17-18-20a20 20 0 0 0-14 2c-3 1-7 5-8 9a1 1 0 0 0 1 1zM9 122l5-7a17 17 0 0 1 8-4c3-1 5-1 7 1l6 6a4 4 0 0 0 5 0c2-4 6-7 10-8 5 0 8 2 12 4 3 1 5-3 4-6-3-5-11-6-17-5s-11 5-15 10l5-1-8-8c-3-2-8-1-12 0-7 3-15 9-15 17 0 3 4 4 5 1z"/><path d="M159 121a46 46 0 0 1-91 1c0-14 4-28 14-37a45 45 0 0 1 12-8 9 9 0 0 1 1 0l2-1h1c2-1 3-2 3-4l2-11-4 4h26l-4-3 3 11a4 4 0 0 0 2 3c22 4 33 24 33 45 0 6 8 6 8 0 0-24-13-48-38-53l2 3-2-11a4 4 0 0 0-4-3H99c-3 0-4 2-5 4l-1 11 3-4c-6 1-13 5-18 10a55 55 0 0 0-18 40 55 55 0 0 0 23 47c15 11 36 13 53 5 19-8 31-28 31-49 0-5-8-5-8 0z" fill="#ff9d5b"/><path class="cls-8" d="M71 66c-7-6-13-12-21-15a1 1 0 0 0-1 2c5 6 12 11 19 16 2 1 5-2 3-3z"/><path class="cls-5" d="M53 95a3 3 0 0 0-2-3 60 60 0 0 0-20-3c-2 0-3 2-1 3a59 59 0 0 0 21 5 2 2 0 0 0 2-1 3 3 0 0 0 0-1z"/><path class="cls-8" d="M49 124c-7 1-15 1-22 4a1 1 0 0 0 0 2c8 1 16-1 23-3 2 0 1-4-1-3zM62 157l-12 8c-4 3-8 5-10 9a1 1 0 0 0 1 1c4-1 8-4 11-7l12-8c2-1 0-4-2-3zM119 188a58 58 0 0 0 0 11 25 25 0 0 0 3 10c1 1 3 1 3-1l-2-20c1-4-4-3-4 0zM153 178a37 37 0 0 0 6 8l9 6c1 1 2 0 1-1a69 69 0 0 0-6-8 103 103 0 0 0-7-7 2 2 0 0 0-3 2z"/><path class="cls-5" d="M172 158a32 32 0 0 0 8 6 13 13 0 0 0 8 2 1 1 0 0 0 1-2 19 19 0 0 0-6-5l-8-5a2 2 0 0 0-3 4z"/><path class="cls-8" d="M177 137l12 4c4 1 9 3 13 2v-4l-4-2a59 59 0 0 0-8-2l-12-2a2 2 0 0 0-1 4zM175 92c7-3 15-6 18-14 0-1-1-3-3-2l-8 5a103 103 0 0 1-8 7c-2 1-1 4 1 4z"/><path class="cls-5" d="M155 63c4-3 6-9 9-13l8-14a1 1 0 0 0-2-2l-10 13c-3 4-7 9-7 14a1 1 0 0 0 2 2z"/><path class="cls-8" d="M142 52a53 53 0 0 0 5-12l2-12c0-2-2-3-3-1l-4 11-3 13a2 2 0 0 0 3 1zM90 28l5 19a2 2 0 0 0 3-1c1-6 0-13-2-19a3 3 0 0 0-6 1z"/><path d="M92 123l11-17 11-18-5-1a82 82 0 0 1-5 25c0 2 2 4 4 3a86 86 0 0 1 27-3l-3-3a305 305 0 0 1-21 45l5 2 1-32a3 3 0 0 0-4-2 205 205 0 0 1-27 5l2 5c3-3 5-6 4-10a1 1 0 0 0-2-1l-6 7c-2 1-1 5 2 5a143 143 0 0 0 29-6l-4-3-1 32a3 3 0 0 0 5 1 317 317 0 0 0 23-47c0-2-1-3-3-3a91 91 0 0 0-29 3l4 4a83 83 0 0 0 5-27c0-3-4-4-5-2a233 233 0 0 0-16 27l-5 10a1 1 0 0 0 3 1z" fill="#e45c26"/><path class="cls-6" d="M194 114c4-2 9-5 14-6 5 0 9 2 12 6 3 3 8-1 6-5-8-11-29-10-35 2a2 2 0 0 0 3 3z"/><path class="cls-5" d="M71 170l-5 5-4 5a1 1 0 0 0 1 1l5-4 4-5a1 1 0 0 0-1-2z"/><path class="cls-10" d="M96 184l-2 12h2c2-3 2-7 3-11 0-2-2-2-3-1zM180 121h11a1 1 0 0 0 0-2c-4-2-8-1-11-1a1 1 0 0 0 0 3zM71 43l8 10a1 1 0 0 0 2-2l-8-10c-1-1-2 1-2 2zM19 61a221 221 0 0 0 20 13c7 4 14 9 21 10 1 0 2-1 1-2l-9-6-11-6-20-12c-2-1-3 2-2 3zM119 47c6-14 7-29 6-44a1 1 0 0 0-2 0 202 202 0 0 1-2 22l-5 21c0 1 2 3 3 1zM166 76l17-16c6-5 13-9 18-15 0-1 0-2-1-1-7 4-12 9-18 14l-17 17a1 1 0 0 0 1 1zM189 101l17-7c6-3 12-4 17-8 0 0 0-2-1-1-6 0-11 3-17 5l-16 9v2zM159 164l12 11c4 4 8 8 13 10a2 2 0 0 0 2-2l-13-11-12-10c-1-1-3 1-2 2zM12 165c5 0 9-2 12-3a112 112 0 0 0 12-5l12-6c3-2 8-4 9-8a2 2 0 0 0-1-2c-4 0-7 3-10 5l-11 6-11 5c-4 2-9 3-12 6a1 1 0 0 0 0 2zM75 189l-4 7-5 6c-3 4-6 9-6 14l3 1 4-8a57 57 0 0 1 3-5c3-4 7-8 8-13 0-2-2-3-3-2zM140 189c1 5 4 11 7 15 2 5 5 11 9 15 1 1 3 0 3-2l-8-14-4-7-4-8c-1-1-3-1-3 1z"/><path class="cls-4" d="M128 85c6 3 10 6 14 12 3 5 4 12 6 18h2c2-8 0-16-5-22-3-5-10-11-16-10a1 1 0 0 0-1 2zM149 128a3 3 0 0 0 3-1 3 3 0 0 0-3-6 3 3 0 0 0-3 4 3 3 0 0 0 3 3z"/><path d="M224 115c0 45-29 87-72 102-43 16-91 2-121-33S-1 98 22 59C46 20 92 0 137 9c44 9 78 45 85 89a111 111 0 0 1 2 17c0 5 7 5 7 0-1-48-31-92-76-108S57 5 26 42s-35 91-10 133c26 41 75 63 122 53 47-9 84-48 91-95a123 123 0 0 0 2-18c0-4-7-4-7 0z" fill="#221714"/></g></g></svg>