<svg xmlns="http://www.w3.org/2000/svg" viewBox="0 0 231 231"><defs><style>.cls-4{fill:#cdada4}.cls-5{fill:#00b26e}.cls-6{fill:#5bc68f}.cls-7{fill:#fff0f7}.cls-8{fill:#221714}.cls-9{fill:#67a3c1}.cls-10{fill:#ffd864}.cls-11{fill:#865445}.cls-12{fill:#b2e1c4}.cls-14{fill:#c3d2f5}.cls-15{fill:#ff8200}.cls-16{fill:#4271d6}</style></defs><g id="Layer_2" data-name="Layer 2"><g id="圖"><path d="M13 83c-9 13-11 31-9 39s2 26 8 36 4 14 8 16 105 12 105 12l64-10s21-4 27-15 11-41 11-41l-2-26-112-26z" fill="#ffb48a"/><path d="M125 186c-4 0-101-9-105-11l-4-6a44 44 0 0 0-4-11c-5-7-6-17-7-25a93 93 0 0 0-1-10c-2-10 0-28 8-40v-1l100-15h1l113 26v1l2 26s-6 29-12 41-26 15-27 15zM13 83c-8 12-10 30-8 39a93 93 0 0 1 1 11c1 8 2 18 6 25a45 45 0 0 1 5 11c1 2 1 4 3 5 3 2 70 9 105 12l64-11s20-3 26-14 12-40 12-41l-2-26-113-26z" fill="#fff435"/><path d="M72 68s17-6 20-12l13 12c2 1 0 30 0 30l26-15s13 5 18 1l-11 7 29 16-40-5-22 15v76s-10 17-14 18-1-3-1-3 3-28 6-31-19 13-19 24l-8-11-1-83-21-27 8-8 16 20z" fill="#ae857b"/><path class="cls-4" d="M89 212a1 1 0 0 1-1-1l2-3 5-30c-4 3-17 15-17 23v1l-10-12v-83L46 80l9-8 15 19 2-23s16-7 20-12v-1 1c3 3 11 11 13 11 2 1 1 21 0 31l26-15s11 4 16 1l3-1c0-1 0-1 0 0l-1 1a7 7 0 0 1-1 1l-9 6 30 16-42-4-21 14v76h-1c0 1-10 17-14 18a5 5 0 0 1-2 1zm7-36v1c1 0 0 0 0 0-2 2-5 23-6 31v1l-1 2h2c3-2 13-17 14-18v-76l22-15 38 4-27-15 8-6c-6 1-14-1-15-2l-27 16v-1-30L92 56c-4 6-18 12-20 13l-1 23-16-19-8 7 21 27 1 83 8 10c1-10 18-23 19-24z"/><path class="cls-5" d="M32 188s6-12 16-16c0 0-6 24-1 30s-15-14-15-14z"/><path class="cls-6" d="M48 204l-9-8-8-7v-1s7-12 17-16h1-1c0 1-6 24-1 30l1 2zm-16-16l14 13c-4-6 1-24 2-28-9 4-15 14-16 15zM55 184s22 10 22 17 4-13 19-24c0 0-7 19-5 34 0 0 12-7 21-29 0 0 4 6-1 26 0 0 0 10 3 16s0 4 0 4l-45-12s-3-22-14-32z"/><path class="cls-4" d="M115 228a2 2 0 0 1-1 0l-46-12c0-1-2-22-13-31l-1-2 2 1c1 0 21 10 22 17a5 5 0 0 0 0 1 22 22 0 0 0 2-3c2-6 7-16 16-22l1-1-1 1s-7 19-5 33c2-1 12-9 21-28v-1 1s4 7 0 26c0 0 0 10 3 15 2 4 2 5 1 5a1 1 0 0 1-1 0zm-46-13l46 12s0 1 0 0l-1-3c-3-6-3-16-3-16 4-16 2-23 1-25-9 21-21 28-21 28l-1 1v-1c-2-13 4-29 5-33-8 7-13 16-15 21l-2 4-1-2c-1-5-15-13-20-15 9 9 12 27 12 29z"/><path class="cls-5" d="M134 225s6-24-2-40c0 0-13 25-21 27l3 16z"/><path class="cls-6" d="M114 228l-3-16c8-3 21-27 21-27v-1l1 1c8 16 2 40 2 40zm-2-15l3 14 19-2c1-3 5-24-2-39-2 4-13 24-20 27z"/><path class="cls-5" d="M178 182s15 4 11 14-21 17-21 17 15-19 10-31z"/><path class="cls-6" d="M167 214l1-1s15-19 10-30l-1-1h1c1 0 8 2 11 8a8 8 0 0 1 1 6c-4 10-21 17-22 17zm12-31c4 10-7 25-10 29 4-1 17-7 20-16a8 8 0 0 0 0-6c-3-4-8-6-10-7zM164 196s-5 17 0 18-30 11-30 11l3-18 5-3z"/><path class="cls-4" d="M134 225l3-18 5-4 23-7c0 1-4 13-2 17a2 2 0 0 0 1 1l1 1-15 6-16 4zm4-17l-3 16c14-3 29-8 29-9a3 3 0 0 1-2-2c-2-4 1-13 2-16l-22 7z"/><path class="cls-6" d="M11 78s-3 31 6 41 16 16 21 14 8-6 9-6 4 6 9 8 11-4 11-4l1-24-21-27s8-6 8-8 16 20 16 20l1-24a216 216 0 0 0 20-12s9 11 13 12v30l26-15s8 3 15 1-6 7-6 7l30 17-43-6-22 15v17s13 11 23 8 18-12 19-18c0 0 17 11 28 7s19-16 21-21c0 0 13 7 19 5s10-7 11-14-7-37-14-47-11-10-22-19-3-8-19-16-13-10-28-14-29-2-38 0-24 1-36 8-13 4-21 10-6 6-13 14-8 4-13 15L11 78z"/><path class="cls-4" d="M124 143c-9 0-19-8-19-9v-17l22-15 41 5-28-16 8-7a5 5 0 0 0-2 1c-6 1-14-1-15-2l-27 16V68c-4-1-11-10-12-12a221 221 0 0 1-20 13l-1 24-1-1-15-19-8 7 21 27v25c-1 0-7 4-12 3l-7-5-2-2-3 1a29 29 0 0 1-6 5c-5 2-12-3-21-14s-6-41-6-42l10-26c4-7 5-9 8-10a34 34 0 0 0 6-6l4-4 9-9a27 27 0 0 1 10-6 61 61 0 0 0 11-5c10-5 21-6 30-7l6-1c9-1 23-2 38 1 8 2 11 4 14 6a67 67 0 0 0 14 8l13 8a33 33 0 0 0 6 7l9 8c5 3 8 6 13 12 8 10 15 40 14 47 0 8-7 12-11 14-5 3-17-3-19-4-2 5-10 17-21 21-11 3-25-6-28-7-1 6-8 14-18 17a14 14 0 0 1-5 1zm-18-9c1 1 13 11 22 8 10-3 17-12 19-18 0 0 17 10 28 7s19-16 21-21c0 0 13 7 18 4 5-2 11-6 12-13 0-7-7-37-14-46l-13-13-9-7a33 33 0 0 1-7-7c-1-3-2-4-12-8a67 67 0 0 1-14-8c-4-3-6-4-14-6-15-4-29-2-38-1l-6 1c-9 1-20 2-29 7a63 63 0 0 1-12 5 26 26 0 0 0-10 6l-9 8-4 5a36 36 0 0 1-6 5c-2 2-4 3-7 10L11 78c0 1-2 31 6 41 9 11 16 16 20 14a29 29 0 0 0 7-4l3-2 2 2c2 2 4 5 7 5 4 1 10-2 11-3l1-24-22-27 1-1c3-2 7-5 7-7h1l8 10 7 9 2-23a213 213 0 0 0 20-13v1s9 11 13 11v31l26-15s8 3 15 1h3l-8 7 30 17-44-5-21 14z"/><path class="cls-7" d="M158 50s-10 0-10-13c0 0 1-7 7-7s8 2 9 7l1 3s1-6 7-5 7 0 7 5a16 16 0 0 1 0 8l-7 2s7 0 8 4 3 6 1 10-7 5-9 4-5-1-7-4l-1-5s0 6-4 7-8 2-10-1-4-8-2-10 5-5 10-5z"/><path class="cls-8" d="M173 69a5 5 0 0 1-2 0c-2-1-4-2-6-5a21 21 0 0 1-1-3c-1 2-1 4-4 5h-2c-3 1-7 2-8-1-2-3-4-8-2-10a13 13 0 0 1 7-5 10 10 0 0 1-4-2c-2-3-3-6-3-11 0 0 1-7 7-7 7 0 8 2 9 7l1 2a7 7 0 0 1 2-4 6 6 0 0 1 5 0h3c3 0 4 1 5 5a16 16 0 0 1-1 8l-5 2c2 0 5 1 6 4a21 21 0 0 0 1 4c1 2 2 3 0 6s-5 5-8 5zm-9-10a13 13 0 0 0 2 4c1 4 3 4 6 5 2 1 7-1 9-5v-5a22 22 0 0 1-2-4c-1-4-6-3-7-3h-2l8-3a16 16 0 0 0 1-8c-1-4-1-4-4-4l-3-1a5 5 0 0 0-4 1 7 7 0 0 0-3 4v1l-1-4c-1-4-3-6-9-6s-6 6-7 6c0 5 1 8 4 10a10 10 0 0 0 5 3h1a8 8 0 0 1-1 0c-4 0-7 3-9 5-1 2 1 6 3 9 1 3 4 2 7 2l2-1c3 0 3-6 3-6h1z"/><path class="cls-7" d="M189 84c-6-2-7-5-6-10a5 5 0 0 1 2-3 12 12 0 0 1 3-1c5 0 8 3 9 7-1-4 3-7 7-7s7 5 6 9a10 10 0 0 1-8 8 9 9 0 0 1 5 10c-1 3-5 6-9 5s-6-6-4-9a8 8 0 1 1-6-9"/><path class="cls-8" d="M189 84l-5-4a7 7 0 0 1 0-7c1-2 4-3 7-2s4 3 5 6h2c-1-7 8-8 11-2 2 5-2 10-7 11a1 1 0 0 0 0 1c5 3 7 10 2 14s-13-2-10-8l-1-1c-1 7-9 10-13 5-5-6 1-14 7-12l1-1c-8-2-15 6-10 13s15 4 16-4l-1-1c-3 6 3 13 10 10s6-12 0-16l-1 1c7-1 12-9 7-15-4-5-13-2-13 5h2c-2-6-9-11-14-5-2 1-2 5-2 7 1 3 4 5 7 6v-1z"/><path class="cls-9" d="M18 166l23-19 27 22 1 21-12-4s14 23 10 29-19-9-19-9-3-12-3-18 3-16 3-16-8 2-11 6l-6 10z"/><path class="cls-7" d="M65 216c-6 0-17-10-17-10 0-1-4-12-4-18 0-5 3-13 4-15-2 0-9 2-10 5l-6 11-15-23 24-19 28 22v21l-11-3c2 4 13 23 10 28a3 3 0 0 1-3 1zm-17-11c1 1 12 11 17 11a2 2 0 0 0 2-1c3-6-10-29-10-29l-1-1 12 4v-20c-10-8-25-21-27-21l-23 18 14 22 5-10c2-4 11-6 11-6h1-1l-3 16 3 17z"/><path class="cls-9" d="M105 173l29-16 16-9 13 14 29-23 24 22s-11 23-16 29-9 6-9 6-1-13-13-14c0 0 4 14-4 23l1 3-12 7-2-6c0-5 0-10 3-13s-9 2-12 4-12 5-14 8 2-17-6-23l-7 17c-2 5-14 10-14 10l2-19a19 19 0 0 0-1-11l-5 10c-2 1-2-6-2-6z"/><path class="cls-10" d="M164 55v-5l1-3v-1h-1a11 11 0 0 0 0 2l-1 2v1q4 1 2-1a2 2 0 0 0-2 0 9 9 0 0 0-2 1 3 3 0 0 0 0 3 4 4 0 0 0 5 2l3-4c1-3 1-8-2-10s-6 0-7 3 0 8 2 10a1 1 0 0 0 2 0zM193 88l1-4h2v3c-1 0 0 0 0 0 2 1 3-3 1-4l-1-1a1 1 0 0 0-1 0c-2 1-1 4 0 5l2-3a4 4 0 0 0-5 0 4 4 0 0 0 0 6c3 4 9 1 10-3 0-4-3-9-8-8s-5 6-3 10a1 1 0 0 0 2-1z"/><path class="cls-11" d="M83 158h-1l1 2 1-9 1-4s2-6-1-3v9c0 1 0 5 1 4l1-4-2 2 1-1h-2l-1-1 1 7a3 3 0 0 0 3 3c4-1 5-6 5-10a15 15 0 0 0-5-12c-2-2-6-4-8-1s-1 8 3 8a2 2 0 0 0 1-2v-3l3 4a11 11 0 0 1 1 5c0 1 0 6-2 6l4 3c0-4 1-10-2-12-4-2-7 3-7 6-1 4 0 8 4 9s7-3 7-6a38 38 0 0 0 0-15c-1-4-4-7-8-5s-4 9-4 12 0 10 3 11a2 2 0 0 0 2 0 1 1 0 0 0 0-3z"/><path class="cls-5" d="M57 74l4-1c1-1 4 1 5 2l-1-2v8a19 19 0 0 0 1 7l6-3a163 163 0 0 1-8-15l-6 3 5 8 4-4-7-5v5a2 2 0 0 1 1 1 2 2 0 0 0 2-1c1-3-1-6-4-6s-5 4-2 5l6 6c3 2 7-1 5-4l-4-8c-2-4-8 0-6 3a164 164 0 0 1 8 15c2 4 7 1 6-2l-1-11c0-3 0-5-3-6-2-1-5-3-8-2a8 8 0 0 0-4 6 1 1 0 0 0 1 1zM106 70c4 4 11 2 15 0l17-11c3-2 0-6-3-5l-14 10a25 25 0 0 1-7 3l-7 1a1 1 0 0 0-1 2zM124 79c0 2 2 4 4 6a2 2 0 1 0 2-4 8 8 0 0 1-2-2l-1-1a4 4 0 0 0-1-1 2 2 0 0 0-2 2zM150 87h7a15 15 0 0 0 6-6c2-3-3-6-5-3a13 13 0 0 1-4 4l-4 4a1 1 0 0 0 0 1zM106 120c4 1 9-4 13-6l8-5c3-2 6 0 9 0 11 3 23 6 35 5a3 3 0 0 0 0-5c-13-1-26-2-39-6-6-2-10 2-15 5l-7 6c-3 2-4 3-5 6z"/><path class="cls-5" d="M106 117v10c0 3-1 6 1 9a2 2 0 0 0 3 0v-9l-1-10h-3zM27 82c6 4 13 4 19 4l-2-1 17 22c2 2 3 3 3 6l-1 7v12c1 2 3 1 4 0l1-8 1-11c0-7-5-12-9-17l-7-8c-1-2-3-6-6-7h-9a95 95 0 0 0-10-1 1 1 0 0 0 0 2zM106 70l-1 13v13c0 4 5 4 6 0V83 70c0-2-5-4-5 0zM52 55c0 9 14 14 22 14 5 0 11-1 14-5 3-3 5-9 3-12a1 1 0 0 0-2 0l-3 3a36 36 0 0 1-3 3 16 16 0 0 1-11 4c-3 0-7 0-11-2l-8-6a1 1 0 0 0-1 1z"/><path class="cls-5" d="M93 46c-2 3 1 8 2 12 2 4 6 8 10 9 6 3 10-2 15-4s11-4 15-8c1-1 0-2-1-2l-13 4a54 54 0 0 1-6 2h-6a18 18 0 0 1-9-5c-3-2-3-6-6-8a1 1 0 0 0-1 0zM29 75c-1 6 14 6 16 5 5-1 14-9 11-15a1 1 0 0 0-1 0c-5 2-5 10-11 11h-9l-6-1v1zM11 85c-2 8 0 18 3 26 3 7 8 17 16 21a11 11 0 0 0 11-1l4-3c1-1 2-1 4 1 3 2 5 6 10 6a7 7 0 0 0 6-7c0-2-2-4-4-2-1 1 1 0 0 0a7 7 0 0 1-2 0l-3-3c-3-2-5-4-9-5-3 0-6 2-8 4s-4 4-7 2l-7-8a64 64 0 0 1-5-10c-4-7-5-14-7-21 0-2-2-2-2 0zM107 133c2 9 15 12 23 9a25 25 0 0 0 11-9 28 28 0 0 0 4-6 35 35 0 0 0 1-3 15 15 0 0 1 1-3c0-1-1 0 0 0l4 3 3 2a34 34 0 0 0 7 4 25 25 0 0 0 17 0c5-2 9-6 12-10a51 51 0 0 0 4-7l1-3c1-1 3 1 4 1 5 3 11 3 17 0 5-3 9-9 8-15 0-3-5-4-6 0s-3 9-8 10-9-3-14-3-7 4-9 7c-3 4-5 9-9 11-4 3-9 4-14 2-6-1-9-5-13-8s-8-1-10 3l-3 6a21 21 0 0 1-3 6 17 17 0 0 1-13 6c-5 0-9-2-13-5l-2 2zM147 41a6 6 0 0 0-2 3 8 8 0 0 0 1 4c1 2 4 4 6 4a2 2 0 0 0 1-4l-3-2a12 12 0 0 1-2-4l-1-1z"/><path class="cls-5" d="M149 48c-7 5-8 16-1 21 4 4 20 3 18-5 0-3-4-2-4 0 1 4 5 7 9 9 4 1 10 0 13-4 3-3 4-9 2-13-1-4-4-9-8-9l1 3a9 9 0 0 0 2-7c0-2-2-2-3 0a8 8 0 0 1-1 4 2 2 0 0 0-1 2l4 6c1 3 2 6 1 8-3 6-12 5-16 1l1 2-3-3c-2 1-3 3-5 3s-6 0-8-2c-4-4-1-10 1-14a1 1 0 0 0-2-2zM176 92a9 9 0 0 0 3 11 13 13 0 0 0 6 2 10 10 0 0 0 4 0h3l-2-1 3 3a13 13 0 0 0 5 2c4 0 8 0 11-3 5-6 5-17-2-20l-1 4c4-1 7-5 7-9a2 2 0 0 0-4-1c-1 2-1 5-4 6a2 2 0 0 0-1 3 12 12 0 0 1 1 10c-1 3-3 3-5 3a5 5 0 0 1-4-2c-3-3-6-2-9-1-5 1-9-1-9-7h-2zM144 94c4-1 7-3 10-6a3 3 0 0 0 1-3 3 3 0 0 0-4-1l-9 7c0 2 0 4 2 3zM94 178c-4 1-5 4-6 7a43 43 0 0 0-3 12 40 40 0 0 0 1 12c0 3 1 6 4 7l1-1a74 74 0 0 1-1-18 47 47 0 0 1 2-10c1-3 3-5 3-9a1 1 0 0 0-1 0zM59 187l2 6 3 8a63 63 0 0 1 2 8c1 2 1 5 3 6a1 1 0 0 0 2 0v-7a62 62 0 0 0-3-9 44 44 0 0 0-4-7l-4-6-1 1z"/><path class="cls-5" d="M91 216a47 47 0 0 0 9-4l7-9c3-6 9-14 7-21a1 1 0 0 0-1 0c-1 7-8 13-12 20a20 20 0 0 1-7 7l-5 5 2 2zM136 222c3 2 8 1 12 0l10-4c3-2 4-6 4-9s-1-6 1-10a1 1 0 0 0-1-1c-3 0-3 2-5 4a10 10 0 0 0-1 3l-1 6c-1 3-7 4-10 5s-7 2-10 5a1 1 0 0 0 1 1z"/><path class="cls-12" d="M113 217c3 0 6-3 8-4a63 63 0 0 0 7-9c3-4 10-13 5-17a1 1 0 0 0-2 1c0 5-5 12-8 16l-6 7c-2 1-4 3-4 5v1zM176 205c3-2 5-6 6-10 1-3 2-8-1-11a1 1 0 0 0-1 0v11l-5 10h1zM45 173c-3 4-5 9-5 14-1 4 0 10 3 14a1 1 0 0 0 2-1l-1-12c0-5 2-9 3-14 0-1-1-2-2-1z"/><path class="cls-4" d="M76 141c4 1 4-5 7-6 6 0 7 6 10 9a1 1 0 0 0 2-1c1-5-4-11-9-12a9 9 0 0 0-7 1l-4 7a1 1 0 0 0 1 2zM76 159h-1a2 2 0 0 0-1 1c0 5 5 9 9 9 6 0 9-4 10-9h-2c-2 1-3 4-6 5-4 1-7-2-8-5a2 2 0 0 0-1-1zM84 93l-1 7a61 61 0 0 1-2 8c-1 6-4 10-6 15 0 1 1 2 2 1 4-4 6-9 8-15 1-4 3-11 0-16a1 1 0 0 0-1 0zM91 103c-3 2-2 9-2 12 1 4 2 9 6 12a1 1 0 0 0 1 0l-3-13a41 41 0 0 1-1-6v-5a1 1 0 0 0-1 0z"/><path class="cls-11" d="M73 72c2 8 20-7 21-12a2 2 0 0 0-4-2l-3 3a59 59 0 0 1-5 4l-4 4-5 2v1z"/><path class="cls-11" d="M92 58a47 47 0 0 0 4 9c1 2 3 4 6 4s4-4 1-5c-2 0-4-3-5-4a37 37 0 0 0-5-4 1 1 0 0 0-1 0zM74 71a6 6 0 0 0 3-1 1 1 0 0 0-1-1 3 3 0 0 0-1 0l-1 1a1 1 0 0 0 0 1zM46 83c2 2 4 1 6 0l5-5c0-2-2-4-4-3l-4 3c-1 1-4 3-3 5z"/><path class="cls-11" d="M50 81c1 5 5 10 8 14 4 4 7 9 12 12 1 1 3 0 2-1-2-5-6-10-9-14s-7-10-12-12a1 1 0 0 0-1 1zM75 173c2 5 11 8 15 2a3 3 0 0 0-3-4l-5 2c-2 0-4-2-6-1l-1 1zM106 116l12-8c4-2 9-4 12-7a2 2 0 0 0-2-3l-7 4-6 4c-4 2-9 4-11 8a1 1 0 0 0 2 2z"/><path class="cls-11" d="M129 100c2 2 5 2 7 3a31 31 0 0 0 8 2l9 1c3 1 6 0 8-1l1-2-8-1-9-1a45 45 0 0 1-9-2h-7a1 1 0 0 0 0 1zM129 86c1 3 4 3 6 4s5 1 7 0a2 2 0 0 0 0-4l-6-1c-2 0-4-2-6-1a2 2 0 0 0-1 2zM70 173c-1 5-2 10-1 15a19 19 0 0 0 3 6l3 6c1 3 6 3 5 0a88 88 0 0 1 0-16c0-3-3-3-4-1a21 21 0 0 0-1 9l4-1a10 10 0 0 1-2-8h-4a38 38 0 0 1 2 11c0 2 2 3 4 1 5-6 10-21 21-19l-2-3a74 74 0 0 0-8 37c0 2 3 3 4 1a45 45 0 0 1 5-9l5-7 1-9-1-11c0-3-4-4-4-1a180 180 0 0 1-5 23h4a74 74 0 0 1 3-15 2 2 0 0 0-5-1l-5 19 5 1a211 211 0 0 1 5-23c1-3-3-4-4-1a217 217 0 0 0-6 23c0 3 4 4 5 1l5-19-5-1a79 79 0 0 0-2 16c0 3 4 3 4 1a178 178 0 0 0 5-23h-4v19l-5 7a45 45 0 0 0-5 8l4 1a70 70 0 0 1 8-35 2 2 0 0 0-1-3c-14-3-18 13-25 20l3 2a41 41 0 0 0-2-12c-1-2-4-2-4 0a14 14 0 0 0 2 11c1 2 4 1 4-1a16 16 0 0 1 1-8h-4a76 76 0 0 0-1 16l5-1-5-11c-2-5-2-10-2-14 0-2-2-2-3-1z"/><path class="cls-11" d="M91 175a15 15 0 0 1 0-4l-2 1a7 7 0 0 1 1 2 2 2 0 0 0 4 0l1-4-3 1a24 24 0 0 1 1 4c0 3 4 2 4 0a18 18 0 0 1 3-7l-5-1 2 6c0 2 4 2 4-1a244 244 0 0 1 5-26l-6-1v37c0 3 5 3 5 0l1-37c0-3-5-4-5-1a235 235 0 0 0-4 28h4l-1-6a2 2 0 0 0-4-1 24 24 0 0 0-3 10l4-1a25 25 0 0 0-2-5c-1-2-3-1-4 0l-1 4h4a12 12 0 0 0-3-4 2 2 0 0 0-3 1 10 10 0 0 0 0 6 1 1 0 0 0 3-1zM84 176a39 39 0 0 1-6 9l4 2a35 35 0 0 0 1-9c0-2-3-3-4 0a58 58 0 0 0-3 8h5l-2-9a2 2 0 0 0-4 0l-1 8h4c-1-5-3-9-3-14 0-3-4-3-4 0l1 11h4c-2-5-1-10-2-14 0-5 0-9-2-13h-1c-2 5-1 10-1 15 0 4 0 9 2 13 1 2 4 2 4-1l-1-11h-4l3 15c0 3 4 2 4-1l1-8h-4l1 10c0 2 4 2 4 0a59 59 0 0 1 3-8l-4-1a30 30 0 0 1-1 8c-1 2 2 4 3 2a29 29 0 0 0 6-10c0-2-2-3-3-2z"/><path class="cls-4" d="M97 153l-1 11v11l1 21a1 1 0 0 0 1 0c2-7 1-14 1-21v-11l-1-11a1 1 0 0 0-1 0zM73 151c-2 6-1 12-1 17l1 18a1 1 0 0 0 2 0l-1-18-1-17zM96 71l-1 14v15a1 1 0 0 0 2 0V85c0-5 1-10-1-14zM77 78c-2 5-1 11-1 16l1 8 1 6a1 1 0 0 0 1 0v-7-8c-1-5 0-10-2-15zM58 80c-1 2 2 6 3 8a62 62 0 0 0 7 7c2 2 5-1 3-2a94 94 0 0 1-7-8c-2-1-4-5-6-5z"/><path d="M83 161v-8c1-2 4 1 4 3a4 4 0 0 1-2 2h-1c1 0 0 0 0 0a18 18 0 0 0 1-2h-1v1a7 7 0 0 0 1 3h3v-5a5 5 0 0 0-2-3c-3-2-5 1-6 3s-2 6 1 8 6 0 8-2c4-4 3-12-3-13-3 0-6 1-7 4 0 3 0 7 2 10a1 1 0 0 0 2-1z" fill="#b35b3d"/><path class="cls-14" d="M127 161c0 9 21-4 23-6l-4-5c-3 3-12 8-6 13s10-4 13-8l-5 1 6 7c3 3 7-1 5-4l-7-8a3 3 0 0 0-4 1l-3 4-1 1c0 1-1 2 0 0v3h1l2-2 3-4c3-2-1-6-4-4a62 62 0 0 1-9 7c-1 0-8 5-10 4zM175 156a25 25 0 0 0 10-4c3-2 7-4 8-7 2-3-1-6-4-5s-5 5-8 7l-8 5a2 2 0 0 0 2 4z"/><path class="cls-14" d="M189 142c-4 2-4 6-4 10a5 5 0 1 0 9-1c-1-3 0-6-2-8a3 3 0 0 0-3-1z"/><path class="cls-14" d="M189 143c-1 3 2 6 3 8l6 6c4 2 8-4 4-6-5-2-7-9-12-10a1 1 0 0 0-1 2zM28 162c2 1 6 0 9-1s7-4 8-7c1-4-2-7-5-6l-5 4a48 48 0 0 0-4 3c-1 1-5 5-3 7z"/><path class="cls-14" d="M40 150l-1 5a40 40 0 0 0-1 5c0 4 5 4 6 1a17 17 0 0 0 0-6l-1-5a2 2 0 0 0-3 0z"/><path class="cls-14" d="M39 152a11 11 0 0 0 1 3v-2a6 6 0 0 0 0 4v-3c0 5 4 9 7 12 2 1 6 1 8-1s3-6 1-8c-3-4-8-8-13-7h2a6 6 0 0 0-3 0h2a10 10 0 0 0-3 0 2 2 0 0 0-2 2z"/><path class="cls-15" d="M10 156c-1 5 3 11 8 8l18-12a45 45 0 0 1 9-4 11 11 0 0 1 1 0 6 6 0 0 1 1 1l4 4 8 9 4 3 4 2a2 2 0 0 0 2-2l-2-4-1-4-8-8c-4-5-8-11-16-9-6 1-12 5-17 9a70 70 0 0 0-8 6l-3 3v1a1 1 0 0 1 0-1l-1-2a1 1 0 0 0-3 0zM108 170c11-2 19-10 28-16 4-3 9-6 14-6l3 1 2 4 5 8a4 4 0 0 0 6 0 51 51 0 0 1 9-12c3-3 8-8 13-9 3-1 5 1 8 3l8 5 8 4 2 5a3 3 0 0 0 4 2c3-1 4-4 3-7s-4-5-6-7l-12-7-10-6c-7-1-14 5-19 9a71 71 0 0 0-14 17h6l-6-10c-1-3-2-5-5-7-5-2-12 2-17 4l-14 11-18 12c-1 1 1 3 2 2z"/><path class="cls-5" d="M112 20a17 17 0 0 0 1 10c1 2 3 5 6 6a2 2 0 0 0 2-1c1-3 1-6-1-9a17 17 0 0 0-6-7c-1-1-2 0-2 1zM118 19a9 9 0 0 1 2 1 19 19 0 0 1 2 2l1 2a9 9 0 0 0 3 1 1 1 0 0 0 1 0c2-3 0-6-2-7a8 8 0 0 0-3-2 10 10 0 0 0-4 0c-2 0-2 3 0 3zM103 18c-2 4-3 8-3 13 0 1 1 2 2 1 3-4 4-8 5-13a2 2 0 0 0-4-1zM32 57c-2 2-2 4-3 7a8 8 0 0 0 0 6 2 2 0 0 0 2 1 8 8 0 0 0 4-6c1-2 2-4 1-7a3 3 0 0 0-4-1zM38 58a9 9 0 0 0 1 5 7 7 0 0 0 0 2 9 9 0 0 0 2 1 1 1 0 0 0 1 0 6 6 0 0 0 1-2 11 11 0 0 0 0-2 8 8 0 0 0-2-4 1 1 0 0 0-2 0zM33 101c-2 2-2 5-2 7-1 3-1 5 1 7a2 2 0 0 0 2 0c2-2 1-4 2-6l1-7c0-2-3-3-4-1zM39 104a5 5 0 0 1 1 2 5 5 0 0 0 1 2c2 0 2-2 2-3a5 5 0 0 0-3-3c-1-1-2 1-1 2zM32 99a4 4 0 0 0-6 1 2 2 0 0 0 0 1v0a4 4 0 0 0-1 2 3 3 0 0 0 1 2 1 1 0 0 0 3 0v-1-1c0 1 0 0 0 0v1-1h1l1-1c1 0 0 0 0 0a2 2 0 0 0 1-1 2 2 0 0 0 0-2z"/><path class="cls-16" d="M105 174c0 5 1 10-1 15l5 1a42 42 0 0 1 5-11l-2 2c3 0 2 11 2 13a52 52 0 0 1-3 15c-1 4 4 5 6 2 2-8 10-13 12-21a40 40 0 0 0 0-5l4 5a37 37 0 0 1 6 15l4-3c1 1 5-1 6-2a129 129 0 0 1 20-5l-4-3c-1 8-7 15-2 23 2 3 7 0 5-3s-1-6 0-10c1-3 3-6 3-10 1-2-2-3-4-3a107 107 0 0 0-20 7c-3 1-12 4-8 10 2 3 6 1 5-2a41 41 0 0 0-7-18c-2-3-8-11-12-5-2 2-1 5-1 8s-2 5-4 7c-3 4-7 8-9 13l6 2a53 53 0 0 0 3-16c0-4 0-10-2-15-1-2-5-5-7-3l-4 5a43 43 0 0 0-3 7c-1 3 4 4 5 1 2-5 1-11-1-17a1 1 0 0 0-3 1z"/><path class="cls-16" d="M166 213c8 0 9-10 11-16s5-14-1-19l-1 3c7 0 14 5 15 13 0 2 4 4 5 1a7 7 0 0 0 1-6l-2 4c5-3 9-9 13-14s8-11 9-17a3 3 0 0 0-5-3c-5 4-7 10-11 15l-10 15a3 3 0 0 0 0 3v1h5c-2-9-11-16-20-16-2 0-3 2-2 4 5 3 2 11 0 15-1 5-3 13-8 15a1 1 0 0 0 1 2zM19 167c-1 3 2 6 3 8l6 11a3 3 0 0 0 5-1c2-8 10-14 18-13l-2-3-4 15c-1 5-1 10 1 14 3 7 11 12 18 15 1 1 4-1 3-3a119 119 0 0 0-13-27l-3 4a19 19 0 0 1 13 2 2 2 0 0 0 3-2 103 103 0 0 1 0-18c1-3-4-4-4 0v18l3-1a31 31 0 0 0-15-4 3 3 0 0 0-2 3 113 113 0 0 1 14 27l3-3c-5-3-12-6-15-12-2-4-2-9-1-13a57 57 0 0 1 4-13 3 3 0 0 0-3-4c-10-1-21 6-23 17l5-1-7-11c-1-2-3-5-6-5a1 1 0 0 0-1 0z"/><path class="cls-16" d="M167 209l-1-1v3a38 38 0 0 0 7-6c3-2-1-6-3-4a37 37 0 0 0-7 7c-1 3 3 4 4 1 0 2 0 0 0 0z"/><path class="cls-15" d="M223 108c-2 3-2 6-2 10l-2 11-3 12-3 12c0 3 5 4 7 2l4-12 2-12a62 62 0 0 0 1-12c0-3 0-8-2-11a1 1 0 0 0-2 0zM7 93c-3 5-2 12-2 17a117 117 0 0 0 1 18 122 122 0 0 0 9 34c2 4 8 0 6-4a121 121 0 0 1-10-32 118 118 0 0 1-1-16v-9-7a1 1 0 0 0-3-1z"/><path class="cls-8" d="M53 72l11 15a67 67 0 0 0 7 8c1 1 3 0 2-1a65 65 0 0 0-6-9L54 71a1 1 0 0 0-1 1zM47 83l10 13c3 5 7 9 12 12 1 1 2 0 2-1L60 94a157 157 0 0 0-12-13c0-1-2 1-1 2zM105 101c9-7 19-11 28-18 1-1 0-2-2-2-9 6-18 11-26 19v1zM104 117c9-3 17-8 24-14l-2 1 5 1h5l13 2 23 3c2 0 2-3 0-3-4-2-10-3-15-3l-19-2-8-1c-3-1-4-1-6 1-7 5-14 9-20 15-1 0 0 1 0 0z"/><path class="cls-8" d="M138 94c6 0 12 4 18 7l16 8v-1l-17-10c-5-3-11-6-17-6a1 1 0 0 0 0 2z"/><path class="cls-8" d="M139 94l7-5 7-5a1 1 0 0 0-1-2l-7 4-8 5c-1 1 0 4 2 3zM104 118zM69 216a56 56 0 0 0-12-32l-1 3a23 23 0 0 1 14 7 23 23 0 0 1 4 6l2 6a1 1 0 0 0 2 0c2-5-3-12-7-15a26 26 0 0 0-15-7c-1 0-2 1-1 2a53 53 0 0 1 12 30h2z"/><path class="cls-8" d="M77 208c3-6 4-12 8-18s8-9 13-14c1 0 0-2-1-1-6 2-11 8-15 14s-6 12-6 19a1 1 0 0 0 1 0z"/><path class="cls-8" d="M91 217a71 71 0 0 1 4-32l4-11h-1l-5 8a64 64 0 0 0-3 12 74 74 0 0 0 0 23h1z"/><path class="cls-8" d="M92 213c10-8 17-19 22-31l-2 2c2 0-2 20-3 23 0 6 0 13 4 18 2 2 4 0 3-1a29 29 0 0 1-3-13 76 76 0 0 1 1-14c1-4 5-16-2-17a2 2 0 0 0-2 2c-4 11-11 21-19 30a1 1 0 0 0 1 1z"/><path class="cls-8" d="M117 212c-1-1 2-3 3-3a32 32 0 0 0 2-2 27 27 0 0 0 6-7 34 34 0 0 0 5-16l-4 1a50 50 0 0 1 6 17v18h1c5-11 2-27-4-37a2 2 0 0 0-4 1c0 8-3 15-9 21-1 1-4 3-4 6 0 1 0 2 2 2v-1zM104 115l-1 36 1 37a1 1 0 0 0 2 0l1-37-1-36a1 1 0 0 0-2 0zM67 109l-1 41 1 41a1 1 0 0 0 3 0v-41c0-14 1-27-1-41a1 1 0 0 0-2 0zM79 159v-16c1-3 3-5 6-4s5 3 5 6c1 5 1 12-2 15-2 2-5 4-7 2s0-4-1-6a1 1 0 0 0-1-1c-3 0-3 4-2 6a7 7 0 0 0 7 5c9 0 11-12 10-19-1-6-6-14-14-11-3 2-4 6-4 9 0 5 0 11 2 15a1 1 0 0 0 1-1z"/><path class="cls-8" d="M76 135a10 10 0 0 1 11-4c4 1 5 4 7 8a1 1 0 0 0 1-1c1-4-4-8-8-9a11 11 0 0 0-12 5l1 1zM75 171c4 5 12 5 15-1a1 1 0 0 0-2-1c-3 4-9 5-12 1l-1 1zM106 100a104 104 0 0 0 0-17l-1-17a1 1 0 0 0-2 0v17l1 17a1 1 0 0 0 2 0zM73 93a134 134 0 0 0 1-13c0-4 1-9-1-12a1 1 0 0 0-1 0c-2 3-1 8-1 12a137 137 0 0 0 0 13 1 1 0 0 0 2 0z"/><path class="cls-8" d="M51 54a22 22 0 0 0 20 16 22 22 0 0 0 14-4c4-3 9-8 10-12a2 2 0 0 0-2-2l-4 4a37 37 0 0 1-5 5c-3 4-7 6-12 6a21 21 0 0 1-20-13 1 1 0 0 0-1 0z"/><path class="cls-8" d="M91 45c-1 10 4 20 14 23a19 19 0 0 0 14-1l17-11c2-1 0-4-2-3l-12 8c-4 3-9 5-13 5-10-2-16-11-16-20 0-2-2-2-2 0zM11 92c-1 8 1 17 3 25 3 8 8 14 16 17 3 1 7 2 11 0l4-3c2-2 2-1 3 1a19 19 0 0 0 3 2c3 3 7 5 11 4s8-4 7-8c0-2-2-2-3-1l-4 5a8 8 0 0 1-7-2c-3-1-4-6-8-7-3 0-5 4-7 5-3 2-8 1-11 0-7-3-10-9-13-17-2-6-5-14-4-21h-1zM106 137c6 7 18 10 27 6 8-3 14-12 16-20l-3 1a30 30 0 0 0 52-14l-3 1a18 18 0 0 0 31-12c1-2-2-2-2 0a15 15 0 0 1-26 10 2 2 0 0 0-3 0c-2 10-9 18-19 21s-21-1-27-9a2 2 0 0 0-3 1c-2 7-6 15-13 18-9 4-20 2-26-4a1 1 0 0 0-1 0zM29 80l11 2a15 15 0 0 0 9-2c5-3 9-8 12-14a2 2 0 0 0-3-1c-3 4-6 10-11 13-6 3-12-1-19 1a1 1 0 0 0 1 1zM33 187a22 22 0 0 1 16-14l-2-2c-3 9-8 24 1 32l2-1c-3-5-4-9-4-14 0-6 2-11 4-16l-2-2a25 25 0 0 0-17 16c0 2 2 2 2 1zM142 206a79 79 0 0 1 23-9l-1-2c-3 4-5 10-3 15a1 1 0 0 0 1 0c0-5 0-10 4-13 1-1 0-3-1-3a57 57 0 0 0-24 12h1zM79 78a273 273 0 0 0 0 33 1 1 0 0 0 1 0 273 273 0 0 0 0-33 1 1 0 0 0-1 0zM93 104c-3 10-2 23 5 32l2-1c-4-10-7-19-5-30 0-2-2-2-2-1zM76 184c0 4 0 9 2 13h2l-1-13c0-2-3-2-3 0zM77 126c7-8 12-21 10-32h-1l-3 17a49 49 0 0 1-7 15h1zM97 71l-1 14 1 15a1 1 0 0 0 2-1l-1-14V71h-2zM108 106l18-12v-1c-7 3-13 7-18 13-1 0 0 1 0 0zM174 205a24 24 0 0 0 5-23l-1 1c6 1 9 5 11 11a1 1 0 0 0 2 0c0-7-6-12-13-13l-1 1a23 23 0 0 1-3 22v1zM108 173l9-4 8-5 16-10c3-1 7-5 9-3l6 7 6 8 7 7a1 1 0 0 0 2-2l-5-8-8-9c-3-4-6-11-12-7-7 3-13 8-20 12l-10 6-9 6a1 1 0 0 0 1 2z"/><path class="cls-8" d="M163 165a172 172 0 0 1 24-21 12 12 0 0 1 2-2l4 2 8 6c4 4 8 8 13 10a2 2 0 0 0 2-2c-4-6-11-10-16-14-4-3-8-8-13-5-10 6-19 15-26 25l2 1zM20 166l11-9 7-4a23 23 0 0 1 2-3c2-1 2 0 4 1l10 10c3 3 6 7 10 8 2 1 3-1 2-2-1-3-3-5-5-6l-7-7-6-5-5-4c-4-1-8 4-10 7l-14 12c-1 1 0 2 1 2zM126 76c1 7 8 10 14 11 8 0 15-4 20-9a2 2 0 0 0-2-2c-5 4-11 8-17 7s-10-3-14-7a1 1 0 0 0-1 0zM164 56c-4-1-4-6-4-9l4-5a4 4 0 0 1 4 3v7c0 3-2 3-5 4a1 1 0 0 0 0 2c5 1 7-4 8-7 1-4 0-9-4-11-10-4-14 17-3 18v-2z"/><path class="cls-8" d="M156 49c-8 1-13 10-7 16s15 2 16-6h-2c0 9 11 13 17 7s1-18-8-17a1 1 0 0 0 0 2c8 1 13-9 7-15-5-5-15-3-15 5h2c0-4-2-9-6-11a9 9 0 0 0-11 2c-7 7 0 18 9 20v-2c-6-2-12-9-8-15a7 7 0 0 1 10-3c3 2 4 6 4 9a1 1 0 0 0 2 0c0-6 8-7 11-3 5 5 0 11-5 11v2c6 0 11 7 6 12s-12 2-13-4a1 1 0 0 0-2 0c-1 6-8 9-12 4-5-4-1-12 5-12v-2zM191 89c-1-2-1-7 2-8a5 5 0 0 1 6 1 5 5 0 0 1 0 6c-3 3-5 2-8 1a1 1 0 0 0-1 2c3 3 9 1 11-1a8 8 0 0 0 0-10 7 7 0 0 0-9-1c-3 2-4 8-2 11l1-1z"/><path class="cls-8" d="M189 84l-4-3a7 7 0 0 1-1-7c1-2 4-3 6-2 3 0 5 3 6 5 0 2 2 2 2 0 0-6 8-7 10-2s-2 9-6 10v3c4 2 6 9 1 12s-11-1-8-7l-3-1c-1 6-8 9-12 4s1-12 7-11c2 1 3-2 1-2-8-2-15 7-10 14s16 4 17-4c0-1-2-3-3-1-3 7 4 14 11 11 8-4 6-13 0-17l-1 2c8-2 12-10 7-16-4-6-14-3-13 5h2c-1-4-3-7-7-8-3-1-6 0-8 2-5 5 0 13 6 14a1 1 0 0 0 0-1z"/><path class="cls-8" d="M224 115c0 45-29 87-72 102-43 16-91 2-121-33S-1 98 22 59C46 20 92 0 137 9c44 9 78 45 85 89a110 110 0 0 1 2 17c0 5 7 5 7 0-1-48-31-92-76-108S57 5 26 42s-35 91-10 133c26 41 75 63 122 53 47-9 84-48 91-95a123 123 0 0 0 2-18c0-4-7-4-7 0z"/></g></g></svg>