<svg xmlns="http://www.w3.org/2000/svg" viewBox="0 0 381.4 719.7"><defs><style>.cls-1{fill:#00ac60}.cls-2{fill:#f7f7f7}.cls-7{fill:#fff;font-family:NotoSansCJKtc-Bold-B5pc-H,Noto Sans CJK TC;font-size:35.29px}</style></defs><g id="Layer_2" data-name="Layer 2"><g id="圖"><path class="cls-1" d="M0 585.9l381.4-84.3V0L0 84.4v501.5zM0 666.2l381.4-73v-54.3L0 611.9v54.3zM0 719.7l381.4-73v-30L0 689.7v30z"/><path class="cls-2" d="M157.2 160.3l15.1-.3c.3-2.3.1-4.6.7-7l11.6.5v6.6h10.7l6.2.3v1.4l-.1 20.6.2 13.1c0 2.8 0 2.9-2.9 3.2a20.2 20.2 0 0 1-6.2-.3c-2-.4-4.2-.1-6.4-.1.2.7.7.9 1.2 1a11.2 11.2 0 0 0 5.8.7 6 6 0 0 1 2 .2v9.6c-3.9 0-7.5.3-11.1-.4a11.5 11.5 0 0 1-5-2.6 11 11 0 0 1-3.4-3.7 12.3 12.3 0 0 1-1.2-3.6l-.3-1.6h-16.6a10.6 10.6 0 0 0 .8.7c1 .7 1 .9.3 1.8l-4.8 6-3.3 4.2a5.8 5.8 0 0 1-2.5-2.2 14.8 14.8 0 0 0-4.8-3.7l-2.2 1.8a17.3 17.3 0 0 1-5.2 3c-1.7.6-2.1.5-3.2-.9l-6-7.8 1.9-1.3a48.3 48.3 0 0 0 12.1-10.1 113.5 113.5 0 0 0 8.1-10.7 2.8 2.8 0 0 1 .5-.4l5.4 3.3a1.7 1.7 0 0 1 1 2 15.7 15.7 0 0 1-2.6 10.5l-.5.9 4.5 2.7v-1.1-34.2l.2-2.1zm34 16.7v-8h-6.5v8zm-22.7-8v7.8a12.6 12.6 0 0 0 4.6.1c-.2-2.7.7-5.3 0-7.9zm16.3 16.3v3.2h6.6v-2c0-1.4-.4-1.7-1.8-1.4l-3.1.2h-1.8zm-12.5 3.2l.3-2.5c.1-.8-.1-1-.8-1h-3.3v3.6z"/><path class="cls-2" d="M225 204.2c0 1.8.8 3.4-.4 5-1.4.1-3 .3-4.6.3l-17.6.4h-.6c-1.9 0-1.9 0-2-1.9 0-.8.2-1.6-.5-2.3v-.6-4.9h1.4a2.4 2.4 0 0 0 2.7-2.4 15.4 15.4 0 0 0 .1-2.1v-10.8c3.7-.5 7.2.3 10.7 0s7 .4 10.6-.3c.2-2.6.4-5.2.4-7.8a13.2 13.2 0 0 0-.2-4.4 14.8 14.8 0 0 1 0-4c1.2-1 2.6-.8 4-.7a26.6 26.6 0 0 0 0-5.8l1-.6c-.5-3.4-3-6-3.8-9.4l9-4.6 4.1 11.6 4-9.8 10 4.7c.4 2.3-1 4.3-1.7 6.6l3.4.4c.3 4.5-.3 9-.6 13.4l-.7 13.5H250a9 9 0 0 0-.4 5.6c.3 1.5 3 2.8 4.5 2.3a2 2 0 0 0 .8-.8 6.3 6.3 0 0 0 1.2-3.7v-2.9c2.6 1.5 5.2.4 7.8 1l.1 1 .3 10.8v.6c-.8 1-.3 2.3-.7 3.6a7.8 7.8 0 0 1-1.5.3H248a3.9 3.9 0 0 1-2.7-1l-2.6-2.3a7.6 7.6 0 0 1-2.2-6.4v-1l-.8 1.7-4 8.2a12 12 0 0 1-2.1 2.7 3.2 3.2 0 0 1-4.9.2l-3.5-3.4zm10-33.6v7.5l10.2 1a19.6 19.6 0 0 0-.2-7.9zm-17.7 22.6l-8.9.4-.7 5.6c3.4 0 6.4 1 9.7.3zm7.7-7.2a30 30 0 0 0-.3 8.4c3-1.4 4.4-4 5.4-7.2l-1.8-.2c-.9 0-2 .2-2.6-1h-.7zM145.1 159h10.2v10h-4l-.5 8.3-1.4-.7c-.8-.4-1.2-.3-1.7.5a89.2 89.2 0 0 1-7.6 10.5 62.9 62.9 0 0 1-12.1 10.6 4 4 0 0 1-1.2.5l-4.6 1.3a1.2 1.2 0 0 0-.7.8 27.8 27.8 0 0 0-.4 3.5v3.6a40 40 0 0 1-9.7.2c-1.4-6.4-1.3-13-1.8-20-1.7 4.4-.6 8.6-1.2 12.8-2 0-4 .5-5.7-.1l-5-1.6.6-3a72.2 72.2 0 0 0 1.2-7.4c.4-3.1.7-6.3 2-9.3a16.8 16.8 0 0 0 .6-2.4l-2.6-.1a15.8 15.8 0 0 1-.9-4.9l-.2-4.5a12.4 12.4 0 0 1 .3-2l7.5-2a28 28 0 0 0-1.5-7 4.5 4.5 0 0 1-.3-3.3l4.6-.3 7.8-.1h1a1 1 0 0 1 1 1v2l.6 6 .2 2.4c0 2.2.2 4.3.3 6.5.1 1.3.3 1.4 1.7 1.3h2.2v2.4l-4.4.6v3.2h3.8c.6 2 .4 8.7-.3 10.5l-3 .2v2.5a20.8 20.8 0 0 0 7.4-2.8l1-.7c1.6-.8 1.6-.8 2.6-2.7-2-.6-3.9 0-5.7-.3-.5-1.4-.8-10.6-.4-13.9h-4.2c-.2-3.4-1-6.6 0-9.9h7v-8.7c1.7-.5 13.6-.4 17.1.1.5 2 0 4.2.4 6.5zm-10.6 18.6a6 6 0 0 1 1 0 2.9 2.9 0 0 0 3-1.3l3.2-5.3c.2-.4 0-1 0-1.6a24 24 0 0 0-7.2.1c.7 2.7-.2 5.3 0 8.1z"/><path class="cls-2" d="M74.3 159l-2.8 1.4v.3a6 6 0 0 0 1 .1h12.7a5.4 5.4 0 0 0 1.8-.2 13 13 0 0 1 4.6-.5h5.3l6.1.2.3 2.6-5.6 2.3c-1.7.6-1.7.6-1.5 2.3l1 9a9 9 0 0 0 1.3 3.3 2.8 2.8 0 0 1 .3 2.2l-2.3 11.9-1 6a1.7 1.7 0 0 0 1.4 2.2l3.6 1.1a31.5 31.5 0 0 1 .3 8c0 1.2-.4 1.4-1.6 1.4l-7.5.3-2 .2-2.8.2-.4-6.4 4.1-.3a6.7 6.7 0 0 0 .2-1l-.2-26c0-2.3-.3-4.5-.4-6.7a4.2 4.2 0 0 0-.3-.8H77.5l-9.8.2-15.1.1-3 .3v26.6a5.7 5.7 0 0 1-.4 3.2 3.8 3.8 0 0 0-.1 2.2 1.7 1.7 0 0 1-1.2 1.9l-6.4 2.6c-1.4.5-2.1.4-4-.3v-3c.2-2 .7-4 .2-6a7 7 0 0 1 0-1.7v-23.6l-.3-10V162l2.3-.2a4.8 4.8 0 0 1 .8.1 6.9 6.9 0 0 0 5.6-1.6c4.6-3.7 9.5-7 14.3-10.6l2.3-1.8a13 13 0 0 1 1.8-1.3c1-.5 1.6-.3 2.3.7l6.8 9a2.6 2.6 0 0 1 .7 2.6zM289.2 190.5a1.7 1.7 0 0 0-.5 2.4 10.4 10.4 0 0 0 3.5 4.1 2.9 2.9 0 0 1 1.4 2.8v6.6l-.1 1.7c-4.1.7-7.7-.4-11.4-2.1a115.8 115.8 0 0 0-1-19.2 102 102 0 0 1-14.9 8V189c0-1.7-.1-1.9-1.8-1.8l-6 .5-2.8-4.3c9-4.1 17.5-8.9 24.5-16.4H262c-.2-3.8 0-7.5-.1-11.3h8.1c6 0 12-.5 18-1l6.6-.3h12l4 .3v10.9c-1.7 1.2-3.5 1-5.3 1H298l-2.8 5.9-1.2 3a.7.7 0 0 0 .1.6c1.3 1.2 1.7 3 3.3 3.9 2.3 1.3 4.4 3 6.7 4.3a18.7 18.7 0 0 0 9.4 2.6l1.5.1c-1.7 4-4.4 7.4-6.2 11.4-3.7.4-7.3-.5-10.8-1.4-3.8-1-6.1-4-8.8-6.6z"/><path class="cls-2" d="M51 208.8v-35.3l37.5.5a21.7 21.7 0 0 1 .3 2.3l-.2 27.8-.1 1.5a30.7 30.7 0 0 1-3.8.2 26.3 26.3 0 0 0-6.4.8c-4.3.8-8.8 1-13.1 1.7s-8.5 0-12.7.6a10.1 10.1 0 0 1-1.6-.1zM65.5 195l11.2-1.9v-6.5l-11.9.2.7 8.2zM339.5 184.7c-4.4.6-8.7.2-13 .3a12.1 12.1 0 0 1-.2-1.4v-8.4c0-1 .5-2 .6-3 .3-3.7.4-7.3.8-11l1.2-12.2c.1-.8.6-1.2 1.5-1.2 2.9 0 5.8-.1 8.7.9a91 91 0 0 0 5.6 1.7 1 1 0 0 1 1 1.1v4.9a1.8 1.8 0 0 1-.3.9 12 12 0 0 0-1.5 4.9 66 66 0 0 1-3.7 15.3 7 7 0 0 0-.3 1.9l-.4 5.3zM227.4 156.6a3.5 3.5 0 0 1 .3.4c0 2.5 0 5 .2 7.5.1 1.8-.7 2.3-2.4 2.2l-8.4-.3-7.5-.1c-1.8 0-3.6-.3-5.4-.5l-.7-6c6.3-.4 12.6.6 18.9-.5l.2-2.8zM325.2 190.6h11.2l.1 1.2v9c0 1.7-.3 2-2 2h-8.1l-1.5-.1-.1-1.5V193a13.5 13.5 0 0 1 .4-2.3z"/><path class="cls-2" d="M220.8 158.1h-9.2l-5.1.3a2 2 0 0 1-2.2-2c0-2.2.3-4.3.5-6.6a75 75 0 0 1 16.1 0c.6 2.8-.4 5.5-.1 8.3zM222.4 176.8v3l-.1 2.8-18.4.7v-7.2zM203.7 174.3l.4-7.3 17.8 1.1v5.5zM126.6 446.2a23.8 23.8 0 0 0 5.9-3.2 63.4 63.4 0 0 1 6.1-3.7l8-4 2.6-1.1a6.8 6.8 0 0 0 .7-.3 4 4 0 0 0-1-2.4l-4 2.2-8.2 4-2 1a2 2 0 0 1-.8.3H130l-.2-.2-.3-8.1a41.4 41.4 0 0 1 .5-4.7 8.5 8.5 0 0 1 1.1-.1H142c7 .3 14 0 21 .1H176.7c0 4-.4 8-.5 12a4 4 0 0 1-2.2.8 14.3 14.3 0 0 0-3 1.1 27.3 27.3 0 0 0-4.1 2.8l5.8 4.5a5.3 5.3 0 0 1 .8.7 13.4 13.4 0 0 0 4 3.4c-1.2 1.2-2 2.6-3.4 3.6a3.1 3.1 0 0 0-.6.6 38.7 38.7 0 0 1-6.7 7c-.8.6-1.1.5-2-.2-1.7-1.6-2.9-3.7-4.4-5.6l-1-1.3-2 1.5.3.7 4.5 6a2.4 2.4 0 0 1 .4 1.2v11.8a4.2 4.2 0 0 1 0 .5l-1 .1h-8.8l-1.7-.2-4-.3h-2.4a18.6 18.6 0 0 1 0-4.6 37 37 0 0 0 1.1-7.3 65.5 65.5 0 0 1 .7-6.6l.9-6.5-4.6 2.3a150 150 0 0 0-3.6 1.8l-5.2 2.9c-1 .5-1.1.5-1.7-.5l-4.9-9a10 10 0 0 0-.7-1zM361 456.8l-.2 3.3-.4 6.8-9.2-.1a385 385 0 0 1-.2-24.8 72.7 72.7 0 0 1 10-.3zM275.3 431.8v-5a4 4 0 0 1 1-.3h8a43.5 43.5 0 0 1 0 8h-8.2v3c1.3.3 2.7-.1 4 0h4.3v8h-2.6v7.1l-.2 1.5v3.1a1.6 1.6 0 0 1-2-.5l-2-2a12.2 12.2 0 0 0-1.1.7l-7 5.5c-1.1 1-2 1-3-.2l-2-3-1.6-1.9-.8-1h1l8-.3a4.8 4.8 0 0 0 1.4-.4v-2.4a8.8 8.8 0 0 0-1-.1h-17.9a31.2 31.2 0 0 0-3.3.4c-.6 1 0 1.7.2 2.4l9.6.2a2.2 2.2 0 0 1 0 .2 5.2 5.2 0 0 1-.7.8l-2.6 1.5a6.2 6.2 0 0 0-2.2 2 3.1 3.1 0 0 1-1 .8 1.1 1.1 0 0 0-.6 1.3l.5 3.5a15.8 15.8 0 0 0 2.1 6 2.8 2.8 0 0 0 1.4 1.4c2.6 1 5.3 1.5 8 .4a11.4 11.4 0 0 0 3.8-2.8l1.2-1c2.3 2.7 4.2 5.7 7.2 7.8-1.7 2-3.2 3.7-4.9 5.4a9 9 0 0 1-6 2.7 43.5 43.5 0 0 1-5.6.1 38.6 38.6 0 0 1-5.5-1 20 20 0 0 1-3.2-1 14.4 14.4 0 0 1-4.2-2.9 4.3 4.3 0 0 1-.6-.8l-.4-.7a13.9 13.9 0 0 1-2.6-6.9c0-.7.2-1.3 0-2l1.6-2.2 4.5-5.3a4.6 4.6 0 0 0-1.9-2 13.8 13.8 0 0 1-3.2-2.9c-.6-.6-1-1.4-2.1-1.2l-.8-.4-.2-9.7h-3.4a42 42 0 0 1 0-8h7v-3h-7.1c-.2-2.7 0-5.3-.1-8.1h8.7c.3 1.8 0 3.5.2 5.3zm-24.8 14.8h22v-2.5l-.6-.1c-6.6 0-13.1-.2-19.7.4-1.8.2-1.8.3-1.7 2.2zm15.8-12h-10.6v2.9h10.6zM300.1 454.9a25 25 0 0 1-7 .2v-1.5-8.3c0-1.7-.3-3.4-.4-5.1s0-3.7 0-5.7l3 .3c2.3.1 4.5.2 6.7.1a36.3 36.3 0 0 0 3.8-.5v-2.6h-11a31 31 0 0 1 .4-8.4H339a6.7 6.7 0 0 1 0 .9c0 2.2-.1 4.5-.3 6.7 0 .9-.2 1-1.2 1a33.9 33.9 0 0 1-3.9-.1 35.1 35.1 0 0 0-4.9 0h-.2l-.4 2.6.7.1 11.8.2h1.1c.7 1.4 0 16.3-.6 19.5l-6.3.2c-.3-.5-.4-1-.7-1.2a2.6 2.6 0 0 0-1.4-.3h-12c-6.4 0-12.6.2-19 .3-1.4 0-1.4 0-1.6 1.6zM333 447l.2-5.8h-5v5.8zm-26.9 0c0-2 .2-3.8.3-5.7h-4.5v5.7zm9.3-5.8v5.8h3.6v-5.8zm4.1-6.7l.3-2.8h-4.2v2.7zM187.4 478.8h-7v-1-52c0-2.5.1-2 2-2h5.1l.3 1.4h30v-1.5c0-1 0-1 1.1-1.1s1.9 0 2.8 0l6.6.2a9.7 9.7 0 0 1 1.3.2v52.2a4 4 0 0 1-1.6 3.6 37.7 37.7 0 0 0-3.4 3.3 2.3 2.3 0 0 1-1.6.7l-8.3.8c-1.4.2-3 .2-4.4.3l-4.8.5a1.8 1.8 0 0 1-.4 0V478a19.5 19.5 0 0 1 2.2-.3h11a4.5 4.5 0 0 0 2.8-.9c1.7-1.2 1.7-1.2 1.7-3.2v-36.7a25.6 25.6 0 0 0-.2-3c0-1-.4-1.1-1.4-1.1h-32.5a1 1 0 0 0-1.1 1 13.7 13.7 0 0 0-.2 1.5v39.5z"/><path class="cls-2" d="M190.8 475.8c-1.2-1.6-.8-3.2-.8-4.8V450l30.2-.5c.3 1 .4 24.8.1 26h-4.8c-2.9 0-5.8-.1-8.7.1-5 .4-10 .1-15 .3zm11.2-11.9h7.6a9 9 0 0 0 .1-4.2H202zM311.8 485.2v-16.7h-2.4l-.3 12.8a3.2 3.2 0 0 1-.7.2l-8.7-.1a2.5 2.5 0 0 1-.5-.1c-.3-2.1-.2-4.3-.4-6.5s-.1-4.3-.2-6.6c-1.6-.2-3.3.3-4.7-.6l-.1-.2-.4-6.4a8.2 8.2 0 0 1 0-1 72.8 72.8 0 0 1 10.3 0 12.3 12.3 0 0 1-.2 3.5h27V460h9.5c1.3 0 1.6.3 1.6 1.6v1.3l.1.5c.8.3.6 1 .6 1.4v2.5a2 2 0 0 1-.1.3 3.6 3.6 0 0 1-.7.1h-5a1 1 0 0 1-1.1-.7l-1.2-2c-.4-.6-.6-.8-1.2-.4a282 282 0 0 0-5.5 2.8 2.5 2.5 0 0 1-1.6.4h-4c0 5.8-.3 11.5-.4 17.3a3.7 3.7 0 0 1-2 .4H316l-4.2-.3zM220.4 435.3v10.4c-.8.3-28.5.4-30.2.1a7 7 0 0 1-.2-1.2V436a3.8 3.8 0 0 1 0-.7z"/><path class="cls-2" d="M322.2 470.2c1.4.3 2.4-.5 3.5-1l6.2-3.2a17.3 17.3 0 0 0 1.5-1l.6 1c1.2 2 2.2 4 3.5 5.8a21 21 0 0 0 1.9 2.3 4.6 4.6 0 0 1 .6.8l1 1.8a5.8 5.8 0 0 1 .8 3.7 1 1 0 0 1-.5 1l-7.1 4.6a5.6 5.6 0 0 1-.7.4 1.6 1.6 0 0 1-2.3-.6l-5.4-8.7a46.8 46.8 0 0 0-3.3-4.4c-.6-.8-.3-1.6-.3-2.5zM273.3 422.3v8l-1.9.2h-3.1l-17.6.3h-1.4a32.3 32.3 0 0 1-.4-8.9c8.1.6 16.2.2 24.4.4zM288.5 467.6l-4 3.9-2 2.1a1.3 1.3 0 0 1-2 .1 5.8 5.8 0 0 1-.5-.5l-6.3-6.6a6.5 6.5 0 0 1-.7-.8l-2.6-3.6 7.3-6.7 2.4 2.6c.6.5 1 1.2 1.5 1.8a19.8 19.8 0 0 0 1.5 1.9l4.4 4.2a2.5 2.5 0 0 1 1 1.6zM304.4 462.8l-.4-6.2h25.8v6.1zM242.5 455.7l6.7 6.1-.8 1c-2.1 1.9-3.6 4.3-5.3 6.5l-1 1.3c-.1.2-.4.5-.3.6.2 1-.6 1.2-1 1.5a1.3 1.3 0 0 1-1.6-.3 22.5 22.5 0 0 1-4.4-4.7 1.9 1.9 0 0 1 0-2.2 70 70 0 0 1 5.3-7.5 23.2 23.2 0 0 1 2.4-2.3zM260.4 471a31 31 0 0 1-6.6-9.2c-.4-1-.3-1.4.6-1.9l5.3-3c1.2-.6 1.7-.5 2.6.4s1.6 2 2.4 3a29 29 0 0 0 2 2.3 2.3 2.3 0 0 1 .7 2.5 1.1 1.1 0 0 1-.4.6l-4.4 3.4c-.8.5-1.5 1.2-2.2 1.8zM352.5 482v-11a31.5 31.5 0 0 1 6.4.2 55.5 55.5 0 0 1 0 10.9h-6.3zM219.1 449l1-.6c0 .6 0 .6-1 .5z"/><path d="M283.2 362.7a27.2 27.2 0 1 0-27.2-27.2 27.2 27.2 0 0 0 27.2 27.2z" stroke="#ec1b23" stroke-miterlimit="10" stroke-width="7.7" fill="#fff"/><text transform="translate(264.3 346.5)" font-size="30.7" font-family="NotoSansCJKtc-Black-B5pc-H,Noto Sans CJK TC">16</text><path transform="rotate(-45 282 333.5)" fill="#ec1b23" d="M252.9 330.3h58v6.4h-58z"/><text transform="translate(35 475.8)" font-family="NotoSansCJKtc-Bold-B5pc-H,Noto Sans CJK TC" font-size="36.8" fill="#fff">請投</text><text class="cls-7" transform="translate(180 353.9)">公投</text><text class="cls-7" transform="translate(315.8 353.9)">號</text><path class="cls-2" d="M126.5 299.5H140l.1 2.5v13.2a15.3 15.3 0 0 0 2.1 8 3.5 3.5 0 0 0 2.1 1.9l.1-2v-19-2c0-2.6.1-2.7 2.7-2.7h12v25.7h3.4c1 0 2-.4 3.3-.6l.6 5.2v3.7c0 1.3.4 2.8.6 4.2l.4 2.9c-1.3.7-2.6.4-3.7.5H162c-1.5 0-1.6.1-1.6 1.6l-.1 16.4v2.5h-15.7a22.8 22.8 0 0 1-.2-2.6V343l-.1-2-4.7-.4-6.7-.8c-4.3-.5-5.5-2.6-6-5.8a95.3 95.3 0 0 1-1-25l.1-4.9.4-4.7z"/><path class="cls-2" d="M106.2 323.6l-12.7 1a19.6 19.6 0 0 1-1.1-7.6c.3-6.9 3.5-11.7 9.7-15 5.3-3 11-3 16.7-2.7 2.2.1 4.3 1.6 6.2 2.4v6c0 4.4-.3 8.6-.1 12.9.3 4.8 1 9.5 1.6 14.3a8 8 0 0 0 1.3 3 2.1 2.1 0 0 1 .1 2.3l-1.5 3.7c3.8.2 7.4-1.4 11.4-.6a22 22 0 0 1 .2 2.2v7.8a7 7 0 0 1-1 4 12.2 12.2 0 0 0-.7 1.7c-7.8 1.2-15.6 2.6-23.6 2.3-5.6-.2-11.3 0-17 0h-1.1l-.6-6.9-.7-6.5c1.1-.6 2-1 2.1-2.2 0-1 1-1 1.7-1.2a34 34 0 0 0 17.1-11.5 16.6 16.6 0 0 0 3.4-12.2 5 5 0 0 0-8-3.3 5.5 5.5 0 0 0-1.5 1.9c-.4.9-.3 2-1.6 2.6-.2.1-.2 1-.3 1.6z"/><path class="cls-2" d="M60.6 354.1l-12-11.4 3.2-3 7.6-7a27.6 27.6 0 0 1 3-2 4.3 4.3 0 0 0 .8-.8l3.7-4.7h15.8v-2.1-12.8a3.2 3.2 0 0 1 1.3-2.8l10.2-9a24.9 24.9 0 0 0 2-2.1l12-13.5 1.3-1.5c4.3 3.4 7.5 7.7 11.5 11.3l-4.5 5a2.2 2.2 0 0 1-2 .5 22.6 22.6 0 0 0-8.1.9 23.3 23.3 0 0 0-11.3 7.2 19.2 19.2 0 0 0-3.8 10.8 38 38 0 0 0 0 4.4 2.5 2.5 0 0 1-.9 2c-6.3 6-11.6 12.7-17 19.4-2.7 3.2-6 5.8-9.1 8.6a36.9 36.9 0 0 1-3.7 2.6z"/><path class="cls-2" d="M81 269V307.8c0 .9-.4 1.9.4 2.6.2.2.1.7.1 1V324a5.4 5.4 0 0 1-.1.8c-4.6.2-9.1-.3-14-.3a43.4 43.4 0 0 1-1-4.7 64.1 64.1 0 0 1-.3-6.7v-24.2h-6.4a15.7 15.7 0 0 1-.3-1.6v-8.4a3.3 3.3 0 0 1 .6-1.9l5-6.4a3 3 0 0 1 3-1.5c3.2.2 6.5.3 9.8.3a23.7 23.7 0 0 0 3.1-.3zM44.7 289h-9.8c-.2-3.8 0-7.5 0-11l3.1-2.5 5.7-5a3.5 3.5 0 0 1 2.5-1H54c1 0 2-.2 2.7 1 .2.2.7.1 1.4.3v31.7l.2 19.7v2.3a12.8 12.8 0 0 1-1.4.2h-8.8a2.5 2.5 0 0 1-2.1-1 7.4 7.4 0 0 1-1.5-4 23.6 23.6 0 0 1-.2-2.7l.2-24c0-1.3 0-2.5.2-4z"/></g></g></svg>