<svg xmlns="http://www.w3.org/2000/svg" viewBox="0 0 260 250"><defs><style>.cls-1{fill:#cbccc7}.cls-2{fill:#ffe9a1}.cls-3{fill:#8e7de4}.cls-4{fill:#cfefff}.cls-5{fill:#67a3c1}.cls-7{fill:#fff}.cls-8{fill:#bbac77}.cls-10{fill:#211613}</style></defs><g id="Layer_2" data-name="Layer 2"><g id="圖"><path class="cls-1" d="M90 120l-4-17c0-3-4 7-4 7s-10-21 0-57l-8 2s9-28 25-32c0 0-1-6-6-6 0 0 18-8 36-4l-5-7s13 1 22 7c0 0 23-9 37-4l-5 6s27-3 44 35l-13-3s10 16 8 48c0 0-8-11-15-11s-12 6-6 24c3 9-32-14-36-25l-7-16s-41-2-63 53zM207 122l2 19s8 7 16 9l-8-16s9 2 14 4-16-26-16-26z"/><path class="cls-2" d="M94 115s5-1 5 19 31 44 53 43 23-7 24-9 1 24 1 24l21-19a26 26 0 0 0 11-23 279 279 0 0 0-2-28s10-8 9-18-2-16-11-17-14-3-14 5 7 19 7 19-20-5-23-12-16-22-16-22l-6-10s-20 2-26 6-16 11-20 17l-13 25zM100 243s-26-25-20-44 10-25 16-25 5 4 5 4l1 4s11-4 14 7 7 14 2 23 14 27 14 27-7 22-32 4z"/><path class="cls-1" d="M176 168l-15 11-8 11-15 12s-4 33 1 42c0 0 23 4 95 1 0 0 22-32 23-43s-33-28-34-31-4-15-12-15c0 0-6 14-15 20a95 95 0 0 0-15 16l-4-2z"/><path class="cls-3" d="M95 57l16-4c5-2 10-1 15-4a2 2 0 0 0 0-4c-5-3-12-1-18 1s-11 4-15 9c-1 1 1 2 2 2zM92 120c4-5 6-12 7-17 1-7 3-14 8-19l9-5a29 29 0 0 0 5-4 25 25 0 0 1 6-3 59 59 0 0 1 12-4c5-1 9 0 14-2 2 0 2-3 0-4-4-1-9 0-13 1l-14 3-6 2-7 1a40 40 0 0 0-11 7c-6 5-9 11-9 19s1 16-3 23a1 1 0 0 0 2 2z"/><path class="cls-3" d="M99 98l8-8 7-8c1-2-1-3-2-3-4 2-6 5-9 8a79 79 0 0 0-7 9c-1 2 2 4 3 2zM153 59c0 6 3 11 5 16a74 74 0 0 0 8 15 81 81 0 0 0 12 12c4 3 10 9 15 8 1-1 3-3 2-4-2-5-8-7-12-9a57 57 0 0 1-11-11 64 64 0 0 1-9-13l-6-15c-1-2-4-1-4 1zM212 113c-3 7-3 15-2 22 0 6 4 15 11 14a4 4 0 0 0 2-6l-4-5-1-8c-1-5 0-11-2-16a2 2 0 0 0-4-1zM181 57l7 2 6 2a3 3 0 0 0 3-3c-1-6-12-8-16-5a2 2 0 0 0 0 4zM203 44c2 3 5 4 9 6 3 1 7 2 10 0a2 2 0 0 0 0-3c-1-2-4-4-7-5l-9-3a3 3 0 0 0-3 5zM194 85l5-2c3 0 5 1 6 3 3 2 5 6 10 6a3 3 0 0 0 3-2c0-6-6-11-12-12-4-1-12 0-14 4 0 2 1 3 2 3z"/><path class="cls-4" d="M158 198h-1l1 1c0-4 6-11 9-14l5-6c2-2 4-3 5-6a3 3 0 0 0-3-3c-4 0-7 4-9 7a47 47 0 0 0-8 10c-2 3-4 8-4 11 1 3 3 4 5 3v-3z"/><path class="cls-4" d="M149 195c-4 2-9 4-11 9v16a114 114 0 0 0 1 16c1 4 2 10 6 12a3 3 0 0 0 3-1 15 15 0 0 0 1-1 2 2 0 0 0-2-4v1l2 2-2-9a89 89 0 0 1-2-14v-13c0-5 5-6 8-9s-1-7-4-5zM183 194c-3 0-5 3-7 5a51 51 0 0 0-5 5c-4 5-1 10 1 15a113 113 0 0 1 3 19c0 5 0 9 5 11 1 1 4-1 2-2-2-4-1-9-2-13a107 107 0 0 0-2-14l-2-7c-1-3-2-5 0-7 3-3 8-6 9-10a2 2 0 0 0-2-2z"/><path class="cls-4" d="M185 206l-1 1c1 0 1 0 0 0h2a1 1 0 0 1 0 1h-1 1s0 1 0 0l1-4h-3q-2 0 0 4h-1l-1-1-1-1a2 2 0 0 0 2 2 2 2 0 0 0 2-4 3 3 0 0 0-5 1 4 4 0 0 0 3 4h5a3 3 0 0 0 2-3 3 3 0 0 0-2-2 6 6 0 0 0-6 0 4 4 0 0 0-1 6 4 4 0 0 0 5 1c2-1 3-4 1-5a2 2 0 0 0-2 0zM187 233c-1-1 2-2 2-2l-3-1c-1-2 1-1 1-1a3 3 0 0 1 0-1 31 31 0 0 0 4-1 2 2 0 0 0 0-4c-5-3-11 4-8 9s11 0 8-5a3 3 0 0 0-4-1c-2 1-5 3-5 7 1 2 3 4 5 3s1-3 0-3zM185 192c6 1 14 3 19 6 3 1 13 10 14 2 1-6-9-11-14-12a28 28 0 0 0-10-2l-10 2c-1 1-1 4 1 4z"/><path class="cls-4" d="M187 189c8 0 16-7 22-12 6-6 9-14 4-22a2 2 0 0 0-3 1l-3 10c-1 4-4 5-6 7-5 4-13 8-16 14a2 2 0 0 0 2 2z"/><path class="cls-5" d="M156 207c4 0 7-3 9-4a43 43 0 0 1 12-4c4-1 2-8-2-7a43 43 0 0 0-12 5c-3 2-8 4-8 8a2 2 0 0 0 1 2zM182 197c7 1 13 3 20 6 4 3 10 6 12 11s9 3 7-2c-2-7-8-11-15-14s-16-7-24-5c-1 1-2 3 0 4z"/><path class="cls-5" d="M223 172c-4 5-3 12-4 18l-3 24c-1 4 5 6 6 2a123 123 0 0 0 3-22v-10l1-11a2 2 0 0 0-3-1zM181 213c2 6 13 3 11-3a3 3 0 0 0-4-1l-1 2h-1a3 3 0 0 1-1 1h-1a3 3 0 0 0-1-1c-1 0-3 1-2 2zM185 238c2 2 6 1 8-1a11 11 0 0 0 3-4v-5a2 2 0 0 0-3-1c-2 1-2 4-3 6a4 4 0 0 1-4 2c-2 0-2 2-1 3zM254 200c-4 1-4 6-6 10a68 68 0 0 1-6 10 87 87 0 0 1-16 18c-5 4 2 11 7 7a70 70 0 0 0 16-21 85 85 0 0 0 5-11c1-4 3-8 2-12a2 2 0 0 0-2-1z"/><path d="M139 158a12 12 0 0 1 5 0c3 0 5 0 7-2a3 3 0 0 0-1-4c-1-2-5-2-7-2-3 0-5 2-6 4s0 5 2 4z" fill="#d63665"/><path class="cls-7" d="M114 125a15 15 0 0 0 0-9c-1-2-5-6-1-7s6 2 8 5l2 10 2-3-14 3 4 3v-10-2h-3c3 0 5 8 5 10l5-2a18 18 0 0 1-3-6c-1-2-2-4-1-6l-2 2c2-1 5 4 6 6a2 2 0 0 0 3-1 8 8 0 0 0-2-8c-2-2-6-4-9-3-3 2-2 6-2 9a25 25 0 0 0 6 11c2 3 5 0 5-3-1-5-4-15-10-15-3 0-4 2-5 5v13c0 2 2 3 4 3l15-3a3 3 0 0 0 2-3c-1-9-4-21-15-21-4 0-9 2-9 7l3 6 3 9a2 2 0 0 0 3 0zM148 122l-1-15c0-2-1-4 1-5l7-1c10 1 12 14 11 22l3-2-23-3 3 3v-20l-2 2h1-3l1 7 1 7 6-1a31 31 0 0 1 0-12l-5 1c3 4 4 9 5 14l5-2c-2-3-3-8-2-11l-1 2 1-1h-3l2 6 2 5 5-2a16 16 0 0 1-1-9l-5 1a37 37 0 0 1 5 9l2-3-5-6a35 35 0 0 1-4-7l-3 4c3 0 4 1 6 3 1 1 5 5 4 6a3 3 0 0 0-2 2c-1 5 4 9 8 6 2-1 1-5-2-4l-2 2c6-1 5-9 2-12-3-5-8-9-14-9-3 0-4 3-3 5a41 41 0 0 0 8 11c2 3 5 5 9 4a3 3 0 0 0 2-3 46 46 0 0 0-7-12c-1-2-5-1-5 1a22 22 0 0 0 2 14c2 3 7 1 6-2l-4-12c-2-2-4-4-6-3-6 3-2 14 0 18 2 3 6 0 5-2-1-6-2-12-6-16-1-2-4-1-5 1a38 38 0 0 0 0 15c1 3 6 2 6-1l-2-15c-1-3-2-4-6-4a3 3 0 0 0-2 3v20a3 3 0 0 0 3 3l23 2a3 3 0 0 0 2-2c2-11-1-26-15-29-4 0-13 0-14 6a284 284 0 0 0 3 22c0 2 3 1 3-1z"/><path class="cls-1" d="M109 110c3-5 9 0 11 3 3 5 3 10 6 14a2 2 0 0 0 3-1c0-4-1-9-3-13-1-3-3-6-6-8-5-4-13-3-15 3-1 3 3 4 4 2zM142 103c7-1 14-5 20 1s6 13 5 20c0 3 5 4 5 1 2-9 0-20-7-26s-18-5-25 1c-1 1 0 3 2 3z"/><path class="cls-8" d="M97 116l11-15 12-16c9-9 22-9 35-9 4 0 4-6 0-6-13-1-27 0-37 9-6 5-10 11-14 16s-9 12-10 19c0 2 2 4 3 2z"/><path class="cls-8" d="M151 71c1 6 5 11 9 16a158 158 0 0 0 11 15c7 8 18 19 30 16a4 4 0 0 0 2-6 25 25 0 0 1-7-14c0-2-4-1-4 1l5 17 3-5a24 24 0 0 1-14-5 90 90 0 0 1-11-11l-10-12-10-14c-2-2-5-1-4 2zM204 122c3 1 6 1 8-2a15 15 0 0 0 3-7c2-6 3-15-1-20a3 3 0 0 0-4 0c-3 5-2 11-2 15a16 16 0 0 1-2 6l-3 6a2 2 0 0 0 1 2z"/><path class="cls-8" d="M202 124l2 4c0 2 1 3 3 3a3 3 0 0 0 2-1v-5l-3-3a3 3 0 0 0-3-1 3 3 0 0 0-1 3z"/><path class="cls-8" d="M201 125c1 12 4 23-1 35-2 5-6 8-9 12l-13 15 6 1v-10c0-3 0-6 3-9l11-14-5-3c-1 6-4 11-7 16-2 4-6 10-5 15 0 2 3 3 5 1l3-8 5-7c2-6 5-11 5-17 0-3-4-3-6-1l-13 17c-4 6-1 14-3 20a3 3 0 0 0 6 3 747 747 0 0 0 25-29c4-12 2-26-2-38-1-2-5-2-5 1zM140 166c2 1 5 0 8-1 2-1 4-3 4-6a2 2 0 0 0-2-2 12 12 0 0 0-2 1 16 16 0 0 0-3 2 23 23 0 0 1-5 2 2 2 0 0 0 0 4zM135 142a34 34 0 0 0 6-3c3-1 1-5-2-4a34 34 0 0 0-6 4c-1 1 1 4 2 3zM112 189c0 4 3 18-4 18-4-1-5 6-1 7a10 10 0 0 0 11-8c2-5-1-12-2-18-1-2-4-1-4 1z"/><path class="cls-8" d="M108 213c0 6 3 12 5 17a55 55 0 0 0 13 13c5 4 10-3 5-7a46 46 0 0 1-11-11l-4-6-4-7c-1-1-3 0-4 1zM189 143c1 7-7 13-12 17-6 4-11 8-17 10-12 5-26 5-35-5a2 2 0 0 0-3 3c9 14 28 14 42 8 8-3 15-8 22-14 6-5 10-13 6-21-1-2-3 0-3 2z"/><path class="cls-7" d="M81 130l-21-2c2 0 11-11 4-21S47 93 41 95s-18 3-23 9-11 13-13 18-6 8-3 22 6 20 13 25 11 6 20 5 20-8 23-14l6-13s12-10 17-17z"/><path class="cls-1" d="M3 145c0 4 3 9 5 12a41 41 0 0 0 10 10c4 3 8 6 13 7 6 1 11-2 15-4 4-3 8-5 11-10s2-9 6-12l9-7a20 20 0 0 0 7-9c0-3-4-5-5-2-3 5-11 8-15 11a19 19 0 0 0-6 7c-2 4-2 9-6 12-3 3-7 5-11 6-5 1-10-1-13-4a45 45 0 0 1-9-8l-7-10c-1-2-4-1-4 1z"/><path d="M101 239z" fill="#221714"/><path class="cls-10" d="M102 23c-8-4-15 5-19 10-5 6-10 15-11 23 0 2 2 2 3 2l7-4-3-2c-2 20-7 40 0 59 1 1 3 2 4 0l3-8a1 1 0 0 0-2-1l-4 8h3c-7-19-2-38 0-58 0-1-2-2-3-1l-7 4 3 1c1-6 5-13 8-19 4-4 10-13 17-11 1 0 3-3 1-3z"/><path class="cls-10" d="M103 23c-3-4-7-6-11-8l-1 4 19-4c7-1 14 1 20 2a2 2 0 0 0 3-2 14 14 0 0 0-7-11l-2 4 10 2 9 5c2 1 4-2 3-3-5-6-14-6-20-8-3 0-4 3-2 4 3 2 4 4 5 8l3-3c-7-1-14-3-20-2-7 0-14 3-21 4-2 0-2 3 0 4a18 18 0 0 1 9 6c1 1 3 0 2-2z"/><path class="cls-10" d="M146 16c13-3 25-8 39-4V8c-3 1-8 3-8 7a2 2 0 0 0 2 1l8-4c1-1 1-4-1-4-14-4-27 0-41 4-2 1-1 4 1 4z"/><path class="cls-10" d="M176 18c11-1 19 4 27 11 7 6 17 14 19 23l3-3a83 83 0 0 0-18-5c-3 0-3 3-1 5 7 5 9 14 9 23v24h4c-1-4-2-7-5-8-2-1-4 1-3 3a11 11 0 0 1 4 6 2 2 0 0 0 4-1c0-16 4-40-11-51l-2 4a71 71 0 0 1 18 5c2 0 3-2 3-3-3-11-14-19-21-26-9-8-19-14-31-11-2 1-2 4 1 4zM87 91c-4 4-4 10-3 15 0 6 2 12 5 16a2 2 0 0 0 4 0c5-12 10-25 19-35a51 51 0 0 1 41-17c3 0 3-4 0-4a55 55 0 0 0-43 17c-10 11-16 24-21 38l4-1c-5-7-8-19-4-27 1-2-1-3-2-2z"/><path class="cls-10" d="M153 59c-2 12 6 24 13 34s19 18 31 20a2 2 0 0 0 3-3c-3-6-7-14-5-20 2-9 13 0 16 3 2 1 4 0 3-2-3-6-16-13-21-6s-1 20 3 27l2-3c-11-2-21-10-28-19-7-8-14-20-14-31 0-2-3-2-3 0z"/><path class="cls-10" d="M211 93c2 5 2 12 1 17 0 3-1 6-3 8s-3 1-6 1a2 2 0 0 0-1 3 7 7 0 0 0 8 1c3-2 5-6 5-9 2-6 3-17-1-22-2-2-4-1-3 1zM93 116c6 8 4 19 8 29 3 9 11 17 19 23 9 7 20 12 31 13 10 0 18-5 26-10 9-5 20-10 21-21 0-2-3-3-4-1-5 10-16 15-25 21-5 3-10 5-16 6-7 0-14-2-20-5-11-6-22-15-28-27l-4-16c0-5-1-11-5-14-1-1-4 0-3 2z"/><path class="cls-10" d="M206 125c0 12 3 27-2 38-3 6-8 10-13 14-5 5-9 9-12 15a2 2 0 0 0 2 3c7 1 13 0 20 3a35 35 0 0 1 13 10 2 2 0 0 0 4-1c3-15 16-51-9-55-3 0-3 5 0 5 10 1 11 14 10 22l-6 27 4-1c-4-5-9-8-15-11-7-3-14-3-21-3l2 3c6-12 21-17 26-30 2-6 2-13 2-19a102 102 0 0 0-2-21c0-2-3-1-3 1z"/><path class="cls-10" d="M176 170l-1 22 2-3c-10-1-17 8-25 14l4 1c-1-5 0-11 2-15 2-6 4-10 9-12 2-1 1-4-1-4-6 0-10 8-12 13-2 6-4 13-3 19a2 2 0 0 0 4 2c6-5 13-14 22-13l2-2c1-8 2-16 0-23-1-1-3-1-3 1z"/><path class="cls-10" d="M179 193c-3 1-6 4-8 7s-4 4-4 8c1 4 3 7 3 12l3 17c0 2 3 1 3 0a59 59 0 0 0-3-26l-2-5 3-4c3-2 6-4 7-7a2 2 0 0 0-2-2zM156 186c-4 0-6 3-9 5l-8 6c-4 4-4 10-4 15v20c1 4 1 11 5 13 2 1 4-1 3-2-3-4-3-8-3-13v-16c0-5-1-10 2-14l6-4 8-7a1 1 0 0 0 0-3zM218 167c1 3 5 6 7 8l9 7 11 7c3 2 7 5 9 9s-1 8-2 11l-5 11a82 82 0 0 1-15 23 2 2 0 0 0 2 3c8-4 13-14 17-23l5-12c2-4 4-8 4-12-1-8-11-13-17-17l-11-8c-3-3-8-5-11-9-1-1-3 0-3 2zM141 102c3-3 6-6 11-5a19 19 0 0 1 11 4 20 20 0 0 1 7 9c1 5 0 8-1 13 0 2 2 2 3 1 4-3 4-10 3-15a25 25 0 0 0-10-13c-8-6-23-7-28 4 0 2 2 3 4 2z"/><path class="cls-10" d="M142 108c-1 4-1 11 2 14 0 1 3 1 3-1l-1-7-1-7c0-2-3-1-3 1zM105 109c5-4 10-8 16-2 4 5 5 12 6 18a2 2 0 0 0 3 0c2-8-2-18-8-23s-15-2-19 5c-1 1 1 3 2 2z"/><path class="cls-10" d="M107 114l1 7 1 7h3v-9c0-2-1-5-3-6a1 1 0 0 0-2 1zM133 157l7-5a14 14 0 0 1 8-1c2 1 3 2 1 4l-7 2a2 2 0 0 0 0 3c6 3 17-6 10-11-3-3-8-2-12-1-3 1-9 4-9 8a1 1 0 0 0 2 1zM145 169l2-1a5 5 0 0 0 3 0 1 1 0 0 0 0-3 4 4 0 0 0-3 0 9 9 0 0 0-3 1 1 1 0 0 0 0 2 1 1 0 0 0 1 1zM140 86a16 16 0 0 1 10-3l9 1c1 0 2-3 1-4-7-3-17-3-22 3-1 2 0 4 2 3zM108 90l8-1 9 1c2 0 2-3 1-4-6-3-15-3-19 1a1 1 0 0 0 1 3zM181 210c-4-5 6-9 9-4 1 2-1 3-3 3l-7-1a2 2 0 0 0-1 2c2 4 8 3 11 2 4-2 4-6 2-9-6-7-20 1-13 8 1 2 3 0 2-1zM149 13c1-4-2-9-5-12a2 2 0 0 0-2 2 42 42 0 0 1 4 11 2 2 0 0 0 3 0z"/><path class="cls-10" d="M149 13l11-10c2-2 0-4-2-3a30 30 0 0 0-12 11c-1 2 1 4 3 2zM180 73a113 113 0 0 0 6 22c2 5 5 12 10 15a1 1 0 0 0 1-2c-8-10-12-23-14-36-1-2-3-1-3 1z"/><path class="cls-10" d="M174 86c5 9 12 16 19 23a1 1 0 0 0 2-2c-6-8-13-14-18-23a1 1 0 0 0-3 2zM189 178a8 8 0 0 1 3-1 14 14 0 0 1 2 0l3-1a2 2 0 0 0 0-2l-5-1a7 7 0 0 0-5 3c-1 1 1 2 2 2zM179 177a6 6 0 0 0 2 1h1c-1 0 0 0 0 0a3 3 0 0 0 1 1 1 1 0 0 0 2-2l-3-3a4 4 0 0 0-3 1 1 1 0 0 0 0 2zM185 233c-4-2 2-11 6-7 2 1 1 4-1 5-1 2-4 3-6 1-1-1-3 1-2 2 7 7 18-5 11-11s-17 8-9 12c2 1 3-1 1-2zM113 28c-9 4-17 12-19 22a2 2 0 0 0 3 2c9-4 19-6 30-7a2 2 0 0 0 0-4c-11-1-22 3-32 7l3 3c2-9 9-15 17-20a2 2 0 0 0-2-3zM178 37a23 23 0 0 1 15 17l2-2c-5-2-11-2-16-3a1 1 0 0 0-1 3l16 4c2 0 3-1 3-3a26 26 0 0 0-18-20c-2 0-3 3-1 4zM89 69c-3 3-2 10-2 14a32 32 0 0 0 5 15 2 2 0 0 0 3-1c-2-10 6-17 14-23a2 2 0 0 0-2-3c-10 5-17 16-15 27l3-1a29 29 0 0 1-5-15l1-13a1 1 0 0 0-2 0zM213 110l8 15a81 81 0 0 0 11 15l3-3-17-6a2 2 0 0 0-3 2c2 7 5 12 9 17l1-3c-5 0-10-3-14-6a2 2 0 0 0-2 2 23 23 0 0 0 16 8 2 2 0 0 0 2-3c-3-5-7-10-8-16l-3 2 17 6c2 1 4-1 2-3l-11-15c-3-5-5-10-9-14a1 1 0 0 0-2 2zM100 185c5 0 9-1 13 3 3 2 4 7 5 10 0 4 0 8-2 11s-5 2-8 1c-2-1-3 2-2 3 4 3 9 4 13 0 4-3 5-9 5-14 0-6-3-12-7-15-5-5-12-6-17-2a2 2 0 0 0 0 3z"/><path class="cls-10" d="M96 186c6-2 12-10 4-14-8-3-15 7-18 13-5 9-5 22-2 32a62 62 0 0 0 8 14c3 5 7 10 11 13 2 1 4-1 3-2l-8-11a77 77 0 0 1-6-10 38 38 0 0 1-5-25 27 27 0 0 1 10-17l4-2a3 3 0 0 1 1 1h1l-4 5c-1 1 0 3 1 2zM113 212l6 16c3 4 6 10 11 12a2 2 0 0 0 2-3c-3-4-7-7-9-12l-7-14c0-1-3-1-3 1zM64 131l16 1-1-3a37 37 0 0 1-7 9l-9 8a2 2 0 0 0 2 3c4-1 7-5 10-8a40 40 0 0 0 8-10l-1-3a70 70 0 0 0-18 0 2 2 0 0 0 0 3z"/><path class="cls-10" d="M61 148c0 6-5 11-9 15s-10 8-16 9c-14 2-27-10-30-23-6-21 10-50 32-52a27 27 0 0 1 18 7c4 2 7 5 7 10 1 4-1 9-3 13-1 1 1 4 2 2 5-6 8-15 4-22-4-6-12-11-19-13-13-4-26 3-34 13-9 11-15 25-12 39 2 15 15 30 31 31 9 0 16-4 22-10 6-5 12-12 10-20 0-2-3-1-3 1zM166 135c3 0 5 1 7 3 1 0 3-2 1-2-3-2-5-4-8-4a1 1 0 0 0 0 3zM175 130c3 0 5 0 7 3 1 1 3 0 2-1-1-4-5-5-9-5a1 1 0 0 0 0 3zM134 139l7-2c2-1 2-3 0-4-4 0-7 1-9 4a2 2 0 0 0 2 2z"/><path class="cls-10" d="M21 130c0-6 2-11 7-15 4-3 12-4 13 2 1 4-4 10-6 14s-5 9-3 14c0 2 3 2 4 0 1-7 5-13 9-19 2-6 4-12-2-17-6-4-14-3-19 2-5 4-9 13-7 20a2 2 0 0 0 4-1zM35 160a5 5 0 0 0 1 0c1 0 0 0 0 0a2 2 0 0 0 1 0 2 2 0 0 0 2-1 2 2 0 0 0-2-3 7 7 0 0 0-2 0 2 2 0 0 0-2 2 2 2 0 0 0 2 2z"/></g></g></svg>