<svg xmlns="http://www.w3.org/2000/svg" viewBox="0 0 829 422.4"><defs><style>.cls-1,.cls-13,.cls-6{font-size:25.45px}.cls-1,.cls-6{fill:#58595b}.cls-1{font-family:NotoSansCJKtc-Medium-B5pc-H,Noto Sans CJK TC}.cls-13,.cls-6{font-family:NotoSansCJKtc-Regular-B5pc-H,Noto Sans CJK TC}.cls-7{fill:#7d8080}.cls-8{fill:#703d78}.cls-9{fill:#179567}.cls-10{fill:#be8864}.cls-11{fill:#b21b11}.cls-12{fill:#2e578b}.cls-13{fill:#fff}</style></defs><g id="Layer_2" data-name="Layer 2"><g id="圖"><text class="cls-1" transform="translate(265.4 395.8)">202<tspan x="43.5" y="0" letter-spacing=".3em">5</tspan><tspan x="64.4" y="0" letter-spacing="0">非核家園</tspan></text><text class="cls-1" transform="translate(518.1 395.8)">2017</text><text class="cls-1" transform="translate(662.8 395.8)">202<tspan x="43.5" y="0" letter-spacing=".3em">5</tspan><tspan x="64.4" y="0" letter-spacing="0">以核養綠</tspan></text><text class="cls-6" transform="translate(49.6 336.5)">抽蓄水力</text><text class="cls-6" transform="translate(49.6 283.6)">燃油</text><text class="cls-6" transform="translate(49.6 230.8)">再生能源</text><text class="cls-6" transform="translate(49.6 125)">核能</text><text class="cls-6" transform="translate(49.6 177.9)">燃氣</text><text class="cls-6" transform="translate(49.6 72.2)">燃煤</text><path class="cls-7" d="M476.3 0h141.8v13H476.3zM675 0h141.8v1.1H675z"/><path class="cls-8" d="M277.6 0h141.8v3.3H277.6zM476.3 13h141.8v4.3H476.3zM675 1.1h141.8v5.4H675z"/><path class="cls-9" d="M277.6 3.3h141.8v68.1H277.6zM476.3 17.3h141.8v16.2H476.3zM675 6.5h141.8v34.6H675z"/><path class="cls-10" d="M277.6 71.4h141.8V239H277.6zM476.3 33.5h141.8v120H476.3zM675 41.1h141.8v95.2H675z"/><path class="cls-11" d="M277.6 239h141.8v4.3H277.6zM476.3 153.6h141.8v28.1H476.3zM675 136.3h141.8v69.2H675z"/><path class="cls-12" d="M277.6 243.3h141.8v98.4H277.6zM476.3 181.7h141.8v160H476.3zM675 205.4h141.8v136.3H675z"/><text class="cls-6" transform="translate(183.4 22.4)">100 %</text><text class="cls-13" transform="translate(322 43.8)">20 %</text><text class="cls-13" transform="translate(534.5 34.8)">5 %</text><text class="cls-13" transform="translate(719.4 34.8)">10 %</text><text class="cls-13" transform="translate(322 158.7)">49 %</text><text class="cls-13" transform="translate(520.4 101)">35 %</text><text class="cls-13" transform="translate(719.4 101)">28 %</text><text class="cls-13" transform="translate(336.1 248.7)">1 %</text><text class="cls-13" transform="translate(534.5 177.2)">8 %</text><text class="cls-13" transform="translate(719.4 177.2)">20 %</text><text class="cls-13" transform="translate(322 302.2)">29 %</text><text class="cls-13" transform="translate(520.3 265.7)">47 %</text><text class="cls-13" transform="translate(719.3 265.7)">40 %</text><text class="cls-6" transform="translate(197.4 99.9)">75 %</text><text class="cls-6" transform="translate(197.4 177.3)">50 %</text><text class="cls-6" transform="translate(197.4 254.8)">25 %</text><path fill="#f8e046" d="M185.9 341l9.6 68.6 26.4-18.1 30.3 10.1-9.6-68.5-56.7 7.9z"/><text transform="rotate(-8 2803.8 -1234)" font-size="28.6" fill="#d12229" font-family="NotoSansCJKtc-Medium-B5pc-H,Noto Sans CJK TC"><tspan letter-spacing=".3em">勝</tspan><tspan x="35.8" y="0">!</tspan></text><path d="M15 130.3a15 15 0 1 0-15-15 15 15 0 0 0 15 15" fill="#bc2e30"/><path class="cls-9" d="M15 236a15 15 0 1 0-15-15 15 15 0 0 0 15 15"/><path d="M15 341.7a15 15 0 1 0-15-14.9 15 15 0 0 0 15 15" fill="#7e807f"/><path class="cls-12" d="M15 77.4A15 15 0 1 0 0 62.5a15 15 0 0 0 15 15"/><path class="cls-10" d="M15 183.1a15 15 0 1 0-15-14.9 15 15 0 0 0 15 15"/><path d="M15 288.9a15 15 0 1 0-15-15 15 15 0 0 0 15 15" fill="#6e4078"/></g></g></svg>